<svg fill="#fff" xmlns="http://www.w3.org/2000/svg" width="200" height="200" viewBox="0 0 200 200">
  <path d="M153,112.610702 C153,127.076664 147.279195,140.199038 137.982886,149.828084 C130.921267,157.17303 126.3625,166.533359 124.842911,176.520695 C124.172505,180.820176 120.46292,184 116.082928,184 L82.8754415,184 C78.5401437,184 74.7858652,180.864962 74.1601522,176.565481 C72.5958695,166.578145 67.992409,157.083458 60.9307899,149.783297 C51.8132565,140.28861 46.137145,127.390167 46.0030636,113.192923 C45.6902071,83.3652738 69.3779165,59.2254796 99.1439815,59.0015483 C128.865353,58.777617 153,82.8726249 153,112.610702 Z M100,46 C103.288889,46 106,43.4158816 106,40.1857335 L106,19.8142665 C106,16.6271871 103.333333,14 100,14 C96.6666667,14 94,16.5841184 94,19.8142665 L94,40.1857335 C94,43.4158816 96.7111111,46 100,46 Z M32,114 C32,110.711111 29.4158816,108 26.1857335,108 L5.81426649,108 C2.62718708,108 0,110.666667 0,114 C0,117.288889 2.58411844,120 5.81426649,120 L26.1857335,120 C29.4158816,120 32,117.333333 32,114 Z M194.185734,108 L173.814266,108 C170.627187,108 168,110.666667 168,114 C168,117.288889 170.584118,120 173.814266,120 L194.185734,120 C197.372813,120 200,117.333333 200,114 C200,110.711111 197.415882,108 194.185734,108 Z M44.1182796,161.708971 L29.7096774,176.111616 C27.4301075,178.390244 27.4301075,182.044647 29.7096774,184.323274 C30.827957,185.441091 32.3333333,186 33.7956989,186 C35.2580645,186 36.7634409,185.441091 37.8817204,184.323274 L52.2903226,169.920628 C54.5698925,167.642001 54.5698925,163.987598 52.2903226,161.708971 C50.0537634,159.430343 46.3548387,159.430343 44.1182796,161.708971 Z M151.829067,68 C153.289017,68 154.791908,67.4410914 155.90834,66.3232741 L170.293146,51.9206284 C172.568951,49.6420008 172.568951,45.9875982 170.293146,43.7089706 C168.017341,41.4303431 164.367465,41.4303431 162.09166,43.7089706 L147.706854,58.1116164 C145.431049,60.3902439 145.431049,64.0446465 147.706854,66.3232741 C148.866226,67.4410914 150.326177,68 151.829067,68 Z M44.1345995,65.3232741 C45.2510322,66.4410914 46.7539224,67 48.2138728,67 C49.6738233,67 51.1767135,66.4410914 52.2931462,65.3232741 C54.5689513,63.0446465 54.5689513,59.3902439 52.2931462,57.1116164 L37.9083402,42.7089706 C35.6325351,40.4303431 31.982659,40.4303431 29.7068538,42.7089706 C27.4310487,44.9875982 27.4310487,48.6420008 29.7068538,50.9206284 L44.1345995,65.3232741 Z M155.924731,161.708971 C153.645161,159.430343 149.989247,159.430343 147.709677,161.708971 C145.430108,163.987598 145.430108,167.642001 147.709677,169.920628 L162.11828,184.323274 C163.236559,185.441091 164.741935,186 166.204301,186 C167.666667,186 169.172043,185.441091 170.290323,184.323274 C172.569892,182.044647 172.569892,178.390244 170.290323,176.111616 L155.924731,161.708971 Z"/>
</svg>
