<svg fill="#fff" xmlns="http://www.w3.org/2000/svg" width="200" height="200" viewBox="0 0 200 200">
  <path d="M94.0625358,166.913672 L94.0625358,144.922023 C51.6082429,141.874897 18,106.416243 18,63.2683594 C18,59.9941406 20.6586537,57.3398438 23.9382467,57.3398438 C27.2178398,57.3398438 29.8764935,59.9941406 29.8764935,63.2683594 C29.8764935,101.871484 61.3339027,133.277344 100,133.277344 C138.666097,133.277344 170.123507,101.871484 170.123507,63.2683594 C170.123507,59.9941406 172.78216,57.3398437 176.061753,57.3398437 C179.340955,57.3398437 182,59.9941406 182,63.2683594 C181.999626,106.416054 148.391886,141.874004 105.939029,144.921905 L105.939029,166.913672 L124.699069,166.913672 C139.698649,166.913672 151.901458,179.096875 151.901849,194.071484 C151.901849,197.345703 149.243196,200 145.963603,200 L54.0387449,200 C50.7591518,200 48.1004981,197.345703 48.1004981,194.071484 C48.1004981,179.096484 60.3033076,166.913672 75.3028877,166.913672 L94.0625358,166.913672 Z M100,0 C134.943982,0 163.372209,28.3824219 163.372209,63.2683594 C163.372209,98.1542969 134.9432,126.537109 100,126.537109 C65.0564091,126.537109 36.6277914,98.1542969 36.6277914,63.2683594 C36.6277914,28.3824219 65.0564091,0 100,0 Z"/>
</svg>
