<svg fill="#fff" xmlns="http://www.w3.org/2000/svg" width="200" height="200" viewBox="0 0 200 200">
  <path d="M175.050069,54.56875 C174.989087,53.7546875 174.30734,53.125 173.491119,53.125 L145.345591,53.125 L145.345591,45.3125 C145.345591,20.3265625 125.002629,0 100.000018,0 C74.9974066,0 54.6544442,20.3265625 54.6544442,45.3125 L54.6544442,53.125 L26.5089158,53.125 C25.6926955,53.125 25.0109483,53.7546875 24.9499663,54.56875 L14.0044831,198.31875 C13.9716466,198.751563 14.1201924,199.179688 14.4172841,199.498437 C14.7128122,199.81875 15.1287405,200 15.5634326,200 L184.436603,200 C184.871295,200 185.287223,199.81875 185.582751,199.5 C185.878279,199.18125 186.028389,198.753125 185.995552,198.320313 L175.050069,54.56875 Z M67.1635679,45.3125 C67.1635679,27.2203125 81.8930611,12.5 100.000018,12.5 C118.106974,12.5 132.836467,27.2203125 132.836467,45.3125 L132.836467,53.125 L67.1635679,53.125 L67.1635679,45.3125 Z M60.909006,96.875 C52.2855289,96.875 45.2726014,89.865625 45.2726014,81.25 C45.2726014,75.0140625 48.3998823,69.3953125 54.6544442,66.9296875 L54.6544442,81.25 C54.6544442,84.696875 57.4611788,87.5 60.909006,87.5 C64.3568333,87.5 67.1635679,84.696875 67.1635679,81.25 L67.1635679,66.9390625 C73.4181297,69.4046875 76.5454107,75.065625 76.5454107,81.25 C76.5454107,89.865625 69.5324832,96.875 60.909006,96.875 Z M139.091029,96.875 C130.467552,96.875 123.454625,89.865625 123.454625,81.25 C123.454625,75.0140625 126.581906,69.3953125 132.836467,66.9296875 L132.836467,81.25 C132.836467,84.696875 135.643202,87.5 139.091029,87.5 C142.538856,87.5 145.345591,84.696875 145.345591,81.25 L145.345591,66.9390625 C151.600153,69.4046875 154.727434,75.065625 154.727434,81.25 C154.727434,89.865625 147.714506,96.875 139.091029,96.875 Z"/>
</svg>
