<svg fill="#fff" xmlns="http://www.w3.org/2000/svg" width="200" height="200" viewBox="0 0 200 200">
  <g transform="translate(0 23)">
    <path d="M131.241026,122.86629 C93.0923077,122.86629 60.0102564,116.465258 39.2820513,104.704387 C32.1487179,108.166484 9.68205128,119.36829 3.73846154,126.461742 C2.51794872,127.918387 1.09230769,131.66771 1,133.555194 C0.933333333,135.027226 2.61025641,139.202258 2.61025641,139.202258 C53.0564103,160.528774 81.2615385,152.404387 109.461538,146.844516 C139.461538,140.951258 166.666667,121.743032 166.666667,121.743032 C166.892308,121.49171 167.164103,121.240387 167.405128,120.999323 C155.030769,122.225161 142.892308,122.86629 131.241026,122.86629 Z"/>
    <path d="M132.046154,8.75045161 L131.620513,8.76070968 C131.266667,4.01635484 125.528205,0.241387097 118.446154,0.241387097 C111.133333,0.241387097 105.205128,4.25741935 105.205128,9.21719355 C105.205128,9.29925806 105.235897,9.37106452 105.235897,9.45312903 C38.2,16.4183548 40.9435897,63.343871 42.3076923,88.6761613 C42.5487179,93.1127742 42.2307692,97.4775806 41.9333333,100.329323 C69.2717949,115.901065 119.769231,121.619935 174.830769,115.029129 C185.030769,107.997226 198.958974,101.252548 198.958974,101.252548 C198.958974,101.252548 199.820513,75.2278387 198.958974,66.6110645 C194.420513,21.3576129 155.728205,10.9302903 132.046154,8.75045161 Z"/>
  </g>
</svg>
