<svg fill="#fff" xmlns="http://www.w3.org/2000/svg" width="200" height="200" viewBox="0 0 200 200">
  <path fill="#fff" d="M181.855556,23.4006111 C155.622222,-19.5916389 116.103704,10.3185833 116.103704,10.3185833 C113.540741,12.2507778 108.814815,13.8393889 105.603704,13.8467778 L95.0185185,13.8541667 C91.8074074,13.8578611 87.0814815,12.26925 84.5222222,10.3370556 C84.5222222,10.3370556 45,-19.5805556 18.762963,23.4116944 C-7.46666667,66.3891667 3.1037037,113.194083 3.1037037,113.194083 C4.95555556,124.65425 11.0592593,132.30175 22.5777778,131.341194 C34.062963,130.384333 58.9925926,100.477806 58.9925926,100.477806 C61.0518519,98.0136111 65.3666667,96.0001389 68.5703704,96.0001389 L132.02963,95.9890556 C135.237037,95.9890556 139.548148,98.0025278 141.603704,100.466722 C141.603704,100.466722 166.537037,130.37325 178.040741,131.330111 C189.544444,132.290667 195.662963,124.635778 197.503704,113.183 C197.5,113.183 208.088889,66.3854722 181.855556,23.4006111 Z M76.4592593,58.3943889 L62.8518519,58.3943889 L62.8518519,71.4764167 C62.8518519,71.4764167 59.9703704,73.6709167 55.5111111,73.6155 C51.0592593,73.549 49.0444444,71.2215 49.0444444,71.2215 L49.0444444,58.3980833 L36.1925926,58.3980833 C36.1925926,58.3980833 34.5888889,56.75775 34.1592593,52.4389444 C33.737037,48.1201389 35.9333333,44.6288889 35.9333333,44.6288889 L49.5444444,44.6288889 L49.5444444,31.0555 C49.5444444,31.0555 52.3444444,29.55925 56.3703704,29.6737778 C60.4,29.7993889 63.3518519,31.3104167 63.3518519,31.3104167 L63.2962963,44.6251944 L76.1481481,44.6251944 C76.1481481,44.6251944 78.3925926,47.4994722 78.5777778,50.97225 C78.762963,54.4487222 76.4592593,58.3943889 76.4592593,58.3943889 Z M138.874074,73.3051667 C132.914815,73.3051667 128.111111,68.4986944 128.111111,62.5617222 C128.111111,56.6136667 132.914815,51.8182778 138.874074,51.8182778 C144.807407,51.8182778 149.648148,56.6136667 149.648148,62.5617222 C149.648148,68.5023889 144.807407,73.3051667 138.874074,73.3051667 Z M138.874074,43.7459167 C132.914815,43.7459167 128.111111,38.9431389 128.111111,33.0061667 C128.111111,27.0581111 132.914815,22.2627222 138.874074,22.2627222 C144.807407,22.2627222 149.648148,27.0581111 149.648148,33.0061667 C149.648148,38.9468333 144.807407,43.7459167 138.874074,43.7459167 Z M165.696296,59.6135556 C159.737037,59.6135556 154.933333,54.8107778 154.933333,48.8701111 C154.933333,42.92575 159.737037,38.1266667 165.696296,38.1266667 C171.62963,38.1266667 176.47037,42.92575 176.47037,48.8701111 C176.47037,54.8107778 171.62963,59.6135556 165.696296,59.6135556 Z" transform="translate(0 34)"/>
</svg>
