<svg fill="#fff" xmlns="http://www.w3.org/2000/svg" width="200" height="200" viewBox="0 0 200 200">
  <path fill-rule="evenodd" d="M3.26936594,106.823738 C3.10986213,104.549829 3.02876674,102.254289 3.02876674,99.9398034 C3.02876674,46.4014283 46.4215687,3 99.9493025,3 C153.477036,3 196.869838,46.4014283 196.869838,99.9398034 C196.869838,102.225583 196.790742,104.492885 196.635138,106.739121 C197.441683,106.899211 198.182156,107.109222 198.865846,107.362704 C204.713259,122.059876 185.533594,159.990414 195.79638,197.931366 L161.012887,197.931366 C154.589536,160.243651 167.646833,106.377212 192.636052,106.377212 C193.549127,106.377212 194.398359,106.424777 195.190409,106.515284 C195.154609,106.418115 195.117774,106.321915 195.079888,106.22669 C193.394663,105.601883 191.364443,105.241199 188.850093,105.241199 C167.545394,105.241199 154.913425,144.394078 155.63199,179.294183 C139.876764,190.374374 120.672572,196.879607 99.9493025,196.879607 C79.0972769,196.879607 59.7832629,190.293287 43.9733471,179.087125 C44.5877202,144.354927 31.9738688,105.309833 10.7476298,105.309833 C8.24937045,105.309833 6.22482918,105.665311 4.53913119,106.295325 C4.92671869,105.331133 5.43829632,104.48575 6.05209483,103.726515 C5.37047087,104.565776 4.8391857,105.535742 4.43751143,106.627386 C5.32843361,106.508349 6.29270422,106.445846 7.34026718,106.445846 C32.3190744,106.445846 45.3711661,160.516767 38.9743161,198 L4.18514408,198 C15.1156793,157.823942 -7.38048567,117.206259 2.64473224,104.862528 C2.03093373,105.621763 1.5193561,106.467147 1.13176861,107.431338 C1.78996519,107.185343 2.49982132,106.981204 3.26936594,106.823738 Z M99.9204438,176.263332 C110.133793,176.263332 118.442781,167.952691 118.442781,157.737312 L118.442781,135.506023 C118.442781,125.290644 110.133793,116.980003 99.9204438,116.980003 C89.7070948,116.980003 81.3981062,125.290644 81.3981062,135.506023 L81.3981062,157.737312 C81.3981062,167.952691 89.7070948,176.263332 99.9204438,176.263332 Z M83.1966904,83.5998127 C87.5787487,68.8671754 82.7011998,54.4085123 72.3011908,51.305102 C61.8922246,48.197207 49.9084372,57.6232246 45.5259717,72.3554543 C41.1439134,87.0831992 46.0214623,101.546755 56.4165857,104.650165 C66.8214804,107.753575 78.8097464,98.3275577 83.1966904,83.5998127 Z M116.323268,83.5998127 C120.709856,98.3275577 132.698669,107.753575 143.103278,104.650165 C153.498522,101.546755 158.376128,87.0831992 153.994019,72.3554543 C149.616388,57.6232246 137.627575,48.197207 127.223373,51.305102 C116.818765,54.4085123 111.941159,68.8671754 116.323268,83.5998127 Z"/>
</svg>
