<svg xmlns="http://www.w3.org/2000/svg" width="200" height="200" viewBox="0 0 200 200">
  <path fill="#fff" fill-rule="evenodd" d="M186,38.4603381 C189.851871,38.4603381 193.148134,39.8315858 195.888889,42.5741222 C198.629643,45.3166587 200,48.6150653 200,52.4694408 L200,170.768531 C200,174.622906 198.629643,177.958373 195.888889,180.775033 C193.148134,183.591692 189.851871,185 186,185 L14,184.777633 C10.1481289,184.777633 6.85186556,183.406386 4.11111111,180.663849 C1.37035667,177.921313 0,174.622906 0,170.768531 L0,52.4694408 C0,48.6150653 1.37035667,45.3166587 4.11111111,42.5741222 C6.85186556,39.8315858 10.1481289,38.4603381 14,38.4603381 L51.3333333,38.4603381 L72.2222222,16.2236671 C73.85186,14.741215 75.85184,14 78.2222222,14 L121.777778,14 C124.14816,14 126.074067,14.741215 127.555556,16.2236671 L127.777778,16.2236671 L148.666667,38.4603381 L186,38.4603381 Z M81.3333333,30.2327698 L73.5555556,38.4603381 L126.444444,38.4603381 L118.666667,30.2327698 L81.3333333,30.2327698 Z M127.111111,137.191157 C134.666704,129.630651 138.444444,120.513707 138.444444,109.840052 C138.444444,99.1663966 134.666704,90.0494526 127.111111,82.4889467 C119.555518,74.9284407 110.444498,71.1482445 99.7777778,71.1482445 C89.1110578,71.1482445 80.0000378,74.9284407 72.4444444,82.4889467 C64.8888511,90.0494526 61.1111111,99.1663966 61.1111111,109.840052 C61.1111111,120.513707 64.8888511,129.630651 72.4444444,137.191157 C80.0000378,144.751663 89.1110578,148.53186 99.7777778,148.53186 C110.444498,148.53186 119.555518,144.751663 127.111111,137.191157 Z M99.7777778,87.1586476 C106.14818,87.1586476 111.555533,89.3822925 116,93.8296489 C120.444467,98.2770053 122.666667,103.650814 122.666667,109.951235 C122.666667,116.251657 120.444467,121.625465 116,126.072822 C111.555533,130.520178 106.185217,132.743823 99.8888889,132.743823 C93.5925611,132.743823 88.2222444,130.520178 83.7777778,126.072822 C79.3333111,121.625465 77.1111111,116.251657 77.1111111,109.951235 C77.1111111,103.650814 79.3333111,98.2770053 83.7777778,93.8296489 C88.2222444,89.3822925 93.5555244,87.1586476 99.7777778,87.1586476 Z"/>
</svg>
