<svg xmlns="http://www.w3.org/2000/svg" width="200" height="200" viewBox="0 0 200 200">
  <path fill="#fff" d="M95.8225882,100.666667 C95.8225882,92.5238095 93.8118824,84.647619 89.9524706,77.8857143 L89.0376471,76.2857143 L31.7658824,76.2857143 L30.8701176,77.8857143 C27.0202353,84.6380952 25,92.5238095 25,100.666667 C25,121.438095 38.2268235,138.647619 55.3892941,141.495238 L55.3892941,190 C45.4882353,190.4 38.1124706,191.904762 38.1124706,193.685714 C38.1124706,195.8 48.166,197.495238 60.5732941,197.495238 C72.9901176,197.495238 83.0627059,195.8 83.0627059,193.685714 C83.0627059,191.904762 75.6869412,190.4 65.7858824,190 L65.7858824,141.457143 C82.7768235,138.428571 95.8225882,121.285714 95.8225882,100.666667 Z M156.458235,22.8285714 L131.272,22.8285714 L131.272,1 L156.458235,1 L156.458235,22.8285714 Z M156.458235,49.8761905 L156.458235,29.5428571 L131.272,29.5428571 L131.272,49.8857143 C120.637176,54.6761905 113.204235,65.3619048 113.204235,77.8 L113.204235,97.7333333 L113.204235,161.285714 L113.204235,198.628571 L174.51648,198.628571 L174.516471,161.285714 L174.516471,97.7333333 L174.516471,77.8 C174.526,65.3619048 167.112118,54.6761905 156.458235,49.8761905 Z"/>
</svg>
