<svg xmlns="http://www.w3.org/2000/svg" width="200" height="200" viewBox="0 0 200 200">
  <path fill="#fff" fill-rule="evenodd" d="M112.884958,61.2062086 C113.009586,58.7129822 113.589022,56.1649818 114.333982,53.6722614 C114.165968,53.57218 114.005259,53.4449932 113.862638,53.2834034 C112.37521,51.6000899 112.763416,48.9104022 113.259805,46.930667 C113.691494,45.2070429 114.623049,42.9663315 116.738008,42.9461763 C116.792969,42.9458288 116.846539,42.9506938 116.900804,42.9531264 C116.854887,42.4137988 116.867758,41.8692587 116.88689,41.3997796 C116.98742,38.925545 117.500854,36.4624305 118.407712,34.1574308 C119.216475,32.101592 120.291695,30.1830176 121.646243,28.4357632 C122.729116,27.0391411 124.066966,25.3287222 125.794415,24.7143336 C126.461601,24.4769878 126.928422,24.5357161 127.378547,24.6392725 C127.312106,24.4696902 127.269668,24.2869026 127.258537,24.0891723 C127.25471,24.0193239 127.255754,23.9498229 127.260276,23.8799744 C123.153847,21.0703976 118.899579,16.2623203 120.955403,11.0462723 C121.964878,8.48446644 123.956696,6.344879 126.481081,5.22139577 C128.975549,4.11077023 134.913087,4.58476686 135.259203,0.890790162 C135.324948,0.188482832 135.970567,-0.206282693 136.618968,0.110989248 C140.818623,2.16648052 141.317099,7.07081666 140.753226,11.2075146 C140.22066,15.1127742 138.673053,18.4846139 135.125627,20.0563784 C136.019614,20.8045564 136.51809,21.9005867 136.558442,23.0511753 C138.385376,22.3262802 140.369194,21.9871154 142.333879,22.1351525 C146.47892,22.4479069 150.124441,24.7987773 152.358714,28.2536706 C152.388282,28.2991938 152.40811,28.3447169 152.428633,28.3898925 C152.719092,28.2811235 153.061034,28.2953712 153.361928,28.5302845 C154.202694,29.1860262 156.177119,28.6161182 157.220684,28.6609463 C158.39226,28.7106395 159.579142,28.884392 160.708975,29.1957563 C162.756102,29.7597567 164.725309,30.7918462 166.237087,32.2965422 C167.687991,33.7411199 168.780604,35.6228588 169.213335,37.6300469 C169.221684,37.6686199 169.230032,37.7103205 169.238381,37.7495885 C169.988356,37.3579506 170.882692,37.067089 171.720675,37.0358135 C171.714761,33.7407724 174.595697,30.7727334 177.714565,29.9769472 C181.627587,28.9789133 186.157007,35.245816 189.460239,31.0952179 C190.044288,30.3612876 191.198471,31.1615913 190.970626,31.9733627 C189.733653,36.3800719 189.076207,42.3964236 184.7635,44.9710871 C181.399046,46.9800127 177.378189,46.2165445 174.720925,43.6342359 C174.073566,44.5582513 173.007043,45.1740299 171.862252,45.2188581 C172.565962,46.6196502 172.617793,48.3158214 172.362467,49.8333752 C171.644494,54.0996924 168.671377,57.7689962 164.777488,59.5760215 C164.762182,59.5829716 164.746876,59.5867942 164.731571,59.5933968 C165.052293,59.6420474 165.395626,59.789737 165.768875,60.0694784 C167.235779,61.1679413 166.947407,63.2470629 166.444757,64.7733043 C165.92854,66.3402037 164.985157,68.1941421 163.579127,69.1511705 C162.877155,69.6289897 162.027693,69.7516589 161.331635,69.472265 C159.298423,74.7484314 156.377832,79.5648488 150.616656,81.2380847 C147.301249,82.2013682 143.74791,82.1582776 140.248488,81.652658 C139.660961,82.0627137 139.232751,82.6009988 138.983687,83.2115648 C139.92707,83.1333762 140.856887,83.2713357 141.804444,83.5736649 C142.786439,83.8864193 144.191425,84.2919574 144.903484,85.0762759 C145.292734,85.5047494 145.438833,86.0176666 145.38909,86.5246762 C147.116538,86.3967944 148.694061,87.0431534 149.929642,88.1315387 C150.053479,88.1106884 150.180446,88.1086034 150.301499,88.1343187 C159.885254,90.1543645 159.967348,102.440746 162.455555,109.805765 C164.162132,114.857443 166.484412,119.681505 168.666159,124.539623 C169.411961,126.199654 170.155675,127.860727 170.900085,129.521105 C171.305684,130.425313 171.71163,131.329173 172.117577,132.232686 C172.339509,132.725795 172.751369,134.31841 173.167056,134.751054 C173.24915,134.792059 173.328461,134.852873 173.403945,134.931756 C173.470038,134.986662 173.524999,135.046085 173.567785,135.109679 C175.193312,136.990723 177.067555,138.597932 179.238866,139.826015 C180.206599,140.373335 182.778639,141.011701 182.764725,142.491029 C182.758811,143.108893 182.446438,143.449795 181.965702,143.60235 C182.332341,143.856029 182.6715,144.145153 182.955697,144.50482 C183.775592,145.542122 183.943954,147.160452 182.373388,147.513865 C181.694027,147.666767 180.741948,147.604564 179.760301,147.404053 C180.178423,147.997592 180.584022,148.60086 180.976402,149.214901 C181.243555,149.633644 181.056409,150.203552 180.652201,150.450281 C178.796047,151.582799 176.73257,149.966207 175.312278,148.798938 C175.288972,148.779477 175.267057,148.759322 175.243751,148.739862 C175.275405,148.848978 175.311582,148.957747 175.341846,149.066864 C175.706746,150.386687 175.232271,151.379161 173.721885,151.289158 C170.040187,151.069535 169.463443,145.775298 167.699122,143.42964 C167.60868,143.309403 167.510585,143.195422 167.415273,143.079355 C167.591983,143.859851 167.655988,144.66363 167.547805,145.491386 C167.038198,149.388306 163.215966,151.991117 159.598274,152.701417 C157.934483,153.028072 156.247386,153.059347 154.560289,152.998187 C155.62716,154.639452 156.595241,156.329368 157.426962,158.113111 C159.413563,162.374215 160.509654,167.074219 160.766023,171.764492 C160.992129,175.904665 160.441126,180.107388 158.970743,183.993883 C158.687241,184.743451 158.107019,185.616731 158.036404,186.386801 C157.998836,186.79651 158.108758,187.297612 158.109454,187.714617 C158.111889,189.153635 158.013446,190.59578 157.907698,192.03028 C157.856911,192.72112 157.979704,194.025306 157.543842,194.639347 C157.152853,195.189447 156.145812,195.559887 155.595505,195.869167 C152.865191,197.402358 150.211057,198.249922 147.14715,198.860141 C143.756954,199.535343 140.289187,199.962774 137.088573,198.333671 C134.755857,197.146594 133.684115,195.58039 134.094584,193.019279 C135.026488,187.204133 140.966113,183.266555 146.599278,182.607686 C147.381952,179.501687 146.731115,175.942195 146.115759,172.863997 C145.390134,169.232224 144.245691,165.690107 142.837573,162.267531 C142.559289,161.590939 142.248307,160.429926 141.689304,159.921526 C141.434326,159.68974 141.15639,159.69808 140.851669,159.481932 C139.805321,158.740009 138.961772,157.271801 138.181533,156.26647 C137.812807,155.791778 137.485823,155.299016 137.197451,154.791312 C135.068231,155.374425 132.940053,155.95858 130.776743,156.376629 C130.922842,156.934722 131.069289,157.492119 131.204257,158.048822 C131.963276,161.180189 132.372354,164.353603 131.90101,167.5642 C131.434537,170.7397 130.136689,173.762992 128.989811,176.741804 C127.920853,179.518715 126.817109,182.282074 125.719626,185.047865 C126.326285,185.796043 126.749277,186.695038 127.061303,187.656584 C127.417506,188.755047 127.621697,189.903551 127.865544,191.029814 C128.113564,192.174495 128.543165,193.41196 128.594648,194.590001 C128.681959,196.595799 126.501952,196.923149 124.956084,197.238336 C122.500923,197.73909 119.986279,197.780443 117.493201,197.609471 C116.112913,197.51495 114.737842,197.351275 113.365901,197.173005 C112.486871,197.058676 111.344863,197.077788 110.548275,196.644797 C109.020844,195.815651 109.525233,193.971095 109.773602,192.561615 C110.488444,188.507971 112.45139,184.774379 115.259972,181.79105 C115.212316,181.644055 115.201532,181.476905 115.250928,181.2896 C116.923763,174.964316 115.864892,168.23975 117.31997,161.851915 C117.495636,161.082192 117.931151,160.172077 117.856362,159.374206 C117.793748,158.710471 117.362408,158.005384 117.088994,157.419838 C116.791578,156.782167 116.515729,156.187934 116.300406,155.56173 C115.630786,155.344192 114.968817,155.105456 114.317633,154.841005 C110.175722,153.156996 106.392103,150.540632 103.464207,147.15246 C102.953208,146.561701 102.349331,146.060947 102.39177,145.252303 C102.457862,143.981478 103.230796,142.468442 103.609958,141.241054 C104.43507,138.570827 105.296707,135.911025 106.26931,133.290143 C109.583673,124.356836 114.28563,116.502531 120.844089,109.603169 C120.947054,109.280337 121.043758,108.955073 121.13907,108.629113 C120.156032,107.574088 119.375445,106.336623 118.911059,104.965717 C118.084555,102.526233 118.660951,100.148257 119.47041,97.8262294 C119.465888,97.8203218 119.46067,97.8140667 119.456148,97.8085066 C118.181259,96.1884389 117.563816,94.0957646 117.55512,92.049656 C117.539466,88.3323965 120.064894,84.3392181 123.857906,84.441037 C124.807202,81.8278004 128.006773,81.6245101 130.695692,82.0488135 C130.56803,81.0052564 130.182954,79.9926273 129.569686,79.0779945 C124.477088,77.4888547 119.183777,75.2078328 115.827671,71.0513271 C113.968545,68.7487516 113.119458,66.2008509 112.912018,63.547776 C112.613351,64.0643846 112.128662,64.4894497 111.58871,64.8296 C112.304595,65.2375708 112.850728,65.7980961 112.899428,66.829838 C112.956476,68.0360274 112.094491,68.934675 111.034229,69.2227565 C111.440871,70.4129607 111.066231,71.8988915 110.56045,73.0248072 C109.594457,75.1748198 107.731693,76.7052313 105.658129,77.7376682 C102.061307,79.5287083 98.1152397,80.1847975 94.2804855,81.2415597 C91.1647477,82.1002443 87.364779,83.5201491 87.3898246,87.2707691 C87.3943467,87.9737715 87.4882676,88.6104004 87.3341678,89.1747483 C87.542533,89.2105413 87.7376797,89.3380756 87.8316005,89.5837615 C89.9959547,95.2557359 90.4502534,101.506306 89.2647634,107.454547 C88.0514449,113.542484 84.82335,118.94966 81.0717332,123.816466 C77.570572,128.358007 73.5935451,132.816494 69.2467483,136.567809 C67.3812016,138.177799 65.3650336,139.699175 63.1725032,140.849417 C63.1683289,140.858104 63.1651982,140.867139 63.1606761,140.875827 C63.11789,140.964441 63.0549282,141.047494 62.9630944,141.117343 C61.9637069,141.875251 61.5751528,143.925182 61.384876,145.047275 C60.9448394,147.638619 60.6735124,150.256373 60.5423711,152.881077 C60.290524,157.923373 60.4592337,163.130386 61.2916509,168.117428 C61.7588202,170.91658 62.9276132,173.61704 64.0501415,176.206646 C64.4348692,177.094174 65.1559727,178.147114 65.3566851,179.095107 C65.3678165,179.147928 65.3799914,179.190323 65.3925142,179.227159 C65.8649014,179.310907 66.3404192,179.369636 66.8190678,179.399869 C69.42972,179.564238 71.5700722,178.370907 74.0895864,178.170744 C76.2581148,177.998381 78.5556975,178.328164 80.5732569,179.140977 C82.3337513,179.850582 84.0232833,181.022716 84.7558661,182.840514 C85.3785267,184.385521 85.3385233,187.125597 83.8646614,188.215372 C82.6983034,189.077879 80.6431757,188.997605 79.2642783,189.204023 C77.7483259,189.430596 76.2309821,189.648829 74.707377,189.819802 C73.8307822,189.918146 72.9614924,190.003284 72.0939419,190.093288 C73.576848,191.554546 74.9404399,193.359139 75.6093652,195.251303 C76.5214411,197.832222 74.8830438,198.826433 72.5969403,199.357073 C66.0878765,200.868024 59.2859186,199.376186 52.8199888,198.350004 C51.0201867,198.064355 49.219341,197.786351 47.4209304,197.493404 C46.4260649,197.33112 45.5098147,197.244243 44.8711528,196.381041 C43.6174831,194.687303 43.5183445,192.01777 43.7886278,189.776364 C31.8091953,171.193889 35.8818823,146.730589 39.7110708,125.938678 C39.9563086,123.049522 40.9383035,120.238556 42.6330533,117.879345 C42.3234623,117.943981 42.0138713,118.007574 41.7035846,118.067345 C38.4734025,118.688684 35.1983471,119.062599 31.9309446,119.425047 C30.5158702,119.581771 29.2872461,119.768381 27.9368728,119.253727 C27.364999,119.035841 26.7659926,118.926377 26.1551591,118.863826 C25.4104015,119.193608 24.6642524,119.521306 23.9160161,119.844833 C23.6808661,119.946304 23.3424031,119.981054 23.1583878,119.746836 C22.8467097,119.351376 22.5301616,118.959043 22.212222,118.5681 C20.1817921,118.304343 18.067529,117.816794 16.4816578,116.500793 C14.8185627,115.120851 13.2925226,112.472169 12.9714524,110.371155 C12.7943941,109.212226 12.9509289,107.895183 13.5377604,106.914524 C13.2761734,106.426975 13.0232828,105.933518 12.789872,105.426161 C9.08347637,97.3793381 6.20706288,85.5745979 13.6153321,78.6835764 C16.5039205,75.9966688 21.3446715,75.4830566 24.8830532,77.1354423 C27.4540499,78.3364191 29.5432674,81.5494491 30.1669715,84.5004604 C32.3149765,82.2319486 35.4021902,81.295423 38.5909775,81.7145139 C40.6916742,81.9904327 42.9621242,82.4797196 44.685746,83.7745227 C46.1947413,84.9080836 47.4546723,86.4423175 48.396316,88.0714203 C50.4350945,91.5975522 50.2660369,96.2426497 48.9713204,100.00717 C48.8440054,100.377958 48.6965149,100.73693 48.5396322,101.090343 C52.116278,99.3833987 55.9016367,97.9933792 59.724216,96.9946502 C64.3155549,95.7950634 68.8637598,94.9902422 72.5075416,91.655238 C72.5583284,91.6090198 72.6101588,91.5749644 72.6623371,91.5468165 C73.3538729,89.8381351 74.0078405,88.1148584 74.6962456,86.4238998 C74.7821658,86.2133118 74.9428749,86.0916851 75.1209766,86.0399069 C75.9972235,84.2450443 77.1545373,81.9688874 76.7635482,80.0183426 C76.5283982,78.8441237 75.1668935,78.1737868 73.7605155,77.6705998 C73.7559934,77.9972543 73.4811879,78.3093137 73.1368114,78.2947185 C72.0459379,78.2485004 71.0601167,78.005942 70.1469971,77.5680858 C70.2155246,77.6931876 70.2837042,77.8182893 70.3605802,77.9426961 C70.6374728,78.3916724 70.173782,79.0383789 69.6540865,78.8604564 C62.9975321,76.5836045 59.8932735,70.3003691 57.6308242,64.1015774 C57.5292506,64.8024947 57.4280247,65.503412 57.3267989,66.2043293 C57.2203553,66.9403446 56.1353953,66.6957012 56.0981748,66.038222 C55.8205865,61.1675938 55.9030282,56.2997457 56.3357598,51.4433652 C55.9649464,51.607735 55.6174391,51.8120679 55.2692362,52.0779091 C54.8027626,52.4341016 54.2420202,51.8447333 54.3502032,51.3724742 C54.9234683,48.8690492 56.4874247,46.8903565 58.694565,45.7227401 C58.0572945,45.2080854 57.3814122,44.7768319 56.6272624,44.3990941 C55.9395529,44.0543693 56.4669012,43.1546792 57.1090416,43.2568456 C58.2607897,43.4403282 59.3106163,43.7704578 60.3541815,44.2361143 C60.7507363,43.7954782 61.1518132,43.356927 61.5511508,42.9162908 C62.1205895,42.1298873 62.7522943,41.3907445 63.4396559,40.7009473 C64.8682966,38.891837 66.1522296,37.0059281 67.7610593,35.3212245 C71.9464514,30.9377982 77.0442673,27.5537958 82.6589958,25.2877166 C83.2106939,25.064966 83.5787246,25.7745709 83.3654894,26.205477 C82.9675432,27.0085607 82.6544737,27.8185945 82.4026266,28.6588613 C88.7795056,27.1941283 95.4165801,27.6368495 101.547526,29.9849399 C102.166708,30.2219382 102.13227,31.24534 101.381251,31.2119795 C98.9396562,31.104253 96.628855,31.5567044 94.456848,32.5613409 C99.4878757,34.3676712 104.893891,37.1292924 105.285228,43.0931708 C105.32384,43.6839291 104.597519,43.8458664 104.217313,43.5348495 C103.29828,42.784239 102.284283,42.2167636 101.21602,41.8282531 C101.670318,42.787714 101.98304,43.8378737 102.109659,44.9929799 C102.395248,47.5940538 101.460562,50.1353569 101.643534,52.7291332 C101.874161,55.9967214 104.370369,58.3837323 107.586289,56.500256 C108.51541,55.9564109 109.565237,54.859338 110.235554,56.2976606 C110.757336,57.4166263 110.375391,58.645751 110.550362,59.7873045 C110.5848,60.0131826 110.662372,60.2446209 110.749683,60.4739741 C111.537251,60.2243029 112.419288,60.4912968 112.884958,61.2062086 Z"/>
</svg>
