<svg xmlns="http://www.w3.org/2000/svg" width="200" height="200" viewBox="0 0 200 200">
  <path fill="#fff" fill-rule="evenodd" d="M140.761116,187.126115 C140.381094,187.056586 139.888321,187.321558 139.599726,187.311041 C139.539845,187.460325 139.704298,187.673588 139.739058,187.814692 C139.484638,187.78986 139.166542,187.883054 138.912999,187.875166 C139.447542,188.535405 139.673335,189.262253 139.648507,190.01218 L122.141198,190.01218 C122.122504,189.900582 122.10527,189.804175 122.087452,189.734937 C121.745403,188.37239 121.587961,186.851503 121.523406,185.46646 C121.392546,182.652555 120.965203,179.939439 120.8285,177.186591 C120.668722,173.983846 120.881955,170.922205 120.70319,167.819956 C120.533187,164.871081 120.458118,161.772922 119.937303,158.831059 C120.453152,159.844205 120.44877,161.031468 121.204141,161.807395 C122.282575,162.914319 124.428341,162.026793 125.797122,161.398397 C125.874821,161.362756 125.951643,161.325946 126.028466,161.288844 C127.748059,166.242393 131.576906,169.770583 134.814251,173.689951 C136.393636,175.602309 137.455419,177.778761 138.55576,179.926 C139.562629,181.892696 141.177066,184.904381 140.761116,187.126115 Z M73.0339221,168.071197 C72.5128156,171.563747 72.4511825,174.987643 72.32704,178.604353 C72.2201313,181.713613 72.1067965,184.83602 71.6657254,187.858806 C71.5573563,188.5988 71.3882304,189.312209 71.1872656,190.01218 L59.0624846,190.01218 C58.7385457,189.512034 58.5168417,188.99582 58.3926992,188.180453 C57.5400592,182.589161 63.1936556,177.247064 66.1216665,172.867281 C67.6344527,170.603478 69.4650437,168.634738 70.9080179,166.325945 C72.2066947,164.247067 73.1279783,162.104211 74.3141966,160.022119 C75.1198085,162.720629 73.4183257,165.493926 73.0339221,168.071197 Z M91.2516179,43.8608848 C91.2679755,43.8252435 91.2863778,43.7922316 91.3068248,43.7612646 C91.3053643,44.4875279 91.3117905,45.2149598 91.1622353,45.9099641 C91.1616511,45.5775072 91.1157914,45.1273174 91.1178361,44.7075104 C91.2048819,44.4460439 91.2419786,44.1591611 91.2516179,43.8608848 Z M95.2618595,54.4299737 C95.388923,54.0694713 95.5212443,53.7288345 95.6521052,53.396962 C96.6528399,54.5848086 97.14941,55.6844286 97.239961,57.415366 C97.3524195,59.557054 97.2256481,61.7264955 97.1254578,63.8383852 C97.0369515,65.7037076 96.2751546,67.7700232 96.4214967,69.6122664 C96.2523708,69.9692631 96.0443955,70.2952928 95.8051656,70.5938612 C95.5279626,68.7630115 95.1695559,66.9812416 95.0608947,65.1001436 C94.8631429,61.6733258 94.1057275,57.7142265 95.2618595,54.4299737 Z M155.194071,186.976247 C154.534217,185.049575 151.375739,183.369178 149.733261,182.639993 C145.262085,180.655477 142.757912,173.713615 141.480558,169.460914 C140.540872,166.333249 139.562921,162.921038 137.996973,159.965152 C137.054366,158.186595 134.98659,154.923961 132.993883,153.408916 C131.983509,151.880433 131.671838,150.293229 131.251214,148.31105 C130.994458,147.101293 130.735366,146.032348 129.977074,144.98619 C129.542137,144.386131 128.747333,144.868457 128.355042,144.31368 C128.049506,143.881603 128.432741,142.863783 128.268289,142.347569 C127.831599,140.973628 127.525186,140.675936 127.582146,139.084643 C127.62859,137.783737 127.533365,137.120284 127.453622,135.82084 C127.315166,133.541553 128.741199,130.298492 126.576445,128.709536 C127.798592,127.360427 128.663208,125.728525 128.784137,123.948216 C128.851613,122.956104 128.544323,122.260808 128.779464,121.419733 C129.035343,120.508252 129.991095,119.727943 130.33402,118.839249 C130.906244,117.355755 128.855118,109.602908 127.441938,109.450995 C126.766602,109.068582 126.247248,108.476704 125.783394,107.779947 C126.346562,106.571358 126.181526,104.695811 126.47976,103.290611 C126.750245,102.014245 127.202416,102.038493 126.771276,100.537763 C126.45055,99.4203225 125.577171,98.7852072 125.83714,97.3718275 C127.315166,96.7150938 127.603761,94.3215799 128.147651,92.9850333 C128.833794,91.2999621 129.789254,89.5880139 130.614144,87.9379997 C132.154972,84.8541559 133.541863,81.5722402 134.52624,78.2917852 C135.04092,76.5766235 135.155132,74.8369219 135.443142,73.0148364 C135.662801,71.6204459 136.298119,70.7647639 136.838212,69.7399321 C137.043266,69.5780858 137.21064,69.4156553 137.31638,69.253809 C137.703997,68.6639756 137.583359,68.4816794 137.473238,68.0855358 C137.601177,67.4325999 137.570507,66.7633042 137.420952,66.0919634 C137.525816,65.2979233 137.820545,64.7212363 138.585262,65.8375083 C139.448418,65.3163282 139.205391,64.3575203 139.720655,63.6365155 C139.65727,64.3046427 139.696995,64.9748149 140.098925,65.4936579 C140.324134,65.5602662 140.294632,65.3104853 140.442727,65.2403714 C141.195468,65.2053145 141.503926,64.4340614 142.134278,64.1603249 C142.196203,64.4299714 142.30282,64.573997 142.378766,64.8004066 C143.601789,63.3078565 148.42845,60.6923152 148.527764,58.6855965 C148.502059,59.3350266 148.435168,59.834004 148.348414,60.4650293 C149.370473,59.1445505 150.234504,57.0884598 150.067715,55.4255914 C150.979068,55.0069529 150.608685,52.665148 150.579767,51.4685371 C150.721143,51.6850138 151.133296,52.1994747 151.154912,52.245633 C150.629716,49.7665217 149.492862,47.0376296 147.540174,45.3922896 C147.684763,45.4983369 147.854765,45.6078899 147.98621,45.703128 C147.484675,44.2950068 146.263696,42.164128 144.624139,41.940932 C144.812835,41.9350892 145.010587,41.9371341 145.1987,41.9537862 C143.42536,40.6639822 142.327064,41.9730675 140.744466,42.59007 C139.043275,43.2529387 135.612268,42.4460443 135.261164,42.7971982 C134.802275,43.2558601 135.158637,43.6601837 134.418747,43.8591319 C134.333746,43.7536689 134.191786,43.5897776 134.1173,43.5065174 C134.167249,43.7887259 133.974755,43.9184366 134.01156,44.2070723 C132.903624,44.7714893 131.613418,43.7098477 130.433626,44.0764851 C129.34789,44.4144926 130.844319,45.7904783 128.948006,46.4480884 C128.691834,47.003449 128.80955,46.9017839 128.418428,47.3166245 C129.361911,49.0607083 127.216436,48.9964372 126.208983,49.3861537 C125.370656,49.7101384 125.675609,50.3683329 124.479751,50.1688003 C124.223579,50.1261477 123.779295,49.7954437 123.412125,49.4796389 C123.107465,48.7381842 122.778268,48.0148423 122.35706,47.3721314 C121.448921,45.9862129 120.214214,44.7966135 119.822216,43.2026904 C119.351935,41.2871197 119.481919,39.3452563 118.903561,37.4565626 C118.392386,35.789312 113.216957,28.1778619 111.858692,23.4098233 C112.215931,22.7408197 112.604716,22.1092101 113.011027,21.4904548 C113.32854,22.187504 113.703596,22.8360577 114.08946,23.388497 C114.686221,24.2438868 115.448602,24.6987508 116.205725,25.4109914 C116.727416,25.9014967 117.721724,27.0367579 117.90896,26.966644 C118.082176,26.9014964 117.780436,26.5158699 117.597582,26.0650958 C118.024048,26.4717565 118.802787,27.0376343 118.975126,26.846866 C119.094887,26.714526 118.593351,26.1527382 118.373984,25.8302142 C118.710483,26.0268253 119.345801,26.4939593 119.507916,26.2695947 C119.650169,26.0723994 119.045814,25.6461652 118.815055,25.4048564 C119.134028,25.5298929 119.731373,25.7478303 119.803229,25.5491742 C119.864278,25.3794401 119.140162,24.8976991 118.814471,24.670121 C118.987686,24.6502554 119.438688,24.8845527 119.519308,24.7390663 C119.754449,24.3148771 118.096781,24.1728964 117.627668,23.8004162 C117.311324,23.5488826 116.989137,22.6972906 116.713979,22.3256868 C115.610425,20.8357661 115.791235,20.4361167 116.898294,18.9663537 C117.443061,18.2433039 118.171558,17.3645428 118.633077,16.4945459 C118.751377,16.6625272 118.874059,16.8562169 119.007257,17.0873007 C119.238308,17.4878264 119.891151,18.1229417 119.995723,18.5129504 C120.150244,19.0919745 119.61979,20.6689534 120.10234,20.6225029 C120.268253,20.6064351 120.232908,20.0992778 120.319954,19.9485328 C120.398821,20.3382494 120.551882,21.1942235 120.7324,21.2059091 C120.943004,21.2190555 120.981269,20.5842324 120.993537,20.2418427 C121.123229,20.5497597 121.272785,21.273978 121.510554,21.2219769 C121.781039,21.1626722 121.605779,20.3940484 121.559919,20.0069611 C121.767894,20.3370808 122.083362,21.0203994 122.252488,20.9634318 C122.4961,20.8813401 122.287248,19.9418136 122.084239,19.3882058 C122.424827,19.7355618 122.657923,20.1661781 122.787031,20.0329617 C122.926071,19.8892282 122.281114,18.5249282 122.039255,17.8509581 C121.688151,16.8722847 121.574524,15.9920628 121.028005,15.1036611 C121.220499,14.8445317 121.597892,14.876083 121.933807,14.8246661 C122.289001,14.7700357 122.687133,14.5687503 123.094028,14.3239359 C123.605788,14.8106433 124.035175,14.183708 124.644788,13.5941668 C124.759291,13.4834453 124.864155,13.3677573 124.968142,13.2511929 C125.113024,13.1875061 125.249435,13.1206057 125.375914,13.050784 C126.030218,12.8784206 126.669625,12.6753824 127.273104,12.3884996 C129.677964,11.2459348 130.67198,8.0285824 130.307439,5.60118011 C129.784288,2.11710264 127.110988,0.180497777 123.702473,0.00784225235 C120.55305,-0.151959054 117.632926,2.15391244 116.025791,4.77821799 C114.081281,3.10483247 109.746225,4.64850724 107.682246,5.16647381 C104.980612,5.84453383 102.100506,7.94532212 99.4546636,8.12557332 C99.8355621,8.67625972 99.4900077,8.90062426 100.31373,9.29150936 C98.1250242,11.2284064 95.9810098,13.2281137 94.691096,15.5991328 C91.3991284,22.0145563 93.26039,25.8416077 96.0698082,29.5757582 C97.342196,31.2672564 99.1418244,32.640905 100.907277,33.7177379 C103.427808,35.2549856 102.471765,37.0802846 103.277377,39.4916191 C104.526105,39.9932258 106.600891,39.9012012 108.164795,39.5164511 C109.306614,42.1375431 110.298002,44.8194005 111.067101,47.6008781 C111.711766,49.9315816 113.140427,52.1404621 113.864251,54.4267602 C114.081574,55.1144609 114.047398,55.6382703 114.156643,56.0896286 C114.311164,56.7279574 114.043893,57.1556523 114.335116,57.8161839 C114.800724,58.872859 115.909828,58.9049946 115.937577,59.9897153 C114.557405,62.9672197 112.030447,65.8892173 110.142604,68.5929853 C107.97639,71.6940655 108.802157,75.2438748 107.051602,78.5716566 C105.226268,82.0405427 103.871216,86.0770595 103.084007,89.9908768 C102.914004,90.8363338 103.270074,91.3934473 103.031721,92.2275108 C102.871066,92.7890065 102.174407,93.5132248 101.948906,94.1147438 C101.540842,95.2020938 100.479643,98.0387861 100.852947,98.8918388 C101.314757,99.9458847 102.958696,100.151552 103.605113,101.175508 C104.360192,102.371242 104.222905,103.894759 104.696691,105.196249 C104.105773,106.194788 103.520404,107.226923 103.536762,108.354589 C103.544064,108.857364 104.185516,109.63855 104.236049,110.40805 C104.303524,111.441354 103.863914,112.040536 103.77716,112.925724 C103.461692,116.15447 102.62541,119.326248 102.189012,122.326832 C101.616204,126.259054 100.855575,129.964867 101.259258,134.047834 C101.643661,137.929516 102.157465,141.723263 101.954164,145.748678 C101.76722,149.452446 102.080059,152.528694 103.095691,156.065065 C103.854859,158.708068 104.326308,163.358666 106.1347,165.430824 C106.896204,165.095446 108.142595,164.138683 109.158227,163.893284 C109.624127,168.156795 110.654072,171.977419 111.686353,176.108589 C112.541914,179.534531 115.367398,186.192724 113.373523,189.58653 C113.116475,189.355738 112.804512,189.415627 112.583392,189.286208 C112.56353,189.605811 112.493718,189.85121 112.370744,190.01218 L80.3843277,190.01218 C79.961951,188.688195 79.8971048,187.347266 79.9096651,185.91665 C79.9400435,182.458866 81.6535024,178.982384 82.3370165,175.614579 C83.0079703,172.308415 83.7253681,168.896789 84.3823011,165.641166 C84.8166538,163.490129 84.8820843,161.211427 85.1931708,159.101582 C85.2661958,158.607571 85.3555784,157.921331 85.4297718,157.155629 C85.6926619,157.205877 85.9578887,157.220776 86.2263287,157.186304 C86.7483115,156.168775 86.2578755,154.128168 86.256415,152.919287 C86.2543703,151.359545 86.4217436,149.912277 86.6384819,148.441929 C87.1040893,145.290601 87.6509006,142.199746 87.9765922,138.979472 C88.2640186,136.137521 88.1200133,133.17959 87.9765922,130.376786 C87.8924674,128.736705 87.6950077,127.142197 87.6324983,125.559376 C87.5781677,124.188356 88.1024873,122.982981 87.976008,121.602906 C87.8781545,120.535421 87.3047621,119.480207 87.2507236,118.333552 C87.1990218,117.235101 87.5355211,116.10539 87.4598672,115.064198 C87.6915025,115.0344 87.926351,115.095458 88.1547732,115.169369 C88.9770348,113.462972 87.5457446,112.961949 87.5296791,111.408926 C87.5188714,110.384386 88.2546714,109.043166 88.2432795,107.632123 C88.2210799,104.78988 87.7759194,101.494234 87.1335914,98.6841263 C86.4573798,95.7285325 84.9270677,93.7504436 85.2220887,90.4247067 C86.0902101,87.2371527 86.5087894,84.5141034 84.3154102,81.8667186 C87.030188,81.9000228 89.6818723,80.5979489 92.3084359,80.2409522 C94.2362962,79.9791935 95.9220056,79.5152731 97.8136455,79.1194216 C99.1981998,78.8296174 102.045299,78.2371548 102.521714,76.6937722 C102.618691,76.3794281 102.653159,76.0238921 102.654035,75.6493669 C102.705737,75.2248856 102.716837,74.7308746 102.744879,74.1617833 C102.886839,71.3119446 102.999882,68.5310513 102.518501,65.673617 C102.191933,63.7355514 102.20683,61.737889 101.824179,59.8237791 C101.462851,58.0142557 101.309791,56.0653809 101.827684,54.3180836 C102.394358,52.40485 102.711871,50.8193991 102.975053,48.8129724 C103.144179,47.5211235 105.289946,45.099564 104.012301,43.8664355 C102.888592,44.4366953 103.149437,47.4174133 101.729831,47.532517 C101.710844,46.1483514 103.637828,42.6067221 102.171778,41.5748789 C101.466649,42.0922612 101.333451,43.9412237 100.996368,44.797782 C100.708649,45.5293039 100.476722,47.2000602 99.7572792,45.9505717 C99.409096,45.3458392 99.648618,43.9175602 99.648618,43.1918811 C99.648618,42.4518872 99.9080029,40.9315837 99.4532031,40.3274354 C98.5728135,39.1577016 98.3867458,41.1994773 98.2780846,41.9301228 C98.1279452,42.9429767 98.2652322,43.9955619 98.1574473,45.0297422 C98.0479098,46.0837881 97.70995,46.5558885 97.234119,45.3770983 C97.1976065,44.8538732 97.2233113,44.5424505 97.239961,44.2243086 C97.2697552,43.6707008 97.2937074,42.8772449 97.1651834,42.2196348 C97.1675202,41.3359073 97.0392883,40.5468336 96.4401911,40.1953875 C95.9482946,40.5129452 95.9830545,41.4147854 96.1016471,42.3002658 C95.9170399,44.1597454 96.1962875,46.1512728 95.3851257,47.7600951 C93.9754509,48.0592478 95.1175621,42.856795 95.17569,41.955539 C95.4341985,37.9502814 93.8077854,41.0919693 93.1342027,45.0151352 C93.0836694,44.2526463 93.8025276,37.3756395 91.9333794,39.0309122 C91.3985442,39.5047655 91.4917242,41.479933 91.3909496,42.1594537 C91.322014,42.6257113 91.3100379,43.1036545 91.3077011,43.5836427 C91.2232842,42.7349721 91.1230939,42.0431814 91.1984557,41.4889893 C91.2706044,40.9578764 91.4116887,40.0253613 91.1076126,39.5480024 C90.9472497,39.2967608 90.6729677,39.1886685 90.3902149,39.2649174 C89.9926667,39.3718411 89.9985087,39.6625218 89.8647269,39.9935179 C89.6091393,41.5740025 89.6287101,42.8988634 89.5559771,44.3385359 C89.5057359,45.3341535 89.8171146,47.7749943 89.097088,48.4819763 C88.3706351,47.7378923 87.856247,44.8126812 86.4769505,45.0443493 C86.3317768,46.6449916 87.2962912,48.1924642 87.3769108,49.8445235 C87.4601593,51.5456624 88.3125072,52.3987151 89.2954239,53.6613499 C89.9336625,54.4813906 89.8150699,54.6817996 89.8109805,55.8094651 C89.8071832,56.8512411 90.0691969,57.9438496 90.1293695,58.9952663 C90.2555568,61.2012254 89.9944193,63.2377426 89.5810977,65.3285981 C89.1873469,67.3221705 88.7661386,69.3630698 88.1547732,71.2947083 C87.8086346,72.3879011 87.8550786,72.6134342 86.6887231,72.5561745 C85.6657887,72.5062184 84.6486963,72.1112433 83.681261,71.7843372 C80.4094483,70.6785822 76.4070934,68.2184601 72.9582682,70.0449277 C72.2627779,69.6306713 71.8255042,68.7820007 71.4004986,67.0215571 C71.3236763,66.7025388 71.258538,66.4039703 71.20596,66.1226382 C71.3835568,65.328306 71.5430434,64.5465358 71.4183167,63.6853031 C71.3818042,63.4320166 71.3312709,63.1685051 71.2746035,62.899443 C71.4983521,62.2269336 71.8742849,61.5918184 72.3950993,60.8465658 C73.433807,60.3227564 74.4996801,59.7270803 75.12419,58.7933966 C76.014511,57.4632771 74.4041634,56.9847496 73.8374893,56.1001457 C73.4779141,55.1340343 72.8916694,53.6035059 72.5712356,52.7817124 C72.6381265,52.2394981 73.0888369,51.8389723 72.9477526,51.2383297 C72.7809634,50.5293027 72.1517799,50.5138192 71.5161702,50.3756364 C71.0172633,50.267252 70.490899,50.2196329 70.0013394,50.1030685 C69.518498,49.7653532 69.0032335,49.432312 68.4888453,49.1243951 C66.8568823,46.8278721 64.8837465,46.656093 62.1841579,46.5564728 C61.2947132,46.5234608 61.3052288,46.1945097 60.5784839,45.86848 C60.0640957,45.6376883 59.3680213,45.8863006 58.8775853,46.0785296 C57.7708182,46.5126516 56.7735887,47.2757248 55.6852239,47.7799607 C52.841922,49.0358763 51.1150265,51.6896881 52.4131191,56.2777676 C50.4709459,57.572538 47.0136497,58.0151321 45.4812929,59.7028326 C43.8572166,61.4913218 43.764913,66.0571986 44.2746276,68.3408673 C45.4558802,73.6327153 50.2568366,77.6540407 51.3487065,83.0937122 C51.4442233,82.5687343 51.6279542,82.1179602 51.7681622,81.5988251 C52.4379476,83.1109486 53.1635242,84.5041706 53.195071,86.2418272 C56.6301675,86.1255549 57.6031528,77.3516744 57.6177578,74.5941524 C57.6352838,71.1898296 56.0745932,66.8369238 54.5416522,64.0656711 C57.1725973,66.4682414 62.4920313,65.5813003 62.5282517,68.4936572 C62.5308806,68.7162689 61.2158462,70.8275743 61.0776829,71.1714246 C60.6716638,72.1816494 60.7873354,73.3262591 60.4633965,74.3429109 C59.7033521,76.7308741 59.0186696,77.3922821 58.9929648,80.0925444 C58.9649232,83.0168791 58.7388378,85.4463263 60.0261227,88.0145407 C60.9024228,89.761838 63.1872294,91.0735526 63.9046271,92.817052 C65.3280307,96.2771739 63.9782364,103.887163 69.2649551,104.240362 C69.1425652,106.550324 66.4537843,106.812959 66.1336426,108.998468 C65.9259595,110.419151 66.1891416,111.133729 66.7791837,111.53776 C65.7022108,114.639717 64.7190021,117.896801 64.9255168,121.258471 C65.1305711,124.599107 67.0823836,127.738458 67.1919211,131.035273 C68.5163027,131.264896 67.7918946,132.527238 67.8500225,133.473484 C67.918666,134.590925 68.5244815,135.332964 68.7140545,136.398695 C69.1346785,138.762119 68.1210914,141.226331 68.3661633,143.623935 C68.4911821,144.850928 69.004694,146.007224 68.8910671,147.284465 C68.8259288,148.015695 68.7391751,149.945289 68.5414233,150.510874 C68.1944085,151.502402 67.6484735,151.470851 67.5059287,152.915197 C67.401941,153.966906 67.5412728,155.508536 66.4783207,155.911983 C65.3341648,156.954343 64.4231047,157.422062 63.4200332,158.811194 C62.5568775,160.006636 62.0243791,161.09866 61.2961737,162.377071 C58.3699154,166.410082 56.3649407,172.429362 54.4750534,177.212007 C53.4921367,179.699591 52.7265425,182.106251 51.8090562,184.567542 C51.4699281,185.476101 50.4373544,186.279782 50.4373544,188.145981 C50.4373544,190.01218 46.1157342,188.904087 45.4812929,190.01218 L45.4812929,200 L159,200 L159,190.798724 L154.593514,190.01218 C155.191442,189.007506 155.537289,187.978876 155.194071,186.976247 Z"/>
</svg>
