<svg fill="#fff" xmlns="http://www.w3.org/2000/svg" width="200" height="200" viewBox="0 0 200 200">
  <path d="M134.96158,91.8981071 C137.010235,88.7450459 140.517788,86.717699 144.272093,86.5340255 C148.057395,86.3474949 151.764797,88.030352 154.118528,91.0042296 C156.492652,94.0050459 157.265945,98.0748418 156.162697,101.740148 C155.089631,105.305454 152.309691,108.220556 148.802954,109.464638 C145.195885,110.743821 141.087969,110.160964 137.980522,107.925454 C134.916716,105.720148 133.06016,102.107087 133.06016,98.3291275 C133.06016,96.05525 133.722108,93.8046378 134.96158,91.8981071 Z M60.8726823,51.7809643 C54.1781506,48.17525 50.1546611,40.7879031 50.7448273,33.2046378 C51.3296913,25.6907602 56.4189058,19.0389235 63.5094648,16.5009643 C70.7203409,13.9197398 78.9810358,15.9466786 84.1905675,21.5564745 C89.4037699,27.1691275 90.815356,35.5862704 87.6973046,42.5919847 C84.6192231,49.5079031 77.5878031,54.080148 70.0233167,54.080148 C66.8400086,54.080148 63.6766853,53.2907602 60.8726823,51.7809643 Z M94.2482714,35.2205561 C88.5741929,30.0956582 86.250643,21.9923929 88.3535433,14.63525 C90.4144345,7.42994387 96.5098273,1.81769898 103.859374,0.372392853 C111.348,-1.10026021 119.192682,1.87116836 123.828362,7.93484183 C128.480356,14.0193316 129.271187,22.4699439 125.817471,29.3111684 C122.411066,36.060148 115.333151,40.4242296 107.777637,40.4242296 C102.804661,40.4242296 97.9405826,38.5548418 94.2482714,35.2205561 Z M160.043845,142.283005 C159.640069,138.465046 158.766851,134.556066 156.61664,131.300148 L156.61664,134.894842 L164.535552,166.518923 C164.671368,167.214434 164.493135,167.911985 164.051021,168.447903 C163.609314,168.982597 162.957969,169.289536 162.265024,169.289536 L155.930628,169.289536 L154.476625,195.634434 C154.358755,197.771577 152.542577,199.49974 150.402969,199.502597 C148.24664,199.504638 146.415371,197.749944 146.310145,195.596474 L145.109419,169.289944 L144.673015,169.289944 L143.217788,195.634842 C143.100734,197.771985 141.284963,199.500556 139.145356,199.503005 C136.989027,199.505046 135.157758,197.750352 135.052531,195.596883 L133.851398,169.290352 L127.3767,169.290352 C124.72809,169.290352 124.95812,167.885454 125.30806,166.526679 L133.102577,135.020148 L133.102577,131.233209 C130.97235,134.567903 130.046111,138.39525 129.634178,142.283413 C129.437592,144.091985 127.82738,145.484638 126.009571,145.408719 C124.169737,145.332393 122.66312,143.780964 122.649661,141.935658 C122.628861,139.179332 122.810764,136.493209 123.370749,133.788311 C124.306776,129.274842 126.375416,124.994434 129.172894,121.34627 C130.770054,119.263005 132.617637,117.365454 134.65528,115.711168 C135.531353,114.99974 136.439646,114.327495 137.387501,113.71525 C138.148966,113.223005 138.941429,112.71525 139.801187,112.412393 C143.006927,110.881781 146.833015,110.900148 150.023256,112.463413 C151.147305,112.899332 152.187743,113.61974 153.169858,114.308719 C157.372803,117.260556 160.872199,121.183821 163.321776,125.698515 C164.323876,127.545862 165.112259,129.500964 165.724858,131.51076 C166.435749,133.842189 166.929253,136.372801 166.985129,138.814026 C167.021836,139.856883 167.036111,140.891577 167.027546,141.93525 C167.012456,143.754434 165.547441,145.29974 163.731262,145.404638 C161.892652,145.511168 160.240432,144.118107 160.043845,142.283005 Z M122.936791,168.031168 C122.936791,168.031168 122.039918,170.767495 124.889601,170.992393 L123.796141,192.643005 C123.610567,196.318107 120.487622,199.29525 116.808362,199.292393 C113.114419,199.289944 109.98454,196.273209 109.818135,192.583005 L107.739706,142.799332 L105.224873,192.643821 C105.039299,196.318515 101.915945,199.296066 98.2370932,199.292801 C94.5423349,199.289944 91.4132714,196.273617 91.2468666,192.583413 L90.0057639,162.831577 L90.6954466,150.646679 C90.6954466,150.646679 93.6421989,150.646679 99.7090418,150.646679 C105.138815,150.646679 104.943453,145.767087 104.374087,143.420148 C103.952773,141.686679 96.5175765,114.544638 96.5175765,114.544638 C97.2798575,114.73974 98.0763983,114.845046 98.8953711,114.851985 C104.29374,114.898515 108.865386,110.394026 108.910658,104.994026 C108.943287,101.025862 108.761791,97.110352 108.114933,93.1923929 C107.163815,87.4291275 105.244042,81.7654541 102.47593,76.620148 C98.1518515,68.5817806 91.9838605,61.5932092 84.5221536,56.3299439 C87.35022,53.81525 90.1778787,51.3013724 93.0059451,48.7874949 C93.2665645,48.5564745 103.788,38.3185153 117.040024,44.6205561 C118.314571,45.2266786 119.57729,45.9115765 120.752728,46.6846378 C122.15167,47.6050459 123.49025,48.620148 124.777441,49.6907602 C127.415039,51.9234133 129.849933,54.3907602 132.027063,57.0768826 C135.361685,61.1891275 138.033543,65.7487194 140.235145,70.5544337 C141.959148,74.3197398 143.588936,79.3066786 144.617954,83.3091275 C138.387154,84.3393316 133.881172,86.9360663 131.779087,92.0646378 C130.807169,88.1262704 129.61093,84.2670867 127.902833,80.5813724 C127.902833,80.7821888 127.902833,80.9825969 127.902833,81.1834133 C127.902833,85.0181071 127.902833,88.8523929 127.902833,92.6870867 C127.902833,98.0421888 127.902833,103.397699 127.902833,108.752801 C127.902833,110.613209 127.902833,112.473617 127.902833,114.333617 C127.902833,115.660148 127.926897,116.985046 127.7817,118.305454 C126.59729,119.819332 125.506685,121.427903 124.589827,123.120148 C123.042833,125.976883 121.861277,128.982189 121.126323,132.153209 C120.391368,135.32423 120.150326,138.504638 120.178876,141.754434 C120.203755,145.301781 122.637425,148.311168 125.990809,149.156066 L125.625371,156.383413 L122.936791,168.031168 Z M98.6445403,148.505862 L98.6445403,148.508311 L87.6393892,148.508311 L85.1710509,193.567903 C84.9781355,197.07974 81.9836642,199.91525 78.4667306,199.904638 C74.9449028,199.893617 71.9610358,197.021372 71.788921,193.50423 L69.7500539,148.507495 L69.1892533,148.507495 L66.7209149,193.567087 C66.5279995,197.078923 63.5343439,199.914434 60.0174104,199.903821 C56.4947669,199.892801 53.5117155,197.020556 53.3396007,193.503413 L51.2999179,148.506679 L40.1389663,148.506679 C39.0973046,148.506679 38.1200841,148.044638 37.4581355,147.23974 C36.7974104,146.434842 36.5323046,145.387087 36.7329693,144.363413 L50.1420176,95.2417806 L50.1420176,88.032801 C48.1953258,91.0870867 46.782924,94.5258622 45.8452654,98.017699 C45.1286642,100.690352 44.7542533,103.393209 44.4601898,106.13974 C44.1383923,109.115658 41.4808092,111.400148 38.4912321,111.25974 C35.4873802,111.118923 33.0378031,108.583413 33.0153711,105.57076 C33.0153711,105.543413 33.0153711,105.515658 33.0145554,105.489128 C32.9994648,103.444638 32.9570478,101.389128 33.1524104,99.3507602 C33.3999784,96.7670867 33.7817306,94.2413724 34.3050086,91.6997398 C34.8282865,89.1540255 35.6696913,86.6209643 36.6318213,84.210352 C37.6147518,81.7507602 38.7844799,79.3430051 40.1528333,77.0744337 C42.8862775,72.5434133 46.2143741,68.4025969 50.1175463,64.8234133 C51.9496309,63.1430051 53.8861264,61.5760663 55.9278484,60.1572908 C57.5400992,59.0364745 59.2551294,57.8495357 61.1206581,57.192801 C66.371791,54.6834133 72.6397065,54.71525 77.8667759,57.27525 C78.0286944,57.3368826 78.1885735,57.400148 78.3464134,57.4719847 C80.1173197,58.2781071 81.770356,59.4017806 83.3499784,60.5299439 C85.4141324,62.0042296 87.378362,63.6254541 89.2186037,65.3715765 C93.048362,69.0050459 96.3703409,73.1772908 98.999782,77.7585153 C101.627592,82.3340255 103.538392,87.3442296 104.611459,92.510352 C105.125356,94.9879031 105.519752,97.5205561 105.643332,100.051168 C105.733876,101.894026 105.748151,103.725046 105.73306,105.569944 C105.708589,108.565046 103.287561,111.103005 100.297169,111.257699 C97.2965796,111.412801 94.6096309,109.134026 94.2886491,106.140148 C93.9958092,103.393617 93.6213983,100.69076 92.9035735,98.0172908 C91.982637,94.5866786 90.6134678,91.1344337 88.6769723,88.1430051 L88.6769723,95.8258622 L102.047682,144.353209 C102.271595,145.525046 101.983649,146.440556 101.321293,147.243821 C100.659344,148.045862 99.6833469,148.505862 98.6445403,148.505862 Z"/>
</svg>
