<svg xmlns="http://www.w3.org/2000/svg" width="200" height="200" viewBox="0 0 200 200">
  <path fill="#fff" d="M57.8289623,11 C77.7546749,11 97.3496494,28.7693795 108.141861,56.3971019 C98.308957,61.6333164 89.2078044,68.2647744 81.7765165,75.7438834 C54.3643,103.381664 47.7010159,142.158483 65.3494882,167.631596 C62.8424603,168.054583 60.3292973,168.340114 57.8289623,168.340114 C25.9442527,168.339555 0,135.453826 0,95.0359055 C0,56.1803 25.2621403,11 57.8289623,11 Z M73.0323156,170.516515 C54.1384165,146.908569 60.7158091,108.678784 87.6176962,81.569598 C95.1616471,73.9630899 104.497049,67.2120556 114.626669,62.0585388 L115.530761,61.5953202 L115.31659,61.1656276 C128.695585,54.5056724 143.106952,50.8228329 156.014659,50.8228329 C169.377481,50.8228329 180.479794,54.8426095 188.119117,62.4535877 C198.762971,73.0534157 202.426745,90.0790751 198.414385,110.392525 C194.572692,129.883469 184.221093,149.290038 170.004377,163.614055 C153.995651,179.749597 133.342092,189 113.341085,189 C98.7188937,189 86.0471088,184.077813 76.6916281,174.757005 C75.7306472,173.811011 74.8008996,172.717502 73.8616705,171.589908 L73.0323156,170.516515 Z"/>
</svg>
