<svg xmlns="http://www.w3.org/2000/svg" width="200" height="200" viewBox="0 0 200 200">
  <path fill="#fff" fill-rule="evenodd" d="M101.725439,52.2136565 C101.35252,52.7935368 100.228543,54.114356 99.6559446,54.2315843 C99.6048073,54.1077467 99.55367,53.9832133 99.5025328,53.8579842 C99.2844166,53.2227944 99.0061184,52.5976924 98.7107744,51.9760691 C99.4726157,51.0104136 100.46127,50.2726055 101.389742,49.4565292 C101.416181,49.528188 101.44088,49.6008905 101.469753,49.6708101 C101.937642,50.8048292 102.465713,51.0629402 101.725439,52.2136565 Z M153.571,102.224593 C151.818069,100.148225 149.89155,97.9403667 147.854059,95.6956351 C145.288846,92.8692839 142.904874,90.6287265 139.785499,88.4333908 C137.346911,86.7170565 135.560237,84.5512887 133.949238,82.1903723 C132.182045,79.6009128 122.308721,65.5550778 121.634892,64.705955 C119.423812,61.9203032 116.774066,62.0424016 113.816452,61.5571388 C110.02777,60.9358633 111.10061,59.3934583 111.03347,55.7593794 C111.013294,54.6817134 111.226539,53.7167536 111.567803,52.6564805 C111.863842,52.2724446 112.294857,52.0087678 112.978774,51.9381525 C114.506979,51.7802247 116.095366,53.2234901 116.966092,51.3993195 C117.241607,50.8222221 117.605482,50.0103201 117.767938,49.4005239 C117.78081,49.3525195 118.025016,49.0996262 118.074762,48.9392634 C118.114072,48.8115993 117.68097,48.6734994 117.733151,48.5141802 C117.863255,48.1134471 118.377759,47.9301256 118.475859,47.5471333 C118.57883,47.146748 118.162426,46.7300134 118.307141,46.3831983 C118.453248,46.0332526 118.858867,46.1247394 119.060633,45.8499311 C119.638798,45.0627271 119.20187,44.7781787 118.68667,43.9081843 C117.837513,42.4743111 118.173906,40.912426 118.072327,39.2427046 C117.965182,37.4748872 117.973531,36.4779244 116.363924,35.3425139 C114.863549,34.2836323 113.514151,33.7590615 111.814792,33.103348 C109.867401,32.3516255 108.210483,32.0820351 106.80125,32.126561 C106.491644,29.3979581 103.955999,25.6758709 100.332905,27.4805614 C95.5733103,29.8515657 97.9844162,34.9974381 100.502319,35.7053304 C99.9248503,36.6062842 99.6555968,37.3907054 99.6037637,37.642555 C99.5613232,37.7048217 99.5185349,37.7653491 99.4743551,37.8251808 C98.9323694,37.972325 98.3670762,38.0704211 97.801783,38.181388 C97.7857808,38.1243392 97.7652563,38.0714647 97.7381223,38.0269388 C96.68372,36.29182 97.020113,33.22649 97.020113,31.1313375 C97.020113,28.7279824 97.1759599,26.8158036 97.8817937,24.6590802 C98.6178924,22.4101743 99.1428324,20.03917 99.717866,17.770784 C100.241414,15.7024167 101.311123,13.9551229 101.351824,11.7587436 C102.316475,11.6686482 102.96004,12.5125532 103.91669,12.5984743 C104.980833,12.6941354 105.811553,12.1848704 106.933094,12.3083602 C107.88557,12.4134135 109.222445,13.1122615 108.660282,11.4463666 C108.20283,10.0907616 107.14808,10.8810963 106.070718,10.4761889 C103.575079,9.53697067 107.678586,7.7322802 109.095471,7.99456559 C110.02116,8.16571203 113.184715,11.1465125 113.134969,8.88891008 C113.389612,8.86282068 113.534675,8.71150219 113.807755,8.69897928 C113.960471,7.31728487 111.804356,7.5809617 111.117307,6.88454876 C111.681905,6.66922428 111.65164,6.42572325 111.652336,5.86880162 C110.522793,5.81140494 109.350114,5.76374831 108.265795,5.71191738 C108.603579,5.21691458 108.958061,4.72225963 109.419689,4.3090036 C109.793652,3.97471148 112.152577,2.15436736 110.957982,1.74806851 C110.302242,1.52509114 108.372939,3.40874552 107.827823,3.80252146 C107.177301,4.27213059 106.391804,4.92540906 105.595871,5.38006027 C105.260522,5.33657794 104.936305,5.30527067 104.634351,5.30422709 C102.705049,5.29831349 100.490839,7.47764769 99.031861,8.60853604 C97.1352588,10.0782387 96.880616,12.2502678 95.9858873,14.3196787 C95.117597,16.3275186 94.4295047,18.3009205 93.6801869,20.3212833 C92.8759051,22.4901818 91.8420274,25.0253753 91.8406359,27.4033368 C91.8392444,29.6992036 91.2697767,31.8653192 91.129584,34.1479674 C91.0154818,36.0072717 91.616258,39.5362973 89.9795168,40.3568958 C88.5087109,41.094356 87.9406347,40.2894112 87.8254888,42.336907 C87.7573058,43.5425849 87.4153469,44.2765666 87.2508031,45.3535369 C87.1600083,45.9448965 87.3283787,46.5623455 87.14992,47.1095271 C86.9756358,47.6424465 86.4402596,47.9349956 86.2774552,48.5141802 C86.1202167,49.0749283 86.2635403,49.6934209 86.1014316,50.2381675 C85.9619346,50.7070809 85.523615,51.0250237 85.4189053,51.538463 C85.2606232,52.3162748 85.8384398,53.7372772 86.6764652,54.2281057 C87.1429625,54.5011748 87.6943408,54.4994355 88.4746194,54.2277579 C89.0211274,54.8765142 89.5672876,55.2866395 90.0998807,57.5647655 C90.94382,61.1758858 90.1624978,64.1403369 90.5308951,67.855119 C90.8898997,71.4728485 91.4611067,75.4307838 90.5298514,78.882237 C90.3322597,78.220262 90.0918797,77.6243802 89.8365411,76.9477952 C88.7316973,74.0184779 88.1604903,70.4042269 86.4357373,67.5149133 C84.7934301,64.7640474 81.7098863,62.8616086 79.2831261,60.9591699 C76.7516562,58.9742886 75.3970398,55.3134246 72.6394527,53.8482441 C71.0514137,53.004687 69.3370969,53.3334134 67.8551591,54.2350629 C66.6623035,52.2063515 66.0451772,49.4088725 65.2301114,47.2368434 C64.4505286,45.1580403 63.7624364,43.6173745 62.7306459,41.5712702 C61.3151517,38.7640512 60.2555314,35.6827196 58.9722289,32.7833181 C58.4038049,31.4993719 57.8392074,30.1361141 57.3107887,28.7523325 C56.3256132,25.8324073 55.0224819,22.2999031 54.6812188,19.5973896 C54.3288237,16.8019978 58.4201549,14.4153398 55.4778473,11.8290111 C54.5897283,11.0484163 52.9060242,10.8122203 52.0241669,9.84447768 C51.1047392,8.83638343 50.8716645,7.45434117 50.4653492,6.20692019 C49.6802004,3.7979993 47.4559022,-1.52458531 45.4104105,0.418205036 C44.2860859,1.48613097 45.8125514,8.18658354 45.9583101,8.92300022 C46.5761321,12.0425962 47.0123645,15.1541915 47.5014735,18.2483939 C47.9025708,20.7856746 48.6626727,23.5389755 49.4888704,26.7131853 C49.9424965,28.4552612 52.4412663,37.5402846 52.9797733,40.1050461 C53.568026,42.9066994 54.0759202,45.6245187 54.8784626,48.3458166 C55.4441037,50.2653004 56.077232,52.2501817 56.8432478,54.1494897 C55.4399292,54.7158035 53.8884168,55.7350292 53.2559842,56.8586126 C52.7828773,57.6979954 53.2476353,58.9440249 52.8434072,59.64009 C52.4346567,60.3451994 51.4112151,60.5093887 50.8107868,61.0294373 C46.1277241,65.0851209 49.8579634,68.1400152 49.4039895,72.8952424 C49.1956137,75.0770116 47.970406,76.5143634 48.6619769,78.7789229 C48.8609601,79.4297664 49.8447442,80.4702115 49.9017953,80.9968695 C50.0364221,82.2418554 49.241185,83.0440174 48.9618432,84.1836022 C48.377417,86.5699123 48.724594,88.9732674 49.8287421,91.1359044 C50.6013674,92.6487415 52.5223206,93.6947523 53.0218659,95.3067291 C53.7071751,97.5173706 52.1045255,98.7926203 54.0543521,100.595571 C55.6963114,102.112931 57.4294133,101.91326 58.0037512,104.587945 C58.534605,107.058784 57.8312063,108.938612 59.832866,110.975325 C60.6427137,111.799749 61.8950556,111.978201 62.6648979,112.744186 C63.6900789,113.763759 63.4806595,114.859166 63.9426345,116.079106 C64.2790274,116.968233 64.1249198,117.923105 65.6614736,119.046688 C66.6167321,119.74484 68.798242,119.224444 69.9263933,119.417505 C72.6481495,119.883288 71.3585853,121.612145 73.0391585,123.456144 C74.6675507,125.243093 76.1933205,124.727219 78.143495,125.518945 C80.2881304,126.389287 80.4102337,128.38043 81.8114651,129.653593 C83.7028491,131.372362 85.1837433,129.918313 87.2341052,130.132942 C88.2147584,130.235908 89.0350423,130.782742 89.8382805,131.362274 C90.78519,136.380135 92.6010857,146.431857 92.8532934,149.363957 C93.1580299,152.902723 93.9358733,156.078672 94.7450253,159.324541 C95.5402624,162.5151 97.4473007,164.855145 98.4564795,168.111449 C99.5352328,171.592818 101.249202,174.659192 101.701088,178.239005 C102.092445,181.342947 97.5492274,183.992934 100.816796,186.864855 C101.803015,187.731719 103.672483,187.994004 104.651745,189.068539 C105.672403,190.1876 105.931221,191.722353 106.38276,193.107873 C107.254529,195.78221 109.724077,201.693024 111.995686,199.535605 C113.243853,198.349755 111.549018,190.909755 111.387257,190.091591 C110.701252,186.627615 110.216665,183.172684 109.673636,179.736884 C109.153914,176.448925 107.699806,173.394726 107.028411,170.098766 C106.359104,166.813589 105.951745,163.600419 105.142593,160.348984 C104.346661,157.149033 102.623299,153.75602 102.335608,150.441623 C101.99191,146.485079 102.490064,142.632893 102.119231,138.804709 C101.953644,137.096028 101.84963,135.56545 101.847195,134.049134 C102.818108,134.373686 103.813024,134.591446 104.918215,134.560834 C107.413159,134.491958 107.93288,134.091921 110.334942,135.297947 C111.951158,136.109501 114.116318,136.940187 115.985786,135.979402 C116.837031,135.542143 116.900692,134.32116 117.940135,134.057831 C118.728067,133.858508 119.898659,134.60049 120.642411,134.861036 C122.749476,135.59954 123.840753,136.276125 125.992693,135.475354 C129.868343,134.033828 129.888868,130.502368 128.698795,127.232497 C128.515118,126.204227 128.12724,124.854883 127.79363,124.196735 C127.721621,124.054808 127.649263,123.921926 127.576906,123.793219 C127.392185,123.399095 127.151805,122.963228 126.90238,122.439005 C125.416964,119.31106 123.812575,116.492362 121.999114,113.545304 C120.215571,110.646598 115.943346,105.35706 114.360873,103.228861 C113.124533,101.565749 108.272056,95.4545691 108.011152,93.7156239 C108.236226,91.493503 109.411687,89.4153957 110.471308,87.296241 C111.950115,84.3387471 113.363522,81.3673389 114.671871,78.3051395 C115.011047,77.5102826 115.344309,76.3571313 115.953782,75.5400114 C116.416105,77.7256071 117.614179,82.2098524 117.676796,82.6752873 C117.806552,83.6409428 117.572782,86.6293961 117.735934,88.2897252 C117.784984,88.7909895 117.950919,89.4773145 118.254264,89.3701741 C118.855041,89.1579803 119.814126,89.2059848 120.55092,89.6401124 C121.472435,90.1831197 121.972328,90.0784142 122.844793,89.7023791 C125.351564,88.6222781 127.304521,91.2837443 129.92122,90.4276643 C130.965882,90.0857192 131.023281,90.0457155 131.919749,89.5656706 C133.658765,90.9564094 134.748302,92.0448589 135.521623,92.6897888 C137.834629,94.6186648 140.430803,95.9071331 142.693019,97.5980738 C144.872442,99.2270957 147.123874,100.6641 148.289944,103.201032 C148.899417,104.526026 149.753792,110.232299 151.179027,110.349179 C150.528853,111.156211 150.821066,111.678695 151.868858,111.685304 C151.950261,112.385891 152.006616,112.911158 152.552428,112.972729 C153.63466,113.094131 153.386975,111.040026 153.451331,109.961665 C153.656924,110.031584 153.952268,110.070544 154.154034,109.975231 C154.786467,109.676768 155.97654,107.105398 155.999499,105.83467 C156.030808,104.060591 154.587484,103.428532 153.571,102.224593 Z"/>
</svg>
