<svg xmlns="http://www.w3.org/2000/svg" width="200" height="200" viewBox="0 0 200 200">
  <path fill="#fff" fill-rule="evenodd" d="M87.0398512,59.0802024 C87.0398512,59.0802024 88.7562895,62.0846329 89.1887779,62.4255306 C89.6136977,62.7680465 90.4732684,63.9698187 90.3856895,64.6489171 C90.3067604,65.335567 88.7562895,67.7396508 88.7562895,67.7396508 C88.7562895,67.7396508 96.9978964,70.3082501 100.178849,70.7397662 C103.360341,71.1648095 107.656032,71.5089435 108.595073,71.0774275 C109.546547,70.6502266 109.113518,70.2214075 109.113518,70.2214075 C109.113518,70.2214075 108.337742,69.7904308 107.741989,69.7904308 C107.137587,69.7904308 106.789974,69.6210608 106.789974,69.6210608 C106.789974,69.6210608 106.366136,69.2780055 105.932566,69.2780055 C105.506024,69.2780055 104.992985,69.1064779 104.992985,69.1064779 C104.992985,69.1064779 104.389664,68.851344 104.217209,68.4268401 C104.05016,67.9947847 104.05016,67.5659656 104.05016,67.5659656 L102.755398,67.0481463 C102.755398,67.0481463 102.585646,66.8760793 102.326694,65.9413076 C102.07531,64.9919723 101.728779,64.6489171 101.728779,64.6489171 C101.728779,64.6489171 101.385491,63.9698187 100.437801,62.8511133 C99.4933544,61.7394201 96.9978964,61.2242978 94.2505139,60.5376478 C91.5047532,59.8509979 87.0398512,59.0802024 87.0398512,59.0802024 Z M64.7423716,37.4094661 C64.7423716,37.4094661 63.2000099,36.0901058 62.9837657,35.7869657 C62.7734682,35.492456 63.1145934,35.7869657 64.4834192,35.4444499 C65.8500825,35.1040916 67.0951084,34.6326603 66.8815673,33.6115854 C66.6620794,32.5851166 66.2349972,32.0678367 66.711275,31.642254 C67.1805249,31.2182895 67.8211483,31.3045927 67.956301,30.7074824 C68.0736134,30.110372 68.0346895,29.8077714 68.0736134,29.3865039 C68.1217278,28.9555272 68.3341877,29.0375153 68.5898964,28.6577811 C68.847227,28.2748106 68.9764329,27.843834 68.9764329,27.3767178 C68.9764329,26.9047472 68.9764329,25.8793571 68.9764329,25.8793571 C68.9764329,25.8793571 70.3057941,26.3507884 70.6880058,25.7569144 C71.0664331,25.1560283 71.1599587,24.6419848 71.1177911,24.1732505 C71.0664331,23.7072132 71.3734999,23.7072132 71.3734999,23.7072132 C71.3734999,23.7072132 74.8388131,24.5988332 75.9124655,23.1888545 C76.9801712,21.777797 78.0473363,20.076545 76.1222224,18.3245898 C74.1960272,16.5693982 72.5309469,15.6810146 72.4876981,14.951213 C72.4439086,14.2235691 73.2591492,9.18669795 70.6880058,6.24160088 C68.1217278,3.29812199 59.3492414,-1.74198553 52.4542952,0.604383017 C45.5723237,2.94859398 44.0369899,6.84194759 44.0369899,7.96334993 C44.0369899,9.07881893 43.7428978,10.057821 43.7428978,10.9106046 C43.7428978,11.7709397 43.7299231,13.4619433 43.4304249,13.9220473 C43.1314673,14.3999513 42.2767621,15.2521955 42.3167673,15.719851 C42.3589349,16.1885853 42.6124812,17.0872175 42.7022226,17.5554124 C42.7881796,18.0306195 43.4779986,19.9082537 43.4304249,20.3284425 C43.3904197,20.7604979 43.3904197,21.0086197 43.3904197,21.0086197 C43.3904197,21.0086197 33.7999897,22.089028 30.5914664,27.2887964 C27.3834838,32.4993528 24.9372213,35.7691657 25.0161504,47.1622683 C25.1021075,58.5699346 25.4432327,67.0411342 25.4432327,68.4117371 C25.4432327,69.7866551 24.930734,74.4276102 25.4432327,75.7971343 C25.9622188,77.1645008 28.6268879,79.5653483 29.3977985,80.3383014 C30.1724933,81.1074788 30.8623123,81.1894668 31.034767,81.9640381 C31.2007344,82.7337549 28.8020457,88.2177846 29.4832149,92.7605698 C30.1724933,97.3038945 31.2007344,103.216743 34.8093094,107.58854 C38.42275,111.959798 44.2591808,116.675729 46.0621168,117.618052 C47.8699182,118.557139 48.2948381,119.416395 48.2948381,119.416395 C48.2948381,119.416395 51.4309195,133.665055 51.093038,135.55995 C50.7470473,137.446215 50.3567265,139.135061 50.2707694,139.896687 C50.185353,140.670719 50.9627508,142.98742 49.8447684,143.584531 C48.7262453,144.184877 31.7159362,154.211153 27.3402349,156.097418 C22.9580463,157.980446 20.2939178,159.525273 18.0584935,160.042553 C15.8257721,160.549584 15.5711446,161.234077 14.1963721,161.234077 C12.8232215,161.234077 8.01503179,159.525273 6.80892979,159.700577 C5.60499023,159.865631 4.14101703,159.953013 3.54148,159.865631 C2.94248358,159.789037 0.19347924,160.130474 0.0221057154,161.331707 C-0.14980842,162.524849 0.708140426,169.636773 1.65258695,172.206451 C2.60081775,174.785299 3.2890149,174.162837 3.36956586,176.217393 C3.46309148,178.268173 2.68407176,184.643823 3.19657051,186.95567 C3.71555657,189.272372 4.91949613,194.754783 5.86448327,195.602712 C6.80892979,196.463047 9.64280997,197.067709 10.8462089,196.377823 C12.0469048,195.699803 13.2519256,194.754783 13.2519256,193.041665 C13.2519256,191.322612 12.7334801,188.071678 13.075146,186.096414 C13.4254616,184.123846 14.1963721,182.842783 15.3132734,181.21327 C16.4253092,179.580521 17.542751,176.926158 20.8123633,175.379712 C24.0727851,173.846752 26.993163,173.493448 28.4522707,172.554361 C29.9140815,171.609341 46.4919021,166.039547 50.8757126,163.726621 C55.2573606,161.408841 68.3952767,157.561336 69.001301,154.724657 C69.5965132,151.894451 70.8891129,147.271835 71.3188982,145.897996 C71.7448993,144.526315 72.3509236,142.811038 72.3509236,142.811038 C72.3509236,142.811038 75.0118084,151.042207 76.815285,153.95548 C78.6198428,156.873068 87.1258083,169.294257 88.3302884,171.353668 C89.5272001,173.407145 93.5650198,178.641434 93.7390964,179.580521 C93.9110105,180.52662 94.7705812,184.379519 95.8804545,185.239315 C96.9978964,186.096414 98.2894149,186.613154 98.2023766,187.204871 C98.1147977,187.814387 96.9119393,190.809108 96.7459719,192.26116 C96.5735172,193.726696 96.3129429,195.261275 96.4864789,196.377823 C96.6600149,197.499225 95.8004442,198.269482 97.4309254,198.865513 C99.0635691,199.470175 106.279097,198.690749 108.16799,198.435076 C110.061749,198.182639 117.621646,200.838081 125.265338,199.726927 C132.911192,198.611458 135.050928,197.577977 135.228789,195.780713 C135.400703,193.98183 136.429485,191.753589 132.05108,190.375435 C127.671054,189.009147 128.270051,189.870022 127.156393,189.955246 C126.032464,190.035076 122.771501,189.351123 121.74326,188.491328 C120.711235,187.639623 115.985759,181.727314 114.355818,181.037967 C112.722093,180.354553 112.379887,177.873336 111.777106,176.669406 C111.174866,175.467634 101.299534,157.895761 100.698375,156.436697 C100.093432,154.98087 94.3375522,144.272259 93.5650198,143.242015 C92.7946499,142.213928 87.3858419,124.72674 85.4904615,122.415971 C83.6048122,120.101427 76.5574138,111.531518 75.9551737,110.070836 C75.3572585,108.621482 73.3824084,101.161109 73.3824084,100.04564 C73.3824084,98.9296312 73.637036,99.4431353 73.2964514,98.5908911 C72.94992,97.7321742 72.6066324,97.9074776 72.94992,97.1296699 C73.2964514,96.3604925 73.2964514,95.8496854 73.2964514,95.8496854 C73.2964514,95.8496854 72.4363401,95.8496854 72.3509236,94.9877321 C72.2633447,94.1381848 71.9676308,92.7023152 71.8816737,91.5037793 C71.7989603,90.3106374 71.2918677,89.4540781 70.8582981,88.9065921 C70.432297,88.3461606 70.3057941,88.4772336 70.3895888,88.0516509 C70.4750052,87.6195954 70.6880058,87.1082489 70.6496224,86.7263572 C70.6015081,86.3385321 70.349043,84.971705 69.9214201,84.3729765 C69.4878505,83.7780238 69.4051371,82.6690275 69.4051371,82.6690275 C69.4051371,82.6690275 72.6179852,79.769779 73.2591492,77.7551384 C73.9008539,75.7545221 74.4966066,74.4276102 74.6290562,74.0850944 C74.7512342,73.7393421 75.9984226,74.6827441 77.0228795,75.4945337 C78.0473363,76.3052445 79.9292014,79.5966332 81.8570185,79.8911429 C83.7842948,80.1942829 91.3160802,81.2590488 94.4824358,80.7477023 C97.6487914,80.2368951 100.862721,79.3808752 103.083549,78.9989835 C105.306539,78.610619 105.18328,78.1008907 107.70739,78.1008907 C110.231501,78.1008907 109.927677,78.1391877 111.558699,78.1391877 C113.17999,78.1391877 115.531105,77.7184596 116.222546,77.8872902 C116.907499,78.0561209 116.817758,78.1871939 117.460003,77.8872902 C118.104411,77.5900835 117.117797,77.2869435 118.963441,77.1574887 C120.802598,77.0285733 121.357264,77.0285733 122.641755,77.0285733 C123.924624,77.0285733 124.523079,77.1213492 124.90475,76.5177661 C125.295612,75.919577 124.862042,74.5964409 125.035038,74.3450828 C125.209655,74.0850944 125.974078,74.3013918 125.974078,74.3013918 C125.974078,74.3013918 129.189089,75.4087699 129.741592,75.6687583 C130.294096,75.919577 132.866321,76.6466816 133.376657,76.9028942 C133.89294,77.1574887 146.654592,81.5389948 149.401974,82.9932039 C152.153141,84.452807 172.261689,92.7950911 178.801994,95.1991749 C185.3423,97.6129679 194.974357,101.209115 196.356698,101.037587 C197.731471,100.869296 200.311264,97.7791015 199.969057,96.4031047 C199.62577,95.0308837 199.192741,94.3215792 198.425614,93.8145478 C197.654163,93.2994255 174.66254,85.8207129 170.450644,84.360031 C166.240369,82.9074401 153.43655,80.2482224 146.820018,78.2794304 C140.212136,76.3052445 125.937857,71.6961136 125.675661,71.1000821 C125.421033,70.4981172 125.295612,70.4981172 125.546996,70.2003711 C125.807029,69.8972311 127.56131,67.6824749 126.403863,67.170589 C125.244254,66.6592425 122.510387,67.5131049 122.043299,67.3442742 C121.567562,67.170589 120.283612,66.5740181 119.301863,66.2751932 C118.314168,65.9763683 118.573661,65.9763683 118.062243,65.7179981 C117.549745,65.461246 117.117797,65.7179981 116.519341,65.5017007 C115.924129,65.2924154 115.448392,64.351171 115.279181,64.0059581 C115.107807,63.6709938 114.379605,62.0414813 113.608694,61.4044557 C112.841568,60.7609574 111.00133,60.5074417 110.360706,59.9551012 C109.711974,59.400603 107.274361,57.5661204 106.632657,57.134065 C105.99798,56.7090216 105.219501,56.4511908 104.923246,56.1566811 C104.623748,55.8535411 103.257625,54.4441018 102.700256,54.3561804 C102.143968,54.2731135 101.714182,53.9753674 101.244932,54.3130288 C100.77352,54.6620174 100.430773,54.6620174 100.430773,54.6620174 C100.430773,54.6620174 92.2534988,51.2422526 89.8585943,49.5334491 C87.4609868,47.8268031 78.1332934,43.5569517 75.8227242,42.7877743 C73.5175611,42.0245303 65.7235796,38.6080019 65.2543297,38.1754071 C64.7850798,37.7573759 64.7423716,37.4094661 64.7423716,37.4094661 Z"/>
</svg>
