<svg xmlns="http://www.w3.org/2000/svg" width="200" height="200" viewBox="0 0 200 200">
  <path fill="#fff" fill-rule="evenodd" d="M77.4118469,12.6364608 C77.4118469,12.6364608 78.5391006,4.59872087 82.6746073,2.53596778 C86.8089923,0.471535386 89.1184603,0.581250339 89.8935172,0.709437709 C90.6685742,0.838184849 95.828704,0.957415895 97.7669073,3.92307827 C99.7051106,6.88986018 100.605231,11.3993687 100.605231,11.3993687 C100.605231,11.3993687 104.996473,11.9126779 105.900519,12.5580929 C106.806248,13.2023884 107.838722,14.6202863 106.546587,15.909437 C106.546587,15.909437 107.50335,17.5859486 107.153958,17.9727498 C106.805126,18.3589912 106.673894,19.3912074 106.673894,19.3912074 C106.673894,19.3912074 109.904793,20.0360627 110.939511,20.4234236 C111.973107,20.8096651 112.489625,21.8418813 112.877154,21.9711882 C113.264682,22.0993755 115.590975,21.1964663 118.046257,20.551611 C120.501539,19.906196 126.316148,20.293557 128.64188,21.0671593 C130.968173,21.8418813 147.378967,20.551611 147.767617,20.551611 C148.154585,20.551611 154.485713,18.3589912 159.267287,18.4877384 C164.048861,18.6164855 178.650442,19.648142 179.684599,19.3906477 C180.719317,19.1325936 182.26887,17.9721901 183.302466,17.0698405 C184.336062,16.1663715 186.662355,13.4587632 187.437412,13.2007091 C188.21303,12.9415355 193.899772,13.0714022 194.803257,13.5869505 C195.707304,14.1024989 195.837415,15.0054081 196.354493,15.6508232 C196.871011,16.2956784 197,17.5853889 197,17.5853889 L196.354493,18.2302441 C196.354493,18.2302441 196.612472,20.6803582 196.095393,20.8096651 C195.578875,20.938972 194.932247,20.293557 194.932247,20.293557 C194.932247,20.293557 194.15775,19.6492615 194.0282,19.2619005 C193.89865,18.8750993 193.123033,18.2302441 193.123033,18.2302441 C193.123033,18.2302441 191.959886,18.6170453 191.572358,18.8750993 C191.18539,19.1325936 189.763705,19.6492615 189.505726,20.0360627 C189.247187,20.4234236 186.791344,23.1315917 185.757187,23.7758872 C184.724712,24.4207424 181.364263,24.1632482 180.847745,24.4207424 C180.330106,24.6787965 170.510661,26.4846151 167.795718,27.2582174 C165.081897,28.0323796 156.942116,28.9358487 155.64942,29.064036 C154.357284,29.1927832 148.542113,29.5801441 148.154585,29.709451 C147.766496,29.8376384 142.210986,30.9991615 140.65975,30.9991615 C139.108515,30.9991615 129.547048,32.546926 128.125923,32.934287 C126.704238,33.3210882 122.568731,35.7706425 122.439742,36.4160575 C122.310753,37.0609127 122.568731,35.7706425 122.568731,35.7706425 C122.568731,35.7706425 123.730756,41.5754591 123.989856,43.2519708 C124.248395,44.9284825 124.506934,55.634087 124.764913,57.4393458 C125.024574,59.2446046 125.282552,61.3084773 125.540531,61.9538923 C125.79907,62.5998671 125.79907,62.9861085 125.92862,63.5016568 C126.05817,64.0177649 125.774394,65.4356627 125.774394,65.4356627 C125.774394,65.4356627 126.395785,66.8546801 126.395785,67.7575894 C126.395785,68.6610585 126.395785,69.0472999 126.395785,69.0472999 C126.395785,69.0472999 127.551641,69.9496494 127.68063,70.5950644 C127.81018,71.2399197 127.903277,71.2399197 127.903277,71.2399197 C127.903277,71.2399197 128.724882,72.9169911 128.853871,73.5618463 C128.983421,74.2072614 129.006415,74.9808637 129.006415,75.4964121 C129.006415,76.0125202 130.826285,77.1734835 130.568306,78.2051399 C130.310328,79.2367964 130.446047,80.3977597 130.446047,80.9138678 C130.446047,81.4294161 130.061322,85.2979878 130.061322,86.0727097 C130.061322,86.8463121 129.674355,89.0394916 129.674355,90.2004549 C129.674355,91.3608585 129.029409,93.03793 128.511769,94.0690266 C127.994691,95.1012428 125.411541,99.6152295 123.085249,101.808969 C120.758956,104.000469 119.467942,105.161432 118.433785,106.193089 C117.399628,107.225305 117.14165,107.87016 115.461425,109.547232 C113.781761,111.223743 112.231086,112.900255 111.32704,113.933031 C110.421872,114.963568 109.646815,115.092875 109.646815,115.867037 C109.646815,116.640639 109.904793,116.768827 109.646815,117.801043 C109.388836,118.833819 108.871197,119.22006 109.388836,119.607421 C109.905354,119.994222 110.67985,120.509771 110.80884,121.284493 C110.939511,122.057535 111.32704,122.70295 111.32704,122.70295 C111.32704,122.70295 112.361197,123.863914 112.490186,124.89501 C112.618614,125.926667 112.489625,126.442775 112.748164,127.08819 C113.006143,127.732485 114.0403,129.409557 114.557379,132.117725 C115.074457,134.826453 114.944346,138.696144 115.074457,139.469746 C115.203446,140.243908 115.977942,146.176353 115.977942,147.079822 C115.977942,147.982171 116.236482,150.948393 116.236482,151.851862 C116.236482,152.754772 115.816986,153.786988 116.074404,154.303096 C116.334065,154.818085 116.300976,156.107795 116.300976,156.75321 C116.300976,157.398065 116.300976,159.590685 116.300976,159.590685 L116.75356,160.880955 C116.75356,160.880955 117.981762,160.750529 118.62783,161.912052 C119.273337,163.072456 120.145416,165.651876 120.274966,166.167985 C120.403955,166.684652 121.486904,169.39338 121.744882,170.166983 C122.003422,170.940585 121.899109,171.842935 121.899109,172.230855 C121.899109,172.618216 121.651786,174.938464 121.651786,175.454572 C121.651786,175.97124 121.657955,176.745402 121.140876,177.131643 C120.623798,177.518444 116.492778,179.45357 115.200642,179.45357 C113.908507,179.45357 113.134571,179.45357 113.00446,178.937462 C112.876032,178.421354 112.488504,177.389697 112.488504,177.389697 C112.488504,177.389697 111.714568,176.873589 111.19749,176.228174 C110.680411,175.583879 108.354679,171.327946 108.354679,171.327946 C108.354679,171.327946 104.090183,171.972242 103.444116,172.359602 C102.798048,172.746404 102.669059,171.842935 102.669059,171.456133 C102.669059,171.069892 102.021869,168.876712 102.15198,167.587002 C102.280409,166.297292 102.41108,165.008141 102.280409,163.589123 C102.15198,162.170106 101.893441,157.784866 101.505912,156.365289 C101.118384,154.946832 100.083666,152.367411 99.9552376,151.721996 C99.8256875,151.07826 99.3725428,149.143694 99.2760812,148.111478 C99.1796197,147.079822 99.1140035,144.629148 99.2760812,143.596932 C99.4375982,142.565835 98.8554642,139.986414 99.2760812,139.599613 C99.6966983,139.212252 98.7920912,136.116163 98.533552,135.213254 C98.2755735,134.310904 98.0164734,132.891887 98.1460235,132.247032 C98.2755735,131.602176 97.4999557,130.054412 97.4999557,130.054412 C97.4999557,130.054412 95.3032131,127.08819 95.0446739,126.184721 C94.7861346,125.282931 94.3991669,124.766263 94.3991669,124.250715 C94.3991669,123.734047 93.7519775,122.831697 93.8809667,122.186842 C94.0110776,121.541427 94.1406277,119.994222 94.1406277,119.478114 C94.1406277,118.962006 92.9774813,117.028 92.9774813,115.867037 C92.9774813,114.706074 92.9774813,113.933031 93.3650098,112.771508 C93.7519775,111.609985 94.1406277,109.934033 94.5275953,109.288618 C94.9156846,108.643763 95.5617524,106.193089 95.5617524,106.193089 L95.8202917,104.516577 C95.8202917,104.516577 89.1005139,105.935594 88.1964677,106.193089 C87.2912998,106.451143 83.8029826,107.483359 82.381297,107.87016 C80.9590506,108.257521 79.9254543,108.386268 77.4707333,108.77307 C75.0154515,109.159871 71.9141019,109.804166 71.0094948,110.06278 C70.1048878,110.321394 68.2967953,110.707635 67.6496059,111.223743 C67.0035382,111.739851 65.7114026,113.029002 65.1937633,113.802605 C64.6778064,114.576767 63.1271316,116.382585 62.7401639,116.899253 C62.3509529,117.414242 61.9645461,118.704512 61.5758959,119.865475 C61.1889283,121.025879 61.1878066,122.70295 60.5428605,124.121408 C59.8967927,125.539865 58.7342072,127.990539 58.4751072,129.151503 C58.2160071,130.311906 57.0539824,133.278688 56.6653323,134.182157 C56.2783646,135.084507 55.1157791,136.631711 54.8572398,137.406433 C54.5981397,138.180596 53.5645435,138.696144 53.5645435,139.340439 C53.5645435,139.986414 53.1775758,141.662366 52.6604973,142.823329 C52.1434187,143.983733 50.0756654,149.014387 49.9466761,149.78799 C49.8176869,150.561592 50.4631939,150.948393 49.9466761,151.721996 C49.4290368,152.496718 48.9125191,154.818085 48.7840907,155.334193 C48.6545406,155.850301 48.7840907,155.850301 48.7840907,156.624463 C48.7840907,157.398065 47.6203835,162.42816 47.6203835,162.42816 L86.1281535,182.806593 C86.1281535,182.806593 94.1406277,186.547537 95.1747847,188.481543 C96.2072594,190.416109 95.1747847,194.543294 92.2018635,196.865221 C89.2295031,199.186028 82.6398363,199.445202 81.0891615,198.929094 C79.5379258,198.412986 76.3070262,197.122715 76.3070262,197.122715 C76.3070262,197.122715 75.4035408,199.702136 75.0154515,199.96019 C74.627923,200.218244 70.7509555,199.186028 70.6214055,197.897437 L71.7845518,194.930096 L32.0121266,174.760457 L31.855657,174.68041 C31.855657,174.68041 30.4345323,177.389697 29.7879037,177.647192 C29.1418359,177.905805 26.4280148,176.615535 26.0410471,175.841373 C25.6535186,175.067771 26.0410471,174.294168 26.0410471,173.906807 C26.0410471,173.520006 26.9450933,172.100989 26.9450933,172.100989 C26.9450933,172.100989 22.8107083,169.908929 21.1299226,168.489911 C19.4502586,167.070894 15.8323913,163.33051 16.2199198,160.106233 C16.2199198,160.106233 14.6698058,157.139451 15.0567735,156.237102 C15.4448628,155.334193 15.9608197,155.334193 16.6074483,155.076139 C17.2540768,154.818085 19.5798086,153.27032 19.5798086,153.27032 C19.5798086,153.27032 21.9061013,152.367411 22.422619,152.496718 C22.9396975,152.626025 25.3944185,152.109916 25.7825079,152.109916 C26.1700364,152.109916 27.7201503,152.109357 28.2372289,151.98005 C28.7543074,151.851862 29.7879037,151.207007 30.175993,150.819086 C30.5629607,150.432845 31.726107,148.368972 32.2437463,148.498839 C32.7602641,148.627026 33.4063318,148.627026 33.4063318,148.627026 L34.5694781,147.852864 C34.5694781,147.852864 34.8274566,142.952076 35.3445351,141.275565 C35.8616137,139.599613 37.8003778,135.987416 38.1879063,135.084507 C38.5754348,134.182157 42.0637521,126.700269 42.1933021,125.798479 C42.3222913,124.89501 43.0979092,121.928228 43.3564484,121.284493 C43.6149877,120.639078 44.648584,118.187844 44.7775732,117.414242 C44.9071232,116.640639 45.4242018,115.480236 45.4242018,115.092875 C45.4242018,114.706074 46.4566764,109.030564 46.9748766,107.740853 C47.4913943,106.451143 47.878362,105.418927 47.878362,104.774631 C47.878362,104.130336 48.0084728,102.19521 49.1710583,101.034247 C50.3342046,99.8732835 52.0144295,98.1973316 52.9190365,97.8099707 C53.8225219,97.4237293 54.3401613,97.5519166 54.986229,97.1656752 C55.6328576,96.7777545 59.6382535,93.5534783 60.8008389,92.7804357 C61.9645461,92.0062735 68.0376953,87.4906075 69.5883701,86.7170052 C71.1396057,85.9434028 74.3699445,84.0088371 75.0154515,83.750783 C75.66208,83.4938485 78.1173619,82.2030185 79.4083758,81.6874702 C80.7005113,81.1713621 81.9937685,81.0426149 82.5102862,80.7845609 C83.0268039,80.5259471 84.4490503,79.3655435 85.3530965,78.9781825 C86.2577036,78.5919411 87.5503999,77.8183387 88.1964677,77.6895916 C88.8419747,77.5597249 89.7471425,76.9154294 90.2642211,76.6568156 C90.780178,76.3993213 91.1682673,75.4964121 91.1682673,75.4964121 C91.1682673,75.4964121 90.6517496,73.9486475 91.2972565,73.1744854 C91.9433243,72.4003232 92.5899529,71.4985335 92.5899529,71.4985335 C92.5899529,71.4985335 91.8137742,68.7892459 91.5552349,68.1443906 C91.2972565,67.5000951 89.230064,63.5016568 88.9715247,62.2119463 C88.7129854,60.9222358 88.0674785,58.4710023 88.0674785,58.4710023 C88.0674785,58.4710023 86.9037714,54.4720042 86.6457929,53.8282685 C86.3872536,53.1834132 85.6116358,50.9907934 85.3530965,50.4741256 C85.0945573,49.9585773 84.1905111,47.5084632 84.0615218,46.9923551 C83.9319718,46.476247 83.4148932,45.5733377 83.285904,44.9279227 C83.156354,44.2836272 83.156354,42.6065558 83.156354,42.6065558 C83.156354,42.6065558 81.3471399,38.4799301 80.7005113,37.4482737 C80.0555652,36.4154977 78.1173619,33.1912215 77.8582618,32.6756732 C77.5997225,32.1601248 75.9194977,30.8698546 75.9194977,30.8698546 C75.9194977,30.8698546 68.8133131,29.1927832 66.099492,28.9358487 C63.3856708,28.6766751 56.4079146,27.3880841 55.2442075,27.3880841 C54.0821828,27.3880841 53.3060042,27.2582174 52.0138687,27.1289105 C50.7217331,27.0007232 48.1369012,26.0978139 46.9748766,25.9690667 C45.8117303,25.8397598 39.8670095,24.1632482 37.6702669,22.8729779 C35.4729635,21.5832674 31.4681285,19.906196 31.0794784,19.7780086 C30.6925107,19.6492615 25.9120579,18.2302441 25.00689,18.1009372 C24.1017222,17.9721901 22.0345297,17.456082 21.647562,17.5853889 C21.2600335,17.714136 20.0957655,18.1009372 19.0627301,17.5853889 C18.0291338,17.068721 16.0269967,15.6054818 15.4902894,15.1593449 C14.9524604,14.7120886 13.6995825,13.6401287 13.4309484,13.4604425 C13.1611927,13.2818758 11.4607782,12.0313492 11.0132417,11.8522228 C10.5651443,11.6736561 9.31226639,10.8692663 9.31226639,10.8692663 C9.31226639,10.8692663 9.4014372,10.1538801 9.31226639,9.88630992 C9.22253476,9.61818 10.7451684,9.26048686 11.4607782,9.52861678 C12.1775096,9.79674669 13.52068,10.6901399 13.7887533,10.7797031 C14.0568266,10.8692663 13.4303876,10.512133 14.0568266,10.8692663 C14.6838263,11.2263997 13.9676557,9.35005009 13.6984608,8.99291672 C13.4309484,8.63466381 12.9828511,8.18796721 12.5353145,7.92039707 C12.0872172,7.65114762 10.5651443,6.84787742 10.2079003,6.57974751 C9.84953455,6.31161759 8.59609579,5.41766463 8.23773007,5.23965771 C7.87936436,5.06109103 7.25236456,4.79296112 6.71565723,4.61439443 C6.17838907,4.43470821 4.83521867,3.98857138 4.56714541,3.89844838 C4.29851133,3.80944492 3.76068235,2.46935513 4.11960888,2.28966891 C4.4779746,2.11166199 5.01524276,1.75508839 5.37304765,1.84353208 C5.73085254,1.93365508 7.1643154,2.20122522 7.1643154,2.20122522 L7.34321784,1.75508839 L4.92438948,0.626591723 C4.92438948,0.626591723 4.38824296,0.503442285 5.1941452,0.145749145 C5.9989258,-0.211384225 8.77499823,0.145749145 9.31226639,0.593005513 C9.84953455,1.03914234 14.1459974,3.18418164 14.7729972,3.54187478 C15.3994361,3.89844838 17.816582,5.59735085 18.0857769,5.864921 C18.3549718,6.13361068 20.2348496,7.74127062 20.6823861,8.18796721 C21.1293618,8.63466381 21.9363857,9.35005009 22.5628247,10.0654364 C23.1892636,10.7797031 22.2936298,10.6011364 23.1892636,10.7797031 C24.0848975,10.9588296 25.8750436,10.8692663 26.4123118,11.1368365 C26.9495799,11.4060859 29.2769942,12.567609 29.5461891,12.7461757 C29.8148232,12.9247424 35.9025537,13.5511252 36.5289927,13.7291322 C37.1554317,13.9076988 52.1972577,15.1593449 53.7187697,15.7846082 C55.2408426,16.4098715 60.7015733,18.6439143 61.5972072,18.6439143 C62.4928411,18.6439143 71.8933514,19.8950006 72.5197904,19.6268707 C73.1462294,19.3587408 75.9901613,18.8230407 76.2593562,18.7329177 C76.5274295,18.6439143 77.0433864,17.4818314 77.0433864,17.4818314 L77.0433864,16.0376243 C77.0433864,16.0376243 76.6754867,14.9802185 76.8543891,14.7120886 C77.0338524,14.4439587 76.573417,12.8849987 77.4118469,12.6364608"/>
</svg>
