<svg fill="#fff" xmlns="http://www.w3.org/2000/svg" width="200" height="200" viewBox="0 0 200 200">
  <path d="M58.7877429,150.299382 C109.327271,150.299382 150.292978,109.327271 150.292978,58.7877429 C150.292978,36.3933271 142.224072,15.9072716 128.871954,0 C170.125837,13.2432519 200,51.8843457 200,97.5377029 C200,154.12891 154.12891,200 97.5377029,200 C51.8843457,200 13.2432519,170.125837 0,128.871954 C15.9072716,142.230476 36.399731,150.299382 58.7877429,150.299382 Z M47.705438,45 L59.0438751,67.9864795 L84.4039959,71.6673435 L66.0547169,89.5556545 L70.3823122,114.812573 L47.705438,102.889326 L25.0216837,114.812573 L29.3492789,89.5556545 L11,71.6673435 L36.3601208,67.9864795 L47.705438,45 Z M106.75987,21 L113.805417,35.2890944 L129.571271,37.5743595 L118.161445,48.695433 L120.859213,64.3870366 L106.75987,56.9784877 L92.6605268,64.3870366 L95.3582947,48.695433 L83.9484693,37.5743595 L99.7143235,35.2890944 L106.75987,21 Z"/>
</svg>
