<svg fill="#fff" xmlns="http://www.w3.org/2000/svg" width="200" height="200" viewBox="0 0 200 200">
  <path d="M186.996353,97.1392986 C181.654222,88.0514288 171.820237,82.4092542 161.337284,82.4092542 L150.011105,82.4092542 L150.011105,76.5491114 C150.011105,73.3100564 147.383121,70.6889686 144.135545,70.6889686 L26.6266819,70.6889686 C23.379105,70.688578 20.7511213,73.3096657 20.7511213,76.5487208 L20.7511213,113.717776 C20.7511213,123.074395 22.2656389,132.689608 25.260992,141.525915 C28.4396382,150.941128 34.3324315,158.854782 41.8180727,164.840315 L128.944154,164.840315 C133.141878,161.484073 136.760349,157.462988 139.758444,152.969639 C161.277753,152.196985 177.768253,142.424742 187.444011,125.140797 C192.338484,116.402145 192.172032,105.934982 186.996353,97.1392986 Z M177.184692,119.428701 C170.485879,131.386095 159.882689,138.739984 145.698235,140.734902 C148.521653,132.136093 150.010714,122.800177 150.010714,113.717386 L150.010714,94.1287586 L161.336893,94.1287586 C167.763116,94.1287586 173.569746,97.4709384 176.863146,103.07366 C179.950537,108.321304 180.065291,114.278712 177.184692,119.428701 Z M59.5552005,34.9613163 C57.2201723,36.5120939 55.883073,39.0070101 55.8826813,41.8058318 C55.8826813,44.6046535 57.219389,47.0995696 59.5548088,48.6503473 C62.2572064,50.4472182 62.9864621,54.0811943 61.184472,56.7765006 C59.4138141,59.4292289 55.7859433,60.2194614 53.0369392,58.4014968 C47.4598172,54.6933022 44.1319517,48.4898008 44.1319517,41.8058318 C44.1319517,35.1218628 47.4598172,28.9183614 53.0369392,25.2105574 C55.372359,23.6597797 56.7090667,20.3836153 56.7090667,17.5847936 C56.7090667,14.7859719 55.372359,12.2910558 53.0369392,10.7402781 C50.3404164,8.94926658 49.6056776,5.30943118 51.4076676,2.61412487 C53.1979081,-0.0807908233 56.8410533,-0.813601642 59.5552005,0.989128596 C65.1323224,4.69732321 68.4601879,10.900434 68.4601879,17.5847936 C68.4601879,24.2691533 65.1323224,31.2539029 59.5552005,34.9613163 Z M88.9326119,34.9613163 C86.5971921,36.5120939 85.2604845,39.0070101 85.2604845,41.8058318 C85.2604845,44.6046535 86.5971921,47.0995696 88.9326119,48.6503473 C91.6346179,50.4472182 92.3638736,54.0811943 90.5618835,56.7765006 C88.7912256,59.4292289 85.1633548,60.2194614 82.4143507,58.4014968 C76.8372287,54.6933022 73.5093632,48.4898008 73.5093632,41.8058318 C73.5093632,35.1218628 76.8372287,28.9183614 82.4143507,25.2105574 C84.7497705,23.6597797 86.0864782,20.3836153 86.0864782,17.5847936 C86.0864782,14.7859719 84.7497705,12.2910558 82.4143507,10.7402781 C79.7178279,8.94926658 78.9830891,5.30943118 80.7850791,2.61412487 C82.5753196,-0.0807908233 86.2129817,-0.813601642 88.9326119,0.989128596 C94.5097339,4.69732321 97.8375994,10.900434 97.8375994,17.5847936 C97.8375994,24.2691533 94.5097339,31.2539029 88.9326119,34.9613163 Z M118.309632,34.9613163 C115.974604,36.5120939 114.637504,39.0070101 114.637504,41.8058318 C114.637504,44.6046535 115.974212,47.0995696 118.309632,48.6503473 C121.011638,50.4472182 121.740893,54.0811943 119.938903,56.7765006 C118.168637,59.4292289 114.540766,60.2194614 111.791371,58.4014968 C106.214249,54.6933022 102.886383,48.4898008 102.886383,41.8058318 C102.886383,35.1218628 106.214249,28.9183614 111.791371,25.2101668 C114.12679,23.6593891 115.463498,20.3832247 115.463498,17.584403 C115.463498,14.7855813 114.12679,12.2906652 111.791371,10.7398875 C109.094848,8.94887595 108.360109,5.30904056 110.162099,2.61373424 C111.957823,-0.0811814474 115.590002,-0.813992266 118.309632,0.988737972 C123.886754,4.69693259 127.214619,10.900434 127.214619,17.584403 C127.214619,24.268372 123.886754,31.2531216 118.309632,34.9613163 Z M155.886274,176.559819 C159.13111,176.559819 161.761835,179.183642 161.761443,182.419962 C161.761443,192.129315 153.870051,200 144.135153,200 L26.6262902,200 C16.8913926,200 9,192.129315 9,182.419962 C9,179.183642 11.6307253,176.559819 14.8755606,176.559819 L155.886274,176.559819 Z"/>
</svg>
