<svg fill="#fff" xmlns="http://www.w3.org/2000/svg" width="200" height="200" viewBox="0 0 200 200">
  <path d="M192.89699,161.021299 C197.291639,161.021299 200.838796,164.569882 200.838796,168.961772 L200.838796,176.901575 C200.838796,181.296142 197.282943,184.845394 192.89699,184.845394 L8.94180602,184.845394 C4.55852843,184.845394 1,181.296142 1,176.901575 L1,168.961772 C1,164.569882 4.55585284,161.021299 8.94180602,161.021299 L19.5638796,161.021299 C19.5638796,117.384173 53.8615385,81.7872441 96.9471572,79.7177953 L96.9471572,73.2176378 C92.890301,71.630748 90.0040134,67.7013386 90.0040134,63.0691732 C90.0040134,57.0435433 94.8916388,52.1516929 100.92107,52.1516929 C106.947826,52.1516929 111.8301,57.0462205 111.8301,63.0691732 C111.8301,67.7013386 108.951839,71.6247244 104.890301,73.2176378 L104.890301,79.7177953 C147.980602,81.7838976 182.282943,117.393543 182.282943,161.021299 L192.89699,161.021299 Z M31.2441472,22.7242913 C30.2729097,23.5408268 25.8294314,27.9514567 31.8528428,35.5305118 C42.6976589,49.2074803 28.3846154,66.0247638 27.7725753,66.7482677 C26.987291,67.6538189 25.8809365,68.1116142 24.7712375,68.1116142 C23.8474916,68.1116142 22.9250836,67.7883465 22.1725753,67.141811 C20.5157191,65.6988189 20.3344482,63.1976772 21.7692308,61.5378346 C21.8722408,61.4253937 32.3866221,48.9819291 25.6307692,40.4752362 C16.619398,29.1187008 22.1010033,19.8523622 26.2675585,16.5366929 C27.9765886,15.17 30.483612,15.4417323 31.8461538,17.1691732 C33.1979933,18.8711811 32.9324415,21.3502362 31.2441472,22.7242913 Z M65.973913,22.7242913 C65.0013378,23.5408268 60.5525084,27.9514567 66.5705686,35.5305118 C77.4234114,49.2074803 63.1090301,66.0247638 62.4983278,66.7482677 C61.7090301,67.6538189 60.6020067,68.1116142 59.4936455,68.1116142 C58.5698997,68.1116142 57.6428094,67.7883465 56.8983278,67.141811 C55.2421405,65.6988189 55.0595318,63.1976772 56.4956522,61.5378346 C56.5966555,61.4253937 67.1170569,48.9819291 60.3571906,40.4752362 C51.341806,29.1220472 56.8347826,19.8523622 60.9959866,16.5366929 C62.7130435,15.17 65.2133779,15.4450787 66.5745819,17.1691732 C67.9264214,18.8711811 67.6548495,21.3502362 65.973913,22.7242913 Z M133.832107,67.1438189 C132.171906,65.708189 131.990635,63.2030315 133.433445,61.5338189 C133.535786,61.421378 144.046823,48.9785827 137.297659,40.4712205 C128.274916,29.114685 133.759866,19.8456693 137.925084,16.53 C139.644816,15.1633071 142.136455,15.4383858 143.500334,17.1624803 C144.870903,18.8678346 144.589967,21.3462205 142.898328,22.7209449 C141.92107,23.5441732 137.488294,27.9454331 143.500334,35.5325197 C154.354515,49.2094882 140.038127,66.0267717 139.426087,66.7502756 C138.639465,67.6558268 137.531104,68.113622 136.423411,68.113622 C135.498997,68.113622 134.571906,67.7903543 133.832107,67.1438189 Z M177.624749,22.7242913 C176.660201,23.5408268 172.205351,27.9514567 178.236789,35.5305118 C189.082274,49.2074803 174.771237,66.0247638 174.162542,66.7482677 C173.372575,67.6538189 172.261538,68.1116142 171.156522,68.1116142 C170.232107,68.1116142 169.311706,67.7883465 168.555853,67.141811 C166.897659,65.6988189 166.717057,63.1976772 168.159197,61.5378346 C168.252843,61.4253937 178.767224,48.9819291 172.01806,40.4752362 C163.002007,29.1220472 168.484281,19.8523622 172.651505,16.5366929 C174.359197,15.17 176.856856,15.4450787 178.22408,17.1691732 C179.585953,18.8711811 179.311037,21.3502362 177.624749,22.7242913 Z"/>
</svg>
