<svg fill="#fff" xmlns="http://www.w3.org/2000/svg" width="200" height="200" viewBox="0 0 200 200">
  <path d="M164.606642,13.4382514 L151.751941,13.4382514 L151.751941,8.85191257 C151.751941,3.96338798 147.790893,0 142.904708,0 L56.5491661,0 C51.6629815,0 47.7019336,3.96338798 47.7019336,8.85191257 L47.7019336,13.4382514 L34.8472325,13.4382514 C29.961048,13.4382514 26,17.4016393 26,22.2907104 L26,33.4060109 C26,38.2945355 29.961048,42.2579235 34.8472325,42.2579235 L41.9834539,42.3054645 L54.9479262,191.59071 C55.3455055,196.16612 59.1722066,199.676503 63.761845,199.676503 L135.690937,199.676503 C140.280576,199.676503 144.107823,196.16612 144.505948,191.59071 L157.47479,42.2579235 L164.607188,42.2579235 C169.493373,42.2579235 173.454421,38.2945355 173.454421,33.4060109 L173.454421,22.2907104 C173.453875,17.4016393 169.492827,13.4382514 164.606642,13.4382514 Z M79.0347897,136.121311 C70.7861107,127.86776 73.3632768,111.908197 84.7914982,100.47377 C95.3300812,89.9295082 109.71721,86.9163934 118.360192,92.9852459 C115.851292,97.6262295 112.38831,101.915301 107.644664,105.570492 C104.590731,107.913661 101.439587,109.669945 98.6630849,111.219126 C96.7740369,112.272678 94.989845,113.26612 93.4918229,114.299454 C86.2070554,119.310383 81.1308192,127.493989 79.3286052,136.403825 C79.2292103,136.310383 79.1325461,136.215847 79.0347897,136.121311 Z M114.662376,130.361202 C104.419793,140.610929 90.5460221,143.74153 81.8402362,138.34153 C92.0320295,123.715847 102.022303,119.201639 102.022303,119.201639 C112.466406,113.995082 117.956059,104.908197 120.260162,94.5601093 C120.312044,94.6136612 120.365018,94.6628415 120.419085,94.7142077 C128.667218,102.96612 126.090598,118.927322 114.662376,130.361202 Z"/>
</svg>
