<svg fill="#fff" xmlns="http://www.w3.org/2000/svg" width="200" height="200" viewBox="0 0 200 200">
  <path d="M171.793103,48.1448276 C187.124138,49.5931034 199.186207,62.3517241 199.2,78.062069 C199.2,94.737931 185.662069,108.268966 168.97931,108.268966 C167.006897,108.268966 165.089655,108.055172 163.227586,107.689655 C157.124138,120.558621 144.110345,129.544828 128.917241,129.544828 C118.6,129.544828 109.275862,125.413793 102.42069,118.737931 C96.4068966,122.710345 89.2206897,125.068966 81.4758621,125.068966 C68.8137931,125.068966 57.6758621,118.82069 50.7448276,109.303448 C46.7655172,110.724138 42.5241379,111.634483 38.062069,111.634483 C17.0413793,111.634483 0,94.5931034 0,73.5862069 C0,53.4758621 15.662069,37.1793103 35.4275862,35.8 C39.2068966,18.7655172 54.3517241,6 72.5310345,6 C84.7034483,6 95.4206897,11.8413793 102.393103,20.737931 C109.793103,14.5724138 119.193103,10.7172414 129.6,10.7172414 C151.358621,10.7172414 169.137931,27.0689655 171.793103,48.1448276 Z M39.0068966,129.572414 C39.0068966,129.572414 50.7034483,148.606897 50.7034483,155.055172 C50.7034483,161.503448 45.462069,166.744828 39.0068966,166.744828 C32.5517241,166.744828 27.3103448,161.503448 27.3103448,155.055172 C27.3103448,148.606897 39.0068966,129.572414 39.0068966,129.572414 Z M57.6,182.641379 C57.6,176.172414 69.2965517,157.158621 69.2965517,157.158621 C69.2965517,157.158621 80.9931034,176.193103 80.9931034,182.641379 C80.9931034,189.089655 75.7517241,194.331034 69.2965517,194.331034 C62.8413793,194.331034 57.6,189.110345 57.6,182.641379 Z M99.5931034,129.572414 C99.5931034,129.572414 111.289655,148.606897 111.289655,155.055172 C111.289655,161.503448 106.048276,166.744828 99.5931034,166.744828 C93.137931,166.744828 87.8965517,161.503448 87.8965517,155.055172 C87.8965517,148.606897 99.5931034,129.572414 99.5931034,129.572414 Z M118.186207,182.641379 C118.186207,176.172414 129.882759,157.158621 129.882759,157.158621 C129.882759,157.158621 141.57931,176.193103 141.57931,182.641379 C141.57931,189.089655 136.337931,194.331034 129.882759,194.331034 C123.427586,194.331034 118.186207,189.110345 118.186207,182.641379 Z M148.475862,155.055172 C148.475862,148.586207 160.17931,129.572414 160.17931,129.572414 C160.17931,129.572414 171.868966,148.606897 171.868966,155.055172 C171.868966,161.503448 166.634483,166.744828 160.17931,166.744828 C153.724138,166.744828 148.475862,161.524138 148.475862,155.055172 Z"/>
</svg>
