<svg xmlns="http://www.w3.org/2000/svg" width="200" height="200" viewBox="0 0 200 200">
  <path fill="#FFF" fill-rule="evenodd" d="M94.3504141,194.310224 L80.3625789,195.331466 C78.6667293,195.459851 81.730954,200 86.8594371,200 C91.9762246,200 102.133779,199.924136 102.133779,199.924136 C102.133779,199.924136 103.753608,183.129085 103.753608,176.984127 C103.753608,170.85084 103.630805,160.177404 102.975856,156.086601 C102.315059,151.989963 100.408691,145.506536 100.127998,141.929272 C99.8531536,138.346172 102.753641,136.718021 102.753641,136.718021 L99.8531536,127.322596 C99.8531536,127.322596 99.3502465,122.72409 101.847239,121.189309 C104.344231,119.660364 105.344198,116.590803 105.847105,113.001867 C106.344164,109.430439 107.847038,108.9169 109.846971,105.847339 C111.841056,102.783613 112.841022,100.735294 112.841022,100.735294 L118.840821,101.756536 L119.840788,97.6715686 C119.840788,97.6715686 120.343695,93.57493 118.343762,89.9976657 C116.343829,86.4145658 114.840955,87.9493464 116.840888,84.8856209 C118.840821,81.8160598 121.337813,77.2058824 121.337813,77.2058824 C121.337813,77.2058824 130.828723,68.0088702 134.840285,68.0088702 C138.834303,68.0088702 139.840117,68.0088702 139.840117,63.9122316 C139.840117,59.8272642 139.840117,56.7577031 139.840117,56.7577031 C139.840117,56.7577031 139.840117,52.1533613 142.331262,50.1167134 C144.834102,48.068394 153.330893,32.7264239 155.827885,29.6626984 C158.330725,26.5814659 163.32471,26.0737628 166.32461,27.6085434 C169.318661,29.1491597 173.318527,32.2128852 175.31846,34.7747432 C177.318393,37.32493 180.815352,41.415733 183.312344,41.415733 C185.821032,41.415733 194.317823,27.0950047 195.306094,23.5177404 C196.317756,19.9404762 199.808867,13.2936508 196.808968,12.272409 C193.814916,11.2453315 188.815084,15.3419701 185.323973,17.3844538 C181.815318,19.4327731 180.312445,19.9404762 175.821367,16.363212 C171.318594,12.7859477 162.324744,6.64098973 159.330692,6.64098973 C156.330793,6.64098973 150.330994,5.11204482 145.337009,9.20284781 C140.337177,13.2936508 130.331664,31.6993464 126.834705,34.2612045 C123.337746,36.8113912 122.834839,39.8809524 117.840855,39.8809524 C112.841022,39.8809524 109.846971,43.9717554 103.344265,40.3944911 C96.8532541,36.8113912 90.859303,31.6993464 85.8594706,31.6993464 C80.8537905,31.6993464 70.8599734,30.1645658 67.860074,27.6085434 C64.8601746,25.0583567 62.3573345,24.0312792 59.3632828,24.5448179 C56.3633834,25.0583567 53.3634839,26.0737628 53.3634839,26.0737628 C53.3634839,26.0737628 38.3756822,19.4327731 35.8728422,16.870915 C33.3758498,14.3207283 25.3702703,10.7434641 23.8732444,8.18744164 C22.3820663,5.62558357 23.8732444,3.57726424 20.8850405,3.57726424 C17.8792933,3.57726424 10.3824686,0 10.3824686,0 L7.38256914,18.4056956 L3.8914581,21.9829599 C3.8914581,21.9829599 1.88567738,31.1916433 3.8914581,34.2612045 C5.8855433,37.32493 9.88540922,42.4369748 13.3765203,43.9717554 C16.8793268,45.5065359 27.3351167,60.6617647 32.8261607,64.746732 C38.3289002,68.8433707 45.8257249,76.9782913 47.7554848,79.5109711 C49.6852446,82.0378151 48.8724064,82.3295985 48.8724064,82.3295985 L45.3695998,85.3991597 L56.3633834,98.6869748 L60.3632493,102.783613 C60.3632493,102.783613 56.3633834,109.430439 56.8662905,112.494164 C57.3633498,115.55789 58.3633163,120.67577 63.357301,122.210551 C68.3571334,123.745331 74.36278,124.25887 74.36278,124.25887 L79.853824,128.857376 C79.853824,128.857376 83.3566305,135.002334 85.3565635,138.06606 C87.3506487,141.129785 88.3564629,144.712885 88.3564629,144.712885 L90.859303,146.24183 C90.859303,146.24183 91.1282998,150.210084 92.5142183,153.909897 C93.8825935,157.621382 94.2276112,161.420401 94.7305183,165.51704 C95.2275776,169.602007 96.350347,191.754202 96.350347,191.754202 L94.3504141,194.310224 Z M20.3762856,42.9505135 C20.3762856,42.9505135 47.3695328,64.4257703 51.8664581,69.030112 C56.3633834,73.6344538 56.8662905,76.1846405 56.8662905,76.1846405 L61.3632158,74.6556956 L69.3687953,82.3295985 C69.3687953,82.3295985 71.3570328,81.8160598 73.8540251,80.7948179 C76.3568652,79.7677404 81.3566976,81.2966853 81.3566976,78.2329599 C81.3566976,75.1692344 80.3625789,70.5648926 83.3566305,70.5648926 C86.35653,70.5648926 87.3506487,68.522409 87.3506487,68.522409 L88.3564629,63.4103641 C88.3564629,63.4103641 79.853824,55.2229225 76.3568652,55.2229225 C72.8540586,55.2229225 65.3572339,55.2229225 65.3572339,55.2229225 C65.3572339,55.2229225 62.3573345,55.2229225 58.3633163,51.1321195 C54.3634504,47.0354809 49.3694658,45.0046685 49.3694658,45.0046685 C49.3694658,45.0046685 43.872574,45.0046685 43.872574,42.4369748 C43.872574,39.8809524 43.872574,35.2824463 43.872574,35.2824463 L41.872641,32.2128852 C41.872641,32.2128852 31.3817646,21.4694211 28.3701697,20.961718 C25.3702703,20.4540149 22.8791257,20.961718 22.8791257,20.961718 L16.3764197,26.0737628 L13.8794274,31.6993464 L15.3764532,37.8384687 L20.3762856,42.9505135 Z"/>
</svg>
