<svg xmlns="http://www.w3.org/2000/svg" width="200" height="200" viewBox="0 0 200 200">
  <path fill="#fff" fill-rule="evenodd" d="M110.386845,138.316015 C111.630129,136.030188 122.818503,123.463464 124.683429,121.2817 C126.548354,119.101118 133.076184,111.102499 133.697825,110.583369 C134.319467,110.064239 136.494624,107.779595 136.494624,107.779595 L138.15784,111.427694 C126.839712,117.857099 118.818527,129.460063 117.321632,143.014198 C117.093972,142.856922 116.856875,142.707924 116.603264,142.574298 C112.458198,140.392534 109.143562,140.600659 110.386845,138.316015 Z M104.716575,133.026567 C103.400157,133.817678 101.696835,133.290271 100.772039,132.234273 C100.772039,132.234273 100.242405,129.33235 101.557643,124.845839 C102.874061,120.359328 107.349411,110.892009 109.191925,106.653829 C111.034438,102.415649 109.981068,98.0615807 111.560533,97.5329907 C113.139999,97.0055833 134.462197,97.5329907 134.462197,97.5329907 C134.462197,97.5329907 118.404492,118.117255 116.825026,119.83192 C115.24556,121.547768 106.032993,132.234273 104.716575,133.026567 Z M97.9658038,95.1785776 C97.845486,95.3039256 97.6390585,95.2755449 97.5553078,95.1241813 C96.8015523,93.757179 93.679188,88.1602742 92.1292119,86.309618 C91.9770453,86.1275087 92.131571,85.8543447 92.3663087,85.8910031 C94.6511669,86.2516741 101.114119,87.3620678 101.434966,88.448811 C101.810075,89.7212111 100.100855,92.9471474 97.9658038,95.1785776 Z M91.5063904,123.766191 C90.6688843,123.93411 90.3327023,125.361421 89.9976998,127.965348 C89.6626974,130.569274 87.4002513,133.594181 87.4002513,133.594181 C85.3053064,134.181897 83.7977954,128.806125 84.6353015,127.797429 C85.4728076,126.789915 93.2651533,114.349721 93.2651533,114.349721 C93.4338341,115.264997 92.3438965,123.598272 91.5063904,123.766191 Z M71.3460847,110.157659 C71.3460847,110.157659 75.1608661,115.698985 74.8494553,117.337969 C74.6312319,118.488569 74.0673898,121.096043 73.3737931,122.901763 C71.4262965,120.550897 69.219291,118.42353 66.8070374,116.550405 L71.3460847,110.157659 Z M70.8789686,90.9557703 C71.50179,90.3313955 72.4360222,90.6447654 73.1366963,91.6593744 C73.8373705,92.6739834 76.5633939,97.0446067 77.7311841,97.4348409 C78.8989743,97.8250752 78.5875636,98.6835904 77.7311841,98.6835904 C76.8748046,98.6835904 72.7474329,99.1660618 72.0467588,98.3394748 C72.0467588,98.3394748 70.2561471,91.5813276 70.8789686,90.9557703 Z M48.2450708,132.833815 L51.741364,119.751508 C52.8572524,120.14056 53.9495491,120.585191 55.0052786,121.09486 L48.2450708,132.833815 Z M46.9121385,137.819353 L47.041893,137.332151 L56.0775224,121.643553 C56.5410997,121.889519 56.9987791,122.146128 57.4482014,122.414561 L46.9121385,137.819353 Z M57.0058566,130.490045 C58.4024866,128.395788 59.7295209,126.413871 60.840691,124.758332 C61.1910281,125.035043 61.5354672,125.31885 61.8740084,125.610934 L57.0058566,130.490045 Z M51.6257645,140.84899 L49.3055187,142.191159 C50.5523412,140.251813 52.057493,137.954161 53.6216242,135.587923 L62.7740326,126.413871 C63.3355156,126.937731 63.8781252,127.480511 64.3995022,128.043394 L51.6257645,140.84899 Z M55.3391015,150.663972 C53.6452159,150.240627 52.0763664,149.826742 50.7304587,149.43769 L54.7398718,148.360407 L72.0019345,148.360407 C72.2673414,148.678507 72.5351074,148.99306 72.8052326,149.30643 C72.8052326,149.346635 72.8075918,149.386841 72.8075918,149.427047 C72.8075918,149.842115 72.7922572,150.253634 72.7769226,150.663972 L55.3391015,150.663972 Z M60.3712157,151.87015 L72.7037882,151.87015 C72.6365518,152.748768 72.536287,153.619109 72.3970959,154.477624 C69.0399939,153.791758 64.6259827,152.851648 60.3712157,151.87015 Z M58.0061456,156.454811 L70.9957476,159.945633 C70.6005863,161.056027 70.1476252,162.13804 69.6356848,163.186943 L58.0061456,156.454811 Z M49.9967561,159.835658 L47.7779547,155.9818 L51.6257645,158.209682 L64.2992374,170.915945 C63.7755012,171.475281 63.2340712,172.018061 62.6714086,172.538374 L49.9967561,159.835658 Z M52.3205407,163.868079 L61.7654865,173.33658 C60.8819765,174.092215 59.9607198,174.804097 58.9958184,175.459218 L52.3205407,163.868079 Z M47.041893,161.724156 L45.8929762,157.424484 L49.0342139,160.574738 L57.9825539,176.111973 C57.3337816,176.51758 56.6673154,176.898354 55.9866943,177.25666 L47.041893,161.724156 Z M48.2438912,166.222492 L54.9132709,177.800623 C53.8705168,178.29965 52.7935547,178.736003 51.6918213,179.119142 L48.2438912,166.222492 Z M43.7013052,162.781336 L43.7013052,158.332665 L45.9212862,162.190072 L50.5476228,179.495186 C49.8174591,179.717501 49.0754994,179.90907 48.3241031,180.078172 L43.7013052,162.781336 Z M43.7013052,167.438131 L47.1433374,180.318225 C46.0156531,180.52635 44.8679158,180.672983 43.7013052,180.75576 L43.7013052,167.438131 Z M40.1991141,162.936247 L41.3492106,158.636575 L42.499307,162.939794 L42.4969478,180.818434 C42.1548679,180.829077 41.8139675,180.84445 41.4695283,180.84445 C41.0436978,180.84445 40.6202264,180.829077 40.1991141,180.811339 L40.1991141,162.936247 Z M38.9971159,167.434583 L38.9971159,180.73684 C37.834044,180.645785 36.6886659,180.493239 35.5645204,180.276837 L38.9971159,167.434583 Z M36.7771349,162.177064 L38.9971159,158.322023 L38.9971159,162.776605 L34.3872935,180.024958 C33.6382563,179.851126 32.8939375,179.658374 32.1661329,179.431329 L36.7771349,162.177064 Z M27.8323336,177.709568 L34.4533503,166.209484 L31.0242936,179.04346 C29.9319969,178.655591 28.865651,178.212143 27.8323336,177.709568 Z M27.0620639,160.512064 L17.7126646,169.883598 C16.9624479,169.00971 16.2558758,168.096799 15.6035647,167.142499 L27.0620639,160.512064 Z M27.0597047,138.545425 L15.5021203,131.854682 C16.1544314,130.888557 16.8657218,129.965002 17.6194773,129.078106 L27.0597047,138.545425 Z M34.4545299,132.844458 L27.7426851,121.190645 C28.7889779,120.677428 29.8682992,120.222155 30.9759305,119.82719 L34.4545299,132.844458 Z M38.9971159,136.279702 L38.9971159,140.733102 L36.7771349,136.879243 L32.1154107,119.439321 C32.8443949,119.209911 33.5863545,119.015976 34.3365713,118.839779 L38.9971159,136.279702 Z M38.9971159,131.621724 L35.5126186,118.585536 C36.6532784,118.364403 37.8163502,118.209492 38.9971159,118.116072 L38.9971159,131.621724 Z M42.499307,136.117695 L41.3492106,140.419732 L40.1991141,136.12006 L40.1991141,118.041573 C40.6202264,118.025018 41.0436978,118.009645 41.4695283,118.009645 C41.8151471,118.009645 42.157227,118.023835 42.499307,118.03566 L42.499307,136.117695 Z M47.1940596,118.544147 L43.7013052,131.615811 L43.7013052,118.098334 C44.8856096,118.182294 46.0498611,118.331292 47.1940596,118.544147 Z M45.9212862,136.866235 L43.7013052,140.724824 L43.7013052,136.273789 L48.3760049,118.787748 C49.1262216,118.958032 49.8681813,119.149602 50.598345,119.373099 L45.9212862,136.866235 Z M55.6481531,160.535715 L67.2541005,167.253656 C66.5899936,168.216234 65.8716256,169.138606 65.1072539,170.019589 L55.6481531,160.535715 Z M33.6689256,160.555818 L36.8066246,157.409111 L35.6588873,161.71233 L26.7600899,177.15851 C26.0830075,176.795474 25.4224393,176.406423 24.7748465,175.996085 L33.6689256,160.555818 Z M30.3837783,163.849158 L23.7686596,175.335052 C22.8179132,174.681114 21.9084523,173.971598 21.0367382,173.21951 L30.3837783,163.849158 Z M31.0844525,158.181302 L34.9299031,155.956967 L32.7063833,159.816738 L20.1390732,172.415391 C19.5775902,171.892713 19.0349806,171.348751 18.5136036,170.785867 L31.0844525,158.181302 Z M29.1971147,155.220252 L33.4872693,154.06847 L30.344852,157.217541 L14.9453557,166.13262 C14.5372189,165.483412 14.1503147,164.820014 13.7893613,164.14006 L29.1971147,155.220252 Z M24.7123284,156.42643 L13.2396742,163.066325 C12.7395297,162.029248 12.2995441,160.95906 11.9138194,159.864039 L24.7123284,156.42643 Z M28.1449239,151.87015 L32.5837064,151.87015 L28.7370762,154.09685 L11.5292744,158.719352 C11.3027938,157.98855 11.1105213,157.243557 10.9383017,156.491469 L28.1449239,151.87015 Z M23.4985344,151.87015 L10.6882295,155.311306 C10.4747244,154.184357 10.3225578,153.036123 10.2329093,151.87015 L23.4985344,151.87015 Z M23.3829349,147.155411 L10.2199338,147.155411 C10.3036844,145.996534 10.4487735,144.855394 10.6540215,143.734358 L23.3829349,147.155411 Z M28.7370762,144.959457 L32.530625,147.155411 L28.0281449,147.155411 L10.8934775,142.553012 C11.0621583,141.799742 11.2544308,141.054749 11.476193,140.322765 L28.7370762,144.959457 Z M24.7111489,142.628694 L11.8513014,139.17453 C12.2334873,138.071231 12.6687545,136.992766 13.1653603,135.947411 L24.7111489,142.628694 Z M33.4884489,144.987837 L29.1971147,143.836055 L13.7091495,134.870128 C14.066564,134.18781 14.4463908,133.520864 14.8509888,132.869291 L30.344852,141.8364 L33.4884489,144.987837 Z M32.7063833,139.239569 L34.9287235,143.098158 L31.0844525,140.873823 L18.4145183,128.17229 C18.9347158,127.607042 19.4761458,127.063079 20.0352696,126.536854 L32.7063833,139.239569 Z M30.3837783,135.207149 L20.9282163,125.728005 C21.8070079,124.961727 22.7259055,124.24275 23.6860886,123.576986 L30.3837783,135.207149 Z M35.6588873,137.345159 L36.8066246,141.648378 L33.6665664,138.499307 L24.6899163,122.912406 C25.3363295,122.499703 25.9945385,122.105922 26.6704413,121.74052 L35.6588873,137.345159 Z M38.9971159,155.213157 L38.9971159,155.912031 L37.9803127,157.677545 L38.5075877,155.705088 L38.9971159,155.213157 Z M38.9971159,143.84315 L38.5075877,143.352401 L37.9803127,141.378762 L38.9971159,143.143094 L38.9971159,143.84315 Z M35.8098743,153.445277 L36.4786996,153.265533 L36.1283626,153.870987 L34.3695997,154.889144 L35.8098743,153.445277 Z M36.1283626,145.18532 L36.4786996,145.791956 L35.8075151,145.612212 L34.3648814,144.164798 L36.1283626,145.18532 Z M35.6801198,151.87015 L35.1870529,152.364447 L33.2218624,152.891854 L34.9865232,151.87015 L35.6801198,151.87015 Z M35.2306975,150.337594 L34.6656758,150.663972 L32.633249,150.663972 L34.5406397,150.151937 L35.2306975,150.337594 Z M34.5406397,148.90437 L32.5152904,148.360407 L34.6125944,148.360407 L35.2306975,148.718713 L34.5406397,148.90437 Z M34.9322623,147.155411 L33.2218624,146.165635 L35.1870529,146.693043 L35.648271,147.155411 L34.9322623,147.155411 Z M37.0106929,144.303154 L35.9891714,142.531727 L37.4306256,143.975593 L37.6111023,144.651999 L37.0106929,144.303154 Z M37.6099227,154.40549 L37.4306256,155.079531 L35.9915306,156.522215 L37.0106929,154.754336 L37.6099227,154.40549 Z M40.7252095,156.30936 L40.1991141,158.278269 L40.1991141,156.236043 L40.5447329,155.635319 L40.7252095,156.30936 Z M40.5447329,143.420988 L40.1991141,142.821446 L40.1991141,140.778038 L40.7252095,142.745764 L40.5447329,143.420988 Z M41.9708524,142.745764 L42.499307,140.768578 L42.499307,142.813169 L42.1501495,143.418623 L41.9708524,142.745764 Z M42.499307,156.243138 L42.499307,158.286547 L41.9708524,156.30936 L42.1501495,155.637684 L42.499307,156.243138 Z M62.6065314,132.061624 C62.2963002,132.994639 62.2385005,133.846059 62.3411245,134.647813 L55.6469735,138.521775 L62.9792806,131.169998 C62.8365507,131.458535 62.7079758,131.754167 62.6065314,132.061624 Z M59.2281968,147.155411 L68.9361903,144.547937 C69.6191706,145.418278 70.3092285,146.290983 71.0099026,147.155411 L59.2281968,147.155411 Z M44.1931926,155.722826 L44.7181084,157.685823 L43.7013052,155.920308 L43.7013052,155.229712 L44.1931926,155.722826 Z M47.8098035,148.50231 L48.0551574,148.360407 L50.0934822,148.360407 L48.5682774,148.770744 C48.2946134,148.678507 48.042182,148.588635 47.8098035,148.50231 Z M47.1740066,153.743274 L48.3429764,154.916342 L46.5759565,153.892273 L46.3954798,153.57772 L47.1740066,153.743274 Z M47.0348155,147.155411 L47.5255233,146.662297 L49.4966116,146.133707 L47.7319509,147.155411 L47.0348155,147.155411 Z M45.6936261,154.776804 L46.7104293,156.539953 L45.2713343,155.097269 L45.0920372,154.427958 L45.6936261,154.776804 Z M49.2241273,144.959457 L52.3641854,141.811567 L62.5310379,135.927308 C62.7268491,136.677031 63.1515001,137.330969 63.6575426,137.937606 L53.5178206,143.806492 L49.2241273,144.959457 Z M53.9813979,144.931076 L66.574659,141.547864 C67.0913177,142.195889 67.6079764,142.853374 68.1269942,143.51559 L54.5782685,147.155411 L50.1371269,147.155411 L53.9813979,144.931076 Z M65.1756699,139.82492 C65.3667628,140.054331 65.5566762,140.288471 65.7465895,140.521429 L58.0037865,142.601496 L64.4219144,138.885993 C64.6660887,139.199363 64.9161609,139.51155 65.1756699,139.82492 Z M48.3417969,144.139965 L47.5998372,144.884957 C47.6989224,144.724134 47.7991873,144.56331 47.9065296,144.393026 L48.3417969,144.139965 Z M10.1291057,149.427047 C10.1291057,149.069924 10.1444403,148.715166 10.1562362,148.360407 L27.8700804,148.360407 L32.2168551,149.528745 L27.9845002,150.663972 L10.1597749,150.663972 C10.1444403,150.253634 10.1291057,149.842115 10.1291057,149.427047 Z M53.5178206,155.249815 L69.0859977,164.26186 C68.7215056,164.939449 68.3287035,165.5993 67.9182075,166.247325 L52.3641854,157.242375 L49.3267512,154.198548 L50.638451,154.476442 L53.5178206,155.249815 Z M81.5789939,138.87062 C81.0717719,136.934822 80.4312567,135.051055 79.6621665,133.235875 C80.0714829,132.338336 80.5374194,131.57797 80.9479154,131.57797 C81.9541023,131.57797 83.2103615,136.869783 83.3790423,137.709378 C83.5382864,138.513497 81.9375881,138.167016 81.5789939,138.87062 Z M81.9824124,101.877598 C82.6771886,102.25246 84.2283443,104.557207 84.0136596,105.200502 C84.0136596,105.200502 78.7255752,112.405645 78.1876839,111.362655 L75.3437019,105.146106 C75.3437019,105.146106 81.2876362,101.502737 81.9824124,101.877598 Z M90.370449,55.3155604 C92.0820284,55.5757165 94.5827509,55.4432734 98.2677778,56.3668277 C101.952805,57.290382 102.347966,55.8465154 104.979623,55.3155604 C107.612459,54.7834228 108.928877,55.3155604 108.928877,55.3155604 C108.928877,55.3155604 110.023533,60.1627424 111.692647,64.8112598 C113.644862,70.2473408 115.301001,73.0310116 116.298931,75.630208 C117.124641,77.7812264 116.298931,79.7205722 118.931767,80.7765697 C121.563423,81.8325671 132.48757,88.889894 131.829361,90.5726312 C131.171152,92.2553685 114.061256,93.5750697 114.061256,93.5750697 C114.061256,93.5750697 118.043539,86.7140425 117.565806,85.2630807 C117.088074,83.8109364 118.799653,82.6236783 113.798208,78.7970179 C108.89231,75.0448567 102.340889,69.5141735 97.9941139,67.9343161 C97.8891307,67.8964752 97.831331,67.7924128 97.8443064,67.6812552 C97.8702573,67.4447496 97.6001321,66.9173421 95.7670553,65.8672573 C93.0032851,64.2838524 87.8697265,61.3807462 84.4477473,59.9297844 C84.4477473,59.9297844 88.6600492,55.0554042 90.370449,55.3155604 Z M147.445901,133.396698 L137.991519,123.918737 C138.869131,123.152459 139.788028,122.432299 140.748211,121.766536 L147.445901,133.396698 Z M145.820432,128.16756 L141.752039,121.101955 C141.793325,121.07594 141.833431,121.049924 141.873537,121.023908 L145.820432,128.16756 Z M156.059239,134.469251 L156.059239,134.923342 C153.880543,129.020163 151.334997,122.124842 149.623417,117.499975 C150.208492,117.324961 150.800644,117.17005 151.398694,117.029329 L156.059239,134.469251 Z M156.059239,116.305622 L156.059239,129.811274 L152.574742,116.775086 C153.715401,116.555135 154.878473,116.399042 156.059239,116.305622 Z M176.171182,150.0597 L189.765911,150.0597 C189.673903,151.255236 189.518198,152.431851 189.295256,153.587181 L176.171182,150.0597 Z M175.068269,154.645543 L188.05787,158.135183 C187.662709,159.245577 187.209748,160.32759 186.697808,161.376492 L175.068269,154.645543 Z M169.426308,155.433107 L166.28743,152.287582 L170.579943,153.440547 L186.148121,162.45141 C185.783629,163.130181 185.390826,163.790032 184.98033,164.436875 L169.426308,155.433107 Z M182.169377,168.209139 L172.710276,158.725265 L184.316223,165.443206 C183.652116,166.406966 182.933749,167.328155 182.169377,168.209139 Z M144.123007,158.701614 L134.774788,168.073148 C134.024571,167.19926 133.317999,166.286348 132.665688,165.332048 L144.123007,158.701614 Z M146.259238,153.410984 L150.549392,152.259202 L147.406975,155.408274 L132.007479,164.322169 C131.599342,163.672962 131.212438,163.009563 130.851484,162.32961 L146.259238,153.410984 Z M128.975942,158.053589 L141.774451,154.61598 L130.301797,161.255874 C129.801653,160.21998 129.361667,159.14861 128.975942,158.053589 Z M140.559478,150.0597 L127.750352,153.500856 C127.536847,152.373907 127.384681,151.225672 127.295032,150.0597 L140.559478,150.0597 Z M171.640391,145.344961 L167.19807,145.344961 L171.043521,143.121808 L188.500215,138.43072 C188.723157,139.161522 188.91543,139.906515 189.08529,140.659785 L171.640391,145.344961 Z M189.329464,141.842313 C189.544149,142.989365 189.693956,144.157703 189.778887,145.344961 L176.28914,145.344961 L189.329464,141.842313 Z M171.043521,152.317146 L167.144989,150.0597 L171.525972,150.0597 L189.041645,154.764979 C188.867067,155.517066 188.672435,156.260876 188.444775,156.990496 L171.043521,152.317146 Z M167.058879,158.025208 L164.840078,154.171349 L168.687887,156.399232 L181.36254,169.105495 C180.837624,169.664831 180.297374,170.207611 179.733532,170.727923 L167.058879,158.025208 Z M169.382664,162.057628 L178.827609,171.52613 C177.944099,172.281765 177.022843,172.994829 176.057941,173.648767 L169.382664,162.057628 Z M160.763428,160.970885 L160.763428,156.522215 L162.983409,160.380804 L167.609746,177.684735 C166.879582,177.907051 166.137622,178.099803 165.386226,178.267722 L160.763428,160.970885 Z M160.763428,165.62768 L164.20546,178.508957 C163.077776,178.7159 161.930039,178.862533 160.763428,178.94531 L160.763428,165.62768 Z M157.261237,161.125796 L158.411333,156.827307 L159.56143,161.129344 L159.559071,179.007984 C159.216991,179.019809 158.87609,179.034 158.531651,179.034 C158.105821,179.034 157.682349,179.018627 157.261237,179.002071 L157.261237,161.125796 Z M156.059239,165.624133 L156.059239,178.927572 C154.896167,178.835335 153.749609,178.682789 152.625464,178.467569 L156.059239,165.624133 Z M153.838078,160.365431 L156.059239,156.511572 L156.059239,160.967338 L151.449416,178.21569 C150.6992,178.040676 149.95606,177.849107 149.228256,177.620879 L153.838078,160.365431 Z M151.516653,164.399034 L148.086416,177.23301 C146.99412,176.84514 145.927774,176.401692 144.894457,175.899118 L151.516653,164.399034 Z M150.732228,158.745368 L153.868747,155.598661 L152.72101,159.90188 L143.822213,175.349243 C143.14513,174.986206 142.484562,174.595972 141.836969,174.186818 L150.732228,158.745368 Z M147.445901,162.038708 L140.830782,173.525784 C139.880036,172.870664 138.969396,172.16233 138.098861,171.409059 L147.445901,162.038708 Z M148.146575,156.370851 L151.992026,154.146516 L149.768506,158.006288 L137.201196,170.606123 C136.639713,170.082263 136.097104,169.5383 135.575726,168.975417 L148.146575,156.370851 Z M145.207047,150.0597 L149.64465,150.0597 L145.799199,152.287582 L128.591397,156.908902 C128.364917,156.178099 128.172644,155.433107 128.000425,154.682202 L145.207047,150.0597 Z M140.445058,145.344961 L127.282057,145.344961 C127.365807,144.187266 127.510896,143.046127 127.716144,141.92509 L140.445058,145.344961 Z M149.768506,137.430301 L151.990846,141.28889 L148.146575,139.064555 L135.476641,126.36184 C135.996839,125.796591 136.538269,125.253811 137.097393,124.727586 L149.768506,137.430301 Z M145.799199,143.149006 L149.592748,145.344961 L145.090268,145.344961 L127.95678,140.742562 C128.124281,139.989292 128.316554,139.244299 128.538316,138.512314 L145.799199,143.149006 Z M141.773272,140.818244 L128.913424,137.365262 C129.29561,136.260781 129.730877,135.182316 130.228663,134.138143 L141.773272,140.818244 Z M147.406975,140.027133 L150.549392,143.17857 L146.259238,142.025605 L130.771272,133.059678 C131.128687,132.378542 131.509693,131.710414 131.914291,131.058841 L147.406975,140.027133 Z M144.121828,136.734975 L132.564243,130.044232 C133.217734,129.078106 133.927845,128.154552 134.6816,127.268839 L144.121828,136.734975 Z M153.540823,151.456265 L153.190485,152.060537 L151.431723,153.078694 L152.871997,151.634827 L153.540823,151.456265 Z M152.048646,150.0597 L152.742243,150.0597 L152.247996,150.553996 L150.282806,151.081404 L152.048646,150.0597 Z M149.694192,148.854704 L151.602763,148.342669 L152.29282,148.527144 L151.727799,148.854704 L149.694192,148.854704 Z M151.674717,146.549957 L152.29282,146.908263 L151.602763,147.095102 L149.577413,146.549957 L151.674717,146.549957 Z M152.869638,143.801762 L151.427004,142.354348 L153.190485,143.374869 L153.540823,143.981506 L152.869638,143.801762 Z M152.247996,144.882592 L152.710394,145.344961 L151.994385,145.344961 L150.283985,144.355185 L152.247996,144.882592 Z M154.673225,152.596222 L154.492748,153.270263 L153.052474,154.712947 L154.072816,152.943885 L154.673225,152.596222 Z M156.059239,153.403889 L156.059239,154.10158 L155.042436,155.865912 L155.569711,153.894638 L156.059239,153.403889 Z M159.56143,134.307245 L158.411333,138.609282 L157.261237,134.308427 L157.261237,116.231123 C157.682349,116.214567 158.105821,116.199194 158.531651,116.199194 C158.87727,116.199194 159.21817,116.214567 159.56143,116.22521 L159.56143,134.307245 Z M160.763428,129.806544 L160.763428,116.287884 C161.946553,116.371844 163.111984,116.520842 164.256183,116.733697 L160.763428,129.806544 Z M162.983409,135.056968 L160.763428,138.914374 L160.763428,134.464521 L165.438128,116.977298 C166.188345,117.147582 166.930304,117.339151 167.660468,117.562649 L162.983409,135.056968 Z M166.096337,136.671118 L162.953919,139.821373 L164.104016,135.521701 L173.139645,119.833103 C173.819087,120.193774 174.482014,120.579278 175.130787,120.98725 L166.096337,136.671118 Z M169.381484,133.378961 L176.139333,121.642371 C177.113671,122.308134 178.044364,123.031841 178.936131,123.800484 L169.381484,133.378961 Z M168.687887,139.039722 L164.840078,141.266422 L167.058879,137.411381 L179.836155,124.604603 C180.397638,125.12728 180.940248,125.671243 181.461625,126.232944 L168.687887,139.039722 Z M172.709096,136.711324 L182.262564,127.132848 C183.030475,128.025656 183.753561,128.958671 184.418847,129.934257 L172.709096,136.711324 Z M170.579943,141.996042 L166.28743,143.149006 L169.426308,140.0023 L185.074697,130.945318 C185.481654,131.594526 185.867379,132.259107 186.228332,132.93906 L170.579943,141.996042 Z M175.065909,140.791046 L186.77684,134.012796 C187.286421,135.071158 187.729946,136.164996 188.120389,137.28485 L175.065909,140.791046 Z M164.104016,159.913705 L162.953919,155.615216 L166.096337,158.764288 L175.045856,174.301523 C174.395904,174.70713 173.729438,175.087904 173.048817,175.44621 L164.104016,159.913705 Z M165.306014,164.412042 L171.975394,175.991355 C170.93264,176.4892 169.855678,176.926735 168.753944,177.308691 L165.306014,164.412042 Z M159.56143,154.433871 L159.56143,156.476096 L159.032975,154.49891 L159.212272,153.828416 L159.56143,154.433871 Z M157.261237,156.467819 L157.261237,154.426776 L157.606856,153.824869 L157.787332,154.49891 L157.261237,156.467819 Z M159.032975,140.935314 L159.56143,138.95931 L159.56143,141.003901 L159.212272,141.608173 L159.032975,140.935314 Z M165.306014,131.024547 L168.802307,117.941058 C169.919375,118.331292 171.011672,118.775923 172.067402,119.28441 L165.306014,131.024547 Z M167.155605,146.549957 L165.131435,147.095102 L164.479124,146.920088 L165.116101,146.549957 L167.155605,146.549957 Z M165.06184,148.854704 L164.479124,148.517683 L165.131435,148.342669 L167.037646,148.854704 L165.06184,148.854704 Z M164.739813,150.0597 L166.558735,151.11215 L164.587646,150.58356 L164.066269,150.0597 L164.739813,150.0597 Z M163.638079,152.081823 L163.291281,151.481098 L163.967184,151.662025 L165.406279,153.107074 L163.638079,152.081823 Z M161.780231,155.876555 L160.763428,154.111041 L160.763428,153.419262 L161.255316,153.912376 L161.780231,155.876555 Z M164.096938,145.344961 L164.587646,144.853029 L166.557555,144.324439 L164.794074,145.344961 L164.096938,145.344961 Z M162.333457,153.288001 L162.15416,152.617508 L162.755749,152.966354 L163.772552,154.729503 L162.333457,153.288001 Z M163.291281,143.954308 L163.638079,143.352401 L165.405099,142.330697 L163.964825,143.774564 L163.291281,143.954308 Z M162.15534,142.819081 L162.333457,142.150953 L163.771373,140.709451 L162.755749,142.470235 L162.15534,142.819081 Z M160.763428,142.01851 L160.763428,141.324366 L161.780231,139.558852 L161.255316,141.524213 L160.763428,142.01851 Z M127.191229,147.61778 C127.191229,147.259474 127.206563,146.905898 127.218359,146.549957 L144.932203,146.549957 L149.278978,147.718294 L145.046623,148.854704 L127.223077,148.854704 C127.206563,148.443184 127.191229,148.032847 127.191229,147.61778 Z M189.869715,147.61778 C189.869715,148.032847 189.85438,148.443184 189.837866,148.854704 L171.684036,148.854704 L167.45404,147.719477 L171.800815,146.549957 L189.842584,146.549957 C189.85438,146.905898 189.869715,147.259474 189.869715,147.61778 Z M158.531651,106.042462 C153.40517,106.042462 148.496912,106.986119 143.960224,108.69842 C143.9732,108.484382 144.00033,108.276257 144.05813,108.0906 C144.679772,106.116961 143.540292,103.209125 142.814846,102.274928 C142.089401,101.339548 139.914244,95.4198133 139.706637,94.6925586 L139.997995,93.3066359 C139.997995,93.3066359 150.741665,97.965796 150.863162,98.7521771 C150.98348,99.5397407 146.576546,101.717957 146.335911,102.141302 C146.094096,102.564647 147.060177,105.166209 147.90476,105.2277 C148.750523,105.288009 155.933023,101.717957 155.933023,101.717957 C155.933023,101.717957 158.769928,102.444029 159.554352,101.959193 C160.338777,101.475539 159.976644,100.386431 160.218459,99.9027768 C160.460274,99.4179403 161.166847,100.368693 161.589138,99.8850388 C162.01143,99.4013849 161.546673,98.4104265 162.149442,98.3394748 C162.75339,98.2685231 163.159167,98.3926886 163.5213,97.9587008 C163.883433,97.5247131 163.297179,95.9696888 163.77963,95.8478884 C164.26208,95.7272706 164.788176,96.2109245 165.150309,95.3039256 C165.512442,94.3957441 164.745711,93.609363 164.383578,92.8229819 C164.021445,92.0354183 163.899948,91.0078015 163.115523,90.7653833 C162.331098,90.5229651 162.873708,88.3447486 162.995205,87.6186764 C163.115523,86.8926042 163.839789,85.6828782 164.503896,85.3186595 C165.168003,84.956806 165.83211,83.9883156 166.012586,84.7746967 C166.194242,85.5610778 165.771951,86.8322953 167.160323,87.7392943 C168.548696,88.6474757 169.573757,89.3735479 169.875731,90.0393111 C170.177705,90.7050744 170.962129,92.8832908 171.686395,93.3669448 C172.410661,93.8505987 174.644797,93.7902898 174.5233,93.3669448 C174.402982,92.9435998 173.678716,92.2778365 172.95445,91.6723822 C172.230184,91.0681104 171.022288,90.3420383 170.962129,88.6474757 C170.90197,86.9529132 170.177705,84.5925874 169.513598,83.6252795 C168.849491,82.6567891 167.582615,80.4182637 168.004907,79.3894644 C168.427199,78.3606651 168.849491,77.574284 167.823251,76.6661025 C166.798191,75.7591036 164.685552,74.12485 163.659312,74.7303043 C162.633072,75.3345761 163.839789,76.3633754 161.425176,78.3606651 C159.011743,80.3567723 153.398093,80.3567723 148.206734,79.0867372 C148.206734,79.0867372 145.671804,81.3252627 145.189353,82.0513348 C144.705723,82.777407 141.868818,82.5361713 141.144552,81.8100991 C140.420287,81.0828444 138.489304,79.6921916 137.523223,78.7840101 C136.557142,77.8758286 128.166746,72.2493606 127.503819,70.7357249 C126.839712,69.2232716 126.850328,64.4198431 125.824088,62.0595173 C124.797848,59.6991915 122.85507,55.7294452 123.157044,54.156683 C123.459018,52.5827383 124.123125,49.2551046 123.640674,48.8317596 C123.157044,48.4072321 122.674593,48.5893414 122.432778,47.6823424 C122.192143,46.774161 121.768671,45.5029434 122.192143,45.0192895 C122.614435,44.5356356 124.183284,43.9904902 124.727073,44.111108 C125.269683,44.2329084 125.753313,45.0192895 125.691975,45.927471 C125.631816,46.8344699 126.235764,47.7426514 127.080348,47.6823424 C127.926111,47.620851 128.710535,47.6823424 128.650377,46.7138521 C128.590218,45.7453617 127.490843,43.6038035 129.09626,43.1319749 C129.09626,43.1319749 132.74354,47.7237309 134.402038,46.6842889 C136.059357,45.6460293 134.73822,44.0992828 136.381384,43.1201496 C137.999776,42.1552068 137.184682,41.4338648 137.066723,41.1181298 C137.036054,41.0365354 137.108009,40.9561235 137.191759,40.979774 L138.249848,41.2848662 C138.326521,41.3073343 138.406733,41.2801361 138.452737,41.2150971 C138.617879,40.9833216 139.04371,40.4121606 139.602833,39.8516424 C140.328279,39.1243877 141.053724,40.578897 142.089401,39.8516424 C143.126257,39.1243877 142.297008,35.0742294 142.089401,33.827845 C141.912463,32.7623873 142.871466,32.0765211 143.153387,31.8991419 C143.200571,31.8695787 143.253652,31.8601185 143.307913,31.8707612 C143.653532,31.9381653 145.074933,32.1486553 146.33827,31.3350761 C147.787981,30.3996964 149.135069,28.6341822 148.513427,24.9990913 C147.891785,21.3640004 145.405217,14.7158282 140.535886,12.3271218 C135.666555,9.9384153 123.751556,8.27696353 122.094237,9.31522307 C120.435739,10.3534826 122.404468,11.4969871 122.094237,12.2230593 C121.782826,12.950314 119.192455,12.1201794 118.674617,13.2625014 C118.156779,14.4048234 116.603264,16.8975923 117.63894,17.7289094 C118.674617,18.5590441 120.125508,17.9358518 120.643346,18.4549816 C121.161185,18.9752939 120.229312,20.7408081 120.643346,21.3640004 C121.057381,21.9871926 119.088652,21.4668803 118.674617,23.336457 C118.260582,25.2060337 117.63894,25.3100961 115.981622,25.4141586 C114.323124,25.5182211 114.634535,27.0992609 113.909089,27.9187528 C113.183644,28.7382447 110.697076,26.6605431 108.935954,26.1414133 C107.174832,25.6222835 95.9852788,22.5063224 84.4843145,25.6222835 C72.9845297,28.7382447 67.2859494,31.9582683 63.9701329,34.6579796 C60.655496,37.3588734 59.5160158,37.4629359 58.6867668,38.7093204 C57.8575178,39.9557048 56.7180376,39.6435174 56.3040029,40.1626472 C55.8887886,40.6829595 55.5785575,41.2020893 56.3040029,41.4090317 C57.0294484,41.6171566 52.9881864,46.2916896 51.330868,49.0954633 C49.67237,51.9004196 47.9112479,58.0282795 47.4972132,61.559308 C47.0831785,65.0903364 47.4972132,70.3880616 47.4972132,70.3880616 C47.4972132,70.3880616 45.0106458,69.9729943 43.9749692,70.3880616 C42.938113,70.8031289 42.938113,72.1535759 43.9749692,72.2576383 C45.0106458,72.3617008 45.6322876,72.4657632 46.2539295,72.984893 C46.8755714,73.5040228 45.5284841,75.5805419 47.0831785,75.8927292 C48.6366934,76.2037341 51.5372956,76.1008542 52.8843829,75.8927292 C54.2314702,75.6846043 58.4791597,78.5936231 59.6186398,79.4237577 C60.7592996,80.2550749 58.894374,81.2933344 60.1376577,82.3327765 C61.3809414,83.371036 62.8306527,83.371036 62.9344563,84.7214829 C63.0382599,86.0719298 63.4522946,90.4342755 64.3853472,90.7452803 C65.3172202,91.0574677 64.4879712,92.8229819 64.6955783,93.757179 C64.9031855,94.6925586 66.0426656,94.4844337 66.6643075,95.1076259 C67.2859494,95.7308182 66.0426656,98.2235871 67.2859494,100.301289 C68.5292331,102.377808 70.7055694,103.209125 70.7055694,104.247384 C70.7055694,104.984099 66.0462044,110.777304 63.3591073,114.139231 C56.9999587,110.161207 49.5001504,107.852912 41.4695283,107.852912 C18.6032521,107.852912 0,126.50256 0,149.427047 C0,172.350352 18.6032521,191 41.4695283,191 C58.5817837,191 73.3041976,180.553548 79.6303177,165.689172 C81.5082188,168.248162 85.2876126,171.004635 92.7732659,170.305761 C92.7732659,170.305761 100.958414,168.540247 101.683859,158.673233 L101.372448,153.064503 C101.372448,153.064503 106.345583,152.441311 106.345583,151.505931 C106.345583,150.571734 106.863422,150.571734 107.278636,150.571734 C107.692671,150.571734 107.485063,151.922181 108.728347,151.818119 C109.971631,151.714056 112.769609,151.505931 112.665806,149.533475 C112.562002,147.559836 112.458198,148.078965 113.909089,148.494033 C114.76075,148.737634 116.07245,148.621746 117.077458,148.233877 C117.408921,170.873374 135.870623,189.18955 158.531651,189.18955 C181.396748,189.18955 200,170.541084 200,147.61778 C200,124.693293 181.396748,106.042462 158.531651,106.042462 Z"/>
</svg>
