<svg xmlns="http://www.w3.org/2000/svg" width="200" height="200" viewBox="0 0 200 200">
  <path fill="#fff" fill-rule="evenodd" d="M121.121899,174.339372 C121.167021,173.534898 120.944971,173.090602 119.967713,173.335854 C120.471185,173.774226 120.796542,174.057391 121.121899,174.339372 M93.0295987,189.373189 C92.8289225,189.417026 92.6282462,189.462049 92.4287574,189.505886 C92.5819363,190.16463 92.7351152,190.822189 92.8882941,191.479748 C93.0379107,191.452498 93.1863399,191.425248 93.3347691,191.397998 C93.2326498,190.722667 93.1305306,190.04852 93.0295987,189.373189 M99.1258819,195.577941 C99.1911908,195.425103 99.2541247,195.272265 99.3182461,195.119427 C98.6414091,194.868251 97.9847584,194.508075 97.287735,194.39552 C96.5859618,194.280595 95.8545028,193.414512 95.0185497,194.27941 C96.2582302,195.452354 97.6902749,195.522256 99.1258819,195.577941 M72.1913295,162.602829 C70.6274797,162.906135 69.3414893,162.769884 68.0388748,163.696391 C69.4661698,164.050644 70.6096682,164.334994 71.9467182,164.66792 C72.0334009,163.934534 72.0963348,163.410856 72.1913295,162.602829 M92.6888053,155.364938 C92.720866,154.547432 92.9239171,153.887504 92.7268032,153.383967 C92.3622611,152.451537 92.479817,151.607965 92.8075487,150.753731 C93.7052483,148.420876 93.63044,145.980206 93.4048277,143.591667 C93.1566541,140.960245 92.6365582,138.344226 92.0772771,135.756642 C91.8801632,134.840798 91.7198596,133.716431 90.3115636,133.029252 C90.3115636,133.742496 90.277128,134.215228 90.3163133,134.682036 C90.4813666,136.606137 90.6689811,138.529053 90.8482835,140.45197 C90.8910311,140.902191 90.9040929,141.355966 90.9753389,141.801447 C91.5286829,145.24919 91.4230013,148.71115 91.3030705,152.183774 C91.2662601,153.218097 90.9848383,154.546248 92.6888053,155.364938 M84.0205413,167.115699 C85.1391036,166.978263 86.4155945,166.820686 87.6920855,166.669033 C88.3309246,166.593206 89.038635,166.645337 89.1609406,165.747265 C89.3117447,164.637115 88.8510205,163.614641 87.9224475,163.434552 C84.499077,162.771069 81.0958928,161.893139 77.5644658,162.080336 C75.463896,162.191706 75.4662709,162.226065 74.9829855,164.184525 C74.6849397,165.398936 75.0352326,165.915505 76.2677885,165.897733 C77.1643007,165.885886 77.9907544,165.845603 78.9110153,166.138246 C80.4891143,166.639413 82.1823944,166.785142 84.0205413,167.115699 M122.214337,124.167013 C118.438299,122.539109 114.645637,120.898173 110.839913,119.284488 C110.65586,119.206291 110.366127,119.375717 110.095392,119.437326 C110.063331,121.2856 111.002591,122.721567 111.744737,124.21085 C112.845488,126.420486 113.975924,128.604056 114.188475,131.130031 C114.219348,131.50798 114.535205,131.863417 114.743006,132.279279 C117.293613,129.634825 119.71954,127.123067 122.135967,124.601831 C122.206025,124.528374 122.182277,124.364873 122.214337,124.167013 M66.2054776,161.23558 C68.1647428,161.021132 69.7084062,160.907392 71.2271336,160.649108 C71.6379855,160.579205 72.1901421,160.133724 72.3041357,159.751036 C72.7399238,158.271232 73.0712177,156.755883 73.359764,155.238166 C73.8620483,152.591342 74.0223519,149.841441 74.8476181,147.302433 C75.7821282,144.426945 76.0979855,141.50288 76.4126553,138.561043 C76.6073944,136.754236 76.9588747,135.045767 78.1653071,133.381135 C76.7391995,133.132329 75.5042688,132.916697 74.082911,132.667891 C73.3668886,135.146474 72.6484914,137.612025 71.9395936,140.08113 C71.4432464,141.807371 70.7355361,143.511101 70.5182358,145.272886 C70.1109461,148.571345 69.1657491,151.706303 68.1730548,154.846 C67.5377779,156.857776 66.9309994,158.875475 66.2054776,161.23558 M86.4060951,132.992523 C85.8895615,132.441596 85.2067873,132.629977 84.4907649,132.818359 C84.1072239,132.919066 83.7153709,133.019774 83.3342048,133.007926 C81.1113294,132.935654 80.8239705,133.260286 80.4475541,135.466368 C79.7315318,139.65342 79.0641942,143.847582 78.2840504,148.021602 C77.6440238,151.448018 76.8710046,154.849554 76.1526074,158.260568 C75.8331878,159.772362 76.0991729,160.067375 77.6273997,160.168083 C79.3658023,160.284192 81.1030174,160.458356 82.830733,160.684652 C84.8446201,160.94886 86.8490077,161.294819 88.940078,161.618267 C87.5959033,152.116241 87.682586,142.626062 86.4060951,132.992523 M119.111574,71.6108535 C120.30257,70.7400319 121.461505,70.3774857 121.095775,68.7898653 C120.980594,68.2875138 121.247767,67.6216611 121.512564,67.1204943 C122.510008,65.2378609 123.448081,63.3564122 123.928991,61.2486684 C124.317282,59.5556016 124.855189,57.883861 125.480967,56.2618817 C126.105557,54.6481959 126.828704,53.0546515 127.69553,51.5606296 C128.112319,50.8438309 128.457862,50.275131 128.210876,49.42919 C128.068384,48.9446103 128.100445,48.4043455 128.073134,47.8889612 C128.017325,46.8119859 127.720466,45.8617833 126.810892,45.1674955 C125.061803,43.8334205 123.418395,42.3417682 121.573123,41.1629008 C119.362122,39.7506295 116.986068,38.5966427 114.499582,37.2317631 C114.36184,37.3395791 113.943864,37.5540264 113.677879,37.8881375 C112.499945,39.3691267 112.425136,40.6854299 113.7325,42.524226 C115.012554,44.3251089 115.335536,46.3037104 115.38897,48.3984215 C115.403219,48.9149906 115.400844,49.4374835 115.350972,49.9528678 C115.156233,52.0061112 115.761824,53.9077013 116.346041,55.8389112 C117.018129,58.0615797 117.66528,60.3091289 118.065445,62.5898522 C118.467985,64.8800539 118.542793,67.224756 118.777905,69.5433926 C118.839652,70.1440819 118.969082,70.7364775 119.111574,71.6108535 M118.429987,23.1232678 C119.769412,24.5118432 120.041334,25.0023469 118.996393,26.0603655 C117.218805,27.8612484 116.613214,30.1170911 115.885317,32.5127392 C117.068001,34.205806 118.820653,35.3633472 120.816728,36.2246905 C124.786318,37.9390835 128.285685,40.3987104 131.53569,43.1995571 C132.681563,44.1876731 133.314465,45.6082379 133.372649,47.1662385 C133.449833,49.236069 133.521079,51.3248561 131.881233,53.0250317 C132.295647,53.4764372 132.636441,53.8460921 132.971297,54.2086383 C132.936861,54.3413349 132.932112,54.4728467 132.873927,54.5723692 C132.560445,55.1126341 132.06766,55.6066921 131.939417,56.1836854 C131.420509,58.5165396 130.983533,60.87072 130.571494,63.2249004 C130.372005,64.3777024 130.309071,65.3741119 131.701931,66.1311936 C132.714811,66.6809368 133.45102,67.8289996 133.418959,69.2282381 C133.398773,70.063516 133.664758,70.9047179 133.643384,71.7399958 C133.605386,73.2328329 133.109039,74.5763863 131.714992,75.3334679 C130.565557,75.9602226 129.908906,76.9613712 129.905344,78.1402386 C129.902969,79.7705115 129.039705,80.8486716 127.985264,81.7953199 C126.460599,83.1661235 125.545088,84.7655918 125.345599,86.8164656 C125.198358,88.3329986 124.536957,89.8045094 124.927623,91.584066 C126.750333,90.1789035 127.469918,88.4917606 127.463981,86.3769081 C127.461606,85.7311968 127.74659,85.0096588 128.106382,84.4575461 C128.59798,83.7016492 129.343688,83.5523655 130.102458,84.2087399 C130.640365,84.6743629 131.207958,85.1115509 131.707868,85.6139024 C134.238288,88.1623886 136.154806,91.1764978 138.182942,94.1088564 C138.944087,95.2095275 138.913214,96.3931341 138.898965,97.7402418 C138.273187,97.8113293 137.76734,97.9535043 137.279305,97.9072974 C136.049124,97.7923727 135.286792,98.3409311 134.872378,99.4392326 C134.072048,101.561194 133.291904,103.690264 132.504636,105.81578 C132.169779,106.722145 132.713624,107.318095 133.294279,107.845327 C134.155168,108.632029 135.095615,109.331056 135.955317,110.121311 C137.338677,111.392592 138.834843,112.584493 140.01159,114.029938 C142.150157,116.655436 143.678384,119.588979 142.695189,123.143353 C142.076536,125.37787 141.210897,127.537744 139.910658,129.478432 C139.121015,130.656115 138.222127,131.759156 137.350551,132.879968 C135.403161,135.382248 133.515141,137.935473 131.464444,140.350078 C129.707042,142.419908 127.65397,144.239748 125.923879,146.328535 C123.716441,148.993131 121.27389,151.362713 118.485797,153.413587 C116.786579,154.663542 114.919934,155.511853 112.938108,156.14927 C110.844662,156.823417 110.217698,158.129057 110.737793,160.331584 C111.32676,162.822015 112.738619,164.852748 114.309593,166.728272 C115.92094,168.653558 117.698528,170.476952 120.062708,171.595395 C120.802479,171.944909 121.430631,172.574033 122.03741,173.151026 C122.705935,173.787259 122.933922,174.526569 122.372266,175.416347 C121.823672,176.287169 121.213331,176.672226 120.118517,176.398539 C117.92889,175.853535 115.608645,175.763491 113.668379,174.403351 C113.411893,174.224447 113.062788,174.171131 112.75168,174.081087 C110.756792,173.499355 109.86503,174.174686 109.822282,176.278875 C109.794971,177.559635 109.641792,178.849872 109.759348,180.116414 C109.825845,180.835583 110.259258,181.554751 110.646361,182.204017 C111.344572,183.365112 112.191212,184.440903 112.871611,185.611477 C114.05667,187.655242 115.955376,188.893349 117.810147,190.202543 C119.637607,191.493966 121.611121,192.305548 123.843496,192.707192 C125.129487,192.937042 126.36323,193.700047 127.509103,194.401444 C128.521984,195.023459 128.545732,196.282892 127.636158,197.028126 C127.042442,197.512706 126.354918,198.00084 125.631771,198.186852 C123.946803,198.618116 122.220275,198.889433 120.503246,199.188001 C119.042703,199.439176 117.57266,199.641776 116.104992,199.863332 C113.211217,200.29815 110.405312,199.601493 107.607719,199.086109 C104.171287,198.452245 100.771665,197.619337 97.3530438,196.878842 C94.7668138,196.319621 93.0485976,194.743848 92.3349502,192.252232 C91.6949235,190.0189 91.1142686,187.736992 90.8447212,185.434943 C90.4611802,182.15781 90.4077457,178.842764 90.1678842,175.547859 C90.0348916,173.739867 89.8080918,171.938985 89.6228522,170.134547 C89.5326073,169.257802 89.0410098,168.857342 88.1694337,168.981745 C85.0298597,169.429596 81.992405,168.55996 78.9098278,168.269686 C78.006191,168.184381 77.1084913,168.041021 76.2072294,167.927281 C74.5032624,167.715203 74.1743433,167.960455 74.0140398,169.731718 C73.8620483,171.403459 73.7943646,173.083493 73.6530601,174.757603 C73.5723146,175.723208 73.5200675,176.710139 73.2742688,177.639016 C73.0130334,178.618838 72.6033689,179.578519 72.1212709,180.471852 C71.9289067,180.827289 71.3648758,180.982497 70.8376554,181.311869 C70.4505521,179.579704 70.9290878,178.162693 70.9801474,176.73502 C71.0335819,175.252846 71.2829429,173.778966 71.3470643,172.296792 C71.4135606,170.756563 71.362501,169.21041 71.362501,167.410712 C69.5017928,166.076637 66.9963083,166.231845 64.7888695,165.667884 C63.7510527,168.95805 62.6847375,172.004148 61.8392849,175.109486 C60.9760208,178.282357 60.36568,181.525131 59.5617876,184.715774 C59.3338004,185.61977 58.8172668,186.453863 58.3541678,187.498849 C57.8708824,187.104314 57.3970964,186.914747 57.3377248,186.636321 C56.9114362,184.660089 56.7618196,182.679118 57.6595192,180.760941 C57.9302541,180.183948 58.2567982,179.599845 58.3636673,178.984939 C59.1901209,174.265915 59.9239548,169.530304 60.7990932,164.820758 C61.0033318,163.720087 61.6243594,162.694058 62.0803339,161.645517 C62.256074,161.243873 62.5671816,160.895544 62.7120485,160.485607 C63.335451,158.7333 63.9588536,156.977439 64.5110101,155.200252 C65.1071017,153.286814 65.7910633,151.378116 66.1449185,149.414916 C67.2658557,143.197131 69.4649824,137.30161 71.3601261,131.312489 C72.1925169,128.685807 72.9524743,126.049646 73.1507757,123.241691 C73.2552699,121.76781 74.0009781,120.245353 74.7846841,118.942083 C75.5363295,117.692128 76.7819471,117.032199 78.4467288,117.405409 C79.4002378,117.618671 80.441617,117.443322 81.6041143,117.099732 C81.074519,116.680316 80.5971707,116.145975 80.0010792,115.86281 C77.9551314,114.892466 75.9068087,113.894872 73.7813029,113.127127 C72.0785233,112.513405 70.6096682,111.666279 69.409173,110.333389 C68.6717768,109.513513 67.9723785,108.65454 67.1803604,107.891534 C66.3527194,107.092985 65.4300836,106.392773 64.5596949,105.636876 C63.9778525,105.132155 63.3544499,104.657054 62.8569153,104.078876 C62.2489494,103.371555 62.1670165,102.551679 62.7868568,101.772087 C63.8270485,100.467632 64.1785287,98.9120005 64.4480761,97.3220105 C64.4694499,97.1952378 64.5501954,97.0317366 64.4991358,96.9428773 C63.5717503,95.3066804 64.8268674,94.0898997 65.2602806,92.6977699 C65.716255,91.226259 66.2007279,89.7168349 66.3111592,88.1979324 C66.5320218,85.1707905 67.9676288,82.5014556 68.5862816,79.6046407 C68.6515905,79.296595 68.6705894,78.967223 68.6492156,78.6520685 C68.4972241,76.3677908 69.4067981,74.203177 69.2583689,71.8715076 C69.1372507,69.9770263 69.4067981,68.0268597 69.4637949,66.0968346 C69.5647268,62.6040697 69.2856799,59.1456638 69.1752486,55.6730404 C69.1657491,55.3531467 69.3391144,54.9621656 69.2108716,54.7180986 C67.9890026,52.3911684 69.1455628,50.3426641 70.1643806,48.4576611 C71.9764041,45.1035168 73.9309195,41.8323079 76.6168939,39.0196132 C79.9120216,35.5671313 83.9160472,33.4747898 88.4057329,32.150193 C91.0323357,31.3753395 94.1374741,27.4832999 94.3227137,24.5426478 C93.827554,24.2440804 93.3122079,23.8353274 92.7268032,23.6019235 C91.2009512,22.9917559 90.4540556,21.8223669 90.000456,20.3153123 C89.4613613,18.5250926 89.7214092,17.3675514 91.1570162,16.1602491 C91.5025593,15.8676056 91.8837255,15.6128755 92.2720162,15.3782868 C93.7088106,14.5133891 94.5388266,13.2812061 94.6314464,11.5869545 L94.6504453,11.3938335 C94.7335657,6.72220121 97.528784,3.93320238 101.366569,1.95341605 C102.792676,1.21647583 104.319716,0.57313413 105.875254,0.211772771 C108.763092,-0.461188713 111.813608,0.409632925 113.573384,3.69150495 C114.060232,4.59787033 114.601702,5.47580071 115.093299,6.32529611 C117.235429,6.45443836 119.305126,6.46865586 121.342761,6.73523391 C123.091851,6.96389864 124.730509,7.67595824 125.978501,8.98278309 C127.245493,10.3097494 127.079252,13.1769444 125.720828,14.9233269 C124.446712,16.5595237 122.70831,17.5867378 120.858288,18.3876568 C118.302932,19.4930671 117.805397,20.3816606 118.478672,23.1777682 C117.951451,23.9431434 117.951451,23.9431434 118.649662,24.4798539 C118.56298,23.9419586 118.497671,23.5332056 118.429987,23.1232678"/>
</svg>
