<svg fill="#fff" xmlns="http://www.w3.org/2000/svg" width="200" height="200" viewBox="0 0 200 200">
  <g transform="matrix(-1 0 0 1 200 71)">
    <path d="M195.589538,51.0786354 C197.648615,44.2272604 197.100308,38.4544792 193.958769,33.9041042 C187.980308,25.2606042 174.692308,24.1543542 172.155692,24.0240625 L167.185231,21.3493958 L166.860308,21.2160312 C161.340923,19.6420833 140.555692,19.0090625 137.441846,18.9217917 C132.531692,16.5027917 128.452923,14.2386667 124.841846,12.2357396 C112.204308,5.2215 103.852923,0.58446875 79.944,0.58446875 C50.9907692,0.58446875 27.3612308,13.1188958 24.192,14.8735312 C22.4615385,15.0038229 20.9323077,15.1218229 19.4867692,15.2361354 L15.5144615,9.86897917 L20.0313846,10.3446667 C21.8221538,10.5327292 22.6572308,9.58073958 21.8966154,8.21882292 C21.1335385,6.85690625 19.064,5.59946875 17.2695385,5.41017708 L2.53046154,3.85896875 C0.739692308,3.67152083 -0.0953846154,4.62289583 0.668307692,5.9848125 C1.43138462,7.34672917 3.50092308,8.60416667 5.29538462,8.79345833 L7.55938462,9.0306875 L12.5846154,15.8218333 C4.07815385,16.6300104 4.07815385,17.1364271 4.07815385,18.5081771 C4.07815385,29.7741042 2.63630769,32.3707188 2.33538462,32.870375 L0,31.0014271 L0,42.6901875 L1.38338462,44.4663333 C1.32923077,46.1718021 1.88984615,47.7377604 3.02892308,49.0333021 C6.70953846,53.2149271 15.16,53.336 16.1095385,53.336 C18.9612308,53.336 24.8547692,51.8818958 28.8972308,50.7836354 C28.6166154,50.3036458 28.3267692,49.8291875 28.0972308,49.3135521 C27.8756923,48.8163542 27.7261538,48.2884271 27.5526154,47.7666458 C27.0535385,46.2394063 26.7144615,44.6347292 26.7144615,42.9452396 C26.7144615,34.2955938 33.76,27.2635313 42.416,27.2635313 C51.072,27.2635313 58.1206154,34.2980521 58.1206154,42.9483125 C58.1206154,46.6776042 56.7538462,50.0639583 54.568,52.7595208 C54.1046154,53.3292396 53.6283077,53.8829792 53.0929231,54.3826354 C52.464,54.9714063 51.8073846,55.5251458 51.0904615,56.00575 C69.1409231,56.0727396 120.114462,56.3216458 154.910769,57.0941771 C154.401231,56.588375 153.967385,56.00575 153.534154,55.4329583 C153.132923,54.9081042 152.782154,54.3574375 152.450462,53.7809583 C151.118769,51.4799583 150.296615,48.8489271 150.296615,46.0034063 C150.296615,37.3568333 157.345231,30.3235417 166,30.3235417 C174.654769,30.3235417 181.703385,37.3599063 181.703385,46.0034063 C181.703385,49.1537604 180.747692,52.0724167 179.148308,54.5325938 C178.776,55.0992396 178.332308,55.6111875 177.892923,56.1268229 C177.411692,56.6934688 176.898462,57.2213958 176.337846,57.7149063 C179.543385,57.8101667 182.306462,57.8574896 184.673846,57.8574896 C196.712615,57.8574896 199.064615,56.8200729 199.357538,54.7735104 C199.454769,54.1497083 199.675077,52.6095625 195.589538,51.0786354 Z"/>
    <path d="M32.1046154 49.8888021C34.3433846 53.1946458 38.1316923 55.3721146 42.416 55.3721146 42.5563077 55.3721146 42.6867692 55.3340104 42.824 55.32725 44.4092308 55.2762396 45.9273846 54.9523542 47.3107692 54.3598958 48.2793846 53.9432083 49.1544615 53.3765625 49.9766154 52.7398542 52.9193846 50.4646667 54.8547692 46.9449479 54.8547692 42.9476979 54.8547692 36.0987813 49.2756923 30.5232813 42.4166154 30.5232813 35.5575385 30.5232813 29.9778462 36.0987813 29.9778462 42.9476979 29.9778462 44.3385 30.2615385 45.658625 30.6849231 46.9093021 30.8621538 47.4316979 31.064 47.9375 31.3095385 48.4279375 31.5563077 48.9245208 31.7950769 49.4333958 32.1046154 49.8888021zM166.003077 58.4272083C167.637538 58.4272083 169.186462 58.0898021 170.620308 57.5170104 171.598154 57.1224479 172.503385 56.6006667 173.341538 55.983625 173.978462 55.5122396 174.564923 54.9904583 175.103385 54.4109063 177.158769 52.1959479 178.446154 49.2551667 178.446154 46.0027917 178.446154 39.153875 172.864 33.5820625 166.006154 33.5820625 159.148308 33.5820625 153.565538 39.153875 153.565538 46.0027917 153.565538 49.0007292 154.680615 51.7184167 156.459077 53.8700729 156.962462 54.4778958 157.516923 55.0316354 158.125538 55.5374375 158.932308 56.2061042 159.804923 56.7813542 160.767385 57.2306146 162.360615 57.9754896 164.125538 58.4272083 166.003077 58.4272083z"/>
  </g>
</svg>
