<svg fill="#fff" xmlns="http://www.w3.org/2000/svg" width="200" height="200" viewBox="0 0 200 200">
  <g fill="none" fill-rule="evenodd">
    <path fill="#fff" fill-rule="nonzero" d="M73.815918,118.737793 C71.8566895,118.737793 70.0149535,119.500732 68.6294555,120.88623 C67.2439574,122.271729 66.481018,124.113464 66.481018,126.074219 C66.481018,128.031921 67.2439574,129.875183 68.6294555,131.260681 C70.0149535,132.646179 71.8566895,133.409119 73.815918,133.409119 C75.7751465,133.409119 77.6184082,132.646179 79.0023805,131.260681 C81.8634031,128.401184 81.8634031,123.747254 79.0023805,120.88623 C77.6184082,119.500732 75.7751465,118.737793 73.815918,118.737793 Z"/>
    <path fill="#fff" fill-rule="nonzero" d="M198.16742,39.1174316 L192.967224,33.9172363 L193.315125,33.5693359 C196.057129,30.8288574 196.057129,26.3687133 193.315125,23.6282348 L176.260376,6.57348633 C173.521423,3.83300781 169.061279,3.83300781 166.319275,6.57348633 L165.971375,6.92138672 L160.771179,1.72119141 C158.476257,-0.573730469 154.754639,-0.573730469 152.459717,1.72119141 C150.164795,4.01611328 150.164795,7.73773203 152.459717,10.0326539 L157.659912,15.2328492 L152.813721,20.0790406 L147.613525,14.8788453 C145.318604,12.5839234 141.598511,12.5839234 139.302063,14.8788453 C137.007141,17.1737672 137.007141,20.8938598 139.302063,23.1903078 L144.502258,28.3905031 L144.154358,28.7384031 C142.826843,30.065918 142.095947,31.8313598 142.095947,33.708191 C142.095947,35.5865477 142.826843,37.3519898 144.154358,38.6795043 L148.526001,43.0511477 L117.286682,74.2919922 L109.967041,66.9174195 C105.029297,61.9430543 98.449707,59.188843 91.4413453,59.1629027 C91.40625,59.1629027 91.3742066,59.1629027 91.3406371,59.1629027 C84.3688965,59.1629027 77.8076172,61.8652344 72.8561402,66.7800902 C69.3832398,70.2270508 66.9525148,74.5513914 65.8233641,79.2861937 C64.2745973,85.7864379 57.7514648,89.8574828 51.2786867,88.3605957 C48.1933594,87.6464844 45.0347898,87.2772219 41.8930055,87.2665406 C41.8395996,87.2665406 41.7877195,87.2665406 41.7343141,87.2665406 C30.673218,87.2665406 20.2407836,91.5786742 12.3413086,99.4171141 C-4.02679453,115.666199 -4.12597656,142.201233 12.121582,158.570862 L40.9912109,187.657166 C48.8510133,195.574951 59.3383789,199.957275 70.5215453,200 L70.6848145,200 C81.8069457,200 92.2637938,195.697021 100.143433,187.875366 C102.709961,185.328674 104.901123,182.50885 106.692505,179.493713 C107.141113,178.739929 107.565308,177.973938 107.962036,177.19574 C108.360291,176.419067 108.732605,175.630188 109.080505,174.830627 C111.33728,169.639587 112.513733,164.025879 112.518311,158.305359 C112.519836,155.224609 112.182617,152.113342 111.491394,149.020386 C110.041809,142.539978 114.160156,136.047363 120.672607,134.544373 C125.416565,133.451843 129.757691,131.051636 133.232117,127.604675 C138.204956,122.666931 140.959168,116.087341 140.986633,109.077454 C141.012573,102.069092 138.30719,95.4696656 133.369446,90.4937742 L125.567627,82.6324461 L156.837463,51.3626098 L161.210632,55.7342531 C162.580871,57.1044922 164.379883,57.7896117 166.18042,57.7896117 C167.980957,57.7896117 169.781494,57.1044922 171.151734,55.7342531 L171.499634,55.3863523 L176.699829,60.5865477 C177.84729,61.7340086 179.351807,62.3077391 180.854797,62.3077391 C182.359314,62.3077391 183.86383,61.7340086 185.009766,60.5865477 C187.306213,58.2916258 187.306213,54.5700074 185.009766,52.2750855 L179.80957,47.0748902 L184.657288,42.2286988 L189.857483,47.4288941 C191.004944,48.5763551 192.509461,49.1500855 194.012451,49.1500855 C195.516968,49.1500855 197.021484,48.5763551 198.16742,47.4288941 C200.463867,45.1339723 200.463867,41.4123535 198.16742,39.1174316 Z M87.313843,140.570618 C83.708191,144.17627 78.9154055,146.162964 73.815918,146.162964 C68.7179566,146.162964 63.9236449,144.17627 60.317993,140.570618 C56.7123414,136.966492 54.7271727,132.17218 54.7271727,127.072693 C54.7271727,121.974731 56.7123414,117.18042 60.317993,113.574768 C63.9236449,109.969116 68.7179566,107.983948 73.815918,107.983948 C78.9138793,107.983948 83.708191,109.969116 87.313843,113.574768 C94.7570801,121.018005 94.7570801,133.128906 87.313843,140.570618 Z"/>
  </g>
</svg>
