<svg fill="#fff" xmlns="http://www.w3.org/2000/svg" width="200" height="200" viewBox="0 0 200 200">
  <path d="M30.5940424,24.0006743 C47.2903949,24.0397833 77.6581739,27.9115799 93.4609207,53.3945013 C94.1040205,54.4329141 94.4447624,55.6877754 94.4447624,57.023552 L94.4447624,169.482317 C75.1908255,149.306764 47.2809673,145.830104 30.6223253,145.79032 C26.6707969,145.780206 23.4566446,142.56652 23.4566446,138.625946 L23.4566446,31.1670716 C23.4566446,29.243985 24.2047953,27.4375512 25.563049,26.0808715 C26.9064879,24.7390263 28.6856185,24.0006743 30.5772073,24.0006743 C30.5825945,24.0006743 30.5886552,24.0006743 30.5940424,24.0006743 Z M176.544029,138.625946 C176.544029,142.565846 173.329876,145.779531 169.379021,145.789646 C152.720379,145.829429 124.810521,149.306089 105.556584,169.481642 L105.556584,57.023552 C105.556584,55.6877754 105.896653,54.4329141 106.539753,53.3945013 C122.343173,27.9115799 152.710952,24.0397833 169.406631,24 C169.412018,24 169.418079,24 169.424139,24 C171.313708,24 173.094185,24.738352 174.437624,26.0801972 C175.795878,27.4368769 176.544029,29.2433107 176.544029,31.1663973 L176.544029,138.625946 Z M192.84442,48.7823299 C196.789888,48.7823299 200.000673,51.9966897 200,55.9473786 L200,169.835647 C200,172.026428 199.019525,174.067516 197.310429,175.432962 C195.595271,176.801779 193.383143,177.306151 191.242395,176.817962 C174.097556,172.905707 144.013953,168.357594 115.476483,175.354069 C131.976875,159.716516 155.27527,156.949887 169.405284,156.916172 C179.468618,156.891223 187.655177,148.687087 187.655177,138.625946 L187.655177,48.7823299 L192.84442,48.7823299 Z M12.3448227,138.625946 C12.3448227,148.687087 20.5320557,156.891223 30.5947158,156.915498 C44.7247297,156.949213 68.0231246,159.715167 84.5228435,175.352046 C55.9867205,168.355571 25.9024441,172.90301 8.75760524,176.815939 C6.61349028,177.305476 4.40338183,176.799081 2.68957134,175.430939 C0.980474681,174.065493 0,172.025079 0,169.833624 L0,55.9473786 C0,51.9966897 3.21078522,48.7823299 7.15557964,48.7823299 L12.3448227,48.7823299 L12.3448227,138.625946 Z"/>
</svg>
