<svg fill="#fff" xmlns="http://www.w3.org/2000/svg" width="200" height="200" viewBox="0 0 200 200">
  <path d="M123.392294,44.8430536 C111.044345,44.8430536 101.034354,34.8045942 101.034354,22.4215268 C101.034354,10.0384595 111.044345,0 123.392294,0 C135.740243,0 145.750234,10.0384595 145.750234,22.4215268 C145.750234,34.8045942 135.740243,44.8430536 123.392294,44.8430536 Z M179.201132,77.112809 C183.972695,77.6048972 187.437758,81.8817821 186.955123,86.6677238 C186.494243,91.1437873 182.721388,94.473665 178.333355,94.473665 C178.03201,94.473665 177.733888,94.4587166 177.426097,94.4255875 C160.859378,92.7077229 151.156716,87.6918976 143.72099,81.7379534 L146.288062,111.343645 C146.663937,115.724765 145.226909,119.458252 142.841127,122.461687 C148.877292,132.269918 159.772039,150.89372 174.568558,184.442582 C177.041762,190.033318 174.518602,196.574293 168.942915,199.048067 C167.486146,199.696508 165.973782,199.999114 164.4731,199.999114 C160.229696,199.999114 156.18692,197.543925 154.362736,193.401173 C141.815427,164.972372 131.925028,147.169929 126.12011,137.495831 C118.879372,150.048928 102.371068,183.444669 96.0416165,194.448375 C94.1404846,197.755628 90.7946697,199.714689 87.2587013,199.971237 C85.1327693,200.125166 82.937544,199.655299 80.9538243,198.515173 C75.6702165,195.459217 73.8613412,188.685125 76.9046026,183.383259 C83.698158,171.569505 102.515295,136.797292 109.507464,124.081377 C107.246571,121.650025 105.721315,118.569827 105.407078,114.898154 L102.694974,83.6416641 C96.9400112,91.3995278 90.9807945,100.761324 87.1326037,110.478248 C85.9570363,113.438454 83.3408144,115.389838 80.4216362,115.855666 L66.9215449,139.325203 L56.030021,158.78814 L40.4833625,186.141458 C43.1338281,189.529109 42.8784101,194.442315 39.7505465,197.536653 C36.3853939,200.858047 30.9599767,200.816837 27.6576715,197.436458 C24.918978,194.653614 24.4826724,190.467228 26.2955763,187.231082 L14.9077196,180.808886 C13.1077074,179.806125 12.4699681,177.510521 13.4779427,175.70943 L41.9498004,125.256247 C42.9585807,123.453136 45.2376024,122.820451 47.033183,123.833717 L62.0758542,132.3083 L72.7542612,113.226751 C70.5159291,110.841052 69.7005252,107.303916 70.9856727,104.047569 C80.0783931,81.1242572 98.3452132,60.8601614 104.937335,54.0076916 C105.790608,52.9782657 108.496267,50.6159999 108.879796,50.376824 C114.176296,46.4174935 117.793644,46.2942695 120.172577,46.0292367 C122.658269,45.7541037 125.063388,46.2546762 125.063388,46.2546762 C128.447073,46.7839336 131.98425,48.2020203 134.975541,50.3675317 C139.850642,53.3701586 159.221722,75.0519371 179.201132,77.112809 Z"/>
</svg>
