<svg fill="#fff" xmlns="http://www.w3.org/2000/svg" width="200" height="200" viewBox="0 0 200 200">
  <path d="M13.4566106,170.625 C6.1033079,170.625 0.123332819,164.634321 0.123332819,157.267857 C0.123332819,149.901393 6.1033079,143.910714 13.4566106,143.910714 L101.286245,143.910714 L148.582714,50.6711786 C148.629381,50.220375 148.742714,49.7729107 148.982713,49.3588393 C149.859376,47.836125 150.066041,46.03625 149.566043,44.2964821 C149.052712,42.5099643 147.859384,41.0006071 146.209391,40.0455714 C142.912738,38.1388393 138.546089,39.21075 136.766097,42.29625 C135.842767,43.8924286 133.802776,44.4367321 132.212782,43.5184286 C131.142787,42.9006607 130.546123,41.7786607 130.546123,40.6232679 C130.546123,40.0555893 130.689455,39.4812321 130.992788,38.9569643 C131.869451,37.43425 132.076116,35.6310357 131.576118,33.8912679 C131.062787,32.10475 129.869459,30.5953929 128.216132,29.6403571 C124.912813,27.7236071 120.436165,28.7654643 118.672839,31.8142321 C118.669506,31.8175714 118.666172,31.82425 118.666172,31.8275893 C117.742843,33.4204286 115.709518,33.9714107 114.112858,33.0497679 C112.519531,32.128125 111.972867,30.0878214 112.892863,28.4883036 C120.646164,15.0309821 134.529439,7 150.029375,7 C158.129341,7 166.255974,9.22396429 173.529277,13.4314643 C195.379186,26.074 202.982488,52.48775 190.832538,73.5686607 C190.215874,74.6405714 189.095879,75.2383036 187.94255,75.2383036 C187.375886,75.2383036 186.802555,75.0947143 186.279224,74.7908393 C184.685897,73.8691964 184.139233,71.8288929 185.059229,70.229375 C185.062562,70.2260357 185.062562,70.2226964 185.065896,70.2193571 C186.895888,67.0303393 185.599227,62.8295179 182.175908,60.8493214 C178.889255,58.93925 174.51594,60.0145 172.735947,63.1 C171.812617,64.6961786 169.772626,65.2404821 168.182633,64.3221786 C167.112637,63.7044107 166.515973,62.5790714 166.515973,61.4236786 C166.515973,60.8593393 166.659306,60.2849821 166.962638,59.7607143 C167.842634,58.2346607 168.0493,56.438125 167.552635,54.6983571 C167.039304,52.9118393 165.842642,51.4024821 164.192649,50.4474464 C161.292661,48.7644464 157.542677,49.4055893 155.479352,51.7096964 C155.449352,51.7798214 155.456019,51.856625 155.419352,51.92675 L113.196195,135.178482 L157.252678,91.0431429 C159.762668,88.5286607 163.10932,87.1428571 166.679306,87.1428571 C170.245957,87.1428571 173.595943,88.5286607 176.105933,91.0431429 C178.615922,93.557625 179.99925,96.9136071 179.99925,100.486643 C179.99925,104.063018 178.615922,107.415661 176.109266,109.930143 L119.039504,167.011893 C115.526185,169.376107 111.289536,170.625 106.789555,170.625 L13.4566106,170.625 Z M194.539189,183.8085 L199.022504,188.299839 C200.325832,189.6055 200.325832,191.715929 199.022504,193.021589 C198.372507,193.67275 197.519177,194 196.665847,194 C195.812517,194 194.959188,193.67275 194.312524,193.021589 L191.922534,190.627321 C191.849201,190.634 191.782534,190.660714 191.709201,190.660714 L0,190.660714 L0,173.964286 L3.33331944,173.964286 L118.619506,173.964286 L194.30919,98.139125 C195.612518,96.8334643 197.719176,96.8334643 199.022504,98.139125 C200.325832,99.4447857 200.325832,101.555214 199.022504,102.860875 L156.379348,145.580357 L184.712564,173.964286 L194.539189,183.8085 Z M4.00406912,64.5898876 C1.79382296,64.5898876 0,62.7968652 0,60.5786517 C0,58.3604382 1.79382296,56.5674157 4.00406912,56.5674157 L12.2884881,56.5674157 C13.0212328,50.7190337 15.3275766,45.3680449 18.7790842,40.931618 L12.9051148,35.0511461 C11.3395237,33.4827528 11.3395237,30.9476517 12.9051148,29.3792584 C14.4707058,27.8108652 17.0012775,27.8108652 18.5668685,29.3792584 L24.4408379,35.2597303 C28.8693383,31.8100674 34.2107665,29.4995955 40.0446953,28.7655393 L40.0446953,20.4662921 C40.0446953,18.2480787 41.8385182,16.4550562 44.0487644,16.4550562 C46.2590105,16.4550562 48.0528335,18.2480787 48.0528335,20.4662921 L48.0528335,28.7655393 C53.8867622,29.4995955 59.2281904,31.8100674 63.6566908,35.2597303 L69.5306602,29.3792584 C71.0962513,27.8108652 73.6268229,27.8108652 75.192414,29.3792584 C76.758005,30.9476517 76.758005,33.4827528 75.192414,35.0511461 L69.3184446,40.931618 C72.761944,45.3680449 75.0682878,50.7190337 75.8010325,56.5674157 L84.0854515,56.5674157 C86.2956976,56.5674157 88.0895206,58.3604382 88.0895206,60.5786517 C88.0895206,62.7968652 86.2956976,64.5898876 84.0854515,64.5898876 L75.7930243,64.5898876 C75.0602797,70.4382697 72.7539359,75.7892584 69.3104364,80.2256854 L75.1844058,86.1061573 C76.7499969,87.6745506 76.7499969,90.2096517 75.1844058,91.7780449 C74.4036124,92.560236 73.3785707,92.9533371 72.353529,92.9533371 C71.3284873,92.9533371 70.3034456,92.560236 69.5226521,91.7780449 L63.6486827,85.897573 C59.2201823,89.347236 53.8787541,91.6577079 48.0448253,92.391764 L48.0448253,100.691011 C48.0448253,102.909225 46.2510024,104.702247 44.0407562,104.702247 C41.8305101,104.702247 40.0366871,102.909225 40.0366871,100.691011 L40.0366871,92.391764 C34.2027584,91.6577079 28.8613302,89.347236 24.4328298,85.897573 L18.5588604,91.7780449 C17.7780669,92.560236 16.7530252,92.9533371 15.7279835,92.9533371 C14.7029418,92.9533371 13.6779001,92.560236 12.8971066,91.7780449 C11.3315156,90.2096517 11.3315156,87.6745506 12.8971066,86.1061573 L18.771076,80.2256854 C15.3275766,75.7892584 13.0212328,70.4382697 12.2884881,64.5898876 L4.00406912,64.5898876 Z"/>
</svg>
