<svg fill="#fff" xmlns="http://www.w3.org/2000/svg" width="200" height="200" viewBox="0 0 200 200">
  <path d="M129.166797,48.3153288 C120,48.3153288 112.5,40.8194384 112.5,31.6576644 C112.5,22.4958904 120,15 129.166797,15 C138.333594,15 145.833594,22.4958904 145.833594,31.6576644 C145.833594,40.8194384 138.333594,48.3153288 129.166797,48.3153288 Z M41.6667969,105 C63.0567039,105 80.5581003,122.491442 80.5581003,143.869993 C80.5581003,165.248544 63.0570685,182.739986 41.6667969,182.739986 C20.2765253,182.739986 2.77549342,165.248544 2.77549342,143.869993 C2.77549342,122.491442 20.2765253,105 41.6667969,105 Z M157.916797,93.7068493 C140.833203,93.7068493 126.25,87.460274 115.833203,76.6330068 L109.583203,70.3864315 L90,90.3754726 L108.333203,108.69863 L108.333203,160.753685 L91.6664062,160.753685 L91.6664062,119.109719 L65.4164062,95.7893014 C62.4996094,92.4579247 60.4164063,88.2938014 60.4164063,83.7127192 C60.4164063,79.131637 62.4996094,74.9675137 65.4164062,72.0523151 L88.3332031,49.1480753 C91.25,45.8166986 95.4167969,44.1508151 100,44.1508151 C104.583203,44.1508151 108.75,46.2328767 111.25,49.1480753 L127.5,64.9726027 C135,72.4684932 145.416797,77.0491849 157.916797,77.0491849 L157.916797,93.7068493 Z M157.891303,105 C179.281575,105 196.782607,122.491442 196.782607,143.869993 C196.782607,165.248544 179.281575,182.739986 157.891303,182.739986 C136.501032,182.739986 119,165.248544 119,143.869993 C119,122.491442 136.501032,105 157.891303,105 Z"/>
</svg>
