<svg xmlns="http://www.w3.org/2000/svg" width="200" height="200" viewBox="0 0 200 200">
  <g fill="none" fill-rule="evenodd">
    <path fill="#fff" fill-rule="nonzero" d="M411.481898,-143.199902 C411.781898,-143.599902 411.981898,-143.999902 412.281898,-144.399902 C412.881898,-145.199902 412.581898,-146.599902 411.581898,-146.899902 C407.381898,-148.099902 403.081898,-149.099902 398.781898,-149.699902 C402.481898,-150.199902 406.181898,-150.699902 409.881898,-151.399902 C411.481898,-151.699902 411.681898,-153.899902 410.181898,-154.599902 C408.181898,-155.499902 406.081898,-155.599902 403.981898,-155.199902 C402.281898,-155.099902 400.481898,-154.999902 398.781898,-154.799902 C398.981898,-155.599902 399.281898,-156.399902 399.681898,-157.099902 C402.281898,-157.599902 404.781898,-158.199902 407.381898,-158.699902 C409.481898,-159.099902 410.581898,-160.899902 409.281898,-162.699902 C408.981898,-163.199902 408.381898,-163.299902 407.781898,-163.199902 C402.481898,-162.599902 396.981898,-162.399902 391.681898,-162.499902 C387.281898,-165.399902 381.681898,-166.999902 376.181898,-167.599902 C375.781898,-167.899902 375.281898,-168.099902 374.881898,-168.399902 C369.881898,-171.599902 364.781898,-174.699902 360.181898,-178.499902 C353.781898,-183.799902 349.881898,-191.399902 343.481898,-196.299902 C343.181898,-196.799902 342.881898,-197.299902 342.581898,-197.799902 C342.181898,-198.399902 341.781898,-198.999902 341.281898,-199.599902 C340.881898,-208.099902 335.381898,-215.999902 328.381898,-220.399902 C321.581898,-224.699902 313.381898,-224.999902 306.081898,-222.399902 C304.581898,-223.899902 302.981898,-225.099902 301.181898,-225.999902 C301.081898,-226.299902 300.881898,-226.499902 300.581898,-226.699902 C298.481898,-227.899902 296.081898,-228.699902 293.981898,-229.899902 C291.781898,-231.099902 289.781898,-232.599902 287.781898,-234.099902 C283.681898,-237.099902 279.781898,-240.199902 275.381898,-242.699902 C268.281898,-246.699902 258.081898,-249.099902 250.081898,-245.999902 C249.781898,-246.299902 249.481898,-246.599902 249.181898,-246.899902 C250.181898,-247.099902 251.181898,-247.299902 252.281898,-247.599902 C253.181898,-247.799902 253.581898,-248.699902 253.381898,-249.599902 C253.281898,-250.299902 253.181898,-250.899902 253.081898,-251.499902 C256.181898,-261.499902 256.681898,-272.999902 254.081898,-283.199902 C251.281898,-293.899902 241.381898,-297.299902 231.581898,-299.399902 C222.081898,-301.499902 210.481898,-301.999902 201.381898,-297.999902 C192.681898,-294.199902 187.681898,-285.599902 185.181898,-276.799902 C185.081898,-276.699902 184.981898,-276.599902 184.881898,-276.499902 C184.381898,-275.999902 184.481898,-274.999902 185.081898,-274.699902 C187.181898,-273.399902 189.381898,-272.199902 191.681898,-270.999902 C191.581898,-270.199902 191.481898,-269.499902 191.281898,-268.699902 C190.781898,-266.299902 189.281898,-263.999902 189.281898,-261.599902 C189.281898,-260.299902 190.581898,-259.099902 191.381898,-258.199902 C191.881898,-257.699902 192.281898,-257.199902 192.781898,-256.599902 C191.781898,-254.399902 190.481898,-252.399902 189.181898,-250.399902 C187.981898,-248.599902 187.381898,-246.499902 188.681898,-244.599902 C188.881898,-244.299902 189.281898,-243.999902 189.681898,-244.199902 C190.781898,-244.599902 191.781898,-244.899902 192.881898,-245.099902 C192.981898,-244.099902 192.981898,-243.099902 192.881898,-241.999902 C192.781898,-241.199902 192.681898,-239.899902 193.381898,-239.299902 C194.281898,-238.499902 195.081898,-238.499902 196.181898,-238.599902 C197.381898,-238.799902 198.281898,-238.899902 199.281898,-238.799902 C199.181898,-238.599902 198.981898,-238.399902 198.881898,-238.199902 C198.081898,-237.099902 197.181898,-236.399902 196.681898,-235.199902 C195.781898,-233.199902 197.981898,-231.599902 199.281898,-230.299902 C198.881898,-228.799902 198.481898,-227.299902 199.081898,-225.699902 C199.781898,-223.799902 201.981898,-223.299902 203.781898,-223.099902 C206.781898,-222.799902 210.281898,-223.599902 213.181898,-224.299902 C213.481898,-224.399902 213.681898,-224.399902 213.981898,-224.499902 C215.581898,-223.099902 217.381898,-221.799902 218.781898,-220.499902 C220.281898,-219.199902 221.681898,-217.899902 223.081898,-216.599902 C221.281898,-213.199902 219.781898,-209.699902 218.381898,-206.099902 C217.181898,-202.799902 216.081898,-199.499902 215.281898,-196.099902 C214.581898,-193.399902 213.681898,-190.299902 213.581898,-187.399902 C212.381898,-186.499902 211.281898,-185.699902 210.081898,-184.899902 C208.481898,-183.799902 208.481898,-183.299902 208.181898,-181.299902 C207.281898,-175.599902 205.781898,-170.099902 203.881898,-164.799902 C200.681898,-163.299902 197.581898,-161.499902 194.781898,-159.299902 C190.281898,-155.799902 185.981898,-151.799902 185.081898,-146.099902 C184.681898,-143.499902 181.981898,-142.699902 180.681898,-140.699902 C180.181898,-139.899902 179.881898,-139.099902 179.881898,-138.299902 C177.581898,-136.499902 175.381898,-134.599902 173.181898,-132.699902 C170.681898,-130.499902 168.081898,-128.299902 165.581898,-126.199902 C163.281898,-124.199902 160.581898,-122.399902 158.381898,-120.299902 C156.381898,-119.399902 154.481898,-118.299902 152.681898,-117.099902 C147.481898,-113.499902 142.281898,-110.099902 136.581898,-107.299902 C133.681898,-105.899902 130.681898,-104.799902 127.781898,-103.599902 C126.481898,-103.099902 124.581898,-101.799902 125.081898,-100.099902 C126.081898,-96.4999017 131.581898,-97.5999017 134.481898,-99.2999017 C137.881898,-98.5999017 141.681898,-99.1999017 145.281898,-100.299902 C144.981898,-99.8999017 144.781898,-99.4999017 144.581898,-99.0999017 C143.681898,-96.8999017 144.581898,-94.8999017 146.781898,-93.9999017 C147.381898,-93.7999017 148.081898,-93.9999017 148.481898,-94.4999017 C149.781898,-95.8999017 151.281898,-97.0999017 152.681898,-98.3999017 C155.981898,-99.6999017 159.181898,-101.399902 162.381898,-102.999902 C165.681898,-104.699902 168.781898,-107.199902 170.281898,-110.499902 C175.081898,-112.699902 179.681898,-115.399902 184.181898,-118.099902 C187.081898,-119.799902 189.981898,-121.499902 192.881898,-123.199902 C192.981898,-123.099902 192.981898,-123.099902 193.081898,-122.999902 C193.481898,-122.699902 194.081898,-122.799902 194.481898,-122.999902 C200.081898,-126.099902 205.581898,-129.399902 211.081898,-132.699902 C216.881898,-132.899902 222.781898,-133.099902 228.481898,-133.899902 C231.981898,-134.399902 233.181898,-138.199902 234.381898,-140.999902 C236.281898,-145.099902 238.381898,-149.099902 240.581898,-153.099902 C242.781898,-157.199902 245.181898,-161.199902 247.681898,-164.999902 C249.281898,-164.299902 250.881898,-163.499902 252.481898,-162.599902 C257.781898,-159.699902 261.781898,-155.399902 266.081898,-151.199902 C269.981898,-147.299902 273.981898,-144.399902 278.881898,-141.799902 C282.581898,-139.799902 284.481898,-135.899902 286.281898,-131.999902 C285.781898,-130.599902 284.881898,-129.299902 283.481898,-129.199902 C282.481898,-129.099902 281.481898,-128.199902 281.881898,-127.099902 C282.381898,-125.599902 282.781898,-123.899902 283.381898,-122.299902 C276.481898,-117.699902 270.281898,-111.899902 265.181898,-105.399902 C263.681898,-105.199902 262.181898,-104.899902 260.681898,-104.499902 C259.181898,-104.099902 257.781898,-103.599902 257.281898,-101.899902 C256.781898,-99.8999017 256.781898,-97.3999017 256.881898,-95.0999017 C255.081898,-94.4999017 253.381898,-93.7999017 251.581898,-93.1999017 C247.481898,-91.6999017 244.381898,-90.2999017 241.581898,-86.8999017 C236.081898,-80.2999017 229.481898,-74.5999017 224.181898,-67.7999017 C221.981898,-64.9999017 221.181898,-62.3999017 222.181898,-58.8999017 C223.281898,-54.9999017 225.281898,-51.1999017 227.281898,-47.7999017 C228.981898,-44.7999017 230.981898,-41.6999017 233.281898,-38.8999017 C237.381898,-27.3999017 242.181898,-16.0999017 247.481898,-5.09990173 C246.481898,-3.99990173 245.481898,-3.09990173 244.281898,-2.29990173 C243.181898,-1.59990173 242.881898,-0.0999017304 243.881898,0.90009827 C247.281898,4.30009827 251.581898,7.50009827 256.281898,9.70009827 C257.381898,13.6000983 258.781898,17.5000983 259.781898,21.4000983 C260.681898,24.7000983 261.381898,28.0000983 261.981898,31.3000983 C259.481898,37.6000983 253.481898,42.6000983 247.381898,45.9000983 C242.581898,48.5000983 237.481898,50.2000983 232.481898,52.4000983 C230.981898,53.1000983 227.781898,53.7000983 227.581898,55.7000983 C227.381898,58.3000983 227.681898,60.6000983 228.681898,63.0000983 C228.881898,63.5000983 229.281898,63.8000983 229.781898,64.0000983 C229.781898,64.1000983 229.781898,64.2000983 229.781898,64.3000983 C229.681898,65.1000983 229.981898,65.8000983 230.781898,66.0000983 C232.281898,66.5000983 233.681898,66.8000983 235.181898,67.1000983 C234.681898,68.5000983 233.881898,69.8000983 232.981898,71.0000983 C229.481898,70.2000983 225.781898,70.9000983 223.281898,74.2000983 C219.181898,79.4000983 221.581898,86.3000983 226.481898,89.9000983 C231.781898,93.8000983 240.481898,92.9000983 244.581898,87.7000983 C245.281898,86.8000983 245.781898,85.9000983 246.181898,84.8000983 C248.081898,87.7000983 251.181898,89.7000983 254.881898,90.0000983 C260.181898,90.4000983 265.581898,85.7000983 266.181898,80.6000983 C266.281898,79.8000983 266.281898,79.0000983 266.181898,78.2000983 C266.981898,77.8000983 267.881898,77.3000983 268.581898,76.8000983 C268.781898,79.1000983 269.681898,81.5000983 271.281898,83.5000983 C273.181898,85.8000983 275.781898,87.1000983 278.381898,87.4000983 C279.181898,90.9000983 281.581898,94.1000983 284.381898,95.9000983 C290.181898,99.6000983 297.381898,96.6000983 299.581898,90.6000983 C300.681898,90.5000983 301.781898,90.3000983 302.881898,90.2000983 C304.581898,94.3000983 308.781898,97.2000983 313.181898,97.4000983 C318.681898,97.7000983 322.681898,93.4000983 323.481898,88.4000983 C323.481898,88.4000983 323.581898,88.4000983 323.581898,88.4000983 C324.981898,92.7000983 328.781898,95.9000983 333.281898,97.0000983 C338.481898,98.3000983 344.281898,95.8000983 345.581898,90.7000983 C347.481898,94.2000983 351.281898,96.6000983 355.381898,97.1000983 C361.581898,97.9000983 366.781898,92.9000983 366.881898,86.9000983 C366.981898,81.7000983 362.381898,76.4000983 357.381898,74.9000983 C356.581898,73.1000983 355.881898,71.3000983 355.281898,69.5000983 C355.381898,69.5000983 355.481898,69.5000983 355.581898,69.5000983 C356.281898,69.5000983 356.781898,69.2000983 357.081898,68.8000983 C357.681898,68.7000983 358.081898,68.2000983 358.081898,67.5000983 C357.381898,59.5000983 354.281898,51.6000983 349.281898,45.2000983 C347.781898,39.9000983 345.581898,34.7000983 343.481898,29.8000983 C341.781898,25.8000983 339.881898,21.8000983 337.881898,17.8000983 C339.881898,17.5000983 341.881898,17.2000983 343.981898,17.0000983 C345.581898,16.9000983 346.381898,15.2000983 345.281898,13.9000983 C335.381898,2.50009827 330.881898,-12.1999017 323.181898,-24.9999017 C324.181898,-25.0999017 325.181898,-25.0999017 326.181898,-24.9999017 C327.181898,-24.8999017 327.981898,-26.0999017 327.681898,-26.9999017 C326.681898,-30.0999017 325.481898,-33.0999017 324.081898,-35.8999017 C325.081898,-36.7999017 325.981898,-37.7999017 326.781898,-38.7999017 C327.181898,-39.2999017 327.381898,-39.9999017 326.981898,-40.5999017 C326.081898,-41.8999017 325.381898,-43.1999017 324.681898,-44.5999017 C328.081898,-58.7999017 339.181898,-69.9999017 343.881898,-83.5999017 C349.381898,-90.2999017 354.881898,-97.0999017 359.181898,-104.699902 C364.181898,-113.799902 367.281898,-125.399902 363.181898,-135.399902 C363.081898,-135.499902 363.081898,-135.599902 362.981898,-135.699902 C362.981898,-135.999902 362.881898,-136.299902 362.681898,-136.699902 C359.681898,-141.599902 356.881898,-147.099902 353.281898,-151.599902 C351.581898,-153.699902 349.581898,-155.499902 347.181898,-156.799902 C345.081898,-157.899902 342.881898,-158.499902 340.781898,-159.599902 C338.981898,-163.699902 336.481898,-167.699902 333.981898,-171.499902 C333.981898,-171.499902 333.981898,-171.599902 333.981898,-171.599902 C334.181898,-171.499902 334.381898,-171.399902 334.581898,-171.299902 C339.181898,-169.299902 343.781898,-167.299902 348.081898,-164.599902 C350.081898,-163.299902 351.881898,-161.899902 353.581898,-160.299902 C353.581898,-158.099902 354.181898,-156.099902 355.681898,-154.799902 C357.281898,-153.499902 359.081898,-153.099902 360.781898,-153.399902 C362.881898,-152.299902 364.781898,-151.199902 366.281898,-149.599902 C368.681898,-146.999902 369.481898,-143.099902 371.481898,-140.199902 C375.681898,-133.899902 385.081898,-134.999902 390.481898,-130.499902 C390.981898,-130.099902 391.681898,-130.199902 392.081898,-130.499902 C395.381898,-133.199902 394.681898,-136.399902 392.281898,-139.099902 C394.281898,-138.399902 396.381898,-137.599902 398.381898,-136.899902 C401.181898,-135.999902 403.981898,-134.999902 406.781898,-134.099902 C408.381898,-133.599902 409.381898,-133.199902 410.781898,-134.099902 C411.181898,-134.399902 411.381898,-134.999902 411.281898,-135.499902 C410.681898,-138.799902 404.281898,-141.399902 401.681898,-142.799902 C401.281898,-142.999902 400.881898,-143.199902 400.481898,-143.399902 C403.581898,-142.999902 406.581898,-142.699902 409.681898,-142.299902 C410.581898,-142.499902 411.181898,-142.799902 411.481898,-143.199902 Z M268.381898,65.2000983 C264.681898,64.9000983 253.981898,68.2000983 253.981898,68.2000983 L255.481898,63.7000983 L275.581898,59.5000983 C275.581898,59.5000983 274.381898,62.2000983 275.981898,62.5000983 C277.581898,62.8000983 280.281898,63.8000983 280.281898,63.8000983 C280.281898,63.8000983 272.081898,65.5000983 268.381898,65.2000983 Z M314.581898,47.9000983 L304.581898,50.6000983 C304.581898,50.6000983 304.881898,43.0000983 298.781898,35.9000983 C292.681898,28.8000983 294.881898,21.8000983 293.581898,19.6000983 C292.281898,17.4000983 288.981898,15.7000983 288.481898,12.5000983 C288.081898,9.20009827 287.781898,2.50009827 291.181898,2.70009827 C291.181898,2.70009827 297.881898,9.40009827 299.681898,13.1000983 C301.481898,16.8000983 302.981898,32.0000983 302.981898,32.0000983 C302.981898,32.0000983 308.481898,30.5000983 309.981898,31.4000983 C311.481898,32.3000983 313.681898,38.7000983 314.581898,41.2000983 C315.481898,43.7000983 314.581898,47.9000983 314.581898,47.9000983 Z M331.981898,71.9000983 L329.581898,75.9000983 L323.181898,76.3000983 L320.081898,75.1000983 C319.981898,74.4000983 318.581898,72.4000983 318.581898,72.4000983 L331.981898,71.9000983 Z"/>
    <path fill="#fff" d="M121.815328,69.5087652 C121.875675,69.3890694 121.927009,69.2773848 121.964021,69.180638 L125.200541,68.1794021 L124.480476,67.6790356 L123.522401,66.5520794 L122.802336,65.6760609 L121.964021,64.7995394 L121.964021,59.6681425 L122.802336,58.5416892 C122.802336,58.5416892 122.802336,57.7903851 122.682577,57.1648013 L121.964021,56.2887827 L121.964021,51.2826031 C121.964021,51.2826031 121.964021,51.2826031 122.802336,50.4060817 L124.000935,51.0321684 C124.000935,51.0321684 124.000935,51.0321684 124.601241,51.4073176 C124.601241,51.4073176 125.440563,50.7812308 126.039359,50.7812308 C126.638659,50.7812308 126.039359,51.4073176 126.039359,51.4073176 L127.717499,51.4073176 L128.316295,50.6565164 L128.316295,47.7775231 L129.035858,46.2759206 L129.035858,42.3956914 L129.526971,40.7683688 L130.714501,39.6424184 L133.590736,38.8911143 L133.351218,38.0150957 L133.47148,37.1390772 L134.429555,36.1378413 L135.388635,35.2613198 C135.388635,35.2613198 136.348219,35.1361025 137.066775,35.2613198 L137.306797,34.2605868 L138.146118,32.6332641 L139.170111,30.5055749 C139.170111,30.5055749 138.265878,30.1299229 137.546819,29.8794882 L136.707497,29.128687 L136.587235,28.3778857 L136.707497,27.1257122 L135.987935,26.2496937 L135.028854,24.8728057 C126.279381,22.1190298 130.234457,18.7401729 131.673078,17.3632849 C133.111196,15.9863969 133.950517,15.7364651 133.950517,15.7364651 L135.747913,14.3590743 L136.947519,13.4830557 L138.025353,11.6681585 L139.823755,10.7292798 L141.381632,9.85326121 L144.018349,9.85326121 L145.09719,10.7292798 L146.776336,11.4805839 C146.776336,11.4805839 147.854169,12.1061677 148.813753,12.7317516 C148.813753,12.9600595 148.882187,13.1531658 149.005972,13.321128 C150.536174,15.3945061 156.80039,14.6663345 154.567231,18.8653902 C154.561696,18.8739392 153.968435,19.9913406 153.968435,19.9913406 L153.248873,21.1182967 L152.289792,22.1190298 C152.289792,22.1190298 151.450471,23.2459859 150.851674,23.9967871 L150.132615,24.9980231 L150.37163,26.5001284 C150.37163,26.5001284 150.37163,26.5001284 150.730908,27.2509296 L151.091193,27.8765135 L151.810252,28.6278176 C151.810252,28.6278176 152.889092,28.8782523 153.248873,29.0029667 C153.608654,29.128687 153.968435,29.504339 154.327713,29.6285506 C154.687997,29.7542708 155.046269,29.8794882 155.046269,29.8794882 L155.886093,30.2551402 L156.723905,31.3815935 L156.844671,32.3828294 L159.601651,33.0084133 L161.519309,33.8844318 L163.317711,35.011388 L164.635567,40.5179341 L164.876091,41.8953249 L164.994844,43.0217782 C164.994844,43.0217782 165.235369,44.2729459 165.887504,44.8990327 C166.540142,45.5251194 165.834669,48.153678 165.834669,48.153678 C165.834669,48.153678 165.954428,50.4060817 165.834669,50.7812308 C165.715916,51.1573858 165.834669,52.1581188 165.834669,52.7842055 C165.834669,53.4102923 165.834669,52.7842055 165.565462,53.5355096 C165.294243,54.2863109 165.714407,54.66146 165.565462,56.1640682 C165.415008,57.6656707 165.565462,58.2917574 165.565462,58.2917574 L164.876091,59.167776 L163.916508,61.2331079 C163.916508,61.2331079 163.196945,61.6706143 162.95793,62.0462664 C162.718411,62.4219184 162.238871,62.4219184 161.998849,63.1727196 L162.238871,64.5496076 L162.838171,64.6743221 L163.676989,64.4248931 C163.676989,64.4248931 164.396048,64.9247568 164.755829,65.1756943 C165.115107,65.4256262 165.565462,66.3021476 165.565462,66.3021476 L164.994844,67.6790356 L164.994844,70.0571595 C164.994844,70.0571595 165.115107,71.9339111 165.474888,72.310066 C165.834669,72.6852152 164.994844,75.6889229 164.994844,75.6889229 L163.645791,76.3150097 L163.077186,77.1910282 C163.077186,77.1910282 163.196945,77.817115 163.466152,78.5674133 C163.735359,79.3187174 163.676989,79.0687856 163.466152,79.4444376 C163.255819,79.8195868 163.196945,80.8208227 163.436464,81.947276 C163.676989,83.0737292 162.358127,83.4488784 162.365675,83.8245305 C162.373726,84.2001825 161.399046,85.3266358 161.519309,85.8270023 C161.640075,86.3278717 161.399046,87.2043931 161.399046,87.2043931 C161.399046,87.2043931 161.160031,88.455058 161.160031,88.8312129 C161.160031,89.206865 160.799747,89.831946 160.799747,89.831946 C160.799747,89.831946 162.010631,102.01879 162.32272,103.4734 C162.386609,103.510445 162.450408,103.547722 162.514116,103.585236 C166.314209,105.822051 170.897267,109.041494 173.890243,112.367046 C174.532314,113.080131 174.976128,113.982802 175.320813,114.95638 L177.994766,113.890272 C177.994766,113.890272 181.549806,113.890272 181.594087,113.890272 C190.22682,113.890272 191.501904,124.638849 192.256186,130.914803 C192.940525,136.604398 194.190953,142.324668 194.665462,148.024321 C195.23457,154.869033 194.20152,161.803761 194.931649,168.648473 C195.163117,170.817398 195.582778,172.958665 196.123707,175.069759 C196.46638,176.405914 196.857359,177.729497 197.280542,179.041513 C198.308056,182.228772 202.879541,189.603521 197.227707,191.187093 C193.516678,192.226548 188.588935,188.199477 186.57869,185.540243 C181.611195,178.969601 181.243363,169.516948 181.234809,161.619706 C181.234809,160.866894 181.774229,155.229598 181.774229,155.229598 C181.594087,153.726487 182.13401,151.283492 182.13401,151.283492 C182.13401,151.283492 183.213353,146.774159 183.393495,145.270545 C184.06777,139.633752 184.566432,134.519453 184.046133,128.855003 C183.86901,126.926454 183.050823,125.090939 181.564902,123.731149 C181.179458,123.378629 176.506833,121.290668 176.539037,122.254188 C176.581305,123.53402 177.124247,126.943049 176.553126,127.98703 C175.745506,129.462483 175.053116,131.380974 173.93704,132.572298 C170.920414,135.791742 166.386166,138.705434 162.727972,141.264092 C160.086223,143.113185 157.321192,145.92077 158.200265,149.592303 C158.379401,150.34411 161.259159,155.417676 161.439805,156.16898 C161.618941,156.920787 164.318053,159.738429 164.857977,160.865888 C165.429098,162.058218 166.493848,162.790916 167.033268,163.952571 C167.915361,165.850443 167.898756,167.731218 167.200831,169.625068 C165.946377,173.029571 164.972704,176.534652 163.811844,179.973351 C163.011771,182.343429 160.179313,185.231977 160.179313,187.73733 C160.179313,188.865292 158.200265,191.871514 158.020627,194.126432 C157.839981,196.38135 156.760638,195.441466 156.579993,196.547804 C156.400857,197.654644 154.060519,196.38135 153.520595,196.38135 C152.981679,196.38135 149.022577,196.757002 148.302512,196.38135 C147.582447,196.005195 143.623345,196.38135 143.623345,196.38135 C143.623345,196.38135 144.164275,195.441466 144.703695,194.690161 C145.243618,193.938857 147.042523,191.871514 147.042523,191.871514 L148.482654,189.804673 C148.482654,189.804673 149.922785,187.174103 150.642347,186.610374 C151.361406,186.046644 152.081471,183.039919 152.081471,183.039919 L154.060519,179.84562 L155.141372,176.275165 L156.579993,173.26844 L156.579993,167.631145 L155.501153,165.188652 C155.501153,165.188652 153.520595,160.866894 153.520595,160.303667 C153.520595,159.739434 151.024771,159.363782 151.024771,159.363782 L151.024771,160.491241 C151.024771,160.491241 150.821986,161.430623 151.001122,161.994353 C151.290456,162.972456 149.936874,163.597537 149.580615,164.228652 C148.618515,165.932916 148.668331,166.996509 147.350979,168.441286 C146.439701,169.441516 145.497729,170.472422 144.703695,171.577754 C143.367724,173.436402 141.77714,174.687067 140.28518,176.2812 C140.198632,176.374233 138.044977,178.953509 138.044977,178.905735 C138.044977,178.905735 137.145273,180.033194 136.425208,181.348731 C136.425208,181.348731 135.345864,183.039919 134.986083,183.603649 C134.626302,184.167378 132.646751,184.918682 131.926686,185.670489 C131.207124,186.422296 129.227573,186.986026 129.227573,186.986026 L127.247519,187.174103 L125.988537,187.73733 L126.527957,188.865292 C126.527957,188.865292 126.708099,190.743552 126.888241,191.307784 C127.06788,191.871514 127.247519,193.18705 127.427661,193.751283 C127.607803,194.314509 126.348318,196.38135 126.348318,196.38135 L115.010937,196.38135 L113.212032,194.690161 L112.491463,193.18705 L113.571813,192.059088 L115.370718,190.55648 L115.190576,189.428518 C115.190576,189.428518 116.63121,187.361678 117.170127,186.986026 C117.71005,186.610374 121.489512,184.54303 122.028932,184.167378 C122.568856,183.791726 124.728548,181.536808 124.728548,181.536808 L126.708099,179.657039 L128.687147,177.403127 L130.486555,175.523861 C130.486555,175.523861 132.466609,173.26844 133.905734,171.765832 C136.596292,168.956236 137.513105,166.127028 138.410797,162.345363 C138.670946,161.249586 139.485108,159.920472 139.485108,158.800053 C139.485108,158.79955 139.485108,155.793328 139.485108,155.793328 C139.485108,155.793328 138.044977,152.222873 138.044977,151.471569 C138.044977,150.719762 136.245065,146.962236 136.245065,146.398004 C136.245065,145.834274 132.82639,143.203201 132.82639,143.203201 C132.82639,143.203201 130.30742,140.949289 129.766993,140.760708 C129.227573,140.573134 127.967585,138.505288 127.967585,138.505288 C126.54104,136.163874 126.101252,133.154635 124.819626,130.748852 C122.932662,127.208571 117.653693,128.639267 114.560078,127.76878 C110.064576,126.502023 105.272695,126.530184 100.678064,125.456533 C96.8346962,124.558891 92.1887399,123.711034 88.794218,121.54412 C82.1828004,117.321429 75.2206591,113.529204 70.2028452,107.125518 C70.191775,107.11194 68.5825724,105.058175 68.5825724,105.058175 L67.5032291,102.803759 L64.443832,101.675797 L62.1045002,101.675797 C62.1045002,101.675797 59.045103,100.736919 58.505683,100.173189 C57.9652566,99.6089568 56.7057712,97.9177683 56.7057712,97.3540388 C56.7057712,96.7903093 54.3664394,93.5965125 54.3664394,93.5965125 C54.3664394,93.5965125 52.9268119,90.7773621 52.9268119,90.2136326 C52.9268119,89.6499031 48.4282904,85.5162219 48.4282904,85.5162219 L44.469189,81.1939604 L41.7695729,78.3753128 L33.4920921,71.2349066 L32.9516657,72.7385205 L32.4122457,76.1208976 L31.8723224,78.9395452 C31.8723224,78.9395452 31.1527603,83.0732264 31.3323992,84.2006854 C31.5120382,85.3281444 30.4326949,87.019333 30.4326949,87.5830625 C30.4326949,88.146792 31.1527603,88.8980961 31.3323992,89.4623285 C31.5120382,90.026058 33.4920921,92.8447056 33.4920921,92.8447056 C33.4920921,92.8447056 34.0315121,94.1597392 34.2116543,94.7234687 C34.3917964,95.2871982 34.3917964,96.0390052 34.3917964,96.0390052 C34.3917964,96.0390052 35.2909975,96.7903093 36.191205,96.0390052 C37.0909093,95.2871982 36.7311282,94.9115462 37.2710514,94.7234687 C37.8109746,94.5358941 38.5305368,94.9115462 40.506062,96.0390052 L41.949715,98.2934204 L42.6692772,100.173189 C42.6692772,100.173189 43.2092004,103.555063 43.2092004,104.306368 C43.2092004,105.058175 41.5899339,107.688745 40.506062,108.628629 C40.506062,108.628629 39.07046,107.50117 38.1702525,106.937441 C37.2710514,106.373711 35.8314239,105.810484 35.8314239,105.810484 C35.8314239,105.810484 34.3917964,104.682522 33.1318078,103.367489 C31.8723224,102.051952 31.5120382,101.300145 31.5120382,101.300145 L29.8927717,101.300145 C29.8927717,101.300145 28.6332863,100.173189 28.4531442,99.6089568 C28.2730021,99.0452273 26.4735935,97.3540388 26.4735935,97.3540388 L25.2136049,96.0390052 L24.4940428,93.7835842 C24.4940428,93.7835842 24.4940428,90.5892846 24.8538238,89.6499031 C25.2136049,88.7100186 25.9336703,85.5162219 25.9336703,84.9524924 C25.9336703,84.3887629 26.6537356,82.3214194 27.0135167,81.5701153 C27.3732978,80.8183083 27.0135167,78.3753128 27.1931556,77.8115833 C27.3732978,77.2483566 27.913221,74.4297091 27.913221,73.8654767 C27.913221,73.30225 28.4531442,70.295525 28.4531442,70.295525 C26.083621,70.5706009 23.7785061,71.3752104 21.3541352,71.6714072 C19.2125571,71.9334082 18.8547888,72.5670381 17.6672597,74.17676 C16.444004,75.8352613 14.0110788,76.3089751 12.3847677,77.4520234 C10.1189016,79.0441444 13.8893067,82.5105026 11.045275,83.0933416 C11.0971036,83.7289831 10.7961958,84.4169242 10.1973993,84.709098 C9.66351441,84.9690874 8.79802705,84.6638387 8.24904641,84.5863951 C6.67758304,84.3651275 5.08146334,84.0231684 3.56837004,83.54342 C1.91790578,83.0204239 -1.69147839,81.5992824 0.920079376,79.6908493 C0.923601709,79.687832 2.71948797,78.3753128 2.71948797,78.3753128 C4.52795398,77.0472043 6.60260768,76.0731239 8.43874916,74.6474565 C10.2265844,73.2595052 10.7161886,72.2074783 11.4956304,70.1627644 C12.4828898,67.5714191 14.2712282,67.0866418 16.79825,66.8925298 C19.3388579,66.697412 21.3964031,65.2219594 23.9536164,65.2219594 C24.4940428,65.2219594 25.3942502,64.8458045 25.3942502,64.8458045 L27.3732978,63.5307708 L28.9930674,62.4033118 C28.9930674,62.4033118 30.0729139,62.2157372 30.6123339,62.2157372 C31.1527603,62.2157372 33.1318078,61.8395823 33.1318078,61.8395823 L35.1113585,61.4639303 L37.8109746,60.9002007 L40.1503064,60.1483938 L41.4097918,60.3364712 L42.6692772,60.9002007 L44.2890468,63.9069258 L46.2685976,65.2219594 C46.2685976,65.2219594 48.9677104,67.4768774 49.8679179,67.6649549 C50.7676222,67.8525295 52.2067465,68.416259 52.7466698,68.7919111 C53.286593,69.168066 54.3664394,69.3561434 54.3664394,69.3561434 L61.2047959,73.4898246 C61.2047959,73.4898246 63.904412,72.3628685 64.6239741,71.9867136 C65.3435363,71.6110615 67.323087,70.1074475 67.323087,70.1074475 L71.8221117,67.8525295 C71.8221117,67.8525295 73.8011592,65.9732635 74.3415856,65.5976114 C74.8810056,65.2219594 76.6809174,62.4033118 76.6809174,62.4033118 L78.6604681,59.2090122 L80.1000956,56.9540941 L81.1799421,53.4671178 L81.1799421,44.1763928 L79.0202492,43.4245858 L76.5007753,43.9883153 L72.3620349,45.8675813 L69.4827799,47.3706924 L67.323087,48.8738035 C64.6848601,50.7103246 61.789503,54.9943672 58.1901827,54.2616697 C57.2487136,54.0705749 56.7269052,53.250879 55.8136148,53.1578461 C54.7362843,53.0477151 53.952817,53.5596479 52.7416379,53.1311934 C52.649554,53.0985061 51.258736,52.5986425 49.8679179,51.6295909 L49.8679179,46.6188854 L51.547064,43.8636009 L53.9467787,40.3555035 L56.1064715,37.8506537 L58.2656612,34.3425564 L60.6648727,30.8349619 L62.344522,28.5800439 L63.7841495,24.8215119 L65.4637988,19.5608745 L68.103032,17.0550189 L69.5431627,14.8001008 L75.3011695,10.791637 C75.3011695,10.791637 74.4070003,7.58174808 74.3451079,7.35846895 C74.0049513,6.07712836 74.8488014,4.0887372 75.3756417,3 C76.4871891,4.21144014 77.1101388,6.42763637 78.6720415,7.27197343 C80.4739661,8.24504802 82.8867636,7.01399552 84.7787593,7.53447728 C84.7792624,7.53447728 88.1934088,8.47436172 88.1934088,8.47436172 C88.1934088,8.47436172 91.2573347,9.60131787 91.9768968,9.78889245 C92.696459,9.9774728 92.8766011,10.791637 92.8766011,10.791637 L97.7354069,12.4199654 L100.254881,14.2992314 L102.233928,17.117879 L103.674059,19.3727971 L106.899006,22.5670967 L108.712504,24.0702078 C108.712504,24.0702078 110.692054,25.5738217 111.231474,26.3256287 C111.771901,27.0769328 111.231474,28.0163144 111.591759,28.9556959 C111.952043,29.8955804 113.931091,31.586266 113.931091,31.586266 L115.190576,33.8411841 L116.450564,36.4722571 L116.810849,39.1028272 L117.890192,42.2971268 L117.71005,46.8074658 C117.71005,46.8074658 117.170127,50.7530695 117.350269,51.8805285 C117.530411,53.0079875 116.990488,54.5110986 116.990488,54.5110986 L116.450564,56.0147126 L115.370718,59.9608192 C115.370718,59.9608192 115.731506,61.2758528 116.09028,62.0276598 C116.450564,62.7789639 117.350269,64.4706553 117.890192,65.2219594 C118.430115,65.9732635 119.509458,67.1012254 120.049885,67.6649549 C120.460757,68.0943438 121.393909,69.0687398 121.815328,69.5087652 Z M120.973284,73.281877 L119.689601,73.1141726 L118.250476,72.5504431 C118.250476,72.5504431 120.227008,76.4915209 120.229524,76.4965497 C121.856474,79.7395331 124.094743,82.4758016 126.703513,84.8449823 L123.522401,80.1952388 L121.963518,76.8153762 L121.483977,74.5629725 L120.973284,73.281877 Z"/>
  </g>
</svg>
