<svg xmlns="http://www.w3.org/2000/svg" width="200" height="200" viewBox="0 0 200 200">
  <g fill="none" fill-rule="evenodd">
    <path fill="#fff" fill-rule="nonzero" d="M411.481898,-143.199902 C411.781898,-143.599902 411.981898,-143.999902 412.281898,-144.399902 C412.881898,-145.199902 412.581898,-146.599902 411.581898,-146.899902 C407.381898,-148.099902 403.081898,-149.099902 398.781898,-149.699902 C402.481898,-150.199902 406.181898,-150.699902 409.881898,-151.399902 C411.481898,-151.699902 411.681898,-153.899902 410.181898,-154.599902 C408.181898,-155.499902 406.081898,-155.599902 403.981898,-155.199902 C402.281898,-155.099902 400.481898,-154.999902 398.781898,-154.799902 C398.981898,-155.599902 399.281898,-156.399902 399.681898,-157.099902 C402.281898,-157.599902 404.781898,-158.199902 407.381898,-158.699902 C409.481898,-159.099902 410.581898,-160.899902 409.281898,-162.699902 C408.981898,-163.199902 408.381898,-163.299902 407.781898,-163.199902 C402.481898,-162.599902 396.981898,-162.399902 391.681898,-162.499902 C387.281898,-165.399902 381.681898,-166.999902 376.181898,-167.599902 C375.781898,-167.899902 375.281898,-168.099902 374.881898,-168.399902 C369.881898,-171.599902 364.781898,-174.699902 360.181898,-178.499902 C353.781898,-183.799902 349.881898,-191.399902 343.481898,-196.299902 C343.181898,-196.799902 342.881898,-197.299902 342.581898,-197.799902 C342.181898,-198.399902 341.781898,-198.999902 341.281898,-199.599902 C340.881898,-208.099902 335.381898,-215.999902 328.381898,-220.399902 C321.581898,-224.699902 313.381898,-224.999902 306.081898,-222.399902 C304.581898,-223.899902 302.981898,-225.099902 301.181898,-225.999902 C301.081898,-226.299902 300.881898,-226.499902 300.581898,-226.699902 C298.481898,-227.899902 296.081898,-228.699902 293.981898,-229.899902 C291.781898,-231.099902 289.781898,-232.599902 287.781898,-234.099902 C283.681898,-237.099902 279.781898,-240.199902 275.381898,-242.699902 C268.281898,-246.699902 258.081898,-249.099902 250.081898,-245.999902 C249.781898,-246.299902 249.481898,-246.599902 249.181898,-246.899902 C250.181898,-247.099902 251.181898,-247.299902 252.281898,-247.599902 C253.181898,-247.799902 253.581898,-248.699902 253.381898,-249.599902 C253.281898,-250.299902 253.181898,-250.899902 253.081898,-251.499902 C256.181898,-261.499902 256.681898,-272.999902 254.081898,-283.199902 C251.281898,-293.899902 241.381898,-297.299902 231.581898,-299.399902 C222.081898,-301.499902 210.481898,-301.999902 201.381898,-297.999902 C192.681898,-294.199902 187.681898,-285.599902 185.181898,-276.799902 C185.081898,-276.699902 184.981898,-276.599902 184.881898,-276.499902 C184.381898,-275.999902 184.481898,-274.999902 185.081898,-274.699902 C187.181898,-273.399902 189.381898,-272.199902 191.681898,-270.999902 C191.581898,-270.199902 191.481898,-269.499902 191.281898,-268.699902 C190.781898,-266.299902 189.281898,-263.999902 189.281898,-261.599902 C189.281898,-260.299902 190.581898,-259.099902 191.381898,-258.199902 C191.881898,-257.699902 192.281898,-257.199902 192.781898,-256.599902 C191.781898,-254.399902 190.481898,-252.399902 189.181898,-250.399902 C187.981898,-248.599902 187.381898,-246.499902 188.681898,-244.599902 C188.881898,-244.299902 189.281898,-243.999902 189.681898,-244.199902 C190.781898,-244.599902 191.781898,-244.899902 192.881898,-245.099902 C192.981898,-244.099902 192.981898,-243.099902 192.881898,-241.999902 C192.781898,-241.199902 192.681898,-239.899902 193.381898,-239.299902 C194.281898,-238.499902 195.081898,-238.499902 196.181898,-238.599902 C197.381898,-238.799902 198.281898,-238.899902 199.281898,-238.799902 C199.181898,-238.599902 198.981898,-238.399902 198.881898,-238.199902 C198.081898,-237.099902 197.181898,-236.399902 196.681898,-235.199902 C195.781898,-233.199902 197.981898,-231.599902 199.281898,-230.299902 C198.881898,-228.799902 198.481898,-227.299902 199.081898,-225.699902 C199.781898,-223.799902 201.981898,-223.299902 203.781898,-223.099902 C206.781898,-222.799902 210.281898,-223.599902 213.181898,-224.299902 C213.481898,-224.399902 213.681898,-224.399902 213.981898,-224.499902 C215.581898,-223.099902 217.381898,-221.799902 218.781898,-220.499902 C220.281898,-219.199902 221.681898,-217.899902 223.081898,-216.599902 C221.281898,-213.199902 219.781898,-209.699902 218.381898,-206.099902 C217.181898,-202.799902 216.081898,-199.499902 215.281898,-196.099902 C214.581898,-193.399902 213.681898,-190.299902 213.581898,-187.399902 C212.381898,-186.499902 211.281898,-185.699902 210.081898,-184.899902 C208.481898,-183.799902 208.481898,-183.299902 208.181898,-181.299902 C207.281898,-175.599902 205.781898,-170.099902 203.881898,-164.799902 C200.681898,-163.299902 197.581898,-161.499902 194.781898,-159.299902 C190.281898,-155.799902 185.981898,-151.799902 185.081898,-146.099902 C184.681898,-143.499902 181.981898,-142.699902 180.681898,-140.699902 C180.181898,-139.899902 179.881898,-139.099902 179.881898,-138.299902 C177.581898,-136.499902 175.381898,-134.599902 173.181898,-132.699902 C170.681898,-130.499902 168.081898,-128.299902 165.581898,-126.199902 C163.281898,-124.199902 160.581898,-122.399902 158.381898,-120.299902 C156.381898,-119.399902 154.481898,-118.299902 152.681898,-117.099902 C147.481898,-113.499902 142.281898,-110.099902 136.581898,-107.299902 C133.681898,-105.899902 130.681898,-104.799902 127.781898,-103.599902 C126.481898,-103.099902 124.581898,-101.799902 125.081898,-100.099902 C126.081898,-96.4999017 131.581898,-97.5999017 134.481898,-99.2999017 C137.881898,-98.5999017 141.681898,-99.1999017 145.281898,-100.299902 C144.981898,-99.8999017 144.781898,-99.4999017 144.581898,-99.0999017 C143.681898,-96.8999017 144.581898,-94.8999017 146.781898,-93.9999017 C147.381898,-93.7999017 148.081898,-93.9999017 148.481898,-94.4999017 C149.781898,-95.8999017 151.281898,-97.0999017 152.681898,-98.3999017 C155.981898,-99.6999017 159.181898,-101.399902 162.381898,-102.999902 C165.681898,-104.699902 168.781898,-107.199902 170.281898,-110.499902 C175.081898,-112.699902 179.681898,-115.399902 184.181898,-118.099902 C187.081898,-119.799902 189.981898,-121.499902 192.881898,-123.199902 C192.981898,-123.099902 192.981898,-123.099902 193.081898,-122.999902 C193.481898,-122.699902 194.081898,-122.799902 194.481898,-122.999902 C200.081898,-126.099902 205.581898,-129.399902 211.081898,-132.699902 C216.881898,-132.899902 222.781898,-133.099902 228.481898,-133.899902 C231.981898,-134.399902 233.181898,-138.199902 234.381898,-140.999902 C236.281898,-145.099902 238.381898,-149.099902 240.581898,-153.099902 C242.781898,-157.199902 245.181898,-161.199902 247.681898,-164.999902 C249.281898,-164.299902 250.881898,-163.499902 252.481898,-162.599902 C257.781898,-159.699902 261.781898,-155.399902 266.081898,-151.199902 C269.981898,-147.299902 273.981898,-144.399902 278.881898,-141.799902 C282.581898,-139.799902 284.481898,-135.899902 286.281898,-131.999902 C285.781898,-130.599902 284.881898,-129.299902 283.481898,-129.199902 C282.481898,-129.099902 281.481898,-128.199902 281.881898,-127.099902 C282.381898,-125.599902 282.781898,-123.899902 283.381898,-122.299902 C276.481898,-117.699902 270.281898,-111.899902 265.181898,-105.399902 C263.681898,-105.199902 262.181898,-104.899902 260.681898,-104.499902 C259.181898,-104.099902 257.781898,-103.599902 257.281898,-101.899902 C256.781898,-99.8999017 256.781898,-97.3999017 256.881898,-95.0999017 C255.081898,-94.4999017 253.381898,-93.7999017 251.581898,-93.1999017 C247.481898,-91.6999017 244.381898,-90.2999017 241.581898,-86.8999017 C236.081898,-80.2999017 229.481898,-74.5999017 224.181898,-67.7999017 C221.981898,-64.9999017 221.181898,-62.3999017 222.181898,-58.8999017 C223.281898,-54.9999017 225.281898,-51.1999017 227.281898,-47.7999017 C228.981898,-44.7999017 230.981898,-41.6999017 233.281898,-38.8999017 C237.381898,-27.3999017 242.181898,-16.0999017 247.481898,-5.09990173 C246.481898,-3.99990173 245.481898,-3.09990173 244.281898,-2.29990173 C243.181898,-1.59990173 242.881898,-0.0999017304 243.881898,0.90009827 C247.281898,4.30009827 251.581898,7.50009827 256.281898,9.70009827 C257.381898,13.6000983 258.781898,17.5000983 259.781898,21.4000983 C260.681898,24.7000983 261.381898,28.0000983 261.981898,31.3000983 C259.481898,37.6000983 253.481898,42.6000983 247.381898,45.9000983 C242.581898,48.5000983 237.481898,50.2000983 232.481898,52.4000983 C230.981898,53.1000983 227.781898,53.7000983 227.581898,55.7000983 C227.381898,58.3000983 227.681898,60.6000983 228.681898,63.0000983 C228.881898,63.5000983 229.281898,63.8000983 229.781898,64.0000983 C229.781898,64.1000983 229.781898,64.2000983 229.781898,64.3000983 C229.681898,65.1000983 229.981898,65.8000983 230.781898,66.0000983 C232.281898,66.5000983 233.681898,66.8000983 235.181898,67.1000983 C234.681898,68.5000983 233.881898,69.8000983 232.981898,71.0000983 C229.481898,70.2000983 225.781898,70.9000983 223.281898,74.2000983 C219.181898,79.4000983 221.581898,86.3000983 226.481898,89.9000983 C231.781898,93.8000983 240.481898,92.9000983 244.581898,87.7000983 C245.281898,86.8000983 245.781898,85.9000983 246.181898,84.8000983 C248.081898,87.7000983 251.181898,89.7000983 254.881898,90.0000983 C260.181898,90.4000983 265.581898,85.7000983 266.181898,80.6000983 C266.281898,79.8000983 266.281898,79.0000983 266.181898,78.2000983 C266.981898,77.8000983 267.881898,77.3000983 268.581898,76.8000983 C268.781898,79.1000983 269.681898,81.5000983 271.281898,83.5000983 C273.181898,85.8000983 275.781898,87.1000983 278.381898,87.4000983 C279.181898,90.9000983 281.581898,94.1000983 284.381898,95.9000983 C290.181898,99.6000983 297.381898,96.6000983 299.581898,90.6000983 C300.681898,90.5000983 301.781898,90.3000983 302.881898,90.2000983 C304.581898,94.3000983 308.781898,97.2000983 313.181898,97.4000983 C318.681898,97.7000983 322.681898,93.4000983 323.481898,88.4000983 C323.481898,88.4000983 323.581898,88.4000983 323.581898,88.4000983 C324.981898,92.7000983 328.781898,95.9000983 333.281898,97.0000983 C338.481898,98.3000983 344.281898,95.8000983 345.581898,90.7000983 C347.481898,94.2000983 351.281898,96.6000983 355.381898,97.1000983 C361.581898,97.9000983 366.781898,92.9000983 366.881898,86.9000983 C366.981898,81.7000983 362.381898,76.4000983 357.381898,74.9000983 C356.581898,73.1000983 355.881898,71.3000983 355.281898,69.5000983 C355.381898,69.5000983 355.481898,69.5000983 355.581898,69.5000983 C356.281898,69.5000983 356.781898,69.2000983 357.081898,68.8000983 C357.681898,68.7000983 358.081898,68.2000983 358.081898,67.5000983 C357.381898,59.5000983 354.281898,51.6000983 349.281898,45.2000983 C347.781898,39.9000983 345.581898,34.7000983 343.481898,29.8000983 C341.781898,25.8000983 339.881898,21.8000983 337.881898,17.8000983 C339.881898,17.5000983 341.881898,17.2000983 343.981898,17.0000983 C345.581898,16.9000983 346.381898,15.2000983 345.281898,13.9000983 C335.381898,2.50009827 330.881898,-12.1999017 323.181898,-24.9999017 C324.181898,-25.0999017 325.181898,-25.0999017 326.181898,-24.9999017 C327.181898,-24.8999017 327.981898,-26.0999017 327.681898,-26.9999017 C326.681898,-30.0999017 325.481898,-33.0999017 324.081898,-35.8999017 C325.081898,-36.7999017 325.981898,-37.7999017 326.781898,-38.7999017 C327.181898,-39.2999017 327.381898,-39.9999017 326.981898,-40.5999017 C326.081898,-41.8999017 325.381898,-43.1999017 324.681898,-44.5999017 C328.081898,-58.7999017 339.181898,-69.9999017 343.881898,-83.5999017 C349.381898,-90.2999017 354.881898,-97.0999017 359.181898,-104.699902 C364.181898,-113.799902 367.281898,-125.399902 363.181898,-135.399902 C363.081898,-135.499902 363.081898,-135.599902 362.981898,-135.699902 C362.981898,-135.999902 362.881898,-136.299902 362.681898,-136.699902 C359.681898,-141.599902 356.881898,-147.099902 353.281898,-151.599902 C351.581898,-153.699902 349.581898,-155.499902 347.181898,-156.799902 C345.081898,-157.899902 342.881898,-158.499902 340.781898,-159.599902 C338.981898,-163.699902 336.481898,-167.699902 333.981898,-171.499902 C333.981898,-171.499902 333.981898,-171.599902 333.981898,-171.599902 C334.181898,-171.499902 334.381898,-171.399902 334.581898,-171.299902 C339.181898,-169.299902 343.781898,-167.299902 348.081898,-164.599902 C350.081898,-163.299902 351.881898,-161.899902 353.581898,-160.299902 C353.581898,-158.099902 354.181898,-156.099902 355.681898,-154.799902 C357.281898,-153.499902 359.081898,-153.099902 360.781898,-153.399902 C362.881898,-152.299902 364.781898,-151.199902 366.281898,-149.599902 C368.681898,-146.999902 369.481898,-143.099902 371.481898,-140.199902 C375.681898,-133.899902 385.081898,-134.999902 390.481898,-130.499902 C390.981898,-130.099902 391.681898,-130.199902 392.081898,-130.499902 C395.381898,-133.199902 394.681898,-136.399902 392.281898,-139.099902 C394.281898,-138.399902 396.381898,-137.599902 398.381898,-136.899902 C401.181898,-135.999902 403.981898,-134.999902 406.781898,-134.099902 C408.381898,-133.599902 409.381898,-133.199902 410.781898,-134.099902 C411.181898,-134.399902 411.381898,-134.999902 411.281898,-135.499902 C410.681898,-138.799902 404.281898,-141.399902 401.681898,-142.799902 C401.281898,-142.999902 400.881898,-143.199902 400.481898,-143.399902 C403.581898,-142.999902 406.581898,-142.699902 409.681898,-142.299902 C410.581898,-142.499902 411.181898,-142.799902 411.481898,-143.199902 Z M268.381898,65.2000983 C264.681898,64.9000983 253.981898,68.2000983 253.981898,68.2000983 L255.481898,63.7000983 L275.581898,59.5000983 C275.581898,59.5000983 274.381898,62.2000983 275.981898,62.5000983 C277.581898,62.8000983 280.281898,63.8000983 280.281898,63.8000983 C280.281898,63.8000983 272.081898,65.5000983 268.381898,65.2000983 Z M314.581898,47.9000983 L304.581898,50.6000983 C304.581898,50.6000983 304.881898,43.0000983 298.781898,35.9000983 C292.681898,28.8000983 294.881898,21.8000983 293.581898,19.6000983 C292.281898,17.4000983 288.981898,15.7000983 288.481898,12.5000983 C288.081898,9.20009827 287.781898,2.50009827 291.181898,2.70009827 C291.181898,2.70009827 297.881898,9.40009827 299.681898,13.1000983 C301.481898,16.8000983 302.981898,32.0000983 302.981898,32.0000983 C302.981898,32.0000983 308.481898,30.5000983 309.981898,31.4000983 C311.481898,32.3000983 313.681898,38.7000983 314.581898,41.2000983 C315.481898,43.7000983 314.581898,47.9000983 314.581898,47.9000983 Z M331.981898,71.9000983 L329.581898,75.9000983 L323.181898,76.3000983 L320.081898,75.1000983 C319.981898,74.4000983 318.581898,72.4000983 318.581898,72.4000983 L331.981898,71.9000983 Z"/>
    <path fill="#fff" d="M129.345628,156.228616 C130.240575,153.677461 132.403978,151.112709 134.396035,149.630715 C134.43918,151.8432 134.243179,153.663864 133.811731,155.285529 C132.325085,155.83556 130.832275,156.384355 129.345628,156.938094 C129.345628,156.699542 129.345628,156.464697 129.345628,156.228616 Z M9,83.167184 C10.0108209,82.8841343 10.3448849,82.0139728 11.2361331,81.6357492 C12.5649929,81.1611156 13.8926199,80.6901901 15.2288758,80.2229727 C15.3127,80.3774758 15.3866625,80.5319789 15.4643231,80.6901901 C19.4262481,78.7842397 23.680325,75.5816992 29.4457024,76.0946495 C29.4457024,76.1342023 29.4457024,76.1749912 29.4457024,76.2133079 C29.3705072,76.2133079 29.2903812,76.2133079 29.2127205,76.2133079 C28.3781769,77.2639291 26.9198828,77.3158421 25.8055144,78.0982459 C25.8412629,78.1785875 25.8782442,78.2564571 25.921389,78.3367987 C26.1962829,78.4134323 26.4711769,78.4925379 26.7448382,78.5716434 C26.7448382,78.7656994 26.7448382,78.9634633 26.7448382,79.1587553 C25.1842293,79.2329168 23.7271679,80.0029603 22.9863101,80.9275069 C22.9863101,80.9707678 22.9863101,81.0078485 22.9863101,81.0424572 C26.2690127,80.5937802 29.2546326,80.2748858 32.618694,80.4590535 C32.618694,80.6160286 32.618694,80.7705318 32.618694,80.9275069 C31.6017095,81.7927244 30.5834923,82.6554697 29.5665079,83.5219232 C26.2924342,85.3351717 24.5617115,84.3475878 23.2217574,88.5859172 C24.3127044,88.3918613 25.4159785,88.1965694 26.5056928,88.0000414 C26.5056928,88.0383582 26.5056928,88.076675 26.5056928,88.1199358 C26.3898182,88.4301781 26.276409,88.7416564 26.158069,89.0568427 C29.6688227,89.1297682 29.7674393,87.581029 31.802641,86.1151034 C34.7771665,84.0348735 37.7553901,81.9459914 40.7286829,79.8669975 C42.2486124,78.70019 43.3124398,77.0154881 45.3131256,76.3282582 C43.8005924,79.1810037 41.8935924,83.212917 39.4380372,85.1720164 C36.6299273,87.4116936 33.0193242,89.0012216 30.8571536,91.8848677 C30.9791917,92.0418429 31.096299,92.200054 31.2097082,92.3582652 C31.291067,92.2803957 31.3637968,92.200054 31.4488537,92.1234205 C31.595546,91.8465509 32.8270217,91.850259 33.9118052,92.0047621 C33.7577166,92.396582 33.5986972,92.7896379 33.4409105,93.1839299 C35.3429797,92.2853398 36.6545815,89.4795632 39.6747172,89.8825073 C39.7116984,89.9591409 39.7548432,90.0431906 39.7918245,90.1161161 C39.6747172,90.2743272 39.552679,90.4387186 39.4380372,90.5907496 C39.5970565,90.5536689 39.7548432,90.510408 39.9076991,90.4720912 C39.442968,91.6908118 38.0919195,92.495464 37.3239422,93.537433 C37.6875911,94.033079 37.7849751,93.7834019 37.6777295,94.2444392 C37.3116151,94.8426753 36.3168193,95.0144828 35.5624018,95.1887623 C35.5624018,95.225843 35.5624018,95.2641598 35.5624018,95.3098927 C38.7674438,95.3136008 39.8534599,92.8106503 42.0217941,91.650023 C42.0587753,91.650023 42.0945239,91.650023 42.136436,91.650023 C42.136436,91.6908118 42.136436,91.7303646 42.136436,91.7686814 C41.5114528,92.7896379 39.1458853,96.1355573 39.7918245,96.9575139 C39.9076991,96.7548058 40.022341,96.563222 40.1443791,96.3642219 C41.637189,97.4037189 39.3887288,98.4110792 38.9671425,100.02162 C39.2432692,99.8238557 39.510767,99.6285637 39.7918245,99.4283277 C39.7548432,99.5853028 39.7116984,99.742278 39.6747172,99.8992532 C39.7548432,99.8584643 39.8337366,99.8238557 39.9076991,99.7830668 C40.2245051,98.5285016 40.9850863,97.8326195 41.9046868,97.1898866 C41.9860455,97.2689922 42.0587753,97.3493338 42.136436,97.4247313 C42.0587753,97.5433897 41.9860455,97.659576 41.9046868,97.7807065 C41.7703216,97.8326195 38.8155194,101.781719 38.6145879,102.137694 C40.3514741,101.464061 41.4670753,99.9326258 42.9598852,98.9574022 C43.0400113,99.0340357 43.1176719,99.1180854 43.1977979,99.1910109 L43.1977979,99.193483 C43.2766913,99.2738246 43.3568173,99.3492221 43.434478,99.4283277 C43.2409427,99.838688 43.1435588,99.9672345 43.1977979,100.371415 C43.5503526,100.605023 43.9053726,100.843576 44.2529964,101.079657 C44.2653235,99.2837128 45.7988128,98.6731165 46.8416841,98.1342096 C46.9218102,98.2096071 47.0007035,98.2924208 47.0795969,98.3690543 C47.1523267,98.3690543 47.2336854,98.3690543 47.3101133,98.3690543 C47.1523267,98.6434519 47.0007035,98.9178494 46.8416841,99.1910109 C47.3853086,99.0018991 47.4814598,98.6792966 47.8968826,98.3690543 C48.017688,98.4073711 48.1323299,98.4456879 48.2506699,98.4840047 C48.1323299,98.7200854 48.017688,98.9574022 47.8968826,99.1910109 C48.2913493,98.8362718 48.6808851,98.4840047 49.0802827,98.1342096 C50.7666279,93.8662156 55.6222665,89.2978676 58.3588792,85.6392339 C59.2612218,84.2660102 60.1635644,82.8964946 61.0634416,81.5158548 C61.1509639,87.5105756 57.505845,89.6414825 56.5899426,94.2444392 C57.1989006,93.688228 57.5551533,93.2333709 58.3588792,92.8291907 C58.321898,92.9453771 58.2849167,93.0652715 58.2430046,93.1839299 C60.0822056,91.453495 61.9251048,89.7292403 63.7655385,88.0000414 C63.260128,88.7849172 62.7460886,89.5710291 62.2406781,90.3559049 C61.2582095,92.7896379 60.2782063,95.225843 59.3043666,97.659576 C59.6926698,97.6224953 60.0822056,97.5854146 60.4729742,97.5433897 C60.4729742,97.5854146 60.4729742,97.6224953 60.4729742,97.659576 C59.9133246,99.4172035 59.7284183,99.690365 59.0652212,101.198315 C59.218077,101.155054 59.3758637,101.117974 59.5336504,101.079657 C59.4572225,101.270005 59.3758637,101.470241 59.3043666,101.665533 C59.0220764,101.630924 59.1515108,101.692725 58.8297739,101.551818 C58.7915599,103.299558 57.8152548,103.82734 57.0608372,104.848297 C57.7314306,104.41816 58.3946278,103.986788 59.0652212,103.552943 C59.1022024,103.707446 59.1465799,103.871837 59.1810958,104.025104 C59.2365676,103.753179 66.8041648,94.1616256 67.408192,93.6548554 C65.019203,97.9747624 63.7581423,103.405856 62.4711946,108.741775 C62.550088,108.698514 62.630214,108.657726 62.7029438,108.618173 C63.3377887,107.054601 64.2216406,104.293322 65.5246135,103.316862 C65.4087389,103.707446 65.294097,104.100502 65.1782224,104.498502 C65.2152036,104.498502 65.2497195,104.498502 65.294097,104.498502 C65.374223,104.454005 65.4518837,104.41816 65.5246135,104.379843 C65.7921112,103.39844 66.2556096,102.817508 67.2910847,102.612328 C67.408192,102.769303 67.5289974,102.923806 67.644872,103.083253 C67.4155882,101.183483 67.5894001,98.9796506 69.5235197,98.8362718 C69.5235197,98.9178494 69.5235197,98.996955 69.5235197,99.0735885 C70.1632954,100.409731 69.0957699,102.528278 69.6443251,103.19944 C69.6813064,103.19944 69.7195203,103.19944 69.7601997,103.19944 C69.9192191,102.965831 70.0696095,102.727278 70.2310943,102.492433 C70.2532831,103.466421 70.0954964,103.835992 69.7601997,104.379843 C69.3595695,104.342763 69.5839224,104.235229 69.2917705,104.498502 C69.1697324,104.808744 69.0538578,105.126402 68.9379832,105.441589 C69.327519,105.79262 69.2412295,105.495974 69.1697324,105.912514 C68.8578571,106.462545 68.5410511,107.012576 68.2304085,107.561372 C68.3881952,107.48103 68.5410511,107.401924 68.6988377,107.325291 C68.4621577,108.636713 67.6103562,109.064378 66.9372974,109.915999 C68.6988377,109.357316 69.6874699,107.930943 70.9349709,106.853129 C71.0533109,106.853129 71.1741163,106.853129 71.2887582,106.853129 C71.2887582,106.893918 71.2887582,106.932235 71.2887582,106.970552 C71.0902921,107.597216 70.8942915,108.230061 70.6995236,108.857962 C70.7352721,108.933359 70.7771842,109.012465 70.8129327,109.096514 C70.8942915,109.053254 70.9719521,109.012465 71.0533109,108.97662 C72.4598312,106.379732 73.8725151,103.789024 75.2790355,101.198315 C74.891965,103.19944 74.5024291,105.2018 74.1104279,107.209104 C73.9292197,107.829589 74.6035112,109.305403 74.2250697,110.270738 C73.5322876,112.019713 71.1198771,112.687167 70.8129327,114.630198 C70.8511467,114.630198 70.8942915,114.630198 70.9349709,114.630198 C71.6006334,114.474459 72.2650633,114.316248 72.9294932,114.160509 C75.1656263,109.485862 77.3955959,104.808744 79.6329617,100.134098 C79.7118551,100.178595 79.7833522,100.211967 79.8708745,100.250284 C79.9016922,104.063421 79.9436043,107.876558 79.9855163,111.687223 C82.8478654,109.77262 84.4047762,107.535415 85.0383883,103.083253 C85.0815331,103.083253 85.1148162,103.083253 85.1517975,103.083253 C85.3477981,105.477434 85.5425661,107.876558 85.7447302,110.270738 C85.7817115,110.187924 85.8162273,110.114999 85.8593721,110.034657 C87.2239804,107.215285 85.9937374,101.51103 88.2138453,99.5469861 C88.7192557,101.393607 89.229597,103.241465 89.7362402,105.083142 C89.7362402,105.006508 89.7362402,104.929875 89.7362402,104.848297 C90.8937535,103.189551 91.0330495,100.284893 91.0330495,97.5433897 C91.0330495,96.6003027 91.0330495,95.6572157 91.0330495,94.7141287 C91.1316662,97.9673462 92.4851801,100.666825 93.2630191,103.434284 C93.3443779,103.397204 93.4208058,103.360123 93.5021645,103.316862 C93.7339137,102.923806 93.9705938,102.528278 94.2035757,102.137694 C94.2035757,102.218036 94.2035757,102.297141 94.2035757,102.372539 C94.3675259,103.039992 94.519149,103.707446 94.6781684,104.379843 C94.7077534,104.379843 94.7508982,104.379843 94.7928103,104.379843 C94.7928103,101.117974 94.7928103,97.85734 94.7928103,94.5991784 C94.4883313,92.9268367 94.1296131,91.2396627 94.2035757,89.2941595 C94.3675259,89.4140539 94.519149,89.5339483 94.6781684,89.6464266 C95.2797301,91.3261844 96.0181225,95.0144828 97.2619253,96.2443275 C97.3346551,94.7437933 98.1445446,94.4755759 98.3158911,93.4175386 C97.8104806,91.5733894 97.2915103,89.7292403 96.7922634,87.880147 C96.8292447,87.8418302 96.8662259,87.7985694 96.9069053,87.7651967 C98.6548859,89.118644 99.0000443,91.7686814 100.667899,93.1839299 C102.070721,86.4451221 97.3284916,80.8113206 95.6113287,75.7423824 C95.6532408,75.7028296 95.6951529,75.6632769 95.7321341,75.6249601 C99.8814308,78.8645814 100.507647,86.3276997 104.310552,89.5339483 C104.348766,89.5339483 104.391911,89.5339483 104.42766,89.5339483 C106.163313,85.6775506 100.279596,75.8523887 98.6684457,72.0886928 C98.7498044,72.1677984 98.8262324,72.24814 98.9014276,72.3247736 C100.222891,73.0354879 100.229055,74.974811 101.020453,76.2133079 C102.391225,77.9425068 103.764462,79.6667615 105.135234,81.3971964 C106.371641,83.1931406 106.877051,86.1979171 108.894995,87.1719047 C108.814869,86.935824 108.735976,86.7022153 108.657082,86.4661345 C108.850618,86.6626625 109.052782,86.8616625 109.24755,87.0557184 C109.326443,87.0149296 109.399173,86.9729047 109.485462,86.935824 C109.515047,86.8616625 109.558192,86.7800848 109.601337,86.7022153 C109.24755,86.3079233 108.894995,85.9161034 108.541208,85.5230475 C108.584352,85.4859668 108.621334,85.4451779 108.657082,85.4056251 C109.052782,85.4859668 109.44355,85.5576562 109.833086,85.6392339 C109.715979,85.4859668 109.601337,85.3277556 109.485462,85.1720164 C106.062231,83.8865505 106.604623,80.2625255 105.487789,76.8028918 C104.152766,72.6572643 100.948956,70.0937486 100.198237,65.2534751 C104.555861,65.349885 105.58394,68.4164628 108.072778,70.3199412 C109.639551,71.2630282 111.208789,72.2061152 112.775561,73.1492022 C112.050729,75.4197799 113.347538,77.952395 113.713652,79.9844199 C114.037855,81.7951964 113.149072,82.6628859 113.713652,84.1115071 C112.964166,85.3747245 112.070452,86.9840289 111.362877,88.3486004 C112.715159,90.4560229 111.086751,94.4026504 111.716665,97.0675201 C108.413006,97.5433897 103.750903,106.379732 101.843903,109.096514 C99.3032905,112.701999 96.1833054,115.825434 93.5021645,119.229447 C92.7945899,120.322093 92.0870152,121.424627 91.3868368,122.528397 C90.6804949,122.684136 89.9716875,122.839875 89.2715091,122.995615 C88.0535932,123.498677 87.7429506,124.889205 86.2069959,125.235292 C84.8732054,125.539354 83.5788615,124.889205 82.6863806,125.356422 C82.7270599,127.592391 82.7652739,129.833304 82.807186,132.068037 C83.0031866,132.112534 83.1979546,132.150851 83.3914898,132.187932 C83.0364698,133.165627 83.043866,134.043205 83.5085971,134.78482 C88.7907528,134.197708 89.4724406,132.67987 92.2090534,136.902131 C95.3845104,137.054162 100.637081,138.614025 101.723097,140.084895 C104.152766,141.380249 106.583667,142.676839 109.009637,143.970957 C109.993338,143.970957 110.973341,143.970957 111.947181,143.970957 C112.495736,144.721224 113.050455,145.465311 113.592847,146.210634 C114.458208,146.525821 115.317406,146.839771 116.182767,147.154957 C117.028405,147.742069 116.529158,148.896516 117.120859,149.749374 C117.98622,150.143666 118.844185,150.534249 119.704615,150.924833 C119.82049,151.86792 119.942528,152.812243 120.05717,153.75533 C120.64887,153.988939 121.235639,154.228728 121.824874,154.458628 C121.696672,156.170523 123.434791,158.79584 123.117985,159.41138 C122.195919,161.282722 118.973619,162.060182 117.358771,163.294971 C113.245223,166.445598 110.887052,171.515772 106.779667,174.614487 C106.894309,174.845623 107.018813,175.085412 107.132222,175.320257 C106.065929,175.682412 105.378078,176.148393 104.78268,176.965406 C104.940466,177.281828 105.098253,177.597015 105.249876,177.914673 C105.018127,177.949282 104.78268,177.986363 104.543534,178.029623 C104.543534,177.872648 104.543534,177.714437 104.543534,177.559934 C104.277269,177.637803 103.993746,177.714437 103.728714,177.791071 C103.757066,178.595723 103.79528,178.641456 103.251656,178.619207 C103.093869,178.734158 102.941013,178.85158 102.781994,178.973946 C102.823906,179.049344 102.86212,179.125977 102.902799,179.207555 C103.293568,179.245872 103.683104,179.289133 104.075105,179.326214 C104.075105,179.561058 104.075105,179.797139 104.075105,180.030748 C103.683104,180.34717 102.709264,180.559766 102.428206,180.973835 C101.953614,181.682077 101.131397,183.056537 100.550791,183.565779 C100.093457,183.89209 99.4610772,184.130642 99.022233,183.804332 C99.022233,183.528698 99.022233,183.254301 99.022233,182.976195 C99.5276435,182.953947 99.5880462,182.945294 99.8444495,182.742586 C99.4918949,182.659773 99.1368749,182.584375 98.7843203,182.50527 C98.8262324,183.374195 98.8706099,184.234468 98.9014276,185.09845 C98.8262324,185.062605 98.7498044,185.02058 98.6684457,184.978555 C98.5168225,184.313574 98.3590359,183.647357 98.2012492,182.976195 C96.6751561,182.984847 96.2745259,183.104742 95.7321341,182.976195 C95.4942214,182.23458 95.2563087,181.485549 95.030723,180.740226 C94.950597,180.858884 94.8667728,180.973835 94.7928103,181.093729 C94.5561303,180.463356 94.3243811,179.835456 94.0877011,179.207555 C93.6550204,178.510437 92.5554445,178.190307 91.8564988,177.674884 C91.2524716,177.854108 91.1809745,178.04322 90.7963695,178.384363 C90.6804949,178.226151 90.5584568,178.069176 90.4438149,177.914673 C89.9014232,178.333686 90.3562926,178.355934 89.7362402,178.269412 C89.6179002,177.804667 89.4305285,178.318853 89.2715091,178.496841 C86.7629474,180.104909 86.3043799,184.537295 84.2161718,186.631121 C80.8866262,189.962208 76.2516424,190.577748 71.0533109,192.170984 C69.2116445,192.838438 67.3712107,193.503419 65.5246135,194.173345 C65.5246135,194.209189 65.5246135,194.251214 65.5246135,194.293239 C65.7625262,195.508252 65.9930427,196.726972 66.2321881,197.946929 C69.217808,199.207674 72.3439566,198.204022 76.2257556,198.886308 C82.5754368,200.01109 89.7226804,199.155761 95.1465976,197.356109 C99.2613784,194.491003 103.373694,191.619717 107.481078,188.752139 C115.031418,184.026816 123.947598,180.886077 131.465887,176.143449 C137.493831,171.942201 143.525474,167.737244 149.558349,163.533523 C149.558349,163.613865 149.558349,163.691735 149.558349,163.767132 C150.2462,165.072374 149.777771,166.595157 149.907205,167.775561 C150.606151,168.048722 151.136216,168.190865 151.910357,167.892983 C151.727916,166.235474 151.758733,164.825169 152.148269,163.413629 C152.573554,163.37902 153.007467,163.336995 153.438915,163.294971 C153.829684,162.058946 155.103071,161.803088 155.433437,160.705498 C155.699702,159.81556 155.188128,158.963939 155.085814,158.467057 C155.085814,156.542566 155.085814,154.620548 155.085814,152.694821 C154.900907,152.155914 154.395497,151.435312 154.257433,150.693697 C154.221685,141.142932 154.182238,131.60082 154.140326,122.055 C160.613278,121.99567 168.54699,120.498844 173.062401,123.234167 C173.02542,123.349118 172.981042,123.469012 172.946526,123.58767 C170.593286,126.730882 168.36948,131.479689 167.420294,135.722963 C167.38208,138.002193 167.346332,140.276479 167.303187,142.556945 C166.797777,145.701392 166.28497,148.839659 165.780792,151.985343 C165.699433,154.108833 165.615609,156.228616 165.540414,158.350871 C165.463986,162.356828 165.390023,166.365256 165.304967,170.371213 C165.471382,171.22407 166.211007,172.413126 165.780792,173.431611 C165.304967,173.78635 164.834072,174.138617 164.371806,174.490884 C164.402624,174.928437 164.444536,175.356102 164.483983,175.78871 C164.402624,175.750393 164.328662,175.709605 164.249768,175.671288 C164.000761,174.995182 163.529866,174.6973 163.543426,174.138617 C163.354822,174.218959 163.152658,174.291884 162.951726,174.374698 C162.880229,174.021195 162.800103,173.6714 162.72121,173.31666 C163.232784,173.159685 163.739427,173.000238 164.249768,172.844499 C164.206623,172.766629 164.170875,172.686288 164.133894,172.608418 C163.4633,172.450207 162.800103,172.29694 162.12951,172.139965 C162.055547,172.177045 161.977886,172.21289 161.89776,172.256151 C162.12951,172.753033 162.244152,173.107772 162.250315,173.90748 C161.532879,174.064455 161.081707,174.37717 160.843795,173.6714 C161.081707,173.431611 161.313457,173.198002 161.545206,172.961921 C161.466312,172.722132 161.39235,172.48976 161.313457,172.256151 C154.072527,173.265983 161.12855,182.553475 159.314004,188.047605 C158.509045,190.480102 150.624642,194.672699 148.620258,197.356109 C148.76695,198.094016 149.002397,199.501848 149.558349,199.826923 C150.326326,200.28178 151.490003,199.7095 152.026231,199.593314 C154.769007,199.593314 157.510551,199.593314 160.252095,199.593314 C161.862012,199.199022 163.4633,198.808438 165.071985,198.414146 C165.572464,195.965581 168.479191,194.756748 170.007749,193.230258 C172.189643,191.04991 173.884617,187.618705 175.060621,184.510102 C175.60178,183.086201 175.139515,182.418748 175.413176,180.858884 C176.004876,175.513077 176.58918,170.170977 177.174716,164.832585 C178.679853,158.81438 180.880238,152.734374 183.055968,147.154957 C184.154312,143.348001 185.247724,139.533628 186.346067,135.722963 C187.967079,130.379627 194.06652,119.558229 191.281832,112.861446 C188.894076,107.118875 177.747926,103.685197 172.354826,100.490073 C171.557264,100.011731 169.681082,99.2429239 169.30264,98.3690543 C169.144853,97.7399177 168.989532,97.109545 168.831745,96.4841164 C167.571917,95.1665138 161.472476,92.5399609 159.314004,92.2383708 C158.687788,92.396582 158.060339,92.5547932 157.430425,92.7068243 C157.340437,91.9812776 157.181418,91.6549671 156.730247,91.2965198 C156.254421,91.5733894 155.785992,91.850259 155.322494,92.1234205 C152.855844,91.1939298 149.637242,90.561085 146.735446,90.2384825 C145.902136,86.5996252 146.560402,83.7481157 144.152922,81.5158548 C144.463565,81.1981964 144.779138,80.8879541 145.092246,80.5777119 C145.092246,80.5319789 145.092246,80.4961342 145.092246,80.4590535 C145.092246,80.1426311 145.092246,79.8262087 145.092246,79.5134944 C144.579439,79.0833578 144.075262,78.647041 143.563688,78.2206124 C143.945827,77.9425068 143.884192,78.0933018 143.799135,77.6273204 C141.885971,76.7336744 139.167849,66.8813199 138.157028,64.3091521 C138.157028,64.2745434 138.157028,64.2337546 138.157028,64.1942018 C143.970481,63.4253943 151.136216,60.2092575 155.548079,57.5950648 C157.747231,56.2576859 159.941452,54.925251 162.12951,53.586636 C165.530552,52.0564372 170.947073,51.2344806 173.062401,48.4027476 C174.598356,46.3460021 174.969401,43.4376355 176.004876,40.8605236 C176.624928,39.5243807 177.254842,38.1894738 177.882291,36.859511 C177.649309,35.4788712 177.412629,34.1044115 177.174716,32.7311878 C176.618765,29.2258212 178.545488,23.5413427 176.004876,21.5365103 C175.847089,21.5772991 175.689303,21.6156159 175.531516,21.6526966 C175.531516,21.7330382 175.531516,21.8121438 175.531516,21.8863053 C175.450157,23.461001 175.372497,25.0307527 175.298534,26.6017403 C175.177729,26.5213987 175.060621,26.4472372 174.944747,26.3706037 C174.16321,25.0715415 173.379207,23.7737153 172.593972,22.4820693 C172.354826,22.5574668 172.121844,22.6353364 171.892561,22.715678 C171.985014,27.1418832 175.360169,31.5062871 171.538773,34.7335482 C171.715051,31.7089952 173.037747,29.4520138 171.538773,26.9552435 C170.873111,26.9898521 170.849689,27.0788459 170.478644,27.3099826 C169.295244,30.5767964 168.539594,34.4591506 167.771616,38.3872378 C167.430156,40.1683497 167.887491,42.4636479 167.188545,43.9271014 C164.799556,45.3027971 162.404404,46.6735487 160.014182,48.0504805 C150.394125,50.9600831 140.306872,51.5793316 130.990061,54.7695119 C130.363845,52.8437851 129.733931,50.9205303 129.107716,48.9960395 C128.534506,47.7167538 126.914727,47.5832631 126.171404,46.5178096 C124.719273,44.4313996 124.146064,42.1546417 122.178661,40.6281509 C119.247281,38.3538651 113.592847,39.1523372 110.41739,36.9756973 C108.93814,35.5604488 107.442864,34.1439643 105.956218,32.7311878 C102.781994,30.057666 99.6090022,27.3853801 96.4397088,24.7192744 C93.8485556,22.3572308 91.2647987,20.0063114 88.6822745,17.6479759 C84.3073922,14.17969 80.0767368,11.0055781 75.1656263,7.98720527 C73.585294,7.01198162 71.8212883,5.56336043 69.877307,5.03434177 C61.7771798,2.85399384 53.6191152,2.90590689 44.7263564,1.38559626 C41.2279298,0.787360204 36.7384056,-0.636540486 32.9712486,0.323850865 C30.9113928,0.851633499 30.1273902,2.31385096 28.627184,3.27300629 C27.565822,3.62403736 26.5056928,3.97877651 25.451727,4.32980758 C21.8694763,6.52375178 18.2181938,10.7484849 16.5195216,14.9373733 C17.0138377,15.4157149 16.9867181,15.2575038 16.8794724,15.8829324 C19.2129895,15.6023547 19.4188519,14.6024106 20.395157,13.0511993 C20.6306043,13.2489633 20.8697497,13.4430192 21.1027316,13.6383111 C21.7720923,13.1068204 21.900294,12.1835098 22.5141828,11.6384228 C23.8738602,10.4271184 26.5488376,9.79056561 28.8650967,9.63235442 C28.8971472,9.75472088 28.9378265,9.86843518 28.9809713,9.98585754 C28.8650967,10.1440687 28.7430586,10.3022799 28.627184,10.4580191 C26.6462215,10.6990439 25.067122,12.1624974 24.1610813,13.5221248 C24.3496857,14.1339571 24.5875984,14.3205969 24.9832978,14.6988205 C29.6811497,14.0041745 32.4165298,10.3467768 36.5004929,8.68926742 C36.5362415,8.37902517 36.5793862,8.06136677 36.6163675,7.74988849 C42.9660488,6.51262756 48.4639285,9.30975192 53.4280454,10.9314166 C56.9881074,12.2650875 60.5518676,13.6024664 64.1180931,14.9373733 C66.70185,15.4861684 69.2917705,16.0361994 71.8755274,16.5849945 C75.264243,18.4143114 77.0911169,22.1409264 80.1013909,24.3645353 C83.4888738,26.8687217 86.7247335,28.5113988 88.443129,32.7311878 C84.7992429,30.8858026 81.154124,29.0367094 77.5102378,27.1913242 C76.6115933,26.2062124 75.7141815,25.2297527 74.811839,24.2421688 C72.4955798,24.1951998 71.5944699,25.1555912 70.3469689,26.1357589 C70.2717737,26.0158645 70.1879495,25.8947341 70.1127543,25.7810198 C70.1127543,25.6611254 70.1127543,25.541231 70.1127543,25.4262806 C70.6502152,24.1346346 71.7399295,24.0172123 72.6965113,23.1853675 C72.502976,23.1087339 72.3020445,23.0271563 72.1072766,22.9517588 C70.642819,23.50797 68.7728002,24.3781315 67.763212,24.9504111 C67.133298,26.1357589 66.5058494,27.3099826 65.8796335,28.4854423 C65.2152036,28.568256 64.5495411,28.6436535 63.8851112,28.7252311 C63.5683051,30.2962188 63.260128,31.8684424 62.9420893,33.4394301 C62.2579361,33.7570885 61.7291041,33.9956413 60.710887,34.0265419 C60.9044222,34.4158898 61.1004228,34.8138898 61.2964235,35.2069457 C60.1746588,35.7643929 58.8347047,36.2686911 57.7671792,36.7396166 C56.4013382,38.8173745 55.0244029,40.8988404 53.6536311,42.9790703 C54.3612057,44.2076791 52.7833389,44.7366977 52.8363453,46.4028593 C52.4406459,46.5536543 52.0523428,46.7155736 51.6628069,46.8713127 C51.7712852,47.4460643 51.6923919,47.5128097 51.4236615,47.9318221 C50.169997,48.323642 48.9200306,48.7154619 47.6639007,49.1085178 C46.3301101,49.9181141 46.1476693,51.6312446 44.1420526,51.8203564 C44.1420526,52.0527291 44.1420526,52.292518 44.1420526,52.5273627 C43.9423538,52.5273627 43.7463532,52.5273627 43.5503526,52.5273627 C43.2162886,54.2886982 41.6482834,57.3540399 40.3761283,58.302071 C39.2839486,58.8508661 38.1831399,59.4008972 37.0860294,59.9509283 C36.7753869,60.5021954 36.4573481,61.0534625 36.1479383,61.6034936 C35.3232563,62.269711 34.5010398,62.9396365 33.6788233,63.6046179 C33.003299,64.0879036 31.4969293,64.0879036 30.8571536,64.6651273 C29.8389364,65.9234006 28.8231847,67.18291 27.8062002,68.4362392 C27.4511801,68.475792 27.0986255,68.5141088 26.7448382,68.5586057 C25.9596029,69.1407734 25.1780658,69.7328294 24.3928305,70.3199412 C23.3388647,70.5535499 22.2775028,70.7933387 21.2173735,71.0281835 C20.395157,71.7376618 19.5766385,72.445904 18.7556547,73.1492022 C17.1099889,73.5410221 15.4569269,73.9365501 13.8198901,74.332078 C12.6562133,74.5545625 11.6922353,73.3766308 10.9982204,74.0935252 C10.9982204,74.131842 10.9982204,74.1726308 10.9982204,74.2121836 C11.4666496,74.2492644 11.938777,74.2900532 12.4059735,74.332078 C12.4848668,74.4865811 12.5649929,74.6435563 12.6426535,74.7980594 C12.6426535,74.8413203 12.6426535,74.878401 12.6426535,74.9154818 C12.2913316,74.9982955 11.938777,75.073693 11.5837569,75.1527986 C11.6971661,75.1527986 11.8192042,75.1527986 11.938777,75.1527986 C12.2716082,75.7547427 14.0812242,75.5470905 14.9897304,75.5063017 C16.0510924,75.4667489 17.1099889,75.424724 18.1639546,75.3888793 C18.1282061,75.4667489 18.0850613,75.5470905 18.0480801,75.6249601 C15.5382856,76.5680471 13.0321894,77.504954 10.5285585,78.451749 C10.5285585,78.4925379 10.5285585,78.5345627 10.5285585,78.5716434 C12.4725397,78.5951279 13.7237388,78.1316186 15.342285,77.8621652 C14.3253005,78.6903018 13.308316,79.5134944 12.2913316,80.3391591 C12.5341751,80.6704137 12.4663762,80.4874821 12.5267789,80.8113206 C11.4666496,81.1981964 10.4114512,81.5924883 9.35378733,81.9904883 C9.51280672,82.0671219 9.66442986,82.1474635 9.82221654,82.2265691 C9.54608985,82.5405194 9.27366128,82.8519977 9,83.167184 Z"/>
  </g>
</svg>
