<svg xmlns="http://www.w3.org/2000/svg" width="200" height="200" viewBox="0 0 200 200">
  <g fill="none" fill-rule="evenodd">
    <path fill="#fff" fill-rule="nonzero" d="M411.481898,-143.199902 C411.781898,-143.599902 411.981898,-143.999902 412.281898,-144.399902 C412.881898,-145.199902 412.581898,-146.599902 411.581898,-146.899902 C407.381898,-148.099902 403.081898,-149.099902 398.781898,-149.699902 C402.481898,-150.199902 406.181898,-150.699902 409.881898,-151.399902 C411.481898,-151.699902 411.681898,-153.899902 410.181898,-154.599902 C408.181898,-155.499902 406.081898,-155.599902 403.981898,-155.199902 C402.281898,-155.099902 400.481898,-154.999902 398.781898,-154.799902 C398.981898,-155.599902 399.281898,-156.399902 399.681898,-157.099902 C402.281898,-157.599902 404.781898,-158.199902 407.381898,-158.699902 C409.481898,-159.099902 410.581898,-160.899902 409.281898,-162.699902 C408.981898,-163.199902 408.381898,-163.299902 407.781898,-163.199902 C402.481898,-162.599902 396.981898,-162.399902 391.681898,-162.499902 C387.281898,-165.399902 381.681898,-166.999902 376.181898,-167.599902 C375.781898,-167.899902 375.281898,-168.099902 374.881898,-168.399902 C369.881898,-171.599902 364.781898,-174.699902 360.181898,-178.499902 C353.781898,-183.799902 349.881898,-191.399902 343.481898,-196.299902 C343.181898,-196.799902 342.881898,-197.299902 342.581898,-197.799902 C342.181898,-198.399902 341.781898,-198.999902 341.281898,-199.599902 C340.881898,-208.099902 335.381898,-215.999902 328.381898,-220.399902 C321.581898,-224.699902 313.381898,-224.999902 306.081898,-222.399902 C304.581898,-223.899902 302.981898,-225.099902 301.181898,-225.999902 C301.081898,-226.299902 300.881898,-226.499902 300.581898,-226.699902 C298.481898,-227.899902 296.081898,-228.699902 293.981898,-229.899902 C291.781898,-231.099902 289.781898,-232.599902 287.781898,-234.099902 C283.681898,-237.099902 279.781898,-240.199902 275.381898,-242.699902 C268.281898,-246.699902 258.081898,-249.099902 250.081898,-245.999902 C249.781898,-246.299902 249.481898,-246.599902 249.181898,-246.899902 C250.181898,-247.099902 251.181898,-247.299902 252.281898,-247.599902 C253.181898,-247.799902 253.581898,-248.699902 253.381898,-249.599902 C253.281898,-250.299902 253.181898,-250.899902 253.081898,-251.499902 C256.181898,-261.499902 256.681898,-272.999902 254.081898,-283.199902 C251.281898,-293.899902 241.381898,-297.299902 231.581898,-299.399902 C222.081898,-301.499902 210.481898,-301.999902 201.381898,-297.999902 C192.681898,-294.199902 187.681898,-285.599902 185.181898,-276.799902 C185.081898,-276.699902 184.981898,-276.599902 184.881898,-276.499902 C184.381898,-275.999902 184.481898,-274.999902 185.081898,-274.699902 C187.181898,-273.399902 189.381898,-272.199902 191.681898,-270.999902 C191.581898,-270.199902 191.481898,-269.499902 191.281898,-268.699902 C190.781898,-266.299902 189.281898,-263.999902 189.281898,-261.599902 C189.281898,-260.299902 190.581898,-259.099902 191.381898,-258.199902 C191.881898,-257.699902 192.281898,-257.199902 192.781898,-256.599902 C191.781898,-254.399902 190.481898,-252.399902 189.181898,-250.399902 C187.981898,-248.599902 187.381898,-246.499902 188.681898,-244.599902 C188.881898,-244.299902 189.281898,-243.999902 189.681898,-244.199902 C190.781898,-244.599902 191.781898,-244.899902 192.881898,-245.099902 C192.981898,-244.099902 192.981898,-243.099902 192.881898,-241.999902 C192.781898,-241.199902 192.681898,-239.899902 193.381898,-239.299902 C194.281898,-238.499902 195.081898,-238.499902 196.181898,-238.599902 C197.381898,-238.799902 198.281898,-238.899902 199.281898,-238.799902 C199.181898,-238.599902 198.981898,-238.399902 198.881898,-238.199902 C198.081898,-237.099902 197.181898,-236.399902 196.681898,-235.199902 C195.781898,-233.199902 197.981898,-231.599902 199.281898,-230.299902 C198.881898,-228.799902 198.481898,-227.299902 199.081898,-225.699902 C199.781898,-223.799902 201.981898,-223.299902 203.781898,-223.099902 C206.781898,-222.799902 210.281898,-223.599902 213.181898,-224.299902 C213.481898,-224.399902 213.681898,-224.399902 213.981898,-224.499902 C215.581898,-223.099902 217.381898,-221.799902 218.781898,-220.499902 C220.281898,-219.199902 221.681898,-217.899902 223.081898,-216.599902 C221.281898,-213.199902 219.781898,-209.699902 218.381898,-206.099902 C217.181898,-202.799902 216.081898,-199.499902 215.281898,-196.099902 C214.581898,-193.399902 213.681898,-190.299902 213.581898,-187.399902 C212.381898,-186.499902 211.281898,-185.699902 210.081898,-184.899902 C208.481898,-183.799902 208.481898,-183.299902 208.181898,-181.299902 C207.281898,-175.599902 205.781898,-170.099902 203.881898,-164.799902 C200.681898,-163.299902 197.581898,-161.499902 194.781898,-159.299902 C190.281898,-155.799902 185.981898,-151.799902 185.081898,-146.099902 C184.681898,-143.499902 181.981898,-142.699902 180.681898,-140.699902 C180.181898,-139.899902 179.881898,-139.099902 179.881898,-138.299902 C177.581898,-136.499902 175.381898,-134.599902 173.181898,-132.699902 C170.681898,-130.499902 168.081898,-128.299902 165.581898,-126.199902 C163.281898,-124.199902 160.581898,-122.399902 158.381898,-120.299902 C156.381898,-119.399902 154.481898,-118.299902 152.681898,-117.099902 C147.481898,-113.499902 142.281898,-110.099902 136.581898,-107.299902 C133.681898,-105.899902 130.681898,-104.799902 127.781898,-103.599902 C126.481898,-103.099902 124.581898,-101.799902 125.081898,-100.099902 C126.081898,-96.4999017 131.581898,-97.5999017 134.481898,-99.2999017 C137.881898,-98.5999017 141.681898,-99.1999017 145.281898,-100.299902 C144.981898,-99.8999017 144.781898,-99.4999017 144.581898,-99.0999017 C143.681898,-96.8999017 144.581898,-94.8999017 146.781898,-93.9999017 C147.381898,-93.7999017 148.081898,-93.9999017 148.481898,-94.4999017 C149.781898,-95.8999017 151.281898,-97.0999017 152.681898,-98.3999017 C155.981898,-99.6999017 159.181898,-101.399902 162.381898,-102.999902 C165.681898,-104.699902 168.781898,-107.199902 170.281898,-110.499902 C175.081898,-112.699902 179.681898,-115.399902 184.181898,-118.099902 C187.081898,-119.799902 189.981898,-121.499902 192.881898,-123.199902 C192.981898,-123.099902 192.981898,-123.099902 193.081898,-122.999902 C193.481898,-122.699902 194.081898,-122.799902 194.481898,-122.999902 C200.081898,-126.099902 205.581898,-129.399902 211.081898,-132.699902 C216.881898,-132.899902 222.781898,-133.099902 228.481898,-133.899902 C231.981898,-134.399902 233.181898,-138.199902 234.381898,-140.999902 C236.281898,-145.099902 238.381898,-149.099902 240.581898,-153.099902 C242.781898,-157.199902 245.181898,-161.199902 247.681898,-164.999902 C249.281898,-164.299902 250.881898,-163.499902 252.481898,-162.599902 C257.781898,-159.699902 261.781898,-155.399902 266.081898,-151.199902 C269.981898,-147.299902 273.981898,-144.399902 278.881898,-141.799902 C282.581898,-139.799902 284.481898,-135.899902 286.281898,-131.999902 C285.781898,-130.599902 284.881898,-129.299902 283.481898,-129.199902 C282.481898,-129.099902 281.481898,-128.199902 281.881898,-127.099902 C282.381898,-125.599902 282.781898,-123.899902 283.381898,-122.299902 C276.481898,-117.699902 270.281898,-111.899902 265.181898,-105.399902 C263.681898,-105.199902 262.181898,-104.899902 260.681898,-104.499902 C259.181898,-104.099902 257.781898,-103.599902 257.281898,-101.899902 C256.781898,-99.8999017 256.781898,-97.3999017 256.881898,-95.0999017 C255.081898,-94.4999017 253.381898,-93.7999017 251.581898,-93.1999017 C247.481898,-91.6999017 244.381898,-90.2999017 241.581898,-86.8999017 C236.081898,-80.2999017 229.481898,-74.5999017 224.181898,-67.7999017 C221.981898,-64.9999017 221.181898,-62.3999017 222.181898,-58.8999017 C223.281898,-54.9999017 225.281898,-51.1999017 227.281898,-47.7999017 C228.981898,-44.7999017 230.981898,-41.6999017 233.281898,-38.8999017 C237.381898,-27.3999017 242.181898,-16.0999017 247.481898,-5.09990173 C246.481898,-3.99990173 245.481898,-3.09990173 244.281898,-2.29990173 C243.181898,-1.59990173 242.881898,-0.0999017304 243.881898,0.90009827 C247.281898,4.30009827 251.581898,7.50009827 256.281898,9.70009827 C257.381898,13.6000983 258.781898,17.5000983 259.781898,21.4000983 C260.681898,24.7000983 261.381898,28.0000983 261.981898,31.3000983 C259.481898,37.6000983 253.481898,42.6000983 247.381898,45.9000983 C242.581898,48.5000983 237.481898,50.2000983 232.481898,52.4000983 C230.981898,53.1000983 227.781898,53.7000983 227.581898,55.7000983 C227.381898,58.3000983 227.681898,60.6000983 228.681898,63.0000983 C228.881898,63.5000983 229.281898,63.8000983 229.781898,64.0000983 C229.781898,64.1000983 229.781898,64.2000983 229.781898,64.3000983 C229.681898,65.1000983 229.981898,65.8000983 230.781898,66.0000983 C232.281898,66.5000983 233.681898,66.8000983 235.181898,67.1000983 C234.681898,68.5000983 233.881898,69.8000983 232.981898,71.0000983 C229.481898,70.2000983 225.781898,70.9000983 223.281898,74.2000983 C219.181898,79.4000983 221.581898,86.3000983 226.481898,89.9000983 C231.781898,93.8000983 240.481898,92.9000983 244.581898,87.7000983 C245.281898,86.8000983 245.781898,85.9000983 246.181898,84.8000983 C248.081898,87.7000983 251.181898,89.7000983 254.881898,90.0000983 C260.181898,90.4000983 265.581898,85.7000983 266.181898,80.6000983 C266.281898,79.8000983 266.281898,79.0000983 266.181898,78.2000983 C266.981898,77.8000983 267.881898,77.3000983 268.581898,76.8000983 C268.781898,79.1000983 269.681898,81.5000983 271.281898,83.5000983 C273.181898,85.8000983 275.781898,87.1000983 278.381898,87.4000983 C279.181898,90.9000983 281.581898,94.1000983 284.381898,95.9000983 C290.181898,99.6000983 297.381898,96.6000983 299.581898,90.6000983 C300.681898,90.5000983 301.781898,90.3000983 302.881898,90.2000983 C304.581898,94.3000983 308.781898,97.2000983 313.181898,97.4000983 C318.681898,97.7000983 322.681898,93.4000983 323.481898,88.4000983 C323.481898,88.4000983 323.581898,88.4000983 323.581898,88.4000983 C324.981898,92.7000983 328.781898,95.9000983 333.281898,97.0000983 C338.481898,98.3000983 344.281898,95.8000983 345.581898,90.7000983 C347.481898,94.2000983 351.281898,96.6000983 355.381898,97.1000983 C361.581898,97.9000983 366.781898,92.9000983 366.881898,86.9000983 C366.981898,81.7000983 362.381898,76.4000983 357.381898,74.9000983 C356.581898,73.1000983 355.881898,71.3000983 355.281898,69.5000983 C355.381898,69.5000983 355.481898,69.5000983 355.581898,69.5000983 C356.281898,69.5000983 356.781898,69.2000983 357.081898,68.8000983 C357.681898,68.7000983 358.081898,68.2000983 358.081898,67.5000983 C357.381898,59.5000983 354.281898,51.6000983 349.281898,45.2000983 C347.781898,39.9000983 345.581898,34.7000983 343.481898,29.8000983 C341.781898,25.8000983 339.881898,21.8000983 337.881898,17.8000983 C339.881898,17.5000983 341.881898,17.2000983 343.981898,17.0000983 C345.581898,16.9000983 346.381898,15.2000983 345.281898,13.9000983 C335.381898,2.50009827 330.881898,-12.1999017 323.181898,-24.9999017 C324.181898,-25.0999017 325.181898,-25.0999017 326.181898,-24.9999017 C327.181898,-24.8999017 327.981898,-26.0999017 327.681898,-26.9999017 C326.681898,-30.0999017 325.481898,-33.0999017 324.081898,-35.8999017 C325.081898,-36.7999017 325.981898,-37.7999017 326.781898,-38.7999017 C327.181898,-39.2999017 327.381898,-39.9999017 326.981898,-40.5999017 C326.081898,-41.8999017 325.381898,-43.1999017 324.681898,-44.5999017 C328.081898,-58.7999017 339.181898,-69.9999017 343.881898,-83.5999017 C349.381898,-90.2999017 354.881898,-97.0999017 359.181898,-104.699902 C364.181898,-113.799902 367.281898,-125.399902 363.181898,-135.399902 C363.081898,-135.499902 363.081898,-135.599902 362.981898,-135.699902 C362.981898,-135.999902 362.881898,-136.299902 362.681898,-136.699902 C359.681898,-141.599902 356.881898,-147.099902 353.281898,-151.599902 C351.581898,-153.699902 349.581898,-155.499902 347.181898,-156.799902 C345.081898,-157.899902 342.881898,-158.499902 340.781898,-159.599902 C338.981898,-163.699902 336.481898,-167.699902 333.981898,-171.499902 C333.981898,-171.499902 333.981898,-171.599902 333.981898,-171.599902 C334.181898,-171.499902 334.381898,-171.399902 334.581898,-171.299902 C339.181898,-169.299902 343.781898,-167.299902 348.081898,-164.599902 C350.081898,-163.299902 351.881898,-161.899902 353.581898,-160.299902 C353.581898,-158.099902 354.181898,-156.099902 355.681898,-154.799902 C357.281898,-153.499902 359.081898,-153.099902 360.781898,-153.399902 C362.881898,-152.299902 364.781898,-151.199902 366.281898,-149.599902 C368.681898,-146.999902 369.481898,-143.099902 371.481898,-140.199902 C375.681898,-133.899902 385.081898,-134.999902 390.481898,-130.499902 C390.981898,-130.099902 391.681898,-130.199902 392.081898,-130.499902 C395.381898,-133.199902 394.681898,-136.399902 392.281898,-139.099902 C394.281898,-138.399902 396.381898,-137.599902 398.381898,-136.899902 C401.181898,-135.999902 403.981898,-134.999902 406.781898,-134.099902 C408.381898,-133.599902 409.381898,-133.199902 410.781898,-134.099902 C411.181898,-134.399902 411.381898,-134.999902 411.281898,-135.499902 C410.681898,-138.799902 404.281898,-141.399902 401.681898,-142.799902 C401.281898,-142.999902 400.881898,-143.199902 400.481898,-143.399902 C403.581898,-142.999902 406.581898,-142.699902 409.681898,-142.299902 C410.581898,-142.499902 411.181898,-142.799902 411.481898,-143.199902 Z M268.381898,65.2000983 C264.681898,64.9000983 253.981898,68.2000983 253.981898,68.2000983 L255.481898,63.7000983 L275.581898,59.5000983 C275.581898,59.5000983 274.381898,62.2000983 275.981898,62.5000983 C277.581898,62.8000983 280.281898,63.8000983 280.281898,63.8000983 C280.281898,63.8000983 272.081898,65.5000983 268.381898,65.2000983 Z M314.581898,47.9000983 L304.581898,50.6000983 C304.581898,50.6000983 304.881898,43.0000983 298.781898,35.9000983 C292.681898,28.8000983 294.881898,21.8000983 293.581898,19.6000983 C292.281898,17.4000983 288.981898,15.7000983 288.481898,12.5000983 C288.081898,9.20009827 287.781898,2.50009827 291.181898,2.70009827 C291.181898,2.70009827 297.881898,9.40009827 299.681898,13.1000983 C301.481898,16.8000983 302.981898,32.0000983 302.981898,32.0000983 C302.981898,32.0000983 308.481898,30.5000983 309.981898,31.4000983 C311.481898,32.3000983 313.681898,38.7000983 314.581898,41.2000983 C315.481898,43.7000983 314.581898,47.9000983 314.581898,47.9000983 Z M331.981898,71.9000983 L329.581898,75.9000983 L323.181898,76.3000983 L320.081898,75.1000983 C319.981898,74.4000983 318.581898,72.4000983 318.581898,72.4000983 L331.981898,71.9000983 Z"/>
    <path fill="#fff" d="M0,187.14615 C0.0974729572,187.345077 0.197945082,187.545501 0.301416375,187.748915 C4.32480013,189.365763 12.2456026,188.463858 16.2824826,187.645712 C18.2694313,187.240379 20.7632395,188.163223 22.8596578,187.748915 C23.0411075,187.349565 23.2465505,186.942735 23.0636013,186.736329 C22.9031458,186.283133 22.7501882,186.151512 22.3557976,186.23228 C22.2178359,185.764127 20.9926758,186.254715 21.6494936,185.934636 C20.3703485,185.40516 19.0432167,185.841903 17.6995894,185.227172 C15.9330795,184.413513 13.5427427,182.884912 11.7312453,182.400306 C11.797227,181.529811 11.869207,180.653334 11.9366883,179.778351 C11.2918672,177.723265 10.1596813,172.756059 10.9229695,168.57858 C11.5647915,166.224354 12.2051138,163.870129 12.842437,161.515903 C13.4632648,159.285821 13.9506295,153.675465 15.3722351,152.535744 C16.7188615,151.464826 18.5123639,151.65478 20.3298597,150.918897 C22.1833455,149.915285 24.0398304,148.904195 25.8993145,147.896096 C26.5336385,147.389055 27.1784596,146.890988 27.8172824,146.380955 C28.9314733,146.452749 30.042665,146.515568 31.1538567,146.585866 C33.0268371,146.941841 35.5251439,146.494628 36.8207845,145.978613 C39.983407,144.726716 41.5039852,142.574409 43.9048191,140.734703 C45.8077911,141.042816 48.7514744,140.766113 50.1760792,141.641095 C51.3547522,144.551719 54.3269276,146.431809 56.1399246,148.802487 C56.1099329,148.941587 56.0739429,149.070217 56.040952,149.203334 C55.5340927,149.678965 55.0287329,150.145622 54.5248727,150.615271 C54.8532816,151.820802 55.1801909,152.069087 55.9374808,152.238101 C55.9374808,152.305407 55.9374808,152.372714 55.9374808,152.438524 C54.7243173,152.402628 53.5126535,152.372714 52.2979905,152.335321 C51.7911311,152.80497 51.2827721,153.273123 50.7789119,153.747258 C50.8119028,153.645551 50.8448936,153.542348 50.8808836,153.442136 C50.7474207,153.509443 50.6139577,153.576749 50.475996,153.645551 C50.1880759,154.41733 49.7816886,154.670103 50.0711083,155.560042 C50.3455322,155.595939 50.6139577,155.631835 50.8808836,155.664741 C50.8134024,155.730551 50.7474207,155.80384 50.6784398,155.866659 C50.4595006,156.180756 50.3140409,156.096997 49.9706362,156.270497 C50.1040992,156.270497 50.2405613,156.270497 50.3740243,156.270497 C50.2765513,156.369213 50.1760792,156.472416 50.0711083,156.568141 C49.7996836,156.607029 49.5342573,156.642926 49.2628326,156.668353 C49.2628326,156.771556 49.2628326,156.868776 49.2628326,156.976466 C50.4115139,156.837366 50.4010168,157.193342 51.0818279,157.172402 C50.8808836,157.452097 50.6784398,157.719827 50.475996,157.983069 C50.440006,157.983069 50.4115139,157.983069 50.3740243,157.983069 C49.9346462,157.657008 49.5732464,157.302528 48.9569174,157.172402 C49.3318134,157.511925 49.7022107,157.852944 50.0711083,158.186484 C49.8686645,158.388403 49.6692198,158.590322 49.4652764,158.790745 C49.4952681,158.790745 49.5342573,158.790745 49.5687477,158.790745 C49.8356736,158.687542 50.1040992,158.590322 50.3740243,158.491606 C50.3740243,158.590322 50.3740243,158.687542 50.3740243,158.790745 C50.2405613,158.892452 50.1040992,158.991168 49.9706362,159.095867 C50.1760792,159.264881 50.3740243,159.429407 50.5779677,159.599917 C50.13709,159.970849 49.7022107,160.341782 49.2628326,160.706732 C49.3603055,160.809935 49.4652764,160.914633 49.5687477,161.011854 C51.0098479,159.970849 51.842117,164.296402 53.4901597,163.659236 C53.8815511,163.503683 54.2084604,163.225484 54.3989076,163.454325 C56.8687224,166.224354 55.1157087,167.727529 55.7125432,170.216367 C55.5475889,170.11466 55.3751368,170.015944 55.2101825,169.918723 C55.2101825,170.077267 55.2101825,170.247776 55.2101825,170.412303 C55.7920211,171.988767 60.3117672,172.018681 61.9088241,172.922081 C69.7531477,174.718412 74.7212694,171.400958 79.411968,168.378156 C80.4196884,167.836715 81.430408,167.301255 82.4426272,166.765796 C84.4010838,164.570114 85.1283821,158.698012 84.3635942,154.758349 C83.8837274,152.269511 82.7005556,150.372968 81.9372674,148.199722 C81.9372674,147.79738 81.9372674,147.389055 81.9372674,146.988208 C81.4214105,145.612168 79.2979996,146.062372 79.3069971,144.26305 C78.983087,144.340826 79.0865583,144.551719 78.8991103,144.26305 C78.1448196,143.041066 77.6664523,141.887885 76.5747552,141.039825 C75.5955268,140.296464 74.6177981,139.559086 73.6355706,138.812734 C73.1407079,138.009545 72.6293498,137.200373 72.1224904,136.39868 C71.2707267,135.712156 68.8848886,134.310689 69.0903316,133.362418 C69.4232393,133.130585 69.7576465,132.894265 70.0995516,132.662432 C71.803079,133.956209 72.8512882,135.593996 75.0571762,136.495901 C76.4727835,136.932644 77.8868911,137.369387 79.3069971,137.801643 C80.179755,137.942239 81.0570116,138.075356 81.9372674,138.209968 C83.7547631,140.36377 85.5767577,142.517573 87.395753,144.669879 C89.9105553,147.387559 94.2878409,148.684327 96.3002825,151.825289 C98.0008107,154.493611 97.6079197,158.877496 98.3247209,162.422295 C98.800089,164.767546 101.088454,171.417411 100.653575,173.927189 C100.41814,175.234427 100.509615,176.774994 100.142217,178.269194 C99.7703198,179.542031 99.3999226,180.816364 99.0265262,182.101167 C98.9965345,183.379987 98.9665428,184.657312 98.9290532,185.934636 C96.0168612,185.865834 94.2818425,187.6846 93.2621254,189.465974 C93.7749831,191.064873 96.2028096,189.896735 97.1100579,189.669389 C97.3394942,190.257198 97.7518798,190.643087 98.2212496,190.976627 C103.780207,191.153119 110.901732,190.272154 118.050248,190.272154 C118.306677,189.804002 118.407149,189.570673 118.15222,189.060641 C114.614701,188.972395 112.663743,186.965171 109.451634,186.335483 C109.414144,184.120357 108.841303,180.874697 108.541386,179.072383 C108.572878,178.098685 108.608868,177.1205 108.644858,176.145306 C108.427418,175.333143 108.036027,174.022913 108.235471,172.714179 C108.808312,168.995879 108.701842,164.61349 108.137998,161.107578 C108.137998,159.495218 108.137998,157.884353 108.137998,156.270497 C107.731611,153.947682 107.326723,151.626361 106.924835,149.306537 C105.065351,147.055514 103.210365,144.798509 101.361378,142.547487 C97.1160562,137.412762 94.6777327,130.931912 89.4246901,126.805286 C85.2738417,123.616462 81.1259925,120.421656 76.9796428,117.223858 C75.4800589,115.122405 74.7632577,112.412204 73.6355706,109.959262 C72.2229625,106.863172 70.516436,104.169423 69.3902484,100.57377 C69.0243499,99.3951614 66.9429274,95.30892 68.3855272,94.3202649 C69.4847222,93.8880088 70.7383744,94.8347843 72.0250174,94.0211257 C72.9247678,93.443787 74.5593143,92.0782166 74.8517332,90.9863585 C75.0106891,90.4254725 74.3943601,89.5848914 75.0571762,88.8699487 C75.9389316,87.9171903 77.8928895,87.8543711 79.1990271,87.1588725 C79.678894,86.5815338 80.1452646,86.0131693 80.6236318,85.4388221 C82.9434882,85.6542023 83.3573734,84.3679037 85.0713979,83.8264618 C86.0101374,83.530314 87.655181,84.2886318 88.5114435,84.4337144 C89.9870341,84.6700343 92.6847856,84.1151311 94.3778159,84.2332911 C95.7574331,84.0627818 97.1415491,83.8982552 98.5271647,83.7277458 C102.65402,82.9604538 105.245301,83.1773297 108.944774,82.7121683 C111.075683,82.4519172 114.428753,82.7734918 116.837085,83.1145105 C117.642361,83.0831009 118.453636,83.053187 119.263412,83.0187859 C120.110677,83.2281834 120.368605,83.9865013 120.981935,84.3305113 C121.716731,84.7433234 122.965884,84.4591412 123.715676,84.637129 C124.789379,87.4789514 127.331173,85.6048443 129.076689,86.2479936 C129.691518,88.2567133 134.815597,88.9925958 137.168444,89.685103 C139.629261,90.3925672 142.598438,90.2908599 145.362171,90.6872193 C148.749731,91.1778076 152.410215,92.2128292 155.980725,92.2008637 C157.529795,92.1918895 159.735683,93.3465668 161.341737,93.2074671 C161.703137,93.1805445 166.806221,93.5828868 167.112137,93.7160037 C168.031382,94.1138589 168.365789,94.6553008 169.739408,94.3202649 C169.998836,93.6845941 170.478703,93.1446478 170.147294,92.5000029 C170.282257,92.5433781 170.41572,92.573292 170.546184,92.6091887 C170.706639,91.3154116 171.108528,90.8263191 171.46093,89.3784853 C174.95796,89.513098 177.612223,88.952212 179.146298,86.9539621 C179.32025,86.9539621 179.482205,86.9539621 179.650158,86.9539621 C179.666653,87.1992563 179.662155,87.3667742 179.645659,87.4879256 C179.804615,87.0451996 180.582899,88.0951782 180.359461,86.7580259 C180.68937,86.6368746 180.632385,86.6129434 180.86932,86.4454255 C182.3839,86.9479793 183.684039,85.9129577 185.219613,86.3452138 C185.751965,86.6548229 186.297814,86.9539621 186.834665,87.2560927 C189.940303,88.1385533 194.367075,84.6700343 196.039111,83.4241196 C197.759134,82.1363253 200.609843,80.2397828 199.884044,76.9686956 C198.696374,71.5811987 186.92464,73.5585088 181.475152,74.2435375 C181.608615,73.8067943 181.743577,73.3685554 181.87854,72.9243337 C181.845549,72.8630101 181.809559,72.7971995 181.779567,72.7313889 C180.819833,73.0843731 180.875318,73.8845705 180.161516,74.2435375 C178.540466,75.0631789 175.152906,74.5157542 173.381897,74.7431 C172.782063,75.2396711 172.369678,75.731755 171.660375,76.1595241 C171.766845,76.292641 171.862819,76.4287494 171.96479,76.5573792 C170.025828,75.2905247 169.285034,76.5110127 166.806221,75.8618806 C163.987004,75.1080498 160.509468,74.8986524 157.199887,74.1403345 C155.20544,74.0685411 153.22299,74.0057219 151.228543,73.9399112 C148.598273,73.8382039 145.971002,73.739488 143.339232,73.636285 C141.58172,72.7971995 139.830206,71.9566184 138.080191,71.1160372 C134.397213,69.5186339 130.651252,68.4746381 126.339948,67.4814959 C124.696404,67.1045805 121.39582,66.7740317 119.872243,67.2780813 C118.056247,66.8189026 116.201261,66.3582282 114.104843,66.3686981 C112.554273,66.4404915 110.999204,66.5122849 109.451634,66.5736085 C100.364155,64.6845444 90.4713997,63.2980342 82.9434882,60.3141207 C80.8470699,59.4855051 78.9051086,58.9231234 77.3815313,58.0974992 C77.0816145,57.9344684 75.3630913,57.3272158 75.562536,57.1926032 C73.8320161,56.5315055 68.9313757,53.6732305 68.3855272,52.7503861 C67.2938301,50.9226455 66.6760015,49.0829395 65.6487865,47.3075483 C64.6395665,45.5516012 63.0530066,43.737322 62.6166277,41.4504028 C62.7485911,41.4504028 62.8835536,41.4504028 63.0185162,41.4504028 C64.4941068,43.3858334 66.9309307,45.3646392 69.0903316,46.595597 C69.9315982,46.9680253 70.775864,47.3389579 71.6171306,47.7083948 C72.5258785,48.6476919 73.4406247,49.5929718 74.3493726,50.5322689 C75.0706725,50.9226455 75.9449299,50.5935924 76.5747552,51.0378141 C78.4042476,52.3151385 78.4447364,57.6712259 81.2294638,58.8049635 C83.315385,59.6605016 89.2132487,56.2204008 89.933049,55.1734136 C90.4534047,54.4121043 90.3094446,53.59695 90.3304388,52.7503861 C91.7145548,53.0181156 93.0356883,51.5209239 94.6777327,51.5418637 C95.6719569,51.5508379 98.8315802,52.5320144 99.33694,52.4482555 C103.025917,51.8589512 111.609535,46.374234 111.675517,42.5691834 C109.472628,38.0491901 108.087012,40.0369701 102.874459,40.0369701 C102.064683,40.0369701 101.257907,40.0369701 100.452631,40.0369701 C99.9982566,39.8425296 99.7403281,39.2083545 99.131497,39.0348538 C98.2722354,38.7746027 94.5637643,38.5592224 94.3778159,39.0348538 C93.5065576,38.5472569 91.7145548,37.8592367 90.736826,38.3229025 C90.1714829,35.95372 82.6195781,32.7708789 80.0148008,31.0553156 C76.1683679,28.5305808 72.2889442,25.8248667 68.3855272,23.4945724 C65.9217107,22.2127609 63.462393,20.9369322 60.997077,19.6566164 C57.432566,17.3457661 53.8740532,14.7985958 50.1760792,12.5924442 C46.6835482,10.5209053 41.3405305,8.4942372 37.7325315,11.5888322 C34.6838773,14.1943346 34.0105641,19.2767096 34.9972904,24.701599 C36.6813232,33.9779056 38.2168971,42.0576554 41.2715497,49.9280077 C42.1593034,52.2268925 44.2062355,52.9896974 44.7085961,55.7806661 C43.6693844,56.4148412 43.8628307,58.1468572 44.4101789,59.20581 C42.8386149,61.2982887 42.6271736,64.2029303 41.7754099,66.9789421 C41.7754099,68.3579738 41.7754099,69.7355098 41.7754099,71.1160372 C41.3750209,71.854911 40.9671341,72.5967762 40.5622464,73.331163 C40.08088,74.9285663 40.2773255,75.8828203 39.7569699,77.6701771 C38.5827956,81.6651811 34.9268099,85.9533415 33.178295,90.0859495 C31.2888193,94.531158 31.0728792,99.8109649 30.2436092,104.915775 C29.5478023,109.211414 30.5975111,114.743994 31.2543288,118.634299 C31.6847094,121.179974 30.8494412,127.692234 30.2436092,129.633647 C29.4773218,132.091076 26.9880125,132.050692 24.6801528,132.961571 C21.2970914,134.306202 18.3219168,136.032235 15.6781503,138.102278 C13.3163055,140.226166 10.95746,142.347063 8.59861441,144.466465 C7.09003295,145.522426 4.30080679,146.870048 3.43404726,148.498861 C2.54629356,150.188997 3.39805725,153.626107 2.93018705,155.664741 C2.04243335,159.534106 2.32885388,165.741244 2.32435513,170.496062 C2.32435513,172.144319 2.32435513,173.794072 2.32435513,175.439337 C2.18939258,177.150414 2.05742919,178.870464 1.92096705,180.587523 C1.45759561,182.288129 0.81877284,183.930403 1.41560726,185.934636 C0.892252454,186.381849 0.391391413,186.562828 0,187.14615"/>
  </g>
</svg>
