<svg xmlns="http://www.w3.org/2000/svg" width="200" height="200" viewBox="0 0 200 200">
  <g fill="none" fill-rule="evenodd">
    <path fill="#fff" fill-rule="nonzero" d="M411.481898,-143.199902 C411.781898,-143.599902 411.981898,-143.999902 412.281898,-144.399902 C412.881898,-145.199902 412.581898,-146.599902 411.581898,-146.899902 C407.381898,-148.099902 403.081898,-149.099902 398.781898,-149.699902 C402.481898,-150.199902 406.181898,-150.699902 409.881898,-151.399902 C411.481898,-151.699902 411.681898,-153.899902 410.181898,-154.599902 C408.181898,-155.499902 406.081898,-155.599902 403.981898,-155.199902 C402.281898,-155.099902 400.481898,-154.999902 398.781898,-154.799902 C398.981898,-155.599902 399.281898,-156.399902 399.681898,-157.099902 C402.281898,-157.599902 404.781898,-158.199902 407.381898,-158.699902 C409.481898,-159.099902 410.581898,-160.899902 409.281898,-162.699902 C408.981898,-163.199902 408.381898,-163.299902 407.781898,-163.199902 C402.481898,-162.599902 396.981898,-162.399902 391.681898,-162.499902 C387.281898,-165.399902 381.681898,-166.999902 376.181898,-167.599902 C375.781898,-167.899902 375.281898,-168.099902 374.881898,-168.399902 C369.881898,-171.599902 364.781898,-174.699902 360.181898,-178.499902 C353.781898,-183.799902 349.881898,-191.399902 343.481898,-196.299902 C343.181898,-196.799902 342.881898,-197.299902 342.581898,-197.799902 C342.181898,-198.399902 341.781898,-198.999902 341.281898,-199.599902 C340.881898,-208.099902 335.381898,-215.999902 328.381898,-220.399902 C321.581898,-224.699902 313.381898,-224.999902 306.081898,-222.399902 C304.581898,-223.899902 302.981898,-225.099902 301.181898,-225.999902 C301.081898,-226.299902 300.881898,-226.499902 300.581898,-226.699902 C298.481898,-227.899902 296.081898,-228.699902 293.981898,-229.899902 C291.781898,-231.099902 289.781898,-232.599902 287.781898,-234.099902 C283.681898,-237.099902 279.781898,-240.199902 275.381898,-242.699902 C268.281898,-246.699902 258.081898,-249.099902 250.081898,-245.999902 C249.781898,-246.299902 249.481898,-246.599902 249.181898,-246.899902 C250.181898,-247.099902 251.181898,-247.299902 252.281898,-247.599902 C253.181898,-247.799902 253.581898,-248.699902 253.381898,-249.599902 C253.281898,-250.299902 253.181898,-250.899902 253.081898,-251.499902 C256.181898,-261.499902 256.681898,-272.999902 254.081898,-283.199902 C251.281898,-293.899902 241.381898,-297.299902 231.581898,-299.399902 C222.081898,-301.499902 210.481898,-301.999902 201.381898,-297.999902 C192.681898,-294.199902 187.681898,-285.599902 185.181898,-276.799902 C185.081898,-276.699902 184.981898,-276.599902 184.881898,-276.499902 C184.381898,-275.999902 184.481898,-274.999902 185.081898,-274.699902 C187.181898,-273.399902 189.381898,-272.199902 191.681898,-270.999902 C191.581898,-270.199902 191.481898,-269.499902 191.281898,-268.699902 C190.781898,-266.299902 189.281898,-263.999902 189.281898,-261.599902 C189.281898,-260.299902 190.581898,-259.099902 191.381898,-258.199902 C191.881898,-257.699902 192.281898,-257.199902 192.781898,-256.599902 C191.781898,-254.399902 190.481898,-252.399902 189.181898,-250.399902 C187.981898,-248.599902 187.381898,-246.499902 188.681898,-244.599902 C188.881898,-244.299902 189.281898,-243.999902 189.681898,-244.199902 C190.781898,-244.599902 191.781898,-244.899902 192.881898,-245.099902 C192.981898,-244.099902 192.981898,-243.099902 192.881898,-241.999902 C192.781898,-241.199902 192.681898,-239.899902 193.381898,-239.299902 C194.281898,-238.499902 195.081898,-238.499902 196.181898,-238.599902 C197.381898,-238.799902 198.281898,-238.899902 199.281898,-238.799902 C199.181898,-238.599902 198.981898,-238.399902 198.881898,-238.199902 C198.081898,-237.099902 197.181898,-236.399902 196.681898,-235.199902 C195.781898,-233.199902 197.981898,-231.599902 199.281898,-230.299902 C198.881898,-228.799902 198.481898,-227.299902 199.081898,-225.699902 C199.781898,-223.799902 201.981898,-223.299902 203.781898,-223.099902 C206.781898,-222.799902 210.281898,-223.599902 213.181898,-224.299902 C213.481898,-224.399902 213.681898,-224.399902 213.981898,-224.499902 C215.581898,-223.099902 217.381898,-221.799902 218.781898,-220.499902 C220.281898,-219.199902 221.681898,-217.899902 223.081898,-216.599902 C221.281898,-213.199902 219.781898,-209.699902 218.381898,-206.099902 C217.181898,-202.799902 216.081898,-199.499902 215.281898,-196.099902 C214.581898,-193.399902 213.681898,-190.299902 213.581898,-187.399902 C212.381898,-186.499902 211.281898,-185.699902 210.081898,-184.899902 C208.481898,-183.799902 208.481898,-183.299902 208.181898,-181.299902 C207.281898,-175.599902 205.781898,-170.099902 203.881898,-164.799902 C200.681898,-163.299902 197.581898,-161.499902 194.781898,-159.299902 C190.281898,-155.799902 185.981898,-151.799902 185.081898,-146.099902 C184.681898,-143.499902 181.981898,-142.699902 180.681898,-140.699902 C180.181898,-139.899902 179.881898,-139.099902 179.881898,-138.299902 C177.581898,-136.499902 175.381898,-134.599902 173.181898,-132.699902 C170.681898,-130.499902 168.081898,-128.299902 165.581898,-126.199902 C163.281898,-124.199902 160.581898,-122.399902 158.381898,-120.299902 C156.381898,-119.399902 154.481898,-118.299902 152.681898,-117.099902 C147.481898,-113.499902 142.281898,-110.099902 136.581898,-107.299902 C133.681898,-105.899902 130.681898,-104.799902 127.781898,-103.599902 C126.481898,-103.099902 124.581898,-101.799902 125.081898,-100.099902 C126.081898,-96.4999017 131.581898,-97.5999017 134.481898,-99.2999017 C137.881898,-98.5999017 141.681898,-99.1999017 145.281898,-100.299902 C144.981898,-99.8999017 144.781898,-99.4999017 144.581898,-99.0999017 C143.681898,-96.8999017 144.581898,-94.8999017 146.781898,-93.9999017 C147.381898,-93.7999017 148.081898,-93.9999017 148.481898,-94.4999017 C149.781898,-95.8999017 151.281898,-97.0999017 152.681898,-98.3999017 C155.981898,-99.6999017 159.181898,-101.399902 162.381898,-102.999902 C165.681898,-104.699902 168.781898,-107.199902 170.281898,-110.499902 C175.081898,-112.699902 179.681898,-115.399902 184.181898,-118.099902 C187.081898,-119.799902 189.981898,-121.499902 192.881898,-123.199902 C192.981898,-123.099902 192.981898,-123.099902 193.081898,-122.999902 C193.481898,-122.699902 194.081898,-122.799902 194.481898,-122.999902 C200.081898,-126.099902 205.581898,-129.399902 211.081898,-132.699902 C216.881898,-132.899902 222.781898,-133.099902 228.481898,-133.899902 C231.981898,-134.399902 233.181898,-138.199902 234.381898,-140.999902 C236.281898,-145.099902 238.381898,-149.099902 240.581898,-153.099902 C242.781898,-157.199902 245.181898,-161.199902 247.681898,-164.999902 C249.281898,-164.299902 250.881898,-163.499902 252.481898,-162.599902 C257.781898,-159.699902 261.781898,-155.399902 266.081898,-151.199902 C269.981898,-147.299902 273.981898,-144.399902 278.881898,-141.799902 C282.581898,-139.799902 284.481898,-135.899902 286.281898,-131.999902 C285.781898,-130.599902 284.881898,-129.299902 283.481898,-129.199902 C282.481898,-129.099902 281.481898,-128.199902 281.881898,-127.099902 C282.381898,-125.599902 282.781898,-123.899902 283.381898,-122.299902 C276.481898,-117.699902 270.281898,-111.899902 265.181898,-105.399902 C263.681898,-105.199902 262.181898,-104.899902 260.681898,-104.499902 C259.181898,-104.099902 257.781898,-103.599902 257.281898,-101.899902 C256.781898,-99.8999017 256.781898,-97.3999017 256.881898,-95.0999017 C255.081898,-94.4999017 253.381898,-93.7999017 251.581898,-93.1999017 C247.481898,-91.6999017 244.381898,-90.2999017 241.581898,-86.8999017 C236.081898,-80.2999017 229.481898,-74.5999017 224.181898,-67.7999017 C221.981898,-64.9999017 221.181898,-62.3999017 222.181898,-58.8999017 C223.281898,-54.9999017 225.281898,-51.1999017 227.281898,-47.7999017 C228.981898,-44.7999017 230.981898,-41.6999017 233.281898,-38.8999017 C237.381898,-27.3999017 242.181898,-16.0999017 247.481898,-5.09990173 C246.481898,-3.99990173 245.481898,-3.09990173 244.281898,-2.29990173 C243.181898,-1.59990173 242.881898,-0.0999017304 243.881898,0.90009827 C247.281898,4.30009827 251.581898,7.50009827 256.281898,9.70009827 C257.381898,13.6000983 258.781898,17.5000983 259.781898,21.4000983 C260.681898,24.7000983 261.381898,28.0000983 261.981898,31.3000983 C259.481898,37.6000983 253.481898,42.6000983 247.381898,45.9000983 C242.581898,48.5000983 237.481898,50.2000983 232.481898,52.4000983 C230.981898,53.1000983 227.781898,53.7000983 227.581898,55.7000983 C227.381898,58.3000983 227.681898,60.6000983 228.681898,63.0000983 C228.881898,63.5000983 229.281898,63.8000983 229.781898,64.0000983 C229.781898,64.1000983 229.781898,64.2000983 229.781898,64.3000983 C229.681898,65.1000983 229.981898,65.8000983 230.781898,66.0000983 C232.281898,66.5000983 233.681898,66.8000983 235.181898,67.1000983 C234.681898,68.5000983 233.881898,69.8000983 232.981898,71.0000983 C229.481898,70.2000983 225.781898,70.9000983 223.281898,74.2000983 C219.181898,79.4000983 221.581898,86.3000983 226.481898,89.9000983 C231.781898,93.8000983 240.481898,92.9000983 244.581898,87.7000983 C245.281898,86.8000983 245.781898,85.9000983 246.181898,84.8000983 C248.081898,87.7000983 251.181898,89.7000983 254.881898,90.0000983 C260.181898,90.4000983 265.581898,85.7000983 266.181898,80.6000983 C266.281898,79.8000983 266.281898,79.0000983 266.181898,78.2000983 C266.981898,77.8000983 267.881898,77.3000983 268.581898,76.8000983 C268.781898,79.1000983 269.681898,81.5000983 271.281898,83.5000983 C273.181898,85.8000983 275.781898,87.1000983 278.381898,87.4000983 C279.181898,90.9000983 281.581898,94.1000983 284.381898,95.9000983 C290.181898,99.6000983 297.381898,96.6000983 299.581898,90.6000983 C300.681898,90.5000983 301.781898,90.3000983 302.881898,90.2000983 C304.581898,94.3000983 308.781898,97.2000983 313.181898,97.4000983 C318.681898,97.7000983 322.681898,93.4000983 323.481898,88.4000983 C323.481898,88.4000983 323.581898,88.4000983 323.581898,88.4000983 C324.981898,92.7000983 328.781898,95.9000983 333.281898,97.0000983 C338.481898,98.3000983 344.281898,95.8000983 345.581898,90.7000983 C347.481898,94.2000983 351.281898,96.6000983 355.381898,97.1000983 C361.581898,97.9000983 366.781898,92.9000983 366.881898,86.9000983 C366.981898,81.7000983 362.381898,76.4000983 357.381898,74.9000983 C356.581898,73.1000983 355.881898,71.3000983 355.281898,69.5000983 C355.381898,69.5000983 355.481898,69.5000983 355.581898,69.5000983 C356.281898,69.5000983 356.781898,69.2000983 357.081898,68.8000983 C357.681898,68.7000983 358.081898,68.2000983 358.081898,67.5000983 C357.381898,59.5000983 354.281898,51.6000983 349.281898,45.2000983 C347.781898,39.9000983 345.581898,34.7000983 343.481898,29.8000983 C341.781898,25.8000983 339.881898,21.8000983 337.881898,17.8000983 C339.881898,17.5000983 341.881898,17.2000983 343.981898,17.0000983 C345.581898,16.9000983 346.381898,15.2000983 345.281898,13.9000983 C335.381898,2.50009827 330.881898,-12.1999017 323.181898,-24.9999017 C324.181898,-25.0999017 325.181898,-25.0999017 326.181898,-24.9999017 C327.181898,-24.8999017 327.981898,-26.0999017 327.681898,-26.9999017 C326.681898,-30.0999017 325.481898,-33.0999017 324.081898,-35.8999017 C325.081898,-36.7999017 325.981898,-37.7999017 326.781898,-38.7999017 C327.181898,-39.2999017 327.381898,-39.9999017 326.981898,-40.5999017 C326.081898,-41.8999017 325.381898,-43.1999017 324.681898,-44.5999017 C328.081898,-58.7999017 339.181898,-69.9999017 343.881898,-83.5999017 C349.381898,-90.2999017 354.881898,-97.0999017 359.181898,-104.699902 C364.181898,-113.799902 367.281898,-125.399902 363.181898,-135.399902 C363.081898,-135.499902 363.081898,-135.599902 362.981898,-135.699902 C362.981898,-135.999902 362.881898,-136.299902 362.681898,-136.699902 C359.681898,-141.599902 356.881898,-147.099902 353.281898,-151.599902 C351.581898,-153.699902 349.581898,-155.499902 347.181898,-156.799902 C345.081898,-157.899902 342.881898,-158.499902 340.781898,-159.599902 C338.981898,-163.699902 336.481898,-167.699902 333.981898,-171.499902 C333.981898,-171.499902 333.981898,-171.599902 333.981898,-171.599902 C334.181898,-171.499902 334.381898,-171.399902 334.581898,-171.299902 C339.181898,-169.299902 343.781898,-167.299902 348.081898,-164.599902 C350.081898,-163.299902 351.881898,-161.899902 353.581898,-160.299902 C353.581898,-158.099902 354.181898,-156.099902 355.681898,-154.799902 C357.281898,-153.499902 359.081898,-153.099902 360.781898,-153.399902 C362.881898,-152.299902 364.781898,-151.199902 366.281898,-149.599902 C368.681898,-146.999902 369.481898,-143.099902 371.481898,-140.199902 C375.681898,-133.899902 385.081898,-134.999902 390.481898,-130.499902 C390.981898,-130.099902 391.681898,-130.199902 392.081898,-130.499902 C395.381898,-133.199902 394.681898,-136.399902 392.281898,-139.099902 C394.281898,-138.399902 396.381898,-137.599902 398.381898,-136.899902 C401.181898,-135.999902 403.981898,-134.999902 406.781898,-134.099902 C408.381898,-133.599902 409.381898,-133.199902 410.781898,-134.099902 C411.181898,-134.399902 411.381898,-134.999902 411.281898,-135.499902 C410.681898,-138.799902 404.281898,-141.399902 401.681898,-142.799902 C401.281898,-142.999902 400.881898,-143.199902 400.481898,-143.399902 C403.581898,-142.999902 406.581898,-142.699902 409.681898,-142.299902 C410.581898,-142.499902 411.181898,-142.799902 411.481898,-143.199902 Z M268.381898,65.2000983 C264.681898,64.9000983 253.981898,68.2000983 253.981898,68.2000983 L255.481898,63.7000983 L275.581898,59.5000983 C275.581898,59.5000983 274.381898,62.2000983 275.981898,62.5000983 C277.581898,62.8000983 280.281898,63.8000983 280.281898,63.8000983 C280.281898,63.8000983 272.081898,65.5000983 268.381898,65.2000983 Z M314.581898,47.9000983 L304.581898,50.6000983 C304.581898,50.6000983 304.881898,43.0000983 298.781898,35.9000983 C292.681898,28.8000983 294.881898,21.8000983 293.581898,19.6000983 C292.281898,17.4000983 288.981898,15.7000983 288.481898,12.5000983 C288.081898,9.20009827 287.781898,2.50009827 291.181898,2.70009827 C291.181898,2.70009827 297.881898,9.40009827 299.681898,13.1000983 C301.481898,16.8000983 302.981898,32.0000983 302.981898,32.0000983 C302.981898,32.0000983 308.481898,30.5000983 309.981898,31.4000983 C311.481898,32.3000983 313.681898,38.7000983 314.581898,41.2000983 C315.481898,43.7000983 314.581898,47.9000983 314.581898,47.9000983 Z M331.981898,71.9000983 L329.581898,75.9000983 L323.181898,76.3000983 L320.081898,75.1000983 C319.981898,74.4000983 318.581898,72.4000983 318.581898,72.4000983 L331.981898,71.9000983 Z"/>
    <path fill="#fff" d="M99.4593542,175.967779 C99.872203,170.358105 100.050348,157.158784 100.050348,157.158784 C112.48269,157.463651 115.729828,155.318705 115.729828,155.318705 C116.201353,161.02144 119.269137,164.774114 119.76274,168.084746 C122.146677,184.073796 115.317282,187.049951 114.519108,187.553933 C113.749364,188.039787 113.233077,187.679022 112.831721,187.103733 C112.365338,186.433872 110.108432,188.358855 110.448994,188.777329 C110.631978,189.002731 110.579654,189.062254 110.318032,189.553244 C110.038565,190.076866 108.457037,192.849978 104.277435,192.849978 C99.9127317,192.849978 98.7609896,185.454913 99.4593542,175.967779 Z M105.6046,138.506302 C105.6046,138.506302 106.965942,142.16803 106.547347,144.610592 C106.547347,144.610592 106.302965,145.09856 104.068137,144.81998 C104.068137,144.81998 105.150315,140.704426 105.6046,138.506302 Z M107.69062,49.5011526 C105.831742,55.7534943 106.145689,59.0493211 106.145689,59.0493211 C105.222299,54.8401019 100.436883,52.0648756 100.436883,52.0648756 C103.370075,49.8410687 107.69062,49.5011526 107.69062,49.5011526 Z M60.0052314,154.201967 L60.0052314,160.411404 L60.5635602,160.829878 C60.5635602,160.829878 60.7035961,166.271256 60.2145291,168.294134 C59.7257646,170.316711 60.5063965,176.004339 61.2619248,177.973133 C62.0652407,180.065808 64.2994631,183.519355 66.0279836,182.420746 C66.9138692,181.856939 67.3373038,180.781595 67.3373038,178.548724 C67.3373038,176.315853 68.9085486,165.782683 73.9014473,162.71256 C79.1974042,159.456617 87.6579298,158.667407 87.6579298,158.667407 C87.6579298,158.667407 87.9809499,167.764772 89.4735568,174.99154 C91.0623439,182.682104 91.2008675,188.195997 90.171619,191.802734 C89.8945718,192.774743 88.7615818,194.207829 88.8314485,195.952128 C88.9016177,197.696426 88.566197,199.476982 90.5908192,200 L138.355148,200 C138.355148,200 138.774046,197.907325 138.704179,195.674756 C138.640362,193.620152 137.451418,193.399282 137.451418,193.399282 C136.724018,191.538052 129.535611,172.528734 131.651271,166.410848 C133.641414,160.655237 133.68043,154.869109 134.543632,148.696837 C135.407136,142.52547 135.179691,135.399922 134.725406,128.683179 C134.271122,121.966739 134.654028,119.392138 134.654028,119.392138 C136.469352,111.369211 136.050454,105.021391 136.818383,103.346889 C137.587219,101.672688 137.419358,100.975029 137.447184,99.5803158 C137.491039,97.4263051 140.404269,97.5015399 139.952404,94.287293 C139.297895,89.6305931 133.816232,81.0239167 133.047698,79.6983949 C132.280374,78.372571 133.257601,76.8382651 133.816232,76.0010139 C134.374258,75.1637627 133.187734,74.6757942 133.047698,73.1411862 C132.90857,71.6062761 132.8384,64.8399812 133.606632,58.5616548 C134.374258,52.2830262 133.013218,47.6435487 132.672656,43.2228262 C132.332094,38.8014994 127.749624,33.3341373 127.749624,33.3341373 C128.430446,33.0984621 127.775938,32.9072026 128.45676,32.3313092 C129.137582,31.75602 129.189907,30.1863629 129.1028,29.924703 C129.015089,29.6630431 128.229617,29.3841608 128.823031,28.7212488 C129.417049,28.058639 129.399507,27.7797567 129.608804,27.1343693 C129.818102,26.4889819 129.312098,24.7274609 128.439218,23.8902098 C127.566337,23.0532607 127.793177,22.7393293 127.775938,21.8501087 C127.758395,20.9602838 126.047417,20.5765563 125.453701,20.5418093 C124.860288,20.5070623 124.388763,19.861977 124.144381,19.3039103 C123.899696,18.7455414 123.306585,18.8851336 123.306585,18.8851336 L119.992302,18.8745585 C120.94382,16.1503951 120.741782,13.0639566 120.390936,11.5166584 C119.76274,8.74354712 117.70757,6.24176442 117.70757,6.24176442 C117.927756,5.71149526 117.561183,5.45527404 117.561183,5.45527404 C117.250261,5.80274386 116.742442,5.24346852 116.522256,5.07940234 C115.683553,4.45395666 115.319399,3.80373488 113.557609,2.54528984 C111.908029,1.36751823 110.318032,1.14876331 110.318032,1.14876331 C110.196446,0.834831886 110.92929,0.660190533 110.92929,0.660190533 C110.143214,0.276462994 109.111243,1.07745646 109.143606,0.595530932 C109.165685,0.259542724 108.677223,-0.246856769 108.686599,0.138381509 C108.709585,1.14574184 105.962402,0.52966274 103.946249,1.60198482 C95.7270808,5.97375944 94.9379802,10.967354 94.6621428,14.9058488 C94.5472105,16.5489278 94.8088326,17.0450543 95.1744986,17.1734671 C95.5404671,17.3018798 95.8335443,18.5808709 95.7603506,19.2945437 C95.6868545,20.0076122 96.2817801,20.3327231 96.2817801,20.3327231 L97.6788118,21.2044191 C97.6788118,21.2044191 98.1327942,21.7283432 98.0275404,22.2861078 C97.923194,22.8438724 97.6788118,25.7046065 97.6437272,26.157828 C97.6413076,26.1937836 97.6413076,26.2282284 97.6437272,26.2611625 C97.9241014,26.4285523 98.0438729,26.581439 98.0771428,26.7231463 C98.3454188,26.8098627 98.7609896,26.8548827 99.3894875,26.8548827 C99.3894875,26.8548827 99.4242697,27.8320282 99.6335673,28.4245398 C99.6335673,28.4245398 100.227283,28.8783656 100.332234,28.8783656 C100.436883,28.8783656 100.297452,29.5409755 100.541835,29.6802655 C100.786217,29.8201599 101.484884,29.8201599 101.484884,29.8201599 C101.484884,29.8201599 101.240199,31.2502248 101.624012,31.6686993 C102.00843,32.0868717 102.601844,32.7153389 104.068137,32.3313092 C105.534733,31.9478838 106.290866,31.4442036 107.001329,32.0868717 C108.118289,33.0984621 108.222636,33.7613741 107.454707,34.35449 C106.68708,34.9476058 107.001329,36.2725234 104.382689,37.388959 C101.763746,38.5053946 94.0127756,41.7139007 92.8256465,41.9232891 C91.6382149,42.1326774 91.2450257,38.7582922 97.774387,35.7936193 C98.2229252,35.5899718 98.7960742,35.0871981 98.2719227,33.9009663 C97.6751823,32.5488555 98.0103006,32.4452188 98.1672738,32.3660562 C98.4406916,32.2291833 98.6387985,31.6161256 98.150034,31.1281572 C98.150034,31.1281572 98.454302,30.4138801 97.7837631,29.8724314 C97.1461916,29.3581761 97.2139411,28.5212271 97.399345,28.1284351 C97.5300048,27.8504592 97.7837631,27.5619082 97.9579762,27.2041654 C98.0284478,27.0597388 98.1188813,26.9011113 98.0771428,26.7231463 C97.7686404,26.6231354 97.6558253,26.4675294 97.6437272,26.2611625 C97.5309121,26.1943879 97.3948082,26.1248939 97.224527,26.0529828 C95.3946846,25.2809955 94.440747,24.5624883 93.5500221,23.3409053 C92.3964653,21.7588601 91.3929253,19.6628617 89.1946949,18.9319665 C88.721658,18.7742454 87.9954676,17.9974238 87.5269675,17.4547666 C86.6903817,16.4869876 84.8384603,15.7053316 82.7173555,15.9404024 C80.5962506,16.1760776 74.6433652,18.5276929 71.841438,24.7274609 C71.841438,24.7274609 71.2846216,25.9653599 71.3172865,27.3785046 C71.3523711,28.8783656 71.8931575,29.5068328 71.2474198,31.2151757 C70.4447088,33.3428996 70.6893935,34.1798486 70.7937399,34.7382175 C70.8986912,35.2962843 71.7712689,37.5980452 70.6192243,39.6913242 C69.4668773,41.7836968 69.1880154,42.0634856 69.2575797,43.2841622 C69.3274464,44.5045366 71.3181939,45.8297563 70.0953753,48.5856452 C68.873464,51.3412319 68.4542638,51.9340456 68.8383794,53.1550244 C68.8383794,53.1550244 68.8383794,52.0385887 69.8165133,51.1668927 C70.7937399,50.2948945 71.2474198,48.8300826 71.2474198,48.2019176 C71.2474198,48.2019176 71.7364867,51.2019418 70.5142731,53.0855304 C69.2926643,54.9688168 69.2575797,54.3059048 68.9433307,57.4104721 C68.6290818,60.5150394 69.2926643,61.5964259 67.9307171,62.7823555 C67.9307171,62.7823555 69.6066108,62.7470043 69.9214646,59.6777882 C70.2354111,56.6082701 69.9907264,56.2239382 71.0381221,54.0620717 C71.0381221,54.0620717 71.7367892,55.0730578 71.2126377,57.3751209 C70.6893935,59.6774861 70.6951401,61.6583662 71.8762202,63.0258866 C72.3661945,63.5927156 73.0636517,64.9094751 73.308034,66.0951026 C73.524893,67.1477851 73.6219805,68.3273696 72.8540516,70.2810564 C72.4127723,71.4023264 72.2821125,72.7650124 73.133216,74.1527766 C74.1806117,75.8614217 77.4976168,76.3850436 76.8688164,78.5478166 C76.3228883,80.4271751 76.0406994,80.6471386 75.9762768,80.6719147 C76.1256887,80.6362613 77.7347402,80.2220168 78.3006302,78.7919519 C78.894346,77.2917887 78.8244793,79.2451734 79.4529772,79.6986971 C79.4529772,79.6986971 79.6973595,77.990052 80.1165597,77.4667322 C80.1165597,77.4667322 80.674586,76.0711122 80.9543553,76.9781595 C81.2335197,77.8852068 82.141182,77.7459167 82.2458308,79.3503208 C82.2458308,79.3503208 83.3283111,78.5130696 82.7699823,76.9437146 C82.2110487,75.3737553 80.0814752,74.5715533 80.5003729,72.1302001 C80.9195732,69.6885448 82.0719202,69.7580388 82.0014486,67.2810322 C82.0014486,67.2810322 83.4677421,68.9555346 85.0740714,72.3740333 C86.6807032,75.792532 88.391379,77.396634 88.391379,77.396634 C88.391379,77.396634 88.9491028,77.8646607 88.2077898,78.6432953 C87.3875365,79.506229 88.0217811,80.5311139 87.6319188,81.2330029 C87.099601,82.1920196 87.2825853,82.9250299 87.3176698,83.6921828 C87.3521495,84.4593357 86.7414963,84.224567 86.8461452,85.13101 C86.9510965,86.0377552 87.1978983,86.3559167 87.3436808,86.6221088 C87.608025,87.1043364 87.4834142,88.0002043 87.8675299,88.4534258 C88.2516456,88.9069494 88.8450589,89.2556278 88.9149256,89.6043062 C88.9847923,89.9526825 88.5483522,91.4096386 89.0982123,92.0637883 C89.7055385,92.7856191 90.9398503,92.7442248 90.6606859,93.8600562 C90.3812191,94.9764918 91.9303848,96.2482313 91.184535,97.6967273 C89.4907966,100.984698 88.4258586,105.161285 92.4418333,112.625844 C92.4418333,112.625844 93.2097621,113.497237 93.3141085,115.83435 C93.3141085,115.83435 93.8896771,129.717129 91.7948857,138.82114 C91.7948857,138.82114 88.7425272,143.181131 88.9524298,147.157394 C88.9524298,147.157394 86.8195293,149.947124 73.0636517,152.806649 C73.0636517,152.806649 69.9907264,153.295524 68.5939972,152.388477 C67.1978729,151.481429 64.2649834,150.853869 62.0298537,152.249187 C59.7956313,153.644505 60.0052314,154.201967 60.0052314,154.201967 Z"/>
  </g>
</svg>
