<svg xmlns="http://www.w3.org/2000/svg" width="200" height="200" viewBox="0 0 200 200">
  <g fill="none" fill-rule="evenodd">
    <path fill="#fff" fill-rule="nonzero" d="M411.481898,-143.199902 C411.781898,-143.599902 411.981898,-143.999902 412.281898,-144.399902 C412.881898,-145.199902 412.581898,-146.599902 411.581898,-146.899902 C407.381898,-148.099902 403.081898,-149.099902 398.781898,-149.699902 C402.481898,-150.199902 406.181898,-150.699902 409.881898,-151.399902 C411.481898,-151.699902 411.681898,-153.899902 410.181898,-154.599902 C408.181898,-155.499902 406.081898,-155.599902 403.981898,-155.199902 C402.281898,-155.099902 400.481898,-154.999902 398.781898,-154.799902 C398.981898,-155.599902 399.281898,-156.399902 399.681898,-157.099902 C402.281898,-157.599902 404.781898,-158.199902 407.381898,-158.699902 C409.481898,-159.099902 410.581898,-160.899902 409.281898,-162.699902 C408.981898,-163.199902 408.381898,-163.299902 407.781898,-163.199902 C402.481898,-162.599902 396.981898,-162.399902 391.681898,-162.499902 C387.281898,-165.399902 381.681898,-166.999902 376.181898,-167.599902 C375.781898,-167.899902 375.281898,-168.099902 374.881898,-168.399902 C369.881898,-171.599902 364.781898,-174.699902 360.181898,-178.499902 C353.781898,-183.799902 349.881898,-191.399902 343.481898,-196.299902 C343.181898,-196.799902 342.881898,-197.299902 342.581898,-197.799902 C342.181898,-198.399902 341.781898,-198.999902 341.281898,-199.599902 C340.881898,-208.099902 335.381898,-215.999902 328.381898,-220.399902 C321.581898,-224.699902 313.381898,-224.999902 306.081898,-222.399902 C304.581898,-223.899902 302.981898,-225.099902 301.181898,-225.999902 C301.081898,-226.299902 300.881898,-226.499902 300.581898,-226.699902 C298.481898,-227.899902 296.081898,-228.699902 293.981898,-229.899902 C291.781898,-231.099902 289.781898,-232.599902 287.781898,-234.099902 C283.681898,-237.099902 279.781898,-240.199902 275.381898,-242.699902 C268.281898,-246.699902 258.081898,-249.099902 250.081898,-245.999902 C249.781898,-246.299902 249.481898,-246.599902 249.181898,-246.899902 C250.181898,-247.099902 251.181898,-247.299902 252.281898,-247.599902 C253.181898,-247.799902 253.581898,-248.699902 253.381898,-249.599902 C253.281898,-250.299902 253.181898,-250.899902 253.081898,-251.499902 C256.181898,-261.499902 256.681898,-272.999902 254.081898,-283.199902 C251.281898,-293.899902 241.381898,-297.299902 231.581898,-299.399902 C222.081898,-301.499902 210.481898,-301.999902 201.381898,-297.999902 C192.681898,-294.199902 187.681898,-285.599902 185.181898,-276.799902 C185.081898,-276.699902 184.981898,-276.599902 184.881898,-276.499902 C184.381898,-275.999902 184.481898,-274.999902 185.081898,-274.699902 C187.181898,-273.399902 189.381898,-272.199902 191.681898,-270.999902 C191.581898,-270.199902 191.481898,-269.499902 191.281898,-268.699902 C190.781898,-266.299902 189.281898,-263.999902 189.281898,-261.599902 C189.281898,-260.299902 190.581898,-259.099902 191.381898,-258.199902 C191.881898,-257.699902 192.281898,-257.199902 192.781898,-256.599902 C191.781898,-254.399902 190.481898,-252.399902 189.181898,-250.399902 C187.981898,-248.599902 187.381898,-246.499902 188.681898,-244.599902 C188.881898,-244.299902 189.281898,-243.999902 189.681898,-244.199902 C190.781898,-244.599902 191.781898,-244.899902 192.881898,-245.099902 C192.981898,-244.099902 192.981898,-243.099902 192.881898,-241.999902 C192.781898,-241.199902 192.681898,-239.899902 193.381898,-239.299902 C194.281898,-238.499902 195.081898,-238.499902 196.181898,-238.599902 C197.381898,-238.799902 198.281898,-238.899902 199.281898,-238.799902 C199.181898,-238.599902 198.981898,-238.399902 198.881898,-238.199902 C198.081898,-237.099902 197.181898,-236.399902 196.681898,-235.199902 C195.781898,-233.199902 197.981898,-231.599902 199.281898,-230.299902 C198.881898,-228.799902 198.481898,-227.299902 199.081898,-225.699902 C199.781898,-223.799902 201.981898,-223.299902 203.781898,-223.099902 C206.781898,-222.799902 210.281898,-223.599902 213.181898,-224.299902 C213.481898,-224.399902 213.681898,-224.399902 213.981898,-224.499902 C215.581898,-223.099902 217.381898,-221.799902 218.781898,-220.499902 C220.281898,-219.199902 221.681898,-217.899902 223.081898,-216.599902 C221.281898,-213.199902 219.781898,-209.699902 218.381898,-206.099902 C217.181898,-202.799902 216.081898,-199.499902 215.281898,-196.099902 C214.581898,-193.399902 213.681898,-190.299902 213.581898,-187.399902 C212.381898,-186.499902 211.281898,-185.699902 210.081898,-184.899902 C208.481898,-183.799902 208.481898,-183.299902 208.181898,-181.299902 C207.281898,-175.599902 205.781898,-170.099902 203.881898,-164.799902 C200.681898,-163.299902 197.581898,-161.499902 194.781898,-159.299902 C190.281898,-155.799902 185.981898,-151.799902 185.081898,-146.099902 C184.681898,-143.499902 181.981898,-142.699902 180.681898,-140.699902 C180.181898,-139.899902 179.881898,-139.099902 179.881898,-138.299902 C177.581898,-136.499902 175.381898,-134.599902 173.181898,-132.699902 C170.681898,-130.499902 168.081898,-128.299902 165.581898,-126.199902 C163.281898,-124.199902 160.581898,-122.399902 158.381898,-120.299902 C156.381898,-119.399902 154.481898,-118.299902 152.681898,-117.099902 C147.481898,-113.499902 142.281898,-110.099902 136.581898,-107.299902 C133.681898,-105.899902 130.681898,-104.799902 127.781898,-103.599902 C126.481898,-103.099902 124.581898,-101.799902 125.081898,-100.099902 C126.081898,-96.4999017 131.581898,-97.5999017 134.481898,-99.2999017 C137.881898,-98.5999017 141.681898,-99.1999017 145.281898,-100.299902 C144.981898,-99.8999017 144.781898,-99.4999017 144.581898,-99.0999017 C143.681898,-96.8999017 144.581898,-94.8999017 146.781898,-93.9999017 C147.381898,-93.7999017 148.081898,-93.9999017 148.481898,-94.4999017 C149.781898,-95.8999017 151.281898,-97.0999017 152.681898,-98.3999017 C155.981898,-99.6999017 159.181898,-101.399902 162.381898,-102.999902 C165.681898,-104.699902 168.781898,-107.199902 170.281898,-110.499902 C175.081898,-112.699902 179.681898,-115.399902 184.181898,-118.099902 C187.081898,-119.799902 189.981898,-121.499902 192.881898,-123.199902 C192.981898,-123.099902 192.981898,-123.099902 193.081898,-122.999902 C193.481898,-122.699902 194.081898,-122.799902 194.481898,-122.999902 C200.081898,-126.099902 205.581898,-129.399902 211.081898,-132.699902 C216.881898,-132.899902 222.781898,-133.099902 228.481898,-133.899902 C231.981898,-134.399902 233.181898,-138.199902 234.381898,-140.999902 C236.281898,-145.099902 238.381898,-149.099902 240.581898,-153.099902 C242.781898,-157.199902 245.181898,-161.199902 247.681898,-164.999902 C249.281898,-164.299902 250.881898,-163.499902 252.481898,-162.599902 C257.781898,-159.699902 261.781898,-155.399902 266.081898,-151.199902 C269.981898,-147.299902 273.981898,-144.399902 278.881898,-141.799902 C282.581898,-139.799902 284.481898,-135.899902 286.281898,-131.999902 C285.781898,-130.599902 284.881898,-129.299902 283.481898,-129.199902 C282.481898,-129.099902 281.481898,-128.199902 281.881898,-127.099902 C282.381898,-125.599902 282.781898,-123.899902 283.381898,-122.299902 C276.481898,-117.699902 270.281898,-111.899902 265.181898,-105.399902 C263.681898,-105.199902 262.181898,-104.899902 260.681898,-104.499902 C259.181898,-104.099902 257.781898,-103.599902 257.281898,-101.899902 C256.781898,-99.8999017 256.781898,-97.3999017 256.881898,-95.0999017 C255.081898,-94.4999017 253.381898,-93.7999017 251.581898,-93.1999017 C247.481898,-91.6999017 244.381898,-90.2999017 241.581898,-86.8999017 C236.081898,-80.2999017 229.481898,-74.5999017 224.181898,-67.7999017 C221.981898,-64.9999017 221.181898,-62.3999017 222.181898,-58.8999017 C223.281898,-54.9999017 225.281898,-51.1999017 227.281898,-47.7999017 C228.981898,-44.7999017 230.981898,-41.6999017 233.281898,-38.8999017 C237.381898,-27.3999017 242.181898,-16.0999017 247.481898,-5.09990173 C246.481898,-3.99990173 245.481898,-3.09990173 244.281898,-2.29990173 C243.181898,-1.59990173 242.881898,-0.0999017304 243.881898,0.90009827 C247.281898,4.30009827 251.581898,7.50009827 256.281898,9.70009827 C257.381898,13.6000983 258.781898,17.5000983 259.781898,21.4000983 C260.681898,24.7000983 261.381898,28.0000983 261.981898,31.3000983 C259.481898,37.6000983 253.481898,42.6000983 247.381898,45.9000983 C242.581898,48.5000983 237.481898,50.2000983 232.481898,52.4000983 C230.981898,53.1000983 227.781898,53.7000983 227.581898,55.7000983 C227.381898,58.3000983 227.681898,60.6000983 228.681898,63.0000983 C228.881898,63.5000983 229.281898,63.8000983 229.781898,64.0000983 C229.781898,64.1000983 229.781898,64.2000983 229.781898,64.3000983 C229.681898,65.1000983 229.981898,65.8000983 230.781898,66.0000983 C232.281898,66.5000983 233.681898,66.8000983 235.181898,67.1000983 C234.681898,68.5000983 233.881898,69.8000983 232.981898,71.0000983 C229.481898,70.2000983 225.781898,70.9000983 223.281898,74.2000983 C219.181898,79.4000983 221.581898,86.3000983 226.481898,89.9000983 C231.781898,93.8000983 240.481898,92.9000983 244.581898,87.7000983 C245.281898,86.8000983 245.781898,85.9000983 246.181898,84.8000983 C248.081898,87.7000983 251.181898,89.7000983 254.881898,90.0000983 C260.181898,90.4000983 265.581898,85.7000983 266.181898,80.6000983 C266.281898,79.8000983 266.281898,79.0000983 266.181898,78.2000983 C266.981898,77.8000983 267.881898,77.3000983 268.581898,76.8000983 C268.781898,79.1000983 269.681898,81.5000983 271.281898,83.5000983 C273.181898,85.8000983 275.781898,87.1000983 278.381898,87.4000983 C279.181898,90.9000983 281.581898,94.1000983 284.381898,95.9000983 C290.181898,99.6000983 297.381898,96.6000983 299.581898,90.6000983 C300.681898,90.5000983 301.781898,90.3000983 302.881898,90.2000983 C304.581898,94.3000983 308.781898,97.2000983 313.181898,97.4000983 C318.681898,97.7000983 322.681898,93.4000983 323.481898,88.4000983 C323.481898,88.4000983 323.581898,88.4000983 323.581898,88.4000983 C324.981898,92.7000983 328.781898,95.9000983 333.281898,97.0000983 C338.481898,98.3000983 344.281898,95.8000983 345.581898,90.7000983 C347.481898,94.2000983 351.281898,96.6000983 355.381898,97.1000983 C361.581898,97.9000983 366.781898,92.9000983 366.881898,86.9000983 C366.981898,81.7000983 362.381898,76.4000983 357.381898,74.9000983 C356.581898,73.1000983 355.881898,71.3000983 355.281898,69.5000983 C355.381898,69.5000983 355.481898,69.5000983 355.581898,69.5000983 C356.281898,69.5000983 356.781898,69.2000983 357.081898,68.8000983 C357.681898,68.7000983 358.081898,68.2000983 358.081898,67.5000983 C357.381898,59.5000983 354.281898,51.6000983 349.281898,45.2000983 C347.781898,39.9000983 345.581898,34.7000983 343.481898,29.8000983 C341.781898,25.8000983 339.881898,21.8000983 337.881898,17.8000983 C339.881898,17.5000983 341.881898,17.2000983 343.981898,17.0000983 C345.581898,16.9000983 346.381898,15.2000983 345.281898,13.9000983 C335.381898,2.50009827 330.881898,-12.1999017 323.181898,-24.9999017 C324.181898,-25.0999017 325.181898,-25.0999017 326.181898,-24.9999017 C327.181898,-24.8999017 327.981898,-26.0999017 327.681898,-26.9999017 C326.681898,-30.0999017 325.481898,-33.0999017 324.081898,-35.8999017 C325.081898,-36.7999017 325.981898,-37.7999017 326.781898,-38.7999017 C327.181898,-39.2999017 327.381898,-39.9999017 326.981898,-40.5999017 C326.081898,-41.8999017 325.381898,-43.1999017 324.681898,-44.5999017 C328.081898,-58.7999017 339.181898,-69.9999017 343.881898,-83.5999017 C349.381898,-90.2999017 354.881898,-97.0999017 359.181898,-104.699902 C364.181898,-113.799902 367.281898,-125.399902 363.181898,-135.399902 C363.081898,-135.499902 363.081898,-135.599902 362.981898,-135.699902 C362.981898,-135.999902 362.881898,-136.299902 362.681898,-136.699902 C359.681898,-141.599902 356.881898,-147.099902 353.281898,-151.599902 C351.581898,-153.699902 349.581898,-155.499902 347.181898,-156.799902 C345.081898,-157.899902 342.881898,-158.499902 340.781898,-159.599902 C338.981898,-163.699902 336.481898,-167.699902 333.981898,-171.499902 C333.981898,-171.499902 333.981898,-171.599902 333.981898,-171.599902 C334.181898,-171.499902 334.381898,-171.399902 334.581898,-171.299902 C339.181898,-169.299902 343.781898,-167.299902 348.081898,-164.599902 C350.081898,-163.299902 351.881898,-161.899902 353.581898,-160.299902 C353.581898,-158.099902 354.181898,-156.099902 355.681898,-154.799902 C357.281898,-153.499902 359.081898,-153.099902 360.781898,-153.399902 C362.881898,-152.299902 364.781898,-151.199902 366.281898,-149.599902 C368.681898,-146.999902 369.481898,-143.099902 371.481898,-140.199902 C375.681898,-133.899902 385.081898,-134.999902 390.481898,-130.499902 C390.981898,-130.099902 391.681898,-130.199902 392.081898,-130.499902 C395.381898,-133.199902 394.681898,-136.399902 392.281898,-139.099902 C394.281898,-138.399902 396.381898,-137.599902 398.381898,-136.899902 C401.181898,-135.999902 403.981898,-134.999902 406.781898,-134.099902 C408.381898,-133.599902 409.381898,-133.199902 410.781898,-134.099902 C411.181898,-134.399902 411.381898,-134.999902 411.281898,-135.499902 C410.681898,-138.799902 404.281898,-141.399902 401.681898,-142.799902 C401.281898,-142.999902 400.881898,-143.199902 400.481898,-143.399902 C403.581898,-142.999902 406.581898,-142.699902 409.681898,-142.299902 C410.581898,-142.499902 411.181898,-142.799902 411.481898,-143.199902 Z M268.381898,65.2000983 C264.681898,64.9000983 253.981898,68.2000983 253.981898,68.2000983 L255.481898,63.7000983 L275.581898,59.5000983 C275.581898,59.5000983 274.381898,62.2000983 275.981898,62.5000983 C277.581898,62.8000983 280.281898,63.8000983 280.281898,63.8000983 C280.281898,63.8000983 272.081898,65.5000983 268.381898,65.2000983 Z M314.581898,47.9000983 L304.581898,50.6000983 C304.581898,50.6000983 304.881898,43.0000983 298.781898,35.9000983 C292.681898,28.8000983 294.881898,21.8000983 293.581898,19.6000983 C292.281898,17.4000983 288.981898,15.7000983 288.481898,12.5000983 C288.081898,9.20009827 287.781898,2.50009827 291.181898,2.70009827 C291.181898,2.70009827 297.881898,9.40009827 299.681898,13.1000983 C301.481898,16.8000983 302.981898,32.0000983 302.981898,32.0000983 C302.981898,32.0000983 308.481898,30.5000983 309.981898,31.4000983 C311.481898,32.3000983 313.681898,38.7000983 314.581898,41.2000983 C315.481898,43.7000983 314.581898,47.9000983 314.581898,47.9000983 Z M331.981898,71.9000983 L329.581898,75.9000983 L323.181898,76.3000983 L320.081898,75.1000983 C319.981898,74.4000983 318.581898,72.4000983 318.581898,72.4000983 L331.981898,71.9000983 Z"/>
    <path fill="#fff" d="M72.0786175,79.6740112 C72.2217822,75.1790628 71.4301659,69.9489592 71.1038348,65.2775736 C74.3755678,65.4477095 76.0893328,67.1763742 79.6831862,67.0272427 C80.5295419,66.834002 81.1232541,66.388708 81.8285504,66.056838 C82.9191281,64.8091747 82.9528139,62.507089 83.1928252,60.4129471 C83.5275778,60.4213489 83.6981122,60.270117 83.7781159,60.0243651 C83.999179,60.0621731 83.8875948,60.2197064 83.7781159,60.2197064 C83.2538807,61.398055 84.1549758,61.7761348 84.167608,62.9439812 C83.9044377,63.9752988 83.0980839,64.4689029 82.8033332,65.4708143 C82.6580632,70.6757126 87.1466956,71.2533345 90.9931926,72.4757924 C91.8374429,73.3831839 93.0248672,73.9482031 93.7217422,75.004726 C93.7070046,75.2798841 93.6901617,75.5550421 93.9175409,75.5886492 C93.9891232,77.3971308 93.8164835,78.9661619 93.9175409,80.4511752 C94.1238664,83.526224 95.2860264,86.0110483 95.4776143,89.0104812 C95.1491778,90.0438993 94.2691364,90.5291016 93.7217422,91.346174 C91.5932209,91.2957634 90.4331662,92.2136571 89.2394258,93.0958432 C88.3635951,94.104056 87.5593467,95.1836838 86.7024642,96.2087 C83.7360087,98.241929 80.1379445,99.6471255 78.5126048,103.016236 C77.944157,102.612951 77.9378409,101.646747 77.7336207,100.877985 C77.3525501,100.28356 77.316759,99.3467622 76.9546367,98.7376336 C76.6388323,97.1728035 76.0682791,95.8600265 75.5882565,94.4569304 C74.8513797,91.3671785 73.4807888,88.9075595 72.8576016,85.7043836 C71.145942,82.6797454 69.9227265,79.165704 68.9584706,75.393308 C70.0953662,76.724989 70.4174867,78.867441 72.0786175,79.6740112 Z M115.156436,28.8285828 L115.152225,28.990317 L114.689045,28.9420068 L115.156436,28.8285828 Z M117.457597,77.6995946 L117.482861,77.6806906 C117.449175,78.0356655 117.41549,78.38854 117.381804,78.7414144 C117.407068,78.3948413 117.432333,78.0482682 117.457597,77.6995946 Z M118.857663,172.257346 C119.198732,173.213048 119.562959,174.164549 119.954557,175.109748 L119.817708,174.945914 C119.573486,174.637148 119.341896,174.31368 119.120833,173.983911 C118.602914,172.429583 118.150261,170.873154 117.752348,169.316726 C118.099732,170.299733 118.46396,171.28064 118.857663,172.257346 Z M119.352423,28.1039299 L119.491377,28.1165326 L119.666122,28.5534248 C118.956615,28.4757084 118.476592,28.4799093 118.480803,28.4799093 C118.480803,28.4841101 118.965036,28.4862106 119.672438,28.5702283 C119.977716,29.3999034 120.047193,30.0258355 118.977669,29.1688546 C118.537648,28.8201811 118.152366,28.4589048 117.798666,28.0787246 C118.217633,28.0640215 118.758711,28.0619211 119.352423,28.1039299 Z M120.040876,178.43685 L119.954557,178.354933 C119.802971,178.00836 119.65349,177.661787 119.506114,177.315214 C119.693492,177.705896 119.88929,178.092377 120.085089,178.480959 L120.040876,178.43685 Z M121.421994,178.367536 C121.699902,178.940957 121.990442,179.510177 122.29572,180.077296 L122.544152,180.524691 C122.24098,180.302044 121.944124,180.077296 121.653584,179.844147 L121.533578,179.747527 C121.205142,179.10059 120.895654,178.445252 120.596692,177.789914 C120.864073,177.987355 121.13777,178.180596 121.421994,178.367536 Z M123.179972,28.9399063 C123.561042,29.0848369 123.935797,29.2507719 124.300024,29.4293096 L124.464243,29.8977084 C123.908427,29.6057468 123.518935,29.4461131 123.52104,29.450314 C123.518935,29.4524145 123.916849,29.6225504 124.472664,29.9229137 L124.523193,30.0657439 L124.453716,30.0510408 L124.438978,30.0447394 C124.032643,29.8220925 123.468406,29.5469344 122.836798,29.3074839 L122.575733,29.2150644 C122.264139,28.9420068 121.946229,28.6962549 121.647268,28.4631057 C122.245191,28.6101367 122.784164,28.7886744 123.179972,28.9399063 Z M123.83895,30.7210821 C123.518935,30.1455607 123.097863,29.6855637 122.657842,29.2885799 L122.853641,29.3620954 C123.401035,29.5742402 123.891584,29.8115902 124.262128,30.0111323 L123.895795,30.0027306 C124.169492,30.2442815 124.615829,30.6412653 124.874788,31.0739566 C124.535825,30.9521309 124.190546,30.8345061 123.83895,30.7210821 Z M125.912732,179.850448 C125.632719,179.695016 125.352706,179.533282 125.076903,179.367347 C124.30213,177.745804 123.632625,176.096956 123.049439,174.433405 C123.609466,175.620156 124.211599,176.788002 124.862156,177.932744 C125.196909,178.57968 125.548504,179.218215 125.912732,179.850448 Z M126.641187,181.058203 C127.260164,182.045412 127.925458,183.007415 128.641282,183.937911 C128.192839,183.753072 127.746503,183.557731 127.306482,183.349787 C127.142264,183.118738 126.982256,182.885589 126.826459,182.650339 C126.441178,182.005503 126.081161,181.350165 125.735882,180.690626 C126.034843,180.818753 126.340121,180.940578 126.641187,181.058203 Z M131.552998,170.847949 C132.561466,172.944191 133.702573,174.899704 134.978422,176.626268 C136.35954,178.493562 137.911192,180.100401 139.580744,181.354366 C140.252355,181.85007 140.595529,182.076918 141.296614,182.492806 C140.622898,182.03701 140.294462,181.793358 139.654432,181.266147 C138.062778,179.947069 136.610078,178.285618 135.338439,176.386818 C133.458351,173.60163 131.9467,170.287131 130.736117,166.726879 C131.197191,167.741393 131.681425,168.755907 132.193028,169.766221 C132.750949,170.927766 133.350977,172.0389 133.991007,173.089122 C134.582614,174.086832 134.925788,174.639249 135.612136,175.676868 C135.490025,175.45002 135.382652,175.244177 135.281594,175.053036 C136.694292,177.025352 138.264893,178.686803 139.93234,179.934466 C141.454517,181.081308 143.058803,181.913084 144.762041,182.4655 C144.418867,182.851982 144.027269,183.232162 143.517772,183.629146 C143.107226,183.950514 142.669311,184.234073 142.216658,184.479825 C141.978752,184.3601 141.736635,184.229873 141.429252,184.061837 C140.104979,183.324581 138.856499,182.41719 137.692234,181.348064 C137.479593,181.133819 137.269056,180.911172 137.060625,180.686425 C135.151062,178.598584 133.538354,176.057048 132.197238,173.248755 C130.856123,170.438362 129.780283,167.373816 128.904452,164.183243 C129.668698,166.508433 130.544529,168.747506 131.552998,170.847949 Z M141.949277,184.620555 C141.481886,184.355899 141.025023,184.072339 140.582897,183.765675 C140.839751,183.910605 141.09871,184.042933 141.361881,184.173161 C141.660842,184.31389 141.900853,184.425214 142.132443,184.526035 L141.949277,184.620555 Z M140.755536,185.11836 C138.056462,183.36449 135.788987,180.953181 133.940478,178.071373 C134.620511,178.90945 135.334228,179.695016 136.079527,180.415468 C136.323749,180.650717 136.570076,180.879666 136.820614,181.102313 C138.328054,182.568422 139.995501,183.778277 141.789269,184.696171 C141.452411,184.855805 141.109237,184.998635 140.755536,185.11836 Z M139.281783,185.506942 L138.808076,185.151967 C139.003875,185.265391 139.203884,185.376714 139.403894,185.483837 L139.281783,185.506942 Z M137.909086,185.691781 C136.071105,184.292886 134.424712,182.597828 133.020435,180.713731 C132.563572,180.104602 132.125656,179.47657 131.708794,178.827533 C133.115176,180.61501 134.683671,182.207146 136.389015,183.519923 C137.201685,184.26768 138.060673,184.950325 138.963873,185.565754 C138.614383,185.622466 138.262787,185.664475 137.909086,185.691781 Z M139.709171,187.561175 L139.816545,187.613686 C139.509162,187.668298 139.218622,187.708206 138.938609,187.739713 C138.578592,187.504463 138.226996,187.258712 137.883822,187.002458 L137.761711,186.907938 L138.22068,186.828121 C138.443848,186.983554 138.68386,187.147388 138.978611,187.336428 C138.707019,187.143187 138.481745,186.977252 138.27542,186.817619 L138.33858,186.805016 C138.789128,187.071772 139.243886,187.328026 139.709171,187.561175 Z M138.060673,187.815329 C137.770133,187.832133 137.481698,187.842635 137.180631,187.844735 C136.94062,187.668298 136.700608,187.491861 136.466913,187.309122 L136.180584,187.078073 C136.420595,187.06337 136.656396,187.042366 136.894302,187.019261 C137.11326,187.176794 137.332217,187.330127 137.555386,187.477158 L138.079621,187.815329 L138.060673,187.815329 Z M135.730036,187.792224 C135.42897,187.569577 135.132114,187.342729 134.843679,187.10748 L135.203696,187.10958 C135.500552,187.340629 135.80583,187.565376 136.113212,187.781722 L136.172163,187.81953 L135.730036,187.792224 Z M136.694292,185.73589 L136.68166,185.73589 L136.313222,185.727489 C135.698456,185.189775 135.11106,184.624756 134.551034,184.02823 C135.237382,184.639459 135.9511,185.208679 136.694292,185.73589 Z M135.317385,184.12275 C134.721568,183.486316 134.157331,182.814174 133.62678,182.116827 C134.860522,183.471613 136.216375,184.679367 137.675391,185.708585 L137.214317,185.729589 C136.557444,185.229683 135.921624,184.69407 135.317385,184.12275 Z M134.142593,185.254889 C133.298343,184.381104 132.521464,183.448508 131.80143,182.480203 L132.047758,182.518011 C133.005698,183.645949 134.041536,184.700372 135.153167,185.653973 C134.925788,185.630868 134.696304,185.603562 134.47103,185.574156 L134.142593,185.254889 Z M130.226619,180.155013 C130.740328,180.888067 131.281406,181.600118 131.851959,182.284862 L131.609842,182.217648 L131.418254,181.959293 C131.001393,181.371169 130.605585,180.770443 130.226619,180.155013 Z M132.780424,185.267491 C132.357246,184.849503 131.94249,184.421013 131.542471,183.975719 C131.077186,183.395997 130.632954,182.79737 130.207671,182.188242 C131.104555,183.307778 132.079338,184.364301 133.119387,185.341007 L132.780424,185.267491 Z M129.801336,186.529858 L129.750807,186.473146 C130.182407,186.569766 130.618217,186.657985 131.054027,186.737802 L131.315092,187.002458 C130.805594,186.859627 130.300307,186.699994 129.801336,186.529858 Z M125.731671,182.541116 C125.599033,182.331072 125.470606,182.116827 125.342179,181.906782 C125.512713,182.142032 125.685353,182.377282 125.860098,182.612531 L125.731671,182.541116 Z M139.014402,50.3098154 C139.380735,52.0489823 139.780754,53.8406604 140.206037,55.6323384 C139.73233,54.0318007 139.281783,52.4228612 138.856499,50.8076204 L139.014402,50.3098154 Z M141.06713,158.503644 C141.336616,159.253502 141.616629,160.00126 141.913486,160.744817 C142.991431,163.452288 144.279913,166.149257 145.873672,168.737004 C144.81678,167.310803 143.82726,165.762776 142.915638,164.158037 C141.892432,162.357958 140.947124,160.47596 140.056556,158.537251 C139.947077,158.133966 139.843914,157.734882 139.742857,157.335798 C139.475476,156.239367 139.231254,155.147136 139.00598,154.052805 C139.652326,155.552522 140.334464,157.039635 141.06713,158.503644 Z M149.558056,119.542523 L149.513844,119.481611 L149.292781,118.981705 L149.558056,119.542523 Z M150.911804,123.474553 C151.713947,125.106597 152.545565,126.713437 153.406658,128.299271 C153.200333,128.10393 152.998218,127.904388 152.793998,127.700645 C152.052911,126.224033 151.339193,124.728518 150.644423,123.218299 L150.911804,123.474553 Z M151.956064,124.430255 C152.511879,125.514083 153.080327,126.58951 153.663513,127.650234 L153.604563,128.053519 C152.941373,126.77645 152.299238,125.484677 151.673945,124.178202 L151.956064,124.430255 Z M153.714041,125.894264 L153.794045,125.957277 C153.785624,126.253439 153.770886,126.520196 153.749833,126.77645 C153.642459,126.568506 153.535086,126.362663 153.429817,126.15892 C153.286653,125.883761 153.149804,125.606503 153.012956,125.331345 C153.244546,125.522485 153.476135,125.711525 153.714041,125.894264 Z M153.890892,128.059821 C154.019319,128.290869 154.149851,128.528219 154.278278,128.759268 C154.408811,128.986116 154.539343,129.215064 154.669876,129.441912 C154.457234,129.259174 154.246698,129.074335 154.038267,128.887395 L153.857206,128.540822 L153.890892,128.059821 Z M155.400437,131.823815 C155.128845,131.61167 154.863569,131.395324 154.600399,131.172677 L154.383547,130.765191 C154.596188,130.908022 154.810935,131.04455 155.025682,131.178979 C155.149898,131.393224 155.274115,131.60957 155.400437,131.823815 Z M156.06152,131.796509 C156.248898,132.107375 156.43838,132.414039 156.629968,132.722805 C156.362587,132.540066 156.099417,132.351026 155.836247,132.155685 L155.720452,131.951942 L155.425701,131.426831 C155.638343,131.552858 155.846773,131.678884 156.06152,131.796509 Z M157.419479,138.314184 L157.061567,138.144048 L156.903665,138.064232 C156.528911,137.490811 156.164683,136.915289 155.806772,136.333466 L156.145735,136.518305 C156.562597,137.125333 156.98788,137.72396 157.419479,138.314184 Z M157.912134,138.982125 C159.156403,140.773803 160.491203,142.504568 161.941797,144.092504 C162.680779,144.890672 163.059745,145.279254 163.84715,146.014409 C163.078693,145.26035 162.708149,144.863366 161.98601,144.050495 C161.276503,143.243924 160.596471,142.397446 159.941703,141.527862 C160.228032,141.866034 160.518572,142.200004 160.815428,142.529774 C161.893374,143.722826 163.03027,144.859165 164.234537,145.873679 C165.49986,147.01422 166.855713,148.020332 168.274727,148.774391 C167.851549,148.753387 167.453636,148.709278 167.089408,148.644164 L166.704127,148.566448 L166.565173,148.53284 L166.550435,148.52864 L166.459905,148.503434 L166.358847,148.478229 L166.352531,148.476128 C166.156733,148.417316 165.950407,148.350102 165.737766,148.261883 C165.312482,148.089647 164.853513,147.848096 164.360859,147.528829 C163.716618,147.104539 163.017637,146.53952 162.310236,145.858976 C161.25966,144.768846 160.276456,143.598899 159.354307,142.401647 L159.099558,142.063475 C158.653221,141.439644 158.217411,140.788506 157.787917,140.112164 C158.160567,140.607868 158.543743,141.097272 158.931129,141.580373 C159.347991,142.13069 159.672217,142.546577 160.209084,143.201916 C159.89749,142.809133 159.663795,142.498267 159.436416,142.195803 C159.876437,142.723015 160.326984,143.241824 160.788059,143.74593 C161.543884,144.560902 161.93127,144.959987 162.733414,145.718247 C161.954429,144.938982 161.57757,144.531496 160.842798,143.69552 C159.545895,142.210506 158.341628,140.620471 157.211048,138.975824 C157.042619,138.717469 156.878401,138.454914 156.716288,138.194459 L156.84261,138.24697 C157.697387,139.488332 158.58585,140.704489 159.522736,141.868134 C160.198557,142.697809 160.543837,143.103195 161.255449,143.890861 C160.56068,143.086391 160.225927,142.672604 159.571159,141.830326 C158.70375,140.706589 157.874237,139.534542 157.084726,138.33939 L157.566854,138.513726 L157.912134,138.982125 Z M168.706326,148.786994 L168.497896,148.782793 C168.104193,148.568548 167.714701,148.335399 167.331525,148.081245 C167.803126,148.352202 168.179986,148.551744 168.706326,148.786994 Z M155.7394,136.596022 C156.025729,137.039215 156.318375,137.478208 156.61102,137.913 L156.501541,137.854187 C156.244687,137.438299 155.989938,137.020311 155.7394,136.596022 Z M155.179374,135.295847 L155.398331,135.413472 C155.627816,135.755844 155.8573,136.098217 156.08889,136.438489 L155.737295,136.224243 C155.549917,135.915478 155.36254,135.606713 155.179374,135.295847 Z M167.849444,151.773824 C169.356883,152.46277 170.994855,152.922767 172.666513,153.036191 C173.100218,153.059296 173.460235,153.065597 173.801303,153.055095 C173.226539,153.179021 172.64967,153.281942 172.070695,153.353358 C170.436934,153.557101 168.803173,153.538197 167.30626,153.296646 C166.874661,153.095003 166.438851,152.868155 165.901984,152.55939 C164.350332,151.664601 162.956582,150.589174 161.684943,149.433931 C160.413304,148.276586 159.259566,147.035224 158.194252,145.760255 C156.659443,143.920267 155.282536,141.987859 154.004581,140.011342 C152.998218,138.444412 152.052911,136.852276 151.156026,135.237035 L151.191817,135.21393 C151.975012,136.610725 152.791893,137.994917 153.657197,139.351803 C155.223586,141.807221 156.952089,144.231133 158.937445,146.487009 C159.739588,147.383898 160.15645,147.824991 161.030175,148.675671 C160.177504,147.801886 159.771169,147.354492 158.990079,146.438699 C157.39632,144.5504 155.983622,142.546577 154.690929,140.507047 C155.819404,142.113886 157.017355,143.689218 158.318469,145.191035 C159.101664,146.083724 159.505893,146.520616 160.348038,147.367094 C159.524841,146.501712 159.131139,146.056418 158.366892,145.153227 C157.802655,144.476885 157.257366,143.787939 156.733131,143.088492 C156.979458,143.395156 157.229996,143.69762 157.486851,143.997984 C158.221622,144.859165 158.602693,145.281354 159.387993,146.106829 C158.621641,145.264551 158.253203,144.83396 157.535274,143.958075 C157.345791,143.727026 157.16473,143.491777 156.979458,143.256527 C157.939504,144.386566 158.931129,145.417883 159.935387,146.30217 L160.116448,146.457603 C161.05544,147.455313 162.049171,148.413115 163.116589,149.297402 C163.579769,149.677582 163.937681,149.95064 164.299803,150.215295 C164.664031,150.479951 165.032469,150.736205 165.546178,151.059674 C165.042996,150.723603 164.680874,150.456846 164.325067,150.183789 C163.967156,149.908631 163.619771,149.629272 163.167118,149.238589 C162.426031,148.597954 161.72705,147.919511 161.05544,147.217963 C161.548095,147.591842 162.036539,147.923712 162.514456,148.211473 C162.891316,148.541242 163.276597,148.86261 163.6703,149.175576 C164.948255,150.179588 166.337794,151.084879 167.849444,151.773824 Z M166.794657,153.206327 C166.54833,153.155916 166.306213,153.101304 166.070413,153.040392 L165.718817,152.943771 L165.546178,152.88916 L165.409329,152.84505 L165.18195,152.773635 L165.148264,152.763133 L165.141948,152.761033 L165.175634,152.769434 L165.165107,152.767334 L165.125105,152.752631 L165.045101,152.723225 L164.729297,152.601399 C164.516655,152.517381 164.308225,152.424962 164.099794,152.32414 C163.263965,151.922956 162.440768,151.404146 161.634414,150.776114 C160.025918,149.522149 158.501635,147.845996 157.112096,145.949295 C156.333112,144.884371 155.592025,143.752232 154.888834,142.569682 C155.707819,143.701821 156.566807,144.817156 157.48264,145.898885 C158.274256,146.82308 158.682696,147.274675 159.539579,148.156861 C158.701645,147.257871 158.29952,146.795774 157.528958,145.861077 C156.227844,144.26684 155.04042,142.60539 153.939315,140.916633 C153.716147,140.515449 153.497189,140.110063 153.282442,139.702577 C154.709878,141.855532 156.253108,143.953874 157.981611,145.945094 C159.08061,147.201159 160.265929,148.423617 161.567043,149.562058 C162.868157,150.698397 164.289276,151.75282 165.864087,152.626604 C166.346215,152.88916 166.746234,153.088702 167.131515,153.265139 L166.794657,153.206327 Z M13.5811256,135.503791 C13.0800493,138.181856 13.7137634,141.99206 13.1916335,144.649121 C12.9768866,147.858598 13.3411143,150.267807 13.3853269,153.594909 C13.1874228,154.695541 12.8337219,155.64074 12.8000362,156.903107 C12.932674,158.717889 13.4379609,160.158794 13.9706176,161.572392 C14.147468,167.504043 13.9200889,173.074419 13.5811256,178.886345 C13.1811067,185.763196 12.6358179,192.84589 12.8316166,200 L113.503726,200 C112.358409,195.145876 110.642539,190.827365 108.347694,187.25241 C108.00452,186.502552 107.62766,185.788401 107.242379,185.082652 C107.503444,185.410322 107.775036,185.73589 108.071892,186.076162 L108.223478,186.248398 L108.301376,186.336617 L108.339273,186.380726 L108.406644,186.452141 L108.419276,186.466845 L108.524545,186.584469 L108.587705,186.653784 L108.690868,186.765107 L109.082466,187.178895 L109.465642,187.567477 L109.109835,187.149489 L108.743502,186.714697 L108.646656,186.597072 L108.615075,186.555063 L108.589811,186.521456 L108.497175,186.391229 L108.484543,186.374425 L108.480332,186.366023 L108.478227,186.366023 L108.427698,186.311412 L108.425593,186.307211 L108.421382,186.30301 L108.385591,186.2568 L108.314008,186.164381 L108.175054,185.981642 C107.810827,185.49854 107.488706,185.044844 107.179218,184.584847 C106.564452,183.669054 105.991794,182.732257 105.33071,181.46779 C105.189651,181.196833 105.052802,180.925875 104.92227,180.652818 C104.675942,180.089899 104.448563,179.501775 104.250659,178.886345 C103.551679,177.147178 102.890595,175.368103 102.387413,173.435695 C102.273724,172.950493 102.170561,172.469491 102.077925,171.99059 C101.827387,170.692516 101.652642,169.417547 101.52632,168.165683 C101.448422,166.953727 101.437895,165.672457 101.52211,164.296667 C101.686328,164.071919 101.781069,163.773656 101.715803,163.322061 C102.360044,161.034678 103.41483,159.156882 104.347506,157.159361 C104.406456,158.730492 104.511724,160.310025 104.684364,161.900061 C105.033854,165.075931 105.635988,168.302212 106.720249,171.499086 C107.612923,174.126741 108.84456,176.756496 110.537271,179.176206 C111.385732,180.386061 112.326829,181.528703 113.400564,182.599929 C114.467982,183.664853 115.58593,184.591149 116.741774,185.433426 C117.670239,186.101367 118.388167,186.555063 119.114517,186.991955 C119.840867,187.424647 120.573533,187.836333 121.579896,188.336239 C120.626167,187.737613 119.933503,187.256611 119.253471,186.756706 C118.575544,186.2568 117.908144,185.742192 117.053367,185.000735 C115.988054,184.082841 114.966953,183.087231 114.021646,181.982398 C113.072127,180.867063 112.259457,179.695016 111.547845,178.472558 C110.130936,176.025541 109.196155,173.429394 108.602443,170.862652 C108.282428,169.47636 108.05926,168.087967 107.905568,166.705875 C108.402434,168.690794 109.042464,170.654708 109.886714,172.547207 C110.225677,173.494507 110.617275,174.429205 111.063612,175.347098 C111.979444,177.233296 113.152131,179.043878 114.590093,180.673822 C116.047004,182.310067 117.695503,183.687958 119.442954,184.904115 C118.476592,184.16896 117.550233,183.381293 116.678613,182.532714 C116.242803,182.104224 115.819625,181.665231 115.415395,181.207335 L115.114329,180.860762 L114.819578,180.505787 C114.62799,180.268437 114.442718,180.026886 114.261657,179.785335 C113.739527,179.083787 113.263715,178.354933 112.832116,177.609276 C113.684788,178.745615 114.634306,179.804239 115.691198,180.764141 C116.741774,181.715642 117.866037,182.551618 119.032408,183.307778 L119.108201,183.353988 C120.55669,185.960638 122.297825,188.556785 124.405293,190.984898 C124.893737,191.545716 125.279018,191.957403 125.66851,192.364889 C126.060107,192.774475 126.458021,193.17566 127.013836,193.69867 C126.474864,193.158857 126.087477,192.742969 125.710617,192.324981 C125.333757,191.904892 124.963214,191.480602 124.495823,190.907181 C122.613629,188.617698 121.055661,186.195887 119.762969,183.759373 C120.308257,184.091243 120.864073,184.404209 121.430416,184.702472 C121.784116,185.252788 122.148344,185.796803 122.53152,186.338717 C124.516877,189.14911 126.952781,191.871285 129.839233,194.185973 C130.418207,194.648071 130.864544,194.979941 131.319302,195.305509 C131.774061,195.631078 132.23303,195.946145 132.862533,196.34943 C132.245662,195.927241 131.79722,195.59117 131.355094,195.252998 C130.912967,194.914827 130.477157,194.568254 129.917131,194.091453 C127.110683,191.70535 124.775836,188.922263 122.912591,186.071961 C122.714687,185.771598 122.523099,185.469134 122.335721,185.16667 L122.480991,185.235985 C123.40314,186.569766 124.411609,187.876242 125.519029,189.126006 C127.036995,190.844168 128.740234,192.457308 130.622427,193.894012 C132.222503,195.114369 133.957321,196.212901 135.780565,197.139196 C137.605914,198.067592 139.515478,198.821651 141.448201,199.397173 C142.225079,199.62192 142.81037,199.771052 143.393555,199.90758 L143.804101,200 L144.052534,200 C143.831471,199.945388 143.62304,199.888677 143.412504,199.831965 C142.835634,199.672331 142.258765,199.504295 141.496624,199.250142 C139.591271,198.615808 137.721709,197.802936 135.948994,196.822029 C134.174174,195.845323 132.502516,194.700582 130.980339,193.438215 C128.308634,191.247453 126.066423,188.693314 124.213705,186.01735 L124.609513,186.183285 C126.036948,188.155601 127.679131,190.056502 129.557114,191.776765 C130.096087,192.268269 130.515054,192.625344 130.940337,192.974018 C131.36562,193.322691 131.80143,193.662963 132.399353,194.099855 C131.816168,193.646159 131.39299,193.289084 130.978234,192.927808 C130.563477,192.564431 130.157142,192.196854 129.635013,191.688546 C128.032832,190.134218 126.615923,188.447562 125.37797,186.697893 C127.076997,188.785734 129.032879,190.745447 131.243509,192.440505 C131.790904,192.862694 132.216187,193.165158 132.645681,193.46132 C133.075175,193.753282 133.510985,194.041043 134.106802,194.402319 C133.525722,194.017938 133.100439,193.717574 132.681472,193.406709 C132.26461,193.097944 131.854064,192.780777 131.321408,192.341784 C129.24131,190.642526 127.415961,188.697515 125.84536,186.653784 C126.150638,186.765107 126.458021,186.87223 126.767509,186.973051 L126.954886,187.031864 L127.270691,187.414144 C129.475005,189.982986 132.150921,192.341784 135.186853,194.16917 C135.795303,194.530446 136.258482,194.790901 136.730084,195.036653 C137.201685,195.282405 137.677497,195.517654 138.321737,195.811716 C137.688023,195.494549 137.222738,195.240396 136.761664,194.97784 C136.298484,194.715285 135.843726,194.442227 135.252119,194.062047 C132.353035,192.196854 129.820284,189.831755 127.757029,187.279716 L128.013884,187.353232 C128.784446,188.210212 129.601327,189.033586 130.468736,189.817051 C132.11934,191.310467 133.946795,192.650549 135.908992,193.763784 C137.574334,194.711084 139.344944,195.500851 141.166082,196.118381 C142.985115,196.735911 144.852571,197.179105 146.711606,197.462665 C148.204308,197.67691 148.953817,197.746224 150.438098,197.823941 C148.958028,197.681111 148.214835,197.58239 146.736871,197.309332 C144.898889,196.962759 143.063013,196.458653 141.286088,195.78231 C139.509162,195.105967 137.795397,194.261589 136.197427,193.265979 C133.88995,191.837678 131.805641,190.092209 129.99924,188.157701 L129.643434,187.767019 L129.856076,187.815329 C131.967754,190.09431 134.487873,192.138041 137.294321,193.702871 C137.885927,194.03054 138.33858,194.259489 138.795444,194.480035 C139.252308,194.700582 139.713382,194.910626 140.338675,195.168981 C139.726014,194.88122 139.273361,194.650171 138.827024,194.410721 C138.380688,194.17127 137.938562,193.921317 137.365903,193.568443 C134.995265,192.127539 132.860428,190.337961 131.049816,188.359344 C132.656207,189.833855 134.433133,191.157134 136.344802,192.253566 C136.91325,192.577034 137.34906,192.805982 137.791186,193.024428 C138.231207,193.242874 138.677544,193.452919 139.279677,193.709173 C138.688071,193.427713 138.252261,193.202966 137.820661,192.967716 C137.391167,192.732467 136.961673,192.488815 136.407963,192.146443 C135.582661,191.633935 134.784729,191.079418 134.020482,190.491294 C134.382605,190.732845 134.748938,190.963893 135.117376,191.190741 C136.195322,191.827176 136.751137,192.119137 137.877506,192.646348 C136.776402,192.072927 136.237429,191.757861 135.193169,191.083619 C133.837316,190.197232 132.565677,189.191119 131.380358,188.10309 C131.803536,188.170304 132.228819,188.227016 132.658313,188.273226 C133.273079,188.821441 133.906793,189.346552 134.572087,189.840156 C137.079574,191.715852 139.959709,193.181961 142.976694,194.116659 C144.185172,194.482136 144.799937,194.633368 146.031574,194.88332 C144.812569,194.570354 144.208331,194.387616 143.020906,193.967527 C140.069188,192.908904 137.285899,191.32937 134.925788,189.367557 L134.721568,189.19532 L134.767886,189.231028 L134.685777,189.168014 C134.380499,188.907559 134.081538,188.640803 133.788892,188.367746 L133.896266,188.374047 C135.188958,189.411666 136.572181,190.337961 138.029092,191.121427 C139.795491,192.077128 141.669264,192.818585 143.589354,193.356298 C146.863192,194.267891 150.299144,194.582957 153.667723,194.459031 C155.017261,194.400218 155.688871,194.343506 157.025776,194.190174 C155.68045,194.261589 155.008839,194.278393 153.663513,194.26369 C150.313881,194.21958 146.930564,193.730177 143.797785,192.65475 C140.947124,191.688546 138.281736,190.23714 135.959521,188.38875 L136.045841,188.384549 C137.271162,189.170115 138.555433,189.852759 139.886022,190.415678 C140.420784,190.638325 140.827119,190.791657 141.237664,190.938688 C141.64821,191.081518 142.058756,191.218047 142.614571,191.379781 C142.067177,191.194942 141.665053,191.037409 141.262929,190.875675 C140.86291,190.713941 140.464996,190.543805 139.942866,190.298053 C138.755442,189.745636 137.61223,189.090298 136.523758,188.350942 L136.91325,188.317335 C139.039666,189.684723 141.380829,190.732845 143.816733,191.407087 C144.917838,191.701149 145.475759,191.820874 146.600022,192.012015 C145.490496,191.757861 144.940997,191.606629 143.865156,191.255855 C141.67558,190.537503 139.591271,189.501985 137.711182,188.214413 L138.106991,188.1514 L138.502799,188.075784 C140.692375,189.388561 143.107226,190.352664 145.618923,190.930286 C146.195793,191.060514 146.631603,191.142431 147.071623,191.218047 C147.509539,191.291563 147.949559,191.360877 148.541166,191.428091 C147.95377,191.32727 147.51796,191.236951 147.086361,191.140331 C146.652656,191.04161 146.223162,190.938688 145.654714,190.779054 C143.359869,190.14262 141.174503,189.174316 139.208095,187.918251 C139.458633,187.855237 139.717593,187.783822 139.989184,187.697704 C140.757642,188.065282 141.235559,188.269025 142.1156,188.592493 C141.300825,188.235418 140.839751,188.014871 140.161824,187.640992 C140.39973,187.563276 140.646057,187.475057 140.909228,187.372136 C140.597634,187.451952 140.309199,187.519167 140.033397,187.571678 L139.782859,187.433048 C139.397578,187.214602 139.016507,186.983554 138.643858,186.742003 L139.096511,186.63278 C139.458633,186.847025 139.810229,187.040265 140.302883,187.29862 C139.850231,187.029763 139.519689,186.828121 139.187041,186.607574 C139.509162,186.521456 139.824966,186.424836 140.13656,186.313512 C140.471312,186.513054 140.812381,186.706295 141.159766,186.886933 C142.039807,187.332227 142.490355,187.53387 143.414609,187.890945 C142.509303,187.48766 142.069282,187.260812 141.216611,186.773509 C140.919755,186.605474 140.633425,186.424836 140.347096,186.239997 L140.671322,186.11187 C141.698739,186.576068 142.755631,186.958348 143.839892,187.254511 C145.642082,187.895146 147.557962,188.300531 149.539108,188.491672 C150.650739,188.590393 151.217082,188.613497 152.353977,188.615598 C151.219187,188.550484 150.65495,188.493772 149.555951,188.338339 C148.802231,188.229116 148.056933,188.088387 147.330583,187.91405 C147.943243,187.977063 148.406423,188.012771 149.162248,188.042177 C148.189571,187.937155 147.711653,187.863639 146.768451,187.683001 C146.351589,187.603184 145.941044,187.508664 145.536814,187.405743 C144.29044,186.996156 143.105121,186.479447 141.9977,185.864017 L141.643999,185.662375 C141.974541,185.488038 142.292451,185.294797 142.597728,185.086853 C143.155649,185.338907 143.555668,185.49644 144.239911,185.73589 C143.593565,185.464933 143.206178,185.288496 142.69247,185.02384 L142.938797,184.847403 L143.292498,184.979731 L142.959851,184.830599 C143.288287,184.589048 143.601986,184.328593 143.892526,184.047134 C144.425183,183.528324 144.810464,183.055725 145.13469,182.585225 C145.705243,182.75116 146.06526,182.837279 146.720028,182.969607 C146.086314,182.79527 145.738929,182.686047 145.202062,182.488605 L145.492602,182.03701 C145.890515,181.37327 146.233689,180.671722 146.574758,179.688714 C146.12421,180.627612 145.709454,181.276649 145.25259,181.877376 L144.856782,182.358378 C143.195651,181.711441 141.669264,180.793547 140.252355,179.581592 C139.06493,178.564977 137.942772,177.327816 136.902723,175.901615 C135.86478,174.477515 134.908945,172.866475 134.045747,171.125207 C132.310928,167.638472 130.946653,163.658132 129.835022,159.505556 C129.150779,156.949316 128.554962,154.306959 128.037043,151.614191 C128.281265,152.355647 128.538119,153.099204 128.801289,153.83856 C129.957133,158.05835 131.348777,162.452477 133.285711,166.926421 C133.683624,167.81911 134.001534,168.491252 134.327865,169.161293 C134.662618,169.835535 135.001581,170.507677 135.48792,171.404566 C135.11106,170.440463 134.854206,169.724212 134.605773,169.007961 C134.361551,168.29381 134.127856,167.58176 133.839421,166.642862 C133.593094,165.850995 133.365715,165.063328 133.153073,164.279863 C133.692046,165.374194 134.252072,166.455922 134.849995,167.529249 C136.292168,170.125396 137.913297,172.70264 139.810229,175.122351 C140.580791,176.084354 140.985021,176.556954 141.831376,177.468546 C141.079762,176.468735 140.728167,175.960428 140.054451,174.92911 C138.382793,172.366569 137.018518,169.671701 135.866885,166.96633 C135.557397,166.237476 135.264751,165.502321 134.980527,164.767166 C135.542659,165.78378 136.125845,166.787792 136.7364,167.777101 C136.993254,168.279107 137.25853,168.781113 137.530121,169.276817 C138.650174,171.318448 139.915497,173.328572 141.372407,175.229473 C140.591318,174.107837 139.8776,172.956794 139.224938,171.791048 C138.984927,171.370959 138.755442,170.94877 138.534379,170.52238 C139.435474,171.820454 140.397625,173.08282 141.433463,174.284274 C143.566195,176.758596 146.044206,179.05018 148.932764,180.701128 C149.511738,181.024596 149.96018,181.245143 150.412833,181.453087 C150.865486,181.65893 151.326561,181.85007 151.951853,182.072717 C151.356036,181.774454 150.924436,181.530803 150.501258,181.274549 C150.078081,181.018295 149.66543,180.749438 149.132773,180.369258 C148.174833,179.684513 147.277949,178.924153 146.444225,178.10498 C147.646387,179.048079 148.936974,179.892457 150.30546,180.5688 C151.673945,181.247243 153.120329,181.75345 154.600399,182.053813 C155.221481,182.175639 155.693082,182.236552 156.166788,182.280661 C156.636284,182.324771 157.109991,182.352076 157.741599,182.352076 C157.114202,182.282762 156.648916,182.207146 156.187842,182.114726 C155.728873,182.020206 155.272009,181.913084 154.678297,181.734546 C153.189806,181.293453 151.781319,180.629713 150.484416,179.80844 C149.189618,178.985066 148.006404,177.999958 146.926353,176.924531 C144.387286,174.387196 142.372455,171.339453 140.65869,168.140478 C141.088184,168.749606 141.528204,169.348232 141.980857,169.934256 C143.648304,172.099813 145.498918,174.133042 147.532698,175.769287 C148.355894,176.414123 148.779072,176.712386 149.642271,177.2522 C148.844338,176.624168 148.456952,176.285996 147.711653,175.571846 C145.846302,173.784369 144.218857,171.646117 142.799843,169.379739 C141.079762,166.623958 139.608114,163.656031 138.288052,160.599887 C136.96799,157.541641 135.801619,154.386776 134.717357,151.192002 C134.892102,151.576383 135.066847,151.960764 135.243698,152.345145 C135.930046,154.327963 136.673239,156.30238 137.502752,158.270495 C139.155461,162.177319 141.107132,166.128253 143.658831,169.873343 C144.17675,170.619001 144.587296,171.167216 145.008368,171.711231 C145.429441,172.255246 145.863145,172.79506 146.471595,173.496608 C145.966308,172.706841 145.612607,172.110315 145.271538,171.509589 C144.93047,170.908862 144.602033,170.308135 144.195698,169.501565 C143.319868,167.798105 142.570359,166.071541 141.913486,164.338675 L142.100863,164.611733 C143.614618,166.783591 145.25259,168.835724 146.987409,170.564389 C147.688494,171.247033 148.048511,171.568401 148.770651,172.167027 C148.122199,171.496986 147.804289,171.144111 147.183207,170.402655 C146.842139,169.99937 146.507386,169.577181 146.176844,169.144489 C145.347332,167.613266 144.627298,166.056838 143.997794,164.496209 C143.738835,163.857674 143.494613,163.217039 143.263023,162.576404 C144.393602,164.50461 145.633661,166.376105 147.016884,168.148879 C148.450636,169.974165 150.038079,171.70703 151.806583,173.257157 C153.575087,174.807284 155.522548,176.164171 157.613172,177.235397 C158.457423,177.653385 159.103769,177.930643 159.760642,178.184797 C160.413304,178.438951 161.078599,178.6721 161.975483,178.928354 C161.133338,178.514567 160.522783,178.167993 159.926966,177.808818 C159.333253,177.447541 158.747963,177.071562 158.00898,176.529648 C156.667865,175.567645 155.442544,174.473314 154.330913,173.297066 C156.013097,174.576236 157.840552,175.666366 159.773274,176.496041 C161.703891,177.329917 163.735566,177.901237 165.796716,178.216304 C166.664125,178.34023 167.316787,178.399042 167.971555,178.43685 C168.626323,178.474658 169.28109,178.493562 170.154816,178.476759 C169.287406,178.348632 168.645271,178.228906 168.011557,178.088177 C167.377843,177.949547 166.748339,177.792014 165.929354,177.542061 C163.887152,176.939234 161.95864,176.063349 160.217506,174.958516 C158.476371,173.853683 156.924719,172.5136 155.564655,171.020185 C153.962474,169.268416 152.60241,167.3003 151.433934,165.206158 C150.33704,163.238043 149.40647,161.158604 148.595906,159.014052 L148.907499,159.348022 C149.282254,159.938247 149.659114,160.52007 150.048606,161.087189 C152.097123,164.090823 154.438286,166.789893 157.032092,168.776912 C157.554222,169.169695 157.954241,169.442752 158.358471,169.701107 C158.7627,169.959461 159.17114,170.205213 159.724851,170.501376 C159.236407,170.112794 158.882706,169.799828 158.533216,169.48056 C158.185831,169.159193 157.842657,168.829423 157.402636,168.365225 C156.025729,166.947426 154.794092,165.302779 153.701409,163.511101 C154.196169,163.861875 154.711983,164.204247 155.246745,164.531916 C156.720499,165.441408 158.347944,166.250079 160.101711,166.880212 C160.451201,167.008339 160.785953,167.117562 161.103863,167.218383 L161.274397,167.266693 L161.348085,167.289798 L161.489144,167.333907 L161.994431,167.476738 C162.560774,167.63007 163.080798,167.751896 163.598717,167.861119 C164.634556,168.075364 165.666183,168.243399 167.019931,168.365225 C165.672499,168.146779 164.657715,167.905228 163.640825,167.623769 C163.133432,167.480938 162.62604,167.323405 162.07654,167.136466 L161.585991,166.96843 L161.447037,166.909618 L161.37756,166.880212 L161.343874,166.865509 L161.341769,166.865509 L161.341769,166.863408 L161.265976,166.844504 L161.25966,166.840303 L161.244922,166.836102 L161.215447,166.8235 C160.908064,166.705875 160.583839,166.579848 160.246981,166.434918 C158.560585,165.718667 157.017355,164.83438 155.634132,163.861875 C154.446707,163.027999 153.375078,162.13111 152.402401,161.198513 C152.212918,160.828835 152.027646,160.452856 151.84448,160.072675 C150.438098,157.129954 149.280148,153.947783 148.261153,150.641685 C148.425371,150.864332 148.587484,151.08908 148.755913,151.309626 C150.587578,153.708332 152.697151,156.014619 155.288852,157.978533 C156.055204,158.560356 156.869979,159.108572 157.726862,159.610578 C158.06372,159.976055 158.404789,160.324729 158.745857,160.652398 C159.156403,161.036779 159.463786,161.301435 159.773274,161.555588 C160.082762,161.805541 160.390145,162.047092 160.800691,162.332752 C160.470149,161.973576 160.225927,161.681615 159.981705,161.383352 C159.754326,161.101892 159.522736,160.814132 159.234301,160.421349 C160.335406,160.959062 161.503882,161.414859 162.746046,161.757231 L162.954477,161.813943 L163.230279,161.885358 L163.754514,162.009284 C164.097688,162.087 164.442968,162.156315 164.788247,162.217228 C165.476701,162.336953 166.167259,162.425172 166.853608,162.483984 C168.224198,162.601609 169.590579,162.603709 170.9338,162.507089 C172.011745,162.420971 172.811783,162.309647 173.603399,162.171018 C174.395015,162.030288 175.182421,161.866454 176.214048,161.584994 C175.155051,161.767733 174.357119,161.855952 173.559187,161.923166 C172.761254,161.986179 171.963322,162.026088 170.898009,162.013485 C169.569525,162.000882 168.241041,161.891659 166.923085,161.671113 C166.262001,161.559789 165.607233,161.42326 164.956676,161.253124 C164.63245,161.169107 164.31033,161.076687 163.986104,160.975866 L163.501871,160.818333 L163.249227,160.732214 L163.045007,160.654498 C160.729109,159.805919 158.741647,158.535151 157.036303,157.071142 C156.804713,156.669957 156.579439,156.25827 156.356271,155.838182 C156.983669,156.300279 157.632121,156.737172 158.307942,157.142557 C159.086926,157.688672 159.914333,158.188578 160.781743,158.62547 C161.228079,158.850217 161.687048,159.058161 162.156544,159.247201 C162.392345,159.339621 162.628145,159.43204 162.870262,159.513957 C163.103957,159.597975 163.365022,159.679892 163.581875,159.747107 C163.840834,159.824823 164.076635,159.892037 164.325067,159.957151 C164.569289,160.020164 164.813512,160.076876 165.059839,160.133588 C165.552494,160.23861 166.049359,160.33103 166.546225,160.402445 C168.540003,160.692306 170.559045,160.70911 172.550718,160.503266 C170.268505,160.639795 167.979976,160.482262 165.779873,159.971854 C164.988257,159.787015 164.19664,159.553866 163.442921,159.274507 C166.040938,159.900439 168.714748,159.957151 171.28329,159.625281 C173.944468,159.274507 176.542485,158.512046 178.967862,157.375706 C181.389029,156.235166 183.645977,154.712344 185.517645,152.788338 C186.258732,152.013275 186.759808,151.381041 187.227199,150.725703 C187.686168,150.068264 188.119872,149.38562 188.589368,148.421517 C188.008288,149.324708 187.500896,149.944338 186.974555,150.536663 C186.441899,151.124787 185.886083,151.683505 185.08394,152.349346 C183.648083,153.559201 182.043797,154.533807 180.363718,155.289966 C182.439605,154.063307 184.33022,152.500578 185.812395,150.620681 C187.296676,148.749186 188.340935,146.552122 188.770429,144.247936 C188.945174,143.279632 188.991492,142.544477 188.999914,141.807221 C189.002019,141.072066 188.966228,140.334811 188.818853,139.364406 C188.856749,140.347413 188.814642,141.074167 188.734638,141.794619 C188.646213,142.51297 188.526207,143.22292 188.258826,144.132412 C187.610375,146.411393 186.342947,148.442521 184.692342,150.078767 C183.045949,151.723414 181.037434,152.98578 178.906807,153.88477 C176.403531,154.939192 173.700246,155.518914 171.0517,155.596631 C169.727427,155.636539 168.417892,155.548321 167.171517,155.323573 C165.923037,155.096725 164.744035,154.73755 163.697669,154.237644 C164.611397,154.512802 165.569337,154.676637 166.569384,154.754353 C170.262189,155.050516 174.302379,154.101115 177.597271,152.284232 C178.258355,151.912454 178.725746,151.607889 179.182609,151.290722 C179.635262,150.969355 180.073178,150.635384 180.61215,150.158583 C180.020544,150.566069 179.551048,150.845428 179.06892,151.107984 C178.588897,151.368439 178.096242,151.616291 177.41621,151.904052 C176.357213,152.359848 175.247687,152.723225 174.119213,152.98788 C173.689719,152.998383 173.239171,152.98788 172.672829,152.93957 C171.02012,152.786238 169.415834,152.292634 167.944185,151.572182 C166.48938,150.862232 165.160896,149.946439 163.939786,148.934025 C164.413493,149.129366 164.861935,149.276397 165.287218,149.368817 L165.668289,149.442332 C165.859877,149.568359 166.070413,149.700687 166.310424,149.847718 C166.087256,149.704888 165.895668,149.57256 165.716712,149.448634 L166.064097,149.492743 L166.076729,149.494843 L166.08515,149.494843 L166.017779,149.475939 L166.021989,149.475939 L166.074624,149.486442 L166.179892,149.507446 L166.283054,149.52635 L166.308319,149.522149 L166.483064,149.530551 L166.611491,149.536852 L166.798868,149.650276 C167.179939,149.877124 167.56522,150.091369 168.091561,150.347623 C167.571536,150.076666 167.192571,149.854019 166.819922,149.61877 L166.697811,149.541053 L166.92519,149.549455 C167.716806,149.57256 168.592637,149.507446 169.48531,149.354114 C169.891645,149.522149 170.220082,149.635573 170.552729,149.736394 C170.931694,149.854019 171.31487,149.95274 171.826473,150.04516 C171.319081,149.938037 170.93801,149.826713 170.561151,149.700687 C170.264295,149.599866 169.965333,149.484341 169.609527,149.331009 C170.036915,149.253292 170.468515,149.158773 170.895903,149.039047 C171.441192,148.885715 171.849632,148.742885 172.247546,148.587452 C172.647565,148.429919 173.041267,148.259783 173.542344,148.00773 C173.016003,148.182066 172.607563,148.291289 172.201228,148.38791 C171.792788,148.48243 171.382242,148.566448 170.839058,148.642063 C170.119025,148.753387 169.403201,148.797496 168.72738,148.789094 C168.415786,148.637863 168.158932,148.497133 167.904183,148.352202 C167.579958,148.167363 167.259943,147.974123 166.836765,147.692663 C166.466221,147.446911 166.099888,147.182255 165.737766,146.907097 C164.636661,146.006007 163.598717,144.985192 162.621829,143.897162 C161.219658,142.338633 159.926966,140.633074 158.716382,138.853998 L158.870074,138.891806 L158.70375,138.835094 L158.640589,138.742675 C158.06372,137.891995 157.507904,137.022412 156.966826,136.138125 L157.246839,136.249449 C157.444743,136.53931 157.644753,136.827071 157.844762,137.114831 C159.347991,139.322397 160.977541,141.458548 162.750256,143.353148 C163.478712,144.119809 163.851361,144.489487 164.615607,145.184734 C163.870309,144.472684 163.506082,144.092504 162.794469,143.313239 C162.270234,142.727215 161.758631,142.122288 161.25966,141.498456 C161.497566,141.769413 161.733366,142.03827 161.971272,142.300825 C162.666042,143.052784 163.019743,143.418261 163.743987,144.111408 C163.038691,143.399357 162.695517,143.025478 162.021801,142.260917 C160.79648,140.857821 159.644847,139.347602 158.552164,137.778571 L157.94582,136.856477 L157.661596,136.402781 C157.933187,136.501502 158.20899,136.593921 158.491108,136.675839 C159.002712,137.417295 159.526947,138.15035 160.063814,138.8624 C160.716476,139.71518 161.049124,140.133168 161.729156,140.94604 C161.070177,140.118465 160.743846,139.694175 160.112237,138.826692 C159.611161,138.139848 159.122717,137.434099 158.6448,136.715747 L159.19851,136.858577 L159.438522,136.908988 C159.649058,137.200949 159.859594,137.48661 160.072236,137.77227 C161.659679,139.887416 163.375549,141.891239 165.198793,143.55269 C165.929354,144.208028 166.299897,144.516793 167.049406,145.077611 C166.31674,144.495789 165.954618,144.178622 165.2409,143.50858 C163.46608,141.815623 161.794422,139.780294 160.263824,137.639942 C160.110132,137.421496 159.958546,137.198849 159.804855,136.978302 C160.548047,137.106429 161.310189,137.158941 162.078646,137.091726 C163.057639,137.007709 164.040844,136.711546 164.885094,136.192737 C165.73566,135.680229 166.43464,134.970279 166.977824,134.191014 C167.407318,133.562982 167.659961,133.054675 167.889446,132.546367 C168.112614,132.03596 168.308413,131.51505 168.514738,130.809301 C168.224198,131.485643 167.967344,131.977147 167.691542,132.451847 C167.407318,132.922347 167.108356,133.388645 166.630439,133.938961 C166.205156,134.434666 165.718817,134.875759 165.177739,135.224432 C164.638766,135.571005 164.04716,135.820958 163.43871,135.961688 C164.211378,135.692831 164.910358,135.241236 165.487227,134.667815 C166.070413,134.092293 166.533593,133.403348 166.910452,132.666093 C167.657856,131.187381 168.068402,129.542734 168.331572,127.891785 C168.43684,127.196538 168.491579,126.669327 168.540003,126.142116 C168.584215,125.614905 168.617901,125.087694 168.643166,124.379844 C168.542108,125.081392 168.453683,125.602302 168.354731,126.119011 C168.253674,126.63572 168.1463,127.148228 167.97366,127.822471 C167.554693,129.496524 166.963086,131.132769 166.076729,132.445546 C165.634603,133.098784 165.118789,133.657502 164.54613,134.054485 C163.977683,134.45357 163.358706,134.686719 162.710255,134.774938 C161.181762,134.984982 159.446943,134.386356 157.844762,133.478964 L157.333159,133.1744 C157.128939,132.836228 156.924719,132.498057 156.720499,132.155685 C157.484745,132.552669 158.251097,132.88874 159.002712,133.132391 C159.617477,133.334033 160.219611,133.470562 160.771216,133.525174 C161.320715,133.579785 161.811265,133.546178 162.211284,133.445357 C162.529193,133.359239 162.724992,133.264719 162.912369,133.149194 C163.099747,133.03157 163.270281,132.903443 163.491344,132.666093 C163.230279,132.855132 163.040796,132.943351 162.847103,133.014766 C162.65341,133.084081 162.459716,133.132391 162.160755,133.157596 C161.428089,133.233212 160.362776,133.008465 159.249039,132.504358 C158.135302,132.006553 156.98788,131.2777 155.895197,130.439623 L155.606762,130.212775 C155.027787,129.179357 154.461445,128.131236 153.905629,127.074713 C153.901419,126.736541 153.888786,126.39627 153.859311,126.005587 C154.89515,126.801655 155.962568,127.53471 157.015249,128.139637 C158.112143,128.776072 159.213248,129.273877 160.118554,129.521729 C160.480676,129.618349 160.720687,129.656157 160.931223,129.677162 C161.137549,129.693965 161.324926,129.691865 161.468091,129.656157 L160.971225,129.538533 C160.777532,129.481821 160.558574,129.408305 160.228032,129.265475 C159.394309,128.921002 158.38584,128.334979 157.392109,127.620828 C156.392062,126.906677 155.385699,126.062299 154.423548,125.150707 C153.314023,124.098385 152.244498,122.947342 151.257084,121.75219 C150.812852,120.821693 150.379147,119.880695 149.947548,118.939696 C151.341298,119.834485 152.819262,120.628453 154.358282,121.285891 C155.24885,121.666072 155.914145,121.909723 156.617336,122.147073 L157.099464,122.304606 L157.634226,122.470541 C157.998454,122.579764 158.392156,122.688987 158.844809,122.808713 C158.394262,122.682686 158.002664,122.565061 157.640542,122.449537 L157.109991,122.2752 L156.832083,122.18068 L156.629968,122.107165 C155.930988,121.861413 155.272009,121.605159 154.389863,121.214476 C152.789787,120.502426 151.261294,119.645445 149.829648,118.683442 C149.633849,118.250751 149.438051,117.815959 149.242252,117.383268 L149.315939,117.433679 C151.179185,118.727552 153.231913,119.838686 155.400437,120.680964 C155.672028,120.788086 155.94362,120.891008 156.219423,120.987628 L156.629968,121.130459 L157.027882,121.262786 C157.581592,121.443425 158.120565,121.600958 158.670064,121.745888 C159.764853,122.03995 160.874379,122.2731 161.994431,122.451637 C162.891316,122.590267 163.569242,122.665883 164.25138,122.724695 C164.933517,122.781407 165.61776,122.823416 166.535698,122.836018 C165.61776,122.806612 164.935623,122.752001 164.253485,122.682686 C163.575558,122.611271 162.899737,122.525153 162.007064,122.36972 C160.895432,122.174379 159.792222,121.924426 158.707961,121.615661 C158.164777,121.460228 157.632121,121.294293 157.080516,121.105253 L156.688918,120.970825 L156.280478,120.821693 C156.008886,120.720872 155.7394,120.61375 155.472019,120.504526 C153.332971,119.630742 151.313928,118.492302 149.494895,117.179525 L148.983292,116.803546 L148.926447,116.669117 C150.539155,117.834863 152.278184,118.859879 154.124587,119.685354 C154.806724,119.989918 155.501494,120.267176 156.204685,120.51923 L156.735236,120.701968 L157.236313,120.863702 C157.617383,120.985528 157.956346,121.084249 158.310047,121.18297 C159.714324,121.569451 161.143865,121.863513 162.588144,122.058854 C165.049312,122.388624 167.577852,122.441135 170.135867,122.142872 C172.689672,121.838308 175.285584,121.18297 177.780438,119.987817 C178.776274,119.504715 179.506835,119.072024 180.216342,118.599424 C180.925849,118.122624 181.622724,117.603814 182.488028,116.816148 C181.610092,117.591212 180.904796,118.093218 180.188973,118.557416 C179.471044,119.013212 178.736273,119.4333 177.736225,119.893297 C175.239266,121.040139 172.64967,121.649268 170.112708,121.903422 C167.571536,122.157575 165.066155,122.054654 162.642883,121.676574 C161.562832,121.510639 160.493308,121.287992 159.440627,121.012834 C158.914286,120.874204 158.390051,120.722973 157.872132,120.557038 L157.463692,120.42471 L157.095253,120.300783 C156.834188,120.208364 156.571018,120.113844 156.312058,120.015123 C154.229855,119.223256 152.248709,118.177235 150.435992,116.942175 C149.718064,116.452772 149.027505,115.933962 148.364316,115.389947 L148.246415,115.121091 C149.859123,116.442269 151.640259,117.62902 153.558245,118.601525 C154.591977,119.126636 155.665712,119.588733 156.762606,119.979416 L157.194205,120.130648 L157.564749,120.252473 C157.861605,120.351194 158.118459,120.428911 158.396367,120.510828 C158.943761,120.672562 159.493261,120.819593 160.046971,120.951921 C160.935434,121.159865 161.60915,121.285891 162.284971,121.395114 C162.960793,121.504337 163.640825,121.594656 164.556657,121.674473 C163.64293,121.577853 162.965003,121.474931 162.291287,121.357306 C161.615466,121.235481 160.948066,121.098952 160.063814,120.874204 C159.387993,120.701968 158.716382,120.508727 158.053193,120.294482 L157.537379,120.120145 L157.059462,119.95211 C156.724709,119.830284 156.392062,119.702157 156.063626,119.565628 C154.745669,119.027915 153.469819,118.38938 152.261341,117.662627 C153.810888,118.523809 155.453071,119.24216 157.143677,119.790376 C158.806913,120.33019 160.501729,120.725073 162.228127,120.979227 C163.082904,121.103153 163.731355,121.166166 164.379807,121.214476 C165.030364,121.264887 165.680921,121.294293 166.554646,121.296394 C165.680921,121.27959 165.032469,121.23338 164.384018,121.174568 C163.735566,121.111555 163.09343,121.035939 162.238653,120.897309 C161.175445,120.722973 160.122764,120.491924 159.082715,120.208364 C158.562691,120.065534 158.053193,119.912201 157.526853,119.737865 L157.149993,119.611838 L156.762606,119.473209 C156.503646,119.380789 156.248898,119.282069 155.992043,119.179147 C153.949842,118.370476 152.019225,117.307652 150.265458,116.070491 C149.416997,115.471865 148.604327,114.829129 147.829554,114.156987 L147.656914,113.755802 L147.484274,113.350417 C148.145358,113.946943 148.833812,114.522464 149.553845,115.064379 C151.113919,116.246928 152.815052,117.280346 154.615136,118.118423 C155.120423,118.351572 155.636237,118.570018 156.156262,118.773761 C156.417327,118.874583 156.680497,118.973303 156.943667,119.065723 L157.339475,119.202252 L157.720546,119.328278 L158.128986,119.456405 L158.524794,119.57403 C158.79007,119.651747 159.055346,119.723162 159.322727,119.794577 C159.855383,119.935306 160.392251,120.059232 160.931223,120.170556 C163.097641,120.61375 165.314588,120.830095 167.552588,120.779685 C168.447367,120.75658 169.121083,120.706169 169.794799,120.634754 C170.47062,120.561238 171.146441,120.468819 172.045431,120.292382 C171.142231,120.452015 170.466409,120.531832 169.790588,120.592745 C169.116872,120.651557 168.443156,120.689365 167.550483,120.695667 C165.323009,120.71037 163.116589,120.460417 160.975436,119.981516 C160.438569,119.863891 159.905912,119.729463 159.379571,119.582432 C159.116401,119.506816 158.853231,119.4312 158.592166,119.349283 L158.200568,119.225357 L157.798444,119.093029 L157.42369,118.960701 L157.032092,118.817871 C156.773133,118.72125 156.516279,118.618328 156.259424,118.513306 C155.745716,118.305362 155.240429,118.078515 154.747774,117.839064 C153.67825,117.318154 152.648728,116.725829 151.665524,116.076792 C152.882423,116.839253 154.164589,117.513495 155.499389,118.072213 C156.166788,118.353673 156.84261,118.607826 157.528958,118.832574 L158.030034,118.992207 L158.550059,119.14764 C158.891127,119.246361 159.236407,119.33878 159.579581,119.424899 C162.337605,120.111744 165.188266,120.420509 168.05998,120.28608 C170.500095,120.166355 172.982317,119.725262 175.38243,118.81577 C176.580381,118.357874 177.755174,117.780252 178.86891,117.066101 C179.980542,116.34985 181.026907,115.490769 181.953266,114.497259 C182.688038,113.69699 183.174376,113.03325 183.614397,112.344305 C184.050207,111.653259 184.44391,110.930706 184.854455,109.926695 C184.424961,110.922305 184.016521,111.634355 183.568079,112.314898 C183.115426,112.991241 182.620666,113.646579 181.875368,114.425844 C180.942692,115.396249 179.892116,116.230125 178.780485,116.91907 C177.664643,117.608015 176.494062,118.160432 175.300321,118.588922 C172.91284,119.445903 170.451672,119.834485 168.043137,119.901699 C164.569289,119.996219 161.14176,119.437501 157.903712,118.334769 C154.617242,117.223634 151.591836,115.415153 149.031716,113.190783 C149.37489,113.463841 149.72438,113.728497 150.080186,113.986851 C152.130809,115.595791 154.436181,116.935873 156.907876,117.883173 C158.905865,118.647735 160.962804,119.179147 163.085009,119.492113 C165.200898,119.800878 167.367316,119.884896 169.535839,119.695856 C170.403248,119.616039 171.055911,119.519419 171.704362,119.401794 C172.354919,119.282069 173.005476,119.14554 173.862359,118.899788 C172.99916,119.124535 172.346498,119.246361 171.695941,119.353484 C171.045384,119.452204 170.390616,119.534122 169.525312,119.597135 C165.956723,119.836586 162.423925,119.342981 159.118506,118.29276 C161.842845,119.027915 164.676663,119.380789 167.516797,119.28837 C168.365258,119.258964 168.998972,119.202252 169.634791,119.128736 C170.268505,119.05102 170.902219,118.9586 171.742259,118.782163 C170.900114,118.939696 170.264295,119.021614 169.628475,119.086727 C168.994761,119.14764 168.361047,119.191749 167.514691,119.206453 C166.259895,119.225357 165.00931,119.158142 163.771357,119.00691 C164.329278,119.055221 164.887199,119.088828 165.449331,119.10143 C166.255685,119.120334 166.862029,119.103531 167.466268,119.076225 C168.070507,119.042618 168.676851,118.998509 169.478994,118.893487 C168.674746,118.981705 168.070507,119.011111 167.466268,119.032116 C166.862029,119.048919 166.25779,119.05102 165.453542,119.015312 C163.990315,118.950198 162.537615,118.76956 161.103863,118.479699 C159.670111,118.189838 158.270045,117.801256 156.878401,117.284547 C156.349955,117.080804 155.827825,116.851856 155.316222,116.612405 C153.745622,115.866748 152.255025,114.965658 150.873908,113.93434 C148.918026,112.403117 147.210577,110.634544 145.709454,108.731542 L145.612607,108.24844 C145.83367,108.506795 146.054733,108.76725 146.284218,109.019303 C148.492743,111.567141 151.124446,113.818816 154.145641,115.455061 C155.648869,116.276334 157.255261,116.937974 158.891127,117.427377 C160.524888,117.918881 162.202862,118.263354 163.897679,118.450293 C165.925143,118.67504 167.998925,118.681342 170.055864,118.420887 C172.114908,118.160432 174.165531,117.626919 176.091937,116.73213 C176.8625,116.372955 177.418316,116.053687 177.961499,115.711315 C178.502577,115.362642 179.033129,114.992964 179.690002,114.432145 C179.018391,114.97826 178.479418,115.331135 177.932024,115.665105 C177.38463,115.994875 176.820393,116.297339 176.047725,116.639711 C174.119213,117.484089 172.070695,117.967191 170.030599,118.181436 C167.984187,118.391481 165.93567,118.332668 163.943997,118.059611 L163.598717,118.0113 L163.67451,118.019702 L163.539767,118.002899 C162.600776,117.857968 161.674416,117.666828 160.756478,117.427377 C163.331336,118.004999 165.986198,118.221345 168.622112,118.023903 C171.253815,117.81806 173.883412,117.192128 176.270893,115.97387 C178.294146,114.944653 180.138444,113.440736 181.447979,111.525132 C182.106958,110.571531 182.626982,109.52551 183.001737,108.43538 C183.376491,107.34525 183.605976,106.215211 183.713349,105.080972 C183.795458,104.16938 183.795458,103.488836 183.770194,102.810393 C183.742824,102.127749 183.685979,101.451406 183.555447,100.560818 C183.65861,101.455607 183.696506,102.13195 183.702822,102.812493 C183.709138,103.488836 183.688085,104.167279 183.582817,105.066269 C183.450179,106.185805 183.193325,107.29694 182.797516,108.361864 C182.401708,109.422588 181.869052,110.435002 181.201652,111.348695 C179.873168,113.186582 178.041503,114.59598 176.051936,115.539079 C174.131845,116.452772 172.055958,116.977882 169.967438,117.206831 C167.876814,117.435779 165.76303,117.374866 163.695564,117.076603 C165.883036,117.284547 168.097877,117.225735 170.245346,116.849755 C171.009593,116.715327 171.575935,116.578798 172.135962,116.425466 C172.691777,116.270033 173.247593,116.097797 173.963416,115.818438 C173.241277,116.080993 172.683356,116.240627 172.125435,116.383457 C171.563303,116.524187 170.996961,116.643912 170.232714,116.765738 C166.422008,117.353862 162.434452,116.958978 158.766911,115.805835 C157.947925,115.549581 157.143677,115.247117 156.360482,114.900544 C155.461492,114.474154 154.591977,113.988952 153.756149,113.455439 C156.893138,115.333235 160.472254,116.391859 164.089267,116.746834 C165.99462,116.927472 167.927342,116.904367 169.828485,116.63551 C171.721205,116.362452 173.586556,115.843643 175.289794,115.020269 C175.969826,114.688399 176.456165,114.398538 176.927766,114.089773 C177.397262,113.776807 177.854126,113.447037 178.412047,112.953433 C177.839388,113.430234 177.374103,113.747401 176.898291,114.043563 C176.420374,114.339726 175.927719,114.612783 175.243476,114.923649 C173.538133,115.698712 171.681203,116.171312 169.796904,116.391859 C167.91471,116.612405 166.003041,116.585099 164.133479,116.358252 C162.741835,116.186015 161.362823,115.904556 160.017496,115.513873 C158.158461,114.959356 156.396273,114.188494 154.768828,113.203386 C153.94142,112.705581 153.147699,112.155265 152.387663,111.56294 C154.282489,112.957634 156.371009,114.066668 158.587955,114.816526 C160.813323,115.570585 163.150275,116.02008 165.491438,116.139805 C167.485216,116.240627 169.500048,116.106198 171.436981,115.675608 C173.371809,115.245017 175.23295,114.516163 176.833025,113.440736 C177.47095,113.008045 177.91097,112.638367 178.329938,112.249785 C178.744694,111.859102 179.140502,111.445315 179.597366,110.844588 C179.123659,111.432712 178.717324,111.831797 178.294146,112.211977 C177.866758,112.587956 177.418316,112.942931 176.77618,113.354618 C175.167683,114.381735 173.310754,115.062278 171.388558,115.440358 C169.464257,115.820538 167.474689,115.906656 165.514597,115.757525 C163.47029,115.602092 161.438616,115.190405 159.501682,114.54977 C161.078599,114.995064 162.710255,115.291226 164.344016,115.423554 C165.243005,115.524376 165.931459,115.576887 167.038879,115.585288 C166.382006,115.568485 165.876719,115.530677 165.38617,115.486568 C166.280949,115.520175 167.175728,115.505472 168.05998,115.434057 C168.782119,115.375244 169.318987,115.30593 169.849538,115.217711 C170.380089,115.127392 170.90643,115.02237 171.592778,114.841732 C170.902219,115.001365 170.373773,115.091684 169.843222,115.1652 C169.310565,115.240816 168.775803,115.297528 168.055769,115.335336 C165.501965,115.473965 162.891316,115.171501 160.398567,114.490958 C160.116448,114.404839 159.819592,114.308219 159.548,114.213699 C159.255355,114.110777 158.977447,114.009956 158.701645,113.902833 C158.15004,113.684387 157.604751,113.447037 157.0742,113.184482 C157.705808,113.46174 158.352155,113.707492 159.004817,113.923838 L159.510104,114.083472 L160.004864,114.226302 C160.341722,114.320822 160.67858,114.40694 161.017543,114.486757 C162.377607,114.806024 163.76083,115.013968 165.146159,115.100086 C165.834612,115.142095 166.352531,115.150497 166.868345,115.144195 C167.382054,115.135794 167.895762,115.11689 168.575794,115.055977 C167.895762,115.097986 167.382054,115.104287 166.868345,115.100086 C166.352531,115.093785 165.836718,115.074881 165.152475,115.016068 C163.442921,114.875339 161.735472,114.545569 160.089078,114.047764 L159.77959,113.953244 L159.480629,113.854523 L159.169035,113.751602 L158.872179,113.644479 C158.47216,113.497448 158.080563,113.342015 157.693176,113.17398 C156.918403,112.837909 156.168894,112.453528 155.440438,112.029238 C154.554081,111.512529 153.701409,110.930706 152.886634,110.292172 C154.130903,111.176458 155.44886,111.926316 156.819451,112.524943 C157.503694,112.821105 158.202674,113.083661 158.914286,113.304207 L159.442732,113.46174 C159.66169,113.524754 159.809065,113.564662 159.996443,113.610872 C160.362776,113.705392 160.731214,113.79151 161.097547,113.869226 C163.777673,114.543469 166.598859,114.778718 169.297933,114.472054 C169.982176,114.392237 170.487463,114.301918 170.988539,114.198996 C171.48751,114.093974 171.980165,113.974249 172.61809,113.772606 C171.975954,113.957445 171.479089,114.064568 170.980118,114.159088 C170.476936,114.249407 169.971649,114.325023 169.289512,114.388036 C167.939975,114.514062 166.558857,114.50146 165.188266,114.367031 C165.748292,114.388036 166.310424,114.385935 166.868345,114.362831 C168.893704,114.280913 170.898009,113.915436 172.685461,113.228591 C173.902361,112.814804 175.03294,112.253986 175.999301,111.550337 C176.969874,110.846689 177.778333,110.006511 178.388888,109.046609 C178.729956,108.506795 178.938387,108.074104 179.121554,107.62881 C179.30051,107.177214 179.454201,106.713016 179.599471,106.061879 C179.433147,106.708816 179.262613,107.166712 179.071025,107.607805 C178.875226,108.046798 178.654163,108.468987 178.302568,108.991997 C177.816229,109.708248 177.220412,110.348884 176.523537,110.911802 C177.054088,110.405596 177.41621,110.00021 177.892022,109.292361 C177.569902,109.741856 177.289889,110.056922 176.995138,110.359386 C176.696176,110.659749 176.378267,110.94751 175.910876,111.300384 C175.502436,111.607049 175.058205,111.890609 174.588709,112.146863 C173.091796,112.896721 171.365399,113.36302 169.584263,113.568863 C166.971508,113.873427 164.219799,113.640278 161.604939,112.963935 C161.276503,112.877817 160.952277,112.787498 160.630157,112.686677 C160.297509,112.585856 160.01118,112.489235 159.672217,112.36951 C159.05324,112.151064 158.446896,111.899011 157.853184,111.617551 C156.667865,111.054633 155.537285,110.371988 154.469866,109.582222 C155.686766,110.386692 156.964721,111.048331 158.293204,111.56294 C158.726909,111.728875 159.16693,111.880107 159.611161,112.014535 C162.659726,113.014346 166.0262,113.390325 169.127399,112.989141 C169.759008,112.907223 170.220082,112.816904 170.676946,112.716083 C171.131704,112.613161 171.580146,112.497637 172.152805,112.306497 C171.575935,112.480833 171.123282,112.583755 170.668524,112.676175 C170.209555,112.764393 169.748481,112.840009 169.116872,112.907223 C168.179986,113.005944 167.219941,113.03535 166.255685,112.995442 C166.689389,112.993342 167.120989,112.976538 167.548377,112.949232 C168.165248,112.905123 168.620007,112.848411 169.068449,112.781197 C169.516891,112.709782 169.961122,112.629965 170.535886,112.491336 C169.956912,112.615262 169.510575,112.682476 169.064238,112.737088 C168.61369,112.791699 168.158932,112.835808 167.546272,112.863114 C165.308272,112.961835 162.990268,112.684576 160.777532,112.075448 L160.463833,111.978828 L160.169082,111.884308 L159.83854,111.770884 L159.535368,111.661661 C157.684755,110.983217 155.949936,110.010712 154.349861,108.784053 C152.749785,107.559495 151.288664,106.082883 149.964391,104.429835 C147.31374,101.115335 145.229431,97.1370959 143.534615,92.9320087 C144.860993,96.0133588 146.402118,98.947678 148.21694,101.566931 C150.027552,104.184083 152.120282,106.477767 154.467761,108.19803 C155.737295,109.126426 157.084726,109.897288 158.497425,110.481212 C158.851125,110.626142 159.209037,110.764771 159.571159,110.886597 L160.114343,111.063034 L160.423831,111.157554 L160.682791,111.228969 C161.444932,111.443215 162.22181,111.61335 163.000795,111.741477 C163.623982,111.844399 164.093478,111.89691 164.565079,111.938919 C165.032469,111.980928 165.501965,112.010334 166.125152,112.018736 C165.50407,111.995631 165.034575,111.951522 164.569289,111.901111 C164.101899,111.8465 163.632403,111.781386 163.015532,111.665861 C162.240759,111.523031 161.474407,111.336092 160.722793,111.109244 L160.468044,111.031528 L160.160661,110.930706 L159.625899,110.743767 C159.270093,110.611439 158.920602,110.470709 158.573218,110.319477 C157.187889,109.708248 155.874143,108.916381 154.644612,107.971182 C152.495037,106.322334 150.579157,104.184083 148.91171,101.749669 C147.240052,99.3110546 145.816827,96.5930811 144.583085,93.7280766 C145.568395,95.8747296 146.665288,97.928963 147.888504,99.8319645 C149.113825,101.732866 150.467573,103.480434 151.949748,104.988553 C153.429817,106.49457 155.034104,107.754836 156.735236,108.704237 C157.583697,109.181037 158.459528,109.580121 159.356412,109.90359 C159.581686,109.987607 159.80696,110.063223 160.032234,110.134638 L160.375408,110.23756 L160.552258,110.287971 L160.665948,110.321578 L160.752268,110.344683 L161.089126,110.432901 L161.453353,110.52112 C161.69547,110.579932 161.939692,110.632443 162.181809,110.682854 C163.657668,110.974816 165.173528,111.111344 166.643071,111.073537 C168.110509,111.037829 169.535839,110.825684 170.799057,110.447604 C171.304344,110.294272 171.66015,110.161944 172.001218,110.014913 C172.342287,109.869983 172.668618,109.71665 173.064426,109.487702 C172.662302,109.699847 172.329655,109.842677 171.986481,109.975005 C171.641201,110.107333 171.28329,110.229158 170.778003,110.363587 C169.516891,110.703859 168.102087,110.878195 166.647282,110.876095 C165.192477,110.873994 163.70188,110.699658 162.255496,110.371988 C161.960746,110.304774 161.663889,110.231259 161.371244,110.149342 C161.063861,110.065324 160.825955,109.993909 160.499624,109.890987 C159.948019,109.712449 159.409046,109.506606 158.878495,109.273457 C157.815287,108.805058 156.789976,108.225336 155.806772,107.53429 C153.838258,106.154299 152.031857,104.329013 150.419149,102.201264 C148.880129,100.172236 147.51796,97.8743515 146.309482,95.4357369 C146.482122,95.6898906 146.656867,95.9440442 146.837928,96.1960974 C147.591648,97.2484194 148.423266,98.2923397 149.360152,99.3026529 C150.297038,100.308765 151.347614,101.285471 152.539249,102.173959 C153.019272,102.524733 153.398237,102.776786 153.787729,103.018337 C154.177221,103.259888 154.57724,103.495137 155.135161,103.780798 C154.596188,103.451028 154.219328,103.186372 153.848785,102.913315 C153.478241,102.642358 153.120329,102.365099 152.671887,101.978617 C151.551834,101.020815 150.587578,99.9831965 149.743328,98.9203722 C148.894867,97.8554475 148.168517,96.763217 147.522171,95.6646852 C146.320009,93.6146527 145.370491,91.5289126 144.55361,89.4389716 C143.738835,87.3490306 143.060908,85.2506879 142.465091,83.1502447 C143.511456,85.7589951 144.719934,88.3236363 146.17895,90.7895566 C147.644282,93.2491756 149.351731,95.6289777 151.518148,97.706316 C152.410822,98.5569955 153.389816,99.3635657 154.467761,100.069315 C155.543601,100.775064 156.726815,101.377891 157.990032,101.806381 C158.497425,101.974417 158.889022,102.077338 159.280619,102.167657 C159.674322,102.255876 160.07013,102.331492 160.606998,102.398706 C160.078552,102.283182 159.68906,102.167657 159.310094,102.043731 C158.926918,101.921906 158.552164,101.783276 158.067931,101.575332 C156.863663,101.052322 155.760454,100.369678 154.779355,99.592514 C153.798256,98.8174505 152.926636,97.9520679 152.151863,97.042576 C151.735001,96.5531727 151.345509,96.0490664 150.97286,95.5344578 C151.614995,96.2108005 152.297133,96.857737 153.021377,97.4563633 C153.351919,97.7735302 153.690882,98.0822954 154.042478,98.3763574 C155.488862,99.592514 157.200521,100.621731 159.118506,101.199353 C158.042666,100.823374 157.040514,100.304564 156.133103,99.6954357 C155.804666,99.4769896 155.486756,99.2438405 155.181479,99.0022895 C156.276267,99.6702304 157.463692,100.210044 158.707961,100.554517 C159.992232,100.909492 161.343874,101.052322 162.674463,100.970405 C164.005052,100.890588 165.310377,100.590225 166.542014,100.14073 C167.034669,99.9537902 167.394686,99.796257 167.750492,99.630322 C168.104193,99.464387 168.453683,99.2900502 168.910547,99.0358966 C168.426313,99.2312378 168.057875,99.3635657 167.687331,99.4874919 C167.316787,99.6093176 166.946244,99.7227415 166.443062,99.8487681 C165.541967,100.079817 164.619818,100.224747 163.703986,100.264656 C166.087256,99.8991787 168.329467,98.834254 170.32535,97.4941713 C171.159074,96.9207503 171.561198,96.6098847 172.344393,95.9692495 C171.498037,96.5237665 171.068543,96.7905228 170.188501,97.2736247 C169.091608,97.8764519 167.954712,98.3847592 166.790447,98.7481359 C165.632497,99.113613 164.447178,99.3236573 163.291335,99.3467622 C161.933376,99.3761684 160.606998,99.1409187 159.381677,98.6641181 C158.15425,98.189418 157.023671,97.4794682 155.996254,96.6245878 C156.459434,96.9165494 156.935246,97.1791048 157.415268,97.4059527 C158.307942,97.8302422 159.234301,98.1411078 160.169082,98.3028419 C161.101758,98.4666765 162.049171,98.48348 162.981846,98.3679556 C163.356601,98.317545 163.634509,98.2629335 163.914522,98.1999202 C164.19243,98.1369069 164.470337,98.0633914 164.838776,97.9457666 C164.459811,98.0213825 164.177692,98.0633914 163.895574,98.094898 C163.617666,98.1264047 163.337653,98.1495095 162.967109,98.1600118 C161.122811,98.2188242 159.366939,97.7021151 157.796339,96.7275095 C155.882565,95.5512613 154.210907,93.7637842 152.756102,91.7515596 C151.301296,89.7330337 150.050711,87.4792581 148.924342,85.1393644 C149.966496,86.8575269 151.092865,88.4916717 152.316081,89.9661829 C153.537191,91.4385935 154.859358,92.7492701 156.23416,93.7364784 C156.966826,94.2657901 157.716335,94.7026823 158.449001,95.0219496 C159.181667,95.3433174 159.89749,95.54496 160.577523,95.6310782 C161.124917,95.6877901 161.390192,95.6898906 161.920744,95.6478817 C161.398614,95.6079733 161.143865,95.5659644 160.630157,95.4378374 C159.988021,95.2761033 159.335359,95.0072465 158.680591,94.6270663 C158.023718,94.2489865 157.36474,93.7637842 156.726815,93.1903632 C155.674134,92.2493646 154.66356,91.0815182 153.720357,89.7876452 C152.777155,88.4937722 151.899219,87.0780735 151.073917,85.597261 C149.421208,82.6293348 147.979034,79.4177571 146.623181,76.1389653 C144.509397,71.0033817 142.589307,65.6220463 140.917649,60.14199 C140.616582,57.7873931 140.376571,55.426495 140.182878,53.0718982 C139.843914,52.0531832 139.523899,51.0386692 139.220727,50.0367578 L139.342838,49.9275347 L139.907075,50.0262555 C139.561796,49.8939276 139.288099,49.7048877 139.054404,49.4780399 L138.949135,49.123065 L138.934398,48.8037976 C138.938609,48.3585036 138.953346,47.9237119 138.719651,47.5204268 C138.805971,47.1591506 139.029139,46.829381 139.06072,46.4618034 C139.319679,46.5290176 139.58706,46.5521225 139.841809,46.5290176 C139.536532,46.4555021 139.277572,46.3378773 139.045982,46.1845449 L139.039666,46.146737 L138.940714,46.1110294 C138.549117,45.8253692 138.243839,45.440988 137.951194,45.0293012 C137.900665,44.8192569 137.84382,44.611313 137.78487,44.4054696 C137.894349,44.2185301 138.058567,44.0546955 137.856452,43.7942406 C137.49433,43.3678506 137.37643,42.9246571 137.334323,42.3848432 C137.29011,41.7715138 136.904829,41.2022937 136.441649,40.7044886 L136.231113,40.1814783 C135.708983,39.729883 135.31528,39.1480602 135.060531,38.4318091 C134.597352,37.8541872 133.946795,37.4677057 133.696256,36.6800395 C132.976223,36.0268017 132.258294,35.3693629 131.521417,34.7287278 L131.401412,34.4850764 C131.098239,33.8990527 130.574004,33.5650822 130.035031,33.2731206 C129.668698,32.7102019 129.321314,32.1430822 129.00972,31.5612594 C128.22442,30.080447 127.647551,28.4252977 128.070728,26.6378206 C127.378064,27.6691382 127.182265,28.9798147 127.304376,30.2610851 C126.992783,29.6708606 126.735929,29.0848369 126.573816,28.6269403 C126.295908,28.9041988 126.058002,29.0890378 125.839044,28.8642904 C125.512713,28.0451175 125.316914,27.2196433 125.540083,26.2744439 C124.940055,27.1125207 124.929528,28.2698649 125.133748,29.2780777 L125.123221,29.2990821 C124.605302,28.4526035 124.074751,27.6271293 123.691575,26.7197379 C123.754736,27.6313302 123.988431,28.5009137 124.270549,29.3431914 C123.921059,29.1793568 123.563148,29.0260245 123.19892,28.8894957 C122.771531,28.729862 122.198873,28.5471234 121.56937,28.4000924 C121.335674,28.213153 121.110401,28.0325149 120.918813,27.8476759 C119.922976,27.0011973 119.613488,25.5665946 119.722967,24.0668781 C119.438743,24.753723 119.228207,25.493079 119.232417,26.2975488 C119.230312,26.4844882 119.24505,26.6756286 119.278735,26.8667689 L118.929245,26.7806507 C118.948193,26.9234809 119.230312,27.4969018 119.478745,28.0871264 L119.320843,28.0745237 C118.731341,28.0409166 118.198684,28.047218 117.788139,28.0682224 C117.036524,27.2574513 116.432285,26.3668634 115.813309,25.3418471 L115.733305,25.4153626 C115.406974,24.810435 115.164857,24.1634985 115.070116,23.4346447 C114.766944,24.5583818 115.105907,25.8018442 115.58593,26.8520658 C115.737516,27.1818354 115.905945,27.5011027 116.084901,27.8119683 C115.6133,27.6565355 115.26802,27.15663 114.863791,26.8226596 C114.417454,25.2032179 113.661629,23.5102607 112.21735,22.5608603 C113.350035,24.0941839 113.592152,25.8459535 113.941642,27.6502342 C113.505832,27.3120628 113.025809,27.0074986 112.503679,26.7701485 C111.349941,26.2387364 110.145674,26.1295133 109.122468,26.0559978 C108.602443,26.0202903 108.103472,25.9887836 107.608712,25.9425739 C106.941312,25.8585562 106.600243,25.9047659 106.082324,25.8354513 C105.139122,25.7283287 104.20013,25.5098826 103.421146,25.0120775 C102.635846,24.5352769 102.073714,23.6572917 101.95792,22.6007688 C101.703171,23.6110819 101.972657,24.8587452 102.789538,25.7241278 C103.122185,26.0917053 103.503255,26.3941692 103.911696,26.6483228 C103.334826,26.5790082 102.7748,26.5264971 102.216879,26.436178 C101.26315,26.2723435 100.252576,26.1127098 99.5872816,25.3187423 C99.9451932,26.3248545 101.027349,26.9045769 101.951603,27.3204646 C102.509524,27.5704174 103.090604,27.7741603 103.64642,27.971602 C103.844324,28.1291352 104.031701,28.2971707 104.208552,28.4673066 C104.404351,28.4421013 104.678048,28.4379004 104.947534,28.4757084 C105.240179,28.6248398 105.545457,28.7697704 105.85284,28.9126006 L105.88442,28.9567099 C105.061224,28.8558886 104.265397,28.7802726 103.50115,28.6626478 C103.29693,28.6164381 103.094815,28.5807305 102.890595,28.5555252 C101.966341,28.3727867 101.107353,28.0829255 100.425216,27.4885001 C99.7262355,26.8982755 99.2735826,25.9698796 99.0125177,24.9700687 C98.9283032,25.9887836 99.0567303,27.1209225 99.7072872,28.0934277 C100.347317,29.0722342 101.404209,29.7170703 102.421099,30.1203554 L102.92007,30.303094 C102.524262,30.3787099 102.164245,30.4396228 101.842125,30.4375223 C101.336838,30.4438236 100.734704,30.2316789 100.235733,29.9187128 C99.1977895,29.2717763 98.4209108,28.0430171 97.5787659,26.9255813 C98.0082598,28.2467601 98.380909,29.6666597 99.5409636,30.7882963 C100.035724,31.2377912 100.621014,31.6053687 101.319995,31.7776051 L101.480002,32.0065534 C100.082042,31.9897498 98.7072401,32.0611649 97.3598082,31.6620807 C98.816719,32.7186036 100.673649,32.8740364 102.351622,33.0693776 L102.263197,33.12819 C101.549479,33.018967 100.833656,32.9874604 100.151519,33.0273688 C98.724083,33.1029847 97.3808619,33.331933 95.9744798,33.4117499 C97.0166342,33.7121133 98.0819475,33.8633452 99.1241019,34.0040749 C99.3430595,34.1111975 99.595703,34.1111975 99.8546626,34.1048961 C100.176783,34.1490054 100.492587,34.1973156 100.806286,34.2498267 L100.850499,34.2792329 L100.879974,34.3044382 L100.629436,34.5627927 C100.383109,34.5627927 100.138886,34.5627927 99.8946645,34.5564914 C98.8546155,34.5144826 97.7829861,34.4955786 96.835573,33.9368607 C97.48613,34.7245269 98.5219682,35.1047071 99.5072778,35.3462581 L99.7599213,35.4575815 L99.7199194,35.4995904 C98.7261884,35.4491798 97.7198252,35.3777647 96.8524159,34.810645 C97.3955994,35.5331975 98.241955,35.9322817 99.107259,36.2011384 L99.1051536,36.2032389 C98.5914452,36.4804974 98.1240548,36.8039656 97.6650858,37.1106303 C97.0903219,36.9152891 96.5471384,36.6317293 96.1029069,36.16123 C96.32397,36.6758386 96.7029352,37.0959272 97.1555881,37.4382995 L97.1050594,37.4698061 C96.3492343,37.0350144 95.6397272,36.4636938 94.9870649,35.7957529 C95.3197122,36.530908 95.7786811,37.2450587 96.3534451,37.8709908 C95.8081562,38.1146422 95.2207601,38.2553719 94.5428335,38.1965595 C95.2523406,38.5431326 96.0713265,38.5326304 96.8545213,38.3582936 L97.0313717,38.5053246 C96.4102898,39.0913483 95.8502635,39.7382848 95.6713077,40.7654015 L95.3976106,40.7464975 L95.0228561,40.3726186 L95.1428617,40.6897855 C94.7660019,40.5847634 94.4291439,40.4482346 94.1133395,40.7654015 C93.7996406,41.9416497 94.045968,42.8154341 94.1133395,44.0735995 C94.1807111,44.8549644 93.1954016,44.5861077 92.9427581,45.0461047 C92.7406433,46.1551387 94.1554468,45.6510324 93.9175409,46.7957739 C93.0838174,47.2599719 92.7995935,48.2744859 91.5784833,48.3522023 C91.4205811,45.7854607 90.4563252,44.0252893 90.4079019,41.3493247 C90.7489706,39.8748136 91.9806075,39.2866895 92.1616687,37.6525447 C92.3806264,33.3949463 92.7111682,29.2507719 93.1385568,25.2032179 C93.0796066,24.8335399 93.0101297,24.4743641 92.9301259,24.1193892 C93.1553997,23.7182045 93.4796255,23.440946 93.7154261,23.0565649 C93.6796349,21.6618707 94.3933527,21.2354807 94.191238,20.1117436 L94.191238,20.1033418 C94.4101956,20.6116491 94.7091571,21.0800479 95.1723368,21.4224201 C94.7407375,20.7712827 94.6186265,20.0781365 94.5217798,19.3513831 L94.6417855,18.9943078 C94.4207224,18.2192443 94.1386039,17.4945914 94.4207224,16.3099414 C94.7975823,15.3731437 95.8944761,15.3206327 96.3513397,14.4846563 C97.2587508,13.9154362 98.0482617,13.1907833 98.7788224,12.4640299 C97.9156239,12.8778172 97.0566361,13.3168098 96.201859,13.6780861 C95.9471101,13.5772648 95.6165682,13.5394568 95.5702503,13.2706001 L95.7092042,12.8421097 C96.5197687,12.5312441 97.3766511,12.2224789 98.1956371,11.7141717 C99.2988469,11.0546325 100.04204,9.92879498 100.330474,8.79245521 C99.7578159,9.63053204 99.0398874,10.2837699 98.21248,10.6912559 C98.7072401,10.1997521 98.9472514,9.8426768 98.9198817,9.84057636 C98.8988281,9.80696927 98.50302,10.2774685 97.7682485,10.8823962 L97.7640378,10.8844966 L97.6882448,10.9139028 C98.4903878,10.2144553 98.892512,9.63893382 98.8672477,9.64523514 C98.8609316,9.61582894 98.3556446,10.2648659 97.4019155,11.0168245 L97.3429653,11.0357285 C98.3766982,10.203953 98.9030388,9.45199437 98.869353,9.45409481 C98.8735637,9.43098994 98.2672194,10.2375601 97.1155862,11.1008423 C98.410384,10.0905291 99.037782,9.0739146 99.0019908,9.08231637 C98.9830426,9.04870928 98.5009146,9.74395597 97.5556069,10.554727 C98.2609033,9.9203932 98.6103935,9.40998551 98.5830237,9.41418639 C98.5682862,9.37637842 97.8966756,10.2459619 96.6271422,11.1197463 C96.2481769,11.1449516 95.8376313,11.3360919 95.429191,11.426411 C94.7365268,11.5818438 94.1533414,12.2497847 93.56384,11.7330757 L93.5301542,11.535634 C94.1301824,11.2100653 94.7996877,10.9349073 95.4460339,10.5400239 C96.132382,10.1367389 96.7260942,9.50240501 96.9913698,8.77775211 C96.4250274,9.47719969 95.696572,9.80696927 94.9112719,10.0926295 C95.0670687,9.95189985 95.1954958,9.78176395 95.2670781,9.5654183 C96.1597517,8.77565166 96.835573,7.72963095 97.0482146,6.6184965 C95.5997253,8.98989687 93.0775013,9.48140058 90.5615933,10.2522632 L90.7889724,10.1073326 C92.0964024,9.23354828 93.2943536,8.18962801 94.3344026,7.00287761 C93.2143498,7.62880968 92.1258775,8.25894264 91.0542481,8.91218047 L91.0521427,8.78195299 L91.140568,8.7189397 C92.424839,7.8241509 93.372252,6.50717301 93.8649068,5.12088051 C92.1553526,7.28643744 89.7889253,8.21063244 87.3024925,8.77565166 L87.3909177,8.63912285 L86.5403513,8.07830452 C84.9971207,7.07849356 83.5991601,5.92535025 82.2285693,4.58106661 C82.6643793,5.48845806 83.2349325,6.3559411 83.9107538,7.13310509 L83.4223097,6.89365456 C82.1738298,5.87704006 80.8432409,5.18599424 79.7842436,3.99294251 C80.0810997,4.73859984 80.5611223,5.38553635 81.1064112,5.96945956 C80.6748119,6.08918482 80.2958467,6.27612426 79.7947704,6.3118318 L79.6158146,6.29712869 L79.7526632,6.07028083 C79.2389548,5.75731479 78.7020874,5.51576383 78.1694307,5.31832217 C77.4515022,5.04946544 76.7335736,4.86042555 76.0451201,4.67348611 C75.1313929,3.90892478 74.2766158,3.09605327 72.8323372,2.7620828 L72.6007474,2.91121427 L72.5544294,2.84820097 C72.185991,2.29788485 72.0028245,1.58163372 71.9270315,0.846478607 C71.7564971,1.56062929 71.6912309,2.34829549 71.9459797,3.1317608 L72.0617746,3.44052595 L71.9101886,3.56865299 C70.6364444,3.34390556 69.30375,2.96582579 68.6679306,1.67405323 C68.7163539,2.17815959 68.9563652,2.68016551 69.3142768,3.08555105 L68.7795148,2.86080363 C67.7373604,2.40500746 67.0657499,1.32537966 67.002589,0 C66.8383707,0.621731185 66.7794206,1.31067655 66.9815354,1.99542103 L67.048907,2.19706358 C66.956271,2.4995274 67.0804874,3.07084795 66.7920528,3.13386124 L66.787842,3.13386124 C66.0383331,2.8692054 65.3182991,2.59824823 64.7982746,1.93870907 C64.9309125,2.35039593 65.1940828,2.68646684 65.5183086,2.9616249 L65.4719906,2.99733244 C64.80038,2.97212712 64.6845851,3.63586717 64.2150893,3.86481548 C62.7855483,3.71148312 61.5033826,3.74719066 60.2233223,3.78289819 L60.1433186,3.81650528 L60.0822631,3.70518179 C59.663296,3.92362789 59.2464342,4.13997353 58.8316778,4.3521183 C57.6968876,4.92553929 56.5789402,5.44224831 55.3704622,5.77621878 C54.1640896,6.12069147 52.865081,6.30763091 51.5597564,6.53027789 C52.8608703,6.75712575 54.1872486,6.92516121 55.5578394,6.8033355 L55.5641555,6.8033355 C54.7030623,7.19401794 53.8251263,7.60150392 52.9619277,8.06780231 C52.1997865,8.42067676 51.5471242,8.90167825 50.8165635,9.29236069 L50.7534026,9.45619526 C49.2080667,10.6093386 47.9153742,12.1867714 47.3406103,13.9595455 C47.5406197,13.7032914 47.7490506,13.4638409 47.9637976,13.2390934 C47.5869377,13.8776282 47.3027138,14.6316873 46.8669038,15.2009074 L46.8205858,15.4130522 C46.6100496,15.7470226 46.4226723,16.085194 46.2458219,16.4275662 C45.4626271,17.232036 44.8183863,18.1625323 44.294151,19.1413388 C44.7046967,18.7695604 45.1068209,18.3998824 45.5068397,18.0344053 C44.8394399,19.6286416 44.3004671,21.2333802 43.4204257,22.7183936 C43.7278086,22.4600391 44.0162432,22.184881 44.2857296,21.8971203 C43.9720306,23.0103552 43.8372874,24.1298914 43.4941134,25.2242223 C44.142565,24.3588397 44.5446892,23.3485265 44.9383919,22.3823227 C44.9110222,22.6364763 44.8962847,22.8843286 44.8962847,23.1174778 C44.3952084,23.7455103 43.9636092,24.4617614 43.8246553,25.2599298 C44.142565,24.7054128 44.5425838,24.2517171 44.9720777,23.8148249 L45.0983995,24.1634985 C45.1699818,24.7474217 44.7868058,24.7705266 44.8120702,25.2977378 C44.75312,25.7115251 44.9236544,25.9404734 45.0878726,26.1715222 C44.8310184,26.8373627 44.3046779,27.3666744 43.4351632,27.3855784 C43.9151858,27.5200067 44.5110034,27.5158058 44.9994474,27.1860363 L45.2226158,27.009599 L45.1699818,27.5368103 C45.1047155,29.3137852 45.7657993,30.9647336 46.1447645,32.7900187 C46.2142415,37.6567456 45.1005048,41.3451238 44.7804897,45.8232687 C43.4899026,45.7812598 42.0140437,45.3338654 41.0750521,46.0186099 C40.4223897,47.0961373 40.5529222,48.43622 40.2939626,49.7153899 C40.0539513,50.914743 39.4644499,52.1266987 39.5149786,53.4100695 C39.0770632,53.4919868 39.5086625,54.4434876 39.1254866,54.5779159 C38.9591629,55.0316117 39.807624,55.4159928 39.3212853,55.5504211 C37.7570011,56.6489529 35.6958513,57.2538806 33.2746847,57.4954315 C27.4007238,60.194501 23.0299916,64.393287 19.4298221,69.3629356 C15.9980815,74.4964187 13.3600625,80.4238694 12.0210521,87.649394 C10.172544,99.4727888 11.1620643,112.764393 12.4105441,123.831628 C12.8589863,127.788863 13.3432196,131.727194 13.5811256,135.503791 Z"/>
  </g>
</svg>
