<svg xmlns="http://www.w3.org/2000/svg" width="200" height="200" viewBox="0 0 200 200">
  <path fill="#fff" fill-rule="evenodd" d="M147.307203,105.729724 C145.242726,119.081568 135.565724,119.184381 130.881964,114.310814 C124.879757,108.065576 125.037014,93.9739819 138.089393,92.6599868 C145.149629,91.9503292 148.073362,100.773405 147.307203,105.729724 Z M76.05065,108.618507 C75.6493286,112.391227 73.6930444,116.276791 70.2786679,118.418302 C57.4414173,126.46276 48.4789935,109.197768 58.2176407,99.7603245 C69.4886058,88.83586 77.0570985,99.1284033 76.05065,108.618507 Z M173.433348,132.066046 C182.613417,132.46852 200.388555,132.608947 199.993524,127.655135 C199.598493,122.696309 183.353156,121.140328 175.032343,120.667641 C174.267442,119.544225 173.575509,118.088549 172.96535,116.18777 C168.180945,101.288721 164.594214,86.0611739 161.401257,70.7772049 C159.802261,63.1226823 158.307685,55.4506062 156.791722,47.7835455 C155.459436,41.0518285 155.129824,33.0023551 151.083901,27.1595909 C149.260972,24.5316008 127.916715,55.2061129 126.686332,56.9012668 C125.3704,58.7130252 122.391313,60.9648717 120.623738,60.6576877 C106.987619,58.2641605 93.6370794,59.4264443 80.1934436,61.9817133 C77.9666763,62.4029941 74.2780426,60.8908968 72.8476276,59.0929303 C65.5030698,49.8673811 58.4868657,34.0217043 47.5668995,28.5337689 C42.2956255,34.1846999 43.0554941,43.4754472 42.244045,50.6296989 C41.2589836,59.3035707 40.3305348,67.981204 39.2624414,76.6462992 C38.3478313,84.0663589 33.0664928,115.266218 25.7672251,125.003323 C18.0465071,126.188175 -1.60817393,129.967165 0.105304636,137.406032 C1.80368647,144.788477 21.1514007,138.733819 28.8545059,136.00427 C29.3677946,136.660014 29.8144061,137.483768 30.2081791,138.513148 C30.5302426,139.359471 30.7114034,140.101728 30.7730483,140.773771 C25.0073565,143.469467 7.24731477,152.407893 11.2693346,158.446252 C14.9529361,163.976817 29.9704057,155.519855 36.6909655,151.33463 C37.1514157,151.498879 37.5552531,151.70952 37.8408329,151.981597 C56.6425488,169.794505 79.9028316,174.853637 105.089205,173.886947 C124.561467,173.137168 143.438667,168.875461 157.851009,155.606368 C161.39245,152.348964 164.480989,149.293424 167.871462,147.739951 C174.194475,151.016162 188.716269,157.638797 192.019936,151.260655 C195.4167,144.70071 178.468107,140.110504 171.508516,138.52694 C171.211613,135.040088 171.919901,133.213284 173.433348,132.066046 Z"/>
</svg>
