<svg xmlns="http://www.w3.org/2000/svg" width="200" height="200" viewBox="0 0 200 200">
  <g fill="none" fill-rule="evenodd">
    <path fill="#fff" fill-rule="nonzero" d="M411.481898,-143.199902 C411.781898,-143.599902 411.981898,-143.999902 412.281898,-144.399902 C412.881898,-145.199902 412.581898,-146.599902 411.581898,-146.899902 C407.381898,-148.099902 403.081898,-149.099902 398.781898,-149.699902 C402.481898,-150.199902 406.181898,-150.699902 409.881898,-151.399902 C411.481898,-151.699902 411.681898,-153.899902 410.181898,-154.599902 C408.181898,-155.499902 406.081898,-155.599902 403.981898,-155.199902 C402.281898,-155.099902 400.481898,-154.999902 398.781898,-154.799902 C398.981898,-155.599902 399.281898,-156.399902 399.681898,-157.099902 C402.281898,-157.599902 404.781898,-158.199902 407.381898,-158.699902 C409.481898,-159.099902 410.581898,-160.899902 409.281898,-162.699902 C408.981898,-163.199902 408.381898,-163.299902 407.781898,-163.199902 C402.481898,-162.599902 396.981898,-162.399902 391.681898,-162.499902 C387.281898,-165.399902 381.681898,-166.999902 376.181898,-167.599902 C375.781898,-167.899902 375.281898,-168.099902 374.881898,-168.399902 C369.881898,-171.599902 364.781898,-174.699902 360.181898,-178.499902 C353.781898,-183.799902 349.881898,-191.399902 343.481898,-196.299902 C343.181898,-196.799902 342.881898,-197.299902 342.581898,-197.799902 C342.181898,-198.399902 341.781898,-198.999902 341.281898,-199.599902 C340.881898,-208.099902 335.381898,-215.999902 328.381898,-220.399902 C321.581898,-224.699902 313.381898,-224.999902 306.081898,-222.399902 C304.581898,-223.899902 302.981898,-225.099902 301.181898,-225.999902 C301.081898,-226.299902 300.881898,-226.499902 300.581898,-226.699902 C298.481898,-227.899902 296.081898,-228.699902 293.981898,-229.899902 C291.781898,-231.099902 289.781898,-232.599902 287.781898,-234.099902 C283.681898,-237.099902 279.781898,-240.199902 275.381898,-242.699902 C268.281898,-246.699902 258.081898,-249.099902 250.081898,-245.999902 C249.781898,-246.299902 249.481898,-246.599902 249.181898,-246.899902 C250.181898,-247.099902 251.181898,-247.299902 252.281898,-247.599902 C253.181898,-247.799902 253.581898,-248.699902 253.381898,-249.599902 C253.281898,-250.299902 253.181898,-250.899902 253.081898,-251.499902 C256.181898,-261.499902 256.681898,-272.999902 254.081898,-283.199902 C251.281898,-293.899902 241.381898,-297.299902 231.581898,-299.399902 C222.081898,-301.499902 210.481898,-301.999902 201.381898,-297.999902 C192.681898,-294.199902 187.681898,-285.599902 185.181898,-276.799902 C185.081898,-276.699902 184.981898,-276.599902 184.881898,-276.499902 C184.381898,-275.999902 184.481898,-274.999902 185.081898,-274.699902 C187.181898,-273.399902 189.381898,-272.199902 191.681898,-270.999902 C191.581898,-270.199902 191.481898,-269.499902 191.281898,-268.699902 C190.781898,-266.299902 189.281898,-263.999902 189.281898,-261.599902 C189.281898,-260.299902 190.581898,-259.099902 191.381898,-258.199902 C191.881898,-257.699902 192.281898,-257.199902 192.781898,-256.599902 C191.781898,-254.399902 190.481898,-252.399902 189.181898,-250.399902 C187.981898,-248.599902 187.381898,-246.499902 188.681898,-244.599902 C188.881898,-244.299902 189.281898,-243.999902 189.681898,-244.199902 C190.781898,-244.599902 191.781898,-244.899902 192.881898,-245.099902 C192.981898,-244.099902 192.981898,-243.099902 192.881898,-241.999902 C192.781898,-241.199902 192.681898,-239.899902 193.381898,-239.299902 C194.281898,-238.499902 195.081898,-238.499902 196.181898,-238.599902 C197.381898,-238.799902 198.281898,-238.899902 199.281898,-238.799902 C199.181898,-238.599902 198.981898,-238.399902 198.881898,-238.199902 C198.081898,-237.099902 197.181898,-236.399902 196.681898,-235.199902 C195.781898,-233.199902 197.981898,-231.599902 199.281898,-230.299902 C198.881898,-228.799902 198.481898,-227.299902 199.081898,-225.699902 C199.781898,-223.799902 201.981898,-223.299902 203.781898,-223.099902 C206.781898,-222.799902 210.281898,-223.599902 213.181898,-224.299902 C213.481898,-224.399902 213.681898,-224.399902 213.981898,-224.499902 C215.581898,-223.099902 217.381898,-221.799902 218.781898,-220.499902 C220.281898,-219.199902 221.681898,-217.899902 223.081898,-216.599902 C221.281898,-213.199902 219.781898,-209.699902 218.381898,-206.099902 C217.181898,-202.799902 216.081898,-199.499902 215.281898,-196.099902 C214.581898,-193.399902 213.681898,-190.299902 213.581898,-187.399902 C212.381898,-186.499902 211.281898,-185.699902 210.081898,-184.899902 C208.481898,-183.799902 208.481898,-183.299902 208.181898,-181.299902 C207.281898,-175.599902 205.781898,-170.099902 203.881898,-164.799902 C200.681898,-163.299902 197.581898,-161.499902 194.781898,-159.299902 C190.281898,-155.799902 185.981898,-151.799902 185.081898,-146.099902 C184.681898,-143.499902 181.981898,-142.699902 180.681898,-140.699902 C180.181898,-139.899902 179.881898,-139.099902 179.881898,-138.299902 C177.581898,-136.499902 175.381898,-134.599902 173.181898,-132.699902 C170.681898,-130.499902 168.081898,-128.299902 165.581898,-126.199902 C163.281898,-124.199902 160.581898,-122.399902 158.381898,-120.299902 C156.381898,-119.399902 154.481898,-118.299902 152.681898,-117.099902 C147.481898,-113.499902 142.281898,-110.099902 136.581898,-107.299902 C133.681898,-105.899902 130.681898,-104.799902 127.781898,-103.599902 C126.481898,-103.099902 124.581898,-101.799902 125.081898,-100.099902 C126.081898,-96.4999017 131.581898,-97.5999017 134.481898,-99.2999017 C137.881898,-98.5999017 141.681898,-99.1999017 145.281898,-100.299902 C144.981898,-99.8999017 144.781898,-99.4999017 144.581898,-99.0999017 C143.681898,-96.8999017 144.581898,-94.8999017 146.781898,-93.9999017 C147.381898,-93.7999017 148.081898,-93.9999017 148.481898,-94.4999017 C149.781898,-95.8999017 151.281898,-97.0999017 152.681898,-98.3999017 C155.981898,-99.6999017 159.181898,-101.399902 162.381898,-102.999902 C165.681898,-104.699902 168.781898,-107.199902 170.281898,-110.499902 C175.081898,-112.699902 179.681898,-115.399902 184.181898,-118.099902 C187.081898,-119.799902 189.981898,-121.499902 192.881898,-123.199902 C192.981898,-123.099902 192.981898,-123.099902 193.081898,-122.999902 C193.481898,-122.699902 194.081898,-122.799902 194.481898,-122.999902 C200.081898,-126.099902 205.581898,-129.399902 211.081898,-132.699902 C216.881898,-132.899902 222.781898,-133.099902 228.481898,-133.899902 C231.981898,-134.399902 233.181898,-138.199902 234.381898,-140.999902 C236.281898,-145.099902 238.381898,-149.099902 240.581898,-153.099902 C242.781898,-157.199902 245.181898,-161.199902 247.681898,-164.999902 C249.281898,-164.299902 250.881898,-163.499902 252.481898,-162.599902 C257.781898,-159.699902 261.781898,-155.399902 266.081898,-151.199902 C269.981898,-147.299902 273.981898,-144.399902 278.881898,-141.799902 C282.581898,-139.799902 284.481898,-135.899902 286.281898,-131.999902 C285.781898,-130.599902 284.881898,-129.299902 283.481898,-129.199902 C282.481898,-129.099902 281.481898,-128.199902 281.881898,-127.099902 C282.381898,-125.599902 282.781898,-123.899902 283.381898,-122.299902 C276.481898,-117.699902 270.281898,-111.899902 265.181898,-105.399902 C263.681898,-105.199902 262.181898,-104.899902 260.681898,-104.499902 C259.181898,-104.099902 257.781898,-103.599902 257.281898,-101.899902 C256.781898,-99.8999017 256.781898,-97.3999017 256.881898,-95.0999017 C255.081898,-94.4999017 253.381898,-93.7999017 251.581898,-93.1999017 C247.481898,-91.6999017 244.381898,-90.2999017 241.581898,-86.8999017 C236.081898,-80.2999017 229.481898,-74.5999017 224.181898,-67.7999017 C221.981898,-64.9999017 221.181898,-62.3999017 222.181898,-58.8999017 C223.281898,-54.9999017 225.281898,-51.1999017 227.281898,-47.7999017 C228.981898,-44.7999017 230.981898,-41.6999017 233.281898,-38.8999017 C237.381898,-27.3999017 242.181898,-16.0999017 247.481898,-5.09990173 C246.481898,-3.99990173 245.481898,-3.09990173 244.281898,-2.29990173 C243.181898,-1.59990173 242.881898,-0.0999017304 243.881898,0.90009827 C247.281898,4.30009827 251.581898,7.50009827 256.281898,9.70009827 C257.381898,13.6000983 258.781898,17.5000983 259.781898,21.4000983 C260.681898,24.7000983 261.381898,28.0000983 261.981898,31.3000983 C259.481898,37.6000983 253.481898,42.6000983 247.381898,45.9000983 C242.581898,48.5000983 237.481898,50.2000983 232.481898,52.4000983 C230.981898,53.1000983 227.781898,53.7000983 227.581898,55.7000983 C227.381898,58.3000983 227.681898,60.6000983 228.681898,63.0000983 C228.881898,63.5000983 229.281898,63.8000983 229.781898,64.0000983 C229.781898,64.1000983 229.781898,64.2000983 229.781898,64.3000983 C229.681898,65.1000983 229.981898,65.8000983 230.781898,66.0000983 C232.281898,66.5000983 233.681898,66.8000983 235.181898,67.1000983 C234.681898,68.5000983 233.881898,69.8000983 232.981898,71.0000983 C229.481898,70.2000983 225.781898,70.9000983 223.281898,74.2000983 C219.181898,79.4000983 221.581898,86.3000983 226.481898,89.9000983 C231.781898,93.8000983 240.481898,92.9000983 244.581898,87.7000983 C245.281898,86.8000983 245.781898,85.9000983 246.181898,84.8000983 C248.081898,87.7000983 251.181898,89.7000983 254.881898,90.0000983 C260.181898,90.4000983 265.581898,85.7000983 266.181898,80.6000983 C266.281898,79.8000983 266.281898,79.0000983 266.181898,78.2000983 C266.981898,77.8000983 267.881898,77.3000983 268.581898,76.8000983 C268.781898,79.1000983 269.681898,81.5000983 271.281898,83.5000983 C273.181898,85.8000983 275.781898,87.1000983 278.381898,87.4000983 C279.181898,90.9000983 281.581898,94.1000983 284.381898,95.9000983 C290.181898,99.6000983 297.381898,96.6000983 299.581898,90.6000983 C300.681898,90.5000983 301.781898,90.3000983 302.881898,90.2000983 C304.581898,94.3000983 308.781898,97.2000983 313.181898,97.4000983 C318.681898,97.7000983 322.681898,93.4000983 323.481898,88.4000983 C323.481898,88.4000983 323.581898,88.4000983 323.581898,88.4000983 C324.981898,92.7000983 328.781898,95.9000983 333.281898,97.0000983 C338.481898,98.3000983 344.281898,95.8000983 345.581898,90.7000983 C347.481898,94.2000983 351.281898,96.6000983 355.381898,97.1000983 C361.581898,97.9000983 366.781898,92.9000983 366.881898,86.9000983 C366.981898,81.7000983 362.381898,76.4000983 357.381898,74.9000983 C356.581898,73.1000983 355.881898,71.3000983 355.281898,69.5000983 C355.381898,69.5000983 355.481898,69.5000983 355.581898,69.5000983 C356.281898,69.5000983 356.781898,69.2000983 357.081898,68.8000983 C357.681898,68.7000983 358.081898,68.2000983 358.081898,67.5000983 C357.381898,59.5000983 354.281898,51.6000983 349.281898,45.2000983 C347.781898,39.9000983 345.581898,34.7000983 343.481898,29.8000983 C341.781898,25.8000983 339.881898,21.8000983 337.881898,17.8000983 C339.881898,17.5000983 341.881898,17.2000983 343.981898,17.0000983 C345.581898,16.9000983 346.381898,15.2000983 345.281898,13.9000983 C335.381898,2.50009827 330.881898,-12.1999017 323.181898,-24.9999017 C324.181898,-25.0999017 325.181898,-25.0999017 326.181898,-24.9999017 C327.181898,-24.8999017 327.981898,-26.0999017 327.681898,-26.9999017 C326.681898,-30.0999017 325.481898,-33.0999017 324.081898,-35.8999017 C325.081898,-36.7999017 325.981898,-37.7999017 326.781898,-38.7999017 C327.181898,-39.2999017 327.381898,-39.9999017 326.981898,-40.5999017 C326.081898,-41.8999017 325.381898,-43.1999017 324.681898,-44.5999017 C328.081898,-58.7999017 339.181898,-69.9999017 343.881898,-83.5999017 C349.381898,-90.2999017 354.881898,-97.0999017 359.181898,-104.699902 C364.181898,-113.799902 367.281898,-125.399902 363.181898,-135.399902 C363.081898,-135.499902 363.081898,-135.599902 362.981898,-135.699902 C362.981898,-135.999902 362.881898,-136.299902 362.681898,-136.699902 C359.681898,-141.599902 356.881898,-147.099902 353.281898,-151.599902 C351.581898,-153.699902 349.581898,-155.499902 347.181898,-156.799902 C345.081898,-157.899902 342.881898,-158.499902 340.781898,-159.599902 C338.981898,-163.699902 336.481898,-167.699902 333.981898,-171.499902 C333.981898,-171.499902 333.981898,-171.599902 333.981898,-171.599902 C334.181898,-171.499902 334.381898,-171.399902 334.581898,-171.299902 C339.181898,-169.299902 343.781898,-167.299902 348.081898,-164.599902 C350.081898,-163.299902 351.881898,-161.899902 353.581898,-160.299902 C353.581898,-158.099902 354.181898,-156.099902 355.681898,-154.799902 C357.281898,-153.499902 359.081898,-153.099902 360.781898,-153.399902 C362.881898,-152.299902 364.781898,-151.199902 366.281898,-149.599902 C368.681898,-146.999902 369.481898,-143.099902 371.481898,-140.199902 C375.681898,-133.899902 385.081898,-134.999902 390.481898,-130.499902 C390.981898,-130.099902 391.681898,-130.199902 392.081898,-130.499902 C395.381898,-133.199902 394.681898,-136.399902 392.281898,-139.099902 C394.281898,-138.399902 396.381898,-137.599902 398.381898,-136.899902 C401.181898,-135.999902 403.981898,-134.999902 406.781898,-134.099902 C408.381898,-133.599902 409.381898,-133.199902 410.781898,-134.099902 C411.181898,-134.399902 411.381898,-134.999902 411.281898,-135.499902 C410.681898,-138.799902 404.281898,-141.399902 401.681898,-142.799902 C401.281898,-142.999902 400.881898,-143.199902 400.481898,-143.399902 C403.581898,-142.999902 406.581898,-142.699902 409.681898,-142.299902 C410.581898,-142.499902 411.181898,-142.799902 411.481898,-143.199902 Z M268.381898,65.2000983 C264.681898,64.9000983 253.981898,68.2000983 253.981898,68.2000983 L255.481898,63.7000983 L275.581898,59.5000983 C275.581898,59.5000983 274.381898,62.2000983 275.981898,62.5000983 C277.581898,62.8000983 280.281898,63.8000983 280.281898,63.8000983 C280.281898,63.8000983 272.081898,65.5000983 268.381898,65.2000983 Z M314.581898,47.9000983 L304.581898,50.6000983 C304.581898,50.6000983 304.881898,43.0000983 298.781898,35.9000983 C292.681898,28.8000983 294.881898,21.8000983 293.581898,19.6000983 C292.281898,17.4000983 288.981898,15.7000983 288.481898,12.5000983 C288.081898,9.20009827 287.781898,2.50009827 291.181898,2.70009827 C291.181898,2.70009827 297.881898,9.40009827 299.681898,13.1000983 C301.481898,16.8000983 302.981898,32.0000983 302.981898,32.0000983 C302.981898,32.0000983 308.481898,30.5000983 309.981898,31.4000983 C311.481898,32.3000983 313.681898,38.7000983 314.581898,41.2000983 C315.481898,43.7000983 314.581898,47.9000983 314.581898,47.9000983 Z M331.981898,71.9000983 L329.581898,75.9000983 L323.181898,76.3000983 L320.081898,75.1000983 C319.981898,74.4000983 318.581898,72.4000983 318.581898,72.4000983 L331.981898,71.9000983 Z"/>
    <path fill="#fff" d="M102.073137,193.355202 C101.897599,193.530289 101.722062,195.11045 101.722062,195.11045 C101.722062,195.11045 101.193254,192.300302 100.664447,191.070316 C100.137834,189.842518 100.664447,187.909994 100.664447,187.909994 L101.368792,187.909994 C101.368792,187.909994 101.368792,189.315068 102.073137,191.422678 C102.779676,193.530289 102.250869,193.180115 102.073137,193.355202 Z M98.1125672,32.3648196 C97.0549525,33.5948063 92.4756122,34.2973432 92.4756122,34.2973432 C92.4756122,34.2973432 83.4946637,31.8373698 80.852821,30.2572088 C78.2109784,28.6770479 71.8714336,23.9343766 71.8714336,23.9343766 C71.8714336,23.9343766 80.852821,20.5967791 83.141394,20.0693293 C85.4321613,19.5418795 90.8913843,18.3118927 90.8913843,18.3118927 L92.1245368,19.7169666 C92.1245368,19.7169666 92.6533442,22.3520271 93.3576893,23.4069268 C94.0620344,24.4596379 96.3506074,28.852135 98.1125672,29.0272221 C98.8169123,30.7846587 99.1679878,31.1348328 98.1125672,32.3648196 Z M142.843966,114.572581 C142.490697,110.882621 134.038556,95.9520703 126.641835,85.0616538 C119.245114,74.1712374 115.898927,71.7112639 114.490236,69.6036532 C113.081546,67.4960424 116.074464,61.3482973 116.427734,60.9981231 C116.778809,60.6457604 119.949459,48.8777199 119.949459,48.8777199 C119.949459,48.8777199 120.300535,47.8228203 121.182612,46.2426594 C122.062495,44.6603099 123.12011,44.8375855 123.12011,44.8375855 L130.339098,49.052807 C130.339098,49.052807 133.863018,50.6329679 135.447246,50.9853307 C137.031474,51.3355048 137.384743,46.7679206 137.384743,46.7679206 C137.384743,46.7679206 137.207011,45.3628468 136.680398,43.9577729 C136.151591,42.5526991 135.976053,42.5526991 134.389631,41.3227124 C132.805403,40.0927256 129.988023,39.2151016 129.988023,39.2151016 C129.988023,39.2151016 126.817373,34.6475174 123.295647,34.1222562 C119.773922,33.5948063 117.483155,33.0673565 114.841312,32.5399067 C115.545657,31.8373698 114.841312,29.3795849 114.841312,29.3795849 C114.841312,29.3795849 113.257084,27.2697855 111.495124,25.5145375 C109.735358,23.757101 109.823127,24.3720943 109.823127,24.3720943 L109.64759,25.6020811 C109.64759,25.6020811 108.765513,25.426994 107.710092,24.8995442 C106.652477,24.3720943 107.534554,24.1970073 107.356822,22.6168463 C107.181285,21.0344969 108.061167,21.2117725 108.765513,20.3319599 C109.469858,19.4543359 109.998665,15.0624954 109.998665,15.0624954 L109.823127,12.0763852 C109.823127,12.0763852 110.527472,11.3738483 111.231818,9.61706829 C111.936163,7.86072601 110.527472,8.56326292 110.527472,8.03625081 C110.527472,7.50945755 109.469858,6.80670178 109.29432,6.10416487 C109.118782,5.4014091 108.238899,5.22566544 107.88563,5.05014064 C107.534554,4.87439698 106.830209,4.52312852 106.301402,3.99611641 C105.772594,3.46932316 106.301402,3.2935795 104.892712,1.53701836 C103.484021,-0.219542785 104.010635,1.53701836 103.484021,1.71254315 C102.955214,1.88828681 102.073137,1.88828681 102.073137,1.88828681 C102.073137,1.88828681 101.193254,1.88828681 99.784564,1.01000624 C98.3758738,0.131725671 99.2557566,0.482994128 98.0226042,0.131725671 C96.7916459,-0.219542785 97.3182591,0.131725671 95.2052238,1.18553104 C93.0921885,2.23955527 95.2052238,1.18553104 94.5008787,0.834481443 C93.7965336,0.482994128 93.6209959,1.01000624 92.3878434,1.71254315 C91.1546909,2.41529893 92.741113,2.76656738 92.3878434,3.82059161 C92.036768,4.87439698 92.036768,4.34738487 90.9791532,5.22566544 C89.9237327,6.10416487 90.9791532,6.27968967 91.3324229,6.80670178 C91.6834983,7.33371389 92.036768,7.86072601 91.3324229,8.56326292 C90.6280778,9.26601869 90.2748081,12.0763852 90.2748081,12.0763852 C90.2748081,12.0763852 82.4370489,14.0964524 75.2180603,15.1504766 C67.9970968,16.204282 62.3614583,18.8393426 61.8330898,19.5418795 C61.3047212,20.2444164 61.8330898,23.757101 61.8330898,23.757101 C61.8330898,23.757101 66.0598186,31.3099199 76.8022882,37.9851149 C87.5451966,44.6603099 87.7207343,46.2426594 88.9538868,47.8228203 C90.1870392,49.4029812 89.6582319,50.4578808 89.4826941,53.9705654 C89.3071564,57.48325 91.5957294,57.8356127 91.7712672,58.7132367 C91.9468049,59.5908607 93.7087647,65.2133446 90.7158466,66.7935055 C87.7207343,68.3736664 79.2685931,75.5763112 72.7517553,84.3591169 C66.2360146,93.1419226 57.6065803,114.747668 57.6065803,114.747668 C57.6065803,114.747668 57.0782118,117.207642 57.0782118,117.382729 C57.0782118,117.557816 56.9022352,118.612716 57.0782118,118.96289 C57.2544078,119.315253 57.9587529,119.140166 58.3109254,118.96289 C58.663098,118.787803 59.7198351,118.612716 59.7198351,118.612716 C59.7198351,118.612716 60.2482036,118.787803 61.3047212,120.01779 C62.3614583,121.247776 64.474713,120.370152 64.474713,120.370152 L65.3552541,120.192877 L66.9403597,121.950313 C66.9403597,121.950313 66.5881872,123.003024 66.9403597,123.355387 C67.2927517,123.70775 68.1730733,123.70775 68.1730733,123.70775 C68.1730733,123.70775 69.0536144,123.70775 70.462524,123.003024 C71.8714336,122.300487 71.1670885,123.355387 71.1670885,123.355387 L70.462524,124.233011 L70.9908926,124.935548 C70.9908926,124.935548 71.6952377,124.935548 72.9279513,123.530474 C74.1604455,122.1254 73.4563198,123.003024 73.4563198,123.003024 L74.1604455,122.827937 C74.1604455,122.827937 75.393598,123.530474 75.9224054,124.233011 C76.4512127,124.935548 75.9224054,124.233011 77.1555578,124.585374 C78.3865161,124.935548 77.1555578,124.585374 78.2109784,123.530474 C79.2685931,122.477763 78.9153235,123.530474 81.7327039,124.760461 C82.298813,125.007771 82.6696364,125.174104 82.9066123,125.287911 L83.6702014,125.287911 C83.6702014,125.287911 84.5522785,124.935548 85.4321613,124.410287 C86.3120441,123.882837 86.8408515,124.057924 86.8408515,124.057924 L87.896272,131.963106 C87.896272,131.963106 88.9538868,142.853522 89.1294245,149.001267 C89.3071564,155.149012 94.2375721,176.227308 94.9419172,179.564906 C95.6462623,182.902503 94.2375721,185.712651 94.0620344,187.82245 C93.8843024,189.930061 93.533227,193.090383 92.8288819,194.495457 C92.1245368,195.902719 92.8288819,197.48288 92.8288819,197.48288 L94.2375721,199.765578 C94.2375721,199.765578 98.288105,200.293028 99.5212574,199.765578 C100.752216,199.240317 101.985368,196.252893 101.985368,196.252893 L103.394058,198.01033 L106.389171,198.01033 C106.389171,198.01033 109.031013,194.847819 110.439704,192.037672 C111.848394,189.227524 110.790779,185.889927 109.735358,183.957403 C108.677744,182.024879 108.502206,178.337108 108.502206,178.337108 L110.264166,180.444718 C110.264166,180.444718 110.968511,180.444718 111.144049,179.389819 C110.264166,178.687282 108.677744,175.877134 108.148936,174.296973 C107.622323,172.714624 105.509288,172.539537 105.509288,172.539537 C105.509288,172.539537 105.331556,164.459268 105.860363,156.026636 C106.389171,147.596193 103.218521,135.47579 103.218521,135.47579 L104.098403,129.328045 L105.156018,128.975682 C105.156018,128.975682 106.389171,128.800595 107.093516,128.625508 C107.797861,128.450421 108.326668,129.678219 108.326668,129.678219 C108.326668,129.678219 109.910896,130.205669 111.495124,129.678219 C113.081546,129.152958 112.377201,129.678219 113.432622,128.625508 C114.490236,127.570609 116.074464,128.800595 116.074464,128.800595 C116.074464,128.800595 116.954347,129.503132 119.069577,129.152958 C121.182612,128.800595 120.829342,129.503132 122.238032,129.152958 C123.646723,128.800595 122.942378,129.152958 123.999992,127.395521 C125.055413,125.638085 126.466297,127.043159 126.99291,127.570609 C127.521718,128.098058 128.75487,127.570609 128.75487,127.570609 C128.75487,127.570609 130.339098,127.220434 131.747788,126.340622 C133.156479,125.462998 131.92552,125.815361 132.452134,124.760461 C132.980941,123.70775 134.214093,125.287911 134.214093,125.287911 C134.214093,125.287911 135.622784,125.815361 137.384743,125.287911 C139.144509,124.760461 138.793434,124.760461 138.793434,122.827937 C138.793434,120.895414 138.968971,122.1254 140.202124,121.422863 C141.435276,120.720326 142.843966,120.895414 142.843966,120.895414 C142.843966,120.895414 143.195042,118.260353 142.843966,114.572581 Z"/>
  </g>
</svg>
