<svg xmlns="http://www.w3.org/2000/svg" width="200" height="200" viewBox="0 0 200 200">
  <path fill="#fff" d="M131.224186,51.4680546 C118.247002,54.2486479 105.459222,45.9922371 102.677233,33.0323957 C99.8972811,20.0705217 108.16382,7.32003782 121.14915,4.5374119 C134.130407,1.76088377 146.912077,10.0172946 149.700176,22.9710382 C152.484201,35.9308796 144.211552,48.6935591 131.224186,51.4680546 Z M2.55822169,155.581762 L13.3684681,151.301111 L31.1601623,120.015371 L53.9822462,103.293192 L64.2813072,109.264963 L74.883821,105.413191 C76.2849983,102.043145 79.6127946,99.6711033 83.5006545,99.6711033 C105.163916,99.6711033 117.756183,84.2396234 118.811139,69.4789007 C119.532094,62.0334962 125.397487,55.8889541 131.535785,52.9213618 C131.535785,52.9213618 133.85954,51.653021 136.50304,51.1469042 C139.030455,50.6651786 141.967225,50.6489178 141.967225,50.6489178 L142.038505,50.6448526 C150.364106,50.8826665 160.162165,55.5169887 162.239492,65.1697941 L173.355227,116.964442 C174.021194,120.056023 173.740144,123.001257 172.813493,125.698514 C172.677041,126.214794 161.14584,154.646767 161.14584,154.646767 L187.269244,154.646767 C194.299571,154.646767 200,160.33804 200,167.354566 C200,174.371093 194.299571,180.0583 187.269244,180.0583 L142.240128,180.0583 C138.004011,180.0583 134.04487,177.954562 131.674273,174.444266 C129.309787,170.93397 128.849516,166.486647 130.44417,162.569832 L137.602801,144.995994 L122.116533,149.414861 L127.947304,181.391684 C129.203884,188.294385 124.617472,194.904392 117.703231,196.166635 C116.933399,196.306884 116.165602,196.378025 115.407989,196.378025 C109.377631,196.375993 104.019349,192.079082 102.897186,185.946735 L94.9992701,142.642246 C93.8261913,136.211108 97.7283074,129.946642 104.023423,128.149826 L129.097981,120.995083 L125.022754,102.002493 C115.821418,112.722412 101.868705,118.305957 83.5047277,118.305957 C81.2379975,118.305957 79.1891829,117.468527 77.5721264,116.129045 L68.7149746,119.346647 L44.4204325,165.716293 L45.4570594,190.690817 C45.5833283,193.719388 43.2229146,196.278428 40.1863514,196.406482 C40.1069242,196.410547 40.0336068,196.410547 39.9541796,196.410547 C37.0214828,196.410547 34.5816419,194.101516 34.4614828,191.146119 L33.7975528,175.192262 L31.1662721,192.341287 C30.7508067,195.054804 28.4087224,197 25.7326365,197 C25.4556596,197 25.1746095,196.981707 24.8935594,196.936989 C21.8875451,196.473557 19.8285475,193.676703 20.2867814,190.676589 L24.5880701,162.663331 L17.2155961,158.480246 L5.54997978,163.10034 C5.06323357,163.295469 4.55408481,163.384903 4.05919222,163.384903 C2.44620896,163.384903 0.920799282,162.421452 0.287418228,160.831961 C-0.539439354,158.756679 0.478858161,156.402931 2.55822169,155.581762 Z M51.7684674,91.6504738 C51.0536225,92.3252961 50.3326679,93.0041837 49.6056035,93.679006 C49.0862717,94.1627642 52.0454443,101.030911 52.0454443,101.030911 L29.8200827,117.078268 C28.3231854,114.738748 26.8222149,112.389066 25.3253175,110.041416 C22.0280702,104.894879 18.885604,99.6406144 15.0058905,94.9005971 C13.9488977,93.6119303 12.6923186,92.447252 11.372605,91.4126599 C5.29540541,86.67061 9.07328918,83.4042259 10.0508548,82.8350986 C12.4866225,81.4021174 15.1749279,81.6724528 17.6860496,82.9936412 C19.0851903,83.7355393 20.470075,84.5018285 21.8569962,85.2742155 C22.2643152,85.4998338 22.5738776,85.4856057 22.9587941,85.1868138 C23.6084679,84.6949253 24.3192396,84.2680798 25.0116819,83.8432669 C29.0197009,81.4122804 32.9157072,81.8472562 37.2027397,79.9894621 C38.654832,79.3634221 47.7095335,69.0032729 52.5118246,71.5297915 C57.7479104,74.2819285 58.1246805,80.0138533 56.4444896,84.6319147 C55.4587776,87.3535627 53.8783798,89.6768216 51.7684674,91.6504738 Z"/>
</svg>
