<svg xmlns="http://www.w3.org/2000/svg" xmlns:xlink="http://www.w3.org/1999/xlink" width="114" height="200" viewBox="0 0 114 200">
  <defs>
    <path id="ballet-a" d="M94.540278,117.301737 C94.540278,117.301737 94.5688531,117.442681 94.6221067,117.700616 C95.16065,120.313536 98.2181862,134.923627 99.5599173,136.462604 C99.1387592,139.421935 98.0681669,145.091951 97.0151094,146.360283 C95.9618894,147.628452 95.531964,154.162543 97.006342,158.812712 C98.4805577,163.462229 99.5995328,171.06342 98.476174,174.868089 C97.3529775,178.672758 93.8405126,181.204859 95.3850295,183.036314 C96.9295464,184.867769 100.859922,188.247163 100.719482,190.642393 C100.579042,193.039253 100.859273,199.379282 103.246268,199.519411 C105.633264,199.661169 105.773379,200.787091 106.33514,195.714742 C106.896738,190.640764 107.317896,188.105404 107.177456,183.313313 C107.037016,178.522852 105.263736,172.885099 105.263736,172.885099 C105.263736,172.885099 109.143131,180.212549 109.564289,182.891297 C109.985447,185.568415 109.142969,189.936859 109.564289,191.908444 C109.985447,193.881657 109.142969,199.503117 112.232002,199.721458 C115.321036,199.941428 117.005993,201.068978 117.427314,196.418646 C117.848472,191.768314 117.286873,184.862881 115.461476,179.930661 C113.636241,175.000071 111.249246,171.899307 111.670404,167.672621 C112.091725,163.444306 111.670404,152.45313 109.704729,149.07113 C107.738892,143.434517 112.512883,130.893122 112.512883,130.893122 L116.584835,123.424728 C116.584835,123.424728 120.937506,126.94751 121.920424,126.806729 C122.903343,126.665785 125.290338,126.102009 125.290338,126.102009 L126.834855,126.383897 L127.958052,126.242953 L129.923889,126.94751 L132.310884,125.397453 C132.310884,125.397453 129.502569,125.961229 133.995679,126.102009 C138.488952,126.242953 139.190991,126.102009 139.190991,126.102009 L141.156665,125.397453 C141.156665,125.397453 140.314187,123.706616 142.841623,123.706616 C145.369058,123.706616 145.369058,121.592784 145.369058,121.592784 C145.369058,121.592784 142.560742,119.620059 142.701182,118.351728 C142.841623,117.083559 142.982063,116.379003 141.577986,114.406115 C140.173747,112.43339 126.553975,97.7783266 122.482022,95.1008825 C118.41007,92.4236013 121.077946,87.068876 122.903343,84.250488 C124.728578,81.432263 126.132655,72.6955373 126.132655,72.6955373 C126.132655,72.6955373 127.677171,70.1590371 127.396453,68.0453683 C127.115573,65.9316995 124.869018,58.4631425 124.869018,58.4631425 C124.869018,58.4631425 123.324501,55.222086 124.869018,52.1219733 C126.413535,49.0218606 132.310884,36.1987412 133.574521,34.3667972 C134.838158,32.5350161 135.821076,31.4076283 138.067632,23.9392343 C140.314187,16.4706773 141.437546,12.1023959 141.437546,12.1023959 C141.437546,12.1023959 144.596719,10.4817862 146.492255,9.21361748 C148.387791,7.94544881 150.985365,7.87489542 150.985365,7.87489542 C150.985365,7.87489542 154.63616,8.01583926 154.7766,7.09994872 C154.916878,6.18389523 153.934121,6.32483907 153.934121,6.32483907 C153.934121,6.32483907 155.618916,6.11350478 155.829657,5.33855808 C156.040236,4.56344843 156.321117,3.92928263 154.846739,3.64755789 C153.372361,3.36567021 151.757705,2.59072351 151.757705,2.59072351 L155.057318,1.18144806 C155.057318,1.18144806 155.267897,-0.298054902 153.232083,0.0542232255 C151.196107,0.406501353 146.000795,1.3223919 144.03512,3.36567021 C142.069283,5.40894853 139.120689,7.52261729 139.120689,7.52261729 L132.732043,20.1344024 C132.732043,20.1344024 129.29199,25.9119592 128.94097,28.871128 C128.589951,31.8302969 124.869018,37.325966 124.869018,37.325966 C124.869018,37.325966 119.814309,45.8513574 118.129352,47.4014138 C116.444395,48.9514701 115.391337,51.1356923 115.391337,51.1356923 L113.84682,51.2766361 C113.84682,51.2766361 111.810844,46.4855232 112.512883,43.6671353 C113.214921,40.8489103 116.725275,37.9146714 116.093376,37.1397247 C115.461476,36.364615 113.70638,34.4873734 113.70638,34.4873734 L112.793763,34.4873734 L113.144782,33.2645023 L112.091725,33.0759797 C112.091725,33.0759797 112.653323,30.0223052 111.389524,30.3745833 C110.125887,30.7268614 107.879332,30.5740229 107.387873,29.9400201 C106.896413,29.3058542 103.035202,26.7634881 100.928925,27.4680444 C98.8228095,28.1726006 92.5043017,30.9173393 92.9256222,35.2857836 C90.3981866,36.6245057 88.08133,38.736708 88.9238086,41.2732082 C89.7662871,43.8095456 91.4512441,49.6568411 96.9974123,46.2044503 C99.1738287,48.0362314 102.122422,48.1768493 102.122422,48.1768493 C102.122422,48.1768493 103.035202,53.6018021 100.016307,53.6723555 C96.9974123,53.742746 93.9786797,54.0948611 92.1532825,55.1518585 C90.3280477,56.2086929 82.8160422,58.5336959 77.8314723,58.1110273 C72.8469024,57.6881958 71.091644,57.4063081 65.8263562,57.7585863 C60.560906,58.1108644 54.7338575,58.1108644 54.7338575,58.1108644 C54.7338575,58.1108644 49.3279672,60.5064208 47.4324311,62.9725307 C45.536895,65.4384776 44.6242776,66.6362558 44.6242776,66.6362558 L42.1671432,70.2999809 C42.1671432,70.2999809 41.5352438,71.638703 42.7287415,71.5681496 C43.9222392,71.4977591 44.0626793,70.5113152 44.0626793,70.5113152 L43.9923781,73.4000936 C43.9923781,73.4000936 44.0626793,74.5274814 45.1157369,73.6114279 C45.536895,73.7523717 47.1517132,74.8092061 47.1517132,73.2591498 C47.1517132,71.7090934 46.3092346,68.6089807 46.5899526,67.9749778 C46.8708329,67.340812 48.5557899,66.00209 49.1173881,66.00209 C49.6789864,66.00209 50.3811871,66.5657024 49.9598667,67.340812 C49.5387086,68.1157587 49.3279672,68.7499245 49.4684073,70.0180932 C49.6088475,71.2864248 50.8023452,71.2864248 50.8023452,71.2864248 L51.7149626,68.9612588 C51.7149626,68.9612588 51.6448237,67.9749778 52.6978813,67.340812 C53.7509389,66.7066462 55.5763361,63.8178678 55.4358959,62.4793087 C59.5078484,62.9725307 69.6174284,64.8043118 69.6174284,64.8043118 C69.6174284,64.8043118 74.321118,65.8611461 77.9016112,65.1565899 C81.4821043,64.4520336 93.6276605,63.3951992 95.3126176,63.7474774 C96.9974123,64.0997555 99.8758671,68.6795341 99.8758671,68.6795341 C99.8758671,68.6795341 102.684183,70.7932029 102.684183,72.4136497 C102.684183,74.0342594 103.737241,79.9525971 103.737241,79.9525971 C103.737241,79.9525971 102.894762,85.8005444 100.437628,86.1528225 C97.980331,86.5051006 85.7646359,85.0959881 80.5694869,85.3778758 C75.3741756,85.6596005 75.6550559,85.5892101 75.6550559,85.5892101 L75.3040367,86.7869883 L74.7473092,86.9279322 L71.8737252,87.4211541 L71.8737252,88.1961008 L71.0965148,88.1257104 L70.8835004,89.4642695 L70.7068543,90.1689887 L67.3538255,90.2393791 L66.4496507,92.2826575 L63.4351394,93.198548 L63.8584082,94.1146015 L63.2977841,94.6076605 L63.4387113,95.1714359 L63.8603565,95.9463826 L63.7902176,97.003217 L63.2286194,97.598114 L63.7903799,98.6860701 L64.7299489,98.6860701 L64.7299489,100.878439 L65.5589517,102.498886 C65.5589517,102.498886 67.1669508,103.133052 67.5881088,103.133052 C68.0094293,103.133052 69.7260463,102.710383 70.7089649,102.428496 C71.6918836,102.146608 73.4628907,101.301108 73.4628907,101.301108 L73.2601049,102.498886 C73.2601049,102.498886 73.3343027,103.062661 74.1767813,103.062661 C75.0192598,103.062661 75.3722273,103.626274 75.3722273,103.626274 L74.9520433,104.683108 L77.1990857,105.317274 C77.1990857,105.317274 76.4972097,107.430943 77.1291092,107.783221 C77.7610087,108.135499 78.9545064,108.276443 78.9545064,108.276443 L79.0951089,109.615165 C79.0951089,109.615165 78.8142286,110.460665 79.6567071,110.460665 C80.4991856,110.460665 82.6053008,110.953724 82.675602,111.517499 C82.7457409,112.081112 82.8861811,112.785668 82.8861811,112.785668 L86.3262341,114.406115 C86.3262341,114.406115 88.9238086,115.81539 89.13455,116.026725 C89.345129,116.238059 92.0831436,116.097115 92.0831436,116.097115 L93.3467802,115.603893 L94.540278,117.301737"/>
  </defs>
  <g fill="none" fill-rule="evenodd" transform="translate(-42)">
    <use fill="#fff" xlink:href="#ballet-a"/>
  </g>
</svg>
