<svg xmlns="http://www.w3.org/2000/svg" xmlns:xlink="http://www.w3.org/1999/xlink" width="200" height="128" viewBox="0 0 200 128">
  <defs>
    <path id="cat-a" d="M125.190652,49.6458248 C125.504075,52.0453422 121.638322,38.7965133 123.310117,36.6057448 C124.981913,34.4149763 130.7282,42.1349315 131.877206,42.5521164 C132.608421,41.8216516 132.817474,40.6743149 135.429223,40.6743149 C135.429223,40.6743149 134.802692,36.8141808 135.638276,36.0840289 C136.47386,35.3538771 137.936916,39.6308831 138.7725,39.3179162 C139.608084,39.0049493 140.548352,37.4401146 142.951362,37.3358966 C145.354371,37.2316787 147.548015,38.6919823 148.697335,38.9007313 C149.846655,39.1094802 152.87651,37.5446456 154.234569,37.8576125 C155.592629,38.1705794 155.697312,38.9007313 156.010734,39.6308831 C156.324157,40.3613479 158.517801,41.4044667 159.040276,43.2822683 C159.562751,45.1600698 157.786586,46.5161555 158.309061,47.3508383 C158.831536,48.1855211 158.413431,49.7500428 157.786586,51.1064415 C157.159741,52.4625272 155.27952,55.3837605 155.697312,56.8440642 C156.115104,58.3046808 159.458381,64.8769863 162.070131,66.3376029 C164.68188,67.7979066 172.413071,80.2123657 173.353338,81.4642335 C174.293606,82.7161012 177.42783,74.787397 178.263728,73.0141264 C179.099625,71.2405428 187.562031,58.6173348 188.815721,57.574216 C190.069411,56.5310972 190.904995,54.2361107 192.472107,54.3403287 C194.03922,54.4445467 193.93485,55.1750115 193.93485,55.1750115 C193.93485,55.1750115 194.875431,54.2361107 196.024437,54.6532957 C197.173444,55.0704806 196.964705,56.0093814 196.964705,56.0093814 C196.964705,56.0093814 197.800289,55.0707935 198.636187,55.9051634 C199.472084,56.7398462 198.740556,57.36578 198.740556,57.36578 C198.740556,57.36578 199.889563,56.7395332 199.994246,57.8871829 C200.098929,59.0348326 198.740556,60.1821694 198.740556,60.7038853 C198.740556,61.2256011 199.759179,61.0171652 199.680824,62.1645019 C199.602468,63.3121516 197.408511,64.3292942 194.875117,65.5029201 C193.83048,66.5460389 189.024774,74.4744301 188.188876,76.6651986 C187.352979,78.8559671 182.834367,99.1465519 173.666761,108.692356 C171.368434,110.152973 165.8312,111.822025 164.890933,114.117325 C163.950665,116.412311 162.801659,125.488352 163.846296,126.844438 C164.890933,128.200524 166.353675,132.47753 166.667097,134.146895 C166.98052,135.816261 167.398625,140.719514 168.12984,141.449666 C168.861055,142.179817 171.472804,150.942578 172.308701,152.611944 C173.144599,154.28131 175.129817,157.306448 175.965401,159.18425 C176.800985,161.062051 175.442612,162.731417 175.233873,163.148602 C175.025134,163.565787 172.204332,163.357351 169.38353,163.357351 C166.562728,163.357351 162.801659,163.357038 162.488236,162.313919 C162.174814,161.2708 162.383553,159.28878 163.32382,158.036913 C164.264088,156.785045 162.801345,156.993794 162.070131,155.533177 C161.338916,154.072561 161.339229,150.629924 159.354012,148.439156 C157.368794,146.248387 153.398985,135.920792 151.309398,133.312525 C149.21981,130.704259 148.488282,127.261623 145.772164,127.261623 C143.056045,127.261623 142.32483,132.79081 139.712768,133.72971 C137.100705,134.668611 134.07085,145.831516 131.145678,148.856654 C128.220507,151.881792 124.250385,155.741613 123.832593,155.950362 C123.414801,156.159111 127.28024,158.036913 126.339972,159.914714 C125.399705,161.792516 122.996695,162.105483 121.429583,162.105483 C119.862471,162.105483 114.012127,161.792516 114.012127,161.792516 C114.012127,161.792516 114.952395,162.41845 112.445015,163.357351 C109.937636,164.296251 106.698728,163.879066 105.131616,163.983284 C103.564504,164.087502 96.042365,163.670317 93.7437248,163.670317 C91.4457115,163.670317 88.4158567,164.19172 87.6846422,162.000952 C86.9531142,159.810183 87.3712197,158.141131 87.3712197,158.141131 C87.3712197,158.141131 85.4906851,157.20223 83.9235729,156.263329 C82.3564607,155.324428 79.5356587,153.759594 79.5356587,153.759594 C79.5356587,153.759594 69.5058271,160.123463 58.6407248,160.43643 C47.775309,160.749397 39.2082199,159.915027 29.701177,155.741926 C20.1941341,151.568825 17.7911242,148.23072 15.3884278,146.14417 C12.9854179,144.057619 2.12031557,142.492784 0.448520265,138.111247 C-1.22296162,133.72971 2.12031557,132.373312 4.83643445,132.164876 C7.55286675,131.95644 16.0152727,133.208307 19.776342,135.712043 C23.5374113,138.215778 28.8655928,144.891989 39.6263255,146.665572 C50.3873716,148.439156 60.8346819,149.482275 66.7893948,146.561354 C72.7444212,143.640434 72.2222594,141.76232 73.998111,140.302016 C75.7745894,138.841712 77.5504409,137.485314 78.4907083,136.442195 C79.4309756,135.399076 78.8041307,132.791123 80.5799823,130.182856 C82.3561472,127.57459 83.0873618,123.50602 84.654474,120.585099 C86.2215862,117.664179 92.5947181,110.152973 96.8779492,107.544706 C101.161494,104.936753 107.325573,98.3641346 109.6239,95.3389963 C111.92254,92.3138579 116.310454,87.4106051 120.280576,84.8026517 C124.250698,82.1943853 129.265457,80.5253327 129.265457,80.5253327 C129.265457,80.5253327 131.041622,76.1437957 130.310094,73.1183444 C129.578566,70.0932061 126.549025,66.7547879 125.92218,63.1034027 C125.295335,59.4523305 125.190652,49.6458248 125.190652,49.6458248"/>
  </defs>
  <g fill="none" fill-rule="evenodd" transform="translate(0 -36)">
    <use fill="#000105" xlink:href="#cat-a"/>
  </g>
</svg>
