<svg xmlns="http://www.w3.org/2000/svg" width="200" height="175" viewBox="0 0 200 175">
  <path  fill="#fff" fill-rule="evenodd" d="M195.312676,48.9375 C198.437574,56.4896211 200,64.43225 200,72.765625 C200,81.8802539 198.112069,90.473918 194.33615,98.546875 C190.560232,106.619832 185.287045,113.455701 178.516432,119.054688 C173.568676,123.612002 160.808867,135.265531 140.23662,154.015625 C120.966414,171.593838 109.18312,182.335918 104.886385,186.242188 C103.45414,187.414068 101.826613,188 100.003756,188 C98.1808986,188 96.5533719,187.414068 95.1211268,186.242188 C88.7411262,180.512992 72.0101511,165.213666 44.9276996,140.34375 C32.0374944,128.624941 24.6810734,121.984383 22.8582161,120.421875 C22.3373997,119.901039 21.7514901,119.380211 21.1004696,118.859375 C14.4600608,113.260389 9.31707626,106.457071 5.67136164,98.4492188 C2.02564701,90.4413662 0.13771597,81.9453574 0.00751187599,72.9609375 C-0.122692218,64.7577715 1.43973347,56.8151426 4.69483582,49.1328125 C7.68952997,41.8411094 11.9862006,35.3958613 17.5849767,29.796875 C28.5221205,18.5989023 41.6074357,13 56.8413147,13 C65.1743767,13 73.0841567,14.8228984 80.5708921,18.46875 C88.0576275,22.1146016 94.535184,27.2577793 100.003756,33.8984375 C105.472328,27.2577793 111.949884,22.1146016 119.43662,18.46875 C126.923355,14.8228984 134.833135,13 143.166197,13 C158.400076,13 171.485391,18.5337988 182.422535,29.6015625 C188.021311,35.2005488 192.317982,41.6457969 195.312676,48.9375 Z" transform="translate(0 -13)"/>
</svg>
