<svg xmlns="http://www.w3.org/2000/svg" width="133" height="200" viewBox="0 0 133 200">
  <path fill="#fff" fill-rule="evenodd" d="M95.5640913,47.5711794 C95.9398933,46.3172199 96.56623,45.7847287 97.2552004,45.3449598 C97.9441708,44.906957 98.6022655,44.4044901 98.6340234,44.1227908 C98.6648991,43.8410914 98.7584086,44.2799773 99.3538695,43.7466029 C99.9493305,43.2141117 100.32425,42.1791536 100.418642,41.3331724 C100.513034,40.4863082 100.261617,39.9847244 100.261617,39.9847244 C100.261617,39.9847244 100.292492,39.0751623 100.292492,36.8807331 C100.292492,34.686304 100.668294,33.3696465 99.6035221,31.4887073 C98.5396318,29.607768 97.4113435,29.2942782 96.5971058,28.2911106 C95.782868,27.287943 95.219165,26.7236612 92.4632834,25.8458895 C89.7074018,24.9681179 86.5757182,26.0339835 85.5109458,27.099849 C84.4461734,28.1657146 84.5705585,29.670466 84.0703713,30.8617275 C83.5693019,32.0529891 83.1934999,31.9902911 82.4418958,34.0593243 C81.6902918,36.1283574 82.3792622,39.3268372 82.3792622,39.3268372 C82.3792622,39.3268372 80.8134204,35.5649587 78.9344102,34.8743979 C77.0554,34.1847202 75.3642909,33.4323445 73.2338638,32.7426668 C71.1052011,32.0529891 69.6011108,31.3633113 69.6011108,31.3633113 C69.6011108,31.3633113 70.1339381,29.2633707 69.8525277,29.1061842 C69.5702351,28.9489978 69.5076014,28.6672984 69.5076014,28.6672984 L69.6637445,27.287943 C69.6637445,27.287943 73.2656218,28.3855991 74.7061962,27.9458302 C76.1467707,27.5069443 75.7400929,26.6609632 75.6139434,25.940378 C75.488676,25.2189098 75.5830676,24.654628 75.896236,24.1839517 C76.2094044,23.7141584 76.4281811,23.6196699 76.1158949,23.2752726 C75.8027266,22.9299922 74.7917662,22.4284084 74.6047473,22.1776165 C74.4159641,21.9277076 76.3267322,22.6323976 76.561388,22.4601989 C76.7969258,22.2880002 76.5305122,21.8014286 76.6707763,21.4252408 C76.8119226,21.0490529 77.5635267,20.6569698 77.720552,20.7196678 C77.8775772,20.7823658 79.1452475,21.440253 79.5528074,20.7187847 C79.9594852,19.9981995 78.9573465,18.2117488 78.8320791,16.8633008 C78.7068118,15.5157359 78.9264707,14.8569656 78.9264707,14.8569656 C78.9264707,14.8569656 79.3957822,14.1354973 79.5519253,13.1950277 C79.7089505,12.2545581 79.1452475,9.15144987 78.8947128,8.52358705 C78.6441781,7.8966073 78.6750539,7.86569985 78.6750539,7.86569985 C78.6750539,7.86569985 79.3022727,7.67760592 79.4584158,6.92523022 C79.6145589,6.17285452 79.6145589,5.89115517 79.4266579,5.42047882 C79.2387569,4.94980247 75.6377618,2.75537335 72.5995876,1.15613345 C69.5622956,-0.442223376 65.7725174,-0.097826049 64.5198439,0.498246248 C63.2671705,1.09343548 62.6717095,2.31648752 62.3594233,2.34827805 C62.0453728,2.3791855 59.3521249,5.92206262 58.7257881,8.58628502 C58.0994514,11.2505074 59.7905606,17.7083988 59.696169,18.9005434 C59.6017774,20.0909219 58.7875396,23.2258206 58.3182282,23.9163814 C57.8480346,24.6051761 57.8480346,24.7623626 57.2843315,24.919549 C56.7206285,25.0758524 56.1878012,25.4829477 55.843757,26.330695 C55.4997129,27.1766761 55.1856624,28.2107512 54.9668856,28.4615431 C54.7481089,28.712335 49.2980972,31.5655344 46.5422156,32.568702 C43.786334,33.5718696 42.3457596,34.1352683 40.9678188,35.9543926 C39.589878,37.7726339 39.3384611,38.7131035 38.8373918,40.8448347 C38.3363224,42.9765658 35.5804408,60.7836738 35.4560556,62.66373 C35.3299061,64.5446692 33.2012434,68.4328268 34.3277673,71.8185174 C35.4560556,75.2042081 38.2736887,82.1645664 39.9647979,86.1136557 C41.655907,90.0645112 42.7833131,91.9454505 42.7833131,91.9454505 C42.7833131,91.9454505 40.4658672,106.679475 41.3427386,106.930266 C42.2196101,107.181058 47.4182049,108.811206 48.1698089,107.74534 C48.9222952,106.679475 50.5498885,105.613609 50.5498885,105.613609 C50.5498885,105.613609 53.4319196,122.353968 53.3057701,127.119897 C53.1805027,131.884944 53.3057701,132.01034 53.0552354,134.894446 C52.8047007,137.778553 52.9308502,135.646822 52.0539788,140.286472 C51.1771074,144.927005 48.9222952,160.099915 46.9171355,168.501444 C44.912858,176.902973 44.912858,176.777577 44.6623233,180.289546 C44.4117886,183.800633 44.9754916,186.747438 45.100759,187.499814 C45.2269085,188.251306 44.5996896,189.505266 44.5996896,189.505266 L44.7875906,190.948202 C44.7875906,190.948202 44.4117886,192.766443 44.2874034,193.706913 C44.1612539,194.647383 44.2874034,197.594188 44.2874034,197.594188 C44.2874034,197.594188 46.5413334,198.158469 47.0115271,198.158469 C47.4808385,198.158469 48.6082446,197.907677 48.7652699,198.127562 C48.921413,198.346563 50.8630568,199.632313 51.4893936,199.883105 C52.1166125,200.133014 61.9492168,199.914013 64.1731533,199.851315 C66.3962076,199.788617 66.4588413,199.098939 66.3962076,198.754542 C66.3344561,198.409261 66.1465551,197.844096 65.9268961,197.751374 C65.7081194,197.656885 65.3014416,197.311605 63.6103324,196.214832 C61.9183411,195.117176 60.6347919,193.142631 60.6347919,193.142631 C60.6347919,193.142631 67.4301043,194.3648 69.9672091,194.866384 C72.5034317,195.368851 79.1434832,194.615592 80.0521125,194.271195 C80.9598596,193.925914 81.2103943,193.204446 80.9289839,192.766443 C80.6458091,192.326675 80.7719586,192.515652 79.5192852,192.139464 C78.2657296,191.763276 73.9757641,190.97911 71.5330509,189.850546 C69.0903377,188.721983 67.3357127,185.587084 66.7728918,184.77201 C66.2091887,183.956936 66.1465551,183.518051 65.4567025,183.329957 C64.7686143,183.141863 64.0796439,180.507665 64.0796439,180.507665 C64.0796439,180.507665 67.7123969,168.218862 68.5892683,162.325252 C69.4661397,156.431642 68.9650703,155.80378 69.9672091,153.170465 C70.9693478,150.53715 77.6085171,124.579305 78.9864579,121.193614 C80.3643987,117.807924 80.1359181,111.010933 81.6902918,107.386814 C83.2455476,103.763577 84.2476864,97.4928966 84.2476864,97.4928966 C84.2476864,97.4928966 85.2498251,104.389674 85.8761618,104.265161 C86.5033807,104.138882 89.0078455,113.544461 88.7573108,120.065051 C88.5067761,126.58564 87.755172,127.588808 84.9992904,136.115732 C82.2434089,144.64354 85.248943,147.653043 85.7508945,152.919673 C86.2519639,158.186303 82.2434089,183.266376 81.4918048,185.398107 C80.7402007,187.529838 81.1160027,195.304387 82.2434089,194.802803 C83.370815,194.301219 91.387925,198.314773 94.1438066,198.314773 C96.8996882,198.314773 112.558988,195.805971 118.196019,194.552011 C123.833049,193.298935 123.082328,194.928199 131.224705,195.556062 C139.367082,196.182158 141.119943,194.802803 142.749301,194.426615 C144.377776,194.050427 147.634727,192.796468 150.140074,193.925031 C152.645421,195.054478 155.276035,195.93225 157.03066,195.93225 C158.784403,195.93225 160.411996,194.426615 161.540285,194.426615 L167,194.426615 C167,194.426615 163.920364,188.659285 159.034055,185.899691 C154.149511,183.14098 151.26748,183.517168 146.382054,181.134644 C141.496627,178.752121 139.49235,177.372766 138.114409,175.115639 C136.736468,172.858512 136.861735,172.482324 134.105854,170.601385 C131.349972,168.719562 131.098555,149.157794 126.087862,140.379195 C121.077168,131.601478 122.830911,132.353854 121.828772,126.084056 C120.827515,119.814259 120.075029,106.020704 119.198158,102.320641 C118.321286,98.6214602 116.631059,96.8032189 115.878573,95.2984675 C115.126969,93.7937161 115.001702,92.9786424 114.688533,91.9754748 C114.375365,90.9723072 114.187464,89.8437437 114.187464,89.8437437 L114.250098,89.2167639 C114.250098,89.2167639 119.949762,88.0873173 120.38908,87.7111295 C120.827515,87.3349416 122.612134,87.3349416 122.612134,87.3349416 C122.612134,87.3349416 126.339279,87.680222 126.80859,87.3349416 C127.278784,86.9905443 127.716337,86.1436801 127.935996,85.7357017 C128.155655,85.3286064 128.061263,85.109605 127.935996,84.8897206 C127.810729,84.6707192 128.030388,84.4199273 128.061263,84.0746469 C128.093021,83.7302496 128.093021,83.6357611 127.935996,83.4167597 C127.778971,83.1968753 127.622828,82.9469664 127.748095,82.5389881 C127.873362,82.1310097 128.093021,82.0064968 127.778971,81.4731225 C127.465802,80.9397482 127.278784,80.5635603 127.278784,80.5635603 C127.278784,80.5635603 128.468823,78.4000386 128.843743,78.4000386 C129.219545,78.4000386 129.283061,78.2746427 129.909398,78.5254346 C130.534852,78.7762265 130.66012,77.7103609 131.224705,78.0238508 C131.788408,78.3373407 132.038943,77.396871 132.85318,78.0865488 C133.667418,78.7762265 134.04322,79.2159954 134.419022,78.9016224 C134.794824,78.5881326 135.609062,77.396871 135.609062,77.396871 C135.609062,77.396871 136.110131,77.3341731 136.485933,77.396871 C136.861735,77.459569 137.300171,77.3341731 137.675973,77.0833812 C138.051775,76.8325893 138.99128,76.4564014 139.053914,75.5786298 C139.116548,74.7008581 139.179181,74.1992743 139.116548,73.5722946 C139.053914,72.9453148 138.490211,73.6349925 139.116548,72.8199189 C139.742884,72.0048452 139.742884,71.5659594 139.742884,71.5659594 C139.742884,71.5659594 140.369221,71.0643756 139.617617,70.3119999 L138.490211,69.1834363 L138.615478,68.4937586 C138.615478,68.4937586 138.490211,66.6746342 138.30231,65.4842558 C138.114409,64.2921112 137.645097,64.7627875 137.645097,64.1049003 C137.645097,63.4461301 137.393681,63.3207341 137.143146,63.7914105 C136.893493,64.2612037 136.485933,64.5119956 136.485933,64.5119956 L136.016622,64.0104118 C136.016622,64.0104118 135.452919,63.634224 135.23326,63.508828 C135.014483,63.3834321 135.138868,63.0699422 134.387264,63.0699422 C133.63566,63.0699422 133.35425,63.0072442 133.166349,62.6937544 C132.978448,62.3802645 132.821423,61.6278888 132.069818,61.7850753 C131.318214,61.9413787 131.536991,60.9691185 130.410467,60.3421388 C129.283061,59.715159 129.219545,59.777857 128.594091,60.0286489 C127.967754,60.2794408 128.218289,59.840555 127.403169,60.0913469 C126.588931,60.3421388 126.40103,59.652461 125.399773,59.840555 C124.397635,60.0286489 123.45813,59.9032529 123.019694,59.9659509 C122.581258,60.0286489 123.395496,59.777857 121.203317,59.652461 C119.011139,59.5270651 119.198158,58.7119914 118.884989,59.777857 C118.572703,60.8437226 118.258653,61.0318165 117.882851,61.3453064 C117.507049,61.6587962 117.319148,61.0945145 116.442276,61.9722861 C115.565405,62.8509408 115.565405,62.4111719 115.064335,63.3516416 C114.563266,64.2921112 116.192624,63.6651314 114.12483,64.6056011 C112.057919,65.5460707 111.995285,65.4206747 111.995285,65.9222585 C111.995285,66.4238423 112.183186,65.8595606 111.807384,66.8000302 C111.431582,67.7404998 111.682117,67.176218 111.619483,67.9285937 C111.55685,68.6809694 111.870018,68.5555735 111.870018,68.9317613 C111.870018,69.3088323 111.682117,69.1198553 111.807384,69.872231 C111.932652,70.6254897 112.120553,70.2484188 111.932652,71.0007945 C111.744751,71.7531702 112.183186,71.6904722 112.120553,72.192056 C112.057919,72.6936398 111.870018,72.1293581 112.558988,73.0071297 C113.247959,73.8849014 113.749028,73.3215027 113.561127,74.0729953 C113.373226,74.825371 113.43586,75.6413277 113.811662,75.8912366 C114.187464,76.1429115 115.189603,76.3301224 115.189603,76.3301224 C115.189603,76.3301224 115.502771,76.2674244 115.753306,77.1460791 C116.00384,78.0238508 116.567543,78.0238508 116.756327,78.3373407 C116.943345,78.6499475 117.381781,77.9611528 117.882851,78.4000386 C118.38392,78.8389245 119.260791,79.0261353 119.260791,79.0261353 L119.88801,78.9016224 C119.88801,78.9016224 120.701366,78.9016224 120.638732,79.4023232 C120.576098,79.90479 120.576098,80.1555819 120.576098,80.1555819 C120.576098,80.1555819 120.326446,80.5944678 119.699227,81.8484273 C119.07289,83.1015037 119.260791,83.2904807 118.634455,83.4785746 C118.008118,83.6666685 111.870018,83.6039706 111.870018,83.6039706 C111.870018,83.6039706 112.746889,81.9420327 112.371087,81.5031469 C111.995285,81.064261 111.870018,80.8452597 111.870018,80.8452597 C111.870018,80.8452597 112.120553,79.6222076 111.682117,79.1206238 C111.243681,78.61904 111.211923,78.61904 110.2733,78.5245515 C109.333795,78.4318292 108.550433,77.9293623 108.550433,77.9293623 C108.550433,77.9293623 110.77437,76.7063102 110.77437,76.111121 C110.77437,75.5159318 111.243681,75.3587453 110.492077,75.2651399 C109.740473,75.1706514 108.957993,75.3587453 108.800968,75.3587453 C108.643943,75.3587453 109.082379,70.8753986 109.207646,69.3088323 C109.332913,67.7404998 107.516537,66.8627282 106.263863,65.9849565 C105.01119,65.1071849 104.10256,64.4802051 103.288323,63.8214349 C102.474085,63.1635476 102.379693,59.714276 100.969995,58.429409 C99.5611782,57.143659 96.9517359,56.4071785 97.0990573,56.5060824 C96.0651607,55.8481952 95.4079482,54.6878411 95.3135566,54.2489553 C95.2200472,53.8100695 95.1882892,48.826022 95.5640913,47.5711794 Z M47.5417079,69.9022554 C47.5417079,70.905423 47.7304911,70.717329 47.6043415,71.9712885 C47.4790742,73.225248 47.6043415,74.4165096 47.6043415,74.4165096 C47.6043415,74.4165096 45.9132324,71.5951007 46.2890344,70.3411412 C46.6648365,69.0871817 48.4185793,66.1403769 48.4185793,66.1403769 C48.1054109,67.9586181 47.5417079,68.8990878 47.5417079,69.9022554 Z" transform="translate(-34)"/>
</svg>
