<svg xmlns="http://www.w3.org/2000/svg" width="200" height="200" viewBox="0 0 200 200">
  <path  fill="#fff" d="M99.9300226,200 C44.9927765,200 0.295711061,155.20181 0.295711061,100.140271 C0.295711061,45.078733 44.9927765,0.280542986 99.9300226,0.280542986 C154.867269,0.280542986 199.564334,45.078733 199.564334,100.140271 C199.564334,155.20181 154.867269,200 99.9300226,200 Z M153.304289,44.3823529 L182.4307,44.3823529 C180.722348,41.8298643 178.894808,39.3642534 176.964786,36.9850679 L150.411287,36.9850679 C144.542664,23.1687783 136.788262,11.8529412 127.811738,4.09321267 C118.870429,1.44479638 109.419865,0 99.63386,0 C89.8478555,0 80.3968397,1.44524887 71.4555305,4.09321267 C62.4794582,11.8533937 54.7255079,23.1687783 48.8564334,36.9850679 L22.3029345,36.9850679 C20.3733634,39.3642534 18.5453725,41.8294118 16.8370203,44.3823529 L45.9634312,44.3823529 C40.56614,59.5891403 37.3331828,77.2660633 36.9562077,96.1615385 L0.0934537246,96.1615385 C0.048758465,97.3914027 0,98.6190045 0,99.8597285 C0,101.100452 0.048758465,102.328054 0.0934537246,103.557919 L36.9562077,103.557919 C37.3331828,122.453394 40.56614,140.130317 45.9634312,155.337104 L16.8370203,155.337104 C18.5453725,157.889593 20.3733634,160.355204 22.3029345,162.734389 L48.8568849,162.734389 C54.7259594,176.551131 62.4799097,187.866516 71.4559819,195.626244 C80.3972912,198.274208 89.848307,199.719457 99.63386,199.719457 C109.419413,199.719457 118.87088,198.274661 127.811738,195.626244 C136.788262,187.866063 144.542212,176.551131 150.411287,162.734389 L176.964786,162.734389 C178.894808,160.355204 180.722348,157.890045 182.4307,155.337104 L153.304289,155.337104 C158.70158,140.130317 161.934537,122.453394 162.311512,103.557919 L199.174266,103.557919 C199.218962,102.328054 199.26772,101.1 199.26772,99.8597285 C199.26772,98.619457 199.218962,97.3914027 199.174266,96.1615385 L162.311512,96.1615385 C161.934537,77.2660633 158.70158,59.5891403 153.304289,44.3823529 Z M56.6717833,162.734389 L95.9440181,162.734389 L95.9440181,199.472851 C80.1227991,197.582805 66.1011287,183.665158 56.6717833,162.734389 Z M95.9440181,155.337557 L53.6352144,155.337557 C48.0889391,140.419005 44.7218962,122.664706 44.3340858,103.558371 L95.9440181,103.558371 L95.9440181,155.337557 Z M44.3331828,96.1615385 C44.7214447,77.0552036 48.0884876,59.3013575 53.6343115,44.3823529 L95.9431151,44.3823529 L95.9431151,96.1615385 L44.3331828,96.1615385 Z M56.6717833,36.9855204 C66.1011287,16.0547511 80.1232506,2.13710407 95.9440181,0.247058824 L95.9440181,36.9855204 L56.6717833,36.9855204 Z M103.323702,0.247058824 C119.144921,2.13710407 133.166591,16.0552036 142.596388,36.9855204 L103.323702,36.9855204 L103.323702,0.247058824 Z M103.323702,199.472851 L103.323702,162.734389 L142.596388,162.734389 C133.167043,183.665158 119.144921,197.582805 103.323702,199.472851 Z M145.632957,155.337557 L103.324153,155.337557 L103.324153,103.558371 L154.934086,103.558371 C154.546275,122.664253 151.179233,140.419005 145.632957,155.337557 Z M103.323702,44.3823529 L145.632506,44.3823529 C151.178781,59.300905 154.545824,77.0552036 154.933183,96.1615385 L103.323702,96.1615385 L103.323702,44.3823529 Z"/>
</svg>
