<svg xmlns="http://www.w3.org/2000/svg" width="200" height="150" viewBox="0 0 200 150">
  <path  fill="#fff" fill-rule="evenodd" d="M36.9634612,111.006782 C37.188261,109.400863 37.4289488,107.777695 37.6537486,106.154527 C37.3647203,104.419405 36.8992327,102.65215 36.9154589,100.868661 C36.9472351,97.2539916 38.4086024,95.1329481 41.5240225,93.4458544 C42.8890471,92.7068208 44.4464192,92.321238 45.7793295,91.6627033 C48.2037862,90.2965903 55.0927995,85.8945204 57.3732492,85.2518824 C57.6622775,84.9464603 57.6301632,85.1233549 57.9834199,84.7377721 C59.5570181,82.9542827 60.1032984,81.7650643 60.311872,79.2107476 C60.2635316,72.2540227 52.6842309,74.0855409 54.6594262,70.3261089 C54.9325664,69.8272189 55.2858231,69.618869 55.6870822,69.2170511 C56.441936,68.4621207 56.056227,68.4939143 56.2972529,67.6104563 C56.4578241,67.0317439 56.7951928,67.0158471 57.3252469,66.72666 C57.2769065,66.0999189 57.3732492,65.8107318 57.7423941,65.3449884 C59.4447873,63.2723119 57.1643376,63.4008395 57.7907345,61.649482 C58.0476484,60.9107866 59.0753044,60.8624197 59.926501,60.6855251 C60.8094738,60.4927337 61.4037564,60.2032084 62.2708411,59.8500958 C63.812325,59.2233547 64.0854652,58.4684242 64.5032885,57.2308388 C64.5992932,56.9098581 64.5191766,56.9741219 64.8565452,56.7008317 L66.9919737,54.9335773 C68.5175695,53.8891215 69.3366519,53.4555101 71.1830521,52.7164764 C71.552535,52.3305554 71.4720803,52.3146586 71.9541321,52.1056321 C72.3395031,52.1056321 73.0619047,51.6882557 73.5598445,51.59186 C74.0898987,51.4951261 74.9890976,51.4308623 75.5347018,51.4308623 C77.2529831,51.3990686 77.8472657,52.0897353 79.1156095,52.2182629 C79.43709,48.3942289 84.222113,46.6269746 87.1289596,45.1648042 C90.5330699,43.4618136 93.776947,41.8711156 97.0526004,40.15189 C100.087904,38.561192 98.7228793,39.4290914 101.822411,37.4203405 L104.02173,35.8942445 C104.79281,35.4285011 105.467548,34.9465227 106.286292,34.3999422 L107.394402,33.6287766 C110.991536,31.4600427 109.594398,31.6846278 112.532682,29.435395 C113.753024,28.50357 116.258611,27.1377952 117.751755,26.9287688 C119.807405,26.6240231 121.541236,25.5312004 123.725343,25.1131475 C127.370479,24.4224808 126.599737,27.1056633 124.159054,27.4428791 C125.219162,27.1699271 126.214366,27.1377952 127.290024,26.7843443 C128.703051,26.3341596 131.625786,25.5149653 130.774927,28.0537234 C131.320532,27.9410926 131.609898,27.7804332 132.091612,27.6678024 C133.938012,27.1858239 133.922124,28.8570208 132.557437,29.8852415 C132.300185,30.0780329 130.004524,31.6687309 131.224527,31.1383855 L131.304644,31.0903568 C132.974584,30.4636157 133.761553,31.3633088 132.075724,32.4398965 C130.389218,33.5161459 129.200991,34.1587838 127.322139,35.0266833 C125.202936,35.9906402 123.243629,36.392458 121.027746,38.4651345 C121.05986,38.9630098 121.702145,38.7864535 122.842032,38.850379 C124.383516,38.9467747 127.322139,39.6056477 127.177794,41.5176647 C126.535509,41.5981636 125.989566,41.5014297 125.427398,41.5656935 C124.929458,41.6140604 124.543749,41.9191443 124.030935,42.0480101 C123.098946,42.2891685 121.830602,42.1603027 120.78672,42.401461 C119.00421,42.8029406 119.261124,42.5942524 117.687188,42.1281708 C116.788327,41.8552188 115.648102,41.6783242 114.812794,41.3891371 C114.170509,41.1804489 114.138395,40.9230555 113.352103,40.9551874 C111.457362,41.0356863 107.795662,43.6224731 105.980699,44.6023268 C105.435433,44.8915139 105.178181,44.8915139 105.001722,45.196936 C104.102185,45.7110464 97.2936263,53.5356707 95.4952283,55.2389995 C94.3387774,56.3311457 90.1798132,59.5287768 90.0354681,61.4083237 L90.1798132,64.3164295 C90.2440417,64.3485614 91.4968354,65.4092522 91.9464349,65.7468062 C91.9782111,65.7785999 92.0748919,65.8428637 92.1228942,65.8749956 C92.1550085,65.8912307 92.1871227,65.9071275 92.219237,65.9233626 C92.4923771,66.0840221 92.1228942,65.9071275 92.5403795,66.0681252 C92.6526103,66.1161539 92.8135196,66.1641827 92.8452958,66.1804177 L93.1988906,66.5176335 C93.9696325,67.6747201 92.8294077,67.0801109 93.6163758,68.2368592 C94.5639151,69.618869 94.0818634,71.0164374 93.4236903,71.5951497 C93.4236903,72.5587684 92.476151,73.3783009 91.8659802,73.7479868 C91.1756929,74.1657015 91.2395834,74.1819366 90.4529533,74.0693058 C89.7143256,73.9566751 89.4732997,74.0209389 88.7508981,74.1014377 C87.9000396,75.8206633 88.3330749,75.8368984 87.9318158,76.7203564 C87.1769619,78.3753182 84.3667962,81.813093 82.3916009,81.7332706 C81.9423394,88.3849115 79.8866895,89.8792139 78.5862315,93.30143 C78.3130913,94.0404636 78.136294,94.7632622 77.7830372,95.4705022 C77.5420113,95.9362456 75.8078419,98.924512 75.3903567,99.1978022 L73.367159,101.993616 C71.4403041,104.612872 69.35254,107.857856 67.4574613,110.605302 C66.8151763,111.52123 66.5907146,112.854535 65.9805439,114.027857 C65.5147183,114.911653 64.9366618,116.356912 64.583067,117.369574 L63.154152,120.840157 C63.025695,121.33837 62.0460414,124.181536 61.9338105,124.294167 L60.9220427,129.451844 C60.4562171,130.865647 61.4358707,131.541093 61.9659248,132.263892 C62.2708411,132.665033 62.4476385,132.98669 62.8008952,133.452772 C63.2342686,134.047381 63.3951779,133.950986 63.8768916,134.368024 C64.4387219,134.593624 64.4224958,134.866237 65.1455734,135.155763 C67.1687711,135.943163 69.9627107,136.055794 72.6123052,137.324835 C75.2618997,138.609772 77.1407523,139.927857 79.0517191,142.225118 C79.3407473,142.578569 79.694004,143.141046 79.9188038,143.381867 C80.4488579,143.944344 80.5289745,143.574996 80.7537742,144.442219 C81.4440615,147.092932 81.4602877,145.390617 81.8294325,147.126078 C82.1830273,147.15821 82.407489,147.15821 82.6167387,147.270503 C82.8574265,147.39903 82.6968553,147.334428 82.8733146,147.462956 C84.1582226,148.427251 83.5480519,147.511323 84.5915959,148.330855 C85.1699904,148.780363 86.0850775,148.79626 86.5667912,148.957258 C86.935936,149.069551 87.1769619,149.374634 87.7712445,149.616131 L91.5448378,151.062066 C92.4122605,151.383385 93.3594618,151.688469 94.2265465,151.977995 C94.4513463,152.058155 94.5639151,152.122419 94.7887149,152.219153 L96.5391104,152.813086 C102.047211,154.773131 101.789621,154.982834 106.366408,157.070731 C107.265607,157.488784 107.988685,157.842235 108.855094,158.196024 C111.906285,159.384566 120.320556,160.219995 123.982595,159.705885 C126.985446,159.28817 132.316411,157.826 135.512286,157.456652 C144.922099,156.380064 154.316024,161.280686 162.104236,161.955118 C163.228235,162.051513 164.014865,162.276775 165.107087,162.421199 C166.198972,162.565624 167.291194,162.646123 168.399305,162.758753 C169.089592,162.838914 169.490513,162.758753 170.11691,162.790547 C171.000221,162.838914 170.790971,163.112204 171.273023,163.128439 C172.044103,162.919413 171.642506,163.063837 172.060329,162.469228 L173.714044,160.380993 C176.07461,157.135333 178.740431,157.215494 181.453916,159.705885 C184.601788,162.597756 183.332768,161.82659 187.748985,163.224497 C190.494584,164.108293 188.230698,163.514022 190.799838,163.802871 C191.538466,163.883032 192.85515,164.253056 193.369316,164.606507 C194.18806,164.750931 195.151826,165.409804 195.537197,166.02031 C196.291713,166.919665 195.231604,166.438363 196.74165,167.032634 C197.416049,167.305248 197.351821,167.595111 197.496166,168.398409 C198.555936,168.590862 199.021762,168.86449 198.540048,169.908608 C199.824618,170.711567 200.964843,172.157841 198.732395,172.736215 C196.805879,172.945241 194.605546,172.639819 192.56646,172.864404 C190.816064,173.057534 188.311153,172.945241 186.576645,173.041637 C182.610029,173.249987 178.515293,173.668378 174.45301,173.346383 C170.711193,173.057534 166.246974,173.410985 162.361488,173.523277 C158.410759,173.635908 154.139226,173.53985 150.22095,173.828699 C146.351014,174.117886 141.710336,173.973462 137.79206,173.925095 C133.841669,173.877066 129.554586,173.47491 125.635972,173.796906 C120.642037,174.198723 106.607096,173.877066 101.276131,173.587879 C96.9241434,173.089666 92.0586657,173.47491 88.0281585,173.025402 C83.7728516,172.55932 78.7626908,173.249987 74.4272673,173.121798 C74.4431554,173.378853 74.4752696,173.635908 74.5070458,173.860831 C74.6196147,174.535601 74.6355028,174.374941 73.9452155,174.551836 C72.8371049,174.841023 71.8256751,175.13021 70.6049956,174.937757 C69.3207638,174.744966 67.9716273,174.503469 66.6228288,174.294781 C63.7163203,173.812802 65.4024874,173.925095 62.3191815,173.925095 C58.1602173,173.925095 53.0374877,173.443116 48.8139569,173.057534 C47.3850419,172.929344 45.9240126,173.073769 44.3341883,172.864404 C43.5955606,172.768347 43.0655065,172.591452 42.3752192,172.47916 C41.8130508,172.398999 40.8976257,172.47916 40.158998,172.415234 C38.6655164,172.28603 37.2044871,172.302265 35.7268937,172.061445 C28.3723927,170.872565 10.7565443,172.302265 5.9069548,168.04462 C4.9915297,167.659037 3.9800999,166.807034 3.27324839,166.260792 C-0.580461412,163.320892 -0.22720468,161.906751 0.367077937,157.505019 C0.736222771,154.805601 1.90856186,153.809513 4.0443284,152.893585 C7.12729624,151.592074 14.450021,150.41909 17.9183598,150.13058 C25.048061,149.5035 26.8951373,149.599896 33.9927242,149.53597 C35.5020939,149.53597 41.1065373,149.760555 42.0699648,149.471368 C40.9297399,144.651246 38.7297449,139.333586 37.9590029,134.738048 C36.5780903,126.447342 36.6423188,119.185195 36.9634612,111.006782 Z" transform="translate(0 -25)"/>
</svg>
