<svg xmlns="http://www.w3.org/2000/svg" width="200" height="200" viewBox="0 0 200 200">
  <path d="M60,160 C49,160 40,169 40,180 C40,191 49,200 60,200 C71,200 80,191 80,180 C80,169 71,160 60,160 Z M0,0 L0,20 L20,20 L56,96 L42,120 C41,123 40,127 40,130 C40,141 49,150 60,150 L180,150 L180,130 L64,130 C63,130 62,129 62,128 L62,126.999608 L71,109.999608 L145,109.999608 C153,109.999608 159,105.999608 162,99.9996078 L198,35 C200,33 200,32 200,30 C200,24 196,20 190,20 L42,20 L33,0 L0,0 Z M160,160 C149,160 140,169 140,180 C140,191 149,200 160,200 C171,200 180,191 180,180 C180,169 171,160 160,160 Z"/>
</svg>
