<svg xmlns="http://www.w3.org/2000/svg" width="200" height="200" viewBox="0 0 200 200">
  <path d="M9.14518261,199.634656 L33.0930087,175.678497 L167.955061,175.678497 L190.522157,199.634656 L9.14518261,199.634656 Z M195.582609,5.83716075 L195.582609,193.36618 L175.626296,172.180793 L175.626296,27.9607516 L195.582609,5.83716075 Z M168.485983,23.9561587 L33.2524522,23.9561587 L8.78998261,0 L190.098922,0 L168.485983,23.9561587 Z M27.9482435,29.9294363 L27.9482435,169.533612 L4,193.48977 L4,6.48016701 L27.9482435,29.9294363 Z M35.9304348,161.548225 L35.9304348,100.064718 C35.5016734,54.9492989 35.5016734,32.2415745 35.9304348,31.9415449 C36.3413813,31.6539814 80.2457986,31.6539814 167.643687,31.9415449 L167.643687,36.8087683 L167.643687,163.704384 L167.643687,167.693111 L160.431583,167.693111 L41.0756174,167.693111 L35.9304348,167.693111 L35.9304348,161.548225 Z"/>
</svg>
