<svg xmlns="http://www.w3.org/2000/svg" width="200" height="200" viewBox="0 0 200 200">
  <path d="M100,0 C44.7714844,0 0,44.7714844 0,100 C0,155.228516 44.7714844,200 100,200 C155.228516,200 200,155.228516 200,100 C200,44.7714844 155.228516,0 100,0 Z M112.518359,74.3195313 C112.915234,65.0511719 121.348437,58.9 128.454687,55.3472656 C135.240234,51.9542969 141.951172,50.2574219 142.233203,50.1867188 C145.581641,49.3492188 148.975391,51.3855469 149.812109,54.734375 C150.649219,58.0832031 148.613672,61.4761719 145.264062,62.3136719 C141.821875,63.1828125 137.739844,64.6808594 134.143359,66.4835938 C136.223047,68.7160156 137.498047,71.7085938 137.498047,75.0003906 C137.498047,81.9039063 131.901953,87.5003906 124.998047,87.5003906 C118.094141,87.5003906 112.498047,81.9039063 112.498047,75.0003906 C112.499219,74.771875 112.50625,74.5449219 112.518359,74.3195313 Z M50.1871094,54.734375 C51.0246094,51.3855469 54.4175781,49.3492188 57.7664063,50.1867188 C58.0488281,50.2574219 64.7597656,51.9546875 71.5453125,55.3472656 C78.6507813,58.9003906 87.084375,65.0511719 87.48125,74.3195313 C87.4933594,74.5449219 87.5003906,74.7714844 87.5003906,75 C87.5003906,81.9035156 81.9039063,87.5 75.0003906,87.5 C68.096875,87.5 62.5003906,81.9035156 62.5003906,75 C62.5003906,71.7082031 63.775,68.715625 65.8546875,66.4832031 C62.2582031,64.6804688 58.1769531,63.1824219 54.734375,62.3132813 C51.3863281,61.4761719 49.3503906,58.0828125 50.1871094,54.734375 Z M137.519141,152.488281 C129.868359,139.764062 115.928516,131.25 100,131.25 C84.0710938,131.25 70.1320313,139.764062 62.4808594,152.488281 L46.4011719,142.840625 C57.3308594,124.662891 77.2441406,112.5 100,112.5 C122.755469,112.5 142.66875,124.662891 153.598828,142.840625 L137.519141,152.488281 Z"/>
</svg>
