<svg xmlns="http://www.w3.org/2000/svg" width="200" height="200" viewBox="0 0 200 200">
  <path d="M100,0 C44.8625,0 0,44.8625 0,100 C0,155.1375 44.8625,200 100,200 C155.1375,200 200,155.1375 200,100 C200,44.8625 155.1375,0 100,0 Z M50,75 C50,68.1125 55.6125,62.5 62.5,62.5 C69.3875,62.5 75,68.1125 75,75 C75,81.8875 69.3875,87.5 62.5,87.5 C55.6125,87.5 50,81.8875 50,75 Z M144.1875,152.15 C142.9625,153.375 141.3625,153.975 139.7625,153.975 C138.1625,153.975 136.5625,153.3625 135.3375,152.15 C116.4375,133.25 83.5125,133.25 64.625,152.15 C62.1875,154.5875 58.225,154.5875 55.7875,152.15 C53.35,149.7125 53.35,145.75 55.7875,143.3125 C67.6125,131.5125 83.3,125 100,125 C116.7,125 132.3875,131.5125 144.1875,143.3125 C146.625,145.75 146.625,149.7125 144.1875,152.15 Z M137.5,87.5 C130.6125,87.5 125,81.8875 125,75 C125,68.1125 130.6125,62.5 137.5,62.5 C144.3875,62.5 150,68.1125 150,75 C150,81.8875 144.3875,87.5 137.5,87.5 Z"/>
</svg>
