<svg xmlns="http://www.w3.org/2000/svg" width="200" height="200" viewBox="0 0 200 200">
  <path d="M193.045952,106.573995 C194.298031,110.238178 194.921225,113.400711 194.910722,116.06728 C195.162363,122.394096 193.371116,128.096364 189.540044,133.174524 C190.954048,137.835444 190.954048,142.705859 189.540044,147.780957 C188.292341,152.527162 186.041575,156.438014 182.793435,159.517886 C183.540481,168.841476 181.500656,176.375399 176.670897,182.120091 C171.337856,188.445157 163.136543,191.692975 152.055142,191.859171 L147.557987,191.859171 L138.061269,191.859171 L135.936543,191.859171 C130.440263,191.859171 124.443764,191.212319 117.945295,189.922551 C111.452954,188.630597 106.389059,187.422615 102.766302,186.300355 C99.1426696,185.178096 94.1247265,183.531444 87.7115974,181.37046 C77.4652079,177.787626 70.8844639,175.958159 67.9693654,175.874624 C65.8035011,175.791089 63.9291028,174.97979 62.347046,173.438105 C60.7641138,171.898169 59.9733042,170.046834 59.9733042,167.882351 L59.9733042,87.8415308 C59.9733042,85.7610205 60.7229759,83.9499226 62.2227571,82.4099863 C63.7225383,80.8691754 65.5137856,80.0158907 67.5947484,79.8496948 C69.5934354,79.6830615 72.7584245,77.2277358 77.0905908,72.4815308 C81.4218818,67.7362005 85.6280088,62.7000273 89.7107221,57.3730114 C95.3763676,50.1312437 99.5824945,45.1361822 102.330853,42.3895763 C103.830635,40.8903144 105.12035,38.8937768 106.204376,36.3951526 C107.286214,33.8982779 108.017068,31.8798724 108.391247,30.3399362 C108.76849,28.8 109.328228,26.2834442 110.080525,22.7854579 C110.661269,19.5398269 111.182495,17.0000911 111.6407,15.1688747 C112.099344,13.3367836 112.912035,11.1723007 114.078775,8.67455125 C115.243764,6.1781139 116.662144,4.09716629 118.32779,2.43258314 C119.912035,0.850660592 121.784683,0.0594806378 123.950109,0.0594806378 C127.784245,0.0594806378 131.218381,0.496400911 134.261707,1.37067882 C137.301969,2.244082 139.8,3.32610478 141.758862,4.61630979 C143.718162,5.90738952 145.38337,7.59077904 146.758425,9.6743508 C148.130416,11.7539863 149.130853,13.6285011 149.756674,15.2930843 C150.379869,16.9572301 150.880525,19.038615 151.257768,21.5350524 C151.629322,24.0328018 151.841575,25.9064419 151.880525,27.1550979 C151.919912,28.4028793 151.943982,30.0276629 151.943982,32.0246378 C151.943982,35.1880456 151.550109,38.3527654 150.757549,41.5144237 C149.963676,44.6778314 149.176368,47.1742688 148.385558,49.007672 C147.593435,50.8375763 146.445952,53.1700046 144.947046,55.9988337 C144.698031,56.4974214 144.280088,57.2470524 143.698906,58.2464146 C143.118162,59.2453394 142.655142,60.162041 142.325602,60.9943326 C141.992998,61.8266241 141.659519,62.825549 141.326915,63.9906697 L175.936105,63.9906697 C182.43326,63.9906697 188.055142,66.3628975 192.803063,71.1099772 C197.541357,75.8574943 199.9186,81.4757904 199.9186,87.9688018 C199.9186,95.1287836 197.627133,101.330077 193.045952,106.573995 Z M43.9824945,79.9769658 C46.1483589,79.9769658 48.0218818,80.7677084 49.604814,82.3500683 C51.1868709,83.9315535 51.9785558,85.8043189 51.9785558,87.9688018 L51.9785558,167.888036 C51.9785558,170.049895 51.1873085,171.923535 49.604814,173.50677 C48.0214442,175.086068 46.1479212,175.877686 43.9824945,175.877686 L7.99868709,175.877686 C5.83282276,175.877686 3.95842451,175.086068 2.37461707,173.50677 C0.791684902,171.923535 9.9475983e-14,170.049458 9.9475983e-14,167.888036 L9.9475983e-14,87.9688018 C9.9475983e-14,85.8043189 0.791684902,83.9311162 2.37417943,82.3500683 C3.95667396,80.7681458 5.83107221,79.9769658 7.99824945,79.9769658 L43.9824945,79.9769658 Z"/>
</svg>
