<svg xmlns="http://www.w3.org/2000/svg" width="200" height="200" viewBox="0 0 200 200">
  <path fill="#030104" d="M174.350068,79.9947334 L186.759288,54.8518762 C187.538154,53.2824226 187.475003,51.4075049 186.60141,49.8907176 C185.727818,48.363397 184.138512,47.3838051 182.380802,47.2679394 L154.42585,45.4562212 L152.615514,17.479921 C152.499737,15.720869 151.520893,14.1408822 149.994737,13.2560895 C148.468582,12.3712969 146.60562,12.3080974 145.026839,13.0980908 L119.924219,25.5273206 L104.378486,2.1961817 C102.420798,-0.732060566 97.5792022,-0.732060566 95.6215135,2.1961817 L80.0757815,25.5273206 L54.9731607,13.0980908 C53.3838543,12.3080974 51.5314177,12.3712969 50.0052626,13.2560895 C48.4791075,14.1303489 47.5002631,15.720869 47.3844858,17.479921 L45.5846753,45.4562212 L17.619198,47.2574062 C15.8614883,47.3732719 14.2721819,48.3528637 13.3985896,49.8801843 C12.5144722,51.4075049 12.4618461,53.2718894 13.2407115,54.8518762 L25.6499316,79.9842001 L2.34712136,95.5418038 C0.884117461,96.5213957 0,98.164582 0,99.923634 C0,101.682686 0.873592253,103.325872 2.34712136,104.305464 L25.6604568,119.863068 L13.2407115,144.995392 C12.4618461,146.575379 12.5249974,148.439763 13.3985896,149.967084 C14.2721819,151.483871 15.8614883,152.473996 17.619198,152.579329 L45.5741501,154.380513 L47.3739606,182.367347 C47.4897379,184.126399 48.4685823,185.706386 49.9947374,186.591178 C51.5103673,187.465438 53.3628039,187.518104 54.9626355,186.749177 L80.0757815,174.330481 L95.6215135,197.651086 C96.6003579,199.115207 98.2422903,200 100,200 C101.75771,200 103.399642,199.125741 104.378486,197.651086 L119.924219,174.330481 L145.037364,186.749177 C146.616146,187.518104 148.479107,187.465438 150.005263,186.591178 C151.531418,185.716919 152.510262,184.126399 152.626039,182.367347 L154.42585,154.391047 L182.380802,152.579329 C184.138512,152.463463 185.717293,151.483871 186.60141,149.95655 C187.475003,148.42923 187.538154,146.564845 186.759288,144.984858 L174.350068,119.863068 L197.652879,104.294931 C199.115883,103.315339 200,101.672153 200,99.9131007 C200,98.1540487 199.126408,96.5108624 197.652879,95.5312706 L174.350068,79.9947334 Z"/>
</svg>
