<svg xmlns="http://www.w3.org/2000/svg" width="200" height="200" viewBox="0 0 200 200">
  <path d="M200,74.0159988 C200,71.0470629 197.756986,69.2019638 193.267589,68.4790155 L132.933116,59.694877 L105.890228,4.93375355 C104.368784,1.64402246 102.404041,0 100.000631,0 C97.5976425,0 95.634163,1.64402246 94.1114561,4.93375355 L67.0673052,59.694877 L6.72988476,68.4790155 C2.24385623,69.2019638 0,71.0470629 0,74.0159988 C0,75.7017542 1.00194706,77.6273682 3.0054202,79.7936839 L46.7559859,122.398315 L36.4195127,182.573331 C36.259117,183.697168 36.1795506,184.501896 36.1795506,184.981192 C36.1795506,186.666104 36.5996948,188.089659 37.4408251,189.253964 C38.2815345,190.419955 39.542809,191 41.2263327,191 C42.6694732,191 44.2713256,190.520704 46.0339946,189.557054 L99.9993685,161.150875 L153.968531,189.557054 C155.65416,190.520704 157.256433,191 158.774509,191 C160.382255,191 161.601431,190.419955 162.442562,189.253964 C163.281166,188.091345 163.701731,186.666104 163.701731,184.981192 C163.701731,183.939556 163.661317,183.137357 163.580908,182.573331 L153.243593,122.398315 L196.873336,79.7936839 C198.959743,77.7074616 200,75.7810045 200,74.0159988 Z"/>
</svg>
