<svg xmlns="http://www.w3.org/2000/svg" width="200" height="200" viewBox="0 0 200 200">
  <path d="M198.668341,109.718851 C198.159647,108.367103 197.110178,107.290413 195.773136,106.750059 L145.466216,86.4049301 C143.84332,70.5457216 131.503465,57.8229819 115.846784,55.6535239 L112.926946,21.9344738 C112.749361,19.8873277 111.379093,18.1399321 109.436544,17.4841563 C107.49285,16.8278063 105.348083,17.3882592 103.970941,18.9099806 L84.9521784,39.937874 L74.6367909,3.74789273 C74.022691,1.59336487 72.0927449,0.0808311779 69.8586131,0.00273528514 C67.6330741,-0.0696182625 65.5948585,1.2993568 64.8323894,3.40679743 L1.30857524,179.074895 C0.778112154,180.542064 0.937365651,182.171167 1.7416531,183.506837 C2.5465134,184.84308 3.90990665,185.742906 5.45203045,185.955947 L106.874167,199.951764 C107.109037,199.983921 107.343908,200 107.577632,200 C108.813279,200 110.016846,199.554394 110.96091,198.730942 C112.083704,197.751872 112.729311,196.334661 112.732748,194.843374 L112.814093,157.948233 C117.712571,158.898017 122.66776,159.378077 127.595453,159.378077 C142.082366,159.378077 156.261083,155.233252 168.599219,147.390932 C181.11093,139.438358 191.432618,127.845137 198.448938,113.86425 C199.097982,112.573945 199.177036,111.070599 198.668341,109.718851 Z M119.789167,101.271861 C115.110093,101.271861 111.303477,97.455499 111.303477,92.7657258 C111.303477,88.0753783 115.110093,84.2590158 119.789167,84.2590158 C124.468241,84.2590158 128.274858,88.0753783 128.274858,92.7657258 C128.274858,97.4560732 124.468241,101.271861 119.789167,101.271861 Z"/>
</svg>
