<svg xmlns="http://www.w3.org/2000/svg" width="200" height="200" viewBox="0 0 200 200">
  <path d="M168.833737,164.491145 C174.186667,189.025101 147.510572,194.3485 135.760547,191.154171 C124.010523,187.959842 100.044101,187.427755 100.044101,187.427755 C100.044101,187.427755 76.0112631,187.960204 64.2612383,191.154171 C52.5112135,194.37061 25.8129795,189.024739 31.1437707,164.491145 C36.4745619,139.957551 59.9746115,141.022086 66.4159841,107.948292 C72.8352178,74.8744984 100.066603,77.0039303 100.066603,77.0039303 C100.066603,77.0039303 127.231209,74.8744984 133.650806,107.948292 C140.047537,141.022086 163.502946,139.957189 168.833737,164.491145 Z M124.699374,74.8523885 C139.159072,79.0224506 155.129306,67.6210187 160.393681,49.3869192 C165.657692,31.1752919 158.216796,13.0299942 143.757097,8.85993205 C129.297036,4.68950747 113.327164,16.0913018 108.06279,34.3254014 C102.798779,52.5370287 110.239675,70.6823264 124.699374,74.8523885 Z M184.626133,68.2201593 C170.699586,62.5411908 153.596631,72.1687605 146.42213,89.736665 C139.247628,107.305294 144.711979,126.138172 158.638526,131.794306 C172.565073,137.450802 189.668028,127.845705 196.84253,110.277438 C204.017031,92.7091708 198.553043,73.8987654 184.626133,68.2201593 Z M75.2784971,74.8523885 C89.7381955,70.6819639 97.1790915,52.5370287 91.9150804,34.3254014 C86.6510693,16.1137742 70.6586958,4.71197977 56.2207734,8.88240435 C41.783214,13.0524665 34.320179,31.1974017 39.5841901,49.4093915 C44.8485641,67.6210187 60.8187986,79.0224506 75.2784971,74.8523885 Z M41.3611205,131.794306 C55.2880302,126.1157 60.7520185,107.282822 53.5775169,89.736665 C46.4030153,72.1905079 29.3000603,62.5411908 15.3735135,68.2201593 C1.44696673,73.8987654 -4.01702163,92.7316432 3.15748,110.277438 C10.3316187,127.845705 27.4345737,137.472912 41.3611205,131.794306 Z"/>
</svg>
