<svg xmlns="http://www.w3.org/2000/svg" width="200" height="200" viewBox="0 0 200 200">
  <g transform="translate(0 37)">
    <path d="M199.604255 116.33009C199.600473 116.309798 196.08747 101.094 196.08747 101.094 196.053428 100.944876 196.147045 101.22991 196.08747 101.094 193.95792 94.6618652 175.371158 94.4646067 173.137589 94.4646067 170.904019 94.4646067 152.317258 94.6623371 150.18818 101.094472 150.128605 101.22991 150.222222 100.945348 150.18818 101.094472 150.18818 101.094472 146.675177 116.309798 146.671395 116.330562 146.644444 116.474022 146.627423 116.618899 146.627423 116.764719 146.627423 119.72973 149.597636 122.021326 155.456265 123.57627 160.209456 124.837685 166.488416 125.532809 173.137589 125.532809 179.786761 125.532809 186.066194 124.838157 190.819385 123.57627 196.678014 122.021798 199.648227 119.72973 199.648227 116.764719 199.648227 116.618427 199.631206 116.473551 199.604255 116.33009zM191.088416 102.193079C189.12435 103.464876 182.658156 105.202921 173.137589 105.202921 163.616548 105.202921 157.1513 103.464876 155.186761 102.192607 157.1513 100.920809 163.617494 99.183236 173.137589 99.183236 182.658156 99.1837079 189.124823 100.921281 191.088416 102.193079zM171.930024 66.5100674C174.299764 66.5100674 176.704965 66.2467416 179.079433 65.7285843 180.241608 65.4746966 181.243972 64.7470112 181.844444 63.7220225 182.443972 62.6970337 182.586761 61.4677079 182.237825 60.332764L177.052009 43.4832135C180.478014 39.2761348 181.253901 33.4810787 179.123404 28.5453708L186.345154 21.5809213C187.562175 20.4077528 187.966903 18.6262921 187.376359 17.0435056 186.785816 15.4607191 185.312057 14.3781573 183.622695 14.2856629L178.089835 13.9822247 183.128605 6.80164045C184.186761 5.29294382 184.150827 3.27552809 183.038771 1.806 181.926714.33647191 179.993381-.252 178.2487.352516854L113.75792 22.669618C113.15792 22.7106742 43.6959811 26.5265393 43.6619385 26.5288989 28.8841608 27.4165618 14.901182 19.5262247 8.0250591 6.43260674 6.93427896 4.35525843 4.36264775 3.55301124 2.28085106 4.64217978.199527187 5.73134831-.603782506 8.29806742.486997636 10.3754157 6.65437352 22.1203146 17.4921986 30.4419775 29.9579196 33.6391685 28.5002364 35.458382 26.0406619 39.1057753 24.5423168 44.5100899 22.7413712 51.0078202 22.0813239 61.3365169 28.6004728 74.4258876L18.0799054 88.6888989C17.3829787 89.6336629 17.108747 90.8238202 17.3219858 91.9771685L22.0236407 117.423506C22.3957447 119.43809 24.1560284 120.900539 26.2085106 120.900539L30.9976359 120.900539C32.2595745 120.900539 33.4562648 120.341326 34.2647754 119.374382 35.0732861 118.407438 35.4099291 117.131865 35.1839243 115.892629L32.2562648 99.8396629 63.5555556 76.3880899C63.6179669 76.3413708 63.4959811 76.4381124 63.5555556 76.3880899 66.1427896 74.2187191 68.1304965 71.8648315 69.6425532 69.4335506 81.5219858 72.1116404 96.3820331 75.2993933 108.266194 77.332382L114.565012 117.312607C114.890307 119.378157 116.673759 120.900067 118.768794 120.900067L122.70922 120.900067C125.059574 120.900067 126.964539 118.998742 126.964539 116.652876L126.964539 75.9562921C131.010402 73.1135056 132.10591 67.8427416 132.764539 64.7371011 132.795272 64.5917528 132.749409 64.8815056 132.764539 64.7371011 132.776832 64.6771685 132.75461 64.7979775 132.764539 64.7371011L134.520095 53.817573 144.187707 48.2141124C148.809929 59.3540225 159.36974 66.5105393 171.930024 66.5100674z"/>
  </g>
</svg>
