<svg xmlns="http://www.w3.org/2000/svg" width="200" height="200" viewBox="0 0 200 200">
  <path d="M88.0642449,66.8305628 C94.6600595,86.450889 82.9012189,97.9283174 89.6001457,117.854483 C94.8932414,133.600165 87.3047187,149.006925 71.5865024,154.309496 C55.869634,159.613419 42.1085287,153.105042 34.0583596,136.592398 C30.0571998,128.386037 18.6366753,100.896245 16.048086,91.1276035 C10.1248599,68.7769996 21.1086737,49.82574 40.7134806,43.2113655 C60.3182875,36.5976662 81.4610171,47.1920077 88.0642449,66.8305628 Z M70.4118314,1.08987853 C80.0531641,-2.36482741 90.6669869,2.66633707 94.1155189,12.3249306 C97.5647249,21.9841993 92.5425516,32.617024 82.8998711,36.0724051 C73.9385401,39.2827093 64.1415281,35.1602871 60.0332125,26.8080949 C58.5242691,30.4214594 55.562993,33.410992 51.5921603,34.8335179 C46.0106199,36.8326159 40.0139347,35.1737899 36.2082164,31.0979526 C35.9083148,35.1731148 33.2759196,38.8884259 29.1898438,40.3528107 C26.2804608,41.3959064 23.2221379,41.0799395 20.6840938,39.7499081 C21.8095674,43.9297175 19.5640117,48.3411008 15.4253689,49.8243897 C13.414343,50.5447671 11.3136835,50.4394448 9.47720711,49.6954374 C9.61132043,49.9378137 9.73195503,50.1903171 9.82832792,50.459024 C10.7698169,53.0941065 9.39970443,55.9965456 6.76730925,56.9403953 C4.13558801,57.8828947 1.23833586,56.5103293 0.296172916,53.8732213 C-0.643294284,51.2367885 0.726144274,48.3343494 3.35853945,47.39185 C4.27711463,47.0617052 5.22601694,47.0205214 6.11426498,47.2109117 C5.53131008,46.4918846 5.05146744,45.6709109 4.72326046,44.7500161 C3.16646761,40.3899436 5.43291538,35.5903531 9.7872178,34.0294228 C11.7827432,33.3144465 13.8665542,33.4123423 15.6922476,34.1394711 C15.6625945,34.0625048 15.625528,33.9889142 15.5972226,33.9105977 C13.6205675,28.3717258 16.5002973,22.2751859 22.0285967,20.2943168 C25.6772878,18.9879154 29.5605088,19.8095642 32.3526269,22.1036996 C31.9765704,15.8599786 35.7088296,9.85863381 41.8854558,7.6461907 C48.3181778,5.34192817 55.3021796,7.89936927 58.8470846,13.4166366 C60.451053,7.88586641 64.5849782,3.17742021 70.4118314,1.08987853 Z M159.287181,87.0956505 C178.891988,93.7100249 189.875128,112.661285 183.953249,135.011213 C181.36466,144.779855 169.943462,172.269646 165.942976,180.476008 C157.892133,196.988651 144.131027,203.496353 128.414159,198.193106 C112.695269,192.890534 105.10742,177.483775 110.400516,161.738093 C117.099442,141.812602 105.340602,130.335174 111.936416,110.714848 C118.539644,91.0762927 139.682374,80.4819511 159.287181,87.0956505 Z M196.641448,91.2754598 C199.274517,92.2179592 200.643956,95.1210735 199.703141,97.7568311 C198.760978,100.393939 195.863052,101.766504 193.232004,100.824005 C190.599609,99.8794802 189.229497,96.9770411 190.170986,94.3426338 C190.267358,94.0739269 190.388667,93.8207483 190.52278,93.5790472 C188.686978,94.3223795 186.585644,94.4277018 184.574619,93.7079995 C180.435976,92.2247107 178.19042,87.8126522 179.315894,83.6335179 C176.77785,84.9635494 173.719527,85.2795162 170.810144,84.2370957 C166.724068,82.7727108 164.091673,79.0573997 163.791771,74.9822375 C159.986053,79.0580749 153.989368,80.7169009 148.407827,78.7178029 C144.437668,77.2946018 141.475718,74.3057444 139.966775,70.6923799 C135.858459,79.044572 126.061447,83.1669942 117.100116,79.95669 C107.457436,76.5013089 102.435263,65.8684843 105.883795,56.2092156 C109.332327,46.5499469 119.946149,41.5187824 129.588156,44.9734883 C135.414335,47.06103 139.548934,51.7701514 141.152903,57.3002464 C144.697808,51.7829791 151.68181,49.225538 158.114532,51.5298005 C164.291832,53.7422436 168.024091,59.7435884 167.647361,65.9873094 C170.439479,63.6924989 174.3227,62.87085 177.971391,64.1779266 C183.49969,66.1594708 186.37942,72.2553356 184.402765,77.7942075 C184.374459,77.8731992 184.337393,77.9461146 184.30774,78.0230809 C186.133433,77.2959521 188.217244,77.1980563 190.21277,77.9130326 C194.567072,79.4739629 196.834194,84.2735534 195.276727,88.6336259 C194.94852,89.5551958 194.468677,90.3761695 193.885722,91.0945215 C194.77397,90.9041312 195.723547,90.9459901 196.641448,91.2754598 Z"/>
</svg>
