<svg xmlns="http://www.w3.org/2000/svg" width="200" height="200" viewBox="0 0 200 200">
  <path fill="#010002" d="M101.769919,83.9564163 L101.769919,94.8210773 L80.6495935,94.8210773 L80.6495935,193.603996 L8.70081301,193.603996 L8.70081301,94.8210773 L0,94.8210773 L0,83.9564163 L101.769919,83.9564163 Z M154.397561,133.283388 C140.421138,132.515627 123.091463,132.817378 120.471951,138.486567 C117.310163,145.005039 110.385772,165.594682 105.373984,185.459556 C104.131707,190.392618 99.6813008,193.686734 94.801626,193.686734 C93.9191057,193.686734 93.0227642,193.575605 92.1345528,193.352942 C86.295122,191.882717 82.746748,185.971397 84.2166667,180.14606 C87.0605691,168.868925 96.8121951,132.108019 102.814228,122.989783 C107.252033,116.279878 118.573984,112.585861 136.545528,111.93815 L139.976423,81.1510236 L140.023171,80.4696502 C134.150813,81.9309528 127.903659,82.6991202 120.949593,82.6991202 C113.297561,82.6991202 105.002439,81.8214464 96.0837398,80.0470365 C90.7308943,78.9856352 87.2536585,73.7978691 88.3170732,68.4588219 C89.3800813,63.1209914 94.5829268,59.6350365 99.9349593,60.7094163 C121.20935,64.924603 137.213008,63.3395987 147.536179,56.0038841 C147.536179,56.0038841 153.080894,52.0438069 158.693902,51.390824 C158.693902,51.390824 161.097967,50.9515815 163.540244,51.2764506 C165.883333,51.5952361 168.445528,52.4266738 168.445528,52.4266738 L168.503659,52.4453305 C175.689024,55.0726738 182.881707,61.9399442 181.877642,70.9397511 L176.493902,119.243852 C175.319106,129.734569 167.743902,133.681262 154.471951,133.295556 C154.45,133.295556 154.41626,133.283388 154.397561,133.283388 Z M160.928049,50.0499785 C148.736251,50.0499785 138.852846,40.189055 138.852846,28.0249893 C138.852846,15.8609236 148.736251,6 160.928049,6 C173.119847,6 183.003252,15.8609236 183.003252,28.0249893 C183.003252,40.189055 173.119847,50.0499785 160.928049,50.0499785 Z M197.010569,111.917466 C195.296748,130.079717 190.791463,149.277006 171.374797,149.800609 L171.374797,178.201712 L177.577642,178.201712 C185.706911,178.201712 192.574797,185.320442 192.574797,193.745543 C192.574797,194.183974 192.218699,194.538856 191.779675,194.538856 L183.945122,194.538856 C183.506098,194.538856 183.149593,194.183974 183.149593,193.745543 C183.149593,190.646105 180.598374,188.027685 177.578049,188.027685 L151.829675,188.027685 C148.810976,188.027685 146.261382,190.646105 146.261382,193.745543 C146.261382,194.183974 145.905285,194.538856 145.465854,194.538856 L137.634146,194.538856 C137.195122,194.538856 136.839024,194.183974 136.839024,193.745543 C136.839024,185.320442 143.705285,178.201712 151.832927,178.201712 L158.041463,178.201712 L158.041463,151.2465 L138.267073,151.247311 C137.827642,151.247311 137.471545,150.892024 137.471545,150.453592 L137.471545,138.72667 C137.471545,138.516174 137.555691,138.31379 137.704472,138.164942 C137.854065,138.0165 138.055691,137.932951 138.267073,137.932951 C138.267073,137.932951 138.267073,137.932951 138.26748,137.932951 C138.26748,137.932951 159.770732,137.981215 160.05,137.981215 C179.747967,137.981215 183.203252,123.590446 183.562195,111.889481 L186.288211,73.9373884 C186.303659,73.5099077 186.654878,73.1716545 187.083333,73.1716545 L199.147967,73.1716545 C199.363821,73.1716545 199.569919,73.2592597 199.719919,73.414191 C199.869512,73.5691223 199.950407,73.7779957 199.942683,73.9929528 L197.010569,111.917466 Z M82.7373984,72.3750966 C83.0743902,72.3750966 83.3471545,72.6472403 83.347561,72.9830601 L83.347561,79.9367189 C83.347561,80.2729442 83.0747967,80.545088 82.7378049,80.545088 L39.6613821,80.545088 C39.3865854,80.545088 39.1455285,80.3613605 39.0731707,80.0969227 L24.9304878,28.3904163 C24.8878049,28.2346738 24.9089431,28.0687918 24.9894309,27.9284614 C25.0695122,27.7885365 25.2020325,27.6859249 25.3581301,27.6433391 L32.0865854,25.8117425 C32.4113821,25.7221094 32.7463415,25.9139485 32.8353659,26.238412 L45.454065,72.3750966 L82.7373984,72.3750966 Z"/>
</svg>
