<svg xmlns="http://www.w3.org/2000/svg" width="200" height="200" viewBox="0 0 200 200">
  <path d="M186.956275,38.8484719 L172.398101,38.8484719 C174.31841,35.8040821 175.585595,32.386774 175.946922,28.7726372 C177.101217,17.2223474 171.028963,6.86829147 160.691092,2.27783682 C151.188767,-1.94165619 140.510272,-0.216762824 132.820834,6.76968141 L114.438058,23.4590421 C110.857987,19.5365532 105.711512,17.0713018 99.9998047,17.0713018 C94.2779409,17.0713018 89.1232634,19.5443794 85.542411,23.4789989 L67.136197,6.76772486 C59.4342589,-0.218719373 48.760061,-1.93696047 39.2620327,2.28018468 C28.9268966,6.87103063 22.853471,17.2286083 24.0112812,28.7785069 C24.3733899,32.3899045 25.6397937,35.8056473 27.5597118,38.8484719 L13.0433339,38.8484719 C5.83944172,38.8484719 0,44.6985526 0,51.9146957 L0,71.514227 C0,75.1221029 2.91991617,78.0475345 6.52186226,78.0475345 L193.478138,78.0475345 C197.079693,78.0475345 200,75.1224942 200,71.514227 L200,51.9146957 C199.999609,44.6985526 194.160168,38.8484719 186.956275,38.8484719 Z M80.4346085,36.6708332 L80.4346085,38.8484719 L49.7538091,38.8484719 C41.6475749,38.8484719 35.2678999,31.2781935 37.2925053,22.8235551 C38.1843004,19.1002429 40.8671077,15.9263295 44.3370228,14.3196117 C49.1018572,12.1134073 54.3799719,12.821678 58.3819172,16.4502933 L80.4400773,36.4783088 C80.4389054,36.5428749 80.4346085,36.606267 80.4346085,36.6708332 Z M105.859168,91.1137583 L186.955885,91.1137583 L186.955885,186.933776 C186.955885,194.150311 180.548877,200 172.6448,200 L105.859168,200 L29.4224834,200 C20.3762052,200 13.0433339,194.150311 13.0433339,186.933776 L13.0433339,91.1137583 L105.859168,91.1137583 Z M163.00515,27.0379611 C162.519214,33.8283591 156.396179,38.8492545 149.600489,38.8492545 L119.565001,38.8492545 L119.565001,36.6716158 C119.565001,36.5945277 119.560313,36.5182223 119.559532,36.4411343 C124.556397,31.9035065 135.396611,22.0612837 141.275896,16.7226448 C144.617296,13.6888204 149.292677,12.2726704 153.614544,13.5639926 C159.816485,15.4172355 163.458665,20.7006997 163.00515,27.0379611 Z"/>
</svg>
