<svg xmlns="http://www.w3.org/2000/svg" width="200" height="200" viewBox="0 0 200 200">
  <path d="M27.411822,73.5206232 C36.2795277,58.0557011 52.3643426,48.2904527 69.386937,48.0393051 C69.5563128,48.0360264 69.7283044,48.0340592 69.9029119,48.0340592 C77.2240008,48.0340592 84.1396341,50.7855353 90.2410865,53.2137327 C94.8037696,55.0288151 98.7438822,56.5966844 101.780221,56.5966844 C104.482386,56.5966844 108.400264,55.0478315 112.936135,53.2543884 C119.507131,50.656355 127.686216,47.4229115 136.224326,47.4229115 C137.317748,47.4229115 138.406593,47.4760263 139.461431,47.5816001 C146.730857,47.8950428 164.786709,50.5002894 176.567155,67.7868512 C176.81566,68.1514414 176.907215,68.6025891 176.819584,69.0360318 C176.731953,69.4701303 176.473639,69.8498025 176.102843,70.0891469 L175.943277,70.188819 C172.520447,72.3120983 155.453384,84.0268554 155.67246,106.148828 C155.90854,133.377688 178.366855,143.367854 180.927111,144.417691 C180.948691,144.426871 181.025859,144.459002 181.046786,144.468838 C181.806034,144.818346 182.180099,145.685232 181.915245,146.47933 L181.859005,146.657035 C180.46803,151.125233 176.345463,162.817695 168.12714,174.860321 C160.251492,186.394095 151.32493,199.468197 136.786078,199.739672 C129.99012,199.867541 125.390815,197.863606 120.925572,195.926556 C116.394933,193.960654 111.709959,191.927211 104.368597,191.927211 C96.6518623,191.927211 91.7321167,194.028851 86.9752073,196.061638 C82.7381966,197.870819 78.3560066,199.742951 72.29183,199.985574 C72.042017,199.99541 71.7980897,200 71.5548164,200 C58.647596,200 49.2240238,187.883931 39.9162026,174.386223 C21.26917,147.388183 10.5494479,102.861614 27.411822,73.5206232 Z M139.476472,0.00125995767 C140.322697,-0.0321826739 141.074098,0.603883064 141.168268,1.46027673 C142.363708,12.3888041 138.411824,24.589463 130.596341,34.0963507 C123.170619,43.0996317 112.297216,48.6911086 102.217721,48.6911086 C101.510136,48.6904528 100.799934,48.6629118 100.10412,48.6084856 C99.3344086,48.5488134 98.7118382,47.9566821 98.6104743,47.1894688 C96.9938837,34.9271706 103.129996,22.7619216 109.411288,15.4655262 C116.80235,6.78486826 129.168091,0.422243673 139.476472,0.00125995767 Z"/>
</svg>
