<svg xmlns="http://www.w3.org/2000/svg" width="200" height="200" viewBox="0 0 200 200">
  <path d="M40.8288889,18.745225 C53.4288889,13.7145 64.4822222,11.1869 74.5977778,11 C79.9088889,11 84.9222222,11.571825 89.6755556,12.67765 C96.9111111,14.526625 106.924444,19.955625 110.74,22.136125 L92.6244444,83.8999 C83.3933333,78.005875 72.2533333,72.28095 57.1888889,72.127425 L57.1755556,72.127425 C47.1288889,72.127425 36.2133333,74.44365 23.5644444,79.198475 L40.8288889,18.745225 Z M69.2,166.8657 C73.68,151.702325 84.4377778,115.08105 87.6488889,104.13405 C85.32,102.716725 82.9466667,101.2994 80.5177778,99.98665 C71.1955556,95.214025 62.1377778,92.79545 53.5844444,92.79545 C52.4244444,92.79545 51.26,92.83105 50.0822222,92.9334 C39.1666667,93.8323 29.2044444,96.704775 22.7866667,98.934225 C21.0844444,99.555 19.3511111,100.211375 17.5488889,100.93895 L0,161.53905 C12.06,157.0935 22.7155556,154.933025 32.4822222,154.933025 C48.2733333,154.933025 59.7266667,160.8137 69.2,166.8657 Z M176.035556,121.700425 C164.584444,125.3828 153.6,127.249575 143.326667,127.249575 C124.586667,127.249575 111.466667,121.197575 103.188889,115.3881 L85.5266667,176.5311 C90.7688889,179.5215 108.393333,189 121.897778,189 C132.795556,189 144.995556,186.2143 159.168889,180.4738 L176.035556,121.700425 Z M200,38.908175 C188.511111,43.353725 177.302222,45.618775 166.595556,45.618775 C148.688889,45.618775 135.484444,39.43105 126.928889,33.4814 L108.968889,95.4165 C121.031111,103.14615 134.026667,107.068825 147.666667,107.068825 C158.788889,107.068825 170.306667,104.407725 181.935556,99.15005 L181.9,98.720625 L182.628889,98.54485 L200,38.908175 Z"/>
</svg>
