<svg xmlns="http://www.w3.org/2000/svg" width="200" height="200" viewBox="0 0 200 200">
  <g transform="translate(18)">
    <path d="M82.0255584 54.4680851C92.0670442 54.4680851 100.200592 46.3434043 100.200592 36.3119149 100.200592 32.9076596 99.2464104 29.6851064 97.6106701 26.9617021L82.0255584 0 66.4404468 26.9617021C64.8047065 29.6851064 63.8505247 32.9076596 63.8505247 36.3119149 63.8505247 46.3434043 71.9840727 54.4680851 82.0255584 54.4680851zM136.311688 80.5884147L90.8743169 80.5884147 90.8743169 62 72.6992831 62 72.6992831 80.5884147 27.2623377 80.5884147C12.2224727 80.5884147 0 93.0888807 0 108.470819L0 122.783641C0 132.821307 7.99681039 141 17.8112519 141 22.582161 141 27.0348675 139.094848 30.3975065 135.655727L49.8444987 115.812604 69.2463377 135.609111C75.9711896 142.486916 87.6939948 142.486916 94.4184208 135.609111L113.865413 115.812604 133.267252 135.609111C136.629465 139.047796 141.082597 140.953384 145.853506 140.953384 155.667948 140.953384 163.664758 132.774691 163.664758 122.737025L163.664758 108.470819C163.574026 93.0888807 151.351553 80.5884147 136.311688 80.5884147z"/>
    <path d="M123.782514,138.025235 L114.013652,127 L104.19921,138.025235 C92.3400935,151.409553 71.6207169,151.409553 59.7616,138.025235 L49.9923117,127 L40.1778701,138.025235 C34.3164675,144.742874 26.4559688,148.4351 18.0497974,148.4351 C11.4612571,148.4351 5.32723117,146.076018 0.238545455,142.127548 L0.238545455,189.460148 C0.238545455,195.100888 4.3278961,199.71617 9.32584935,199.71617 L154.724842,199.71617 C159.722795,199.71617 163.812145,195.100888 163.812145,189.460148 L163.812145,142.128029 C158.723034,146.076499 152.634587,148.435581 146.000894,148.435581 C137.595148,148.435581 129.734649,144.743355 123.782514,138.025235 Z"/>
  </g>
</svg>
