<svg xmlns="http://www.w3.org/2000/svg" width="200" height="200" viewBox="0 0 200 200">
  <path d="M155.95948,68.5933594 C155.413295,67.4199219 154.236987,66.6667969 152.941213,66.6667969 L113.462857,66.6667969 L152.424699,5.11679687 C153.074343,4.09023437 153.114165,2.79023437 152.528158,1.72695312 C151.941761,0.66015625 150.822062,0 149.609446,0 L96.3054664,0 C95.0428774,0 93.8899938,0.71328125 93.323898,1.84335938 L43.3512952,101.843359 C42.8347815,102.873437 42.8913911,104.1 43.4976993,105.083203 C44.1075212,106.066406 45.1768569,106.666406 46.3328637,106.666406 L80.5906445,106.666406 L43.2611103,195.373047 C42.6247404,196.889844 43.1912267,198.649609 44.5935829,199.509766 C45.1331308,199.839844 45.7328021,199.999609 46.32935,199.999609 C47.2854664,199.999609 48.2283089,199.589453 48.8814664,198.816406 L155.489816,72.1496094 C156.325686,71.1566406 156.505665,69.7699219 155.95948,68.5933594 Z"/>
</svg>
