<svg xmlns="http://www.w3.org/2000/svg" width="200" height="200" viewBox="0 0 200 200">
  <path d="M98.173913,34.5391304 C92.873913,34.5391304 88.5782609,30.2434783 88.5782609,24.9478261 L88.5782609,9.59565217 C88.5782609,4.29565217 92.873913,0 98.173913,0 C103.473913,0 107.769565,4.29565217 107.769565,9.59565217 L107.769565,24.9478261 C107.769565,30.2434783 103.469565,34.5391304 98.173913,34.5391304 Z M98.173913,161.804348 C103.469565,161.804348 107.769565,166.1 107.769565,171.4 L107.769565,186.747826 C107.769565,192.052174 103.473913,196.347826 98.173913,196.347826 C92.873913,196.347826 88.5782609,192.052174 88.5782609,186.747826 L88.5782609,171.4 C88.5782609,166.1 92.873913,161.804348 98.173913,161.804348 Z M143.165217,53.1782609 C139.421739,49.4304348 139.421739,43.3565217 143.165217,39.6086957 L154.021739,28.7521739 C157.765217,25.0086957 163.843478,25.0086957 167.591304,28.7521739 C171.33913,32.5 171.33913,38.5782609 167.591304,42.3217391 L156.734783,53.1782609 C152.991304,56.926087 146.917391,56.926087 143.165217,53.1782609 Z M53.1782609,143.173913 C56.926087,146.913043 56.926087,152.991304 53.1782609,156.734783 L42.3217391,167.595652 C38.5782609,171.33913 32.5,171.33913 28.7521739,167.595652 C25.0043478,163.852174 25.0086957,157.769565 28.7521739,154.026087 L39.6086957,143.173913 C43.3565217,139.421739 49.4304348,139.421739 53.1782609,143.173913 Z M161.804348,98.173913 C161.804348,92.873913 166.1,88.5782609 171.4,88.5782609 L186.752174,88.5782609 C192.052174,88.5782609 196.347826,92.873913 196.347826,98.173913 C196.347826,103.473913 192.052174,107.765217 186.752174,107.765217 L171.4,107.765217 C166.1,107.765217 161.804348,103.473913 161.804348,98.173913 Z M34.5391304,98.173913 C34.5391304,103.473913 30.2434783,107.765217 24.9478261,107.765217 L9.59565217,107.765217 C4.29565217,107.765217 4.26325641e-14,103.473913 4.26325641e-14,98.173913 C4.26325641e-14,92.873913 4.29565217,88.5782609 9.59565217,88.5782609 L24.9434783,88.5782609 C30.2434783,88.5782609 34.5391304,92.873913 34.5391304,98.173913 Z M143.165217,143.173913 C146.913043,139.430435 152.991304,139.430435 156.734783,143.173913 L167.591304,154.030435 C171.33913,157.769565 171.33913,163.852174 167.591304,167.595652 C163.843478,171.33913 157.769565,171.33913 154.021739,167.595652 L143.165217,156.73913 C139.417391,152.991304 139.417391,146.917391 143.165217,143.173913 Z M53.1782609,53.1782609 C49.4304348,56.9304348 43.3565217,56.9304348 39.6086957,53.1782609 L28.7521739,42.3217391 C25.0043478,38.5782609 25.0043478,32.5 28.7521739,28.7565217 C32.5,25.0086957 38.573913,25.0086957 42.3217391,28.7565217 L53.1782609,39.6086957 C56.926087,43.3565217 56.926087,49.4304348 53.1782609,53.1782609 Z M100.175645,46 C130.043855,46 154.35129,70.3026455 154.35129,100.180435 C154.35129,130.058224 130.043855,154.36087 100.175645,154.36087 C70.3026455,154.36087 46,130.053434 46,100.180435 C46,70.3074352 70.3026455,46 100.175645,46 Z"/>
</svg>
