<svg xmlns="http://www.w3.org/2000/svg" width="200" height="200" viewBox="0 0 200 200">
  <path d="M186.548394,40.3109299 C194.744479,29.3399674 199.650188,17.949429 199.674005,9.81174551 C199.663891,7.17650897 199.135343,5.11712887 198.129797,3.58303426 C198.024087,3.3954323 197.734364,2.90440457 197.223108,2.42055465 C196.714788,1.91615008 196.258018,1.64665579 196.15916,1.59216966 C194.550025,0.518107667 192.480857,0 189.844968,0 C181.727513,0.0137030995 170.333712,4.91615008 159.359487,13.1256117 C150.489014,19.7634584 141.617888,29.1115824 129.337627,42.0564437 C127.25443,44.251876 125.06226,46.5601958 122.743826,48.9807504 L98.9575291,41.851876 L99.028981,41.7836868 C100.017562,40.7846656 100.580368,39.4107667 100.566664,38.0606852 C100.580368,36.6355628 100.004185,35.2616639 99.0120152,34.2730832 L94.7164198,29.9706362 C93.7242501,28.971615 92.3536139,28.3990212 90.9356694,28.3990212 C89.5036955,28.3990212 88.167317,28.9513866 87.1682958,29.960522 L80.7418684,36.3905383 L77.3392583,35.3745514 C78.0723741,34.4437194 78.4779206,33.2812398 78.4642175,32.1357259 C78.4779206,30.6900489 77.9187036,29.3435563 76.9131571,28.3445351 L72.5970071,24.028385 C71.611689,23.0398042 70.2479043,22.4737357 68.8162567,22.4737357 C67.3911343,22.4737357 66.0580185,23.02969 65.0694377,24.0352365 L59.1715584,29.9298532 L34.9862403,22.685155 C34.4443154,22.5249592 33.8713953,22.4398042 33.2576922,22.4398042 C31.5395845,22.4603589 29.9474149,23.0978793 28.7849353,24.2502447 L20.282162,32.7562806 C19.3170723,33.721044 18.7751474,35.0267537 18.7855878,36.2642741 C18.754919,38.0880914 19.7640544,39.7722675 21.3800413,40.6381729 L72.2394214,69.0508972 C72.4883611,69.1905383 73.2077738,69.7226754 73.4736792,69.9885808 L87.9731898,84.4848287 C74.4110364,98.7729201 62.3284916,112.611419 52.9125046,124.649266 C52.0328961,125.7677 51.2009222,126.858401 50.3826514,127.939315 L11.036485,124.366395 C10.8456204,124.342577 10.6306123,124.325285 10.3578553,124.325285 C8.55426644,124.362806 6.79178683,125.075693 5.48281457,126.340294 L1.51772484,130.301794 C0.539258285,131.260033 -0.0131071313,132.555302 0.00059596817,133.806525 C-0.0300728736,135.715824 1.12555519,137.481566 2.86095486,138.255465 L30.5405633,151.401631 C30.7790625,151.521044 31.3996172,151.960848 31.6009222,152.161827 L33.8988015,154.442741 C33.1793888,156.467863 32.8146253,158.223491 32.7940707,159.764763 C32.7872191,161.82708 33.4521457,163.593148 34.7239239,164.864927 L34.8227819,164.950408 L34.8498619,164.970636 C36.1555715,166.235563 37.8465992,166.879935 39.9399108,166.879935 C41.4469255,166.856117 43.1855878,166.498206 45.2175617,165.782382 L47.5493725,168.11093 C47.7301229,168.301794 48.1630756,168.908646 48.2756368,169.150734 L61.3943969,196.769331 C62.195702,198.531811 63.9239239,199.673736 65.8058162,199.673736 L65.8328961,199.673736 C67.1353431,199.673736 68.3797151,199.152039 69.3307754,198.197716 L73.3911343,194.123654 C74.5943969,192.855465 75.3036955,191.106688 75.3307754,189.262316 C75.3307754,189.03752 75.3206612,188.863295 75.3138097,188.7677 L71.7307754,149.278303 C72.8081,148.466884 73.8991278,147.631648 75.0204981,146.758891 C87.0756368,137.328874 100.917399,125.235889 115.178084,111.69429 L129.688035,126.217945 C129.923271,126.442741 130.472048,127.16248 130.63257,127.462316 L158.990808,178.22969 C159.856713,179.869494 161.523924,180.882219 163.371885,180.882219 C164.691297,180.882219 165.945784,180.360522 166.907284,179.392496 L175.471069,170.83491 C176.582651,169.672757 177.206469,168.093964 177.223434,166.369005 C177.223434,165.78956 177.141868,165.22708 176.991787,164.698532 L169.747089,140.506362 L175.641379,134.601631 C176.633549,133.615987 177.196355,132.245677 177.196355,130.837847 C177.196355,129.422838 176.647252,128.093312 175.648557,127.080587 L171.325555,122.761175 C170.336974,121.769005 168.969601,121.203263 167.561771,121.203263 C166.368622,121.203263 165.20288,121.602284 164.292276,122.321697 L163.279552,118.93279 L169.712831,112.499511 C170.701412,111.507341 171.264218,110.136705 171.264218,108.725285 C171.264218,107.303752 170.715115,105.970962 169.712831,104.971941 L165.410058,100.669168 C164.417888,99.6632953 163.040726,99.0939641 161.625718,99.0939641 C160.204185,99.0939641 158.826697,99.6701468 157.855082,100.662316 L157.81071,100.7031 L150.685098,76.9200653 C153.146762,74.5745514 155.481836,72.3412724 157.715115,70.2378467 C170.613973,57.9980424 179.927839,49.1611746 186.548394,40.3109299 Z"/>
</svg>
