<svg xmlns="http://www.w3.org/2000/svg" width="200" height="200" viewBox="0 0 200 200">
  <path d="M151.316742,103.370857 L96.9979006,48.8590703 C97.068989,47.5686394 97.1986208,46.2803068 97.3658875,44.9972198 C97.4505663,44.348857 97.5488356,43.7015433 97.657559,43.0563278 C97.7924178,42.2684306 97.9095046,41.6525908 98.0380909,41.0388493 C98.2189481,40.194299 98.3579886,39.5920979 98.5085287,38.9919951 C98.7259755,38.148494 98.8901061,37.5431455 99.0688724,36.9409444 C99.8571171,34.3044787 100.799038,31.8537092 101.928089,29.4711332 C101.990814,29.3399918 102.048312,29.2067522 102.111037,29.07666 C102.316984,28.651762 102.535476,28.2321097 102.753969,27.8124574 C102.882555,27.5638134 103.009051,27.3151694 103.141819,27.0686236 C103.342539,26.6972313 103.553713,26.3289864 103.763842,25.9607415 C103.930063,25.6701323 104.096285,25.3805722 104.268778,25.0920612 C104.471589,24.7542411 104.679628,24.4185193 104.890802,24.0838465 C105.088386,23.7712056 105.289106,23.4585646 105.494008,23.149071 C105.698909,22.8385283 105.907993,22.5300838 106.120213,22.2237376 C106.350204,21.8922123 106.585423,21.5648835 106.823779,21.2375547 C107.029726,20.9542894 107.235673,20.6720732 107.448938,20.3919553 C107.71552,20.0415456 107.990464,19.6963815 108.266455,19.3512175 C108.46822,19.0994261 108.666849,18.8465856 108.872797,18.5979416 C109.194785,18.2108123 109.529319,17.831027 109.864898,17.4512416 C110.041573,17.2508577 110.213022,17.0473263 110.393879,16.8490406 C110.917633,16.2741169 111.453932,15.7075863 112.008003,15.1515469 C114.524323,12.6262891 117.236136,10.4168197 120.094307,8.52313858 C122.237412,7.10261548 124.464151,5.85939549 126.751525,4.79452773 C129.039943,3.72965998 131.388996,2.84104619 133.779866,2.13078464 C143.343344,-0.710261548 153.567526,-0.710261548 163.131004,2.13078464 C165.521874,2.84104619 167.871972,3.72861085 170.159345,4.79452773 C172.446718,5.85939549 174.673457,7.10261548 176.816563,8.52313858 C179.674734,10.4168197 182.386547,12.6262891 184.902866,15.1515469 C205.032378,35.3525604 205.032378,68.1043256 184.902866,88.305339 C184.348795,88.8613783 183.783224,89.3995824 183.211381,89.925197 C183.013797,90.1066966 182.809941,90.2787541 182.610266,90.4571063 C182.23287,90.7928281 181.854429,91.12855 181.469716,91.4506332 C181.221952,91.658361 180.968961,91.8576959 180.718061,92.0612273 C180.375164,92.3381978 180.031221,92.6141192 179.683097,92.8805984 C179.403971,93.0946211 179.121708,93.3012999 178.839445,93.5090278 C178.514321,93.7471805 178.18815,93.9832349 177.858844,94.2129945 C177.552537,94.4270172 177.244139,94.6368434 176.934695,94.842473 C176.627342,95.0470535 176.316853,95.2484866 176.006364,95.4457232 C175.671831,95.6586968 175.336252,95.8685229 174.997537,96.0731034 C174.713183,96.2441118 174.426739,96.4098744 174.140294,96.574588 C173.770217,96.7875615 173.401184,97.0005351 173.026925,97.2040664 C172.786479,97.3352078 172.541851,97.4590052 172.299314,97.58595 C171.876966,97.8073166 171.454617,98.0297324 171.027041,98.2374603 C170.903682,98.2983099 170.777187,98.3528647 170.653827,98.4126651 C168.270276,99.5520212 165.817727,100.500435 163.319179,101.251613 C162.591569,101.469832 161.983136,101.635595 161.373657,101.792965 C160.551959,102.002791 159.947708,102.144423 159.341366,102.274516 C158.499805,102.451819 157.883009,102.57142 157.264122,102.678431 C156.458105,102.814818 155.810991,102.914485 155.162833,102.998416 C153.884287,103.169424 152.602606,103.299516 151.316742,103.370857 Z M20.068772,192.048638 L25.6962537,197.696109 C27.217336,199.222594 29.2255828,200 31.2421929,200 C32.9608591,200 34.6847524,199.435568 36.1201104,198.289917 L140.639894,114.871429 C140.549292,114.786799 122.305713,96.4917066 85.9091585,59.9861515 C85.8032229,59.8798396 57.7456143,94.454994 1.73633285,163.711615 C-0.777895943,166.841172 -0.536404529,171.371319 2.29667657,174.214463 L8.97898445,180.919458 L20.068772,192.048638 Z"/>
</svg>
