<svg xmlns="http://www.w3.org/2000/svg" width="200" height="200" viewBox="0 0 200 200">
  <path fill="#010002" d="M170.050867,123.476923 C169.378089,121.634615 168.355467,119.984615 167.090644,118.503846 C164.8724,109.55 160.482044,99.2807692 154.100267,89.0961538 C143.881733,72.7615385 116.828378,46.4423077 106.548333,42.3846154 C106.037022,42.1769231 105.575689,42.0615385 105.145111,41.9576923 C104.795267,39.4230769 103.361289,37.0692308 99.9628,35.4538462 C94.6613111,32.9653846 89.4328667,30.5346154 84.5235111,28.8384615 C78.6261333,12.0730769 62.6755333,0 43.9261778,0 C20.1713556,0 0.849177778,19.3192308 0.849177778,43.0846154 C0.849177778,66.8461538 20.1713556,86.1769231 43.9261778,86.1769231 C63.4751778,86.1769231 80.0024444,73.0615385 85.2424222,55.1653846 C89.1522222,54.5653846 92.5238,54.7692308 94.4229556,57.6 C99.7052222,65.4615385 105.529556,91.6269231 115.202178,108.35 C112.757111,108.015385 110.235156,107.830769 107.636311,107.830769 C96.4720444,107.830769 86.4380444,111.1 79.3527333,116.338462 C73.2862,106.869231 62.6986,100.576923 50.6193556,100.576923 C34.6226222,100.576923 21.2478,111.596154 17.5456,126.457692 L16.0770222,126.469231 L16.9228,197.038462 L34.3650444,196.738462 L40.693,185.523077 C51.6881111,181.3 64.6900222,170.4 73.7206222,158.8 C85.9613333,160.596154 101.416,161.619231 107.636311,161.619231 C114.371778,161.619231 139.848911,158.65 147.126444,155.976923 C164.088133,149.780769 174.364333,135.223077 170.050867,123.476923 Z M43.9261778,55.7153846 C36.9638889,55.7153846 31.3048667,50.05 31.3048667,43.0846154 C31.3048667,36.1230769 36.9638889,30.4653846 43.9261778,30.4653846 C50.8846222,30.4653846 56.5436444,36.1269231 56.5436444,43.0846154 C56.5436444,50.0538462 50.8807778,55.7153846 43.9261778,55.7153846 Z" transform="translate(14 1)"/>
</svg>
