<svg xmlns="http://www.w3.org/2000/svg" width="200" height="200" viewBox="0 0 200 200">
  <path d="M66.111783,115.924721 C50.9670076,123.486303 36.5232127,130.674599 18.2284364,136.004315 L18.2284364,100.495993 C18.2284364,97.7321698 19.5951035,95.1482831 21.877457,93.5942869 L35.5398791,84.2938651 C36.7068729,83.4995277 38.8163506,82.8494666 40.2274621,82.8494666 L62.1617819,82.8494666 L62.1617819,69.9156382 L86.8425077,69.9156382 L86.8425077,82.8494666 L105.754604,82.8494666 C108.824213,82.8494666 111.312122,85.3404407 111.312122,88.4131 L111.312122,96.1016188 C93.925843,102.045082 79.9127673,109.035774 66.111783,115.924721 Z M62.1617819,57.1437525 L62.1617819,63.8550531 L86.8425077,63.8550531 L86.8425077,57.1437525 C86.8425077,53.7053315 84.0581932,50.9182803 80.6238786,50.9182803 L68.3797575,50.9182803 C64.9457696,50.9182803 62.1617819,53.7053315 62.1617819,57.1437525 Z M47.8274642,37.5761598 C49.6032817,37.5761598 51.2928247,37.2103982 52.8297532,36.5547754 C54.5735445,38.9727934 57.395114,40.5617954 60.6016508,40.5617954 C61.6480563,40.5617954 62.6369455,40.3524149 63.5797562,40.0425971 C63.5647235,40.2166447 63.5274686,40.3841491 63.5274686,40.5617954 C63.5274686,43.8533229 66.192502,46.5209618 69.4800846,46.5209618 C72.7676672,46.5209618 75.4327007,43.8529958 75.4327007,40.5617954 C75.4327007,37.2705951 72.7676672,34.602629 69.4800846,34.602629 C69.4787774,34.602629 69.4774702,34.6029562 69.4761631,34.6029562 C69.9398887,33.4752457 70.2036142,32.2438264 70.2036142,30.9489387 C70.2036142,25.6398334 65.9045934,21.3357547 60.601324,21.3357547 C60.4248534,21.3357547 60.2604742,21.3782851 60.086618,21.3877727 C58.5915195,15.9870635 53.6980541,12 47.8274642,12 C40.7725603,12 35.0536045,17.7252491 35.0536045,24.7879163 C35.0536045,31.8505836 40.7725603,37.5761598 47.8274642,37.5761598 Z M172.860832,162.746462 C171.626191,164.628924 171.592531,167.050214 172.840898,168.923515 L180.202011,179.968666 C182.892208,183.99597 179.760507,189.354803 174.935996,188.981517 L11.2480423,176.107885 C6.79509992,175.757827 3.07287667,172.623335 1.93790903,168.297991 C0.945425099,164.514419 0,159.819388 0,155.659913 C0,147.105409 3.43496827,145.50921 10.461114,143.830894 C73.2921772,128.821581 90.5738813,92.6432412 195.411492,86.7203893 C198.134695,86.5666254 200.324892,88.948329 199.960186,91.6542453 C196.853649,114.693629 185.880444,142.899805 172.860832,162.746462 Z"/>
</svg>
