<svg xmlns="http://www.w3.org/2000/svg" width="200" height="200" viewBox="0 0 200 200">
  <path d="M41.0448355,57.0502832 C37.7220726,69.9170999 35.9312491,83.1324619 35.7100667,96.4208045 L0,96.4208045 C0.464985736,82.7776252 3.72784511,69.3764562 9.58624648,57.0502832 L41.0448355,57.0502832 Z M71.1897351,4.03490486 C59.2224266,14.0814824 49.382323,30.1657373 43.1167449,49.8923117 L13.374833,49.8923117 C26.147279,27.823647 46.8110776,11.4336285 71.1897351,4.03490486 Z M41.0448355,142.949297 L9.58624648,142.949297 C3.72784511,130.622705 0.464985736,117.221536 0,103.578776 L35.7104856,103.578776 C35.9312491,116.867119 37.7216537,130.082481 41.0448355,142.949297 Z M43.1171638,150.107688 C49.382323,169.833843 59.2224266,185.918518 71.1897351,195.964676 C46.8110776,188.565952 26.147279,172.175934 13.374833,150.107688 L43.1171638,150.107688 Z M156.883255,49.8923117 C150.617677,30.1657373 140.777573,14.0814824 128.810265,4.03490486 C153.188922,11.4336285 173.85314,27.823647 186.625167,49.8923117 L156.883255,49.8923117 Z M151.664942,57.0502832 C155.086986,69.9011616 156.926402,83.122815 157.142977,96.4208045 L103.574525,96.4208045 L103.574525,57.0502832 L151.664942,57.0502832 Z M96.4254745,200 C76.8047521,197.867624 59.8419886,178.329373 50.5003833,150.107688 L96.4254745,150.107688 L96.4254745,200 Z M103.574525,0 C123.195248,2.13237592 140.15843,21.6702073 149.499617,49.8923117 L103.574525,49.8923117 L103.574525,0 Z M157.142977,103.579195 C156.926402,116.877185 155.086986,130.098419 151.664523,142.949717 L103.574525,142.949717 L103.574525,103.579195 L157.142977,103.579195 Z M128.810265,195.964676 C140.777573,185.918518 150.617677,169.833843 156.883255,150.107688 L186.625167,150.107688 C173.852721,172.175934 153.188922,188.565952 128.810265,195.964676 Z M158.955164,142.949297 C162.278346,130.082481 164.068751,116.867119 164.289514,103.578776 L200,103.578776 C199.535014,117.221955 196.272155,130.623124 190.413754,142.949297 L158.955164,142.949297 Z M103.574525,150.107688 L149.499617,150.107688 C140.158011,178.329793 123.195248,197.867624 103.574525,200 L103.574525,150.107688 Z M158.955164,57.0502832 L190.413335,57.0502832 C196.271736,69.3768756 199.534595,82.7780446 199.999581,96.4208045 L164.289514,96.4208045 C164.068751,83.1324619 162.278346,69.9170999 158.955164,57.0502832 Z M50.5003833,49.8923117 C59.8419886,21.6702073 76.8047521,2.13237592 96.4254745,0 L96.4254745,49.8923117 L50.5003833,49.8923117 Z M48.3350578,142.949297 C44.9134331,130.098419 43.0735976,116.877185 42.8574421,103.578776 L96.4250556,103.578776 L96.4250556,142.949297 L48.3350578,142.949297 Z M42.8574421,96.4208045 C43.0735976,83.122815 44.9134331,69.9011616 48.3350578,57.0502832 L96.4254745,57.0502832 L96.4254745,96.4208045 L42.8574421,96.4208045 Z"/>
</svg>
