<svg xmlns="http://www.w3.org/2000/svg" width="200" height="200" viewBox="0 0 200 200">
  <path d="M199.966769,18.5783689 C198.161633,5.21137099 155.585177,13.5471031 155.585177,13.5471031 L151.319943,26.1252675 L121.012024,30.5443044 C117.102227,24.4063171 112.661272,19.1317296 107.789002,16.062736 C88.8710134,4.14781948 57.009559,25.7092658 57.009559,25.7092658 C57.009559,25.7092658 89.9692711,-8.78747851 66.0512151,2.1384528 C-9.5967755,40.3085706 20.7311118,46.678106 20.7311118,46.678106 L42.0013682,46.678106 L38.6187345,52.0665053 C35.2400945,50.6065749 31.5100119,49.7863451 27.5802462,49.7863451 C12.3484103,49.7863451 0,61.9171115 0,76.8931725 C0,91.8535354 12.3524039,104 27.5802462,104 C42.8080884,104 55.1564987,91.8496109 55.1564987,76.8970971 C55.1564987,68.4946478 51.2666696,60.9909191 45.1603568,56.0185214 L48.0757318,51.371861 L59.9928263,83.5884451 L77.4890699,83.5884451 L80.0490088,83.5884451 L133.392384,83.5884451 L139.989917,83.5884451 C143.03309,95.3071344 153.819977,104 166.691557,104 C181.923393,104 194.271804,91.8574599 194.271804,76.8970971 C194.271804,61.9367342 181.939368,49.7941942 166.703538,49.7941942 C152.773637,49.7941942 141.307827,59.9391412 139.422817,73.1020628 L139.151248,73.1020628 C139.151248,73.1020628 136.747062,64.3778008 132.445885,53.6049267 C146.779147,48.9033226 201.540273,30.19502 199.966769,18.5783689 Z M27.5882335,93.9374684 C18.0234073,93.9374684 10.2557301,86.2963807 10.2557301,76.8931725 C10.2557301,67.501738 18.0313947,59.8528012 27.5882335,59.8528012 C29.5411354,59.8528012 31.414164,60.1824629 33.1713763,60.7750691 L24.3174224,74.9152022 L30.8590446,78.8750674 L39.7129986,64.7349343 C42.9278984,67.8235507 44.9247306,72.1327003 44.9247306,76.8931725 C44.9207369,86.284607 37.137085,93.9374684 27.5882335,93.9374684 Z M166.703538,59.8528012 C176.264371,59.8528012 184.036042,67.501738 184.036042,76.8931725 C184.032048,86.2963807 176.272358,93.9374684 166.699545,93.9374684 C159.546892,93.9374684 153.392655,89.6675642 150.752843,83.5845206 L171.79546,83.5845206 L171.79546,73.0981382 L149.806344,73.0981382 C151.575538,65.5198432 158.464609,59.8528012 166.703538,59.8528012 Z" transform="translate(0 48)"/>
</svg>
