<svg xmlns="http://www.w3.org/2000/svg" width="200" height="200" viewBox="0 0 200 200">
  <path fill="#fff" d="M32.333797,132.388545 C25.0387015,134.072751 17.2695733,127.481637 15.0102701,117.69552 C12.7509668,107.909402 16.844459,98.5795872 24.1395545,96.8953817 C31.433109,95.211532 39.2022372,101.802645 41.4615404,111.588763 C43.7208437,121.37488 39.6273515,130.704696 32.333797,132.388545 Z M63.8595814,125.111967 C56.5644859,126.796172 48.7953577,120.205059 46.5360545,110.418941 C44.2767512,100.632824 48.3702434,91.3030088 55.6653389,89.6188033 C62.9519589,87.9365545 70.7280216,94.526067 72.9873248,104.312185 C75.2466281,114.098302 71.1454309,123.429896 63.8595814,125.111967 Z M86.5063626,110.561512 C92.4961623,110.366512 97.398624,116.425914 97.6560115,124.367468 C97.9139321,132.300786 93.4155616,138.667622 87.4249914,138.8628 C81.4273089,139.058808 76.5333226,132.99745 76.275402,125.064132 C76.0178367,117.121807 80.5092727,110.756572 86.5063626,110.561512 Z M21.1538209,137.785823 C24.3997411,145.029307 22.65818,152.622602 17.181752,155.076412 C11.7119029,157.52708 4.87775709,153.776562 1.63183692,146.533078 C-1.61852885,139.280884 0.131685576,131.686403 5.60076422,129.235912 C11.0771922,126.782102 17.903633,130.534399 21.1538209,137.785823 Z M73.1884705,146.345101 C81.0612831,147.813591 87.7238179,153.791198 89.6378114,162.078099 C92.2120726,173.22845 85.2329287,184.394474 74.079939,186.969345 C69.6318416,187.996269 65.1835615,187.500283 61.2773731,185.830036 C58.4979317,189.043782 54.7172701,191.439569 50.2699432,192.466315 C39.1169534,195.041186 27.9492776,188.064685 25.3750164,176.914335 C23.4617934,168.627256 26.8280886,160.334311 33.2611524,155.563049 C32.5969699,145.588794 39.2546537,136.292559 49.3042872,133.972419 C59.3539207,131.652278 69.4122378,137.08932 73.1884705,146.345101 Z M134.777125,43.283365 C127.331153,42.5007618 122.131155,33.7393609 123.18099,23.7508478 C124.230825,13.7623347 131.138789,6.27353188 138.584761,7.05613507 C146.02916,7.83857294 151.229158,16.5999739 150.179323,26.588487 C149.129488,36.577 142.221524,44.0658029 134.777125,43.283365 Z M166.954923,46.6645875 C159.508951,45.8819843 154.308953,37.1205833 155.358788,27.1320703 C156.408623,17.1435572 163.316586,9.65475433 170.762558,10.4373575 C178.19988,11.2190515 183.406956,19.9811963 182.357121,29.9697094 C181.307286,39.9582225 174.391458,47.4461988 166.954923,46.6645875 Z M193.103703,40.2778368 C198.830656,42.0435487 201.493276,49.368911 199.151124,56.9615956 C196.812157,64.5466657 190.486025,69.1021011 184.758286,67.3363065 C179.023552,65.5689817 176.369582,58.2445287 178.708549,50.6594586 C181.050784,43.0659878 187.369838,38.5098085 193.103703,40.2778368 Z M113.062018,59.8034387 C107.093101,60.3398652 101.852339,54.5687002 101.140639,46.6637871 C100.428442,38.7484874 104.555823,32.1375781 110.52474,31.6011516 C116.501687,31.0639792 121.734585,36.8343176 122.446866,44.748831 C123.157778,52.6536614 119.038179,59.2661836 113.062018,59.8034387 Z M168.85853,69.7784091 C175.824327,73.7300309 180.177759,81.5510787 179.289524,90.009633 C178.093337,101.390594 167.859125,109.67609 156.47547,108.47962 C151.935378,108.002437 147.890924,106.085255 144.741329,103.234275 C141.067022,105.368034 136.712344,106.402432 132.173038,105.925331 C120.789384,104.728861 112.501465,94.4966103 113.697652,83.1156494 C114.586673,74.6571778 120.469487,67.9120028 128.105439,65.4950866 C130.724742,55.8480068 140.046264,49.2257741 150.303743,50.3038786 C160.561222,51.3819831 168.30142,59.7974748 168.85853,69.7784091 Z"/>
</svg>
