<svg xmlns="http://www.w3.org/2000/svg" width="200" height="200" viewBox="0 0 200 200">
  <path fill="#fff" d="M197.688686,148.325028 C196.632534,145.158944 193.198246,143.409455 190.037985,144.488034 L173.215356,150.080663 L162.635907,118.263622 C171.325345,113.999498 178.448482,107.209473 182.861068,98.3980088 C188.195097,87.7540882 189.060711,75.6705265 185.114226,63.8773514 L157.475513,0 L83.9827908,24.450852 L88.8911837,44.4250398 L26.0798375,30.8475496 L5.36757696,97.846428 C2.85319724,109.486984 5.01877015,121.406659 11.4724643,131.41091 C16.8064937,139.689742 24.6226343,145.669041 33.7213186,148.962649 L26.6314747,181.735866 L9.32942806,178.002837 C6.07492232,177.347803 2.84448988,179.372314 2.13816891,182.643388 C1.43133575,185.911389 3.50573742,189.126126 6.7771457,189.834423 L29.939249,194.838085 C29.9815907,194.85345 37.7449749,196.529019 53.2294018,199.864794 C53.6627212,199.959028 54.0878455,200 54.5145064,200 C57.3018876,200 59.8085844,198.062553 60.4216853,195.225779 C61.1233965,191.95573 59.0515558,188.742017 55.7801475,188.032695 L38.4658082,184.289424 L45.5300422,151.650901 C46.6896584,151.745136 47.8472257,151.840907 49.0073541,151.840907 C69.8046395,151.840907 88.0998379,137.060899 92.5805455,116.21504 L97.4914994,79.4086768 L100.715785,92.5180659 C106.782258,110.763763 123.770327,123.022478 142.982872,123.022478 C145.742082,123.022478 148.473122,122.690608 151.177527,122.179487 L161.728805,153.904341 L144.938956,159.484167 C141.762817,160.538163 140.044905,163.96544 141.099008,167.131524 C141.944647,169.669205 144.307416,171.27683 146.843308,171.27683 C147.474336,171.27683 148.121754,171.181571 148.753294,170.967494 L193.848738,155.976482 C197.026926,154.918902 198.744838,151.491112 197.688686,148.325028 Z"/>
</svg>
