<svg xmlns="http://www.w3.org/2000/svg" width="200" height="200" viewBox="0 0 200 200">
  <path fill="#fff" d="M186.592085,49.803664 C177.649522,34.4835292 165.519506,22.3535689 150.198845,13.4115029 C134.875448,4.46989287 118.14782,0 100.003192,0 C81.8603888,0 65.1295687,4.46989287 49.8070836,13.4115029 C34.4855107,22.3522007 22.3554952,34.482161 13.4129322,49.803664 C4.46991326,65.1260792 0,81.8586472 0,100 C0,118.141353 4.47128146,134.872097 13.411564,150.195424 C22.3536709,165.512366 34.4836865,177.645519 49.8052594,186.588497 C65.1277444,195.529651 81.8590206,200 100.001368,200 C118.143716,200 134.876816,195.529651 150.198389,186.588497 C165.51905,177.648711 177.648609,165.515559 186.59026,150.195424 C195.530543,134.872097 200,118.139985 200,100 C200.000456,81.8586472 195.530543,65.1237988 186.592085,49.803664 Z M112.510376,152.614392 C111.637919,151.57502 111.336459,150.705304 111.598697,150.007981 C111.511589,150.443067 111.207392,150.833459 110.687475,151.179612 C110.253756,150.659698 109.469776,150.007981 108.342835,149.227654 C107.212701,148.443678 106.432826,147.794242 105.99865,147.270223 C105.82352,147.011178 105.586821,146.642678 105.282169,146.165178 C104.977972,145.687678 104.588035,145.058764 104.110532,144.276613 C103.635767,143.496285 103.289156,142.822221 103.071156,142.256701 C102.855436,141.692092 102.835369,141.367374 103.005482,141.283002 C101.357256,141.978957 98.9692884,141.501457 95.844773,139.850046 C95.2377478,139.503436 94.3247015,138.591763 93.1101949,137.11548 C91.8956883,135.639198 90.6364872,134.989761 89.3339597,135.161698 C88.900696,135.248806 88.3141937,135.40022 87.5758211,135.617307 C86.8392728,135.835762 86.2094442,135.942025 85.6881596,135.942025 C85.1668749,135.942025 84.4722848,135.770545 83.6039331,135.420287 C82.9107112,135.161698 81.977598,134.660482 80.8055056,133.923937 C79.6343254,133.187393 78.8302792,132.728591 78.3974716,132.558479 C77.2691617,131.949632 76.7050067,131.646805 76.7050067,131.646805 L74.6216924,130.607433 C74.1004077,130.348844 73.5572319,129.936105 72.9930769,129.371497 C72.4289219,128.806432 72.0613319,128.219933 71.8875703,127.612454 C71.7142649,127.092996 71.4971769,126.050432 71.2367627,124.486585 C70.9763484,122.922282 70.6283692,121.795801 70.1951055,121.102583 C69.675189,120.235147 68.9372725,119.366799 67.981356,118.499364 C67.0277198,117.631928 66.1598241,117.194562 65.3781252,117.194562 C66.0731714,117.194562 66.0731714,116.612623 65.3781252,115.437344 C64.683079,114.263432 64.0755977,113.417432 63.554313,112.899798 C63.3805515,112.724669 62.8592668,112.161429 61.9913712,111.204604 C61.1234756,110.249148 60.3855591,109.426863 59.7780778,108.729084 C59.1710525,108.034953 58.6479436,107.232735 58.215136,106.319692 C57.7818722,105.408019 57.6938513,104.649582 57.9547217,104.040736 C58.0409183,103.954996 57.9547217,103.823649 57.6938513,103.6508 C57.433437,103.47932 57.1091733,103.302823 56.7174117,103.129518 C56.3274744,102.957581 55.9580601,102.8048 55.6119052,102.673909 C55.2630139,102.545755 55.0025996,102.480081 54.8297502,102.480081 C55.0044239,102.829883 55.1991645,103.457429 55.4167085,104.368646 C55.6337964,105.281689 55.8723195,105.95484 56.1322777,106.388558 C56.3069514,106.735168 57.0439557,107.995731 58.3460272,110.16204 C60.6044713,113.807823 61.6443042,116.501799 61.4719108,118.237126 C60.9506262,118.409063 60.602647,118.324235 60.4293415,117.978082 C60.25558,117.631928 60.1242327,117.153972 60.0384921,116.545581 C59.9518393,115.939927 59.8660987,115.506209 59.7776217,115.243972 C59.5172074,114.72269 58.8445085,114.157625 57.7586128,113.548778 C56.6740854,112.94358 56.0004743,112.334733 55.7405161,111.725887 C55.828081,111.725887 55.9348007,111.685297 56.066148,111.594996 C56.1970392,111.507888 56.3064953,111.467298 56.3922359,111.467298 C56.4802569,110.686515 56.0246459,109.688188 55.025859,108.470495 C54.0270721,107.25645 53.6166118,106.389014 53.7890051,105.867276 C53.0939589,105.345994 52.4864776,104.32532 51.965193,102.808448 C51.4443644,101.288384 51.0097325,100.311036 50.6626654,99.8764064 C50.3160545,99.3574044 49.8832468,98.9017955 49.3615061,98.5100357 C48.8402215,98.1205562 48.1903259,97.6868384 47.4081709,97.2088823 C46.626928,96.7313823 46.1056434,96.406664 45.8452291,96.2324472 C45.6710115,96.147163 45.3248566,95.7581396 44.8035719,95.0630966 C41.9394708,91.5897057 41.0715752,89.7230317 42.2003411,89.4630747 C41.0720312,89.7230317 40.138462,88.8774873 39.4005455,86.9227928 C38.6621729,84.9703786 38.4241059,83.471293 38.6840641,82.4300966 L38.4241059,82.3005742 C38.5116708,81.9525966 38.5545411,80.9342035 38.5545411,79.2399221 C38.5545411,77.5465528 38.6639972,76.0055093 38.880629,74.6172475 C39.0986291,73.2285296 39.5104576,72.5330305 40.1174829,72.5330305 C39.5104576,72.6196829 39.0553027,72.0760534 38.751106,70.9062467 C38.4473653,69.7332476 38.4259301,68.9296611 38.6854323,68.4963994 C38.772085,68.2355302 39.1638467,68.4111152 39.8575247,69.0176816 C40.5507466,69.6233359 40.9420521,70.0164639 41.0287049,70.1888565 C42.1574708,69.5795537 42.5921027,68.7996826 42.3312324,67.8437704 C42.1574708,67.497161 41.2457928,66.5859432 39.5966543,65.1092048 C35.8632893,62.6797466 33.9528244,61.5072035 33.8675399,61.5929438 C34.3865442,60.6393119 34.2570212,59.8147464 33.4757783,59.1192473 C32.6083387,59.6405296 32.1094014,59.770052 31.9785101,59.5110071 C31.8489871,59.250138 31.7404431,58.7744622 31.6524222,58.0789631 C31.5666816,57.3852883 31.3486815,56.9948966 31.0025266,56.9077882 C30.5678947,56.8211359 30.0466101,56.4745265 29.4395848,55.8665919 C37.1649047,43.5400676 47.3643885,33.9047828 60.0384921,26.9589131 C60.5588646,26.8731729 61.5134129,26.8293907 62.9021371,26.8293907 C63.5958151,26.916043 64.247535,27.133586 64.8545602,27.4801954 C65.4624976,27.8268048 66.0923262,28.3052169 66.7422218,28.9122394 C67.3943977,29.5178937 67.893335,29.9525236 68.239946,30.2133928 C68.4137076,29.6921105 68.1970757,28.9108712 67.5895944,27.8692188 C67.7619877,27.3479365 68.7174482,26.8266543 70.4536955,26.3062841 C72.4489889,26.045871 73.7524286,26.0882851 74.3594538,26.4371748 C73.8395374,25.6554794 72.9720978,24.5700447 71.756223,23.1817829 L71.1054153,23.8316755 C70.4103691,23.224653 68.5888373,23.5279363 65.6367152,24.7433494 C65.4643219,24.8290896 65.02969,25.0694359 64.3346438,25.4589154 C63.6409658,25.8488509 63.0749865,26.1316112 62.6421789,26.3049159 C62.1208943,26.4786767 61.6005217,26.5220029 61.0792371,26.4353505 C65.2454097,24.1791971 69.3262977,22.3968951 73.320077,21.0961978 C73.5782109,21.2685903 74.0132989,21.638003 74.6212363,22.2016993 C75.2282616,22.7658517 75.7057638,23.1790466 76.0532869,23.4385475 C75.7928726,23.266155 75.618655,23.350983 75.5320022,23.6989606 C75.1853913,24.740157 75.1853913,25.6080486 75.5320022,26.3021795 C75.9652659,26.9114823 76.5517682,27.2567235 77.2901407,27.3447441 C78.0285133,27.4304843 78.917388,27.3876142 79.9590452,27.2133974 C81.0007023,27.0410048 81.6962046,26.9529843 82.0432716,26.9529843 L83.3457992,27.084331 C86.1227915,27.3447441 87.2086872,27.084331 86.6012058,26.3021795 C86.8611641,26.6510692 87.1649047,27.3666352 87.5119718,28.4520699 C87.8585827,29.5375045 88.2503443,30.2973088 88.683152,30.7314826 C89.1177839,30.3825929 89.2044366,29.7755704 88.9435663,28.9076788 C88.683152,28.0397871 88.683152,27.4304843 88.9435663,27.0838749 C89.0293069,26.9114823 89.2901772,26.7358973 89.7248091,26.5625926 C90.159441,26.3902001 90.6579223,26.1950043 91.2225334,25.9779173 C91.7866883,25.7599183 92.1556466,25.6085047 92.3307763,25.5223084 C92.8511488,25.1743308 92.5031697,24.5663962 91.288207,23.6985046 C91.1144455,23.6113962 90.7463994,23.4814176 90.1827005,23.3076569 C89.6185455,23.1366325 89.1182399,22.9605914 88.6849762,22.7877428 C88.2517125,22.6153502 87.7961015,22.3759161 87.3185993,22.0721768 C86.8410971,21.7679815 86.6235531,21.4213721 86.6659674,21.0296123 C86.7097498,20.6378525 86.9496411,20.1398295 87.3824487,19.5318949 C87.9037334,19.0990892 88.7506499,18.9248724 89.9218301,19.0115248 C91.0930103,19.097265 91.9837093,19.3138958 92.5907345,19.6614174 C94.9358314,20.9639389 95.2819863,22.1378502 93.6333038,23.1776784 C94.5025677,23.2634186 95.5442248,23.6109401 96.7591875,24.2179626 C97.973238,24.8263533 98.4507402,25.4776141 98.191238,26.1726571 C98.8858282,24.8705916 99.5795062,24.2179626 100.275008,24.2179626 C100.708272,24.3059831 101.122381,24.8924827 101.511862,25.9774613 C101.9018,27.0619838 102.139867,27.6475712 102.226063,27.7355918 C102.922022,28.6892236 103.612051,28.9067666 104.311202,28.3854844 C105.004424,27.8651142 105.722273,27.105766 106.458822,26.1069837 C107.19537,25.1095696 107.607655,24.6539607 107.69522,24.740613 C106.827324,24.3949158 106.736567,24.0469382 107.436173,23.6994167 C108.734596,22.9181774 109.908513,22.7006344 110.951082,23.0495241 C111.209672,23.2219167 111.559476,23.6136765 111.990003,24.2193308 C112.768966,25.7840897 112.639443,26.5206347 111.600066,26.4339823 C112.380396,27.1290253 112.703748,27.9978291 112.577417,29.0381134 C112.446526,30.0797658 111.770179,30.5577219 110.556128,30.4701574 C110.123777,30.4701574 109.491668,30.2521583 108.66573,29.8193527 C107.841617,29.3860909 107.212701,29.148025 106.777157,29.1037867 C106.343437,29.0586363 105.734587,29.2980704 104.954256,29.8193527 C104.607646,30.2539826 104.152035,30.9923518 103.586967,32.0330921 C103.022356,33.0765687 102.522507,33.8131137 102.088787,34.2463754 C100.787628,35.5484409 98.6153804,36.0268531 95.5775177,35.6784195 C95.8383881,35.6784195 95.8155847,35.9388326 95.5118441,36.4601148 C95.2067352,36.980485 94.7962748,37.5674406 94.2749902,38.2177893 C93.7537055,38.868594 93.4499649,39.2375506 93.3642243,39.3242029 C92.5825253,40.1920946 92.0621528,41.1908769 91.8012825,42.3191816 C91.8012825,42.4929424 91.7575,43.079442 91.6699351,44.0764 C91.5819142,45.0751823 91.4095209,45.8358987 91.1486505,46.3558128 C92.1903077,46.0953997 93.015333,46.6180501 93.6223582,47.9187475 C94.1436429,49.1346167 94.1436429,49.7854214 93.6223582,49.8729859 C96.4878276,49.4406363 99.0053177,49.6130289 101.177109,50.3942682 C104.301625,51.5225729 106.083935,52.6508777 106.517654,53.7796385 C107.036203,52.9974871 108.294036,52.9532488 110.291609,53.6482918 C111.073308,54.0815535 111.764706,55.3854433 112.376292,57.5540323 C112.722903,58.8551857 113.309861,59.9848586 114.133974,60.9389466 C114.959912,61.8934906 115.847874,62.1534476 116.804247,61.7201859 L117.193272,61.4597728 C117.541251,61.2873802 117.822189,61.1345985 118.03882,61.0046199 C118.257277,60.8750975 118.494431,60.7008807 118.753478,60.4833377 C119.015716,60.2662507 119.168499,60.0710549 119.209089,59.8986624 C119.249678,59.7253577 119.187197,59.5497727 119.015716,59.3773801 C118.406867,58.8560978 117.951256,58.1405319 117.648427,57.2302262 C117.347423,56.3185523 117.41264,55.5149658 117.845448,54.8194667 C118.104038,54.4728573 118.799084,53.951575 119.926938,53.256532 C121.057072,52.5610329 121.751662,51.8673581 122.010252,51.1727711 C122.36188,50.0444663 121.924512,49.1109013 120.710005,48.3720761 C119.494586,47.6355311 118.885737,46.9628353 118.885737,46.3539885 C118.885737,45.9193586 119.168042,45.3994445 119.731285,44.7910538 C120.297721,44.1840313 120.5367,43.6180547 120.447767,43.0985967 C120.447767,42.8363593 120.294528,42.2950102 119.9917,41.4699886 C119.690695,40.6435989 119.514197,40.0365764 119.471783,39.6461848 C119.428001,39.2553371 119.625022,38.7997282 120.056917,38.2798141 C120.662574,37.9318365 122.095537,37.9537276 124.352157,38.3436632 C126.609233,38.735423 128.085978,39.1477058 128.781936,39.5805114 C129.043719,39.752904 129.607417,40.0137732 130.475313,40.3622068 C131.342753,40.7069919 132.103016,41.0759485 132.755648,41.4681644 C133.403264,41.8580999 133.772678,42.2256883 133.858875,42.5736659 L133.209435,42.5736659 C133.81646,43.0963164 134.186787,43.7019707 134.314486,44.3974698 C134.445833,45.094337 134.121113,45.6137951 133.340782,45.9622287 C133.858875,45.8742082 134.556201,46.0050988 135.424097,46.3521643 C136.813277,46.8725344 136.857059,47.3509466 135.554988,47.7842083 C135.814034,47.6961878 136.182536,47.6109036 136.65867,47.5233391 C137.136173,47.4366868 137.503306,47.3057961 137.765089,47.1334036 C137.937026,47.0458391 138.155026,46.8953376 138.414528,46.6773386 C138.676767,46.4602517 138.870139,46.329361 139.001487,46.2878591 C139.132378,46.244989 139.32575,46.1998386 139.587989,46.1565124 C139.847035,46.1136423 140.106537,46.1793156 140.365127,46.3517082 C140.455885,46.3517082 140.649257,46.1341652 140.952086,45.7009035 C141.25309,45.2680978 141.582826,44.8334679 141.927613,44.4002061 C142.276048,43.9669444 142.577053,43.7503135 142.839291,43.7503135 C143.096513,43.7503135 143.337316,43.8570328 143.552124,44.0741197 C143.771948,44.2921187 143.942061,44.5297286 144.073865,44.7905978 C144.204756,45.0514669 144.332455,45.3337712 144.463802,45.6356862 C144.594693,45.9394254 144.700957,46.1797717 144.788522,46.3521643 C144.960003,46.785426 145.375024,47.2428592 146.024463,47.7185349 C146.673903,48.1946668 147.085731,48.6516439 147.260405,49.0849056 C147.34797,49.3457748 147.518083,49.9970356 147.780322,51.0400562 C148.039368,52.0817086 148.389171,52.7972746 148.821523,53.1872101 C149.255242,53.5789699 149.90605,53.9036882 150.77349,54.1636452 C150.947251,54.2516658 151.340381,54.2074275 151.945582,54.0350349 C152.551239,53.860362 153.052457,53.8170359 153.442394,53.9036882 C153.835524,53.9894284 154.028896,54.3360378 154.028896,54.9453406 C154.548813,54.4240583 154.807859,54.0760808 154.807859,53.9036882 C154.896792,55.032449 155.176361,55.944579 155.657056,56.6382538 C156.134558,57.3314726 156.892998,57.6370361 157.935567,57.5490156 L157.673328,60.4144719 C157.414282,60.8477336 156.763475,61.1724519 155.719537,61.3890827 C154.676968,61.6070818 154.027528,61.8036458 153.76529,61.9760383 C153.506244,62.0626907 152.875959,62.5835169 151.876716,63.5394291 C150.877929,64.4953413 150.468837,65.0594937 150.640774,65.2318862 C149.167678,63.5822992 146.950736,63.1047992 144.000894,63.7998422 C140.703529,64.3206684 138.444629,64.8414946 137.230578,65.3627769 C135.842766,66.058276 134.885938,66.7081686 134.365109,67.3151911 C134.278,67.4018434 134.129322,67.7069509 133.910866,68.226865 C133.693778,68.7472351 133.477146,69.2256473 133.261427,69.658909 C133.041602,70.0921707 132.849598,70.3092577 132.676293,70.3092577 C133.198946,70.2248856 133.783167,69.8103226 134.433975,69.0737776 C135.086607,68.3354084 135.498436,67.9249499 135.670373,67.8369294 C137.925169,66.3620153 139.791851,65.840733 141.276349,66.2849403 C143.185446,66.8062226 143.489643,67.5012656 142.186203,68.3691572 C142.01609,68.5415498 141.557287,68.6067671 140.820738,68.564353 C140.08419,68.5214829 139.58434,68.5415498 139.322558,68.6300264 C140.106081,68.802419 140.755065,69.0418531 141.279542,69.3437681 C141.797634,69.6475074 141.928981,70.0602462 141.668111,70.5806163 C143.055923,71.3623117 143.317705,72.2302034 142.450266,73.1861156 C141.320132,74.3162446 139.977926,74.7919204 138.414072,74.6181596 C138.676311,74.6181596 138.676311,74.7923764 138.414072,75.1389858 L136.198043,76.5710298 C136.026105,76.656314 135.461494,76.8729449 134.506034,77.2218346 C133.551029,77.5666197 132.898853,77.9602038 132.552242,78.3930094 C132.293196,78.740531 132.162305,79.2609011 132.162305,79.9577684 C132.162305,80.6532675 132.118523,81.1745497 132.031414,81.5211591 C131.945673,81.8700488 131.597238,81.9539648 130.992037,81.7815722 C130.729799,82.3019424 129.927577,82.7146812 128.582179,83.0165962 C127.236781,83.3203355 126.34745,83.7759444 125.913274,84.3829669 C126.431366,85.078466 126.390776,85.7721408 125.781927,86.4671838 C124.739358,87.3364437 123.828136,87.2484232 123.047805,86.2067707 C122.614085,86.3805315 122.287541,86.8137932 122.070453,87.5092923 C121.85519,88.2043354 121.527733,88.6818354 121.096294,88.9413364 C121.705144,89.8963364 121.614842,90.5927477 120.837704,91.0246412 C120.922076,91.0246412 121.118641,91.1126617 121.421014,91.2855104 C121.723842,91.4588151 122.048562,91.6754459 122.398365,91.9363151 C122.744976,92.1971843 122.959784,92.3280749 123.047805,92.3280749 C122.701194,93.10749 122.221868,93.4978816 121.614842,93.4978816 C122.136127,94.8875116 121.486687,96.4075762 119.664243,98.055795 C119.313984,98.4024044 118.771264,98.7490138 118.034716,99.0974474 C117.293151,99.4440568 116.622276,99.7254489 116.013427,99.9429919 C115.404577,100.160535 115.05979,100.311948 114.972682,100.398601 C114.104786,101.181208 113.452154,101.983427 113.020258,102.807536 C112.587907,103.63347 112.522233,104.435232 112.823238,105.217383 C113.12789,106.000903 113.930112,106.518993 115.234464,106.78123 L115.360795,107.82197 L115.360795,110.164776 L115.491686,111.207341 C115.580619,111.814363 115.646293,112.357537 115.688707,112.836405 C115.731121,113.314361 115.731121,113.919559 115.688707,114.659297 C115.646293,115.395842 115.450184,115.809493 115.103573,115.893865 C114.758786,115.982797 114.280828,115.893865 113.671978,115.633451 C112.974652,115.286842 112.151907,113.376842 111.195078,109.905275 C111.021773,109.03784 110.49912,107.998012 109.631224,106.780774 C109.197504,107.214492 108.829002,107.495428 108.526174,107.625406 C108.224713,107.756297 108.004433,107.780012 107.878102,107.69108 C107.747211,107.60534 107.508232,107.408776 107.160709,107.105948 C106.814098,106.803121 106.512638,106.562775 106.250855,106.391295 C105.816679,106.13225 105.05824,105.913339 103.97052,105.741858 C102.887361,105.568553 102.211013,105.350098 101.953791,105.091053 C99.8681966,106.656268 98.6085394,106.262684 98.1752757,103.922159 C98.0028823,104.354508 98.0238614,104.93964 98.2409493,105.679833 C98.4589494,106.417746 98.5670373,106.828661 98.5670373,106.915769 C97.960012,108.045898 97.0054637,108.129814 95.7029362,107.174814 C95.1816515,106.656268 93.9876679,106.591051 92.1209855,106.980987 C90.254303,107.37001 89.0174491,107.435227 88.4104239,107.174814 C88.4984448,107.174814 88.6708382,107.304337 88.9317085,107.566118 C89.1916667,107.73623 89.3663404,107.867577 89.4525371,107.955141 C89.3649722,108.303575 89.2354492,108.562164 89.0607755,108.735469 C88.8865579,108.907405 88.7127963,108.973078 88.5399469,108.932489 C88.3661854,108.888706 88.1709887,108.888706 87.9529886,108.932489 C87.7359007,108.973078 87.5411601,109.038296 87.3669424,109.12586 C87.0198754,109.384905 86.5866117,109.840514 86.065327,110.491319 C85.5449545,111.14258 85.1545611,111.554406 84.8941468,111.725887 C85.4140633,113.115061 85.6534985,114.179516 85.6106282,114.916061 C85.5654775,115.655799 85.4368666,116.740777 85.2188666,118.171909 C85.0008665,119.603041 84.8927786,120.755061 84.8927786,121.624321 C84.8927786,123.009846 85.3055193,124.620668 86.1296325,126.440823 C86.9546578,128.263715 87.9306413,129.521542 89.0594073,130.217497 C89.6687129,130.564107 90.7108261,130.779369 92.1852909,130.865566 C93.6606679,130.954042 94.7027811,130.865566 95.3098064,130.606521 C95.831091,130.3493 96.2205723,130.043281 96.4809866,129.696671 C96.7414009,129.350062 96.9594009,128.847478 97.1317943,128.198498 C97.3055558,127.549061 97.4369031,127.093452 97.5235559,126.834407 C98.1305811,125.182996 99.258891,124.31556 100.906205,124.227996 C101.951967,124.140888 102.707214,124.25308 103.187909,124.552714 C103.665411,124.85691 103.859239,125.268736 103.771675,125.790475 C103.68411,126.309933 103.51126,126.853106 103.253126,127.417714 C102.991344,127.982779 102.666624,128.610324 102.275319,129.306736 C101.887205,130.004059 101.646858,130.523973 101.562942,130.872407 C101.38918,131.566538 101.23503,132.542061 101.107331,133.803536 C100.97644,135.061364 100.866527,135.821624 100.779419,136.083405 C100.954548,136.168233 101.604444,136.211559 102.731842,136.211559 C102.731842,136.039623 102.797515,135.755494 102.928407,135.365559 C103.056561,134.975623 103.122235,134.736645 103.122235,134.650905 C103.557779,135.34686 104.252369,135.734059 105.207374,135.821624 C106.162378,135.908732 106.858336,135.562579 107.292056,134.780428 C107.467186,135.041297 107.988015,135.69347 108.856366,136.736034 C109.723806,137.775406 110.201308,138.643298 110.289329,139.339253 C110.376438,139.689055 110.547919,140.250927 110.807421,141.034447 C111.06966,141.814774 111.157225,142.357947 111.06966,142.663511 C110.982551,142.963145 110.547919,143.117751 109.768044,143.117751 C109.421433,143.117751 109.203433,143.248642 109.118605,143.507687 C109.028304,143.769924 109.028304,144.092818 109.118605,144.48321 C109.20617,144.873146 109.315626,145.24347 109.443325,145.59008 C109.572848,145.934865 109.746153,146.306558 109.961873,146.696949 C110.183065,147.084149 110.289785,147.324039 110.289785,147.411147 C111.850446,150.273411 113.979368,151.055562 116.669707,149.755777 C116.669707,152.271888 116.061314,153.660606 114.843615,153.91965 C114.157234,154.092043 113.378271,153.653765 112.510376,152.614392 Z M114.455045,182.03104 C114.283564,181.163148 114.195999,180.469929 114.205577,179.95184 C114.114819,179.255884 114.42084,178.322319 115.113606,177.151601 C115.80774,175.981338 116.154351,175.089731 116.154351,174.482708 C114.765627,174.136099 114.245255,173.006426 114.589129,171.097338 C114.763803,169.79436 116.021636,168.058577 118.365821,165.889076 C120.016783,164.412794 120.535332,162.327208 119.929674,159.638705 C119.667436,158.509944 119.44898,156.858989 119.277042,154.689032 C119.105561,152.518163 118.930432,150.999466 118.755758,150.132031 C118.755758,150.391076 119.167586,150.630054 119.994892,150.846685 C120.819461,151.061947 121.318399,151.346076 121.491704,151.689493 C121.66501,151.432272 121.880729,150.952948 122.142512,150.259729 C122.401558,149.563774 122.664253,149.044316 122.91965,148.695882 C123.09478,148.435469 123.462826,148.110751 124.028349,147.718535 C124.59296,147.328599 124.961462,147.091446 125.134768,147.003881 C125.304881,146.918141 125.698011,146.637205 126.303668,146.158337 C126.912061,145.680837 127.411911,145.313704 127.803216,145.053291 C128.196346,144.792878 128.71307,144.597682 129.365702,144.469528 C130.018334,144.338637 130.472577,144.532465 130.731167,145.053291 C131.166711,145.57503 131.08097,146.376792 130.472577,147.463139 C129.863727,148.549485 129.863727,149.30929 130.472577,149.744832 C130.561054,149.482594 130.645882,148.916162 130.731167,148.04827 C130.8201,147.180378 131.08097,146.529574 131.513322,146.092663 C132.034606,145.574573 132.532176,145.268554 133.011502,145.184182 C133.489004,145.093881 133.921356,145.159098 134.310381,145.379378 C134.703511,145.596465 135.159122,145.896099 135.67767,146.289227 C136.198955,146.679163 136.676001,146.918597 137.110177,147.003881 C138.411792,147.438055 139.975646,148.393055 141.798546,149.869337 C141.711437,149.780861 141.711437,149.672773 141.798546,149.541427 C141.886111,149.413728 142.057592,149.282838 142.320287,149.151491 C142.579333,149.023793 142.816488,148.892902 143.034944,148.761556 C143.250208,148.632033 143.487362,148.527594 143.749601,148.438662 L144.139538,148.307771 C144.745195,148.307771 145.180283,148.265357 145.439785,148.176424 C145.698375,148.090684 146.071894,148.176424 146.546204,148.438662 C147.02097,148.697706 147.348882,148.892902 147.520363,149.023793 C147.695037,149.151491 147.997866,149.390469 148.432041,149.738447 C148.865761,150.085056 149.171782,150.347293 149.340071,150.518774 C149.60231,150.690254 150.079812,150.996274 150.773034,151.430448 C151.468992,151.864166 152.012168,152.210775 152.402561,152.469364 C152.795691,152.728409 153.141846,153.121993 153.441482,153.638258 C153.744311,154.162733 153.856959,154.726429 153.769394,155.33482 C154.291135,155.422385 155.330512,155.76717 156.894366,156.374192 C157.156604,156.546129 157.696588,156.700735 158.523437,156.828433 C159.348007,156.959324 159.890726,157.156344 160.151141,157.413564 C147.573723,170.702842 132.336523,178.906083 114.455045,182.03104 Z"/>
</svg>
