<svg xmlns="http://www.w3.org/2000/svg" width="200" height="200" viewBox="0 0 200 200">
  <path fill="#fff" fill-rule="evenodd" d="M163.108001,124.084094 C162.490408,132.416084 163.108001,141.056873 163.108001,141.056873 C163.108001,141.056873 160.330436,140.903273 156.936079,141.674472 C153.541722,142.445671 150.147365,145.376867 146.906606,143.988869 C143.666647,142.600071 138.420313,146.766466 138.112317,144.606468 C137.803521,142.445671 133.328378,144.606468 133.328378,144.606468 C136.569137,129.176088 127.156456,128.404888 127.156456,128.404888 L125.305279,115.906504 C125.305279,115.906504 126.07647,114.672105 126.539664,111.585709 C127.002058,108.500113 124.50369,108.036914 124.50369,108.036914 L124.50369,104.950517 C125.708474,103.716119 124.687687,102.019321 124.533289,100.000124 C124.379691,97.9801261 124.842085,89.983336 125.458878,85.5089415 C126.07647,81.034547 131.014007,74.2449554 132.40279,73.6281562 C133.791572,73.0105569 146.906606,73.6281562 146.906606,73.6281562 C146.906606,73.6281562 150.147365,80.8801472 150.917755,82.8857447 C151.689745,84.8921422 153.849718,87.8233386 156.318487,89.0577371 C158.787255,90.2921356 159.713644,91.3729342 161.411222,96.3097281 C163.108001,101.247322 163.724793,115.752104 163.108001,124.084094 Z M75.4963104,108.036914 C75.4963104,108.036914 72.997942,108.500113 73.4603362,111.585709 C73.9235303,114.672105 74.6947205,115.906504 74.6947205,115.906504 L72.843544,128.404888 C72.843544,128.404888 63.4316632,129.176088 66.6716222,144.606468 C66.6716222,144.606468 62.1972788,142.445671 61.8884827,144.606468 C61.5796867,146.766466 56.3341531,142.600071 53.0933941,143.988869 C49.8526352,145.376867 46.4582782,142.445671 43.0639212,141.674472 C39.6687642,140.903273 36.8919994,141.056873 36.8919994,141.056873 C36.8919994,141.056873 37.5087916,132.416084 36.8919994,124.084094 C36.2744072,115.752104 36.8919994,101.247322 38.5887779,96.3097281 C40.2863564,91.3729342 41.2127446,90.2921356 43.6815134,89.0577371 C46.1502821,87.8233386 48.3102547,84.8921422 49.081445,82.8857447 C49.8526352,80.8801472 53.0933941,73.6281562 53.0933941,73.6281562 C53.0933941,73.6281562 66.208428,73.0105569 67.5972104,73.6281562 C68.9859928,74.2449554 73.9235303,81.034547 74.5411225,85.5089415 C75.1579147,89.983336 75.6211088,97.9801261 75.4667108,100.000124 C75.3123127,102.019321 74.2923256,103.716119 75.4963104,104.950517 L75.4963104,108.036914 Z M187.950086,140.594473 C187.64209,124.392893 179.000599,110.96891 178.075011,98.1209259 C177.149423,85.2729418 176.069436,93.995331 175.606242,84.5833426 C175.143848,75.1713543 177.457419,65.6049661 175.606242,64.061768 C173.754266,62.5177699 163.571195,56.8089769 162.33681,56.6545771 C161.102426,56.5009773 158.170463,59.1233741 158.170463,59.1233741 C158.170463,59.1233741 145.363425,60.6665722 139.5003,58.0433754 C133.637174,55.4201787 131.630799,54.8033794 127.310854,54.3817799 C122.990109,53.9601805 119.75015,55.2665789 115.429405,52.1801827 C111.109459,49.0945865 112.343844,46.0081903 112.343844,46.0081903 C115.429405,43.5393933 116.664589,37.9842002 116.664589,37.9842002 C119.133358,37.9842002 122.218919,36.1330025 122.836511,31.1954086 C123.453303,26.2578147 119.442154,25.3322158 119.442154,25.3322158 C124.379691,-1.8245506 100,0.0266471124 100,0.0266471124 C100,0.0266471124 75.6211088,-1.8245506 80.5586463,25.3322158 C80.5586463,25.3322158 76.5466971,26.2578147 77.1642893,31.1954086 C77.7810814,36.1330025 80.8666424,37.9842002 83.3354111,37.9842002 C83.3354111,37.9842002 84.5697954,43.5393933 87.6561564,46.0081903 C87.6561564,46.0081903 88.8905407,49.0945865 84.5697954,52.1801827 C80.2498502,55.2665789 77.0098912,53.9601805 72.6891459,54.3817799 C68.3684007,54.8033794 66.3628261,55.4201787 60.4997003,58.0433754 C54.6357746,60.6665722 41.8295368,59.1233741 41.8295368,59.1233741 C41.8295368,59.1233741 38.897574,56.5009773 37.6631896,56.6545771 C36.4288052,56.8089769 26.2457342,62.5177699 24.3937577,64.061768 C22.5417811,65.6049661 24.8569518,75.1713543 24.3937577,84.5833426 C23.9313635,93.995331 22.8513772,85.2729418 21.9249889,98.1209259 C20.9994007,110.96891 12.3587101,124.392893 12.049914,140.594473 C11.7411179,156.796053 12.8211043,155.870455 16.5242574,158.956051 C20.2274105,162.042447 30.1024854,170.682436 44.2983056,177.008828 C44.2983056,177.008828 44.9158977,179.169626 47.6926626,179.169626 C47.6926626,179.169626 48.3102547,181.483223 49.5446391,181.329623 C49.5446391,181.329623 49.8526352,186.730416 50.9334215,188.427214 C52.0134078,190.124812 53.5557883,200 53.5557883,200 L146.444212,200 C146.444212,200 147.986592,190.124812 149.066578,188.427214 C150.147365,186.730416 150.455361,181.329623 150.455361,181.329623 C151.689745,181.483223 152.307337,179.169626 152.307337,179.169626 C155.084102,179.169626 155.701694,177.008828 155.701694,177.008828 C169.897515,170.682436 179.77259,162.042447 183.475743,158.956051 C187.178896,155.870455 188.258882,156.796053 187.950086,140.594473 Z"/>
</svg>
