<svg xmlns="http://www.w3.org/2000/svg" width="200" height="200" viewBox="0 0 200 200">
  <path fill="#fff" fill-rule="evenodd" d="M92.4099619,37.8701933 C91.6469431,40.2460639 88.5098931,44.4042758 88.170871,45.0828455 C87.8318488,45.7614151 88.7648168,34.3072641 88.6798422,32.2706784 L88.6798422,28.8769533 L89.272912,29.6405633 C89.8668578,30.4041734 90.7139752,31.0827431 91.47787,31.2528238 C92.2408889,31.4220279 92.7489841,32.8642077 92.9189332,33.3735733 C93.0888823,33.8829389 93.1729808,35.4951994 92.4099619,37.8701933 Z M139.484108,76.020012 C139.188011,76.0620939 134.990969,75.1713616 133.888928,74.7470364 C132.786887,74.3227111 125.494845,70.0803356 123.417787,69.3167255 C121.340728,68.5531154 121.044631,68.596074 119.98464,67.4923024 C118.924648,66.3894075 116.083695,61.2562996 115.532674,60.6198117 C114.981654,59.9833239 115.574724,57.9467382 113.921662,56.0372746 C112.268601,54.1286878 110.996611,52.7706717 109.937495,51.4556142 C108.877503,50.1405567 109.004527,50.6069638 108.495556,49.2498244 C107.98746,47.8918083 106.800445,45.3888155 105.316456,44.8794499 C103.832468,44.370961 102.391405,44.8803266 101.967408,44.2008802 C101.543411,43.5223105 101.586337,43.3522298 101.586337,43.3522298 C101.586337,43.3522298 101.924483,40.0426683 102.390529,39.1738537 C102.857451,38.3041623 103.069449,37.9640007 103.196473,37.9219189 C103.323497,37.8789604 105.654603,38.664488 106.65152,38.8766507 C107.647562,39.0888133 108.283557,38.0490411 108.325607,37.2424725 C108.367656,36.4367806 108.51658,35.8213337 108.728579,35.6100478 C108.940577,35.3978852 109.342673,35.2707629 109.342673,34.9735599 C109.342673,34.6763569 109.130675,34.5913165 109.300624,34.4001949 C109.470573,34.2099499 109.851644,34.1889089 109.915594,34.0188282 C110.021593,33.3612994 110.466615,33.466504 111.229634,33.3183409 C111.992652,33.1701777 112.31065,32.8308929 112.161725,32.4907313 C112.013677,32.1514465 110.805637,30.0727789 110.593638,28.9269254 C110.38164,27.7819487 110.424565,27.6548265 110.487639,27.5487452 C110.551589,27.4417871 111.229634,27.1875427 111.356657,26.0425659 C111.483681,24.8967125 111.144659,22.2236389 111.356657,21.3758651 C111.568656,20.5272147 111.441632,19.0850349 111.187584,18.5327108 C110.932661,17.9812633 108.050534,14.3744989 103.896418,13.6117655 C99.7414255,12.8472788 98.0454387,12.5079939 95.5873091,14.3744989 C93.1283035,16.2418806 92.8742558,19.3813612 92.3652846,19.7206461 C91.8563134,20.0599309 90.7542724,19.9748905 90.7542724,19.9748905 C90.7542724,19.9748905 88.4652158,20.1440946 86.9391781,21.3329066 C85.4131404,22.5208419 78.121098,38.5566533 77.1890061,47.1264449 C76.2560382,55.6962364 70.3218365,68.931852 68.9648718,71.9862923 C67.6087832,75.0407325 67.099812,75.0407325 67.9478054,76.2286678 C68.7957988,77.4174798 70.9998808,78.0960495 70.6608586,79.4531889 C70.3218365,80.8103283 67.8628308,93.5383317 67.1847865,97.356382 C66.5067422,101.174432 66.4217677,101.682921 67.3547356,101.513717 C68.2868275,101.343636 69.1348209,101.259473 69.8978398,101.004352 C70.6608586,100.750107 70.9149062,100.241618 71.6779251,101.174432 C72.4409439,102.107246 72.1868963,103.211018 73.7979086,103.211018 C75.4089208,103.211018 76.849984,103.804547 76.6800349,104.398953 C76.5109618,104.992483 67.099812,115.089494 60.8257121,126.79789 C54.5524882,138.507162 58.7915792,143.598188 46.9214237,152.252143 C35.0521442,160.906975 34.9259964,162.641098 29.1608678,165.865619 C23.3957391,169.089263 24.158758,170.405197 20.9367335,173.120353 C17.714709,175.835508 18.1890054,176.598242 12.932848,177.446892 C7.67581456,178.294666 7.15164185,180.549551 5.58355489,180.803795 C4.0145919,181.05804 -1.9440794,184.962007 0.641950048,184.749845 C3.22797949,184.537682 1.26731644,184.834008 4.06446821,185.597619 C6.86249601,186.361229 7.87956246,186.106984 11.4406091,185.682659 C15.0016558,185.258334 16.3586204,185.682659 20.9367335,185.93778 C25.5148466,186.192025 24.4128056,185.343374 29.1608678,185.85274 C33.908054,186.361229 34.6710728,186.531309 36.5361327,186.021944 C38.4011925,185.513455 48.1513645,188.82214 55.782429,187.804285 C63.4126175,186.785554 62.0565289,186.61635 69.5167683,186.446269 C76.9778838,186.276188 76.2998395,187.634204 84.0991011,187.634204 C91.8992386,187.634204 90.0341788,188.482855 95.9692565,186.955635 C101.904334,185.428414 98.5132367,184.071275 106.482447,184.748968 C114.452534,185.428414 112.417525,185.767699 118.013581,185.93778 C123.60876,186.106984 133.444783,186.362105 139.124937,185.343374 C144.805091,184.32552 144.296996,184.071275 147.264097,183.476869 C150.231198,182.882463 152.690203,182.288934 154.301215,182.543178 C155.912228,182.798299 159.049278,182.882463 162.270426,183.052544 C165.492451,183.222625 170.112613,182.161812 170.112613,182.161812 C170.112613,182.161812 168.713599,182.840381 168.586575,183.561909 C168.459551,184.282561 168.586575,184.32552 169.476618,184.749845 C170.366661,185.173293 177.785727,185.597619 181.21975,185.767699 C184.652896,185.93778 184.737871,185.725617 185.585864,185.809781 C186.433858,185.894822 186.941953,185.85274 188.128968,185.85274 C189.315984,185.85274 190.757047,185.470496 190.799972,184.962007 C190.842022,184.452642 190.587974,183.476869 191.011971,183.010462 C191.435968,182.543178 192.029037,182.458138 192.114012,180.803795 C192.198986,179.149453 191.520942,178.385843 191.350993,177.282948 C191.181044,176.180053 191.011971,175.416443 191.05402,174.779955 C191.096945,174.143467 193.470976,161.204178 192.707958,154.161607 C191.944939,147.119035 191.605917,142.537375 191.18192,139.82222 C190.757923,137.107064 189.571784,128.282151 189.655882,123.785531 C189.740857,119.288035 190.333927,116.65792 190.249828,113.603479 C190.164853,110.549039 190.418901,109.531185 190.418901,109.531185 C190.418901,109.531185 194.99789,108.597494 196.608902,108.003964 C198.219039,107.409558 200,105.967379 200,105.967379 C200,105.967379 195.675935,96.8882215 194.658868,93.6637005 C193.640926,90.4400561 191.605917,88.2333896 190.757923,85.9425594 C189.910806,83.6517292 190.079879,80.7673697 189.910806,78.9850284 C189.740857,77.2035638 191.012847,67.7000815 191.012847,65.2400472 C191.012847,62.7791362 192.157813,53.3606942 191.182796,50.2632954 C190.207779,47.1667733 188.553841,44.9180249 187.960771,43.9001704 C187.367702,42.8814392 184.336651,39.4026737 184.103628,38.9783484 C183.870605,38.5540232 183.531583,38.3418606 183.658607,38.0025758 C183.78563,37.6632909 183.700656,37.3880055 183.255635,36.4122329 C182.810613,35.4355835 182.661689,34.7780547 182.259593,34.6930143 C181.856621,34.6088506 181.328377,35.0182719 181.328377,35.0182719 C180.988479,34.7640274 181.073453,34.084581 180.90438,33.618174 C180.734431,33.1517669 182.302518,28.2729035 182.133445,25.7278288 C181.963496,23.1818775 181.158428,20.6788847 180.35336,19.8731927 C179.547415,19.0666241 178.996395,18.9395019 178.954346,18.6852575 C178.91142,18.4301363 177.979329,17.2430777 176.962262,16.7757939 C175.94432,16.3093869 173.316241,15.8000212 170.052167,16.3514687 C166.788093,16.9037929 165.262056,18.0908515 164.07504,18.3030141 C162.888025,18.5151767 162.337004,18.4301363 162.337004,18.4301363 C162.337004,18.4301363 162.464028,19.1937464 162.718075,19.9573564 C162.972999,20.7218432 163.227047,21.3153725 163.227047,21.3153725 C163.227047,21.3153725 162.209104,24.8362198 161.955057,25.4727077 C161.701009,26.1091955 162.676026,27.5943338 162.463152,28.1028227 C162.25203,28.6121883 161.361111,30.182367 160.683067,30.9030185 C160.005022,31.6245468 159.962097,32.048872 160.513117,32.346075 C161.065014,32.6424013 162.421103,32.9396043 162.463152,33.1517669 C162.506077,33.3639295 162.548126,34.1485805 162.506077,34.402825 C162.463152,34.6579461 162.294079,35.0393128 162.506077,35.1673117 L163.354071,35.6758006 C163.099147,36.2491657 163.311145,36.2062072 163.481094,36.3754113 C163.650167,36.545492 163.905091,36.673491 163.94714,37.3731016 C163.98919,38.0727122 163.778067,38.2857515 164.159139,38.6460772 C164.541086,39.006403 164.795134,38.9213626 166.53317,38.8371989 C168.271206,38.7512818 168.695202,38.6241596 169.246223,39.4307282 C169.797244,40.2364201 169.755194,41.7636403 169.755194,41.7636403 C169.755194,41.7636403 168.907201,43.036616 168.525253,43.2908604 C168.143306,43.5459816 167.889258,43.2487786 168.186231,43.9273483 C168.483204,44.6067946 168.610228,45.1573654 168.525253,45.3704047 C168.440279,45.5825673 168.059207,46.5574633 167.550236,47.5341127 C167.042141,48.5090087 166.660194,49.0613328 166.321171,49.4006177 C165.982149,49.7399025 164.456112,54.3636448 163.438169,56.9087194 C162.421103,59.4546708 161.827157,65.4785109 161.234087,68.5329512 C160.640141,71.5873915 160.301119,74.2183832 159.877122,74.9819933 C159.454002,75.7456034 159.284053,75.9998478 158.606008,75.7456034 C157.927088,75.4904822 156.40105,75.9148074 155.044962,76.5092134 C153.688873,77.1027427 151.653864,78.121474 151.653864,78.121474 L149.618855,77.9513932 C149.618855,77.9513932 149.745879,76.5092134 150.042852,76.2120104 C150.338949,75.9148074 150.339825,76.0848882 151.229867,75.8727256 C152.11991,75.660563 152.882929,75.1091155 152.882929,75.1091155 C152.882929,75.1091155 151.695913,74.5997499 152.288983,74.8539944 C152.882929,75.1091155 153.306926,74.4726277 153.603023,74.1754247 C153.899995,73.8782217 153.772972,73.496855 153.772972,73.496855 L153.475999,73.0304479 C153.475999,73.0304479 153.730922,72.9874894 154.239018,72.3518783 C154.747989,71.7153904 154.70594,71.7574723 154.917938,71.0789026 C155.12906,70.3994562 155.25696,69.9330491 155.087011,69.7208865 C154.917938,69.5087239 154.663014,69.0423168 154.875013,68.5329512 C155.087011,68.0244623 154.959987,67.5571785 154.578916,67.2608522 C154.196968,66.9636492 153.603023,67.0907715 153.730922,66.7085281 C153.857946,66.3271614 153.687997,65.6906736 153.475999,65.6056332 C153.264,65.5205928 152.967904,65.8607543 152.924978,66.1149988 C152.896945,66.2850796 152.642606,66.2991068 152.161959,66.1570806 C152.161959,66.1570806 152.373958,65.7757139 151.992886,65.5635513 C151.610939,65.3513887 150.889969,64.7789003 150.932895,64.5667377 C150.974944,64.3545751 151.271917,64.0152903 151.419965,63.612006 C151.56889,63.2087217 151.737963,62.6783151 151.546989,62.4240707 C151.356891,62.1698262 150.974944,61.8305414 150.868945,62.2539899 C150.762945,62.6783151 150.826895,62.9123954 150.614897,63.3577615 C150.421295,63.7636759 149.856258,64.3659723 149.759895,64.4667934 C149.771284,64.4308484 149.769532,64.307233 149.63988,63.888168 C149.448906,63.2727211 149.702954,62.8694368 149.215883,63.1236813 C148.727937,63.3788024 148.622813,63.5690474 148.664863,63.7391282 C148.706912,63.909209 148.515938,64.2905756 148.43184,64.4396155 C148.346865,64.5877786 147.43317,64.5649843 146.967124,64.5018616 C146.501078,64.4378621 146.034156,64.3957802 146.056057,63.9924959 C146.077081,63.5892116 146.204105,63.8224152 146.204105,63.2709677 C146.204105,62.7195203 146.11913,63.0167233 146.056057,62.2960717 C145.992107,61.5745435 146.331129,61.6166253 145.950057,61.5526259 C145.420061,61.8717465 145.378012,62.1680728 145.398161,62.6353566 C145.420061,63.1017636 145.165138,63.6111293 145.038114,63.5681707 C144.91109,63.5260889 144.339045,63.207845 144.190121,62.8256016 C144.042072,62.4442349 143.618075,62.3802354 143.554126,62.5503162 C143.491052,62.7195203 143.406077,62.9316829 143.449002,63.207845 C143.491052,63.4831303 143.258029,63.8224152 143.258029,63.8224152 C143.258029,63.8224152 142.855057,63.377049 142.516034,63.4200076 C142.177012,63.4620894 141.922965,63.7172106 141.83799,63.9284965 C141.753016,64.1406591 141.625992,64.3107399 141.583943,64.5649843 C141.22302,65.1593903 141.117021,65.2865125 141.117021,65.2865125 C141.117021,65.2865125 140.735073,66.1141221 139.781081,65.8590009 C138.827964,65.6047565 138.658015,65.3925939 138.700064,65.7958782 C138.74299,66.1982858 138.891038,66.135163 138.74299,66.432366 C138.594065,66.7286923 138.891038,66.9408549 138.340017,66.9408549 C137.788997,66.9408549 137.746948,66.6445286 137.365,66.8777321 C136.983929,67.1109357 136.665931,67.0688538 136.686956,67.6413422 C136.707981,68.2138306 136.601981,68.4470341 136.538907,68.5531154 C136.474958,68.6591967 136.199885,68.8292775 135.987887,69.0414401 C135.775013,69.2536027 135.902912,69.3167255 135.542866,69.4228068 C135.181943,69.5288881 134.94892,69.4228068 134.567848,69.7831326 C134.185901,70.144335 134.015952,70.2293754 134.015952,70.5046608 C134.015952,70.7808229 136.432032,71.9047587 136.517007,72.5833284 C136.601981,73.2618981 136.177985,73.7291818 136.474958,74.1955889 C136.77193,74.661996 136.686956,74.4927919 137.110953,74.7891182 C137.534073,75.0863212 137.788997,75.0442394 138.170068,75.2984838 C138.552016,75.5527283 139.781081,75.9779302 139.484108,76.020012 Z M149.759895,64.4667934 C149.753763,64.4834507 149.745879,64.4816973 149.745879,64.4816973 C149.745879,64.4816973 149.750259,64.4764371 149.759895,64.4667934 Z M138.065821,134.64177 C130.435633,122.423132 119.752493,92.3880947 117.71836,86.2783374 C115.683351,80.1694569 115.17438,77.5402185 115.17438,77.5402185 C115.17438,77.5402185 118.396404,78.1337478 123.229441,79.4917639 C128.061602,80.8489033 139.210788,81.9947567 139.210788,81.9947567 C139.210788,81.9947567 139.528785,82.2709188 139.54981,82.4401229 C139.570834,82.6102036 139.400885,82.9494885 139.295762,83.2887733 C139.189763,83.6280582 139.061863,84.4346268 139.719759,84.9010339 C140.376778,85.3674409 141.37282,84.9860742 141.690818,85.1552783 C142.008815,85.3253591 141.944865,85.4735222 141.923841,85.7067258 C141.902816,85.940806 141.986915,86.4072131 142.495886,86.8104974 C143.004857,87.212905 142.898858,86.8525792 143.194955,87.2339459 C143.491928,87.6161893 143.322855,87.7862701 143.661877,88.4218812 C144.000899,89.058369 144.530895,88.8041246 144.530895,88.8041246 C144.530895,88.8041246 144.615869,92.9404188 144.636894,93.2165809 C144.658795,93.492743 144.912842,93.492743 144.912842,93.492743 L145.251864,93.492743 C145.251864,93.492743 145.611911,93.4708254 145.865959,93.4287435 C146.120882,93.3866617 146.332881,93.3866617 146.459905,93.5348248 C146.586928,93.682988 146.862877,93.5348248 146.968876,93.4497845 C147.074875,93.3647441 147.264973,93.3647441 147.413897,93.3226622 C147.561946,93.2805804 147.815993,93.3866617 147.964918,93.3226622 C148.112966,93.2586628 148.197941,93.0684178 148.197941,93.0684178 C148.197941,93.0684178 148.451988,93.2376218 148.664863,93.19554 C148.875985,93.1525815 149.003885,93.0254592 148.91891,92.4319299 C148.833936,91.8375239 148.579888,88.4858807 148.579888,88.3587584 C148.579888,88.2316362 150.23295,87.6381069 150.23295,87.6381069 C150.23295,87.6381069 151.758987,89.0802867 151.843962,90.268222 C151.92806,91.4561573 153.539073,91.2860765 154.472041,91.3711169 C155.404132,91.4561573 161.000188,88.570921 161.93228,87.9773918 C161.93228,87.9773918 159.855222,109.525048 159.5162,110.288658 C159.176301,111.052268 159.855222,112.070999 161.042237,112.325243 C162.228377,112.579488 163.670316,112.198121 163.670316,112.198121 C163.670316,112.198121 163.79734,112.749569 163.79734,114.786154 C163.79734,116.82274 165.280452,123.270906 165.238403,124.756044 C165.196354,126.241182 165.492451,126.156142 165.450401,129.210582 C165.408352,132.265022 166.552442,144.567824 166.383369,146.350165 C166.21342,148.13163 166.891464,148.386751 167.315461,151.86464 C167.739458,155.343405 167.230487,155.174201 166.722391,160.180187 C166.21342,165.186172 166.764441,170.659442 166.510393,171.125849 C166.255469,171.593133 165.577425,172.865232 165.238403,173.120353 C164.899381,173.374597 164.602408,174.477492 164.34836,174.816777 C164.094313,175.156062 164.857332,175.665427 164.729432,175.920549 C164.602408,176.174793 164.39041,176.429037 162.864372,177.446892 C161.338334,178.465623 160.363317,178.634827 158.286259,178.847867 C156.209201,179.059153 154.090093,180.205006 154.090093,180.205006 C154.090093,180.205006 151.122116,174.859735 148.748085,165.865619 C146.37493,156.871502 145.69601,146.859531 138.065821,134.64177 Z M86.2637619,94.7183766 C86.2637619,94.7183766 86.8997569,82.4155751 87.1538045,81.5248428 C87.4078521,80.6341105 87.3658029,79.02185 87.3658029,79.02185 L89.1038389,78.3853622 C89.1038389,78.3853622 89.0617897,76.9852643 88.8918406,76.1366138 C88.7218915,75.2888401 88.170871,67.9911475 88.4249186,65.3610325 L88.3828693,60.6092913 C88.3828693,60.4181696 88.8918406,62.2005109 89.3578865,63.3665286 C89.8239325,64.5334229 90.6509013,65.0217476 90.6509013,65.0217476 C90.6509013,65.0217476 90.6509013,65.4460729 90.5878274,65.7643168 C90.5238775,66.0825607 90.7358758,66.8461708 91.1388479,67.1854556 C91.5418199,67.5247404 92.7919094,70.197814 92.8768839,71.5549534 C92.9609824,72.9129695 94.3179471,74.2701088 94.3179471,74.2701088 C94.3179471,74.2701088 94.2329725,74.6944341 93.3849791,75.4580441 C92.5378618,76.2216542 93.3849791,77.0703047 93.1309315,78.25824 C92.8768839,79.4461752 92.1988396,81.0584358 92.6219603,81.9912499 C93.045957,82.9249407 94.9110168,83.4334297 94.9110168,83.4334297 C94.9110168,83.4334297 94.4878962,84.9615265 92.2829381,87.3365204 C90.0788561,89.712391 86.2637619,94.7183766 86.2637619,94.7183766 Z"/>
</svg>
