<svg xmlns="http://www.w3.org/2000/svg" xmlns:xlink="http://www.w3.org/1999/xlink" width="200" height="200" viewBox="0 0 200 200">
  <defs>
    <path id="22-a" d="M124.901896,1.34026084 C125.580858,1.82251168 126.471576,1.8024179 127.251375,2.03349642 C126.750556,1.38714634 126.165707,0.794379679 125.869922,0.0140710267 C127.053064,-0.103142719 127.782445,1.03215614 128.646273,1.62827176 C129.409265,2.78701336 131.580601,2.35499698 131.735216,3.94575497 C131.836052,5.02412143 132.891469,5.59009638 133.066251,6.6349732 C133.745214,7.28132329 134.582152,7.74348034 135.193891,8.47020557 C135.361951,9.30074868 135.409008,10.392511 136.306448,10.7910377 C136.350144,10.0810573 136.131666,9.40456657 135.973689,8.72472684 C137.842517,8.72807581 136.948437,11.5211119 137.929908,12.4822646 C139.186997,13.1888961 139.990324,14.7428155 139.36514,16.1125418 C139.368502,17.0636476 138.195443,17.1741635 137.738319,17.8607011 C137.731597,20.0609706 136.188806,21.8995519 136.229141,24.1065193 C135.288005,26.3436274 134.091417,28.5171051 133.714963,30.9417552 C133.493124,32.0871009 132.461235,32.5727007 131.651186,33.2558894 C131.704965,34.0964794 131.812524,35.7743105 131.866303,36.6149005 C131.452875,36.0455766 131.291538,35.2719659 130.693244,34.8499964 C130.273094,36.4240095 129.328597,37.78034 128.515186,39.1701602 C128.353849,39.183556 128.034535,39.2069988 127.876558,39.2170457 C128.276541,37.6966159 129.331958,36.4005668 129.59077,34.8265536 C128.058063,35.8546856 127.311877,37.6966159 125.772447,38.7381438 C124.959036,39.0060609 124.276713,39.5318483 123.503637,39.8901875 C123.466664,39.0964829 124.390994,38.9826182 124.875006,38.5506018 C126.821141,37.03687 127.190873,34.6189178 127.755555,32.3985546 C128.219401,30.4862961 130.847859,29.5485861 130.582324,27.4487855 C129.052978,28.0348543 129.311791,30.4595043 127.644635,30.6135567 C126.485021,33.0449047 125.439688,35.536534 124.838033,38.1688199 L124.538886,38.2391481 C124.162432,35.5197892 125.496828,33.198957 126.5388,30.8178435 C125.627915,30.6369994 126.014453,31.7555535 125.493467,32.1641271 C124.696863,32.3248774 123.476747,31.0824117 123.826312,33.1755143 C123.493553,34.4983551 122.727199,35.6403519 122.219658,36.8962135 C122.145712,38.4635287 122.233103,40.0375419 122.152434,41.6082061 C120.945763,40.9049236 121.2718,39.3577021 121.130629,38.1721688 C119.624812,39.0462485 119.251718,41.0388822 119.829845,42.5794057 C119.244996,42.646385 118.898792,42.17753 118.542505,41.805795 C117.634981,38.7816803 122.048237,37.5660063 121.184409,34.5184489 C120.441583,35.0408873 119.668507,35.5532788 118.754261,35.7140291 C117.194664,35.2853617 116.196388,33.1621184 114.441841,33.1755143 C114.909048,35.8245449 115.729181,38.4735756 115.396422,41.1996324 C114.660319,45.1346653 116.273695,49.002719 116.159414,52.9477988 C116.549314,57.3918742 117.023243,61.8560435 116.750986,66.3202127 C116.65015,68.9558475 115.406505,71.3168673 114.485537,73.7314704 C113.090639,75.7609427 112.065472,77.9913529 110.872246,80.1413879 C111.383149,81.0757489 111.544486,82.0603443 111.10753,83.0683826 C112.035222,85.3858658 113.82338,86.9900196 115.705652,88.5271942 C116.472006,90.41601 117.359363,92.375154 117.137524,94.4682566 C116.750986,96.30014 117.571118,97.9746221 118.512254,99.4716091 C124.454856,107.214414 131.183979,114.468271 135.77874,123.148786 C137.613955,125.680603 138.141663,129.012822 140.410474,131.226487 C141.916291,134.488378 140.070992,138.011489 139.997046,141.360453 C139.623953,144.106604 137.687901,146.303524 137.244223,149.029581 C136.061081,152.49241 135.476232,156.119338 134.081334,159.511839 C133.14692,163.175606 131.21423,166.450893 129.597493,169.840044 C128.239568,173.128727 125.695139,175.811247 124.54897,179.207097 C124.182599,180.613662 122.730561,181.209778 121.74909,182.124045 C120.01135,182.130743 118.149245,182.566108 116.498896,181.846081 C115.157777,181.26671 114.132611,180.164901 112.81502,179.545342 C111.608349,181.146147 111.830188,183.242599 111.699102,185.124717 C111.231895,185.171602 111.040306,185.409379 111.124336,185.841395 C112.011693,186.598261 113.396508,186.102614 114.458647,186.551376 C115.806488,186.199734 117.103912,185.509848 118.522338,185.282118 C118.599646,186.286807 117.251804,186.233224 116.798042,186.899668 C116.09219,188.078503 114.626707,188.57415 114.132611,189.927131 C113.678849,191.146154 112.374703,191.621707 112.082278,192.911059 C109.389957,195.925126 105.628774,197.730218 102.274296,199.913743 C121.345746,200.041003 84.2212902,200.007514 99.6928946,199.940534 C99.666005,198.788491 97.8812077,198.520574 98.4626954,197.070472 C97.7534821,191.919765 102.486052,188.470332 105.598523,185.138113 C105.998506,183.061755 106.869057,181.116007 107.742969,179.207097 C108.052199,178.420091 109.137867,178.085194 109.084088,177.154182 C107.359792,178.567445 105.874142,180.255323 104.304461,181.832685 C101.823896,179.645811 98.9904038,177.850767 97.0644361,175.097918 C96.4762261,174.662553 96.3014437,173.768379 95.6426484,173.487066 C95.1384684,173.875546 94.846044,174.488407 94.4158104,174.960611 C94.1805264,179.039649 93.1822499,183.038312 91.9789402,186.929808 C91.8848266,187.304892 91.9957462,187.612997 92.3116991,187.857472 C93.9049079,186.959949 95.8275144,187.201075 97.5955057,187.274752 C98.9635142,188.781786 97.8475957,190.687346 96.5333665,191.809249 C95.249388,192.619699 94.291446,193.825326 93.2091395,194.873552 C91.3672018,196.427471 88.9941945,197.288155 87.4883768,199.233903 C86.0632279,200.107983 85.8682783,198.878913 85.3708207,198.165583 C84.9540319,195.955267 83.9355882,193.765044 84.3322098,191.474353 C84.5069922,188.500473 85.2834295,185.483056 84.6145506,182.519223 C84.2313738,180.148156 82.9305894,177.991423 83.209569,175.516539 C83.512077,173.597582 83.814585,171.50448 84.9473095,169.876883 C88.0228076,169.441518 91.1319178,169.243929 94.2006936,168.744933 C96.2140525,166.484382 97.7400373,163.815258 99.6592826,161.444191 C101.561722,159.290807 102.398661,156.460932 104.136401,154.197033 C107.376598,151.976669 109.638686,148.711429 112.16967,145.777737 C114.001524,143.667889 115.218278,141.146119 116.488812,138.68798 C117.083744,137.937812 117.292139,136.993404 117.443393,136.072439 C116.09219,135.610281 115.86699,134.277394 115.719097,133.024881 C113.688932,131.457566 111.319286,130.365804 109.406763,128.637738 C106.143038,125.75428 102.798644,122.954546 99.5584466,120.037598 C94.4998404,116.76566 89.4008997,113.497071 84.8095003,109.605575 C81.6298049,106.015485 79.0652092,101.53792 78.6921159,96.6986667 C78.7694235,93.590828 76.1443262,91.5245171 75.0048793,88.8888823 C71.6840136,84.3041503 67.2606741,80.593498 64.2960956,75.7609427 C62.7331375,72.2445303 61.0693434,68.7883993 59.5500809,65.2351483 C59.3551313,63.1286499 58.5921389,61.0991776 58.158544,59.0328667 C58.3030757,57.3416398 57.6073072,55.5733867 58.3467713,53.9692328 C59.0257337,52.3215425 60.6626382,51.3436449 61.6037742,49.8567048 C63.9633368,46.3603862 68.3429806,45.3690928 71.6772912,43.1286358 C76.1140754,40.2284328 77.7509799,34.9303715 81.0012605,30.9919896 C83.0146194,28.8486526 86.2346491,29.0797311 88.9202481,28.4467769 C89.0479737,27.2311029 87.60938,27.405249 86.8732772,27.7669371 C86.8833608,27.5392076 86.903528,27.0803995 86.9136116,26.849321 C89.2093113,24.7997549 92.7654611,24.7629163 94.9872144,22.8372619 C92.7553775,23.3597003 90.3924537,22.7803295 88.2009512,23.4099347 C90.1706145,22.0837449 92.227669,22.1306304 94.1872488,21.6919161 C95.0107428,21.045566 95.8241532,20.3791222 96.3283333,19.4414122 C94.8090708,19.2036357 94.1738039,20.6972738 93.2730023,21.5077231 C93.2998919,20.6202476 93.5620655,19.7595638 93.3906443,18.8754373 C94.1670815,17.3583565 95.2695552,15.3121394 97.3165261,15.7374578 C97.9316257,15.5264731 99.2156042,15.7274109 99.0038486,14.7595603 C97.3971949,14.320846 96.0527148,15.2485091 94.6679004,15.8245309 C93.4847579,16.005375 93.4074503,17.6731591 92.261281,17.8071177 C94.2679176,13.8787827 99.0172934,13.2156878 102.623861,11.3737575 C104.375046,10.9417411 106.085897,10.2418076 107.632049,9.30074868 C108.411848,8.96585227 108.69755,8.0180954 109.605074,7.90757959 C110.26723,7.11722404 110.754604,6.13597754 111.729352,5.68386737 C113.944383,4.00268736 115.833378,1.87609511 118.253442,0.452785334 C119.36936,-0.300731606 120.058407,0.573348044 120.841566,1.03885406 C121.32894,0.747494181 121.772619,0.38580605 122.276799,0.12123788 C123.37255,-0.404549495 124.041429,0.924989282 124.901896,1.34026084 Z M77.0925222,58.9712878 C75.5530925,59.3095332 73.8438804,59.4657923 72.8892995,60.9426855 C72.1599191,63.3438929 72.1599191,63.3438929 72.8892995,64.5071445 C74.5295652,66.4997782 74.4631779,68.9030465 76.0395808,70.9693574 C76.2981972,70.9625586 76.788669,72.3258674 77.0925222,72.8324885 C77.4754506,73.4709533 77.665919,73.3034064 77.8870053,73.532782 C77.9711424,71.4956921 79.6890752,70.3907505 79.7585398,66.0862103 C79.7759404,65.0079449 79.833935,61.6051671 79.7585398,60.9426855 C79.6539575,60.0237414 78.967514,60.2237738 78.9382791,59.6717886 C78.5651859,59.2029337 77.7378726,58.6129486 77.0925222,58.9712878 Z"/>
  </defs>
  <g fill="none" fill-rule="evenodd">
    <use fill="#fff" fill-rule="nonzero" xlink:href="#22-a"/>
  </g>
</svg>
