<svg xmlns="http://www.w3.org/2000/svg" xmlns:xlink="http://www.w3.org/1999/xlink" width="200" height="200" viewBox="0 0 200 200">
  <defs>
    <path id="25-a" d="M41.0099303,53.1239501 C36.6492713,53.9071498 33.7446989,54.4261274 33.7446989,54.4261274 C33.7446989,54.4261274 28.702009,55.4179139 32.8990841,51.896676 C35.9441624,49.340614 39.7562774,46.4551552 41.6205227,45.0634895 C41.8519313,38.5676111 46.4281995,32.7880629 53.0828201,31.3000234 C60.1771891,29.7134526 67.2203744,33.5403535 69.8812133,40.0376704 L83.4031197,43.2963977 C83.4031197,43.2963977 86.0754931,44.58234 79.7935774,45.9524295 C78.2501719,46.2889383 74.6860649,46.9715478 70.1872264,47.8098793 C70.3219461,48.2318981 70.4682629,48.6936077 70.6359948,49.198211 C71.800247,52.7043456 73.1937452,55.3071561 73.9449221,56.1378402 C74.6960991,56.9692436 75.8243064,58.4450566 76.5120442,61.433362 C77.199782,64.4209483 75.2216346,67.9371517 77.7101787,71.3260555 C80.1987227,74.7128017 80.3140666,73.8267386 80.5029422,76.1253244 C80.5769943,77.0268089 80.17554,78.1875442 79.7883136,79.5181962 C79.9227343,79.5282492 80.1096531,79.5479455 80.4005745,79.5825529 C80.4106671,79.5904642 88.2763983,81.2726896 89.580505,93.3934866 L89.580505,93.4438311 C88.7089378,93.5215055 88.9453928,93.5473969 88.9453928,93.5473969 C88.9453928,93.5473969 89.3721651,96.5544018 89.702337,97.6231435 C90.0325088,98.6940429 90.2999624,99.7872376 90.5883221,100.868925 C91.0078854,102.438235 91.4209607,104.010422 91.8145716,105.586204 C92.1670913,106.98722 92.4677063,108.432826 92.5909801,109.874836 C92.6551401,110.634319 92.5441216,111.364314 92.7019985,112.121639 C93.0170315,113.637728 93.8208341,114.971138 94.579941,116.297356 C96.431931,119.526595 96.8637497,123.354216 97.6033922,126.947374 C97.7547811,127.683123 97.9040072,128.42031 98.0712558,129.151025 C98.5953495,131.438103 99.4784511,133.61802 100.262789,135.82239 C100.732429,137.140935 100.973494,138.540221 101.506534,139.834469 C101.888115,139.194576 102.292139,138.477982 102.686453,137.757057 C103.539997,135.309595 104.818872,131.715717 105.174276,130.193156 C105.337199,129.49049 105.484262,128.780633 105.632768,128.073652 C106.357992,124.613547 106.783323,120.927611 108.594222,117.818479 C109.337469,116.541167 110.122528,115.256663 110.432514,113.797392 C110.587508,113.070273 110.479373,112.36617 110.542812,111.634017 C110.664644,110.247386 110.959492,108.855001 111.305523,107.506487 C112.098513,104.384409 112.958545,101.276716 113.879134,98.1877211 L113.136607,97.3663866 C113.136607,97.3663866 113.422083,96.6112191 113.864716,95.436754 C113.575635,94.0127239 113.419921,92.2319672 113.419921,92.2319672 C113.419921,92.2319672 114.491898,91.2329885 115.943068,89.8744063 C116.912677,87.2572117 117.890938,84.5824806 118.428728,83.0016634 C119.752299,79.1193835 122.087292,78.8856412 125.04442,78.0319424 C125.04442,78.0319424 125.745134,67.0057786 126.212277,60.2495472 C126.278479,59.2921736 126.278776,58.3363889 126.230741,57.3958898 C107.241003,51.3979697 102.600025,30.1014077 110.953004,28.9618812 C116.05836,28.2649922 125.753032,31.7702955 133.181775,34.931643 C135.785417,32.3866283 139.438949,30.9388916 143.357423,31.2547134 C149.837193,31.777568 154.824759,36.9424974 155.303165,43.210436 C163.585165,45.8213338 172.957135,49.041996 172.306572,50.0598211 C170.014335,53.6467281 165.308659,56.6979259 158.287275,58.3706924 C159.00589,59.5008937 159.733748,60.6247213 160.470849,61.7426211 L168.42453,55.74803 C168.42453,55.74803 168.513201,56.3298685 168.660985,57.3166207 C170.271474,55.1237582 171.80771,53.5343106 172.33685,52.0800738 C173.189674,49.7412124 175.420857,43.2798559 178.062232,39.3565812 C180.703606,35.4325874 183.939002,29.4113856 184.33838,27.9492376 C184.7392,26.4870896 187.822486,21.9359472 188.084893,20.6723003 C188.348021,19.4086534 190.196407,13.1961426 189.960673,11.5728922 C189.72566,9.94820341 189.903001,3.4645515 190.708966,3.08337175 C191.514932,2.7029112 191.9864,3.63931883 192.017398,5.59124686 C192.049118,7.5424557 192.157253,10.3725356 192.502564,10.9471821 C192.848595,11.5218285 193.338807,11.6030989 193.591121,11.3024704 C193.844878,11.0011226 196.654943,7.40436793 197.18192,6.50535907 C197.709618,5.60635021 198.806827,4.62679016 199.500332,5.1079397 C200.196,5.59052766 199.793738,6.85129768 199.121139,7.68557791 C198.447819,8.51985813 195.488528,12.3618624 195.467622,12.6581757 C195.446716,12.954489 196.044341,12.8566769 196.724149,12.6265306 C197.403957,12.3963843 198.975517,11.7001919 199.332363,11.8713632 C199.689929,12.041096 200.486522,13.3220039 199.586119,13.8650052 C198.684274,14.4087258 198.579023,14.4504398 198.579023,14.4504398 C198.579023,14.4504398 198.416821,15.7831305 198.783758,16.2477383 C199.151417,16.7116269 199.449869,17.6465961 198.988494,18.2305922 C198.526397,18.8138692 197.737013,19.5647214 197.021881,18.4952604 C197.021881,18.4952604 195.984507,20.3234849 195.788422,21.2706806 C195.591617,22.220034 193.784322,25.0141535 192.481657,25.9505611 C192.481657,25.9505611 186.811064,43.4740418 184.681528,47.0923727 C182.553434,50.712142 181.039545,54.7325096 180.295577,55.7084736 C179.55233,56.68228 178.016815,61.8641671 177.045764,63.5629342 C176.419302,64.659725 173.701512,69.7538688 171.035627,74.0432199 C171.094741,74.5035124 171.151692,74.9537361 171.20648,75.391014 C175.685427,79.0035912 179.886827,83.5274038 179.886827,83.5274038 L171.538815,78.211025 C171.684436,79.5530654 171.771665,80.586566 171.771665,81.1396363 L171.770223,81.3079307 C174.202537,86.0108259 178.203528,93.5107174 181.551384,98.6487328 L171.948285,86.6732156 C171.948285,86.6732156 182.751681,111.788646 187.797254,114.482796 C187.797254,114.482796 179.978382,110.595482 173.612842,101.147258 C173.612842,101.147258 183.923142,116.943923 187.759768,120.642086 C187.759768,120.642086 178.279222,113.403266 173.822623,107.182844 L173.822623,107.184283 L177.324031,113.711806 C177.324031,113.711806 176.402722,112.772522 174.81386,111.353526 C178.652648,126.591367 188.166355,159.175044 188.166355,159.175044 C188.166355,159.175044 184.387381,161.288945 177.990295,163.603776 L168.397857,198 L151.430773,198 L151.295029,169.296645 C150.517406,169.349321 149.732023,169.392423 148.939345,169.425183 C147.263156,169.494402 145.650489,169.52422 144.101153,169.520107 L136.954396,197.223256 L119.674442,196.912559 L122.88519,166.928885 C117.821742,165.553647 115.315165,164.144765 115.315165,164.144765 C115.315165,164.144765 121.698727,148.342347 124.733713,134.249484 C127.768699,120.155902 126.251206,112.00297 126.251206,112.00297 L122.259587,107.520152 C119.862597,113.138598 117.301242,117.738647 117.301242,117.738647 C117.105878,119.750269 116.645945,121.73528 116.09662,123.680016 C115.475204,125.878632 114.742771,128.040569 113.925992,130.175176 C113.126515,132.267349 112.269366,134.325 111.379055,136.381213 C110.63725,138.095084 109.784426,139.762206 109.04983,141.478234 C108.726146,142.233402 108.295769,142.938944 107.958388,143.689077 C107.914414,143.784012 107.877648,143.877509 107.845928,143.971006 C107.79114,144.231359 107.740677,144.44784 107.698144,144.613258 C107.659215,144.921078 107.666424,145.221707 107.706074,145.520178 C107.9519,146.043042 108.493296,146.756495 108.963322,147.454126 C109.419651,148.135934 110.248685,149.330537 109.73108,150.146837 C109.482369,150.540243 108.862396,150.53449 108.608639,150.898409 C108.171054,151.528434 108.799678,152.040509 108.989995,152.622348 C109.305749,153.591839 108.378673,154.333342 107.807,154.971278 C107.640258,155.157409 107.483311,155.354397 107.32806,155.55358 C106.991036,156.250992 106.732504,157.074073 106.052331,157.459735 C104.045348,158.598959 101.526526,158.632762 99.3508519,158.134351 C98.284642,157.89054 97.4721886,157.008073 96.7995896,156.200403 C96.5220434,155.86741 96.2560316,155.520753 95.9280225,155.234508 C95.6497554,154.994293 95.2669579,154.813772 95.0542926,154.50739 C94.6311248,153.893906 95.1335916,153.245901 95.3563494,152.645363 C95.8862103,151.220613 94.0969385,151.739162 93.914551,150.693435 C93.8280431,150.194305 94.0198023,149.408931 94.644101,148.316455 C95.1631484,147.412412 95.6994974,146.501176 95.7276125,145.431715 C95.7564485,144.344994 95.3167,143.285602 94.8956948,142.30748 C94.0832414,140.421719 93.1792338,138.580549 92.3119921,136.719241 C91.1556697,134.2351 90.0707164,131.70421 89.1061533,129.139517 C88.2720729,126.922921 87.5245005,124.677557 86.8901092,122.394074 C86.3292496,120.37526 85.8606651,118.312574 85.6616969,116.221839 C85.4670541,115.864393 85.2767367,115.50407 85.0878611,115.142309 C84.7086682,114.41591 83.3094028,110.565275 83.1198063,109.752571 L81.5295027,116.554832 C80.8367185,121.760453 80.0242651,127.064605 80.0293114,132.325605 C80.0401249,142.462829 83.4564662,152.840987 88.378766,161.634013 C89.716034,164.023219 91.196761,166.330435 92.8375276,168.524736 C93.864809,169.898421 94.9649011,171.21529 96.1284325,172.47606 C96.5689019,172.952175 99.2124393,176.245424 99.7596018,176.136824 C99.7596018,176.136824 94.7389639,177.138481 86.5764422,178.068237 L89.5545526,196.912559 L72.2753196,197.223256 L67.6962288,179.477957 C64.5604368,179.589415 61.2771394,179.643791 57.8854754,179.61872 L57.7989427,198 L40.831859,198 L37.2273346,178.414664 C30.1436225,177.608484 22.9384606,176.343501 15.8945137,174.458194 C23.051601,166.849703 30.2944753,158.785953 35.9600221,150.002996 C37.169691,148.128742 38.4110794,146.2437 39.622911,144.334925 C42.5014615,139.801043 45.0397476,135.028385 45.9048267,129.671011 C46.7504414,124.436622 45.909873,119.086441 44.2669437,114.08939 C42.7134059,109.359884 40.0713103,105.079163 38.4269392,100.385618 C38.0253984,99.239921 37.6743205,98.0611406 37.3823563,96.8111587 C37.2561989,96.2724726 37.1112982,94.8211127 36.7919398,94.4068494 C30.4328879,86.1755243 24.4256349,71.3116714 24.4256349,71.3116714 C17.4502142,63.5082745 11.0176306,44.0436538 11.0176306,44.0436538 C11.0176306,44.0436538 8.94144086,42.5966092 7.29851157,41.0344914 C5.65486138,39.470216 1.59619886,35.7109205 1.59619886,35.7109205 C1.59619886,35.7109205 4.57711707,38.1245795 4.17701801,38.3460953 C3.77763985,38.5661727 2.77703176,37.6894592 2.31421447,36.6782541 C1.85139718,35.6663297 2.27096051,34.5724157 2.27096051,34.5724157 C2.12029258,34.2243195 2.30772637,33.7115248 2.30772637,33.7115248 C1.22349397,32.9880025 2.25365893,31.8725123 2.78928704,31.6287011 C3.32635695,31.3856091 5.50707704,31.7725425 5.50707704,31.7725425 C5.50707704,31.7725425 5.98070782,31.6186322 5.76732166,30.8915138 C5.55321459,30.1658339 1.831212,26.1001562 0.699400249,24.9954541 C-0.430969704,23.8929096 -0.0402423351,22.8644435 0.806093331,22.6177555 C1.6531499,22.3710674 5.88699093,27.0200221 6.75711627,28.0779757 C7.62652071,29.1366485 8.19026388,29.4696414 8.31930484,28.9920879 C8.4476249,28.5152536 7.45638849,24.0425047 6.88904082,22.303462 C6.32241404,20.5629808 7.38069408,20.2810516 7.38069408,20.2810516 C8.92774377,19.8408969 10.8561491,27.8809129 10.8561491,27.8809129 C12.566843,30.5491712 12.9215254,33.8568046 14.2220275,36.650205 C15.2824703,38.9308107 17.937542,42.5664025 18.6123037,43.6365826 C19.2870653,44.7060436 22.5520178,51.0990754 23.8662171,53.0272696 C24.2901058,53.6479453 24.7298543,54.2578329 25.1674402,54.8698781 C27.3034645,57.8538684 29.8215654,60.7752875 30.9353547,64.3245745 C31.3931257,65.7831265 31.8263861,67.278358 32.7253474,68.5398473 C33.1737467,69.1691535 33.7850692,69.5855744 34.2990704,70.1501519 C35.274447,71.2196129 36.133038,72.4235655 36.9231435,73.6339911 C37.137167,73.9614471 37.3504585,74.2894508 37.5630107,74.6179877 C37.5050696,74.1970028 37.4284877,73.7576402 37.3297306,73.2981214 C35.9059547,66.6699088 37.6123231,62.5718669 39.7562774,58.2609396 C40.8630733,56.035847 40.7876,54.6912597 41.0099303,53.1239501 Z"/>
  </defs>
  <g fill="none" fill-rule="evenodd">
    <use fill="#fff" xlink:href="#25-a"/>
  </g>
</svg>
