<svg xmlns="http://www.w3.org/2000/svg" width="200" height="200" viewBox="0 0 200 200">
  <path fill="#fff" fill-rule="evenodd" d="M94.2526653,184.551496 C93.8617886,184.545312 94.0665188,183.61963 94.1696582,183.606335 C94.273417,183.591185 94.6444711,184.555824 94.2526653,184.551496 Z M93.2587483,185.142337 C92.9967184,185.184076 93.1206096,184.687534 93.2379965,184.653525 C93.3544542,184.618587 93.5217073,185.101216 93.2587483,185.142337 Z M61.866609,20.6840532 C61.0282222,20.1569543 60.2633968,19.5216051 59.5925582,18.7965843 C59.5922485,18.7975119 59.5922485,18.7987486 59.5919388,18.7999853 C59.5792399,18.7857631 59.5671605,18.7703041 59.5544617,18.7563911 C59.4119868,18.600874 59.2738482,18.4413376 59.1403554,18.2780911 C59.1344706,18.27098 59.128276,18.2647964 59.1223912,18.2576853 C59.1223912,18.2570669 59.1227009,18.2564485 59.1227009,18.2558302 C57.6638822,16.4625917 56.7446097,14.2058937 56.6290811,11.7219492 C56.6185504,11.4981036 56.616692,11.276113 56.6194796,11.0547408 C56.6191698,11.0565959 56.6185504,11.0590693 56.6182406,11.0606152 C56.6188601,11.0250596 56.6216477,10.989504 56.6225768,10.9539484 C56.6256741,10.7981222 56.6309395,10.6426051 56.6405411,10.4883248 C56.6439481,10.4360735 56.6492134,10.3841314 56.6529302,10.3318802 C56.6640804,10.1887303 56.6767792,10.0455804 56.6931948,9.90335799 C56.7000088,9.84368643 56.7086812,9.78432405 56.7164244,9.72496167 C56.7343886,9.59077796 56.7535918,9.45721261 56.7758922,9.32457479 C56.7861132,9.26428488 56.7975731,9.20430414 56.8090331,9.14401422 C56.834121,9.0085938 56.8613771,8.87379173 56.8917304,8.7399172 C56.8966861,8.71703795 56.9004028,8.69384952 56.9056682,8.67127945 C56.9065974,8.66942437 56.9078363,8.66787848 56.9090752,8.66633258 C57.5232657,6.02192412 59.0790293,3.72132276 61.2217273,2.15625838 C61.2198689,2.15656756 61.2180105,2.15687674 61.2164619,2.1574951 C61.257346,2.12750473 61.3003982,2.10060615 61.341592,2.07123414 C61.4530941,1.9920843 61.5652156,1.91417118 61.6798149,1.83904067 C61.7507426,1.79235463 61.8222898,1.74721449 61.8944564,1.70207435 C61.9867553,1.64456705 62.079364,1.58829646 62.1732116,1.53326259 C62.2267945,1.50172632 62.2788288,1.46709827 62.3330312,1.43648954 C62.3361285,1.43648954 62.3398452,1.43648954 62.3426328,1.43648954 C63.8206546,0.606034597 65.5083622,0.0958891551 67.3177929,0.0117924519 C67.8777811,-0.0138694097 68.4294066,0.00282625927 68.970811,0.0572417731 C68.9705013,0.0563142359 68.9698819,0.0560050569 68.9695721,0.0553866988 C68.9835099,0.056932594 68.9974476,0.0587876684 69.0113854,0.0603335637 C69.044836,0.0637345333 69.0779769,0.0686813982 69.1114275,0.0723915468 C69.2105405,0.084140351 69.309034,0.0968166922 69.406908,0.111038929 C71.5827469,0.415580299 73.5687226,1.34651844 75.1669188,2.72360195 C75.1681577,2.72329277 75.1690869,2.72298359 75.1700161,2.72267441 C75.231652,2.77492567 75.2920489,2.82965037 75.3524459,2.88437506 C75.3710295,2.90137991 75.3902327,2.9177664 75.4091261,2.93446207 C75.5008056,3.01886795 75.5921753,3.10451055 75.6819964,3.19108068 C75.6807575,3.19108068 75.6798283,3.19138986 75.6785894,3.19169904 C77.3455453,4.81674416 78.5110516,6.95873666 78.9084325,9.37528016 C78.9143174,9.41176329 78.9220606,9.44731888 78.9273259,9.48380201 C78.9508653,9.63560892 78.9697587,9.78865256 78.9867937,9.94231455 C78.9889618,9.95962857 78.9917494,9.9769426 78.9936077,9.99456581 C78.9936077,9.99425663 78.993298,9.99425663 78.993298,9.99394745 C79.0177665,10.2215032 79.0378988,10.4499866 79.0484296,10.6815617 C79.1874974,13.6768884 78.1319446,16.4505337 76.3051691,18.5483136 C76.3051691,18.5495503 76.3048593,18.550787 76.3048593,18.5517145 C76.2831784,18.576758 76.2602585,18.6002556 76.2385776,18.6246808 C76.2359704,18.6276217 76.2333621,18.6305615 76.2307527,18.6335001 C76.2347511,18.7130023 76.2139933,18.8028303 76.1871627,18.8865555 C76.1125183,19.1165847 75.5785473,19.9893971 75.3490389,20.4219386 C75.118911,20.854171 74.943605,21.1482002 74.9714805,21.4607803 C74.9984268,21.7730511 74.9166586,21.8469449 74.6400716,22.1224235 C74.3634845,22.3982112 73.2757199,22.8950619 73.1115641,23.097265 C72.9452402,23.3000865 71.8215472,24.4765128 71.4712448,24.7890928 C71.1221814,25.101982 70.0158332,26.885636 69.7581395,27.2535591 C69.5007556,27.621173 69.1129762,28.2645746 69.2238588,29.7538901 C69.3347414,31.243824 69.9978689,35.8410073 70.4773278,37.5328351 C70.9552381,39.2243537 71.3420883,40.2907123 72.226981,42.2954293 C73.1115641,44.3004555 75.3313844,48.8973297 75.5602733,48.8880543 C75.7910207,48.8787789 77.5409836,47.673599 80.699899,47.3149513 C83.8594339,46.9575403 87.0189688,47.5177727 87.2865738,47.4444973 C87.5529398,47.3706035 89.0910489,46.3311435 90.2336353,45.5047079 C91.3756023,44.6764172 92.8492879,44.0339431 95.12393,43.527817 C97.3991916,43.0213817 99.7289653,43.4078556 100.04272,43.4996817 C100.355545,43.5921263 100.650406,43.9962233 101.498441,44.1069094 C102.345237,44.2163588 103.376322,44.6213833 103.46893,44.6309679 C103.561229,44.6399341 103.882727,44.1894602 104.14135,44.097634 C104.398424,44.0054987 104.711869,44.0518755 104.9612,44.0339431 C105.209911,44.0144649 105.909587,43.1509278 106.204448,43.0587924 C106.498999,42.966657 107.107305,42.9944832 107.162127,42.9759324 C107.217878,42.958 107.429422,42.4153908 107.61371,42.3226371 C107.797998,42.2314292 108.092859,42.3411878 108.147991,42.3139801 C108.202812,42.2864631 108.230378,41.7809554 108.175556,40.9718338 C108.120425,40.1620938 107.981976,39.7116199 107.85313,39.4083153 C107.724283,39.1047015 107.577162,39.1693199 107.456988,39.1328367 C107.337433,39.0957353 107.190312,38.7652228 107.152835,38.6823629 C107.116287,38.5995029 106.886159,38.7185368 106.802842,38.6823629 C106.720145,38.6449522 106.619173,38.4980921 106.701871,38.4526428 C106.784568,38.4056476 106.608952,38.0841014 106.581387,38.0111351 C106.55444,37.9378597 106.314711,37.9554829 106.204448,37.9554829 C106.093565,37.9554829 105.965028,37.7900721 105.965028,37.6064197 C105.965028,37.422149 105.680078,37.1735691 105.568886,37.1466705 C105.457694,37.1188444 105.374686,36.9905351 105.403181,36.9076751 C105.430128,36.8248151 105.430128,36.392892 105.421146,36.2735488 C105.411854,36.1535874 104.924032,35.8771813 104.804787,35.7581474 C104.684303,35.6388042 104.656737,35.4919442 104.730762,35.4369103 C104.804787,35.3812581 104.67563,35.1323689 104.592314,35.049509 C104.509926,34.9669581 104.473068,34.6917888 104.352584,34.5631703 C104.234578,34.4345518 104.187809,34.3424165 104.288471,34.2410057 C104.390061,34.1392858 104.381079,33.9281165 104.278559,33.8090826 C104.177588,33.6888119 104.233339,33.5428794 104.371478,33.4692948 C104.509926,33.3950918 104.592314,33.0642702 104.61957,33.0095455 C104.647755,32.9535841 104.399353,33.0549949 104.298072,33.0367533 C104.196172,33.0178934 104.168916,32.8156903 104.187809,32.7059317 C104.205154,32.5952456 104.076617,32.6502795 103.965734,32.4765209 C103.855781,32.3012163 104.196172,32.1447717 104.288471,32.0622209 C104.381079,31.9793609 103.984318,31.7400563 103.965734,31.556404 C103.948699,31.3721333 104.178207,31.4920947 104.242321,31.4277855 C104.307364,31.3628579 104.205154,31.1155146 104.288471,31.0410025 C104.371478,30.9674179 104.168916,30.6183547 104.150022,30.4804609 C104.131748,30.3428762 104.280418,30.1131561 104.352584,30.0757455 C104.426609,30.0395715 104.436521,29.7263732 104.343292,29.6623731 C104.251613,29.5974455 104.316346,29.2854838 104.399353,29.2762084 C104.48236,29.2669331 104.537182,28.8622177 104.592314,28.5960145 C104.647755,28.329193 104.822751,28.0073376 104.785274,27.8969607 C104.749346,27.7865838 104.997748,27.4464868 105.00673,27.2807668 C105.015712,27.115356 105.172124,27.0229115 105.292609,26.9681868 C105.411854,26.9131529 105.374686,26.6648821 105.430128,26.6188145 C105.485879,26.5727468 105.54132,26.4258867 105.577868,26.2700605 C105.615035,26.1136159 105.946444,25.8925529 105.946444,25.8925529 C105.946444,25.7824851 106.250597,25.4881467 106.378825,25.4600114 C106.508601,25.433422 106.517892,25.184842 106.60059,25.0831221 C106.683597,24.9823297 106.996422,24.8719528 107.116287,24.8905035 C107.235842,24.9090543 107.291283,24.7158174 107.282301,24.615025 C107.273319,24.5129959 107.577162,24.3293436 107.687115,24.3571697 C107.797998,24.3846866 107.824944,24.2189666 107.89866,24.1092081 C107.972685,23.9991403 108.212104,24.1277588 108.294802,24.1648603 C108.378118,24.2007251 108.617228,23.9434881 108.718819,23.8516619 C108.8201,23.7595266 108.939655,23.7048019 109.068192,23.7224251 C109.197968,23.741285 109.327125,23.5941158 109.372965,23.5298065 C109.418185,23.4654973 109.566854,23.3916035 109.6861,23.4008788 C109.805345,23.4101542 109.954014,23.2265019 110.018128,23.2169173 C110.082551,23.2076419 110.276441,23.3279126 110.358209,23.3640865 C110.441216,23.4008788 110.929967,23.0515065 111.014833,22.9871973 C111.099079,22.9231972 111.068106,22.5917573 111.196333,22.5732065 C111.32549,22.5555833 111.702738,22.9136127 111.813931,22.9414388 C111.923884,22.9686465 111.969414,22.7482019 112.044368,22.7203757 C112.118393,22.693168 112.255913,22.8681633 112.374848,22.8950619 C112.495332,22.9231972 112.513606,22.7849942 112.550774,22.6746172 C112.587321,22.5642403 112.845325,22.3985203 112.937314,22.3895542 C113.029923,22.3802788 113.029923,22.1134573 113.186335,22.1230418 C113.341819,22.132008 113.462303,22.6195834 113.509382,22.6375158 C113.554602,22.6563757 113.701103,22.4724141 113.776057,22.4909649 C113.849773,22.5088973 113.959107,22.7296511 114.015477,22.7392357 C114.070609,22.7482019 114.245295,22.5367234 114.328922,22.5367234 C114.41069,22.5367234 114.594978,22.693168 114.687587,22.7021342 C114.779886,22.7107912 114.770284,22.1691095 114.927316,22.1870419 C115.083729,22.2059018 115.461597,22.527448 115.756458,22.693168 C116.05008,22.8582696 116.603254,23.0239896 116.722809,23.0515065 C116.842054,23.0790234 116.97214,22.5827911 117.100367,22.6288587 C117.230144,22.6746172 117.45036,23.2076419 117.745841,23.3916035 C118.040392,23.5758742 118.730466,24.1824835 118.951921,24.4496142 C119.172757,24.7158174 119.614739,25.1294989 120.177515,25.450736 C120.739052,25.7729006 120.96887,26.2784083 121.254439,26.7288822 C121.539389,27.1793561 122.028139,27.8598592 122.387424,28.2098499 C122.746089,28.558913 122.433883,29.1840731 122.350876,29.5795131 C122.267869,29.9749531 122.41499,30.4347024 122.737726,30.7747993 C123.060153,31.1148963 123.741245,32.0526364 124.257871,32.6230717 C124.772948,33.1928887 124.901486,33.616464 124.524547,33.9104933 C124.146369,34.2045226 123.57616,34.3424165 123.547665,34.443518 C123.520099,34.5443104 124.331586,35.4823596 124.285127,35.8595581 C124.238668,36.2364474 123.889914,36.5855105 123.9627,36.6683705 C124.036725,36.7512305 124.580298,37.1735691 124.680959,37.4954245 C124.78286,37.817589 124.569767,38.1947875 124.303091,38.6081599 C124.036725,39.0221506 124.036725,40.1163353 124.137387,40.7971476 C124.238668,41.4773415 123.557576,42.0106754 122.820423,42.0385015 C122.082961,42.0654001 121.097407,41.9374 120.840023,41.9095738 C120.58171,41.8823661 119.569519,42.3139801 119.218907,42.3609753 C118.869534,42.4061154 118.693918,42.6819031 118.65768,42.7459032 C118.620203,42.8102124 119.209615,43.0761064 119.209615,43.0761064 C119.209615,43.0761064 119.209615,43.0761064 119.384921,43.1231016 C119.560227,43.1694785 119.928184,42.8930724 120.130746,42.9110048 C120.333618,42.9295556 120.536489,43.2245124 121.181653,43.3073724 C121.825577,43.3889956 122.56242,43.6842616 123.09701,44.0054987 C123.63222,44.3273541 124.735471,45.090408 124.938963,45.1547172 C125.141525,45.2190265 125.739919,44.9982726 126.477381,45.2375772 C127.213295,45.4768818 127.904608,46.4514142 128.097878,46.5800327 C128.291148,46.7080328 128.447871,46.4885157 128.852995,46.4421388 C129.258738,46.3957619 129.202987,46.6449603 129.480194,46.7825449 C129.756162,46.9204388 130.086951,46.7176173 130.299424,46.746371 C130.510969,46.7735788 130.649107,46.9844389 130.750388,46.9844389 C130.852289,46.9844389 131.598733,46.6814434 133.108657,46.3042449 C134.6192,45.9270465 135.614356,46.1935588 137.03291,46.9287866 C138.451154,47.664942 141.407818,50.0830314 141.489895,50.1018913 C141.573212,50.120442 143.047208,49.990896 144.594299,50.1473406 C146.1417,50.303476 148.536516,50.717776 148.823015,50.469196 C149.107655,50.220616 148.60094,49.1459096 148.251257,48.2811358 C147.900645,47.416362 147.39424,46.5432404 147.30225,46.3589696 C147.210571,46.1746989 146.390721,45.6704279 146.251963,45.5504664 C146.114444,45.4305049 145.736266,45.4125725 145.027608,45.3204372 C144.318021,45.2283018 143.480207,44.3830063 142.973802,44.3091125 C142.465848,44.2361462 141.766792,43.8682232 141.462639,43.3073724 C141.158177,42.7459032 140.246338,42.2045307 139.896965,41.9642985 C139.546353,41.7259215 139.178705,41.0537662 138.893136,40.7513891 C138.606638,40.4480844 138.027137,40.1713692 138.055012,39.5928952 C138.082268,39.0128753 138.663008,39.0221506 139.464275,39.197146 C140.264921,39.3718322 141.453967,40.6128769 141.886347,40.8800076 C142.319657,41.1468291 142.301383,41.1551769 142.448194,40.9814183 C142.595005,40.8061138 142.402354,39.2707306 142.355895,38.3966814 C142.310365,37.5235598 142.199792,36.8430567 142.098201,36.291172 C141.99723,35.7395966 141.876746,34.783615 141.932497,34.581721 C141.987938,34.3795179 141.80365,33.5512273 142.13413,32.7152071 C142.465848,31.877641 143.176054,32.3290424 143.341759,32.687381 C143.507154,33.0457195 143.415164,33.9194595 143.461004,34.0388026 C143.507154,34.1581457 143.626709,34.6917888 143.63662,34.9490258 C143.644983,35.2059536 143.838563,35.748872 144.143335,35.8032875 C144.446868,35.8595581 144.474434,35.657355 144.539477,35.3812581 C144.60452,35.1054704 144.446868,34.6917888 144.405055,34.056735 C144.363551,33.4229179 144.41032,32.7516902 144.354569,31.8414671 C144.299748,30.9312439 144.871196,30.6641132 145.32185,30.6641132 C145.774053,30.6641132 145.966703,31.2988578 145.966703,31.8872256 C145.966703,32.4752841 145.939447,33.082821 145.99365,33.4321933 C146.04971,33.7812565 145.957412,34.617895 146.030507,34.9035764 C146.104223,35.1883304 146.261255,35.1601951 146.453905,35.0318857 C146.647795,34.9035764 146.58585,34.2391506 146.655229,33.7339521 C146.725227,33.2275168 146.871728,32.4879605 146.979824,31.8414671 C147.091326,31.1798239 147.524016,30.8669347 147.965068,30.8947608 C148.40736,30.9219686 148.46342,31.4645778 148.471783,31.7864332 C148.480146,32.1076702 148.214089,32.9535841 148.222762,33.174338 C148.232363,33.3950918 147.983342,34.319228 147.927591,34.3878658 C147.873389,34.4571219 147.927591,35.1323689 147.927591,35.3126203 C147.927591,35.4919442 148.591958,35.9875582 148.674035,35.9464374 C148.757352,35.9050074 149.005135,35.5234804 149.07823,35.0504365 C149.149778,34.5770834 149.160928,33.9491407 149.172078,33.616464 C149.185706,33.1885602 149.447736,32.8438256 149.834896,32.8023956 C150.222365,32.7606564 150.374752,33.1471302 150.45652,33.616464 C150.553155,34.1674211 150.166924,36.1161767 150.166924,36.1161767 C150.166924,36.1161767 150.166924,36.1161767 150.14865,36.3554813 C150.129757,36.5947859 150.516917,37.422149 150.646693,37.8457243 C150.77523,38.2683721 151.290617,39.5928952 151.437738,40.383466 C151.586717,41.1737277 151.529727,42.9394493 152.008876,43.7111602 C152.488026,44.4834895 154.569397,47.9589713 156.227061,50.5146453 C157.885345,53.0712469 157.922822,55.2960994 157.996227,56.6193858 C158.070252,57.944218 157.038549,58.6058612 156.337325,58.6420352 C155.638269,58.6794458 154.53254,59.5813211 154.201441,59.6178043 C153.870032,59.6539782 152.727755,59.5442197 152.359179,59.4156012 C151.990293,59.2863643 150.462095,59.5618429 148.74899,59.5618429 C147.034955,59.5618429 142.029132,58.9920259 140.689558,58.5511365 C139.349056,58.1096288 136.696236,56.578265 135.70108,56.3584387 C134.706543,56.137994 133.187018,57.061821 132.371195,57.6406042 C131.55692,58.2196966 131.598733,59.3930311 131.336084,59.819389 C131.072505,60.247602 130.671717,61.157516 130.562074,61.2545982 C130.45212,61.3504437 130.58933,61.7508306 130.45212,61.9848791 C130.312743,62.2189277 130.340928,64.0539054 130.230355,64.4122439 C130.120092,64.7708916 129.594484,65.3642062 129.387895,65.5150856 C129.180068,65.6675109 128.917109,71.1974874 129.02923,72.4110152 C129.138564,73.6248522 128.420305,75.9010284 128.25491,76.0939562 C128.088896,76.2871931 127.922882,77.0453001 127.784433,77.5826533 C127.646914,78.1212432 126.459107,80.4233905 126.0577,81.6239327 C125.658151,82.8235475 125.409439,83.9412298 125.588462,84.7138682 C125.768104,85.48527 125.533021,85.8581399 125.007722,86.6718992 C124.482733,87.4850401 123.889914,88.5742779 123.944736,88.8373893 C123.998629,89.099264 123.502754,89.7473033 122.977765,90.4234779 C122.451847,91.0990341 121.84478,91.7888126 121.71965,91.8843489 C121.595449,91.9814311 121.71965,92.2290835 121.899292,92.2847358 C122.078935,92.3397696 121.84478,92.9745142 121.982609,93.1671328 C122.120438,93.3597513 121.954424,94.1747473 122.064997,94.4223998 C122.17526,94.6706705 121.871727,95.2092605 121.939867,95.3737437 C122.010485,95.5394637 122.037431,96.0502275 122.024113,96.2848944 C122.010485,96.5192521 122.631489,97.8159491 122.631489,98.2157176 C122.631489,98.6151769 123.363686,99.98113 123.557576,100.380589 C123.750227,100.780358 123.778412,102.435393 123.847791,104.103724 C123.916551,105.772363 123.391252,107.193041 123.391252,107.193041 C123.391252,107.193041 123.391252,107.193041 123.391252,107.690201 C123.391252,108.186742 123.01741,109.523942 123.01741,110.406957 C123.01741,111.289354 122.549102,116.061224 122.535164,116.419871 C122.520916,116.779137 122.894139,118.846927 123.115284,120.267605 C123.335501,121.687973 122.728434,122.735472 122.590915,122.929327 C122.451847,123.122255 122.161942,125.715649 122.355522,126.956384 C122.549102,128.197429 122.037431,128.846705 121.816595,129.107961 C121.595449,129.369527 121.581512,130.707654 121.429435,131.162456 C121.277049,131.618495 121.263421,132.417723 121.208599,132.956622 C121.153468,133.493357 120.6833,133.976913 120.669363,134.349165 C120.655425,134.722035 120.655425,136.044703 120.476092,136.582983 C120.29707,137.120955 119.605757,137.617806 119.467618,137.686134 C119.329789,137.7557 118.901745,139.147624 118.6806,139.533479 C118.460073,139.92119 118.390075,140.402581 118.280121,140.940862 C118.169239,141.478834 117.630002,142.126873 117.45036,142.471608 C117.271028,142.816961 117.228905,143.699049 117.105633,143.795822 C116.981432,143.892595 116.750994,144.480962 116.750994,144.480962 C116.750994,144.480962 116.750994,144.480962 116.621838,145.437872 C116.492681,146.393853 115.81066,147.147323 115.81066,147.147323 C115.81066,147.147323 115.81066,147.147323 115.313857,147.900792 C114.816124,148.655189 113.637299,151.634438 113.195937,152.167154 C112.753645,152.701106 112.201091,153.600508 111.014833,155.808046 C109.827336,158.015276 107.737601,161.917424 106.370152,163.682218 C105.002084,165.448249 102.432581,168.496445 100.926683,169.957626 C99.4210957,171.420043 98.356251,173.020044 98.356251,173.020044 C98.356251,173.020044 98.5640784,173.227503 98.0393993,173.681687 C97.5137909,174.137417 96.0493971,176.191603 95.9530718,176.439255 C95.8561269,176.688763 96.1466517,176.798831 96.3811158,176.826038 C96.6155799,176.854792 96.6988967,177.116048 96.6573931,177.309285 C96.6155799,177.501595 96.2851001,177.846948 96.2160308,177.916513 C96.1466517,177.984223 96.2984184,178.38461 96.3266037,178.647412 C96.35355,178.909287 95.8697549,179.446949 95.2351223,179.833423 C94.5992509,180.219279 94.4617316,180.84011 94.3777954,181.253792 C94.2947883,181.667164 94.751637,183.721659 94.6680105,184.343418 C94.5856228,184.963013 94.143641,184.866858 93.9633794,185.045873 C93.7834274,185.225197 93.9779366,187.280001 93.9779366,187.280001 C93.9355038,187.845798 93.3553834,187.680697 93.3696309,187.294223 C93.3764449,187.101604 93.4941415,186.465932 93.3002518,186.329275 C93.107601,186.189526 92.914021,186.54972 92.85827,186.645256 C92.8031384,186.742957 92.7888909,187.90176 92.8031384,188.080465 C92.8164567,188.259789 92.7888909,190.273163 92.8715883,190.53411 C92.9549051,190.797222 93.1342376,191.96901 93.1209193,192.865939 C93.107601,193.761321 92.6789375,195.568473 92.2778398,196.864861 C91.8770518,198.161558 90.5511065,199.912748 89.6247101,199.996844 C88.6995527,200.078159 86.4338927,198.574621 85.2188299,197.031199 C84.0031477,195.48685 83.4220981,192.191001 83.5054149,191.556256 C83.5881122,190.92213 84.4442003,190.079926 84.5275171,190.025202 C84.6099048,189.96924 85.2321482,188.548253 85.246086,188.493838 C85.259714,188.438804 85.2736518,186.716058 85.2188299,186.535807 C85.1627692,186.356174 83.8222666,185.473467 83.3394007,183.69476 C82.8552959,181.914198 82.7862266,179.929578 83.2288278,179.129732 C83.6714291,178.329267 85.1763972,177.349788 85.3142262,177.322889 C85.4523648,177.295372 85.6595728,177.005362 86.0470425,176.605594 C86.4338927,176.205516 87.3599793,175.392684 87.6077617,175.405979 C87.856783,175.419892 88.0088594,175.226964 88.3130122,174.991988 C88.6171651,174.75794 89.2112233,174.454017 89.542942,174.247485 C89.8737314,174.040026 89.9663401,174.123504 90.1503185,174.104954 C90.3339872,174.087021 91.0531755,172.67129 91.274631,172.394884 C91.4951573,172.119406 91.5505986,171.604004 91.8274954,171.457144 C92.103463,171.309666 92.3608469,170.720989 92.6925655,170.041104 C93.0242842,169.36091 93.3191452,169.176949 93.4851594,169.103673 C93.6502444,169.030398 96.4322209,163.494547 96.9482277,162.336053 C97.463615,161.177868 97.2796366,160.240437 97.8139173,158.346715 C98.348198,156.451757 101.589811,151.561163 102.510942,150.56777 C103.432382,149.574996 105.606363,145.768075 105.772377,145.069948 C105.938082,144.370585 105.900914,143.047299 105.772377,142.641656 C105.643221,142.237868 103.340084,142.163356 101.571847,141.906119 C99.8036097,141.649501 97.9430739,140.895104 97.481889,140.692591 C97.0210138,140.490697 96.9482277,140.159876 97.2607432,139.644784 C97.5741879,139.13 97.8690489,138.523391 98.0350631,137.990057 C98.1998384,137.456105 98.9376103,136.444471 99.048493,136.280297 C99.1584464,136.114577 99.1959235,135.231871 99.6375955,134.5693 C100.079887,133.907039 100.060994,133.557357 100.116125,133.061743 C100.171876,132.565202 100.374129,131.921491 100.466118,131.756698 C100.559036,131.590978 100.521869,129.789083 100.57731,128.740038 C100.632751,127.693158 101.019292,126.772423 101.167032,125.136556 C101.312914,123.500072 101.258402,122.175549 101.167032,122.175549 C101.075043,122.175549 99.5452966,124.823358 99.3978661,124.916112 C99.2513648,125.007938 98.422223,127.012655 97.7030347,128.427149 C96.9847756,129.843807 96.4322209,131.167712 96.2296588,131.517085 C96.0264773,131.867075 95.8428086,132.21552 95.8245347,132.456061 C95.805951,132.694748 95.179681,133.594768 95.0876918,133.742555 C94.9953929,133.889725 94.7376992,134.385648 94.6079232,134.789745 C94.4800056,135.194769 94.3685035,135.452316 93.9643085,135.488799 C93.5588746,135.525591 92.7659711,135.618036 92.6185406,135.654828 C92.4711101,135.690693 92.0573135,136.555466 91.2833033,137.576376 C90.5096029,138.596357 89.7086464,139.092281 88.9618923,139.478445 C88.2160674,139.865228 86.9731291,140.886137 86.0888558,141.189751 C85.2042727,141.492747 83.4636016,141.82295 82.303051,141.906119 C81.1425003,141.989288 79.7880599,142.430178 79.4018292,142.568381 C79.0140498,142.707202 77.4672684,142.816961 74.6484342,143.699049 C71.8302195,144.582373 63.3467708,146.968308 62.2559089,147.394975 C61.1644276,147.823497 60.4186027,148.2783 60.0048061,148.595208 C59.5897707,148.911807 59.6730875,149.023112 59.6730875,149.229953 C59.6730875,149.436484 59.603089,149.602823 59.4104382,149.767615 C59.2165485,149.933026 59.1062853,150.291055 59.1332317,150.429877 C59.1607974,150.56777 59.0777904,150.898283 58.8851396,150.981452 C58.6918693,151.064003 58.2489583,151.46408 58.1247574,151.409665 C58.0014857,151.353704 57.4337544,152.029569 57.2689791,152.11212 C57.1029649,152.195907 57.130221,152.704198 56.8539436,152.774072 C56.577976,152.843019 56.0941809,153.201048 55.9832983,153.256391 C55.8724157,153.312353 55.7023751,153.343889 55.5741477,153.343889 C55.4453009,153.343889 54.283821,154.631311 53.9898892,154.906789 C53.6950282,155.182886 53.6950282,155.532259 53.6027293,155.937283 C53.5113595,156.34138 53.0873419,157.040434 52.9575659,157.186676 C52.8296483,157.335082 52.8473028,158.070619 52.7553136,158.217169 C52.6627049,158.364029 52.5162036,158.952088 52.4787265,159.357422 C52.4418689,159.761828 51.8524566,161.121907 51.5953824,161.380071 C51.3364498,161.63669 51.3559627,163.200517 51.1338877,163.531648 C50.9133614,163.862779 50.7287635,164.80021 50.5630591,164.985099 C50.3970449,165.168133 50.3233296,165.88481 50.2133762,166.602724 C50.1031131,167.318473 49.0714092,169.341741 47.2108734,169.378843 C45.3497181,169.415635 43.8215204,167.430396 42.8443287,165.150201 C41.8696148,162.869696 41.8872693,157.73856 42.1638563,156.451757 C42.438585,155.164335 43.7292214,153.546711 44.2083706,153.031309 C44.6869003,152.515598 45.4606007,150.457084 45.7192236,150.125954 C45.9769172,149.796369 45.8846183,149.133489 46.0503227,147.55142 C46.2163369,145.970278 47.0628234,143.00927 48.5368188,141.685674 C50.0111239,140.362388 51.797325,140.986621 52.3501894,141.207374 C52.9021246,141.429056 52.8113743,141.556747 53.2707009,141.611162 C53.7309566,141.667433 53.953651,141.722158 54.2670957,141.815221 C54.578682,141.906119 54.7261126,141.594157 55.1687138,141.759259 C55.6103859,141.92467 56.5683744,142.716168 56.8077942,142.734719 C57.0478333,142.752033 57.4898151,142.182525 57.895249,142.146351 C58.3003732,142.108941 58.7968671,141.722158 59.4599947,141.373404 C60.1237417,141.024031 60.2256422,141.189751 60.6394387,141.05093 C61.0544742,140.913036 64.2307344,139.175759 66.4425017,138.126714 C68.6524107,137.079834 69.0123146,135.921649 71.6369493,134.458614 C74.2612743,132.996506 79.4018292,133.272912 79.8162452,133.162226 C80.2303515,133.052159 80.5202568,132.48667 80.7832159,132.156467 C81.0461749,131.825336 80.7280843,131.618495 80.7556501,131.466379 C80.7832159,131.314263 81.1836941,131.14978 81.4472726,130.624485 C81.7093025,130.100735 81.0040519,129.618107 80.534814,129.135169 C80.0649567,128.653159 79.0794024,128.206704 78.6739685,127.287515 C78.2682249,126.368635 78.9499361,125.945369 79.3191318,125.77934 C79.6870886,125.61362 79.7425299,125.264556 80.0559746,124.951976 C80.3687999,124.640324 81.0867493,124.272401 81.6216494,123.922719 C82.1556204,123.573347 82.0081899,123.573347 82.1930975,123.297869 C82.3767662,123.021462 82.8001643,122.543472 83.1501569,121.954486 C83.500769,121.366736 83.3158614,121.385596 83.2975874,120.980571 C83.2793135,120.575547 83.40847,120.098484 83.6655442,119.711391 C83.9244768,119.325536 83.8773982,118.489207 83.987971,117.661225 C84.0982342,116.833553 86.3372576,109.055535 86.8071149,107.869524 C87.2772819,106.682586 88.8513194,98.8773608 88.9160526,98.059273 C88.980476,97.2411852 89.2294973,96.128759 89.910589,94.6481005 C90.5929197,93.1671328 90.9326913,91.7430541 91.6884275,90.5285987 C92.443854,89.3150709 93.9451054,88.9471479 94.5069519,88.85594 C95.0687984,88.7628771 95.8521004,88.4240169 95.9896197,88.3587801 C96.1274486,88.2947801 96.1924915,87.7240355 96.3857617,87.5595523 C96.5796514,87.3938323 96.5059362,87.117117 96.5988545,86.851223 C96.690534,86.5837832 96.8463272,86.4468168 97.0210138,86.3454061 C97.19601,86.2455413 97.2424692,85.9409999 97.1597719,85.885966 C97.0764551,85.8300046 96.5616872,85.2604968 96.6075269,84.9296752 C96.6533667,84.5976169 96.4919984,84.4516844 96.2984184,83.9962636 C96.1057676,83.5414613 96.339922,82.9762819 96.8924766,82.5474506 C97.4444119,82.1204743 97.0445531,81.6922613 97.3480865,80.9616712 C97.6534782,80.2316995 98.7022171,79.8588295 98.8824788,79.6798148 C99.062121,79.500491 98.3293046,78.8243164 97.9012606,77.3350009 C97.4729068,75.8459946 97.5556042,73.5014898 97.5137909,73.115016 C97.4729068,72.7279238 97.404457,72.3838075 97.5137909,72.1497589 C97.625293,71.915092 97.4314033,70.3979504 97.4729068,70.1360757 C97.5137909,69.8742011 97.3205207,69.5560558 97.2105673,69.3770412 C97.1003041,69.1977173 96.9482277,68.2602864 96.6988967,67.1982564 C96.4511143,66.1356079 96.4086816,65.322467 96.4229291,65.0605924 C96.4362474,64.7987177 95.8979402,64.1358378 95.8149331,63.5981754 C95.7322357,63.0608222 95.5662215,62.523469 95.2069371,62.0677391 C94.8473429,61.6132459 94.9579158,61.0891874 95.0687984,60.8270036 C95.1790616,60.5642014 94.8473429,60.067969 94.6680105,59.7646643 C94.4892974,59.4613597 94.0055024,58.0403727 93.8803723,57.7927203 C93.7555519,57.543522 92.9967184,56.7436758 92.7619446,56.6620525 C92.5265514,56.578265 87.9670461,57.9306142 85.2188299,58.3303827 C82.4684457,58.7301512 78.4621146,57.9720442 77.8826135,57.7791164 C77.3012542,57.5855703 70.8359928,56.937531 69.4546061,56.7170864 C68.0722902,56.4963325 67.7269436,55.8751918 67.6027426,55.5725055 C67.4785417,55.2682733 67.533983,54.5104754 67.4785417,53.3513632 C67.4234102,52.1925601 65.8487532,47.269502 65.406152,45.4218479 C64.963241,43.5735755 64.4664374,39.8909438 64.38374,37.8914828 C64.3004232,35.8914035 64.3790941,31.8965009 64.3239625,30.8765192 C64.2682115,29.8553008 63.8999449,29.5337546 63.6521626,28.5678792 C63.4031413,27.6029314 63.3111521,26.858119 63.0714226,26.3062344 C62.8320029,25.754659 62.5823622,24.936262 62.6105474,24.1546574 C62.6387327,23.3733619 62.5823622,21.9941141 62.4909924,21.7362588 C62.4215321,21.5415991 62.0450264,20.9563146 61.866609,20.6840532 Z"/>
</svg>
