<svg xmlns="http://www.w3.org/2000/svg" width="200" height="200" viewBox="0 0 200 200">
  <path fill="#fff" fill-rule="evenodd" d="M155.213454,34.5059209 C153.501655,34.2616074 152.88952,33.2829923 149.953451,32.1825607 C147.018062,31.0828096 142.125749,27.5372012 142.125749,27.5372012 C143.226094,26.5592666 145.794473,23.9922733 147.140626,22.0357236 C148.484735,20.0791739 149.953451,16.2899325 149.953451,16.2899325 C149.953451,16.2899325 153.501655,17.2678671 154.479436,18.7351093 C155.457899,20.2023514 155.579781,21.1796055 155.94679,22.5250312 C156.31448,23.8697763 157.537388,32.4275547 157.537388,33.8947969 C157.537388,35.362039 156.925934,34.750915 155.213454,34.5059209 Z M102.253432,27.1197734 L40.1157333,46.5058658 C43.0606541,49.9779759 40.9641428,59.646394 37.2334558,58.9161757 C35.1927789,58.5166992 31.5315443,48.7836299 33.6266938,46.8529407 C36.0772765,44.5962732 38.0968453,45.1386628 39.1890195,45.7708836 L105.121326,25.1998602 C106.509526,24.3795443 107.586083,23.8697763 107.586083,23.8697763 L106.767633,22.8918417 C106.767633,22.8918417 106.760824,22.8918417 106.107154,22.2392048 C105.455526,21.5879289 105.27781,21.0986214 103.973193,20.1206868 C102.668576,19.1420716 103.943914,20.1206868 103.456385,19.6313792 C102.966813,19.1420716 102.420045,18.6527641 101.931154,18.0008077 C101.442263,17.3488513 101.164453,17.0235536 100.349408,16.0449385 C99.5343629,15.0670039 98.7349786,13.1111347 98.7349786,13.1111347 C98.7349786,13.1111347 98.7349786,11.9698707 98.7349786,10.6659579 C98.7349786,9.36204512 98.9923612,8.38411052 99.1557788,7.73283466 C99.3185155,7.08019773 100.556404,6.26491196 101.208031,5.45030673 C101.861021,4.63434043 103.472045,4.7976698 103.960936,2.02651484 C104.451189,-0.744640123 109.302648,0.722602041 111.42231,0.0706456435 C113.541973,-0.581310754 116.721806,3.493757 116.721806,3.493757 C116.721806,3.493757 117.53617,4.30836223 118.025061,4.63434043 C118.515314,4.96099917 119.164899,5.61227502 119.655152,6.42824133 C120.144042,7.24284656 119.162175,8.22078115 119.162175,8.22078115 C119.162175,8.22078115 119.162175,9.85135269 119.162175,10.5026285 C119.162175,11.1552655 119.899597,13.9264204 120.225751,16.6975754 C120.551905,19.4687304 126.019585,18.9801033 126.019585,18.9801033 C126.019585,18.9801033 140.535151,13.4364323 140.535151,12.6225076 C140.535151,11.8065413 140.535151,12.6225076 140.208997,11.3172338 C139.882843,10.0140015 140.371053,9.85135269 140.698569,8.54675935 C141.023361,7.24284656 142.165922,8.05813232 143.960111,7.56882476 C145.753619,7.08019773 146.895499,6.59089016 149.341316,5.77628493 C151.788494,4.96031863 150.973449,5.77628493 153.419946,7.08019773 C155.865762,8.38479106 157.822007,13.2737835 158.801831,15.7189603 C159.779613,18.1648176 161.735858,21.4245996 163.040475,24.195074 C164.345091,26.9669095 168.585097,42.7785535 167.932107,45.7123573 C167.279118,48.646161 160.427836,47.5055776 155.534842,47.3429288 C150.641166,47.1795994 148.189903,47.3429288 148.189903,47.3429288 C148.189903,47.3429288 149.485668,50.4387009 149.647723,51.5806454 C149.811822,52.7212288 150.934637,56.3076695 151.260791,56.9596259 C151.586264,57.6115823 151.711551,57.7749117 152.037025,58.7528463 C152.363179,59.7307809 152.61171,59.7307809 152.937864,61.0353742 C153.263337,62.339287 153.925178,64.457805 154.250652,65.7617178 C154.577487,67.0656306 155.408193,67.22896 155.408193,67.22896 L155.931129,71.7933353 C155.931129,71.7933353 155.931129,73.0972481 155.931129,73.7492045 C155.931129,74.4011609 156.714853,76.3570301 156.714853,76.3570301 C156.714853,76.3570301 158.474315,79.2915144 158.801831,80.1068002 C159.127305,80.9214054 159.453459,82.0626694 160.015207,83.3665822 C160.576955,84.670495 159.127305,84.9971537 158.801831,85.4857808 C158.474996,85.9744078 157.822688,86.9530229 157.822688,86.9530229 C157.822688,86.9530229 158.474315,88.4195845 158.964568,89.5608485 C159.453459,90.7021125 159.453459,90.5387831 159.943031,92.4946523 C160.431241,94.4505215 158.312259,102.438008 157.659951,108.306296 C157.4264,110.404398 157.318817,112.103704 157.246641,113.633556 L156.955894,122.309748 C157.239832,126.619602 154.91045,132.733564 154.91045,132.733564 C154.44471,135.567329 153.974885,138.392247 153.582002,140.74487 C152.603539,146.613158 151.95123,152.970754 152.423099,156.272049 C152.894286,159.574024 151.95123,161.610197 152.278066,166.336541 C152.603539,171.063565 152.278066,172.694136 152.278066,175.791269 C152.278066,178.889764 151.298922,185.734625 150.810031,188.66979 C150.32114,191.602913 149.341316,190.460969 148.363534,191.113606 C147.38439,191.764882 148.526951,192.580167 148.363534,195.025344 C148.200116,197.471201 147.058917,197.471201 143.960111,198.122477 C140.860624,198.773753 137.7625,199.264422 134.174122,199.753729 C130.585744,200.242356 124.714287,200.242356 118.517357,197.471201 C112.319745,194.700047 116.723168,193.068794 119.495139,192.743497 C122.268471,192.417519 122.594625,192.417519 125.203178,191.602913 C127.813093,190.788308 131.238053,190.460969 132.54267,189.809693 C133.847287,189.157056 133.847968,183.614746 134.010704,181.17025 C134.174122,178.724393 134.174122,178.235766 133.847968,175.791269 C133.522494,173.345412 133.68455,171.87817 133.847968,168.781037 C134.011385,165.685265 134.010704,160.795592 134.33754,158.186405 C134.507085,156.828049 134.897926,153.346411 135.303746,149.908328 C134.53296,148.639803 135.601302,144.937671 135.601302,144.937671 C136.375493,143.066189 135.677564,140.400517 135.677564,140.400517 C135.166884,137.167957 137.383916,132.465432 137.383916,132.465432 C137.678067,129.665695 137.979709,126.989134 138.252071,125.421853 C138.903699,121.672083 135.968311,112.544693 135.968311,112.544693 C135.968311,112.544693 134.989167,116.131134 134.989167,116.945739 C134.989167,117.761025 134.499595,119.553565 133.359758,122.487369 C132.217197,125.421853 130.423008,128.844284 127.649675,133.408659 C124.878386,137.973035 125.856168,136.669122 125.366596,138.625671 C124.996863,140.103802 124.162072,141.488699 123.002488,143.62355 C123.002488,143.62355 120.896444,149.587794 121.832691,151.204075 C121.832691,151.204075 121.492237,155.797713 120.300651,156.818522 L115.934678,162.414594 C115.310968,165.579101 115.694999,167.272282 114.92966,169.107696 C114.114615,171.063565 105.633243,179.2137 105.144352,180.354284 C104.654099,181.494867 106.44965,189.481673 106.44965,192.251467 C106.44965,195.023303 103.514943,195.347239 97.4800678,190.457566 C91.4465548,185.565852 93.5689405,174.803807 93.5689405,174.803807 C93.5689405,174.803807 93.5737069,174.792919 92.4325075,173.814303 C92.0341772,173.474034 91.8789305,172.688692 91.8550987,171.70123 C91.8550987,171.70123 97.4078917,163.568108 100.512826,156.45035 C100.865535,155.017135 100.849874,153.972507 101.391876,152.481446 C102.044865,150.688226 103.348801,148.406379 103.838373,144.33063 C104.328626,140.255562 109.70983,135.527858 111.830173,132.757383 C113.951197,129.986228 113.13479,130.800834 113.298208,129.008294 C113.461626,127.215073 113.461626,126.400468 113.78778,125.096555 C114.113934,123.792643 114.928979,123.628633 116.070859,121.999422 C117.21274,120.369531 114.766242,89.3988802 115.744705,85.1598026 C116.723168,80.9207249 117.048641,82.3886476 116.723168,79.9427903 C116.397014,77.4976135 115.091716,76.1943813 115.418551,72.9345993 C115.744024,69.6734562 115.418551,70.4894225 114.928979,70.1627638 C114.438726,69.8367856 114.113934,69.0221804 112.481801,66.087696 C110.851711,63.1538922 111.340602,59.2414733 111.340602,59.2414733 C109.220259,56.7962966 108.893423,51.2553477 108.893423,51.2553477 C104.164527,45.3870596 99.9224796,35.7690014 99.1067535,32.0192313 C98.74789,30.3688106 100.348871,28.5918676 102.253432,27.1197734 Z"/>
</svg>
