<svg xmlns="http://www.w3.org/2000/svg" width="200" height="200" viewBox="0 0 200 200">
  <path fill="#fff" fill-rule="evenodd" d="M121.031518,17.5719962 C121.031518,17.5719962 121.348883,16.9398329 121.533822,16.6762895 L121.957357,16.2809744 C121.957357,16.2809744 121.798674,17.6242505 121.798674,17.9667433 C121.798674,18.3092361 122.30155,18.4671349 122.48706,18.4938301 C122.67257,18.5199572 121.9311,20.2057261 121.719333,20.3636249 C121.507566,20.5220917 121.163944,19.810979 121.00469,19.3367145 C120.846007,18.86245 121.031518,17.5719962 121.031518,17.5719962 Z M123.621812,36.5363279 C122.218213,39.9288809 120.536633,43.9376938 119.206097,46.9235721 C119.389895,47.1183898 119.527458,47.323999 119.601662,47.5466477 C119.866513,48.3367099 119.760915,48.2838876 120.236963,48.4946087 C120.713582,48.7053298 122.195951,50.2331999 122.195951,50.2331999 L123.149189,48.1259888 C123.149189,48.1259888 124.260538,43.0164279 124.048771,39.6971445 C123.976279,38.5560698 123.809605,37.4962165 123.621812,36.5363279 Z M112.414708,81.1592203 C110.370671,80.8110477 107.976732,80.4787785 105.50231,80.1442375 C105.768304,77.9205902 105.746613,75.6418488 106.897348,72.7803584 C107.822616,70.4777617 108.685096,67.7980253 109.277016,65.8401934 L112.414708,81.1592203 Z M69.7159526,79.5660324 C68.4356464,81.2989437 68.4870185,83.1233 68.860893,85.0038865 C66.5017732,88.9235263 64.0690201,93.3787726 64.0690201,93.3787726 L67.6684901,97.3824736 C67.6684901,97.3824736 66.1861203,108.550124 65.9743532,113.39671 C65.7625861,118.243295 67.6684901,123.089881 67.6684901,125.407813 C67.6684901,127.725745 66.3978874,132.361609 66.3978874,132.361609 C66.3978874,132.361609 65.9743532,133.836657 65.550819,136.154589 C65.1272848,138.472522 64.4919835,140.15829 64.4919835,140.15829 C64.4919835,140.15829 60.8919427,157.015979 59.62134,162.494728 C58.3507374,167.972909 57.1857329,180.826896 56.6566005,182.407588 C56.1268974,183.987713 55.4915961,185.568405 55.4915961,185.568405 C55.4915961,185.568405 54.6445276,186.094924 55.1742308,186.727087 C55.7033632,187.359251 57.3975,188.728654 57.3975,188.728654 C57.3975,188.728654 56.0212992,193.470163 56.1268974,194.102326 C56.2330663,194.734489 57.9272032,195.366653 59.0916369,195.788095 C60.2560706,196.209537 63.1152119,195.471729 63.1152119,195.471729 C63.1152119,195.471729 64.8093487,194.840134 65.6564172,194.734489 C66.5034856,194.628845 67.7740882,195.050855 69.150289,194.418692 C70.5270606,193.78596 73.4918001,192.943076 74.6562338,191.573673 C75.8212383,190.204269 75.079768,188.834298 73.5979691,188.412856 L70.6326588,187.569972 C70.6326588,187.569972 71.3741291,187.359251 71.2679601,186.200568 C71.1623619,185.041318 70.7388277,183.144828 70.5270606,182.301944 C70.3152935,181.459059 69.7855904,176.401753 70.6326588,173.978744 C71.4797272,171.555167 72.4329646,168.815793 72.5385627,167.340745 C72.6447317,165.865698 75.8212383,156.910334 76.2447725,153.855162 C76.6683067,150.799422 75.7150693,150.905067 77.7271422,146.269203 C79.7386444,141.633338 79.9504115,138.788319 80.5857128,137.629637 C81.2210141,136.470387 85.4563562,120.350506 85.4563562,120.350506 C85.4563562,120.350506 95.5150084,134.890263 97.7388484,137.840358 C99.9621176,140.790454 101.762423,143.52926 101.338889,146.374279 C100.915355,149.21873 100.597419,151.325941 101.444487,152.906633 C102.291556,154.486758 102.71509,154.276037 103.033026,155.961806 C103.350391,157.647574 107.162199,176.823195 107.373966,178.508964 C107.585733,180.194733 107.903099,187.464327 108.009268,188.517933 C108.114866,189.571538 106.420729,190.414423 106.844263,191.678749 C107.267797,192.943076 108.5384,193.891037 108.5384,193.891037 C108.5384,193.891037 108.114866,198.211104 108.5384,198.843267 C108.961934,199.47543 115.261863,200.423391 117.961751,199.791796 C120.66221,199.159633 122.885479,198.948343 124.209166,198.685368 C125.532853,198.421825 129.291576,198.896089 132.67985,197.631762 C136.068124,196.367436 138.450076,193.996681 138.397562,192.153014 C138.344478,190.309346 136.809023,189.202918 135.538421,188.675831 C134.267818,188.149313 125.850218,186.252823 125.3736,185.778558 C124.897552,185.304862 125.109319,183.092006 124.474018,182.249122 C123.838716,181.406237 123.467696,181.09044 123.467696,181.09044 C123.467696,181.09044 122.779881,171.818143 120.979575,169.710932 C119.17984,167.603721 119.603374,164.443472 119.708972,159.701963 C119.81457,154.961022 119.285438,151.273119 119.708972,146.215812 C120.132506,141.158506 118.120434,134.626719 118.120434,134.626719 C118.120434,134.626719 111.344457,117.452665 110.285621,113.659685 C116.322411,112.685597 120.977862,112.315841 123.095534,108.733582 C125.213205,105.151324 120.977862,94.405115 120.977862,94.405115 C120.977862,94.405115 122.883766,91.2437304 122.036698,89.1370873 C121.233581,87.1394967 120.04974,83.2488239 116.140896,81.9515544 C115.187659,77.7382682 113.548319,70.52888 112.062524,64.1589684 C114.048911,65.2182537 116.929172,66.7177247 117.803068,66.9852439 C119.179269,67.4066861 120.979575,66.248004 120.979575,66.248004 C120.979575,66.248004 124.896981,68.9868104 127.014652,68.7760893 C129.132323,68.5653682 130.402926,69.1975315 131.144396,66.8801673 C131.885295,64.5622352 132.520597,53.0776508 132.097063,48.8632287 C131.673528,44.6488065 129.926878,35.6406212 130.402926,34.27065 C130.879544,32.9012468 131.991464,31.2683002 133.314581,30.0562279 C134.638268,28.8447235 134.691352,28.0018391 134.850035,27.0538781 C135.008718,26.1053491 135.221055,25.9997045 135.221055,25.9997045 L136.199979,26.078654 C136.199979,26.078654 136.544172,26.3688925 136.967706,26.4211468 C137.39124,26.473969 138.343907,26.3160702 138.529417,26.3160702 C138.714927,26.3160702 138.979779,26.473969 138.979779,26.473969 C138.979779,26.473969 139.05912,26.7642075 139.323401,26.842589 C139.588253,26.9221064 140.064871,26.9482335 140.064871,26.9482335 C140.064871,26.9482335 140.170469,27.5014474 140.488406,27.5803968 C140.805771,27.6593463 141.785265,27.7911179 141.785265,27.7911179 C141.785265,27.7911179 141.838349,28.1597379 142.156286,28.186433 C142.473651,28.2125602 145.412133,28.4761035 145.517732,28.1597379 C145.623901,27.8439402 144.167788,26.842589 144.167788,26.1053491 C144.167788,25.3681092 144.565065,24.946667 144.803089,24.7359459 C145.041684,24.5252248 145.385306,21.3115859 145.253451,20.4687015 C145.121025,19.625817 144.458896,19.230502 144.300213,18.5193892 C144.141531,17.8082765 144.247129,17.4657837 144.247129,17.4657837 C144.247129,17.4657837 145.147282,16.7807981 145.676985,16.2275842 C146.206117,15.6743703 145.968093,15.5692937 145.782583,15.5431666 C145.597644,15.5164714 142.156286,15.6482431 141.759008,15.806142 C141.362302,15.9640408 141.256133,16.0958125 140.859426,16.1753299 C140.462149,16.2542793 140.435321,16.2542793 140.356551,16.386051 C140.277209,16.5172547 140.250382,16.9125698 140.038614,16.9386969 C139.826847,16.965392 139.641908,16.9125698 139.323972,17.1761132 C139.006607,17.4396565 138.635586,17.5975554 138.635586,17.5975554 C138.635586,17.5975554 135.538421,17.5708602 135.353481,17.7026319 C135.167971,17.8344036 134.241561,17.8610988 134.241561,17.8610988 C134.241561,17.8610988 132.86479,16.570077 132.468083,16.2275842 C132.070806,15.8850914 131.700356,15.9117865 131.700356,15.9117865 C131.700356,15.9117865 131.673528,14.9110032 131.19748,14.673587 C130.720862,14.4367388 126.909054,14.1731954 126.803456,13.9886014 C126.697287,13.8045754 126.538604,13.4882098 126.11507,13.5410321 C125.691536,13.5938543 123.89123,13.7517532 123.653206,14.0152965 C123.415182,14.2782719 123.468266,14.3316622 123.309013,14.4367388 C123.15033,14.5418153 123.044161,14.673587 122.96482,14.8314858 C122.885479,14.9899527 122.303262,14.9899527 122.303262,14.9899527 C122.303262,14.9899527 122.117181,13.2519295 121.217599,11.249795 C120.317446,9.24822848 119.99951,8.16792781 119.99951,8.16792781 C121.16851,6.42422485 117.686054,3.47810522 116.452554,2.53128019 C114.599734,1.10905471 109.755918,-0.365993044 107.399652,0.0815763156 C105.043957,0.529713657 103.878953,1.08292756 103.34925,1.60944634 C102.819547,2.1365331 102.634607,2.29443193 101.814366,2.6102296 C100.993555,2.92659526 99.2988471,4.69131353 97.9757308,7.95720671 C96.6520436,11.2236679 96.3871921,14.1209411 96.8638108,15.7010654 C97.3404294,17.2817577 98.1874979,18.0718199 98.0813289,18.4410078 C97.6532283,19.931959 97.1492112,19.2560611 96.5219011,19.0998662 C96.310134,19.0476119 95.0395313,18.6522969 94.7746797,19.0998662 C94.5103989,19.5480036 93.9806958,20.5226597 94.0075234,20.6544314 C94.0337803,20.7856351 94.2192905,21.2598996 94.2192905,21.2598996 C94.2192905,21.2598996 93.7158442,22.3663274 93.1867118,23.1035673 C92.6570087,23.8413751 89.586671,24.8949807 89.586671,24.8949807 C89.586671,24.8949807 86.0922284,28.0557973 85.0333928,29.530845 C83.9745573,31.0058928 77.8333112,41.1205059 77.409777,46.1772445 C77.1666158,49.0824695 76.5741246,54.2817714 76.0735323,58.7006669 C73.0682659,68.9055891 69.7159526,79.5660324 69.7159526,79.5660324 Z M75.2361674,66.7001172 C73.8645331,71.3013347 72.7149402,75.2931082 72.2086399,77.377032 C72.6538645,77.1055369 73.1202088,76.8630088 73.5991107,76.6466079 C74.6402514,73.2353115 75.051228,68.9794267 75.2361674,66.7001172 Z M113.301733,37.9585534 C112.878199,36.4306833 112.137299,36.0620634 111.078464,34.9556356 C110.019628,33.8497758 109.807861,32.8484245 109.913459,32.0583624 C110.019628,31.2683002 110.88325,30.0800831 111.2537,29.8165397 C111.2537,29.8165397 112.666432,30.2675169 113.539757,30.662832 C114.413653,31.0575791 118.093035,31.5846659 118.648995,30.8735531 C119.204955,30.1618724 119.098786,29.0031903 119.231212,27.9762799 C119.363638,26.9488015 120.396216,25.6055254 120.63424,25.0261844 C120.872264,24.4462754 120.63424,23.5772638 120.63424,23.3926698 C120.63424,23.2086438 121.613735,22.286242 121.639991,22.4180137 C121.666819,22.5497854 121.37514,24.2094271 121.587478,25.3158549 C121.645699,25.6208609 121.758718,26.1110289 121.891144,26.6602669 C120.757533,29.470071 118.912134,33.7259558 117.695758,35.7195706 C116.836702,37.1275965 115.158548,39.1581301 113.637935,40.8978572 C113.607111,40.1134749 113.581425,38.9672884 113.301733,37.9585534 Z"/>
</svg>
