<svg xmlns="http://www.w3.org/2000/svg" width="200" height="200" viewBox="0 0 200 200">
  <path fill="#fff" fill-rule="evenodd" d="M90.9133414,12.2271769 C90.9133414,12.2341488 90.9125653,12.2372474 90.9125653,12.2372474 C90.9125653,12.2372474 90.9288632,12.2271769 90.9133414,12.2271769 Z M77.2758782,34.2196725 L64.0629366,34.2196725 C64.0543996,34.2638279 64.0419821,34.308758 64.0249081,34.3536881 C63.757933,35.0880624 63.4568098,36.1888491 62.1871257,36.755123 C60.9174415,37.3221715 58.9453954,38.089856 58.7451641,38.4895787 C58.5449327,38.890076 58.4440409,39.1573325 59.6477574,43.7603409 C60.8506977,48.3633494 61.9201505,48.2301084 63.1898347,50.431682 C64.4595188,52.6324809 64.392775,52.49924 64.392775,52.49924 C64.392775,52.49924 65.1944766,48.8970876 66.3648211,46.9960808 C67.5343896,45.0942993 70.8754594,43.426464 71.2433264,42.9268106 C71.6111933,42.4263826 73.7493228,37.4221021 75.988344,35.2546135 C76.3919111,34.8641866 76.8257457,34.5210139 77.2758782,34.2196725 Z M110.086659,12.2271769 C110.071137,12.2271769 110.087435,12.2372474 110.087435,12.2372474 C110.087435,12.2372474 110.086659,12.2341488 110.086659,12.2271769 Z M123.724122,34.2196725 C124.17503,34.5210139 124.608089,34.8641866 125.011656,35.2546135 C127.250677,37.4221021 129.388807,42.4263826 129.756674,42.9268106 C130.124541,43.426464 133.46561,45.0942993 134.635179,46.9960808 C135.804747,48.8970876 136.607225,52.49924 136.607225,52.49924 C136.607225,52.49924 136.540481,52.6324809 137.810165,50.431682 C139.079849,48.2301084 140.149302,48.3633494 141.352243,43.7603409 C142.555183,39.1573325 142.455067,38.890076 142.254836,38.4895787 C142.054605,38.089856 140.082558,37.3221715 138.812874,36.755123 C137.54319,36.1888491 137.242067,35.0880624 136.975092,34.3536881 C136.958018,34.308758 136.9456,34.2638279 136.937063,34.2196725 L123.724122,34.2196725 Z M21,32.0521839 L21.0046565,32.0521839 C21.0380284,31.8089417 21.248349,31.6191509 21.5013545,31.6191509 L34.7593094,31.6191509 L34.7593094,21.5122087 C34.7593094,20.6314243 35.5191021,19.9109939 36.4465303,19.9109939 L38.9773616,19.9109939 C39.9055659,19.9109939 40.6645824,20.6314243 40.6645824,21.5122087 L40.6645824,31.6191509 L40.7352067,31.6191509 L40.7352067,19.3392974 C40.7352067,18.2911873 41.6393522,17.432868 42.743729,17.432868 L45.7565126,17.432868 C46.8608894,17.432868 47.7650349,18.2911873 47.7650349,19.3392974 L47.7650349,31.6191509 L51.2093248,31.6191509 C51.2815012,31.3790074 51.3459167,31.1915406 51.3932583,31.0854127 C51.6610095,30.4842793 52.5294548,30.151177 53.0308093,30.151177 C53.5321638,30.151177 53.9334026,30.3177281 53.9334026,30.3177281 C53.9334026,30.3177281 54.4013852,29.3168721 55.1029711,29.1170107 C55.804557,28.9171493 56.4727709,29.3834925 56.4727709,29.3834925 C56.4727709,29.3834925 56.6737784,28.9163747 57.6757113,28.8830645 C58.6784203,28.8505289 58.7451641,29.3501823 58.7451641,29.3501823 C58.7451641,29.3501823 59.6143855,29.0503902 60.2158557,29.4168027 C60.8173259,29.7839899 61.1844167,30.151177 61.2177886,30.4842793 C61.2519366,30.8181562 61.418796,31.3518945 61.418796,31.3518945 C61.418796,31.3518945 61.9527463,31.233372 62.472727,31.6191509 L88.3499143,31.6191509 C88.7115725,31.4487265 88.9917412,31.2999925 88.9917412,31.2999925 C89.5932114,31.2999925 91.5311095,29.5655368 92.4670747,28.164958 C93.4022638,26.7636045 93.4697837,25.0957692 93.4697837,24.4287901 C93.4697837,23.7618109 93.4356357,21.8267192 93.2687763,21.4936169 C93.1019168,21.1605147 92.5671904,18.6250642 92.5671904,18.6250642 C92.5671904,18.6250642 91.3471761,18.4747809 90.9793091,17.9743528 C90.6122183,17.4739248 90.5113265,17.1408225 90.6122183,16.3406024 C90.712334,15.5396077 90.2109795,15.0391797 90.1108638,14.30558 C90.009972,13.5719804 89.9440043,12.5711243 90.4779546,12.371263 C90.79848,12.2511912 90.8908348,12.2271769 90.9133414,12.2271769 C90.9358481,11.9483006 91.3968459,6.3026046 92.0487619,5.06625296 C92.7169759,3.79891506 94.7891377,1.73058243 96.994787,0.729726344 C98.0300918,0.260284556 99.3455653,0.0697190774 100.449942,0 L100.499612,0.00309862566 L100.550058,0 C101.654435,0.0697190774 102.969908,0.260284556 104.005213,0.729726344 C106.210862,1.73058243 108.283024,3.79891506 108.951238,5.06625296 C109.603154,6.3026046 110.064152,11.9483006 110.086659,12.2271769 C110.109165,12.2271769 110.20152,12.2511912 110.522045,12.371263 C111.056772,12.5711243 110.989252,13.5719804 110.889136,14.30558 C110.789021,15.0391797 110.287666,15.5396077 110.387782,16.3406024 C110.487897,17.1408225 110.387782,17.4739248 110.020691,17.9743528 C109.652824,18.4747809 108.43281,18.6250642 108.43281,18.6250642 C108.43281,18.6250642 107.898083,21.1605147 107.731224,21.4936169 C107.563588,21.8267192 107.530216,23.7618109 107.530216,24.4287901 C107.530216,25.0957692 107.59696,26.7636045 108.532925,28.164958 C109.46889,29.5655368 111.406789,31.2999925 112.008259,31.2999925 C112.008259,31.2999925 112.287651,31.4487265 112.650086,31.6191509 L138.526497,31.6191509 C139.047254,31.233372 139.581204,31.3518945 139.581204,31.3518945 C139.581204,31.3518945 139.74884,30.8181562 139.782211,30.4842793 C139.815583,30.151177 140.182674,29.7839899 140.784144,29.4168027 C141.385615,29.0503902 142.254836,29.3501823 142.254836,29.3501823 C142.254836,29.3501823 142.32158,28.8505289 143.324289,28.8830645 C144.326222,28.9163747 144.527229,29.3834925 144.527229,29.3834925 C144.527229,29.3834925 145.195443,28.9171493 145.897029,29.1170107 C146.598615,29.3168721 147.066597,30.3177281 147.066597,30.3177281 C147.066597,30.3177281 147.467836,30.151177 147.969191,30.151177 C148.470545,30.151177 149.33899,30.4842793 149.606742,31.0854127 C149.654083,31.1915406 149.718499,31.3790074 149.790675,31.6191509 L153.234965,31.6191509 L153.234965,19.3392974 C153.234965,18.2911873 154.139111,17.432868 155.243487,17.432868 L158.256271,17.432868 C159.361424,17.432868 160.264793,18.2911873 160.264793,19.3392974 L160.264793,31.6191509 L160.335418,31.6191509 L160.335418,21.5122087 C160.335418,20.6314243 161.094434,19.9109939 162.022638,19.9109939 L164.55347,19.9109939 C165.480898,19.9109939 166.240691,20.6314243 166.240691,21.5122087 L166.240691,31.6191509 L179.498646,31.6191509 C179.751651,31.6191509 179.961972,31.8089417 179.995343,32.0521839 L180,32.0521839 L180,33.7866396 L179.995343,33.7866396 C179.961972,34.0306563 179.751651,34.2196725 179.498646,34.2196725 L166.240691,34.2196725 L166.240691,44.3273894 C166.240691,45.2081738 165.480898,45.9286042 164.55347,45.9286042 L162.022638,45.9286042 C161.094434,45.9286042 160.335418,45.2081738 160.335418,44.3273894 L160.335418,34.2196725 L160.264793,34.2196725 L160.264793,46.5003007 C160.264793,47.5484108 159.361424,48.4059555 158.256271,48.4059555 L155.243487,48.4059555 C154.139111,48.4059555 153.234965,47.5484108 153.234965,46.5003007 L153.234965,34.2196725 L150.369639,34.2196725 C150.465874,34.8796798 150.500798,35.4769399 150.408443,35.821662 C150.141468,36.8217434 149.706857,38.089856 148.503917,42.2257466 C147.300201,46.3616372 146.431755,55.5018082 144.89432,59.5036833 C143.356885,63.506333 141.418986,67.9427903 140.249418,68.5764592 C139.079849,69.2101282 137.174547,68.6097694 136.038351,68.4765285 C134.902154,68.3432876 133.532354,67.3091213 131.293333,65.8752323 C129.054312,64.4405686 125.478863,61.6386363 123.974799,59.6036139 C122.471512,57.5693662 122.103645,54.9006748 122.103645,54.9006748 L121.535546,55.5351184 C121.535546,55.5351184 121.669034,56.1021669 121.635662,56.2687181 C121.60229,56.4352692 120.666325,57.6692969 120.599581,58.5369121 C120.532837,59.4037526 120.39935,59.7376295 120.098227,60.1381269 C119.79788,60.5378496 119.731136,60.6052447 119.329897,61.939203 C118.928658,63.2731614 118.427304,65.5754403 118.460676,65.9418527 C118.494048,66.3090399 118.36056,67.0759497 118.092809,68.3765979 C117.825834,69.6780206 118.092809,69.5114695 118.192924,70.2783794 C118.293816,71.0452892 118.192924,71.6456479 118.092809,72.9803809 C117.992693,74.3143393 118.226296,75.9155541 118.36056,76.6491537 C118.494048,77.3827533 118.627535,77.4160636 118.494048,78.0497325 C118.36056,78.6834015 118.560791,79.1172091 118.761023,79.8848936 C118.96203,80.6518034 118.560791,80.6518034 118.460676,81.5527288 C118.36056,82.4528796 118.761023,85.5212936 119.095518,86.6553906 C119.429237,87.7894876 121.033416,89.9244407 121.234423,90.458179 C121.434655,90.9919173 120.833184,91.9927733 120.632953,92.3258756 C120.431946,92.6597525 120.833184,92.9928548 121.434655,94.66069 C122.036125,96.3285253 123.439297,97.5966379 124.508749,99.5975754 C125.578202,101.599288 124.575493,102.132251 124.843244,104.267204 C125.11022,106.402157 125.311227,108.736972 125.511458,109.603812 C125.712466,110.471427 125.912697,114.140975 125.845953,115.474933 C125.77921,116.808892 126.046185,118.009609 126.848662,119.87808 C127.650364,121.745777 128.518809,129.117407 128.518809,129.117407 C128.518809,129.117407 128.585553,130.451366 127.382613,132.252442 C126.179672,134.053518 124.876616,134.020208 124.876616,134.020208 C124.876616,134.020208 124.909988,134.487326 124.708981,136.455728 C124.508749,138.423355 124.508749,141.225287 125.310451,144.760819 C126.112152,148.297126 128.518809,153.366477 128.986016,159.170203 C129.453998,164.974704 127.933637,180.150997 127.933637,180.150997 C127.933637,180.150997 128.133868,180.150997 128.217686,180.217618 C128.301504,180.284238 128.268132,180.250928 128.317802,180.651425 C128.368248,181.051148 128.568479,183.385963 128.568479,183.385963 C128.568479,183.385963 129.60456,183.252722 130.20603,184.087027 C130.8075,184.920557 130.573121,185.154503 131.007732,185.454295 C131.442342,185.754087 131.977069,186.154585 132.277416,187.122131 C132.578539,188.088902 133.781479,191.525278 134.215314,192.125636 C134.649925,192.725995 135.987129,193.692766 136.588599,194.894258 C137.190069,196.094976 137.156697,197.262383 137.156697,197.262383 L137.323557,197.696191 C137.323557,197.696191 137.423672,199.096769 136.989062,199.396561 C136.554451,199.697128 132.878886,200.031005 131.274707,199.997695 C129.671304,199.96361 126.9643,199.096769 126.36283,198.529721 C125.761359,197.962672 125.661244,197.462244 125.426864,197.128367 C125.193261,196.794491 124.457527,196.794491 123.287959,196.461388 C122.11839,196.127511 120.948822,195.343559 120.899152,195.193276 C120.848706,195.043767 120.581731,193.242691 120.715219,192.858461 C120.848706,192.475006 121.03264,192.408386 121.03264,192.408386 C121.03264,192.408386 121.099384,190.173502 120.999268,189.872935 C120.899152,189.573143 120.598029,188.472357 120.799036,187.905308 C120.999268,187.33826 121.567366,186.404024 121.667482,186.170852 C121.767597,185.936906 121.400507,181.450871 121.46725,181.151079 C121.533994,180.850512 121.650408,180.917133 121.650408,180.917133 C121.650408,180.917133 120.379948,173.111695 119.444758,169.842645 C118.508793,166.574369 116.704383,164.572657 115.969425,160.903884 C115.234467,157.234337 115.969425,150.229893 115.568186,148.895935 C115.166947,147.561202 114.565477,147.2281 113.362537,144.75927 C112.159596,142.291214 110.889136,136.353473 110.889136,136.353473 C110.889136,136.353473 108.149537,135.819735 107.748298,135.419237 C107.347835,135.019515 107.080084,134.619017 106.678845,133.285059 C106.278382,131.950326 105.943887,130.483127 104.941178,128.61543 C103.938469,126.746959 102.468554,122.343812 101.867084,120.743372 C101.420055,119.554274 100.826346,119.284694 100.550058,119.225045 C100.534536,119.228144 100.517462,119.232792 100.499612,119.237439 C100.482538,119.232792 100.465464,119.228144 100.449942,119.225045 C100.173654,119.284694 99.5799446,119.554274 99.1329165,120.743372 C98.5314463,122.343812 97.0607547,126.746959 96.0588218,128.61543 C95.0561128,130.483127 94.7216178,131.950326 94.3211551,133.285059 C93.9199162,134.619017 93.6529411,135.019515 93.2517023,135.419237 C92.8504635,135.819735 90.1100877,136.353473 90.1100877,136.353473 C90.1100877,136.353473 88.8404036,142.291214 87.6374632,144.75927 C86.4345229,147.2281 85.8330527,147.561202 85.4318139,148.895935 C85.030575,150.229893 85.7655328,157.234337 85.030575,160.903884 C84.2956173,164.572657 82.4912067,166.574369 81.5552415,169.842645 C80.6192763,173.111695 79.3495922,180.917133 79.3495922,180.917133 C79.3495922,180.917133 79.4660058,180.850512 79.5327496,181.151079 C79.6002694,181.450871 79.2324025,185.936906 79.3325182,186.170852 C79.4326339,186.404024 80.0007322,187.33826 80.2009635,187.905308 C80.401971,188.472357 80.1008478,189.573143 80.0007322,189.872935 C79.9006165,190.173502 79.9673603,192.408386 79.9673603,192.408386 C79.9673603,192.408386 80.1512937,192.475006 80.2847813,192.858461 C80.4182689,193.242691 80.1512937,195.043767 80.1008478,195.193276 C80.051178,195.343559 78.8808335,196.127511 77.7120411,196.461388 C76.5416966,196.794491 75.8067388,196.794491 75.5731356,197.128367 C75.3387562,197.462244 75.2386405,197.962672 74.6371703,198.529721 C74.0357002,199.096769 71.3294724,199.96361 69.7252932,199.997695 C68.1211141,200.031005 64.4447731,199.697128 64.0109385,199.396561 C63.5763278,199.096769 63.6764435,197.696191 63.6764435,197.696191 L63.8433029,197.262383 C63.8433029,197.262383 63.809931,196.094976 64.4114012,194.894258 C65.0128714,193.692766 66.3500754,192.725995 66.7846861,192.125636 C67.2185207,191.525278 68.4214611,188.088902 68.7225842,187.122131 C69.0229313,186.154585 69.5576577,185.754087 69.9922684,185.454295 C70.426103,185.154503 70.1924997,184.920557 70.7939699,184.087027 C71.3954401,183.252722 72.431521,183.385963 72.431521,183.385963 C72.431521,183.385963 72.6317524,181.051148 72.6821982,180.651425 C72.7326441,180.250928 72.6984961,180.284238 72.7823139,180.217618 C72.8661317,180.150997 73.0663631,180.150997 73.0663631,180.150997 C73.0663631,180.150997 71.5460017,164.974704 72.0139843,159.170203 C72.4819669,153.366477 74.8870715,148.297126 75.6895491,144.760819 C76.4912507,141.225287 76.4912507,138.423355 76.2910193,136.455728 C76.0900119,134.487326 76.1233838,134.020208 76.1233838,134.020208 C76.1233838,134.020208 74.8203277,134.053518 73.6173874,132.252442 C72.414447,130.451366 72.4811908,129.117407 72.4811908,129.117407 C72.4811908,129.117407 73.3496361,121.745777 74.1521137,119.87808 C74.9538153,118.009609 75.2207904,116.808892 75.1540467,115.474933 C75.0873029,114.140975 75.2883103,110.471427 75.4885417,109.603812 C75.688773,108.736972 75.8897805,106.402157 76.1567556,104.267204 C76.4245069,102.132251 75.4217979,101.599288 76.4912507,99.5975754 C77.5599274,97.5966379 78.9638752,96.3285253 79.5653454,94.66069 C80.1668155,92.9928548 80.5680544,92.6597525 80.3670469,92.3258756 C80.1668155,91.9927733 79.5653454,90.9919173 79.7655767,90.458179 C79.9665842,89.9244407 81.5707634,87.7894876 81.9044823,86.6553906 C82.2389773,85.5212936 82.6402161,82.4528796 82.5393244,81.5527288 C82.4392087,80.6518034 82.038746,80.6518034 82.2389773,79.8848936 C82.4392087,79.1172091 82.6402161,78.6834015 82.5059525,78.0497325 C82.3724649,77.4160636 82.5059525,77.3827533 82.6402161,76.6491537 C82.7737037,75.9155541 83.007307,74.3143393 82.9071913,72.9803809 C82.8062995,71.6456479 82.7061838,71.0452892 82.8062995,70.2783794 C82.9071913,69.5114695 83.1741664,69.6780206 82.9071913,68.3765979 C82.63944,67.0759497 82.5059525,66.3090399 82.5393244,65.9418527 C82.5726963,65.5754403 82.0713418,63.2731614 81.6701029,61.939203 C81.2696402,60.6052447 81.2021203,60.5378496 80.9017733,60.1381269 C80.6006502,59.7376295 80.4671626,59.4037526 80.4004188,58.5369121 C80.333675,57.6692969 79.3977098,56.4352692 79.3643379,56.2687181 C79.330966,56.1021669 79.4644536,55.5351184 79.4644536,55.5351184 L78.8963553,54.9006748 C78.8963553,54.9006748 78.5292645,57.5693662 77.025201,59.6036139 C75.5211375,61.6386363 71.9456883,64.4405686 69.7066671,65.8752323 C67.4676458,67.3091213 66.097846,68.3432876 64.9616494,68.4765285 C63.8254528,68.6097694 61.9209266,69.2101282 60.7513582,68.5764592 C59.5810136,67.9427903 57.6431155,63.506333 56.1056801,59.5036833 C54.5682447,55.5018082 53.6990233,46.3616372 52.4960829,42.2257466 C51.2931426,38.089856 50.859308,36.8217434 50.5915567,35.821662 C50.4992019,35.4769399 50.534126,34.8796798 50.6303612,34.2196725 L47.7650349,34.2196725 L47.7650349,46.5003007 C47.7650349,47.5484108 46.8608894,48.4059555 45.7565126,48.4059555 L42.743729,48.4059555 C41.6393522,48.4059555 40.7352067,47.5484108 40.7352067,46.5003007 L40.7352067,34.2196725 L40.6645824,34.2196725 L40.6645824,44.3273894 C40.6645824,45.2081738 39.9055659,45.9286042 38.9773616,45.9286042 L36.4465303,45.9286042 C35.5191021,45.9286042 34.7593094,45.2081738 34.7593094,44.3273894 L34.7593094,34.2196725 L21.5013545,34.2196725 C21.248349,34.2196725 21.0380284,34.0306563 21.0046565,33.7866396 L21,33.7866396 L21,32.0521839 Z"/>
</svg>
