<svg xmlns="http://www.w3.org/2000/svg" width="200" height="200" viewBox="0 0 200 200">
  <path fill="#fff" fill-rule="evenodd" d="M96.8018422,159.570137 C96.8018422,159.570137 97.2834413,160.100191 97.4043365,161.304951 C97.5242408,162.508721 99.9996206,163.032831 99.9996206,163.032831 C99.9996206,163.032831 99.7925132,166.453913 99.8906167,169.426183 L95.3045248,169.426183 L96.8018422,159.570137 Z M93.7299138,180.324505 L94.8100434,172.398453 L99.1543448,172.398453 C98.3031233,173.389209 97.092189,174.714842 96.8018422,175.295425 C96.4034824,176.091993 95.0230965,178.342992 94.960667,180.324505 L93.7299138,180.324505 Z M110.198423,180.324505 C110.228151,180.324505 110.262834,179.902443 110.292563,179.87272 C112.509306,177.657389 113.02757,174.379966 113.024597,172.398453 L123.11935,172.398453 L123.587076,180.324505 L110.198423,180.324505 Z M122.905306,169.426183 L112.978023,169.426183 C113.150447,167.44467 113.545834,165.710846 113.545834,165.710846 C113.545834,165.710846 114.388137,166.478682 114.629927,165.515667 C114.870727,164.551661 116.43642,159.884206 116.43642,159.281826 C116.43642,158.679446 114.629927,155.202882 113.545834,153.395742 C112.46075,151.589592 111.015952,151.961126 111.015952,151.961126 L109.810964,150.526511 C109.810964,150.526511 109.449269,149.699229 110.534353,148.976967 C111.618447,148.253715 109.329365,144.670148 109.208469,143.224635 C109.088565,141.779121 108.606966,140.201836 107.763672,138.034061 C106.920378,135.866286 105.956189,128.805163 105.956189,128.805163 L120.291194,128.805163 L122.905306,169.426183 Z M22.1975828,74.7613737 C22.5989154,75.7253799 26.6142232,75.3241235 29.0232096,75.4043747 C31.4321961,75.484626 38.2588138,75.8056311 39.9454016,75.3241235 C41.6309985,74.841625 42.3543881,73.8786096 42.3543881,73.8786096 L47.011828,74.3601173 C47.172361,79.5794229 50.7060696,79.4991717 50.7060696,79.4991717 C51.3482018,81.1041973 52.9545231,81.023946 52.9545231,81.023946 C53.9989787,82.6299624 55.5250335,82.3892086 55.5250335,82.3892086 C55.5250335,82.3892086 56.6507466,83.433466 57.4534118,83.5137173 C58.256077,83.5939686 59.5433141,83.0312189 59.5433141,83.0312189 C59.5433141,83.0312189 64.9271164,87.1260158 65.489973,87.4480117 C66.0518386,87.7690168 65.5771761,91.0603101 66.0587752,92.0243163 C66.5403743,92.9873317 67.9207602,93.5500814 70.0889471,94.5130968 C72.257134,95.477103 73.8119262,95.0748558 74.6155823,94.5933481 C75.4182475,94.1118404 76.9225014,93.067583 78.3682897,93.1478342 C79.813087,93.2280855 80.8139411,91.6230599 81.0547407,91.382306 C81.2955402,91.1405614 86.9508614,91.1405614 89.1993148,90.4182999 C91.4487592,89.6960383 95.4105559,87.0457645 95.4105559,87.0457645 L95.4105559,93.8710865 C93.4286666,94.272343 91.6895587,95.0748558 90.4043035,95.9586107 C89.1190483,96.8413748 84.4546718,99.0894014 84.4546718,99.0894014 C84.4546718,99.0894014 69.9898526,109.206017 63.966891,112.979809 C57.9439294,116.7536 51.5146805,121.329905 50.8715574,127.171406 C50.2294252,133.012907 52.3956303,138.592848 52.5561633,143.329655 C52.7166963,148.067453 51.9933067,160.11109 52.3143728,164.366389 C52.6364298,168.621689 52.9574959,180.986331 52.9574959,180.986331 L54.9681226,181.227085 C54.9681226,181.227085 54.5717447,182.512096 52.1627583,185.081128 C49.7537718,187.650159 45.1072323,190.058689 43.6614441,190.13894 C42.2156558,190.220182 38.8652719,189.737684 37.2589506,189.817935 C35.6526294,189.898186 34.8132992,192.146213 34.8132992,192.146213 C34.0106341,192.387957 34.3198088,194.073234 35.3642645,195.03724 C36.4077292,196.000256 40.6608637,197.44577 45.3183035,197.44577 C49.9767344,197.44577 53.8969114,197.44577 56.3861644,196.329187 C58.8754174,195.211614 62.7093822,194.956989 62.7093822,194.956989 L62.7093822,195.759502 C62.7093822,195.759502 62.9313539,196.454022 67.5887937,196.373771 C72.2472246,196.29352 72.9874602,194.980767 72.9874602,194.980767 C72.9874602,194.980767 73.1291653,193.640274 72.9686323,192.917021 C72.8080992,192.19476 72.3175816,192.724815 72.3175816,192.724815 C73.1202468,186.622745 71.4296952,186.222479 71.1086292,184.858207 C70.7865721,183.492945 70.3010093,182.306018 70.3010093,182.306018 L71.1443032,182.306018 C71.1443032,182.306018 71.0273717,175.559957 71.147276,172.06754 C71.2681712,168.575123 70.5487454,163.788778 70.4288411,161.018623 C70.3079459,158.249458 70.4357777,149.794341 70.1949782,146.061171 C69.9541786,142.327009 68.6441498,136.643039 68.8849493,134.475263 C69.1257489,132.307488 73.2520424,131.55055 75.0585346,130.586544 C76.8660176,129.623528 81.8643424,127.030718 81.8643424,127.030718 C81.8643424,127.030718 84.5151194,129.677029 85.1166228,132.447185 C85.7191172,135.21734 88.0081993,136.297265 88.7682539,137.381152 C89.5292994,138.46504 90.6579853,141.708777 90.8987849,144.117306 C91.1395844,146.525836 93.0669718,149.159266 93.0669718,149.159266 L86.5624111,199.680917 C88.3698941,200.6152 91.2604797,199.2004 91.2604797,199.2004 L93.2354324,182.306018 L97.4340649,182.306018 C98.5686965,183.296775 99.902508,183.02828 101.017321,183.02828 C101.927008,183.02828 103.224155,183.296775 104.620396,182.306018 L123.80112,182.306018 L124.868368,199.260836 C126.193261,200.074247 129.807236,199.536266 129.807236,199.536266 L124.668197,129.576963 C124.668197,129.576963 125.470862,129.869236 125.470862,129.387728 C125.470862,128.906221 124.668197,123.792926 124.668197,123.792926 C124.668197,123.792926 128.281181,123.805806 130.208568,122.923042 C132.135956,122.040278 132.779079,120.520457 132.779079,120.520457 C132.779079,120.520457 135.348598,121.005928 136.392063,120.283666 C137.436519,119.560414 137.918118,116.350362 137.918118,116.350362 C149.081109,120.525411 158.476256,115.869846 163.375486,107.680252 C168.273726,99.4906578 169.157648,87.9285286 169.398448,81.3449512 C169.639247,74.7613737 167.310527,72.5935983 167.310527,72.5935983 L168.675058,70.9875819 C178.552794,67.9370424 177.830396,65.769267 177.990929,63.6014916 C178.151462,61.4337163 176.143808,55.5724004 174.938819,54.6886455 C173.734822,53.8058814 170.281379,51.5578547 167.551327,50.1925922 C164.820283,48.8273296 160.403643,46.0977952 158.636789,44.3312763 C156.869934,42.5647573 152.373028,39.0327101 149.723242,37.506945 C147.073456,35.9811798 141.772893,33.973907 141.772893,33.973907 C141.772893,33.973907 136.874653,32.6086444 135.428865,31.8061316 C133.983077,31.0036188 129.726969,30.4408691 128.281181,30.2803665 C126.836384,30.1198639 124.025074,29.4778537 124.025074,29.4778537 C123.463208,27.7113347 120.893689,25.1423029 120.893689,25.1423029 C120.893689,25.1423029 119.9295,25.7040619 119.6887,25.3028055 C119.4479,24.901549 119.849233,24.1782967 119.849233,24.1782967 C120.973955,22.2512752 120.411099,20.0032485 120.411099,20.0032485 C123.463208,20.2440024 125.551129,18.9599819 126.273527,18.2367296 C126.996917,17.514468 126.91665,15.1059388 126.91665,15.1059388 C125.631395,14.0616814 121.616087,13.1789172 121.616087,13.1789172 L119.207101,2.33904955 C119.207101,2.33904955 117.279714,0.171274162 108.767499,0.0107715966 C100.254293,-0.149730969 97.9255734,1.53653672 97.9255734,1.53653672 L93.027334,14.9454362 C89.3330923,15.6676978 87.4859715,16.4702106 87.4859715,16.4702106 C87.4859715,16.4702106 87.405705,18.4774834 87.9675706,19.3612383 C88.5304271,20.2440024 91.2604797,21.047506 91.2604797,21.047506 C91.2604797,21.047506 91.4210127,24.7400557 92.1434114,25.5435593 C92.866801,26.3460721 93.9905322,26.2658209 93.9905322,26.2658209 C93.9905322,26.2658209 93.1076005,29.4778537 93.5089331,30.0396126 C93.9102657,30.6013716 95.67712,30.6816229 95.67712,30.6816229 C95.67712,30.6816229 95.837653,32.5283932 95.9179196,33.2516455 C95.9981861,33.973907 96.3192521,34.1344096 96.8018422,35.0181644 C97.2834413,35.9009286 97.9255734,37.1056885 97.9255734,37.1056885 C96.2389856,38.2292065 95.0349879,38.0687039 92.7062679,39.9957255 C90.377548,41.922747 89.0120263,44.8127839 88.0478371,47.3025552 C87.0846389,49.7913357 86.3622402,53.8058814 86.3622402,56.5354158 C86.3622402,59.2659409 85.3177846,63.6817429 84.3545864,66.1705235 C83.3903972,68.659304 82.587732,72.8343522 82.587732,72.8343522 L58.1956293,69.7035614 C58.1956293,69.7035614 54.3200448,66.4112773 53.0347896,66.9730363 C51.7495344,67.535786 52.7137235,69.302305 52.7137235,69.302305 L42.8359872,68.3382988 C42.8359872,68.3382988 41.1493994,66.5717799 38.2588138,66.4915286 C35.3672373,66.4112773 25.6510249,66.1705235 23.6423801,66.1705235 C21.6357172,66.1705235 22.2778493,68.4988014 22.1975828,69.3825563 C22.1173163,70.2653204 21.7962502,73.7983583 22.1975828,74.7613737 Z"/>
</svg>
