<svg xmlns="http://www.w3.org/2000/svg" width="200" height="200" viewBox="0 0 200 200">
  <g fill="none" fill-rule="evenodd">
    <path fill="#fff" fill-rule="nonzero" d="M411.481898,-143.199902 C411.781898,-143.599902 411.981898,-143.999902 412.281898,-144.399902 C412.881898,-145.199902 412.581898,-146.599902 411.581898,-146.899902 C407.381898,-148.099902 403.081898,-149.099902 398.781898,-149.699902 C402.481898,-150.199902 406.181898,-150.699902 409.881898,-151.399902 C411.481898,-151.699902 411.681898,-153.899902 410.181898,-154.599902 C408.181898,-155.499902 406.081898,-155.599902 403.981898,-155.199902 C402.281898,-155.099902 400.481898,-154.999902 398.781898,-154.799902 C398.981898,-155.599902 399.281898,-156.399902 399.681898,-157.099902 C402.281898,-157.599902 404.781898,-158.199902 407.381898,-158.699902 C409.481898,-159.099902 410.581898,-160.899902 409.281898,-162.699902 C408.981898,-163.199902 408.381898,-163.299902 407.781898,-163.199902 C402.481898,-162.599902 396.981898,-162.399902 391.681898,-162.499902 C387.281898,-165.399902 381.681898,-166.999902 376.181898,-167.599902 C375.781898,-167.899902 375.281898,-168.099902 374.881898,-168.399902 C369.881898,-171.599902 364.781898,-174.699902 360.181898,-178.499902 C353.781898,-183.799902 349.881898,-191.399902 343.481898,-196.299902 C343.181898,-196.799902 342.881898,-197.299902 342.581898,-197.799902 C342.181898,-198.399902 341.781898,-198.999902 341.281898,-199.599902 C340.881898,-208.099902 335.381898,-215.999902 328.381898,-220.399902 C321.581898,-224.699902 313.381898,-224.999902 306.081898,-222.399902 C304.581898,-223.899902 302.981898,-225.099902 301.181898,-225.999902 C301.081898,-226.299902 300.881898,-226.499902 300.581898,-226.699902 C298.481898,-227.899902 296.081898,-228.699902 293.981898,-229.899902 C291.781898,-231.099902 289.781898,-232.599902 287.781898,-234.099902 C283.681898,-237.099902 279.781898,-240.199902 275.381898,-242.699902 C268.281898,-246.699902 258.081898,-249.099902 250.081898,-245.999902 C249.781898,-246.299902 249.481898,-246.599902 249.181898,-246.899902 C250.181898,-247.099902 251.181898,-247.299902 252.281898,-247.599902 C253.181898,-247.799902 253.581898,-248.699902 253.381898,-249.599902 C253.281898,-250.299902 253.181898,-250.899902 253.081898,-251.499902 C256.181898,-261.499902 256.681898,-272.999902 254.081898,-283.199902 C251.281898,-293.899902 241.381898,-297.299902 231.581898,-299.399902 C222.081898,-301.499902 210.481898,-301.999902 201.381898,-297.999902 C192.681898,-294.199902 187.681898,-285.599902 185.181898,-276.799902 C185.081898,-276.699902 184.981898,-276.599902 184.881898,-276.499902 C184.381898,-275.999902 184.481898,-274.999902 185.081898,-274.699902 C187.181898,-273.399902 189.381898,-272.199902 191.681898,-270.999902 C191.581898,-270.199902 191.481898,-269.499902 191.281898,-268.699902 C190.781898,-266.299902 189.281898,-263.999902 189.281898,-261.599902 C189.281898,-260.299902 190.581898,-259.099902 191.381898,-258.199902 C191.881898,-257.699902 192.281898,-257.199902 192.781898,-256.599902 C191.781898,-254.399902 190.481898,-252.399902 189.181898,-250.399902 C187.981898,-248.599902 187.381898,-246.499902 188.681898,-244.599902 C188.881898,-244.299902 189.281898,-243.999902 189.681898,-244.199902 C190.781898,-244.599902 191.781898,-244.899902 192.881898,-245.099902 C192.981898,-244.099902 192.981898,-243.099902 192.881898,-241.999902 C192.781898,-241.199902 192.681898,-239.899902 193.381898,-239.299902 C194.281898,-238.499902 195.081898,-238.499902 196.181898,-238.599902 C197.381898,-238.799902 198.281898,-238.899902 199.281898,-238.799902 C199.181898,-238.599902 198.981898,-238.399902 198.881898,-238.199902 C198.081898,-237.099902 197.181898,-236.399902 196.681898,-235.199902 C195.781898,-233.199902 197.981898,-231.599902 199.281898,-230.299902 C198.881898,-228.799902 198.481898,-227.299902 199.081898,-225.699902 C199.781898,-223.799902 201.981898,-223.299902 203.781898,-223.099902 C206.781898,-222.799902 210.281898,-223.599902 213.181898,-224.299902 C213.481898,-224.399902 213.681898,-224.399902 213.981898,-224.499902 C215.581898,-223.099902 217.381898,-221.799902 218.781898,-220.499902 C220.281898,-219.199902 221.681898,-217.899902 223.081898,-216.599902 C221.281898,-213.199902 219.781898,-209.699902 218.381898,-206.099902 C217.181898,-202.799902 216.081898,-199.499902 215.281898,-196.099902 C214.581898,-193.399902 213.681898,-190.299902 213.581898,-187.399902 C212.381898,-186.499902 211.281898,-185.699902 210.081898,-184.899902 C208.481898,-183.799902 208.481898,-183.299902 208.181898,-181.299902 C207.281898,-175.599902 205.781898,-170.099902 203.881898,-164.799902 C200.681898,-163.299902 197.581898,-161.499902 194.781898,-159.299902 C190.281898,-155.799902 185.981898,-151.799902 185.081898,-146.099902 C184.681898,-143.499902 181.981898,-142.699902 180.681898,-140.699902 C180.181898,-139.899902 179.881898,-139.099902 179.881898,-138.299902 C177.581898,-136.499902 175.381898,-134.599902 173.181898,-132.699902 C170.681898,-130.499902 168.081898,-128.299902 165.581898,-126.199902 C163.281898,-124.199902 160.581898,-122.399902 158.381898,-120.299902 C156.381898,-119.399902 154.481898,-118.299902 152.681898,-117.099902 C147.481898,-113.499902 142.281898,-110.099902 136.581898,-107.299902 C133.681898,-105.899902 130.681898,-104.799902 127.781898,-103.599902 C126.481898,-103.099902 124.581898,-101.799902 125.081898,-100.099902 C126.081898,-96.4999017 131.581898,-97.5999017 134.481898,-99.2999017 C137.881898,-98.5999017 141.681898,-99.1999017 145.281898,-100.299902 C144.981898,-99.8999017 144.781898,-99.4999017 144.581898,-99.0999017 C143.681898,-96.8999017 144.581898,-94.8999017 146.781898,-93.9999017 C147.381898,-93.7999017 148.081898,-93.9999017 148.481898,-94.4999017 C149.781898,-95.8999017 151.281898,-97.0999017 152.681898,-98.3999017 C155.981898,-99.6999017 159.181898,-101.399902 162.381898,-102.999902 C165.681898,-104.699902 168.781898,-107.199902 170.281898,-110.499902 C175.081898,-112.699902 179.681898,-115.399902 184.181898,-118.099902 C187.081898,-119.799902 189.981898,-121.499902 192.881898,-123.199902 C192.981898,-123.099902 192.981898,-123.099902 193.081898,-122.999902 C193.481898,-122.699902 194.081898,-122.799902 194.481898,-122.999902 C200.081898,-126.099902 205.581898,-129.399902 211.081898,-132.699902 C216.881898,-132.899902 222.781898,-133.099902 228.481898,-133.899902 C231.981898,-134.399902 233.181898,-138.199902 234.381898,-140.999902 C236.281898,-145.099902 238.381898,-149.099902 240.581898,-153.099902 C242.781898,-157.199902 245.181898,-161.199902 247.681898,-164.999902 C249.281898,-164.299902 250.881898,-163.499902 252.481898,-162.599902 C257.781898,-159.699902 261.781898,-155.399902 266.081898,-151.199902 C269.981898,-147.299902 273.981898,-144.399902 278.881898,-141.799902 C282.581898,-139.799902 284.481898,-135.899902 286.281898,-131.999902 C285.781898,-130.599902 284.881898,-129.299902 283.481898,-129.199902 C282.481898,-129.099902 281.481898,-128.199902 281.881898,-127.099902 C282.381898,-125.599902 282.781898,-123.899902 283.381898,-122.299902 C276.481898,-117.699902 270.281898,-111.899902 265.181898,-105.399902 C263.681898,-105.199902 262.181898,-104.899902 260.681898,-104.499902 C259.181898,-104.099902 257.781898,-103.599902 257.281898,-101.899902 C256.781898,-99.8999017 256.781898,-97.3999017 256.881898,-95.0999017 C255.081898,-94.4999017 253.381898,-93.7999017 251.581898,-93.1999017 C247.481898,-91.6999017 244.381898,-90.2999017 241.581898,-86.8999017 C236.081898,-80.2999017 229.481898,-74.5999017 224.181898,-67.7999017 C221.981898,-64.9999017 221.181898,-62.3999017 222.181898,-58.8999017 C223.281898,-54.9999017 225.281898,-51.1999017 227.281898,-47.7999017 C228.981898,-44.7999017 230.981898,-41.6999017 233.281898,-38.8999017 C237.381898,-27.3999017 242.181898,-16.0999017 247.481898,-5.09990173 C246.481898,-3.99990173 245.481898,-3.09990173 244.281898,-2.29990173 C243.181898,-1.59990173 242.881898,-0.0999017304 243.881898,0.90009827 C247.281898,4.30009827 251.581898,7.50009827 256.281898,9.70009827 C257.381898,13.6000983 258.781898,17.5000983 259.781898,21.4000983 C260.681898,24.7000983 261.381898,28.0000983 261.981898,31.3000983 C259.481898,37.6000983 253.481898,42.6000983 247.381898,45.9000983 C242.581898,48.5000983 237.481898,50.2000983 232.481898,52.4000983 C230.981898,53.1000983 227.781898,53.7000983 227.581898,55.7000983 C227.381898,58.3000983 227.681898,60.6000983 228.681898,63.0000983 C228.881898,63.5000983 229.281898,63.8000983 229.781898,64.0000983 C229.781898,64.1000983 229.781898,64.2000983 229.781898,64.3000983 C229.681898,65.1000983 229.981898,65.8000983 230.781898,66.0000983 C232.281898,66.5000983 233.681898,66.8000983 235.181898,67.1000983 C234.681898,68.5000983 233.881898,69.8000983 232.981898,71.0000983 C229.481898,70.2000983 225.781898,70.9000983 223.281898,74.2000983 C219.181898,79.4000983 221.581898,86.3000983 226.481898,89.9000983 C231.781898,93.8000983 240.481898,92.9000983 244.581898,87.7000983 C245.281898,86.8000983 245.781898,85.9000983 246.181898,84.8000983 C248.081898,87.7000983 251.181898,89.7000983 254.881898,90.0000983 C260.181898,90.4000983 265.581898,85.7000983 266.181898,80.6000983 C266.281898,79.8000983 266.281898,79.0000983 266.181898,78.2000983 C266.981898,77.8000983 267.881898,77.3000983 268.581898,76.8000983 C268.781898,79.1000983 269.681898,81.5000983 271.281898,83.5000983 C273.181898,85.8000983 275.781898,87.1000983 278.381898,87.4000983 C279.181898,90.9000983 281.581898,94.1000983 284.381898,95.9000983 C290.181898,99.6000983 297.381898,96.6000983 299.581898,90.6000983 C300.681898,90.5000983 301.781898,90.3000983 302.881898,90.2000983 C304.581898,94.3000983 308.781898,97.2000983 313.181898,97.4000983 C318.681898,97.7000983 322.681898,93.4000983 323.481898,88.4000983 C323.481898,88.4000983 323.581898,88.4000983 323.581898,88.4000983 C324.981898,92.7000983 328.781898,95.9000983 333.281898,97.0000983 C338.481898,98.3000983 344.281898,95.8000983 345.581898,90.7000983 C347.481898,94.2000983 351.281898,96.6000983 355.381898,97.1000983 C361.581898,97.9000983 366.781898,92.9000983 366.881898,86.9000983 C366.981898,81.7000983 362.381898,76.4000983 357.381898,74.9000983 C356.581898,73.1000983 355.881898,71.3000983 355.281898,69.5000983 C355.381898,69.5000983 355.481898,69.5000983 355.581898,69.5000983 C356.281898,69.5000983 356.781898,69.2000983 357.081898,68.8000983 C357.681898,68.7000983 358.081898,68.2000983 358.081898,67.5000983 C357.381898,59.5000983 354.281898,51.6000983 349.281898,45.2000983 C347.781898,39.9000983 345.581898,34.7000983 343.481898,29.8000983 C341.781898,25.8000983 339.881898,21.8000983 337.881898,17.8000983 C339.881898,17.5000983 341.881898,17.2000983 343.981898,17.0000983 C345.581898,16.9000983 346.381898,15.2000983 345.281898,13.9000983 C335.381898,2.50009827 330.881898,-12.1999017 323.181898,-24.9999017 C324.181898,-25.0999017 325.181898,-25.0999017 326.181898,-24.9999017 C327.181898,-24.8999017 327.981898,-26.0999017 327.681898,-26.9999017 C326.681898,-30.0999017 325.481898,-33.0999017 324.081898,-35.8999017 C325.081898,-36.7999017 325.981898,-37.7999017 326.781898,-38.7999017 C327.181898,-39.2999017 327.381898,-39.9999017 326.981898,-40.5999017 C326.081898,-41.8999017 325.381898,-43.1999017 324.681898,-44.5999017 C328.081898,-58.7999017 339.181898,-69.9999017 343.881898,-83.5999017 C349.381898,-90.2999017 354.881898,-97.0999017 359.181898,-104.699902 C364.181898,-113.799902 367.281898,-125.399902 363.181898,-135.399902 C363.081898,-135.499902 363.081898,-135.599902 362.981898,-135.699902 C362.981898,-135.999902 362.881898,-136.299902 362.681898,-136.699902 C359.681898,-141.599902 356.881898,-147.099902 353.281898,-151.599902 C351.581898,-153.699902 349.581898,-155.499902 347.181898,-156.799902 C345.081898,-157.899902 342.881898,-158.499902 340.781898,-159.599902 C338.981898,-163.699902 336.481898,-167.699902 333.981898,-171.499902 C333.981898,-171.499902 333.981898,-171.599902 333.981898,-171.599902 C334.181898,-171.499902 334.381898,-171.399902 334.581898,-171.299902 C339.181898,-169.299902 343.781898,-167.299902 348.081898,-164.599902 C350.081898,-163.299902 351.881898,-161.899902 353.581898,-160.299902 C353.581898,-158.099902 354.181898,-156.099902 355.681898,-154.799902 C357.281898,-153.499902 359.081898,-153.099902 360.781898,-153.399902 C362.881898,-152.299902 364.781898,-151.199902 366.281898,-149.599902 C368.681898,-146.999902 369.481898,-143.099902 371.481898,-140.199902 C375.681898,-133.899902 385.081898,-134.999902 390.481898,-130.499902 C390.981898,-130.099902 391.681898,-130.199902 392.081898,-130.499902 C395.381898,-133.199902 394.681898,-136.399902 392.281898,-139.099902 C394.281898,-138.399902 396.381898,-137.599902 398.381898,-136.899902 C401.181898,-135.999902 403.981898,-134.999902 406.781898,-134.099902 C408.381898,-133.599902 409.381898,-133.199902 410.781898,-134.099902 C411.181898,-134.399902 411.381898,-134.999902 411.281898,-135.499902 C410.681898,-138.799902 404.281898,-141.399902 401.681898,-142.799902 C401.281898,-142.999902 400.881898,-143.199902 400.481898,-143.399902 C403.581898,-142.999902 406.581898,-142.699902 409.681898,-142.299902 C410.581898,-142.499902 411.181898,-142.799902 411.481898,-143.199902 Z M268.381898,65.2000983 C264.681898,64.9000983 253.981898,68.2000983 253.981898,68.2000983 L255.481898,63.7000983 L275.581898,59.5000983 C275.581898,59.5000983 274.381898,62.2000983 275.981898,62.5000983 C277.581898,62.8000983 280.281898,63.8000983 280.281898,63.8000983 C280.281898,63.8000983 272.081898,65.5000983 268.381898,65.2000983 Z M314.581898,47.9000983 L304.581898,50.6000983 C304.581898,50.6000983 304.881898,43.0000983 298.781898,35.9000983 C292.681898,28.8000983 294.881898,21.8000983 293.581898,19.6000983 C292.281898,17.4000983 288.981898,15.7000983 288.481898,12.5000983 C288.081898,9.20009827 287.781898,2.50009827 291.181898,2.70009827 C291.181898,2.70009827 297.881898,9.40009827 299.681898,13.1000983 C301.481898,16.8000983 302.981898,32.0000983 302.981898,32.0000983 C302.981898,32.0000983 308.481898,30.5000983 309.981898,31.4000983 C311.481898,32.3000983 313.681898,38.7000983 314.581898,41.2000983 C315.481898,43.7000983 314.581898,47.9000983 314.581898,47.9000983 Z M331.981898,71.9000983 L329.581898,75.9000983 L323.181898,76.3000983 L320.081898,75.1000983 C319.981898,74.4000983 318.581898,72.4000983 318.581898,72.4000983 L331.981898,71.9000983 Z"/>
    <path fill="#fff" fill-rule="nonzero" d="M168.760987,55.9260628 C168.726842,55.789618 168.590263,55.6190619 168.521974,55.4826171 C168.453684,55.3802834 168.453684,55.3461722 168.35125,55.2779498 C168.317105,55.2438386 168.214671,55.1415049 168.146381,55.1073937 C168.078092,55.0732825 167.975658,55.0391713 167.907368,55.00506 C167.839079,54.9709488 167.804934,54.9027264 167.770789,54.8686152 C167.395197,54.5957255 166.883026,54.9368376 166.507433,54.6298367 C166.029407,54.1863909 165.55138,54.0840572 164.90263,54.0840572 C164.663617,54.0840572 164.219735,54.1863909 163.980722,54.0840572 C163.809998,54.0158348 163.844143,53.8111675 163.673419,53.7088339 C163.263682,53.4018329 162.683221,53.5041666 162.23934,53.5041666 C161.727168,53.5041666 161.146708,53.4700554 160.634536,53.5041666 C160.429668,53.5382778 160.258944,53.6065002 160.019931,53.6065002 C159.815062,53.6065002 159.644339,53.6065002 159.43947,53.6065002 C158.859009,53.6065002 158.278549,53.6406115 157.732233,53.8111675 C157.390785,53.9135012 157.015193,53.9817236 156.639601,54.0840572 C156.434732,54.1181685 156.332298,54.2546133 156.195719,54.3910582 C156.161574,54.3910582 156.127429,54.3910582 156.127429,54.3910582 C155.99085,54.049946 156.195719,53.572389 155.820127,53.2994993 C155.615258,53.1630544 155.512824,53.2653881 155.307955,53.2994993 C155.171376,53.3336105 155.068942,53.2994993 154.932363,53.3336105 C154.864074,53.3677217 154.795784,53.4700554 154.727495,53.5041666 C154.454337,53.7429451 154.215323,54.0158348 154.010455,54.3228357 C153.805586,54.5957255 153.361705,54.6980591 153.054402,54.8003928 C152.781244,54.9027264 152.473941,54.9368376 152.200783,55.0732825 C151.96177,55.1756161 151.791046,55.2097273 151.517888,55.2779498 C151.278875,55.3461722 151.074006,55.5167283 150.869138,55.6190619 C150.664269,55.7213956 150.459401,55.8237292 150.254532,55.9260628 C149.742361,56.1989526 149.127756,56.3353974 148.58144,56.6082871 C148.069269,56.8470657 147.522953,57.0176217 147.044926,57.3246227 C146.805913,57.4951787 146.5669,57.6657348 146.396176,57.8704021 C146.225452,58.0750694 146.088873,58.2797367 145.884005,58.4502927 C145.713281,58.5867376 145.576702,58.7231825 145.440123,58.8937385 C145.371833,58.961961 145.235254,59.3371843 145.098675,59.3371843 C144.996241,59.3371843 144.927952,59.132517 144.791373,59.0642946 C144.620649,58.9960722 144.654794,59.0642946 144.518215,59.132517 C144.245057,59.2689619 143.937754,59.3030731 143.630451,59.439518 C143.152425,59.6441853 142.606109,59.7124077 142.162227,59.9852974 C141.615911,60.3264096 141.03545,60.4628544 140.489134,60.7357441 C140.011108,60.9745227 139.635515,61.2815236 139.157489,61.4520797 C138.918476,61.5203021 138.747752,61.6567469 138.542883,61.7590806 C138.201436,61.8614142 138.064857,62.134304 137.757554,62.2707488 C137.518541,62.4071937 137.313672,62.4071937 137.074659,62.4754161 C136.869791,62.5436385 136.699067,62.7141946 136.460054,62.782417 C135.777159,63.089418 135.094264,63.3964189 134.479658,63.8057535 C133.899197,64.1809768 133.284592,64.4538666 132.635842,64.7267563 C132.328539,64.8632011 132.021236,65.2384245 131.816368,65.5113142 C131.509065,65.5113142 131.338341,65.5113142 131.065183,65.6818703 C130.792025,65.8524264 130.416433,66.0229825 130.074986,65.9888712 C129.665249,65.9888712 129.52867,65.6136479 129.221367,65.4089806 C129.016498,65.2725357 128.845775,65.4089806 128.606761,65.5113142 C128.16288,65.6818703 128.026301,65.7842039 127.821432,66.2276497 C127.821432,66.2276497 127.650708,66.7052068 127.548274,66.7734292 C127.240971,66.9439853 127.172682,66.5346507 126.967813,66.5005395 C126.7288,66.432317 126.387353,66.6028731 126.182484,66.6710955 C125.909326,66.7734292 125.636168,66.909874 125.4313,67.1145413 C125.328865,67.216875 125.294721,67.3533198 125.192286,67.4215423 C124.850839,67.6603208 124.406957,67.2850974 124.06551,67.1827638 C123.792352,67.0804301 123.553338,67.0804301 123.28018,67.0122077 C123.041167,66.9439853 122.802154,66.909874 122.563141,66.8757628 C121.709522,66.8416516 121.026627,66.5346507 120.241298,66.1935385 C119.763271,65.9888712 119.285245,65.9888712 118.807218,65.7842039 C118.295047,65.5454254 117.748731,65.4430918 117.202415,65.2384245 C116.656099,65.0337572 116.041493,64.9314236 115.495177,64.7267563 C115.119585,64.5903114 114.880572,64.3856441 114.573269,64.1809768 C114.334256,64.0104208 114.061098,63.9421983 113.822085,63.8057535 C113.378203,63.5328638 112.934321,63.2258628 112.558729,62.9188619 C112.353861,62.7483058 112.217282,62.5436385 111.978268,62.4071937 C111.7734,62.30486 111.70511,62.2025264 111.534387,62.0660815 C111.227084,61.7590806 110.783202,61.6226357 110.373465,61.4520797 C109.519846,61.0768563 108.700372,60.6675217 107.812609,60.394632 C107.300438,60.2240759 106.856556,59.917075 106.31024,59.7806301 C106.002937,59.7124077 105.695634,59.5759628 105.422476,59.439518 C105.012739,59.2348507 104.603002,58.9960722 104.159121,58.8596273 C103.681094,58.6890713 102.86162,58.7231825 102.383594,58.8596273 C101.803133,59.0301834 101.017804,59.2348507 100.403198,59.0642946 C99.9251717,58.9278498 99.5837242,58.5867376 99.2081319,58.4161815 C98.8325397,58.2115142 98.5252369,57.9727357 98.1837894,57.7339572 C97.9789209,57.5975124 97.8081972,57.4610675 97.6033287,57.3246227 C97.3984602,57.1881778 97.2277365,57.1540666 97.022868,57.0176217 C96.8521442,56.9493993 96.6814205,56.8811769 96.5448415,56.7788432 C96.4082625,56.6765096 96.0326702,56.5059535 95.8619465,56.4718423 C96.1692492,56.1989526 96.3741177,55.9942853 96.613131,55.6872843 C96.6472757,55.6531731 96.7155652,55.5508395 96.74971,55.4826171 C96.886289,55.3461722 97.0911575,55.3802834 97.296026,55.3802834 C98.0813552,55.3802834 98.8325397,55.6190619 99.6178689,55.6531731 C100.027606,55.6872843 100.437343,55.7555068 100.881225,55.7555068 C101.222672,55.7555068 101.598264,55.7555068 101.939712,55.7555068 C102.383594,55.7555068 102.759186,55.6872843 103.100633,55.3802834 C103.339647,55.1756161 103.373791,54.9709488 103.407936,54.6980591 C103.407936,54.4592806 103.339647,54.3228357 103.305502,54.1181685 C103.271357,53.9476124 103.339647,53.7429451 103.305502,53.572389 C103.271357,53.2994993 103.203068,53.0266096 103.134778,52.7537199 C103.066489,52.4808301 102.998199,52.4126077 103.168923,52.2079404 C103.305502,52.0373844 103.442081,52.0032731 103.612805,51.8668283 C103.817673,51.7303834 103.988397,51.5257161 103.783528,51.3210488 C103.612805,51.1504928 103.373791,50.9799367 103.134778,50.877603 C103.134778,50.707047 103.373791,50.6729358 103.51037,50.6047133 C103.681094,50.5364909 103.783528,50.400046 103.988397,50.400046 C104.022542,50.1612675 104.090831,49.922489 104.090831,49.6495993 C104.090831,49.4790432 104.090831,49.3084872 104.2957,49.2402647 C104.568858,49.1379311 105.012739,49.3084872 105.320042,49.2402647 C105.388332,49.2402647 105.388332,49.1720423 105.456621,49.1379311 C105.559055,49.1038199 105.627345,49.1379311 105.729779,49.1379311 C105.832213,49.1038199 105.934648,49.0014862 106.002937,48.9332638 C106.276095,48.6603741 106.412674,48.3533731 106.276095,47.9781498 C106.173661,47.7052601 106.037082,47.4664816 105.934648,47.1935918 C105.798069,46.8524797 105.66149,46.5454788 105.559055,46.2384778 C105.422476,45.8973657 105.320042,45.5562535 105.183463,45.2151414 C105.115174,45.0104741 105.046884,44.7716956 104.94445,44.5670283 C104.87616,44.3964722 104.773726,44.2259161 104.773726,44.0212489 C104.739581,43.7824704 105.046884,43.3049133 105.149318,43.1002461 C105.320042,42.7932451 105.524911,42.6568003 105.524911,42.2815769 C105.524911,41.7357975 105.422476,41.2582405 105.285897,40.7465722 C105.183463,40.3713489 105.149318,39.9620143 105.149318,39.5867909 C105.149318,39.3480124 105.046884,39.1433451 105.046884,38.9045666 C105.046884,38.5975657 105.012739,38.3587872 104.978595,38.0517863 C104.978595,38.0517863 105.012739,38.0858975 105.012739,38.0858975 C105.115174,38.2223423 105.354187,38.7681218 105.524911,38.7681218 C105.66149,38.2564535 105.559055,37.5742292 105.559055,36.9943386 C105.5932,37.3013395 105.763924,37.8812302 105.934648,37.9153414 C106.002937,37.7447853 106.037082,36.9602274 105.968792,36.4826704 C106.002937,36.5167816 106.037082,36.5167816 106.071227,36.5508928 C106.105371,36.2780031 105.900503,35.8345573 105.763924,35.5957788 C105.559055,35.2546666 105.422476,34.9817769 105.320042,34.6065535 C105.149318,34.0607741 104.910305,33.4467722 104.637147,32.935104 C104.159121,32.0141012 103.442081,30.9566536 102.520173,30.4108741 C101.871422,30.0015395 101.154383,29.8650947 100.437343,29.6263162 C100.061751,29.4898713 99.7203032,29.3534265 99.3447109,29.2510928 C98.9008292,29.114648 98.4910922,29.114648 98.0472104,29.0805367 C97.7057629,29.0464255 97.4326049,28.9099807 97.0911575,28.9440919 C96.74971,28.9440919 96.4082625,28.9440919 96.066815,28.9440919 C95.657078,28.8758694 95.2131962,28.8417582 94.7693145,28.8417582 C94.154709,28.8417582 93.5059588,28.7735358 92.8913533,28.8758694 C92.515761,28.9099807 92.1401688,29.0123143 91.7987213,29.0805367 C91.6279975,29.0805367 91.423129,29.0805367 91.2524053,29.0805367 C90.8085235,29.0805367 90.5353655,29.0805367 90.1597733,29.2510928 C89.5110231,29.5580937 88.8622728,29.8309835 88.2135226,30.1038732 C87.9062198,30.240318 87.5989171,30.3426517 87.3940486,30.6155414 C87.2574696,30.7860975 87.1208906,30.9907648 86.9501668,31.1613208 C86.3697061,31.7071003 85.8233901,32.2869909 85.3453636,32.9009928 C83.9795736,34.7088872 83.8771394,36.9261162 83.8771394,39.1433451 C83.8771394,41.8722423 84.5600344,43.9189152 85.1404951,46.57959 C85.3112189,47.3300367 85.2770741,48.8650414 85.2770741,49.6495993 C85.2770741,50.1612675 85.5160874,50.4341573 85.7209559,50.7411582 C85.6185216,50.9458255 85.4819426,51.1504928 85.3795084,51.3892713 C85.2770741,51.5939386 85.1063504,51.7644946 85.0380609,52.0032731 C84.9697714,52.1738292 84.7990476,52.5149414 84.8331924,52.6854974 C84.7307581,52.6513862 84.2868764,52.8560535 84.1502974,52.8901647 C83.9795736,52.9242759 83.7405604,52.8901647 83.5698366,52.8901647 C83.2966786,52.8901647 82.9210864,52.9924984 82.6820731,53.094832 C82.4430599,53.1971657 82.2381914,53.4359442 81.9991782,53.572389 C81.8625992,53.6406115 81.7943097,53.6747227 81.6918754,53.7770563 C81.5894412,53.8452787 81.4187174,53.87939 81.2821384,53.87939 C80.6333882,53.9135012 79.9504932,53.87939 79.3017429,53.87939 L78.34569,53.87939 C78.209111,53.87939 78.072532,53.87939 77.9700977,53.87939 C77.6969397,53.87939 77.5945055,53.8111675 77.3554922,53.6747227 C76.9116105,53.4700554 76.3994392,53.3677217 75.9214127,53.2312769 C75.6482547,53.1289432 75.340952,53.0266096 75.067794,52.9242759 C74.794636,52.8560535 74.521478,52.8219423 74.2824648,52.7537199 C73.9410173,52.6513862 73.565425,52.617275 73.2239775,52.617275 C73.019109,52.617275 72.8483853,52.5490526 72.6435168,52.4467189 C72.4386483,52.3443853 72.199635,52.3443853 71.9947665,52.2420516 C71.7216085,52.139718 71.5508848,52.0373844 71.2777268,52.0032731 C71.0045688,51.9350507 70.7314108,51.8668283 70.4582528,51.8327171 C70.0143711,51.7644946 69.5363446,51.6280498 69.0924628,51.5598273 C68.8534496,51.5257161 68.5802916,51.4916049 68.3754231,51.3551601 C68.1705546,51.2528264 68.0339756,51.1163816 67.8291071,51.0481591 C67.5218043,50.9117143 67.3169358,50.8093806 67.0096331,50.7752694 C66.9071989,50.7752694 66.8389094,50.707047 66.7364751,50.707047 C66.5316066,50.6729358 66.3267381,50.707047 66.1218696,50.6729358 C65.7804221,50.6388245 65.4731194,50.5706021 65.1316719,50.5706021 C64.6877901,50.5706021 64.3804874,50.4682685 63.9707504,50.3318236 C63.5268686,50.1953787 63.0829869,50.0589339 62.6732499,49.922489 C62.6049604,49.8883778 62.5025262,49.8542666 62.4342367,49.8201554 C62.2976577,49.7860442 62.1269339,49.8201554 61.9903549,49.7860442 C61.6147627,49.7178217 61.2733152,49.5472657 60.9318677,49.4108208 C60.7269992,49.3425984 60.5221307,49.3084872 60.3172622,49.2061535 C60.2489727,49.1720423 60.1806832,49.1379311 60.1123937,49.1038199 C59.8392357,48.967375 59.668512,49.0014862 59.3612092,49.0014862 C59.1904855,49.0014862 58.6441695,48.6262629 58.5075905,48.5580404 C58.302722,48.4215956 58.029564,48.4215956 57.8246955,48.2851507 C57.7222612,48.2169283 57.6539717,48.1145946 57.5515375,48.0463722 C57.4149585,47.9781498 57.2783795,47.8758161 57.1759452,47.8075937 C56.936932,47.6711488 56.7320635,47.534704 56.527195,47.3641479 C56.4930502,47.2959255 56.4589055,47.2618143 56.4247607,47.2277031 C56.3564712,47.2277031 56.2881817,47.1935918 56.2198922,47.1935918 C56.0833132,47.1594806 55.9467343,47.0912582 55.8443,47.0230358 C55.6735763,46.9548133 55.434563,46.9207021 55.2638393,46.8183685 C55.1272603,46.7160348 55.024826,46.6137012 54.8541023,46.5113675 C54.6492338,46.4090339 54.5126548,46.3067003 54.341931,46.2043666 C54.1712073,46.102033 54.0004835,46.0679217 53.8297598,45.9655881 C53.6248913,45.8291432 53.4200228,45.624476 53.2151543,45.4880311 C52.6346935,45.0104741 52.1225223,44.4988059 51.4054826,44.2600274 C51.0981798,44.1576937 50.7908771,44.0894713 50.5177191,43.9530264 C50.0738373,43.7824704 49.6982451,43.5778031 49.2885081,43.407247 C48.9129158,43.2708021 48.5031788,43.1684685 48.1617314,43.0320236 C47.9227181,42.92969 47.7861391,42.7932451 47.5129811,42.7591339 C47.3081126,42.7250227 47.0690994,42.6909115 46.8642309,42.6568003 C46.5227834,42.5885778 46.2154806,42.452133 45.8740331,42.3497993 C45.7033094,42.3156881 45.1569934,42.2474657 45.0887039,42.1110208 C45.0204144,42.145132 44.9862696,42.145132 44.9179801,42.1792433 C44.9179801,42.145132 44.9179801,41.974576 44.9179801,41.8381311 C44.7814011,41.8381311 44.6789669,41.8040199 44.5423879,41.8040199 C44.7472564,41.3264629 44.9521249,40.7806834 44.9862696,40.1666816 C45.0887039,39.8255694 45.1911381,39.4503461 45.2935724,39.1092339 C45.4301514,38.6998993 45.3960066,38.3928984 45.4301514,37.9835638 C45.4301514,37.8812302 45.4984409,37.7447853 45.5325856,37.6424517 C46.5227834,38.9386778 47.4446916,40.234904 48.3665999,41.5652414 C48.5031788,41.7699087 48.7080473,41.8722423 48.9470606,41.8722423 C49.0836396,41.8722423 49.2202186,41.8381311 49.3567976,41.7357975 C49.6641003,41.5311302 49.7665346,41.0876844 49.5275213,40.7806834 C48.2983104,39.0069003 47.0349546,37.2672283 45.7033094,35.5616676 C70.2533843,17.5168349 98.7642502,5.8507994 128.640906,1.96212091 C123.587483,0.256560164 117.338994,-0.562108993 112.114847,0.427116239 C87.1891801,5.16857511 63.4244344,16.4593872 43.6546244,33.0033264 C42.0498212,31.0589872 40.4108732,29.1487592 38.669491,27.3067536 C38.396333,27.0338638 37.9524512,26.9997526 37.6792932,27.2726423 C37.4061352,27.5455321 37.3719905,27.9889779 37.6451485,28.2618676 C38.4304777,29.114648 39.215807,29.9674283 39.9669915,30.8543199 C39.898702,30.8884311 39.8304125,30.9225423 39.762123,30.9907648 C39.4548202,31.2636545 39.5913992,31.7753227 39.1133727,31.97999 C38.8402147,32.0823236 38.7719252,31.97999 38.4987672,31.9117676 C38.259754,31.8776564 38.1573197,31.9117676 37.9183065,31.9458788 C37.44028,32.0141012 37.2695562,32.0141012 36.9622535,32.3893246 C36.7915298,32.5939919 36.757385,32.6281031 36.6549508,32.935104 C36.5866613,33.1397713 36.5525165,33.4467722 36.4159375,33.5832171 C36.211069,33.7878844 35.8696215,33.9243293 35.664753,34.1289965 C35.3233055,34.4359975 35.2891608,34.8112208 35.391595,35.2546666 C35.5964635,36.2780031 34.5038315,36.6873377 34.298963,37.6424517 C34.1965288,38.0517863 34.3672525,38.4611208 34.4696868,38.8704554 C34.435542,38.9045666 34.435542,38.9386778 34.4013973,38.9727891 C34.435542,38.9386778 34.3331078,39.1774563 34.298963,39.3139012 C34.298963,39.4162348 34.2648183,39.7232358 34.2648183,39.757347 C34.2648183,39.8255694 34.2648183,39.8937919 34.298963,39.9620143 C34.5379763,40.0984591 34.7769895,40.3372376 34.9135685,40.6442386 C34.8794238,40.6101274 34.845279,40.6101274 34.8111343,40.5760162 C33.9233708,40.7806834 34.162384,41.8722423 34.0599498,42.5203554 C34.025805,42.7250227 33.9916603,42.92969 33.9575155,43.1002461 C33.889226,43.2025797 33.7867918,43.2708021 33.6843575,43.3731358 C33.4111995,43.6119143 33.0697521,43.6801367 32.8307388,43.9189152 C32.5575808,44.1576937 32.3185676,44.4988059 32.1478438,44.8058068 C31.8063963,45.4539199 32.1136991,46.102033 32.4892913,46.7160348 C32.6600151,46.9548133 32.7283046,47.2959255 32.8990283,47.5005928 C33.0356073,47.7052601 33.4111995,47.8758161 33.616068,48.012261 C33.6502128,48.0463722 33.6843575,48.0463722 33.7185023,48.0804834 C33.7185023,48.1487059 33.7185023,48.2510395 33.7185023,48.3192619 C33.7185023,48.8309302 33.752647,49.2061535 33.8550813,49.6837105 C34.025805,50.3659348 33.8209365,51.0822703 33.9233708,51.7644946 C34.2306735,53.7770563 34.162384,55.9601741 33.8209365,58.006847 C33.6502128,59.0301834 33.4111995,60.0535198 33.3087653,61.0768563 C33.2746206,61.6226357 33.3087653,62.1684152 33.3087653,62.7141946 C33.3087653,63.3623077 33.2063311,63.9421983 33.1380416,64.5562002 C32.7965941,68.6154348 32.7624493,72.7428918 32.2161333,76.7680151 C32.0795543,77.7231292 32.2161333,78.7464656 32.2161333,79.7356908 C32.2161333,80.1109142 32.0795543,80.9295834 32.2844228,81.2024731 C32.4210018,81.4071404 32.5575808,81.3389179 32.7624493,81.3730291 C33.1380416,81.4753628 33.0697521,81.3389179 33.1380416,81.7482525 C33.2063311,82.3281432 33.0014626,83.0103675 33.1721863,83.5902581 C33.3770548,83.5561469 33.6843575,83.3173684 33.889226,83.419702 C34.162384,83.5220357 33.9916603,83.5561469 34.0599498,83.7949254 C34.2306735,84.4771497 34.1965288,85.1252628 34.2306735,85.8415983 C34.2648183,86.3532665 34.4013973,86.8308235 34.435542,87.3424918 C34.4696868,88.1270497 34.435542,88.9116076 34.435542,89.6620544 C34.435542,90.4466123 34.1965288,91.4699488 34.6745553,92.1521731 C34.9135685,92.0157282 35.118437,91.1629478 35.1867265,90.8900581 C35.4940293,89.9349441 35.3574503,88.9116076 35.3574503,87.9223824 C35.3574503,86.4897114 34.981858,85.1252628 34.981858,83.726703 C34.981858,82.9762562 34.8794238,82.2258095 34.8111343,81.4753628 C34.7087,80.3496927 34.7428448,79.1558002 34.8111343,77.9960189 C34.8794238,76.9385712 35.0501475,75.8811236 35.255016,74.8236759 C35.3574503,74.3461189 35.5964635,73.7662282 35.5623188,73.25456 C35.4940293,75.9152348 36.347648,78.5417983 36.3135033,81.2024731 C36.3135033,82.1234759 36.2452138,83.0785899 36.3135033,83.9995927 C36.347648,84.7159282 36.893964,84.6477058 37.303701,85.0911516 C37.6110037,85.4322637 37.850017,85.7392647 38.2256092,85.9780432 C38.7377805,86.3532665 38.7036357,86.6261562 38.9767937,87.1719357 C39.2499517,87.8200488 39.8645572,89.0139413 40.7523207,88.809274 C40.9230444,88.1611609 40.8206102,87.2401581 40.7523207,86.592045 C40.6498865,86.0462656 40.5474522,85.5004861 40.4108732,84.9205955 C40.2742942,84.2383712 40.2060047,83.5561469 40.2060047,82.8739226 C40.0694257,81.4753628 39.762123,80.1109142 39.4206755,78.7464656 C39.1133727,77.4843507 39.079228,76.2222357 39.0109385,74.9260095 C38.9085042,73.3568937 38.8402147,71.821889 38.532912,70.2868843 C38.259754,68.8201021 38.259754,67.387431 38.0890302,65.9206488 C37.850017,63.8057535 37.850017,61.6226357 37.5085695,59.5418516 C37.0988325,57.1199554 36.757385,54.7321703 36.5866613,52.2761629 C36.5183718,51.0140479 36.620806,49.751933 36.5183718,48.489818 C36.4500823,47.6370376 36.3135033,46.750146 36.211069,45.8973657 C36.2452138,45.8291432 36.3135033,45.795032 36.347648,45.7268096 C36.5866613,45.3515862 36.8256745,45.0104741 37.0646878,44.6352507 C37.8158722,45.5903647 38.7036357,46.4772563 39.5572545,47.3641479 C39.5572545,47.3641479 39.5572545,47.3641479 39.5572545,47.3641479 C39.625544,47.3982591 39.7279782,47.4664816 39.7962677,47.5005928 C39.9328467,47.5688152 40.035281,47.6370376 40.17186,47.7052601 C40.6840312,47.9440386 41.1962024,48.2510395 41.6742289,48.5239292 C42.1864002,48.8309302 42.6644267,49.2061535 43.2107427,49.4790432 C43.4156112,49.5813769 43.6204797,49.6837105 43.8253482,49.751933 C43.9619272,49.8201554 44.0643614,49.8883778 44.2009404,49.9566002 C44.2350852,49.9907115 44.3375194,49.9566002 44.3716642,49.9907115 C44.5423879,50.1271563 44.4740984,50.3659348 44.4740984,50.5706021 C44.4740984,51.1163816 44.4399537,51.662161 44.4740984,52.2079404 C44.5082432,52.8901647 44.5765327,53.5382778 44.5765327,54.2205021 C44.5765327,54.6639479 44.5765327,55.0732825 44.5765327,55.5167283 C44.5765327,56.4377311 44.7814011,57.3587339 44.9521249,58.2456255 C45.0204144,58.6208488 45.0887039,58.961961 45.0887039,59.3371843 C45.0887039,59.6441853 45.1569934,59.8488526 45.1911381,60.1558535 C45.2252829,60.3264096 45.1911381,60.5310769 45.1911381,60.7357441 C45.1911381,61.0086339 45.3618619,61.0427451 45.6008751,61.1450787 C46.1130464,61.3156348 46.6252176,61.4520797 47.1032441,61.6908582 C47.4788364,61.8955255 47.8202839,62.0660815 48.2641656,62.1684152 C48.9470606,62.3730825 49.5958108,62.7141946 50.3128506,62.782417 C51.0298903,62.8506395 51.7469301,62.9870843 52.4639698,63.1235292 C52.976141,63.2258628 53.4883123,63.259974 53.9663388,63.4646413 C54.2394968,63.6010862 54.5126548,63.7716423 54.751668,63.9080871 C54.9565365,64.044532 55.1272603,64.1468656 55.3321288,64.2833105 C55.5369973,64.4197554 55.7418658,64.6585339 56.0150237,64.7608675 C56.527195,64.9314236 57.1418005,65.0337572 57.6539717,65.1360909 C58.849038,65.3407582 59.9758147,65.6818703 61.1708809,65.95476 C61.5806179,66.0570937 61.9220654,66.2276497 62.2976577,66.3982058 C62.7756842,66.6369843 63.2878554,66.9439853 63.6975924,67.2850974 C64.1414741,67.6603208 64.4487769,68.2743226 64.8243691,68.7177684 C65.0292376,68.9565469 65.1999614,69.1953254 65.4389746,69.3658815 C65.7462774,69.60466 65.9170011,69.8434385 66.1218696,70.1504395 C66.4633171,70.5938852 66.8730541,70.9349974 67.2827911,71.2761095 C67.5900938,71.514888 67.8973966,71.7536666 68.2046993,71.9924451 C68.5120021,72.2312236 68.7510153,72.3676684 68.8875943,72.7428918 C68.9900286,73.0157815 69.0583181,73.3568937 69.0924628,73.6297834 C69.1266076,74.039118 69.1948971,74.4484525 69.2973313,74.8577871 C69.3656208,75.164788 69.3656208,75.4376778 69.4339103,75.7446787 C69.5021998,75.9834572 69.5363446,76.1881245 69.5704893,76.426903 C69.6387788,76.90446 69.8436473,77.382017 69.9119368,77.859574 C70.1509501,79.121689 70.3216738,80.4179151 70.7314108,81.6118077 C70.9362793,82.1916983 71.0728583,82.8057002 71.3460163,83.3855908 C71.6874638,84.1360376 71.8923323,84.9547067 72.1313455,85.7392647 C72.3703588,86.4897114 72.5410825,87.2060469 72.8142405,87.9223824 C73.155688,88.7410516 73.565425,89.5256095 73.9410173,90.3442787 C74.2824648,91.026503 74.5897675,91.7428385 74.8970702,92.459174 C75.1702282,93.1072871 75.5799652,93.7554002 75.9897022,94.3011796 C76.297005,94.7105142 76.570163,95.1880712 76.8774657,95.5974058 C77.0481895,95.8361843 77.2872027,95.9044067 77.2872027,96.2114076 C77.2872027,96.5184086 77.2872027,96.8254095 77.2872027,97.0982992 C77.2872027,97.2688553 77.2189132,97.4053001 77.1847685,97.5758562 C77.1506237,97.7805235 77.2189132,97.7464123 77.2872027,97.8828572 C77.6969397,98.4627478 77.5945055,99.2473057 77.4579265,99.8954188 C77.3554922,100.338865 77.389637,100.748199 77.389637,101.191645 C77.389637,101.362201 77.389637,101.430423 77.4920712,101.566868 C77.526216,101.635091 77.6969397,101.873869 77.799374,101.873869 C77.799374,102.18087 77.6969397,102.794872 77.6969397,103.135984 C77.6969397,103.647652 77.5945055,104.159321 77.5945055,104.670989 C77.5945055,105.83077 77.5945055,106.990552 77.5945055,108.150333 C77.5945055,108.764335 77.4920712,109.344225 77.4920712,109.958227 C77.4920712,110.401673 77.526216,110.845119 77.4920712,111.288565 C77.4920712,111.663788 77.389637,111.970789 77.389637,112.346012 C77.389637,114.222129 77.389637,116.064135 77.2189132,117.90614 C77.0481895,119.611701 77.0823342,121.351373 76.7750315,123.056934 C76.6725972,123.636824 76.6043077,124.250826 76.5018735,124.830717 C76.433584,125.20594 76.433584,125.581164 76.433584,125.990498 C76.433584,126.33161 76.6043077,126.365722 76.8774657,126.536278 C77.526216,126.87739 78.1749662,127.047946 78.8578612,127.286724 C79.2675982,127.423169 79.6090457,127.627837 80.0187827,127.73017 C80.3943749,127.832504 80.7699672,127.764281 81.1455594,127.832504 C81.6235859,127.900726 82.0674677,128.105394 82.5454941,128.207727 C82.8869416,128.27595 83.2283891,128.446506 83.5356919,128.548839 C83.8771394,128.651173 83.9454289,128.924063 84.1502974,129.162841 C84.6624686,129.810954 85.4477979,129.845065 86.1989823,129.845065 C86.1648376,130.015622 86.3355613,130.152066 86.3697061,130.322623 C86.4038508,130.52729 86.4038508,130.731957 86.4379956,130.936624 C86.5745746,131.65296 86.6428641,132.369295 86.7452983,133.05152 C86.8135878,133.699633 87.0184563,134.347746 87.0867458,134.995859 C87.1550353,135.780417 87.1891801,136.599086 87.3257591,137.383644 C87.3940486,137.724756 87.4281933,138.065868 87.4964828,138.40698 C87.5647723,138.850426 87.5647723,139.293872 87.6672066,139.737318 C87.8037856,140.487765 87.7696408,141.272322 87.8720751,142.022769 C88.0086541,143.216662 88.2818121,144.376443 88.4866806,145.570336 C88.5891148,146.150226 88.7598386,146.696006 88.8622728,147.241785 C88.9305623,147.480564 88.9647071,147.685231 89.0329966,147.924009 C89.1012861,148.162788 89.2037203,148.401566 89.2720098,148.640345 C89.3402993,148.913235 89.3402993,149.186124 89.3744441,149.424903 C89.4085888,149.663681 89.4427336,149.868349 89.4427336,150.107127 C89.4427336,150.414128 89.3402993,150.687018 89.3402993,150.994019 C89.3402993,151.30102 89.3061546,151.573909 89.2378651,151.88091 C89.2037203,152.187911 89.1695756,152.699579 89.2378651,153.00658 C89.3061546,153.415915 89.5110231,153.757027 89.4427336,154.200473 C89.4085888,154.40514 89.3402993,154.575696 89.3402993,154.780364 C89.3402993,154.985031 89.3402993,155.155587 89.3402993,155.360254 L89.3402993,157.816262 C89.3402993,159.044265 89.2720098,160.272269 89.3744441,161.500273 C89.4427336,162.318942 89.5110231,163.137611 89.6134573,163.990392 C89.6817468,164.638505 89.6817468,165.252507 89.7158916,165.90062 C89.8183258,167.367402 89.9890495,168.800073 90.0914838,170.266855 C90.1256285,170.812635 90.1256285,171.358414 90.193918,171.904193 C90.2280628,172.177083 90.2963523,172.449973 90.3646418,172.688751 C90.4329313,172.961641 90.4329313,173.336864 90.6719445,173.541532 C90.6719445,173.643865 90.5695103,173.916755 90.603655,174.019089 C90.6719445,174.155534 90.6719445,174.291978 90.7060893,174.428423 C90.8085235,174.803647 90.9792473,175.17887 91.0816815,175.588205 C91.28655,176.338651 91.559708,177.054987 91.8670108,177.805434 C91.969445,178.010101 92.0718793,178.248879 92.1401688,178.453547 C92.2084583,178.726436 92.242603,178.999326 92.3450373,179.272216 C92.4816163,179.647439 92.7206295,180.090885 92.7206295,180.466108 C92.7547743,180.909554 92.6864848,181.353 92.6181953,181.796446 C92.4816163,182.47867 92.3450373,183.160894 92.242603,183.843119 C92.1401688,184.525343 92.1743135,185.207567 92.0718793,185.889792 C92.0377345,186.060348 92.0377345,186.333237 92.0718793,186.469682 C92.106024,186.708461 92.4133268,186.98135 92.6181953,187.117795 C92.8230638,187.25424 93.0962218,187.288351 93.335235,187.390685 C93.5059588,187.458907 93.6766825,187.561241 93.8474062,187.629464 C94.01813,187.697686 94.0864195,187.731797 94.154709,187.902353 C94.1888537,188.107021 94.154709,188.414021 94.154709,188.618689 C94.154709,188.891578 94.154709,189.164468 94.154709,189.437358 C94.154709,189.812581 94.2571432,190.153693 94.2571432,190.528917 C94.2571432,191.313475 94.291288,192.063921 94.2571432,192.848479 C94.2571432,193.326036 94.0864195,193.70126 93.8132615,194.110594 C93.6766825,194.315262 93.608393,194.55404 93.5401035,194.792819 C93.4376693,195.065708 93.3010903,195.304487 93.198656,195.543265 C92.8572085,196.361935 92.7206295,197.487605 93.062077,198.340385 C93.3010903,198.920276 93.5742483,199.807167 94.291288,199.87539 C95.793657,200.045946 97.3643155,199.977723 98.8666844,199.977723 C99.4471452,199.977723 100.13004,200.045946 100.710501,199.943612 C101.154383,199.87539 101.734843,199.807167 102.110436,199.568389 C102.451883,199.32961 102.793331,198.852053 102.964054,198.442719 C103.168923,197.965162 103.339647,197.453493 103.476226,196.975936 C103.57866,196.566602 103.544515,196.089045 103.544515,195.67971 C103.544515,195.236264 103.305502,194.861041 103.271357,194.417595 C103.203068,194.008261 103.203068,193.598926 103.100633,193.189592 C102.92991,192.609701 102.964054,192.02981 102.964054,191.415808 C102.964054,191.142919 102.92991,190.835918 102.998199,190.563028 C103.032344,190.256027 103.134778,189.983137 103.168923,189.676136 C103.203068,189.300913 103.237212,188.891578 103.066489,188.550466 C103.407936,188.414021 103.749384,188.37991 104.090831,188.243465 C104.534713,188.038798 104.978595,187.902353 105.422476,187.697686 C105.695634,187.561241 105.934648,187.390685 106.173661,187.220129 C106.31024,187.117795 106.344385,187.117795 106.378529,186.947239 C106.412674,186.708461 106.378529,186.435571 106.412674,186.196792 C106.549253,185.071122 106.549253,183.87723 106.617543,182.75156 C106.719977,181.284778 106.583398,179.783884 106.515108,178.317102 C106.480964,177.464321 106.446819,176.57743 106.446819,175.72465 C106.446819,174.769535 106.344385,173.78031 106.344385,172.825196 C106.344385,171.426636 106.344385,170.028077 106.344385,168.595406 C106.344385,166.821622 106.31024,165.047839 106.446819,163.274056 C106.480964,162.932944 106.412674,162.455387 106.344385,162.114275 C106.24195,161.739051 106.31024,161.363828 106.207806,160.988605 C106.105371,160.545159 106.173661,160.033491 106.173661,159.555934 C106.173661,158.907821 106.276095,158.259707 106.276095,157.611594 C106.276095,156.349479 106.412674,154.95092 106.207806,153.722916 C106.173661,153.484137 106.207806,153.27947 106.173661,153.040692 C106.105371,152.631357 106.037082,152.222022 106.002937,151.812688 C105.934648,150.959908 105.729779,150.107127 105.627345,149.254347 C105.524911,148.435678 105.388332,147.548786 105.422476,146.730117 C105.422476,145.775003 105.354187,144.854 105.217608,143.898886 C105.081029,142.977883 105.251753,142.022769 105.115174,141.101766 C104.94445,139.839651 105.046884,138.577537 105.046884,137.315422 C105.046884,136.087418 105.046884,134.825303 105.046884,133.597299 C105.046884,132.846852 105.149318,132.130517 105.149318,131.38007 C105.149318,130.561401 105.149318,129.776843 105.149318,128.958174 C105.149318,127.900726 105.285897,126.809167 105.354187,125.75172 C105.388332,125.240051 105.354187,124.762494 105.422476,124.250826 C105.490766,123.739158 105.456621,123.193379 105.456621,122.647599 C105.456621,122.238265 105.456621,121.863041 105.524911,121.453707 C105.5932,121.044372 105.490766,120.669149 105.627345,120.293925 C105.729779,120.021036 105.763924,119.782257 105.900503,119.543479 C106.139516,119.168255 106.480964,118.861254 106.788266,118.554253 C107.095569,118.247252 107.402872,117.940252 107.710175,117.701473 C108.051622,117.428583 108.427214,117.32625 108.802807,117.121582 C109.144254,116.916915 109.553991,116.814581 109.895439,116.644025 C110.066162,116.541692 110.202741,116.371136 110.441755,116.371136 C110.475899,116.098246 111.261229,116.132357 111.500242,116.064135 C112.046558,115.92769 112.524584,115.688911 113.0709,115.552466 C113.309913,115.484244 113.514782,115.38191 113.753795,115.313688 C113.890374,115.279577 114.026953,115.313688 114.197677,115.279577 C114.368401,115.245466 114.470835,115.211354 114.641559,115.177243 C114.778138,115.177243 114.880572,115.074909 115.017151,115.074909 C115.119585,114.836131 114.914717,114.563241 114.846427,114.324463 C114.812282,114.085684 114.778138,113.812795 114.709848,113.574016 C114.675703,113.437571 114.573269,113.232904 114.607414,113.096459 C114.641559,112.925903 114.948861,112.823569 115.08544,112.687124 C115.768335,112.141345 116.280507,111.425009 116.997546,110.913341 C117.202415,110.776896 117.407283,110.674563 117.612152,110.538118 C117.748731,110.469895 117.851165,110.367562 117.987744,110.299339 C117.987744,110.913341 117.782876,111.322676 117.680441,111.936678 C117.612152,112.311901 117.509718,112.721236 117.373139,113.096459 C117.270704,113.437571 117.065836,113.744572 116.963402,114.051573 C116.860967,114.358574 116.690244,114.631464 116.553665,114.938465 C116.417086,115.211354 116.382941,115.484244 116.280507,115.757134 C116.041493,116.575803 115.631756,117.292138 115.256164,118.042585 C115.187875,118.213141 115.15373,118.383697 115.051296,118.554253 C114.948861,118.690698 114.880572,118.861254 114.778138,118.997699 C114.641559,119.236478 114.539124,119.543479 114.470835,119.816368 C114.265966,120.498593 114.129387,121.146706 114.026953,121.82893 C113.924519,122.442932 113.992808,123.159267 113.651361,123.705047 C113.514782,123.943825 113.378203,124.148493 113.241624,124.387271 C113.13919,124.557827 113.173334,124.728383 113.105045,124.898939 C113.036755,125.20594 113.036755,125.342385 113.173334,125.649386 C113.241624,125.785831 113.275769,125.956387 113.344058,126.092832 C113.412348,126.195166 113.446492,126.229277 113.446492,126.365722 C113.412348,126.6045 113.13919,126.979723 113.036755,127.184391 C112.934321,127.389058 112.866032,127.627837 112.866032,127.866615 C112.866032,128.071282 112.831887,128.310061 112.866032,128.514728 C112.900176,128.719395 113.0709,128.958174 113.13919,129.162841 C113.309913,129.572176 113.446492,130.015622 113.651361,130.424956 C113.924519,131.004847 114.197677,131.550626 114.50498,132.130517 C114.778138,132.608074 115.08544,133.153853 115.461033,133.529077 C115.768335,133.801966 116.178072,134.17719 116.348796,134.586524 C116.417086,134.791192 116.417086,134.995859 116.45123,135.200526 C116.485375,135.541638 116.553665,135.882751 116.621954,136.189751 C116.724388,136.837865 116.929257,137.451866 117.031691,138.099979 C117.134125,138.748093 117.16827,139.498539 117.509718,140.07843 C117.851165,140.726543 118.363336,141.306434 118.841363,141.818102 C119.114521,142.125103 119.421824,142.432104 119.729126,142.704994 C120.036429,142.977883 120.377877,143.148439 120.719324,143.387218 C121.026627,143.591885 121.33393,143.864775 121.641232,144.035331 C121.91439,144.171776 122.153404,144.342332 122.392417,144.512888 C122.63143,144.717555 123.007022,145.024556 123.382615,144.956334 C123.724062,144.888111 124.031365,144.546999 124.236233,144.274109 C124.64597,143.762441 125.192286,143.353107 125.36301,142.670882 C125.533734,141.920436 125.36301,141.2041 125.294721,140.453653 C125.192286,139.464428 125.226431,138.509314 125.192286,137.520089 C125.158142,136.70142 124.987418,135.950973 125.158142,135.132304 C125.294721,134.381857 125.738602,133.699633 125.841037,132.949186 C125.909326,132.50574 125.943471,132.028183 126.045905,131.584737 C126.114195,131.209514 126.045905,130.834291 126.045905,130.459067 C126.045905,130.117955 126.148339,129.776843 126.148339,129.435731 C126.148339,129.333397 126.08005,129.060508 126.250774,129.026396 C126.558076,128.821729 126.7288,129.12873 127.001958,129.196952 C127.206827,129.265175 127.44584,129.231064 127.650708,129.265175 C127.958011,129.333397 128.265314,129.299286 128.572617,129.299286 C129.289656,129.299286 130.040841,129.196952 130.689591,128.958174 C131.065183,128.821729 131.338341,128.548839 131.679789,128.344172 C132.021236,128.105394 132.430973,128.071282 132.738276,127.73017 C132.943144,127.491392 133.216302,127.354947 133.48946,127.184391 C133.626039,127.082057 134.001632,127.013835 134.104066,126.843279 C134.240645,126.638611 134.104066,126.024609 134.104066,125.785831 C134.104066,125.069495 133.933342,124.387271 133.899197,123.636824 C133.865053,122.647599 133.899197,121.658374 133.899197,120.669149 C133.899197,118.690698 134.001632,116.712248 133.694329,114.767909 C133.591895,114.222129 133.626039,113.67635 133.626039,113.13057 C133.626039,112.687124 133.591895,112.243679 133.660184,111.800233 C133.762618,110.776896 133.728474,109.787671 133.728474,108.764335 C133.728474,106.888218 133.660184,105.012101 133.728474,103.135984 C133.762618,102.351426 133.899197,101.566868 133.933342,100.78231 C133.933342,100.407087 134.035776,100.065975 134.035776,99.6907515 C134.035776,99.3155282 134.104066,98.974416 134.104066,98.5991927 C134.2065,97.3029665 134.27479,95.9385179 134.2065,94.6422917 C134.172355,94.3011796 134.104066,93.9600674 134.104066,93.6189553 C134.104066,93.3460656 134.138211,93.0390646 134.069921,92.7661749 C134.001632,92.3568403 134.308934,91.981617 134.172355,91.5722824 C133.933342,90.719502 134.069921,89.7302768 134.069921,88.8774964 C134.069921,88.2976058 134.069921,87.7177151 134.069921,87.1378245 C134.069921,86.7284899 134.035776,86.3873777 133.933342,85.9780432 C133.865053,85.7392647 133.830908,85.5345974 133.796763,85.2958189 C133.762618,85.0229291 133.55775,84.9205955 133.48946,84.681817 C133.182158,83.8972591 132.567552,83.1809235 131.987091,82.5328105 C131.645644,82.1916983 131.372486,81.8164749 130.928604,81.5776964 C130.416433,81.3048067 129.938407,81.1001394 129.392091,80.9295834 C128.606761,80.6908049 127.616564,80.8272497 126.831234,80.9295834 C126.387353,80.9978058 126.01176,81.1001394 125.602023,81.2365843 C125.055707,81.4071404 124.509391,81.4753628 123.99722,81.6800301 C123.655773,81.7823637 123.34847,81.9529198 123.041167,82.0552534 C122.802154,82.1575871 122.528996,82.1916983 122.289983,82.3281432 C122.016825,82.4986992 121.777811,82.6692553 121.504653,82.8057002 C121.094916,83.0103675 120.685179,83.1809235 120.275442,83.419702 C119.797416,83.6584805 119.387679,83.9654815 118.977942,84.3065936 C118.636494,84.5794833 118.260902,84.7841506 117.919455,85.0229291 C117.23656,85.5004861 116.587809,85.9780432 115.939059,86.4897114 C115.426888,86.8649347 114.983006,87.376603 114.43669,87.7859375 C113.71965,88.331717 113.0709,88.8774964 112.524584,89.5597207 C111.944124,90.3101674 111.192939,90.9923917 110.475899,91.6405048 C110.271031,91.8451721 110.032018,92.0157282 109.827149,92.2545067 C109.724715,92.3568403 109.622281,92.5273964 109.485702,92.4932852 C109.417412,92.2545067 109.451557,92.0498394 109.383267,91.8110609 C109.314978,91.6405048 109.246688,91.4358375 109.178399,91.2652815 C108.939386,90.8218357 108.597938,90.3783899 108.427214,89.9008329 C108.358925,89.6961656 108.222346,89.5256095 108.119912,89.3209422 C107.983333,89.0821637 107.915043,88.809274 107.778464,88.5704955 C107.710175,88.4340506 107.641885,88.3658282 107.573596,88.2293833 C107.471161,88.0247161 107.471161,87.7859375 107.368727,87.5812703 C107.300438,87.4448254 107.266293,87.3083805 107.163859,87.1719357 C107.095569,87.069602 106.890701,86.7284899 106.95899,86.592045 C107.095569,86.2850441 107.163859,86.2850441 107.437017,86.114488 C107.778464,85.8757095 108.085767,85.5004861 108.358925,85.1934852 C109.110109,84.3748161 109.997873,83.6243693 110.544189,82.6351441 C110.749057,82.2599207 110.919781,81.8846974 111.295373,81.6459189 C111.568531,81.4753628 112.080703,81.4753628 112.42215,81.4753628 C113.002611,81.4753628 113.583071,81.4753628 114.163532,81.4753628 C114.743993,81.4753628 115.358598,81.5435852 115.939059,81.4071404 C116.246362,81.3389179 116.553665,81.2024731 116.895112,81.1683619 C117.202415,81.1683619 117.509718,81.1683619 117.81702,81.1683619 C118.226757,81.1683619 118.568205,81.2024731 118.943797,81.3048067 C119.148666,81.3730291 119.421824,81.4753628 119.660837,81.4412516 C119.831561,81.4071404 119.96814,81.3048067 120.138863,81.2365843 C120.377877,81.1342506 120.61689,81.1342506 120.890048,81.1342506 C121.402219,81.1342506 121.91439,80.9978058 122.426562,80.9295834 C122.802154,80.8613609 123.143601,80.7931385 123.519194,80.6566936 C123.826496,80.55436 124.099654,80.4861376 124.406957,80.4520263 C124.884984,80.4179151 125.36301,80.2473591 125.806892,80.1450254 C126.148339,80.076803 126.455642,79.8721357 126.831234,79.7698021 C127.001958,79.7356908 127.206827,79.6674684 127.37755,79.6333572 C127.616564,79.5651348 127.923866,79.4286899 128.197024,79.3945787 C128.538472,79.3604675 128.845775,79.2581338 129.153077,79.1558002 C129.426235,79.0534665 129.733538,78.9170217 130.006696,78.814688 C130.245709,78.7464656 130.518867,78.7123544 130.757881,78.644132 C131.065183,78.5417983 131.372486,78.4053535 131.679789,78.3712422 C131.918802,78.337131 132.12367,78.337131 132.328539,78.2689086 C132.909,78.0642413 133.523605,77.859574 134.104066,77.6207955 C134.582092,77.4502394 135.094264,77.3479058 135.57229,77.1773497 C135.879593,77.0750161 136.118606,76.8703488 136.460054,76.7680151 C136.733212,76.6656815 137.040514,76.5974591 137.313672,76.4951254 C137.859988,76.2563469 138.37216,75.949346 138.918476,75.6764563 C139.225778,75.5059002 139.567226,75.4376778 139.874529,75.3012329 C140.079397,75.1988993 140.250121,75.0624544 140.454989,74.9260095 C140.796437,74.687231 141.206174,74.5848974 141.581766,74.4143413 C141.854924,74.3120077 142.093937,74.1414516 142.367095,74.0050067 C142.537819,73.9367843 142.742688,73.9026731 142.913411,73.8344507 C143.289004,73.6980058 143.630451,73.4933385 144.006043,73.2886712 C144.245057,73.1863376 144.41578,73.0157815 144.654794,72.8793366 C144.791373,72.8111142 144.927952,72.777003 145.030386,72.6746694 C145.13282,72.6064469 145.235254,72.5041133 145.337689,72.4017796 C145.440123,72.299446 145.440123,72.299446 145.474268,72.1971123 C145.644991,71.8560002 145.576702,71.4125544 145.576702,71.037331 C145.576702,70.8326638 145.576702,70.6279965 145.576702,70.4233292 C145.576702,70.1845507 145.644991,70.0481058 145.679136,69.8434385 C145.713281,69.7069937 145.644991,69.5364376 145.679136,69.3999927 C145.679136,69.2976591 145.747426,69.2294367 145.78157,69.127103 C145.84986,68.8542133 145.815715,68.5472124 145.884005,68.3084339 C145.952294,68.0355441 145.986439,67.8649881 145.986439,67.5920983 C145.986439,67.3533198 145.986439,67.1145413 145.986439,66.8757628 C145.986439,66.5687619 146.054728,66.2958722 146.088873,65.9888712 C146.088873,65.7159815 146.088873,65.4430918 146.088873,65.1702021 C146.088873,64.8632011 145.78157,64.0104208 146.088873,63.9421983 C146.771768,63.7716423 147.352229,63.3623077 147.966834,63.0553068 C148.308282,62.8847507 148.649729,62.782417 148.991177,62.5777498 C149.161901,62.4754161 149.332624,62.4413049 149.503348,62.3730825 C149.742361,62.2707488 149.913085,62.1001927 150.152098,61.9637479 C150.356967,61.827303 150.630125,61.7590806 150.834993,61.6226357 C151.108151,61.4520797 151.31302,61.2474124 151.552033,61.0768563 C152.030059,60.7698554 152.473941,60.4628544 152.951968,60.1558535 C153.498284,59.7806301 153.97631,59.439518 154.556771,59.2007395 C155.137232,58.961961 155.683548,58.5867376 156.229864,58.2797367 C156.639601,58.0409582 157.117627,57.9727357 157.561509,57.7339572 C157.902956,57.5634012 158.278549,57.4951787 158.654141,57.3587339 C159.234602,57.1540666 159.849207,56.9152881 160.429668,56.7106208 C161.317431,56.3695086 162.23934,56.1989526 163.195393,56.0966189 C164.083156,55.9942853 164.97092,56.0283965 165.892828,55.9942853 C166.507433,55.9942853 167.053749,56.1989526 167.668355,56.1989526 C167.907368,56.1989526 168.146381,56.1989526 168.385395,56.1989526 C168.624408,56.1989526 168.795132,56.1307301 169,56.0966189 C168.624408,56.1648414 168.795132,56.1648414 168.760987,55.9260628 Z"/>
  </g>
</svg>
