<svg xmlns="http://www.w3.org/2000/svg" width="200" height="200" viewBox="0 0 200 200">
  <g fill="none" fill-rule="evenodd">
    <path fill="#fff" fill-rule="nonzero" d="M411.481898-143.199902C411.781898-143.599902 411.981898-143.999902 412.281898-144.399902 412.881898-145.199902 412.581898-146.599902 411.581898-146.899902 407.381898-148.099902 403.081898-149.099902 398.781898-149.699902 402.481898-150.199902 406.181898-150.699902 409.881898-151.399902 411.481898-151.699902 411.681898-153.899902 410.181898-154.599902 408.181898-155.499902 406.081898-155.599902 403.981898-155.199902 402.281898-155.099902 400.481898-154.999902 398.781898-154.799902 398.981898-155.599902 399.281898-156.399902 399.681898-157.099902 402.281898-157.599902 404.781898-158.199902 407.381898-158.699902 409.481898-159.099902 410.581898-160.899902 409.281898-162.699902 408.981898-163.199902 408.381898-163.299902 407.781898-163.199902 402.481898-162.599902 396.981898-162.399902 391.681898-162.499902 387.281898-165.399902 381.681898-166.999902 376.181898-167.599902 375.781898-167.899902 375.281898-168.099902 374.881898-168.399902 369.881898-171.599902 364.781898-174.699902 360.181898-178.499902 353.781898-183.799902 349.881898-191.399902 343.481898-196.299902 343.181898-196.799902 342.881898-197.299902 342.581898-197.799902 342.181898-198.399902 341.781898-198.999902 341.281898-199.599902 340.881898-208.099902 335.381898-215.999902 328.381898-220.399902 321.581898-224.699902 313.381898-224.999902 306.081898-222.399902 304.581898-223.899902 302.981898-225.099902 301.181898-225.999902 301.081898-226.299902 300.881898-226.499902 300.581898-226.699902 298.481898-227.899902 296.081898-228.699902 293.981898-229.899902 291.781898-231.099902 289.781898-232.599902 287.781898-234.099902 283.681898-237.099902 279.781898-240.199902 275.381898-242.699902 268.281898-246.699902 258.081898-249.099902 250.081898-245.999902 249.781898-246.299902 249.481898-246.599902 249.181898-246.899902 250.181898-247.099902 251.181898-247.299902 252.281898-247.599902 253.181898-247.799902 253.581898-248.699902 253.381898-249.599902 253.281898-250.299902 253.181898-250.899902 253.081898-251.499902 256.181898-261.499902 256.681898-272.999902 254.081898-283.199902 251.281898-293.899902 241.381898-297.299902 231.581898-299.399902 222.081898-301.499902 210.481898-301.999902 201.381898-297.999902 192.681898-294.199902 187.681898-285.599902 185.181898-276.799902 185.081898-276.699902 184.981898-276.599902 184.881898-276.499902 184.381898-275.999902 184.481898-274.999902 185.081898-274.699902 187.181898-273.399902 189.381898-272.199902 191.681898-270.999902 191.581898-270.199902 191.481898-269.499902 191.281898-268.699902 190.781898-266.299902 189.281898-263.999902 189.281898-261.599902 189.281898-260.299902 190.581898-259.099902 191.381898-258.199902 191.881898-257.699902 192.281898-257.199902 192.781898-256.599902 191.781898-254.399902 190.481898-252.399902 189.181898-250.399902 187.981898-248.599902 187.381898-246.499902 188.681898-244.599902 188.881898-244.299902 189.281898-243.999902 189.681898-244.199902 190.781898-244.599902 191.781898-244.899902 192.881898-245.099902 192.981898-244.099902 192.981898-243.099902 192.881898-241.999902 192.781898-241.199902 192.681898-239.899902 193.381898-239.299902 194.281898-238.499902 195.081898-238.499902 196.181898-238.599902 197.381898-238.799902 198.281898-238.899902 199.281898-238.799902 199.181898-238.599902 198.981898-238.399902 198.881898-238.199902 198.081898-237.099902 197.181898-236.399902 196.681898-235.199902 195.781898-233.199902 197.981898-231.599902 199.281898-230.299902 198.881898-228.799902 198.481898-227.299902 199.081898-225.699902 199.781898-223.799902 201.981898-223.299902 203.781898-223.099902 206.781898-222.799902 210.281898-223.599902 213.181898-224.299902 213.481898-224.399902 213.681898-224.399902 213.981898-224.499902 215.581898-223.099902 217.381898-221.799902 218.781898-220.499902 220.281898-219.199902 221.681898-217.899902 223.081898-216.599902 221.281898-213.199902 219.781898-209.699902 218.381898-206.099902 217.181898-202.799902 216.081898-199.499902 215.281898-196.099902 214.581898-193.399902 213.681898-190.299902 213.581898-187.399902 212.381898-186.499902 211.281898-185.699902 210.081898-184.899902 208.481898-183.799902 208.481898-183.299902 208.181898-181.299902 207.281898-175.599902 205.781898-170.099902 203.881898-164.799902 200.681898-163.299902 197.581898-161.499902 194.781898-159.299902 190.281898-155.799902 185.981898-151.799902 185.081898-146.099902 184.681898-143.499902 181.981898-142.699902 180.681898-140.699902 180.181898-139.899902 179.881898-139.099902 179.881898-138.299902 177.581898-136.499902 175.381898-134.599902 173.181898-132.699902 170.681898-130.499902 168.081898-128.299902 165.581898-126.199902 163.281898-124.199902 160.581898-122.399902 158.381898-120.299902 156.381898-119.399902 154.481898-118.299902 152.681898-117.099902 147.481898-113.499902 142.281898-110.099902 136.581898-107.299902 133.681898-105.899902 130.681898-104.799902 127.781898-103.599902 126.481898-103.099902 124.581898-101.799902 125.081898-100.099902 126.081898-96.4999017 131.581898-97.5999017 134.481898-99.2999017 137.881898-98.5999017 141.681898-99.1999017 145.281898-100.299902 144.981898-99.8999017 144.781898-99.4999017 144.581898-99.0999017 143.681898-96.8999017 144.581898-94.8999017 146.781898-93.9999017 147.381898-93.7999017 148.081898-93.9999017 148.481898-94.4999017 149.781898-95.8999017 151.281898-97.0999017 152.681898-98.3999017 155.981898-99.6999017 159.181898-101.399902 162.381898-102.999902 165.681898-104.699902 168.781898-107.199902 170.281898-110.499902 175.081898-112.699902 179.681898-115.399902 184.181898-118.099902 187.081898-119.799902 189.981898-121.499902 192.881898-123.199902 192.981898-123.099902 192.981898-123.099902 193.081898-122.999902 193.481898-122.699902 194.081898-122.799902 194.481898-122.999902 200.081898-126.099902 205.581898-129.399902 211.081898-132.699902 216.881898-132.899902 222.781898-133.099902 228.481898-133.899902 231.981898-134.399902 233.181898-138.199902 234.381898-140.999902 236.281898-145.099902 238.381898-149.099902 240.581898-153.099902 242.781898-157.199902 245.181898-161.199902 247.681898-164.999902 249.281898-164.299902 250.881898-163.499902 252.481898-162.599902 257.781898-159.699902 261.781898-155.399902 266.081898-151.199902 269.981898-147.299902 273.981898-144.399902 278.881898-141.799902 282.581898-139.799902 284.481898-135.899902 286.281898-131.999902 285.781898-130.599902 284.881898-129.299902 283.481898-129.199902 282.481898-129.099902 281.481898-128.199902 281.881898-127.099902 282.381898-125.599902 282.781898-123.899902 283.381898-122.299902 276.481898-117.699902 270.281898-111.899902 265.181898-105.399902 263.681898-105.199902 262.181898-104.899902 260.681898-104.499902 259.181898-104.099902 257.781898-103.599902 257.281898-101.899902 256.781898-99.8999017 256.781898-97.3999017 256.881898-95.0999017 255.081898-94.4999017 253.381898-93.7999017 251.581898-93.1999017 247.481898-91.6999017 244.381898-90.2999017 241.581898-86.8999017 236.081898-80.2999017 229.481898-74.5999017 224.181898-67.7999017 221.981898-64.9999017 221.181898-62.3999017 222.181898-58.8999017 223.281898-54.9999017 225.281898-51.1999017 227.281898-47.7999017 228.981898-44.7999017 230.981898-41.6999017 233.281898-38.8999017 237.381898-27.3999017 242.181898-16.0999017 247.481898-5.09990173 246.481898-3.99990173 245.481898-3.09990173 244.281898-2.29990173 243.181898-1.59990173 242.881898-.0999017304 243.881898.90009827 247.281898 4.30009827 251.581898 7.50009827 256.281898 9.70009827 257.381898 13.6000983 258.781898 17.5000983 259.781898 21.4000983 260.681898 24.7000983 261.381898 28.0000983 261.981898 31.3000983 259.481898 37.6000983 253.481898 42.6000983 247.381898 45.9000983 242.581898 48.5000983 237.481898 50.2000983 232.481898 52.4000983 230.981898 53.1000983 227.781898 53.7000983 227.581898 55.7000983 227.381898 58.3000983 227.681898 60.6000983 228.681898 63.0000983 228.881898 63.5000983 229.281898 63.8000983 229.781898 64.0000983 229.781898 64.1000983 229.781898 64.2000983 229.781898 64.3000983 229.681898 65.1000983 229.981898 65.8000983 230.781898 66.0000983 232.281898 66.5000983 233.681898 66.8000983 235.181898 67.1000983 234.681898 68.5000983 233.881898 69.8000983 232.981898 71.0000983 229.481898 70.2000983 225.781898 70.9000983 223.281898 74.2000983 219.181898 79.4000983 221.581898 86.3000983 226.481898 89.9000983 231.781898 93.8000983 240.481898 92.9000983 244.581898 87.7000983 245.281898 86.8000983 245.781898 85.9000983 246.181898 84.8000983 248.081898 87.7000983 251.181898 89.7000983 254.881898 90.0000983 260.181898 90.4000983 265.581898 85.7000983 266.181898 80.6000983 266.281898 79.8000983 266.281898 79.0000983 266.181898 78.2000983 266.981898 77.8000983 267.881898 77.3000983 268.581898 76.8000983 268.781898 79.1000983 269.681898 81.5000983 271.281898 83.5000983 273.181898 85.8000983 275.781898 87.1000983 278.381898 87.4000983 279.181898 90.9000983 281.581898 94.1000983 284.381898 95.9000983 290.181898 99.6000983 297.381898 96.6000983 299.581898 90.6000983 300.681898 90.5000983 301.781898 90.3000983 302.881898 90.2000983 304.581898 94.3000983 308.781898 97.2000983 313.181898 97.4000983 318.681898 97.7000983 322.681898 93.4000983 323.481898 88.4000983 323.481898 88.4000983 323.581898 88.4000983 323.581898 88.4000983 324.981898 92.7000983 328.781898 95.9000983 333.281898 97.0000983 338.481898 98.3000983 344.281898 95.8000983 345.581898 90.7000983 347.481898 94.2000983 351.281898 96.6000983 355.381898 97.1000983 361.581898 97.9000983 366.781898 92.9000983 366.881898 86.9000983 366.981898 81.7000983 362.381898 76.4000983 357.381898 74.9000983 356.581898 73.1000983 355.881898 71.3000983 355.281898 69.5000983 355.381898 69.5000983 355.481898 69.5000983 355.581898 69.5000983 356.281898 69.5000983 356.781898 69.2000983 357.081898 68.8000983 357.681898 68.7000983 358.081898 68.2000983 358.081898 67.5000983 357.381898 59.5000983 354.281898 51.6000983 349.281898 45.2000983 347.781898 39.9000983 345.581898 34.7000983 343.481898 29.8000983 341.781898 25.8000983 339.881898 21.8000983 337.881898 17.8000983 339.881898 17.5000983 341.881898 17.2000983 343.981898 17.0000983 345.581898 16.9000983 346.381898 15.2000983 345.281898 13.9000983 335.381898 2.50009827 330.881898-12.1999017 323.181898-24.9999017 324.181898-25.0999017 325.181898-25.0999017 326.181898-24.9999017 327.181898-24.8999017 327.981898-26.0999017 327.681898-26.9999017 326.681898-30.0999017 325.481898-33.0999017 324.081898-35.8999017 325.081898-36.7999017 325.981898-37.7999017 326.781898-38.7999017 327.181898-39.2999017 327.381898-39.9999017 326.981898-40.5999017 326.081898-41.8999017 325.381898-43.1999017 324.681898-44.5999017 328.081898-58.7999017 339.181898-69.9999017 343.881898-83.5999017 349.381898-90.2999017 354.881898-97.0999017 359.181898-104.699902 364.181898-113.799902 367.281898-125.399902 363.181898-135.399902 363.081898-135.499902 363.081898-135.599902 362.981898-135.699902 362.981898-135.999902 362.881898-136.299902 362.681898-136.699902 359.681898-141.599902 356.881898-147.099902 353.281898-151.599902 351.581898-153.699902 349.581898-155.499902 347.181898-156.799902 345.081898-157.899902 342.881898-158.499902 340.781898-159.599902 338.981898-163.699902 336.481898-167.699902 333.981898-171.499902 333.981898-171.499902 333.981898-171.599902 333.981898-171.599902 334.181898-171.499902 334.381898-171.399902 334.581898-171.299902 339.181898-169.299902 343.781898-167.299902 348.081898-164.599902 350.081898-163.299902 351.881898-161.899902 353.581898-160.299902 353.581898-158.099902 354.181898-156.099902 355.681898-154.799902 357.281898-153.499902 359.081898-153.099902 360.781898-153.399902 362.881898-152.299902 364.781898-151.199902 366.281898-149.599902 368.681898-146.999902 369.481898-143.099902 371.481898-140.199902 375.681898-133.899902 385.081898-134.999902 390.481898-130.499902 390.981898-130.099902 391.681898-130.199902 392.081898-130.499902 395.381898-133.199902 394.681898-136.399902 392.281898-139.099902 394.281898-138.399902 396.381898-137.599902 398.381898-136.899902 401.181898-135.999902 403.981898-134.999902 406.781898-134.099902 408.381898-133.599902 409.381898-133.199902 410.781898-134.099902 411.181898-134.399902 411.381898-134.999902 411.281898-135.499902 410.681898-138.799902 404.281898-141.399902 401.681898-142.799902 401.281898-142.999902 400.881898-143.199902 400.481898-143.399902 403.581898-142.999902 406.581898-142.699902 409.681898-142.299902 410.581898-142.499902 411.181898-142.799902 411.481898-143.199902zM268.381898 65.2000983C264.681898 64.9000983 253.981898 68.2000983 253.981898 68.2000983L255.481898 63.7000983 275.581898 59.5000983C275.581898 59.5000983 274.381898 62.2000983 275.981898 62.5000983 277.581898 62.8000983 280.281898 63.8000983 280.281898 63.8000983 280.281898 63.8000983 272.081898 65.5000983 268.381898 65.2000983zM314.581898 47.9000983L304.581898 50.6000983C304.581898 50.6000983 304.881898 43.0000983 298.781898 35.9000983 292.681898 28.8000983 294.881898 21.8000983 293.581898 19.6000983 292.281898 17.4000983 288.981898 15.7000983 288.481898 12.5000983 288.081898 9.20009827 287.781898 2.50009827 291.181898 2.70009827 291.181898 2.70009827 297.881898 9.40009827 299.681898 13.1000983 301.481898 16.8000983 302.981898 32.0000983 302.981898 32.0000983 302.981898 32.0000983 308.481898 30.5000983 309.981898 31.4000983 311.481898 32.3000983 313.681898 38.7000983 314.581898 41.2000983 315.481898 43.7000983 314.581898 47.9000983 314.581898 47.9000983zM331.981898 71.9000983L329.581898 75.9000983 323.181898 76.3000983 320.081898 75.1000983C319.981898 74.4000983 318.581898 72.4000983 318.581898 72.4000983L331.981898 71.9000983zM194.633217 53.7780419C194.202665 53.5013733 193.433822 53.4706323 192.941763 53.3784094 192.541965 53.3169275 192.111414 53.4091504 191.711615 53.3169275 191.311817 53.2247047 191.127295 53.1324818 190.696744 53.1017408 190.296945 53.0709999 190.050916 52.948036 189.681872 52.8558132 189.343581 52.7943313 188.974537 52.9172951 188.667 52.8558132 188.359463 52.8250722 188.267202 52.6713674 187.990418 52.6098855 187.652128 52.5176626 187.313837 52.5791446 186.975546 52.5176626 186.360472 52.3639579 185.714645 52.3946988 185.068817 52.3946988 184.484497 52.3946988 184.17696 52.1487712 183.59264 52.1795121 182.17797 52.1795121 180.701792 52.240994 179.287122 52.1795121 178.887324 52.1487712 178.641295 52.0258073 178.241497 51.9335845 177.780191 51.8413616 177.134364 51.9335845 176.673058 51.9643254 175.350649 51.9643254 174.058994 51.6569158 172.767339 51.533952 171.598698 51.4109882 170.430058 51.1035786 169.261418 51.0420967 167.78524 50.9806148 166.339816 50.82691 164.832885 50.82691 162.188067 50.82691 159.512496 50.82691 156.867678 50.82691 155.852806 50.82691 154.745673 50.7039462 153.761555 50.857651 152.746683 51.0113557 151.731811 51.2265424 150.716939 51.2880244 149.825082 51.3495063 148.902471 51.2880244 148.010614 51.2880244 147.211018 51.2880244 146.349914 51.3802472 145.581072 51.2880244 144.719968 51.1958015 143.889618 50.857651 143.028515 50.82691 142.351934 50.7961691 141.859875 50.5195004 141.214047 50.3657957 140.845003 50.2735728 140.475958 50.3350547 140.07616 50.2120909 139.584101 50.089127 139.122796 49.9969042 138.66149 49.8739403 137.892648 49.6894946 137.154559 49.412826 136.354963 49.2591212 135.678382 49.1361574 132.879795 49.1668983 132.264721 49.2283802 131.83417 49.2591212 131.434372 49.4435669 131.00382 49.4743079 130.696283 49.5050489 130.388746 49.4743079 130.111963 49.4743079 129.558396 49.4743079 128.974076 49.4743079 128.420509 49.4743079 127.774682 49.4743079 127.128854 49.4743079 126.51378 49.4743079 126.236997 49.4743079 122.146756 49.0131935 121.531682 49.0131935 120.885854 49.0131935 120.240026 49.0131935 119.624952 49.0131935 119.040632 49.0131935 115.534711 49.382085 114.304563 49.0746755 113.966272 48.9824526 112.797632 48.9209707 112.490095 48.8594888 112.182558 48.7672659 108.861159 49.1361574 108.338346 49.1361574 108.338346 48.7980068 108.276839 48.5213382 108.492115 48.2446696 108.70739 47.9372601 108.861159 47.6298505 109.137942 47.3224409 109.814524 46.6461399 110.675627 46.2157665 111.567484 46.0005798 112.61311 45.7239112 113.720243 45.7853931 114.796622 45.6009473 115.073406 45.5702064 115.288681 45.5087245 115.565465 45.5087245 115.780741 45.5087245 115.965263 45.5394654 116.180539 45.4472425 116.518829 45.2935378 116.826366 45.109092 117.041642 44.8016824 117.533701 44.1561223 117.502947 43.4490803 117.502947 42.6805564 117.502947 42.4038878 117.502947 42.1579601 117.564455 41.8812915 117.595209 41.6046229 117.564455 41.3279543 117.656716 41.0820267 117.718223 40.836099 117.841238 40.5901713 118.087268 40.4364666 118.302544 40.3135027 118.517819 40.1905389 118.640834 39.9446112 118.702342 39.7909065 118.702342 39.422015 118.610081 39.2990511 118.487066 39.0838644 118.210282 39.0838644 118.333297 38.7764549 118.425558 38.5612682 118.702342 38.3153405 118.85611 38.1616357 118.763849 38.0386719 118.763849 37.946449 118.763849 37.7927443 118.733095 37.6082985 118.671588 37.4238528 118.640834 37.239407 118.610081 37.0242203 118.579327 36.532365 118.733095 36.3479193 118.886864 36.1634735 119.225154 36.1327326 119.44043 36.0712507 119.747967 35.9790278 120.055504 35.8868049 120.332287 35.6716182 120.793593 35.3027267 120.609071 34.5956847 120.240026 34.2267932 120.024751 34.0116066 119.870982 33.8271608 119.655706 33.6119741 119.471184 33.3967874 119.348169 33.1508598 119.163647 32.9049321 118.794603 32.4438177 118.333297 32.0749263 117.964253 31.6138119 117.841238 31.4293662 117.595209 31.1834385 117.533701 30.9989928 117.44144 30.7530651 117.564455 30.5378784 117.625962 30.3226917 117.68747 30.1689869 117.68747 30.0152821 117.748977 29.8615774 117.779731 29.7693545 117.841238 29.6771316 117.871992 29.5849087 117.933499 29.3389811 117.871992 29.0315715 117.871992 28.7856439 117.871992 28.4782343 117.871992 28.2630476 117.748977 27.986379 117.625962 27.7404513 117.595209 27.4637827 117.502947 27.2178551 117.410686 27.0026684 117.287672 26.8182226 117.195411 26.572295 117.103149 26.3263673 117.041642 26.1111806 116.980135 25.8959939 116.85712 25.6193253 116.887874 25.3426567 116.764859 25.0659881 116.703351 24.9430242 116.672598 24.8815423 116.61109 24.7893195 116.549583 24.6970966 116.488076 24.5433918 116.488076 24.389687 116.549583 23.8978317 116.918627 23.5596812 116.949381 23.0370849 116.980135 22.6681934 117.010888 22.1148562 116.949381 21.7767057 116.85712 21.3463323 116.549583 21.2541094 116.303553 20.9466998 116.02677 20.6085493 115.903755 20.1781759 115.626972 19.8092844 115.042652 19.0715015 114.304563 18.9177967 113.474213 18.5796462 112.582356 18.2107547 111.690499 17.7803813 110.829395 17.3500079 110.306583 17.0733393 109.753016 16.9503754 109.230203 16.6737068 108.768898 16.4277792 108.338346 16.1203696 107.877041 15.8744419 107.415735 15.6592552 106.95443 15.3825866 106.462371 15.1981409 105.939558 14.9829542 105.385991 14.9522132 104.832425 14.8292494 104.12509 14.6448037 103.633031 14.4910989 102.894942 14.4910989 102.433637 14.4910989 102.003085 14.4910989 101.541779 14.4910989 101.080474 14.4910989 100.619168 14.4603579 100.157863 14.5218398 99.5427891 14.6140627 98.9584689 14.8599904 98.3741487 15.0136951 97.4515378 15.2288818 96.7749565 15.5362914 95.9446067 15.9666648 95.514055 16.2125925 95.0527495 16.3355563 94.6221978 16.6429659 94.1608923 16.9503754 93.5458184 17.2270441 93.2075278 17.6574174 93.0537593 17.8418632 93.0230056 18.0570499 92.8077297 18.2107547 92.5309465 18.4566823 92.2541632 18.5489052 92.0081336 18.8255738 91.5775819 19.2866882 91.2392912 19.8400254 90.8702469 20.3626217 90.7164784 20.3318807 90.5934636 20.3626217 90.4089415 20.3626217 89.8861286 20.3626217 89.4863306 20.4241036 89.0557788 20.5778084 88.7482419 20.7007722 88.4407049 20.8852179 88.1639217 21.0389227 87.8563847 21.2233685 87.6718625 21.5000371 87.3643256 21.7152238 86.6877443 22.23782 85.5806112 21.7767057 84.7502614 22.1148562 84.3812171 22.268561 83.9506653 22.3300429 83.6123747 22.5144886 83.3663451 22.6681934 83.0280545 23.0678259 82.874286 23.3137535 82.6282564 23.682645 82.4437342 24.0822775 82.1977047 24.4511689 81.7671529 25.12747 81.7979066 25.803771 81.7979066 26.6030359 81.7979066 27.0948912 81.859414 27.6174875 81.7979066 28.0786019 81.7363992 28.5397162 81.5518771 28.8163848 81.5518771 29.3082401 81.5826308 31.3371433 81.8286603 33.3045645 81.7979066 35.3334677 81.7671529 36.6245879 80.8752958 37.946449 80.2294681 39.0531235 79.337611 38.8379368 78.3842464 38.684232 77.4923892 38.684232 76.908069 38.684232 76.3545025 38.684232 75.7701823 38.684232 75.1551083 38.684232 74.5092807 38.6227501 73.8942068 38.684232 73.3406403 38.7457139 72.7870738 38.8994187 72.2335072 38.8994187 71.9259703 38.8994187 71.6184333 38.8686778 71.3108964 38.8994187 71.0341131 38.8994187 70.8188372 39.0223825 70.542054 39.0223825 70.542054 39.0531235 70.0807485 38.9301597 70.0499948 38.9609006 69.6194431 39.0838644 69.0043692 38.9916416 68.5738174 38.9916416 68.0817583 38.9916416 67.4359307 39.0838644 66.9438716 38.9609006 66.697842 38.8994187 66.6055809 38.8379368 66.2980439 38.8379368 65.990507 38.8379368 65.68297 38.8686778 65.3754331 38.8071958 64.8218665 38.6534911 64.2683 38.6534911 63.7147335 38.4997863 62.6383541 38.2231177 61.5004674 37.9157081 60.4855954 37.5468166 59.9627826 37.3623709 59.4399698 37.1164432 58.9171569 36.9319975 58.6711274 36.8397746 58.3943441 36.6553288 58.1483145 36.5938469 57.8100239 36.5016241 57.5639943 36.4401422 57.2564574 36.2864374 55.9032948 35.6408773 54.5193784 34.9645762 53.1662158 34.2575342 52.335866 33.8271608 51.4440089 33.5812332 50.5829054 33.2123417 49.6602945 32.8127092 48.7069299 32.5667816 47.7535654 32.1978901 46.9232156 31.8597396 46.0621121 31.8289986 45.1702549 31.7675167 44.8012106 31.7367757 44.4936736 31.6138119 44.1246293 31.6138119 43.5710627 31.6138119 43.0482499 31.4601071 42.4639297 31.4601071 41.9411169 31.4601071 41.3567966 31.3678843 40.8339838 31.2756614 40.311171 31.1834385 39.8498655 31.1834385 39.3270527 31.1526976 38.8657473 31.1526976 38.4967029 30.9682518 38.0661512 30.8760289 37.7586142 30.814547 37.4203236 30.8760289 37.1127866 30.814547 36.774496 30.7530651 36.4362053 30.6608422 36.0979146 30.5686194 35.3290723 30.4149146 34.6217373 30.107505 33.8528949 29.9538002 33.2993283 29.8308364 32.7457618 29.7386135 32.1921953 29.5849087 31.4233529 29.400463 30.7467716 29.0008306 29.9779292 28.7856439 29.2705942 28.6011981 28.5632592 28.5397162 27.8866779 28.2323066 27.271604 27.986379 26.65653 27.8634152 26.0414561 27.6174875 25.7646729 27.5252646 25.4878896 27.4637827 25.2111063 27.3715598 24.842062 27.2178551 24.4730176 27.0026684 24.1039733 26.8489636 23.9194511 26.7567407 23.6734215 26.6337769 23.4581457 26.572295 23.0891013 26.4800721 22.720057 26.572295 22.3202589 26.4493311 21.7359387 26.2648854 21.2131259 26.1111806 20.598052 25.9574758 20.598052 25.4963615 20.5365446 24.5741328 20.7210667 24.1437594 20.9670963 23.5904221 21.3361407 23.006344 21.7359387 22.5759706 22.1049831 22.1455972 22.6277959 21.9611514 22.9968402 21.561519 23.1813624 21.3463323 23.3351309 21.2541094 23.5504068 21.0696637 23.7964363 20.8852179 23.9809585 20.7007722 24.2577418 20.5470674 25.1803526 19.9937302 25.8876876 19.1637243 26.2874857 18.1800137 26.5950226 17.4114898 26.65653 16.2740744 26.1337172 15.5977733 25.7954266 15.136659 25.6109044 14.5833218 25.1188452 14.2759122 24.6575398 13.9685026 24.0117122 13.9377617 23.5196531 13.6303521 23.2736235 13.4766473 23.0583476 13.2922016 22.7815644 13.1692377 22.5047811 13.0462739 22.2279978 12.9233101 22.012722 12.7081234 21.5514165 12.27775 21.0901111 12.0318223 20.7825741 11.4477441 20.3827761 10.7099612 19.982978 9.91069629 19.7369485 9.08069046 19.4601652 8.21994366 19.3679041 7.29771495 19.0911209 6.43696816 18.9681061 6.03733572 18.8450913 5.69918519 18.6605691 5.33029371 18.5068006 5.02288414 18.4452933 4.6232517 18.2915248 4.34658308 18.1377563 4.06991447 17.860973 3.73176395 17.6456972 3.45509533 17.3996676 3.14768576 17.1228843 2.74805332 16.8153474 2.50212567 16.4155493 2.1947161 15.9542439 2.16397514 15.5236921 1.91804748 14.9701256 1.64137887 14.5703276 1.18026452 14.2627906.657668249 14.1705295.473222508 14.1397758.288776766 13.9245.196553895 13.7707315.135071981 13.4016871.0735900672 13.2479187.0428491102 12.7558595-.0186328037 12.1100319-.0186328037 11.6179728.0735900672 11.09516.196553895 10.6646082.319517723 10.1417954.503963465 9.92651951.565445379 9.74199734.719150163 9.52672147.780632077 9.2806919.842113991 9.03466233.780632077 8.78863277.842113991 8.38883472.934336862 7.8045145 1.3339693 7.71225341 1.73360174 7.58923863 2.22545705 7.65074602 3.02472194 8.17355885 3.17842672 8.66561798 3.30139055 9.18843081 3.14768576 9.68048994 3.20916768 10.0495343 3.27064959 10.4185786 3.48583629 10.6646082 3.73176395 11.0336526 4.10065543 11.2489284 4.53102883 11.4334506 5.02288414 11.5872191 5.42251658 11.7717413 5.79140806 11.7717413 6.22178146 11.7717413 6.77511868 11.7717413 7.32845591 11.7717413 7.88179313 11.7717413 9.14217237 11.6179728 10.3718106 11.6179728 11.6321899 11.6179728 12.8925691 11.4334506 14.0914664 11.4642043 15.3518457 11.4642043 15.9666648 11.6794802 16.4892611 11.7717413 17.1040802 11.802495 17.288526 11.8640023 17.4114898 11.894756 17.5651946 11.9255097 17.8111222 11.894756 18.0570499 11.9255097 18.3029775 12.0485245 19.0100196 12.2330467 19.6555797 12.2330467 20.3626217 12.2330467 20.9466998 12.2638004 22.1148562 11.7102339 22.4222658 11.3411895 22.6374525 10.8183767 22.6067115 10.5108397 22.944862 10.3570713 23.1293078 10.2340565 23.4059764 10.1417954 23.6211631 9.80350473 24.3589461 10.1417954 25.1889519 9.86501212 25.9574758 9.74199734 26.3263673 9.55747516 26.4800721 9.37295299 26.8182226 9.18843081 27.1563731 9.2499382 27.5252646 9.21918451 27.8941561 9.21918451 28.1093428 9.18843081 28.3860114 9.2499382 28.6011981 9.34219929 28.9700896 9.52672147 29.1852763 9.52672147 29.5849087 9.55747516 30.138246 9.43446038 30.6301013 9.37295299 31.1834385 9.2806919 31.8597396 8.94240125 32.8127092 9.49596777 33.3660465 9.71124364 33.5812332 9.92651951 33.673456 10.2033028 33.7964199 10.3263176 33.8579018 10.4185786 33.8886427 10.5415934 33.9501246 10.9721452 34.1345704 10.9106378 34.2267932 10.7568693 34.7186486 10.6953619 34.8723533 10.480086 35.149022 10.4493323 35.3334677 10.4185786 35.4871725 10.480086 35.6408773 10.480086 35.7945821 10.4493323 35.9175459 10.3878249 35.9790278 10.3570713 36.1019916 10.2955639 36.3171783 10.3570713 36.532365 10.3263176 36.7475517 10.2033028 37.7312623 9.92651951 38.684232 9.74199734 39.6679426 9.55747516 40.5286894 9.43446038 41.3894362 9.2806919 42.250183 9.21918451 42.6498155 9.12692342 42.987966 9.12692342 43.4183394 9.12692342 43.9409356 9.00390864 44.40205 8.97315494 44.8939053 8.94240125 45.3857606 8.81938646 45.8776159 8.81938646 46.3694712 8.81938646 46.8305856 8.72712537 47.3531819 8.66561798 47.8142962 8.5118495 48.8287478 8.32732733 49.8739403 8.01979037 50.82691 7.95828298 51.0113557 7.8352682 51.1958015 7.7737608 51.3802472 7.68149972 51.6876568 7.71225341 51.9950664 7.61999233 52.3024759 7.49697754 52.7328493 7.46622385 53.1017408 7.40471645 53.5321142 7.31245537 54.0239695 7.15868689 54.5465658 7.0664258 55.0384211 6.94341102 55.5302764 6.88190363 56.0528727 6.72813515 56.513987 6.38984449 57.5899205 6.3283371 58.696595 6.05155384 59.7725285 5.68250949 61.1558715 5.25195775 62.6621784 5.19045036 64.1070034 5.12894296 65.152196 4.8829134 66.2588704 5.06743557 67.3040629 5.28271144 68.6259241 6.02080014 69.8555624 6.42059819 71.1159416 6.63587406 71.7615017 7.0356721 72.1918751 7.40471645 72.7452123 7.7737608 73.2678086 8.11205146 73.7904049 8.48109581 74.2822602 9.46521407 75.5733804 10.5108397 76.8030186 11.7102339 77.9096931 12.2945541 78.4322894 13.0633965 78.8934037 13.7399778 79.3237771 14.6933424 79.9385962 15.8004754 80.2460058 16.7845937 80.830084 17.6764509 81.3526803 18.5990617 81.7523127 19.4909189 82.2134271 20.3520224 82.6745414 21.0286037 83.1971377 21.7359387 83.8426978 22.4432737 84.5189988 23.3658846 85.0415951 24.1039733 85.6564142 25.0265842 86.3941972 26.0414561 86.9782754 27.0255744 87.6238355 29.1783331 89.0071786 31.4848603 90.2060759 33.7913875 91.3434913 33.9759096 91.8660875 34.6217373 91.9583104 34.9907816 92.3579429 35.452087 92.8805391 35.759624 93.5260992 36.2209294 94.0486955 36.5592201 94.417587 36.9897718 94.6942556 37.2973088 95.093888 37.6663531 95.5857433 37.9738901 96.1390806 38.2506734 96.6924178 38.4967029 97.1535321 38.5582103 97.6761284 38.7734862 98.1679837 39.0195158 98.7520619 39.1732842 99.5205858 39.296299 100.073923 39.4500675 100.842447 39.7268508 101.58023 40.0343877 102.348754 40.3419247 103.117278 40.6494616 104.008766 41.1107671 104.715808 41.725841 105.668777 42.433176 106.591006 43.0174962 107.543976 43.9708608 109.019542 44.0016145 110.833258 44.3091514 112.524011 44.555181 113.845872 44.247644 115.259956 44.3706588 116.581817 44.4629199 117.504046 44.5859347 118.334051 44.5859347 119.225539 44.5859347 120.147768 44.8319643 121.008515 44.8319643 121.930743 44.8012106 122.668526 44.9857327 123.375568 45.1087475 124.113351 45.262516 124.974098 45.2010086 125.865586 45.4162845 126.726333 45.8160825 128.478567 46.1543732 130.230802 46.7386934 131.921554 47.1692451 133.212675 47.3537673 134.565277 47.7535654 135.856397 48.091856 136.93233 48.0303486 138.008264 47.9995949 139.145679 47.9995949 140.805691 48.399393 142.434962 48.4609004 144.094973 48.4916541 144.832756 48.6454225 145.539798 48.6761762 146.24684 48.7069299 146.769437 48.9837132 147.19981 48.9222058 147.753147 48.8606984 148.214262 48.7069299 148.644635 48.7069299 149.105749 48.7069299 149.689828 48.6146688 150.120201 48.4916541 150.673538 48.399393 151.165394 48.4609004 151.749472 48.4609004 152.241327 48.4609004 152.825405 48.3686393 153.470965 48.4609004 154.055043 48.5531615 154.700604 48.7069299 155.192459 48.7069299 155.86876 48.7069299 156.545061 48.6761762 157.190621 48.8299447 157.80544 49.106728 158.942856 49.2297428 160.141753 49.3835112 161.279168 49.7218019 163.922891 50.8904423 166.443649 52.1820976 168.749221 52.95094 170.163305 53.350738 171.823317 54.058073 173.268142 54.6731469 174.559262 55.3804819 175.7889 55.78028 177.172243 56.180078 178.524845 56.7336445 180.000411 56.8566593 181.414495 56.887413 181.814128 56.8259056 182.244501 56.8259056 182.644133 56.8566593 183.043766 56.9796741 183.412657 57.0411815 183.81229 57.1641963 184.673037 57.0719352 185.626006 57.0719352 186.486753L57.0719352 193.956806C57.0719352 195.647558 56.6106298 197.860907 58.0868072 198.967582 58.8864032 199.55166 59.9627826 199.951292 60.9776546 199.951292 62.6076004 199.982033 64.2683 200.043515 65.8674922 199.951292 66.6670883 199.920551 67.405177 199.705365 68.2355268 199.705365 68.9121081 199.705365 69.6194431 199.705365 70.2960244 199.705365 71.8952166 199.705365 73.7404383 199.951292 75.2781231 199.582401 76.4775173 199.305732 77.8921873 199.459437 79.1223351 199.459437 79.8604238 199.459437 80.5985125 199.459437 81.3366012 199.459437 81.9209214 199.459437 83.7046358 198.752395 84.2274486 198.383503 84.5042319 198.168317 84.6272466 198.352762 84.6272466 197.891648 84.6272466 197.276829 83.9506653 196.692751 83.3663451 196.569787 82.6897638 196.416082 81.9824288 196.200895 81.2750938 196.047191 80.444744 195.862745 79.5836405 195.770522 78.7532907 195.586076 76.9695764 195.217185 75.493399 194.264215 74.0172216 193.157541 72.2027535 191.804939 70.4190392 190.544559 68.51231 189.314921 68.0202509 189.007512 67.6204529 188.761584 67.09764 188.515656 66.8823642 188.423433 66.7285957 188.33121 66.5748272 188.146765 66.0827681 187.562687 65.9289996 186.640458 65.7137237 185.933416 65.4061868 184.826741 65.1294035 183.658585 64.8218665 182.551911 64.5143296 181.506718 64.3913148 180.430785 64.1452852 179.354851 63.8377483 178.002249 63.6224724 176.649647 63.3456891 175.297045 63.0689059 173.85222 62.453832 172.407395 62.2385561 170.96257 62.146295 170.194046 62.0540339 169.394781 61.9617728 168.595516 61.9002654 167.888474 61.6542359 167.242914 61.5619748 166.566613 61.3774526 165.367716 61.1006693 164.168818 61.0699157 162.93918 61.039162 162.109174 60.7008713 161.34065 60.6393639 160.510644 60.5778565 159.865084 60.5471028 159.250265 60.4548417 158.604705 60.2703196 157.282844 60.3933343 155.86876 60.3933343 154.516158 60.3933343 153.501706 60.3933343 152.456514 60.3933343 151.442062 60.3933343 150.550574 60.6393639 149.659087 60.8546398 148.829081 61.2236841 147.19981 61.4082063 145.509057 61.8080044 143.910528 62.146295 142.527185 61.9617728 140.959396 61.9925265 139.514571 61.9925265 138.899752 61.8695117 138.284933 61.746497 137.700854 61.6849896 137.393445 61.5619748 137.178258 61.5312211 136.870849 61.5004674 136.409734 61.5312211 135.94862 61.5312211 135.518246 61.5312211 134.01194 61.5619748 132.813042 62.2693098 131.491181 62.5460931 130.968585 62.9151374 130.476729 63.161167 129.923392 63.3456891 129.554501 63.4071965 129.093386 63.6224724 128.724495 63.7762409 128.417085 64.0222705 128.263381 64.1452852 127.894489 64.4220685 127.156706 64.5450833 126.265218 64.7296055 125.496694 64.7911128 125.158544 65.0371424 124.881875 65.1294035 124.543725 65.1909109 124.205574 65.1909109 123.928906 65.283172 123.590755 65.68297 121.992225 66.1442755 120.362955 66.697842 118.856648 67.2821622 117.227377 68.0202509 115.690329 68.6353248 114.061058 69.1888913 112.554752 69.527182 110.925481 69.8962264 109.357692 70.0807485 108.558427 70.3267781 107.759162 70.4805466 106.990638 70.5728077 106.560265 71.1878816 106.314337 71.4954185 105.976187 72.6333053 104.777289 73.8326994 103.301724 75.185862 102.287272 75.7394286 101.88764 76.2314877 101.488007 76.6927931 100.965411 77.7999262 99.7357725 78.7532907 98.6290981 80.1987144 97.7376103 83.2433303 95.862412 86.0726703 93.6490631 89.0557788 91.7123828 90.4396952 90.820895 91.9158726 90.0523711 93.1767741 89.0071786 94.499183 87.9005041 95.8215919 86.8245706 97.1440008 85.7486371 98.8354541 84.396035 100.065602 82.7360233 102.095346 81.9060175 103.87906 81.1682345 105.355238 80.4611925 106.739154 79.0778495 107.815533 78.001916 108.799652 76.5878319 109.168696 75.081525 109.414725 74.0978144 109.353218 73.1141038 109.476233 72.1303932 109.599248 71.1774235 109.691509 70.2859358 109.691509 69.3329661 109.691509 67.6422135 109.53774 65.9207199 109.937538 64.2914492 110.675627 64.3221901 111.413716 64.2607082 111.998036 64.2914492 114.396824 64.4451539 117.226164 64.7218226 119.624952 64.1992263 121.377913 63.7995938 123.069366 63.3692204 124.822327 63.0310699 126.267751 62.7544013 127.713174 62.4469917 129.158598 62.1395822 130.696283 61.8321726 132.110953 61.2788354 133.617884 60.7562391 134.386726 60.5103114 135.186323 60.3566067 135.955165 60.0799381 136.447224 59.9262333 136.877776 59.6495647 137.339081 59.4958599 137.954155 59.2806732 138.753751 59.0347455 139.399579 58.9425226 140.168421 58.8502998 141.121786 58.8810407 141.859875 59.0347455 142.751732 59.2191913 143.582082 59.6495647 144.473939 59.8032694 145.304288 59.9569742 146.196146 59.8340104 147.026495 59.8340104 148.041367 59.8340104 149.056239 59.8647514 150.071111 59.7725285 151.239752 59.6803056 152.500653 59.7110466 153.669294 59.5573418 154.622658 59.434378 155.576023 59.2806732 156.529387 59.0962274 157.544259 58.9117817 158.497624 58.4814083 159.54325 58.4506673 161.019427 58.4199264 162.495604 58.1432578 163.910274 57.7743663 164.863639 57.5284386 165.847757 57.4669567 166.831876 57.25177 167.385442 57.1288062 168.000516 57.0058424 168.584836 57.0673243 169.076895 57.1288062 169.322925 57.4669567 169.753477 57.7128844 170.337797 57.989553 170.922117 58.3277035 171.506437 58.6043721 172.306033 59.0040046 173.136383 58.8810407 173.997487 58.8810407 175.873462 58.8810407 177.718684 58.7580769 179.410137 57.8665892 180.578778 57.25177 181.59365 56.6984328 182.885305 56.4525051 183.623393 56.2988003 184.515251 56.3295413 185.222586 55.9913908 185.59163 55.806945 185.499369 55.8991679 185.560876 55.4995355 185.59163 55.1921259 185.499369 54.9154573 185.59163 54.6387887 186.329719 54.392861 187.406098 54.6080477 188.17494 54.6080477 188.882275 54.6080477 189.620364 54.6080477 190.327699 54.6080477 191.00428 54.6080477 191.680862 54.6080477 192.326689 54.6080477 192.726487 54.6080477 194.510202 54.8539754 194.786985 54.5773068 195.24829 54.3621201 194.848492 53.9010057 194.633217 53.7780419zM77.615404 55.3765716C77.5538966 55.837686 77.615404 56.2680594 77.5538966 56.6984328 77.3386207 58.2969625 76.9388227 59.8340104 76.3852562 61.4017992 75.8624433 62.9081061 75.3396305 64.3221901 74.6322955 65.7670151 74.4170196 66.2281294 74.2632512 66.7199848 73.8942068 67.0888762 73.7096846 67.273322 73.4329014 67.3962858 73.2483792 67.6114725 73.0023496 67.949623 72.9100885 68.4107374 72.6025516 68.718147 72.2950146 68.9948156 71.956724 69.1177794 71.6799407 69.425189 71.4031574 69.7325985 71.2801427 70.1629719 70.9726057 70.4703815 70.7880835 70.6548272 70.542054 70.7777911 70.3267781 70.9622368 69.92698 71.3311283 69.6501968 71.7615017 69.1888913 72.0996522 68.2970342 72.7452123 67.4974381 72.9296581 66.4210587 73.1755857 65.1294035 73.4522543 63.8992557 73.8211458 62.6383541 74.1900373 62.1155413 74.3437421 61.6234822 74.5589288 61.0699157 74.5896697 59.9627826 74.6818926 58.6711274 74.2822602 57.594748 74.0670735 55.8725411 73.698182 53.9965656 73.9133687 52.243605 73.9133687 51.4747626 73.9133687 50.921196 73.9441096 50.213861 74.1285554 49.4757723 74.3437421 48.8606984 74.3130011 48.1226097 74.3437421 47.384521 74.374483 46.984723 74.5896697 46.2158806 74.405224 45.3240234 74.1900373 44.4936736 73.9133687 43.6018164 73.698182 41.6028262 73.2063267 39.603836 72.6837304 37.6048457 72.1303932 37.174294 72.0074294 36.8360033 71.8229836 36.4362053 71.6692788 35.4828407 71.2696464 34.5294762 71.2081645 33.5761116 70.7777911 33.1455599 70.5626044 32.8072692 70.4396405 32.3459638 70.3474177 31.6386288 70.1629719 31.0850622 69.8248214 30.4392346 69.4866709 28.5940129 68.4722193 26.5642689 67.6114725 24.5652787 66.9659124 23.6426678 66.6585028 22.6893033 66.56628 21.7666924 66.2281294 21.2746333 66.0436837 20.7210667 65.9822018 20.3520224 65.5518284 20.0444854 65.1829369 19.9214707 64.4758949 19.9214707 64.0147805 19.890717 63.3077385 19.7984559 62.3855098 19.9522243 61.7092088 20.1982539 60.6947572 20.7825741 59.6188237 21.1823722 58.6351131 21.5821702 57.6206615 21.8897072 56.4525051 21.9819683 55.3765716 22.0742294 53.9932286 22.1972441 52.6713674 22.1972441 51.2880244 22.1972441 49.9969042 22.1972441 48.7365249 22.1972441 47.4454047 22.1972441 44.7709415 22.2279978 42.1272192 21.6744313 39.4834969 21.4591554 38.4383044 21.2131259 37.4238528 21.0593574 36.3786602 20.99785 35.9790278 20.9363426 35.0567991 20.598052 34.5956847 21.1823722 34.4727209 21.6436776 34.9953172 22.1972441 35.0567991 22.6585496 35.118281 23.0891013 35.118281 23.5504068 35.2105039 24.4730176 35.4256906 25.3341211 35.7638411 26.256732 35.9790278 27.0563281 36.1634735 27.7329094 36.532365 28.5325055 36.8397746 29.3628553 37.1471842 30.1932051 37.4238528 31.0235548 37.7005214 31.915412 37.97719 32.7765155 38.2845996 33.6683727 38.4997863 34.744752 38.7457139 35.6981166 39.422015 36.6822349 39.8831293 37.5125847 40.2520208 38.4044418 40.3749846 39.2040379 40.7746171 40.1574025 41.2357314 41.1415208 41.5124 42.0948853 41.9120325 42.832974 42.2194421 43.6325701 42.3731468 44.3706588 42.6805564 45.262516 43.0494479 46.1543732 43.4183394 47.0769841 43.695008 49.1374817 44.3405681 51.3209941 44.5557548 53.4122454 44.9553872 53.8427971 45.0476101 54.3348563 44.8939053 54.765408 44.9861282 55.1652061 45.0783511 55.472743 45.1705739 55.9032948 45.2320558 56.6413835 45.3242787 57.4409795 45.7853931 58.1483145 46.0928026 58.60962 46.3079893 59.1016791 46.4002122 59.5014772 46.6461399 59.9012752 46.8920675 60.2703196 47.1994771 60.6701176 47.4454047 61.5927285 47.9372601 62.6076004 48.6443021 63.5917187 49.0131935 64.2683 49.2591212 64.8833739 49.6587536 65.5907089 49.8124584 66.3287976 49.9969042 67.0668863 50.089127 67.804975 50.2428318 69.4656746 50.5809824 71.1263742 51.0420967 72.8178275 51.2880244 73.7096846 51.4417291 74.6322955 51.7798797 75.4626453 52.1180302 76.0162118 52.3332169 76.8465616 52.6098855 77.3386207 52.948036 77.6769114 53.1939637 77.8306799 53.4398913 77.8614336 53.8395238 77.8614336 54.3621201 77.7076651 54.8539754 77.615404 55.3765716zM94.6221978 39.2683102C94.5299367 39.5449788 94.4376756 39.8523884 94.2839071 40.129057 94.1301387 40.3749846 93.9763702 40.6516533 93.791848 40.8975809 93.7303406 40.9898038 93.6380795 41.1742495 93.5458184 41.2664724 93.4535573 41.3586953 93.3305426 41.4201772 93.2075278 41.4816591 92.9614982 41.6046229 92.8999908 41.7275867 92.5924539 41.7275867 92.3156706 41.7275867 92.0388873 41.7275867 91.7313504 41.7275867 90.9932617 41.7275867 90.1936656 41.8198096 89.4555769 41.7275867 89.2095473 41.6968458 89.0250251 41.543141 88.8097493 41.5124 88.5637197 41.4509181 88.2869364 41.3586953 88.0409069 41.2972134 87.9178921 41.2664724 87.7948773 41.2664724 87.7026162 41.2357314 87.7333699 41.1742495 87.7641236 41.0820267 87.7948773 40.9898038 88.0409069 40.3749846 88.1946754 40.0368341 88.1946754 39.3605331 88.1946754 38.684232 88.1946754 38.007931 88.1946754 37.3008889 88.1946754 35.1797629 87.7333699 33.2123417 87.3335719 31.1526976 87.1490497 30.1689869 87.0567886 29.3389811 87.0567886 28.2937886 87.0567886 27.6482285 86.9337738 26.8489636 87.0875423 26.2341444 87.7948773 26.4800721 87.5488477 27.6789694 88.3791975 27.8019332 88.6867345 27.8634152 89.0250251 27.7711923 89.3633158 27.8326742 89.4555769 27.8634152 89.547838 27.8941561 89.6400991 27.9248971 89.7631138 28.4474933 89.9168823 28.9700896 90.0091434 29.4926859 90.0706508 29.9230593 90.3781878 30.3226917 90.4396952 30.7223242 90.5012025 31.1526976 90.3474341 31.4908481 90.255173 31.8597396 90.0706508 32.5667816 89.9783897 33.3353055 89.9783897 34.0730885 89.9783897 34.9030943 89.8246212 35.9175459 89.9783897 36.7168108 90.0706508 37.2086661 90.5012025 37.7927443 90.8702469 38.1923767 91.4238134 38.7457139 92.1619021 38.8686778 92.8999908 38.8686778 93.2690352 38.8686778 93.6688332 38.8994187 94.0378776 38.8686778 94.3146608 38.8686778 94.5606904 38.714973 94.80672 38.6534911 94.8374737 38.8379368 94.6837052 39.1453464 94.6221978 39.2683102z"/>
  </g>
</svg>
