<svg xmlns="http://www.w3.org/2000/svg" width="200" height="200" viewBox="0 0 200 200">
  <path fill="#fff" d="M184.028274,73.5713233 C180.921373,62.7133067 171.35049,55.6988214 159.649802,55.6988214 C149.454279,55.6988214 141.255729,59.0958655 135.285591,65.793174 C125.871988,76.3478396 122.336845,94.4484648 124.199763,123.341638 C123.937764,123.060652 123.756444,122.727616 123.462663,122.477535 C120.03835,119.592447 115.125576,119.319187 111.402593,121.796012 L99.6509713,129.63475 C88.3300376,108.294449 82.2824814,84.460651 82.2372531,60.2385149 C101.063236,53.6745832 118.425206,33.8856019 118.425206,33.8856019 C118.425206,33.8856019 115.637349,30.7240006 111.141817,26.5279151 L120.092135,3.79894951 C120.49593,2.76934506 120.247785,1.59660444 119.463828,0.814641818 C118.680685,0.0310526471 117.512491,-0.212522814 116.478759,0.194520653 L89.591541,10.74268 C83.5879908,7.60059723 77.2071305,5.39662562 71.0002566,5.39662562 C64.7941976,5.39662562 58.4190418,7.60059723 52.4175289,10.74268 L25.5303112,0.19492729 C24.4965792,-0.21170954 23.3283846,0.0318659208 22.5432047,0.815048455 C21.7527278,1.59701108 21.5131399,2.7697517 21.9165276,3.79935615 L30.866438,26.5258819 C26.3717209,30.7244072 23.5822337,33.8864152 23.5822337,33.8864152 C23.5822337,33.8864152 40.9531684,53.6778363 59.7714093,60.2425813 C59.725366,84.6009407 53.7364845,108.250125 42.3613582,129.638816 L30.6109591,121.796418 C26.8879757,119.312274 21.9752022,119.586754 18.5537409,122.477941 C15.1375766,125.36547 14.045985,130.160938 15.8856775,134.235439 L36.5362765,179.972729 L27.5407304,179.972729 C22.0008723,179.972729 17.5086,184.455494 17.5086,189.986975 C17.5086,195.517236 22.0008723,200 27.5407304,200 L52.0646665,200 C54.434875,200 56.6632865,199.119631 58.4443044,197.647199 C62.3901698,199.022852 66.6053677,199.797088 71.0088133,199.797088 C75.4098141,199.797088 79.6241971,199.022852 83.5692475,197.647199 C85.3523027,199.119631 87.5803068,200 89.9525526,200 L114.474044,200 C120.013495,200 124.505767,195.517236 124.505767,189.986975 C124.505767,184.455494 120.013495,179.972729 114.474044,179.972729 L114.356287,179.972729 C120.051389,177.864724 125.650329,174.738094 130.124673,170.051604 C137.558416,162.267355 140.576489,151.905029 139.087622,139.245205 C135.062301,104.983612 137.088204,83.8588285 145.281457,74.6663963 C148.698029,70.8366906 153.262829,69.050335 159.650209,69.050335 C168.164135,69.050335 170.614206,75.3157953 171.161835,77.2387809 C172.109185,80.5398587 171.802366,85.2698583 167.824311,87.7377372 C164.688888,89.6839011 163.728092,93.8002857 165.673317,96.9293561 C167.627914,100.068592 171.744506,101.027035 174.892968,99.0743654 C183.239019,93.8946254 186.910662,83.6465641 184.028274,73.5713233 Z M120.470667,160.816475 C117.962329,163.453922 114.78616,165.379754 111.415632,166.817621 L125.290947,136.086856 C125.454747,137.645089 125.611212,139.189089 125.800275,140.798964 C126.813226,149.430644 125.06888,155.976277 120.470667,160.816475 Z"/>
</svg>
