<svg xmlns="http://www.w3.org/2000/svg" width="200" height="200" viewBox="0 0 200 200">
  <g fill="none" fill-rule="evenodd">
    <path fill="#fff" fill-rule="nonzero" d="M411.481898,-143.199902 C411.781898,-143.599902 411.981898,-143.999902 412.281898,-144.399902 C412.881898,-145.199902 412.581898,-146.599902 411.581898,-146.899902 C407.381898,-148.099902 403.081898,-149.099902 398.781898,-149.699902 C402.481898,-150.199902 406.181898,-150.699902 409.881898,-151.399902 C411.481898,-151.699902 411.681898,-153.899902 410.181898,-154.599902 C408.181898,-155.499902 406.081898,-155.599902 403.981898,-155.199902 C402.281898,-155.099902 400.481898,-154.999902 398.781898,-154.799902 C398.981898,-155.599902 399.281898,-156.399902 399.681898,-157.099902 C402.281898,-157.599902 404.781898,-158.199902 407.381898,-158.699902 C409.481898,-159.099902 410.581898,-160.899902 409.281898,-162.699902 C408.981898,-163.199902 408.381898,-163.299902 407.781898,-163.199902 C402.481898,-162.599902 396.981898,-162.399902 391.681898,-162.499902 C387.281898,-165.399902 381.681898,-166.999902 376.181898,-167.599902 C375.781898,-167.899902 375.281898,-168.099902 374.881898,-168.399902 C369.881898,-171.599902 364.781898,-174.699902 360.181898,-178.499902 C353.781898,-183.799902 349.881898,-191.399902 343.481898,-196.299902 C343.181898,-196.799902 342.881898,-197.299902 342.581898,-197.799902 C342.181898,-198.399902 341.781898,-198.999902 341.281898,-199.599902 C340.881898,-208.099902 335.381898,-215.999902 328.381898,-220.399902 C321.581898,-224.699902 313.381898,-224.999902 306.081898,-222.399902 C304.581898,-223.899902 302.981898,-225.099902 301.181898,-225.999902 C301.081898,-226.299902 300.881898,-226.499902 300.581898,-226.699902 C298.481898,-227.899902 296.081898,-228.699902 293.981898,-229.899902 C291.781898,-231.099902 289.781898,-232.599902 287.781898,-234.099902 C283.681898,-237.099902 279.781898,-240.199902 275.381898,-242.699902 C268.281898,-246.699902 258.081898,-249.099902 250.081898,-245.999902 C249.781898,-246.299902 249.481898,-246.599902 249.181898,-246.899902 C250.181898,-247.099902 251.181898,-247.299902 252.281898,-247.599902 C253.181898,-247.799902 253.581898,-248.699902 253.381898,-249.599902 C253.281898,-250.299902 253.181898,-250.899902 253.081898,-251.499902 C256.181898,-261.499902 256.681898,-272.999902 254.081898,-283.199902 C251.281898,-293.899902 241.381898,-297.299902 231.581898,-299.399902 C222.081898,-301.499902 210.481898,-301.999902 201.381898,-297.999902 C192.681898,-294.199902 187.681898,-285.599902 185.181898,-276.799902 C185.081898,-276.699902 184.981898,-276.599902 184.881898,-276.499902 C184.381898,-275.999902 184.481898,-274.999902 185.081898,-274.699902 C187.181898,-273.399902 189.381898,-272.199902 191.681898,-270.999902 C191.581898,-270.199902 191.481898,-269.499902 191.281898,-268.699902 C190.781898,-266.299902 189.281898,-263.999902 189.281898,-261.599902 C189.281898,-260.299902 190.581898,-259.099902 191.381898,-258.199902 C191.881898,-257.699902 192.281898,-257.199902 192.781898,-256.599902 C191.781898,-254.399902 190.481898,-252.399902 189.181898,-250.399902 C187.981898,-248.599902 187.381898,-246.499902 188.681898,-244.599902 C188.881898,-244.299902 189.281898,-243.999902 189.681898,-244.199902 C190.781898,-244.599902 191.781898,-244.899902 192.881898,-245.099902 C192.981898,-244.099902 192.981898,-243.099902 192.881898,-241.999902 C192.781898,-241.199902 192.681898,-239.899902 193.381898,-239.299902 C194.281898,-238.499902 195.081898,-238.499902 196.181898,-238.599902 C197.381898,-238.799902 198.281898,-238.899902 199.281898,-238.799902 C199.181898,-238.599902 198.981898,-238.399902 198.881898,-238.199902 C198.081898,-237.099902 197.181898,-236.399902 196.681898,-235.199902 C195.781898,-233.199902 197.981898,-231.599902 199.281898,-230.299902 C198.881898,-228.799902 198.481898,-227.299902 199.081898,-225.699902 C199.781898,-223.799902 201.981898,-223.299902 203.781898,-223.099902 C206.781898,-222.799902 210.281898,-223.599902 213.181898,-224.299902 C213.481898,-224.399902 213.681898,-224.399902 213.981898,-224.499902 C215.581898,-223.099902 217.381898,-221.799902 218.781898,-220.499902 C220.281898,-219.199902 221.681898,-217.899902 223.081898,-216.599902 C221.281898,-213.199902 219.781898,-209.699902 218.381898,-206.099902 C217.181898,-202.799902 216.081898,-199.499902 215.281898,-196.099902 C214.581898,-193.399902 213.681898,-190.299902 213.581898,-187.399902 C212.381898,-186.499902 211.281898,-185.699902 210.081898,-184.899902 C208.481898,-183.799902 208.481898,-183.299902 208.181898,-181.299902 C207.281898,-175.599902 205.781898,-170.099902 203.881898,-164.799902 C200.681898,-163.299902 197.581898,-161.499902 194.781898,-159.299902 C190.281898,-155.799902 185.981898,-151.799902 185.081898,-146.099902 C184.681898,-143.499902 181.981898,-142.699902 180.681898,-140.699902 C180.181898,-139.899902 179.881898,-139.099902 179.881898,-138.299902 C177.581898,-136.499902 175.381898,-134.599902 173.181898,-132.699902 C170.681898,-130.499902 168.081898,-128.299902 165.581898,-126.199902 C163.281898,-124.199902 160.581898,-122.399902 158.381898,-120.299902 C156.381898,-119.399902 154.481898,-118.299902 152.681898,-117.099902 C147.481898,-113.499902 142.281898,-110.099902 136.581898,-107.299902 C133.681898,-105.899902 130.681898,-104.799902 127.781898,-103.599902 C126.481898,-103.099902 124.581898,-101.799902 125.081898,-100.099902 C126.081898,-96.4999017 131.581898,-97.5999017 134.481898,-99.2999017 C137.881898,-98.5999017 141.681898,-99.1999017 145.281898,-100.299902 C144.981898,-99.8999017 144.781898,-99.4999017 144.581898,-99.0999017 C143.681898,-96.8999017 144.581898,-94.8999017 146.781898,-93.9999017 C147.381898,-93.7999017 148.081898,-93.9999017 148.481898,-94.4999017 C149.781898,-95.8999017 151.281898,-97.0999017 152.681898,-98.3999017 C155.981898,-99.6999017 159.181898,-101.399902 162.381898,-102.999902 C165.681898,-104.699902 168.781898,-107.199902 170.281898,-110.499902 C175.081898,-112.699902 179.681898,-115.399902 184.181898,-118.099902 C187.081898,-119.799902 189.981898,-121.499902 192.881898,-123.199902 C192.981898,-123.099902 192.981898,-123.099902 193.081898,-122.999902 C193.481898,-122.699902 194.081898,-122.799902 194.481898,-122.999902 C200.081898,-126.099902 205.581898,-129.399902 211.081898,-132.699902 C216.881898,-132.899902 222.781898,-133.099902 228.481898,-133.899902 C231.981898,-134.399902 233.181898,-138.199902 234.381898,-140.999902 C236.281898,-145.099902 238.381898,-149.099902 240.581898,-153.099902 C242.781898,-157.199902 245.181898,-161.199902 247.681898,-164.999902 C249.281898,-164.299902 250.881898,-163.499902 252.481898,-162.599902 C257.781898,-159.699902 261.781898,-155.399902 266.081898,-151.199902 C269.981898,-147.299902 273.981898,-144.399902 278.881898,-141.799902 C282.581898,-139.799902 284.481898,-135.899902 286.281898,-131.999902 C285.781898,-130.599902 284.881898,-129.299902 283.481898,-129.199902 C282.481898,-129.099902 281.481898,-128.199902 281.881898,-127.099902 C282.381898,-125.599902 282.781898,-123.899902 283.381898,-122.299902 C276.481898,-117.699902 270.281898,-111.899902 265.181898,-105.399902 C263.681898,-105.199902 262.181898,-104.899902 260.681898,-104.499902 C259.181898,-104.099902 257.781898,-103.599902 257.281898,-101.899902 C256.781898,-99.8999017 256.781898,-97.3999017 256.881898,-95.0999017 C255.081898,-94.4999017 253.381898,-93.7999017 251.581898,-93.1999017 C247.481898,-91.6999017 244.381898,-90.2999017 241.581898,-86.8999017 C236.081898,-80.2999017 229.481898,-74.5999017 224.181898,-67.7999017 C221.981898,-64.9999017 221.181898,-62.3999017 222.181898,-58.8999017 C223.281898,-54.9999017 225.281898,-51.1999017 227.281898,-47.7999017 C228.981898,-44.7999017 230.981898,-41.6999017 233.281898,-38.8999017 C237.381898,-27.3999017 242.181898,-16.0999017 247.481898,-5.09990173 C246.481898,-3.99990173 245.481898,-3.09990173 244.281898,-2.29990173 C243.181898,-1.59990173 242.881898,-0.0999017304 243.881898,0.90009827 C247.281898,4.30009827 251.581898,7.50009827 256.281898,9.70009827 C257.381898,13.6000983 258.781898,17.5000983 259.781898,21.4000983 C260.681898,24.7000983 261.381898,28.0000983 261.981898,31.3000983 C259.481898,37.6000983 253.481898,42.6000983 247.381898,45.9000983 C242.581898,48.5000983 237.481898,50.2000983 232.481898,52.4000983 C230.981898,53.1000983 227.781898,53.7000983 227.581898,55.7000983 C227.381898,58.3000983 227.681898,60.6000983 228.681898,63.0000983 C228.881898,63.5000983 229.281898,63.8000983 229.781898,64.0000983 C229.781898,64.1000983 229.781898,64.2000983 229.781898,64.3000983 C229.681898,65.1000983 229.981898,65.8000983 230.781898,66.0000983 C232.281898,66.5000983 233.681898,66.8000983 235.181898,67.1000983 C234.681898,68.5000983 233.881898,69.8000983 232.981898,71.0000983 C229.481898,70.2000983 225.781898,70.9000983 223.281898,74.2000983 C219.181898,79.4000983 221.581898,86.3000983 226.481898,89.9000983 C231.781898,93.8000983 240.481898,92.9000983 244.581898,87.7000983 C245.281898,86.8000983 245.781898,85.9000983 246.181898,84.8000983 C248.081898,87.7000983 251.181898,89.7000983 254.881898,90.0000983 C260.181898,90.4000983 265.581898,85.7000983 266.181898,80.6000983 C266.281898,79.8000983 266.281898,79.0000983 266.181898,78.2000983 C266.981898,77.8000983 267.881898,77.3000983 268.581898,76.8000983 C268.781898,79.1000983 269.681898,81.5000983 271.281898,83.5000983 C273.181898,85.8000983 275.781898,87.1000983 278.381898,87.4000983 C279.181898,90.9000983 281.581898,94.1000983 284.381898,95.9000983 C290.181898,99.6000983 297.381898,96.6000983 299.581898,90.6000983 C300.681898,90.5000983 301.781898,90.3000983 302.881898,90.2000983 C304.581898,94.3000983 308.781898,97.2000983 313.181898,97.4000983 C318.681898,97.7000983 322.681898,93.4000983 323.481898,88.4000983 C323.481898,88.4000983 323.581898,88.4000983 323.581898,88.4000983 C324.981898,92.7000983 328.781898,95.9000983 333.281898,97.0000983 C338.481898,98.3000983 344.281898,95.8000983 345.581898,90.7000983 C347.481898,94.2000983 351.281898,96.6000983 355.381898,97.1000983 C361.581898,97.9000983 366.781898,92.9000983 366.881898,86.9000983 C366.981898,81.7000983 362.381898,76.4000983 357.381898,74.9000983 C356.581898,73.1000983 355.881898,71.3000983 355.281898,69.5000983 C355.381898,69.5000983 355.481898,69.5000983 355.581898,69.5000983 C356.281898,69.5000983 356.781898,69.2000983 357.081898,68.8000983 C357.681898,68.7000983 358.081898,68.2000983 358.081898,67.5000983 C357.381898,59.5000983 354.281898,51.6000983 349.281898,45.2000983 C347.781898,39.9000983 345.581898,34.7000983 343.481898,29.8000983 C341.781898,25.8000983 339.881898,21.8000983 337.881898,17.8000983 C339.881898,17.5000983 341.881898,17.2000983 343.981898,17.0000983 C345.581898,16.9000983 346.381898,15.2000983 345.281898,13.9000983 C335.381898,2.50009827 330.881898,-12.1999017 323.181898,-24.9999017 C324.181898,-25.0999017 325.181898,-25.0999017 326.181898,-24.9999017 C327.181898,-24.8999017 327.981898,-26.0999017 327.681898,-26.9999017 C326.681898,-30.0999017 325.481898,-33.0999017 324.081898,-35.8999017 C325.081898,-36.7999017 325.981898,-37.7999017 326.781898,-38.7999017 C327.181898,-39.2999017 327.381898,-39.9999017 326.981898,-40.5999017 C326.081898,-41.8999017 325.381898,-43.1999017 324.681898,-44.5999017 C328.081898,-58.7999017 339.181898,-69.9999017 343.881898,-83.5999017 C349.381898,-90.2999017 354.881898,-97.0999017 359.181898,-104.699902 C364.181898,-113.799902 367.281898,-125.399902 363.181898,-135.399902 C363.081898,-135.499902 363.081898,-135.599902 362.981898,-135.699902 C362.981898,-135.999902 362.881898,-136.299902 362.681898,-136.699902 C359.681898,-141.599902 356.881898,-147.099902 353.281898,-151.599902 C351.581898,-153.699902 349.581898,-155.499902 347.181898,-156.799902 C345.081898,-157.899902 342.881898,-158.499902 340.781898,-159.599902 C338.981898,-163.699902 336.481898,-167.699902 333.981898,-171.499902 C333.981898,-171.499902 333.981898,-171.599902 333.981898,-171.599902 C334.181898,-171.499902 334.381898,-171.399902 334.581898,-171.299902 C339.181898,-169.299902 343.781898,-167.299902 348.081898,-164.599902 C350.081898,-163.299902 351.881898,-161.899902 353.581898,-160.299902 C353.581898,-158.099902 354.181898,-156.099902 355.681898,-154.799902 C357.281898,-153.499902 359.081898,-153.099902 360.781898,-153.399902 C362.881898,-152.299902 364.781898,-151.199902 366.281898,-149.599902 C368.681898,-146.999902 369.481898,-143.099902 371.481898,-140.199902 C375.681898,-133.899902 385.081898,-134.999902 390.481898,-130.499902 C390.981898,-130.099902 391.681898,-130.199902 392.081898,-130.499902 C395.381898,-133.199902 394.681898,-136.399902 392.281898,-139.099902 C394.281898,-138.399902 396.381898,-137.599902 398.381898,-136.899902 C401.181898,-135.999902 403.981898,-134.999902 406.781898,-134.099902 C408.381898,-133.599902 409.381898,-133.199902 410.781898,-134.099902 C411.181898,-134.399902 411.381898,-134.999902 411.281898,-135.499902 C410.681898,-138.799902 404.281898,-141.399902 401.681898,-142.799902 C401.281898,-142.999902 400.881898,-143.199902 400.481898,-143.399902 C403.581898,-142.999902 406.581898,-142.699902 409.681898,-142.299902 C410.581898,-142.499902 411.181898,-142.799902 411.481898,-143.199902 Z M268.381898,65.2000983 C264.681898,64.9000983 253.981898,68.2000983 253.981898,68.2000983 L255.481898,63.7000983 L275.581898,59.5000983 C275.581898,59.5000983 274.381898,62.2000983 275.981898,62.5000983 C277.581898,62.8000983 280.281898,63.8000983 280.281898,63.8000983 C280.281898,63.8000983 272.081898,65.5000983 268.381898,65.2000983 Z M314.581898,47.9000983 L304.581898,50.6000983 C304.581898,50.6000983 304.881898,43.0000983 298.781898,35.9000983 C292.681898,28.8000983 294.881898,21.8000983 293.581898,19.6000983 C292.281898,17.4000983 288.981898,15.7000983 288.481898,12.5000983 C288.081898,9.20009827 287.781898,2.50009827 291.181898,2.70009827 C291.181898,2.70009827 297.881898,9.40009827 299.681898,13.1000983 C301.481898,16.8000983 302.981898,32.0000983 302.981898,32.0000983 C302.981898,32.0000983 308.481898,30.5000983 309.981898,31.4000983 C311.481898,32.3000983 313.681898,38.7000983 314.581898,41.2000983 C315.481898,43.7000983 314.581898,47.9000983 314.581898,47.9000983 Z M331.981898,71.9000983 L329.581898,75.9000983 L323.181898,76.3000983 L320.081898,75.1000983 C319.981898,74.4000983 318.581898,72.4000983 318.581898,72.4000983 L331.981898,71.9000983 Z"/>
    <path fill="#fff" fill-rule="nonzero" d="M80.0494641,194.888737 C79.1426216,194.80632 78.0708986,194.674453 77.6586974,194.575553 C77.2464963,194.476652 76.6199505,194.394235 76.2572135,194.394235 C76.0923331,193.998634 75.9934048,193.965667 75.2349547,193.965667 C74.7073372,193.949183 74.278648,193.866766 74.1962077,193.751383 C74.1302556,193.635999 73.6026381,193.487648 73.0090684,193.405231 C72.4154988,193.339298 71.4921682,193.125014 70.9645507,192.943696 C70.4204452,192.762379 69.5465787,192.581061 69.0024732,192.531611 C67.8812861,192.449194 66.9249794,191.971176 66.6446826,191.344807 C66.4798021,190.982172 66.3808739,190.949205 65.6718879,191.015139 C65.3091509,190.784371 65.0288541,190.817338 64.8969497,190.866788 C65.0288541,191.46019 64.8474856,191.46019 63.1492168,191.36129 C62.1104699,191.295356 60.7749382,191.179973 60.1813685,191.081072 C58.911789,190.883272 57.2300082,190.092068 56.3066777,189.251415 C55.3338829,188.361312 54.7897774,187.96571 54.5754328,187.96571 C54.1797197,187.96571 52.1681781,186.894289 51.1953833,186.16902 C50.6512778,185.773418 49.8928277,185.114082 49.5136026,184.718481 C49.1178895,184.322879 48.7716406,184.009695 48.7221764,184.009695 C48.6397362,184.009695 47.6504534,183.020691 46.9909316,182.262455 C46.3643858,181.537185 44.4847486,178.40534 44.5671888,178.191056 C44.6001649,178.092155 44.8639736,178.45479 45.1772465,178.998742 C45.4905194,179.526211 45.7708162,180.004229 45.8202803,180.053679 C45.8697444,180.10313 46.067601,180.432798 46.2489695,180.795432 C46.5787304,181.471252 50.4534213,185.493201 50.7666941,185.493201 C50.9480627,185.839352 53.6356142,187.471208 53.9488871,187.471208 C54.1137675,187.026157 53.915911,186.960223 53.915911,186.811872 C53.915911,186.614072 52.7947238,185.493201 52.5968673,185.493201 C52.3825227,185.2954 51.9208574,184.899798 51.4097279,184.504197 C50.8821105,184.092112 50.4534213,183.712994 50.4534213,183.64706 C50.1566364,183.515193 46.9909316,180.432798 46.9909316,180.30093 C46.9909316,180.119613 44.7485573,178.026222 44.5342127,177.993255 C44.0065952,177.432819 43.6108821,176.971284 43.231657,176.608649 C42.852432,176.229531 42.5391591,175.866897 42.5391591,175.767996 C42.2258862,175.603162 40.2802968,172.619667 39.6207749,171.317479 C39.3075021,170.724077 39.0931575,170.114191 39.1426216,169.949357 C38.9777411,169.81749 38.7963726,169.603206 38.6644683,169.290021 C38.5325639,168.960353 38.3676834,168.680135 38.3017312,168.647169 C38.0708986,168.548268 37.1970322,167.29553 36.8837593,166.619711 C36.7023908,166.257076 36.4715581,165.746091 36.3396538,165.465873 C36.2077494,165.202139 36.0263809,164.312035 35.9439406,163.487865 C35.7625721,161.905459 35.4987634,160.35602 35.3338829,159.943935 C35.1854905,159.614267 34.8392415,157.751643 34.5424567,155.823085 C34.0972795,152.773657 34.0313273,152.427506 33.8994229,152.229705 C33.8334707,152.114321 33.7180544,151.685753 33.6521022,151.240701 C33.4872218,150.317631 33.0090684,148.455007 32.8276999,147.993472 C32.6133553,147.466003 32.2835944,146.097881 32.0857378,144.911076 C31.9868096,144.317674 31.8549052,143.757239 31.788953,143.691305 C31.7065128,143.625371 31.6570486,142.867135 31.6570486,141.993515 C31.6570486,141.119895 31.5581204,139.636389 31.426216,138.680352 C31.2778236,137.724315 31.063479,135.944108 30.9150866,134.724337 C30.7666941,133.504565 30.5358615,131.988093 30.4204452,131.34524 C30.2885408,130.718871 30.1401484,129.416683 30.0906843,128.460646 C30.0247321,127.504609 29.9258038,126.663956 29.8433636,126.565055 C29.7774114,126.482638 29.6784831,125.806819 29.6125309,125.098033 C29.5465787,124.372763 29.4476505,123.696944 29.3816983,123.614527 C29.1838417,123.301343 28.8540808,120.565099 28.6727123,117.746438 C28.5902721,116.246448 28.4418796,114.861843 28.3594394,114.647559 C28.2605111,114.433275 28.1945589,113.394821 28.1945589,112.3234 C28.1945589,111.103629 28.0791426,109.719023 27.864798,108.581669 C27.5515251,106.834429 27.4361088,105.53224 27.7164056,106.702561 C27.7988458,107.065196 27.8153339,106.801462 27.7493817,105.960809 C27.6999176,105.235539 27.5680132,104.493786 27.4361088,104.312469 C27.2217642,104.015768 27.2052762,104.114668 27.2712284,105.219056 C27.139324,105.186089 27.0568838,104.444336 27.0568838,104.015768 C27.0403957,103.471816 26.8590272,102.828963 26.4468261,101.971826 C25.5729596,100.109203 25.5234955,99.5817338 25.6389118,94.3400134 C25.7543281,89.3455441 25.6883759,88.7356584 24.8969497,86.4279827 C24.633141,85.7027133 23.7427865,83.7741558 23.5119538,83.4774546 C23.4130256,83.3455874 23.3140973,82.9335025 23.2976092,82.5708678 C23.2811212,82.1093326 22.9513603,81.2851628 22.2588623,79.9335242 C21.6982688,78.84562 21.2201154,77.6752988 21.1871393,77.312664 C21.1376752,76.9500293 20.9398186,76.4720108 20.6924979,76.191793 C20.4616653,75.9115752 20.2802968,75.5819073 20.2802968,75.4665235 C19.8680956,75.070922 18.6150041,72.2687444 18.6809563,71.8896263 C18.1038747,70.9006225 17.8070899,70.7522719 17.8070899,71.1973236 C17.8070899,71.5764418 18.911789,73.8511506 19.3899423,74.5104865 C19.6042869,74.7907042 19.7856554,75.1038888 19.7856554,75.2027892 C20.2473207,75.7961915 20.1648805,75.8786085 19.9340478,75.8786085 C19.4723825,75.4335567 19.0601814,74.5599367 18.6150041,73.6533498 C18.1698269,72.7302796 17.7576257,71.7577591 17.7081616,71.461058 C17.4113768,70.9335893 17.2959604,70.6698549 17.2464963,70.3566704 C16.8837593,69.7797514 16.8178071,69.6478843 16.8178071,69.4995337 C16.801319,68.972065 16.059357,67.8841608 15.69662,67.8347106 C15.8944765,67.521526 15.8779885,67.5050426 15.5976917,67.1753747 C15.4328112,66.9940573 15.0865622,66.7797731 14.8227535,66.7303229 C14.9546579,66.318238 15.1854905,65.9885701 14.9051937,65.6918689 C15.2184666,65.2633006 14.9381698,64.9171492 14.7073372,64.7028651 C14.7238252,64.3402303 14.7732894,64.2413299 14.7238252,64.0105624 C15.2514427,63.5655107 15.2844188,63.4006767 15.350371,63.4501269 C15.7625721,64.0105624 15.8285243,64.2083632 15.8285243,64.4556141 C16.1582852,64.5709979 16.1582852,64.2742967 15.9604287,63.4830937 C15.8285243,62.9061748 15.729596,62.4116728 15.7625721,62.3787061 C16.3726298,62.8072744 16.422094,63.0215585 16.3561418,63.5984775 C16.2901896,64.2083632 16.3231657,64.3402303 16.5539984,64.3402303 C16.8672712,64.3402303 16.8837593,64.1259462 16.6364386,63.6479276 C16.784831,63.1039755 16.801319,62.9226582 16.7353669,62.6918906 C17.1805441,62.6589238 16.9661995,62.2138721 16.4715581,61.7193702 C16.1912613,61.4391524 16.0098928,61.1424513 16.059357,61.0765177 C15.69662,60.4501486 15.3998351,60.0380636 15.1854905,59.7248791 C14.9711459,59.4116945 14.7073372,59.0655432 14.6084089,58.9831262 C13.3882935,57.1369857 12.9101401,56.2633656 12.7287716,55.7688637 C12.2506183,54.4831587 11.5086562,52.1919665 11.3932399,51.5655974 C11.3107997,51.2029627 11.079967,50.3128592 10.8821105,49.5875897 C10.6842539,48.8623203 10.4534213,48.0546338 10.3874691,47.774416 C10.1071723,46.7524454 9.26628195,44.6096037 8.8211047,43.8184007 C8.42539159,43.126098 7.17230008,41.3458911 6.59521847,40.6535884 C6.430338,40.3404038 6.13355317,39.8459019 5.77081616,39.3019498 C5.40807914,38.7579977 5.02885408,38.1316286 4.94641385,37.9338278 C4.84748557,37.7195437 4.7155812,37.4393259 4.61665293,37.3074587 C3.84171476,36.1206541 1.7147568,29.9064133 1.23660346,27.4174203 C1.08821105,26.6427007 0.890354493,25.6536968 0.807914262,25.1921617 C0.708985985,24.74711 0.56059357,23.461405 0.478153339,22.3570174 C0.395713108,21.2361464 0.263808739,19.3900059 0.164880462,18.236168 C0.0824402308,17.0658468 0,13.6208168 0,10.5713883 L0,5 C133.333333,5.02197786 200,5.09340592 200,5.21428417 C200,5.32966795 199.851608,5.70878608 199.670239,6.07142083 C199.488871,6.43405557 199.340478,6.8131737 199.340478,6.91207409 C198.779885,7.70327716 197.04864,11.2966578 196.900247,12.0054439 C196.636439,13.1098315 196.042869,15.2361897 195.69662,16.241677 C195.317395,17.362548 195.300907,17.7416661 195.61418,18.318585 C195.746084,18.565836 196.125309,19.3240723 196.45507,19.9998916 C196.801319,20.6757108 197.13108,21.3350467 197.197032,21.4833973 C197.790602,22.6702019 197.938994,23.2800876 197.906018,24.5987594 C197.88953,25.9998482 197.493817,27.2525864 197.098104,27.2525864 C196.669415,27.8789555 195.234955,28.2415902 193.833471,28.2415902 C192.118714,28.2415902 191.277824,27.8459887 190.453421,26.6591841 C190.12366,26.1976489 189.513603,25.4229293 189.084913,24.9449108 L188.309975,24.0712907 L187.271228,24.4339254 C186.364386,24.7635934 185.73784,25.0108443 184.830998,25.4394127 C184.699093,25.5053463 184.567189,25.7690806 184.534213,26.032815 C184.501237,26.2965493 184.286892,26.9229184 184.039571,27.4174203 C183.643858,28.274557 183.610882,28.4558744 183.643858,30.5492658 C183.660346,31.7690372 183.759275,33.2195762 183.841715,33.7635283 C184.253916,36.2525213 183.874691,39.9612857 183.000824,42.2524779 C182.819456,42.7469799 182.621599,43.3074154 182.555647,43.4887327 C182.423743,43.9832346 181.335532,45.9612423 181.187139,46.0106925 C180.84089,46.5381612 180.577082,46.8678292 180.329761,47.2799141 C180.065952,47.691999 179.785655,48.021667 179.703215,48.021667 C179.340478,48.5161689 179.192086,48.6810029 179.076669,48.895287 C178.977741,49.0930878 178.746908,49.4886894 178.56554,49.7524237 C178.40066,50.0326415 178.054411,50.6425272 177.790602,51.1205457 C177.543281,51.6150476 177.21352,52.1260329 177.065128,52.2743835 C176.933223,52.4392175 176.619951,52.9666862 176.389118,53.4611881 C176.158285,53.95569 175.828524,54.5161255 175.663644,54.6974429 C175.482275,54.8787603 175.053586,55.406229 174.690849,55.8512807 C173.998351,56.7249008 173.388293,57.4336869 172.943116,57.895222 C172.778236,58.0435726 172.497939,58.4721409 172.300082,58.8677424 C172.102226,59.2468606 171.871393,59.6094953 171.788953,59.6589455 C171.640561,60.1204806 171.409728,60.4831154 171.129431,60.7962999 C170.71723,61.2413516 170.436933,61.3897022 169.793899,61.4721192 C169.150866,61.5545362 168.920033,61.6864034 168.623248,62.0984883 C168.425392,62.3787061 168.276999,62.708374 168.309975,62.8237578 C167.93075,62.9391416 166.859027,64.2578133 166.859027,64.6039647 C166.859027,64.7358319 167.00742,64.9830828 167.188788,65.1644002 C167.518549,65.7578025 167.600989,65.7907693 167.699918,65.7413191 C167.93075,66.0215369 168.029678,66.0709871 168.672712,66.0709871 C169.216818,66.0709871 169.414674,66.0050535 169.414674,65.8237361 C167.914262,65.5435183 167.370157,64.6534149 167.897774,63.9446288 C168.507832,64.5215477 169.002473,64.5215477 169.002473,64.076496 C169.002473,63.6973778 169.233306,63.8127616 170.107172,64.6369315 C171.030503,65.4940681 171.112943,65.6424187 170.783182,65.8402195 C171.492168,66.1039538 171.690025,66.4995554 171.673537,67.2413083 C171.657049,67.6533932 171.723001,68.1643785 171.821929,68.3292125 C172.31657,68.5105299 172.168178,67.3237252 171.937345,67.0270241 C172.547403,66.5819724 173.009068,66.8951569 174.113768,67.9830611 C175.119538,68.972065 176.092333,70.2248032 176.092333,70.5379877 C176.422094,70.8511723 176.652927,71.1808402 176.834295,71.5269916 C177.015664,71.8896263 177.246496,72.252261 177.361913,72.334678 C177.460841,72.4335784 177.88953,73.1753313 178.318219,73.9830178 C178.746908,74.8071876 179.192086,75.5819073 179.307502,75.7137745 C179.422918,75.8456417 179.571311,76.1258594 179.620775,76.3401436 C179.983512,76.7027783 180.049464,76.8016787 180.049464,76.9335459 C180.049464,77.0654131 180.263809,77.6093652 180.544106,78.1533173 C180.807914,78.7137528 181.038747,79.2741883 181.038747,79.4060555 C181.417972,79.884074 182.02803,81.2851628 182.02803,81.6477975 C182.02803,82.0104323 182.489695,83.5928384 182.720528,84.0214067 C182.984336,84.532392 183.281121,87.1202854 183.248145,88.6037912 C183.149217,91.4059687 182.885408,94.7850652 182.720528,95.0982497 C182.621599,95.2630837 182.456719,95.7411022 182.357791,96.1531872 C182.011542,97.5213091 181.714757,98.4938296 181.35202,99.3674496 C181.26958,99.548767 181.137675,99.8784349 181.038747,100.109203 C180.956307,100.33997 180.807914,100.636671 180.725474,100.768538 C180.643034,100.900406 180.428689,101.345457 180.247321,101.757542 C180.049464,102.169627 179.488871,103.125664 178.977741,103.900384 C178.4831,104.65862 178.070899,105.38389 178.070899,105.499273 C178.070899,105.614657 177.856554,105.927842 177.576257,106.20806 C177.312448,106.488277 177.081616,106.784978 177.081616,106.850912 C177.081616,107.048713 174.476505,109.669573 174.278648,109.669573 C174.196208,109.669573 173.915911,109.85089 173.66859,110.081658 C173.42127,110.312425 173.025556,110.67506 172.794724,110.872861 C171.970322,111.631097 170.71723,112.356367 170.338005,112.339883 C169.661995,112.537684 168.985985,112.784935 168.260511,113.015703 C167.535037,113.24647 166.545754,113.625588 166.084089,113.856356 C165.605936,114.087123 165.111294,114.284924 164.995878,114.284924 C164.286892,114.664042 163.924155,114.779426 163.660346,114.779426 C163.413026,114.779426 162.753504,114.89481 162.19291,115.04316 C161.483924,115.224478 160.296785,115.306895 158.054411,115.323378 C154.85573,115.356345 151.162407,115.207994 150.898599,115.04316 C150.816158,114.99371 149.942292,114.84536 148.953009,114.697009 C145.556472,114.202507 143.825227,113.773939 142.588623,113.131086 C142.440231,113.048669 141.533388,112.883835 140.577082,112.768452 C139.620775,112.653068 138.829349,112.504717 138.829349,112.438784 C139.060181,111.960765 138.549052,111.729998 138.087387,111.565164 C137.642209,111.40033 137.147568,111.169562 136.999176,111.037695 C136.488046,110.823411 136.042869,110.62561 135.597692,110.394842 C135.152514,110.147591 134.42704,109.768473 133.965375,109.537706 C133.520198,109.306938 133.107997,109.059687 133.058533,109.010237 C133.009068,108.960787 132.481451,108.664086 131.871393,108.350901 C130.71723,107.773982 129.596043,106.817945 128.623248,105.58169 C128.326463,105.186089 128.01319,104.922355 127.93075,105.004772 C127.84831,105.087188 127.633965,105.58169 127.452597,106.109159 C127.040396,107.328931 127.00742,109.010237 127.403133,109.669573 C127.76587,110.295942 128.903545,110.658577 130.816158,110.773961 C132.679308,110.872861 133.635614,111.169562 134.377576,111.845381 C135.350371,112.751968 135.531739,113.24647 135.531739,114.911293 C135.531739,115.71898 135.465787,116.5926 135.383347,116.856334 C135.300907,117.120069 134.954658,118.224456 134.624897,119.31236 C133.553174,122.856291 133.404782,123.317826 132.563891,125.493634 C131.871393,127.273841 131.079967,130.174919 131.079967,130.916672 C131.079967,131.608975 131.525144,132.861713 131.920857,133.257315 C132.431987,133.158414 132.629843,133.108964 133.437758,133.141931 L134.443528,133.158414 L135.729596,135.696857 C136.438582,137.097946 137.015664,138.119917 137.015664,137.971566 C137.015664,137.839699 136.900247,137.493548 136.768343,137.21333 C136.636439,136.933112 136.405606,136.471577 136.273702,136.191359 C136.141797,135.911141 136.026381,135.597957 136.026381,135.499057 C135.515251,134.757304 135.267931,133.982584 135.482275,134.114451 C135.61418,134.196868 135.943941,134.839721 136.751855,136.521027 C137.015664,135.61444 136.9662,134.971588 136.867271,134.64192 C137.427865,134.114451 137.477329,134.460603 137.477329,135.054005 C137.477329,135.647407 137.559769,136.471577 137.642209,136.900145 C137.72465,137.31223 137.72465,137.757282 137.658697,137.889149 C137.510305,136.916629 137.444353,136.718828 137.328937,136.801245 C137.164056,136.900145 137.180544,137.180363 137.444353,138.713319 C137.88953,137.839699 138.252267,140.444076 138.4831,142.966036 C138.582028,143.922073 138.713932,144.993493 138.796373,145.356128 C139.027205,146.295682 139.175598,153.400026 138.994229,154.669248 C138.779885,156.268137 138.516076,157.405492 138.252267,157.916477 C138.120363,158.163728 138.004946,158.509879 138.004946,158.65823 C137.708162,159.070315 136.422094,161.724142 136.174773,162.498861 C136.075845,162.861496 135.910965,163.339515 135.828524,163.553799 C135.746084,163.768083 135.630668,164.542803 135.581204,165.284555 C135.531739,166.026308 135.432811,166.702128 135.350371,166.784545 C135.284419,166.883445 135.169002,167.34498 135.10305,167.822999 C135.053586,168.284534 134.93817,168.680135 134.85573,168.680135 C134.707337,169.108704 134.014839,170.509792 133.767519,170.79001 C133.42127,171.498796 133.289365,171.647147 133.206925,171.647147 C133.058533,171.927365 132.959604,172.092199 132.860676,172.207582 C132.74526,172.322966 132.399011,172.702084 132.085738,173.048236 C131.706513,173.476804 131.39324,173.691088 131.046991,173.707572 C131.409728,172.833951 131.755977,172.471317 131.871393,172.33945 C132.06925,171.746047 132.135202,171.647147 132.217642,171.647147 C132.530915,170.954844 132.646331,170.707593 132.728772,170.658143 C132.783732,170.625176 132.904644,170.268036 133.091509,169.586722 L132.580379,170.163641 C132.300082,170.476826 132.06925,170.83946 132.06925,170.954844 C131.871393,171.152645 131.607585,171.482313 131.360264,171.894398 C131.096455,172.306483 130.816158,172.636151 130.733718,172.636151 C130.585326,172.932852 130.420445,173.163619 130.222589,173.36142 C129.299258,174.218557 128.392415,175.586679 129.249794,174.828443 C129.991756,174.152623 130.04122,174.13614 130.354493,174.366907 C130.288541,174.614158 129.87634,174.894376 128.52432,175.899863 C128.44188,175.965797 128.145095,176.163598 127.864798,176.328432 C127.600989,176.493266 127.188788,176.822934 126.957955,177.070185 C126.364386,177.696554 124.583677,179.064676 124.369332,179.064676 C123.759275,179.476761 122.984336,179.724012 120.610058,180.333897 C116.768343,181.322901 116.29019,181.504218 116.174773,181.916303 C116.125309,182.114104 115.729596,182.67454 115.284419,183.152558 C114.542457,183.943761 114.42704,184.009695 113.718054,184.009695 C113.305853,184.009695 112.943116,183.927278 112.91014,183.828377 C112.06925,184.289913 111.624073,184.537164 111.360264,184.586614 C110.436933,184.800898 110.305029,184.850348 110.305029,185.048149 C110.305029,185.147049 110.107172,185.410784 109.859852,185.625068 C109.530091,185.905286 109.249794,186.004186 108.870569,185.954736 L108.326463,186.647038 C108.326463,187.240441 108.244023,187.487692 107.963726,187.751426 C107.320692,188.311862 106.57873,188.509662 105.441055,188.427245 C104.501237,188.344828 104.369332,188.377795 104.286892,188.641529 C103.940643,188.954714 103.874691,189.053614 103.874691,189.168998 C103.874691,189.383282 102.901896,190.108552 102.605111,190.108552 C102.324815,190.38877 101.731245,190.471187 100.906843,190.48767 C99.4558945,190.520637 99.2415499,190.43822 97.8895301,189.548116 C97.3619126,189.185482 97.2300082,189.267899 96.9661995,190.125035 C96.8507832,190.454703 96.5375103,190.998655 96.2407255,191.344807 C95.7625721,191.888759 95.6306678,191.954692 94.9381698,191.954692 C94.4435284,191.954692 94.0478153,191.855792 93.8829349,191.690958 C93.6521022,191.443707 93.5531739,191.493157 92.7782358,192.317327 C91.8384171,193.273364 91.1129431,193.701932 89.6125309,194.163468 C88.8046167,194.410719 88.1615829,194.460169 85.9851608,194.410719 C84.1714757,194.394235 83.3140973,194.311818 83.231657,194.179951 C82.7699918,193.88325 82.4402308,193.850283 82.4402308,193.767866 C81.5828524,193.306331 81.3849959,193.339298 80.9727947,193.586549 C80.6760099,193.767866 80.1813685,193.899733 79.8351195,193.88325 C79.7856554,193.405231 79.3734542,193.289848 79.1426216,193.15798 C78.928277,193.570065 78.5160758,193.421715 78.1863149,193.190947 C77.0321517,192.432711 76.5704864,192.33381 75.8450124,192.679962 C75.1525144,193.00963 74.9711459,193.405231 75.5152514,193.405231 C75.8450124,193.619515 76.4550701,193.850283 77.2135202,194.064567 C78.3841715,194.410719 78.8788129,194.460169 80.8408904,194.443685 C82.0939819,194.427202 83.0997527,194.443685 83.0667766,194.493136 C83.0338005,194.526102 82.7040396,194.625003 82.3413026,194.70742 C81.8631492,194.822803 82.3907667,194.85577 84.3363561,194.822803 C86.5292663,194.773353 86.7106348,194.789837 85.4080791,194.888737 C83.4954658,195.037088 82.1929101,195.037088 80.0494641,194.888737 Z M59.9505359,190.685471 C59.7032152,190.553604 59.4229184,190.43822 59.3569662,190.43822 C59.1261336,190.43822 57.3784007,189.383282 57.3784007,189.251415 C57.3784007,189.152515 59.1591096,189.976685 60.4286892,190.652504 C60.8903545,190.899755 64.4352844,191.031622 64.2209398,190.784371 C64.1220115,190.685471 63.4789777,190.53712 62.8194559,190.43822 C61.7312448,190.289869 60.4286892,189.910751 58.1203627,189.070098 C57.6751855,188.905264 57.4278648,188.872297 57.3454246,188.987681 C57.2794724,189.103065 57.0816158,189.037131 56.801319,188.806363 C56.3396538,188.460212 55.8944765,188.344828 55.8944765,188.592079 C55.8944765,188.78988 57.3124485,189.778884 58.3182193,190.306353 C59.2415499,190.767888 59.5713108,190.883272 60.0989283,190.916238 C60.346249,190.932722 60.3132729,190.866788 59.9505359,190.685471 Z M132.530915,172.191099 C133.899423,170.427375 135.037098,168.1197 135.037098,167.081246 C135.037098,166.883445 135.119538,166.537294 135.218467,166.32301 C135.350371,166.026308 135.350371,165.828508 135.218467,165.614223 C135.10305,165.399939 135.053586,165.366972 135.037098,165.531806 C135.037098,165.729607 134.229184,167.476847 133.718054,168.350467 C133.635614,168.482335 133.454246,169.04277 133.305853,169.586722 C132.959604,170.855944 132.217642,172.372416 131.821929,172.669117 C131.723001,172.751534 131.723001,172.800985 131.854905,172.800985 C131.953833,172.800985 132.267106,172.520767 132.530915,172.191099 Z M40,169.075737 C38.8128607,166.751578 37.8235779,164.097751 36.801319,160.652721 C36.5869744,159.910968 36.4550701,159.663717 36.3066777,159.762617 C36.059357,159.910968 36.2077494,161.592274 36.4550701,161.592274 C36.5375103,161.592274 36.6034625,161.757108 36.6034625,161.971393 C36.6034625,162.366994 37.1805441,164.62522 37.4113768,165.136205 C37.493817,165.317522 37.6916735,165.795541 37.856554,166.207626 C38.0214345,166.619711 38.2357791,167.064762 38.3182193,167.19663 C38.4171476,167.328497 38.6809563,167.806515 38.911789,168.235084 C39.1426216,168.680135 39.4888706,169.224087 39.7032152,169.438372 C39.9010717,169.669139 40.0659522,169.91639 40.0659522,169.998807 C40.0659522,170.130674 40.4286892,170.328475 40.5276175,170.246058 C40.5441055,170.229575 40.3132729,169.702106 40,169.075737 Z M137.675185,158.790097 C137.873042,158.641746 138.499588,156.548355 138.499588,156.053853 C138.499588,155.773635 138.56554,155.493417 138.664468,155.394517 C138.911789,155.147266 139.093157,151.125317 138.862325,151.273668 C138.763397,151.339601 138.631492,151.652786 138.582028,151.998937 C138.516076,152.328605 138.367683,153.136292 138.252267,153.762661 C137.708162,156.432971 137.230008,159.663717 137.460841,159.119765 C137.510305,158.987898 137.609233,158.839547 137.675185,158.790097 Z M30.2555647,125.378251 C30.1896125,124.488147 30.0741962,123.466177 29.9752679,123.103542 C29.8928277,122.740907 29.7609233,120.81235 29.6949711,118.817858 C29.5795548,115.521179 29.5136026,115.04316 29.1014015,113.658555 C28.7386645,112.488234 28.5902721,112.191533 28.4748557,112.389334 C28.3924155,112.554167 28.3924155,112.900319 28.4748557,113.279437 C28.573784,113.609105 28.6562242,114.449758 28.6727123,115.158544 C28.7386645,117.532153 29.2662819,122.592556 29.5136026,123.136509 C29.5960429,123.334309 29.7114592,124.174963 29.7774114,124.999132 C29.8433636,125.806819 29.9587799,126.482638 30.0247321,126.482638 C30.1071723,126.482638 30.1731245,126.598022 30.1731245,126.729889 C30.1731245,126.861756 30.2225886,126.97714 30.2720528,126.97714 C30.3215169,126.97714 30.3215169,126.251871 30.2555647,125.378251 Z M123.742786,91.5543193 L123.742786,88.2741232 L122.374279,86.9389681 C121.632317,86.1972152 120.972795,85.6038129 120.923331,85.6038129 C120.873866,85.6038129 120.362737,85.1257943 119.769167,84.5488754 L118.713932,83.4774546 L118.713932,82.3565836 C118.73042,81.1203288 118.977741,80.6752771 120.247321,79.7522068 C120.577082,79.5049559 120.857378,79.2247381 120.857378,79.1423211 C120.857378,79.0599041 120.379225,78.4170516 119.785655,77.724749 C118.829349,76.6038779 118.713932,76.3731104 118.713932,75.7467413 C118.713932,74.9555382 119.15911,74.1478517 120.08244,73.2742317 C120.610058,72.7632464 120.659522,72.746763 120.741962,73.0599475 C120.906843,73.6863166 121.59934,73.5049992 122.258862,72.6478626 C122.885408,71.8072093 122.95136,71.5929252 122.605111,71.5929252 C122.489695,71.5929252 122.176422,71.8896263 121.929101,72.252261 C121.681781,72.6148958 121.368508,72.9115969 121.236603,72.9115969 C120.906843,72.9115969 120.791426,72.4665452 121.055235,72.2028109 C121.5169,71.7412757 122.27535,70.7193051 122.638087,70.092936 C122.967848,69.4830503 122.984336,69.4006333 122.753504,68.9555816 C122.621599,68.6918472 122.423743,68.4281129 122.324815,68.3786627 C122.242374,68.3127291 121.929101,67.9665777 121.665293,67.603943 C121.26958,67.0435075 121.187139,66.7632897 121.187139,65.9556033 C121.187139,64.9665994 121.335532,64.6863817 122.341303,63.9446288 C122.489695,63.8457284 122.819456,63.4830937 123.083265,63.1369423 C123.46249,62.625957 123.594394,62.2138721 123.742786,60.9941007 C123.858203,60.1534474 124.023083,59.180927 124.1385,58.8018088 C124.336356,58.060056 125.14427,57.1040189 125.886232,56.7084174 C126.446826,56.4281996 130.783182,55.9336977 132.811212,55.9336977 C134.17972,55.9336977 137.592745,55.6534799 137.988458,55.5216128 C138.153339,55.4556792 138.169827,55.3897456 138.004946,55.1919448 C137.757626,54.8952437 136.488046,54.4501919 133.882935,53.7908561 C133.470734,53.6919557 132.811212,53.4447047 132.399011,53.2633873 C130.140148,52.2743835 129.909316,52.0930661 129.398186,50.9886785 C127.963726,47.93925 128.029678,48.021667 127.271228,48.021667 C126.430338,48.021667 124.616653,47.5930987 123.693322,47.1645303 C123.297609,46.983213 122.720528,46.5051944 122.374279,46.0766261 C121.813685,45.36784 120.643034,44.164552 119.389942,43.0271976 C118.664468,42.3513783 118.169827,41.1810571 118.268755,40.3239204 C118.334707,39.6481012 118.318219,39.6151344 117.88953,39.6151344 C117.642209,39.6151344 117.13108,39.516234 116.768343,39.3843668 C116.389118,39.2524996 115.663644,39.1206324 115.136026,39.104149 C114.196208,39.0546989 114.163232,39.0711822 113.338829,39.8788687 C111.211871,41.92281 110.585326,42.1370942 109.084913,41.3458911 C108.309975,40.9338061 107.699918,40.9173227 107.221764,41.2964409 C107.106348,41.3788579 106.892003,41.4118247 106.727123,41.3623745 C106.562242,41.3129243 106.298434,41.3788579 106.133553,41.4942417 C105.886232,41.6920424 105.853256,41.9887436 105.886232,44.0162014 C105.902721,46.2084933 105.886232,46.3568439 105.507007,46.8843126 C104.830998,47.8403496 103.874691,48.5491357 102.011542,49.4886894 C101.401484,49.8018739 100.741962,50.2304422 100.560594,50.4612098 C100.379225,50.6919774 99.8680956,51.1205457 99.4064303,51.4337302 C98.6974444,51.8952654 98.4171476,51.9776823 97.5762572,51.9776823 C96.2407255,51.9776823 95.366859,51.4996638 94.9711459,50.5436268 C94.8392415,50.2139588 94.6908491,50.1645086 93.9488871,50.1645086 C93.3718054,50.1645086 92.844188,50.0491249 92.4319868,49.8183573 C92.0857378,49.6370399 91.788953,49.5051728 91.7559769,49.5381395 C91.7230008,49.5711063 91.5086562,50.0656083 91.2613355,50.6590106 C91.0140148,51.2524129 90.7502061,51.796365 90.6677659,51.878782 C90.5853256,51.9776823 90.5193735,52.1754831 90.5193735,52.3403171 C90.5193735,52.4886677 90.4204452,52.8677858 90.2885408,53.164487 C90.1566364,53.4611881 89.9258038,54.1534908 89.7774114,54.6974429 C89.0189613,57.3018197 87.9142622,59.7743293 87.2052762,60.384215 C87.155812,60.4336652 87.0568838,60.5820157 86.9909316,60.7138829 C86.8755153,60.9776173 86.7436109,61.2083848 86.0511129,62.2798057 C84.6826051,64.4556141 84.3198681,66.318238 84.8309975,68.5764634 C85.2102226,70.3072202 86.0016488,72.417095 86.3808739,72.746763 C86.430338,72.7962132 86.6281946,73.1258811 86.8095631,73.4885158 C87.1887881,74.2632355 87.7493817,75.1203722 87.9307502,75.1863058 C87.9967024,75.2192726 88.0461665,75.3181729 88.0461665,75.4005899 C88.0461665,75.5819073 88.7386645,76.5873945 88.920033,76.6698115 C88.9859852,76.7027783 89.0354493,76.8346455 89.0354493,76.9665127 C89.0354493,77.0983799 89.1014015,77.1972802 89.1838417,77.1972802 C89.2662819,77.1972802 89.4971146,77.4610146 89.6949711,77.7741991 C89.8928277,78.1038671 90.1401484,78.4500184 90.2555647,78.5654022 C90.354493,78.6643026 90.700742,79.0928709 90.9975268,79.5049559 C91.8219291,80.5763767 97.6092333,86.4114993 98.1368508,86.6917171 C98.3841715,86.8235843 98.8788129,86.9224847 99.2415499,86.9224847 C99.9010717,86.9224847 101.747733,86.5433665 102.440231,86.2796322 C102.885408,86.0983148 105.688376,85.2576615 107.1723,84.86206 C107.76587,84.7137094 108.474856,84.5159086 108.738664,84.4170083 C109.645507,84.1367905 112.530915,83.6258052 113.206925,83.6258052 C114.377576,83.6258052 116.735367,84.5159086 116.735367,84.9609604 C116.735367,85.0433774 116.850783,85.109311 116.982688,85.109311 C117.114592,85.109311 117.230008,85.1587611 117.230008,85.2411781 C117.230008,85.3071117 117.411377,85.5543627 117.625721,85.7851302 C118.466612,86.6917171 119.208574,88.9499425 119.208574,90.5982823 C119.208574,91.0763008 119.373454,91.6697031 119.719703,92.329039 C120.131904,93.1696922 120.362737,93.4169432 121.121187,93.8455115 C121.846661,94.2740799 122.572135,94.5378142 123.660346,94.818032 C123.70981,94.818032 123.742786,93.3510096 123.742786,91.5543193 Z M100.692498,30.4338821 C101.582852,29.6591624 102.341303,28.9503763 102.357791,28.8679593 C102.390767,28.8020257 102.489695,28.7360921 102.555647,28.7360921 C102.638087,28.7360921 102.918384,28.5382914 103.182193,28.2910404 C103.577906,27.9119223 103.693322,27.6481879 103.775763,26.8405014 C103.990107,24.9943609 104.22094,24.6976598 106.133553,24.0877741 C106.743611,23.8899733 107.287716,23.708656 107.320692,23.6756892 C107.353669,23.6592058 107.370157,23.1976706 107.353669,22.6537185 C107.304204,21.1866962 107.881286,19.9998916 108.887057,19.521873 C109.299258,19.3075889 109.678483,19.0933047 109.711459,19.0273711 C109.760923,18.9614375 110.222589,18.7636368 110.750206,18.5823194 C111.277824,18.4174854 111.805441,18.1372677 111.920857,17.9724337 C112.31657,17.4614484 112.844188,17.0163966 113.454246,16.7032121 C113.948887,16.4394777 114.377576,16.3900275 115.927453,16.4229943 C117.675185,16.4559611 117.922506,16.4229943 119.455894,15.8955256 C121.038747,15.3515735 121.187139,15.3186067 123.347073,15.3515735 L125.605936,15.3845403 L125.869744,14.7252044 C126.018137,14.3625697 126.133553,13.9340013 126.133553,13.7691674 C126.133553,13.6043334 126.248969,13.3241156 126.380874,13.1427983 C126.512778,12.9779643 126.628195,12.6977465 126.628195,12.5329126 C126.628195,12.384562 126.694147,12.1208276 126.776587,11.9559937 C127.238252,11.1153404 128.112119,9.07139914 128.112119,8.85711497 C128.112119,8.72524779 128.194559,8.44503004 128.293487,8.26371267 C128.392415,8.0659119 128.573784,7.4560262 128.6892,6.91207409 C128.804617,6.35163858 128.953009,5.70878608 129.018961,5.44505173 L129.134378,5 L118.829349,5 L108.52432,5 L108.408904,5.52746871 C108.309975,6.10438762 107.914262,7.57140998 107.633965,8.37909645 C107.551525,8.6593142 107.419621,9.10436593 107.337181,9.36810029 C107.073372,10.3076539 106.150041,12.8625805 105.605936,14.1482855 C105.490519,14.4285033 105.259687,14.9724554 105.111294,15.3845403 C104.962902,15.7966252 104.732069,16.3570607 104.616653,16.6207951 C104.501237,16.9010129 104.286892,17.4284816 104.1385,17.8240831 C103.495466,19.4889062 103.330585,19.9504414 103.116241,20.4119765 C103.000824,20.6921942 102.852432,21.1042792 102.802968,21.3680135 C102.737016,21.6152645 102.621599,21.8625155 102.539159,21.9119656 C102.456719,21.9614158 102.390767,22.1427332 102.390767,22.340534 C102.390767,22.5218513 102.291838,22.8680027 102.159934,23.0987703 C101.912613,23.5932722 101.615829,24.4339254 101.401484,25.1921617 C101.236603,25.8020474 100.923331,26.6591841 100.626546,27.3679702 C100.511129,27.6481879 100.412201,27.9613725 100.412201,28.0602728 C100.412201,28.1591732 100.313273,28.4723578 100.181369,28.7690589 C100.049464,29.0657601 99.8186315,29.642679 99.6702391,30.0547639 C99.5218467,30.4668489 99.291014,31.0437678 99.1591096,31.3404689 C99.0436933,31.6206867 98.9612531,31.8679376 99.0107172,31.8679376 C99.0601814,31.8679376 99.8186315,31.2250851 100.692498,30.4338821 Z" transform="matrix(1 0 0 -1 0 200)"/>
  </g>
</svg>
