<svg xmlns="http://www.w3.org/2000/svg" width="200" height="200" viewBox="0 0 200 200">
  <g fill="none" fill-rule="evenodd">
    <path fill="#fff" fill-rule="nonzero" d="M411.481898,-143.199902 C411.781898,-143.599902 411.981898,-143.999902 412.281898,-144.399902 C412.881898,-145.199902 412.581898,-146.599902 411.581898,-146.899902 C407.381898,-148.099902 403.081898,-149.099902 398.781898,-149.699902 C402.481898,-150.199902 406.181898,-150.699902 409.881898,-151.399902 C411.481898,-151.699902 411.681898,-153.899902 410.181898,-154.599902 C408.181898,-155.499902 406.081898,-155.599902 403.981898,-155.199902 C402.281898,-155.099902 400.481898,-154.999902 398.781898,-154.799902 C398.981898,-155.599902 399.281898,-156.399902 399.681898,-157.099902 C402.281898,-157.599902 404.781898,-158.199902 407.381898,-158.699902 C409.481898,-159.099902 410.581898,-160.899902 409.281898,-162.699902 C408.981898,-163.199902 408.381898,-163.299902 407.781898,-163.199902 C402.481898,-162.599902 396.981898,-162.399902 391.681898,-162.499902 C387.281898,-165.399902 381.681898,-166.999902 376.181898,-167.599902 C375.781898,-167.899902 375.281898,-168.099902 374.881898,-168.399902 C369.881898,-171.599902 364.781898,-174.699902 360.181898,-178.499902 C353.781898,-183.799902 349.881898,-191.399902 343.481898,-196.299902 C343.181898,-196.799902 342.881898,-197.299902 342.581898,-197.799902 C342.181898,-198.399902 341.781898,-198.999902 341.281898,-199.599902 C340.881898,-208.099902 335.381898,-215.999902 328.381898,-220.399902 C321.581898,-224.699902 313.381898,-224.999902 306.081898,-222.399902 C304.581898,-223.899902 302.981898,-225.099902 301.181898,-225.999902 C301.081898,-226.299902 300.881898,-226.499902 300.581898,-226.699902 C298.481898,-227.899902 296.081898,-228.699902 293.981898,-229.899902 C291.781898,-231.099902 289.781898,-232.599902 287.781898,-234.099902 C283.681898,-237.099902 279.781898,-240.199902 275.381898,-242.699902 C268.281898,-246.699902 258.081898,-249.099902 250.081898,-245.999902 C249.781898,-246.299902 249.481898,-246.599902 249.181898,-246.899902 C250.181898,-247.099902 251.181898,-247.299902 252.281898,-247.599902 C253.181898,-247.799902 253.581898,-248.699902 253.381898,-249.599902 C253.281898,-250.299902 253.181898,-250.899902 253.081898,-251.499902 C256.181898,-261.499902 256.681898,-272.999902 254.081898,-283.199902 C251.281898,-293.899902 241.381898,-297.299902 231.581898,-299.399902 C222.081898,-301.499902 210.481898,-301.999902 201.381898,-297.999902 C192.681898,-294.199902 187.681898,-285.599902 185.181898,-276.799902 C185.081898,-276.699902 184.981898,-276.599902 184.881898,-276.499902 C184.381898,-275.999902 184.481898,-274.999902 185.081898,-274.699902 C187.181898,-273.399902 189.381898,-272.199902 191.681898,-270.999902 C191.581898,-270.199902 191.481898,-269.499902 191.281898,-268.699902 C190.781898,-266.299902 189.281898,-263.999902 189.281898,-261.599902 C189.281898,-260.299902 190.581898,-259.099902 191.381898,-258.199902 C191.881898,-257.699902 192.281898,-257.199902 192.781898,-256.599902 C191.781898,-254.399902 190.481898,-252.399902 189.181898,-250.399902 C187.981898,-248.599902 187.381898,-246.499902 188.681898,-244.599902 C188.881898,-244.299902 189.281898,-243.999902 189.681898,-244.199902 C190.781898,-244.599902 191.781898,-244.899902 192.881898,-245.099902 C192.981898,-244.099902 192.981898,-243.099902 192.881898,-241.999902 C192.781898,-241.199902 192.681898,-239.899902 193.381898,-239.299902 C194.281898,-238.499902 195.081898,-238.499902 196.181898,-238.599902 C197.381898,-238.799902 198.281898,-238.899902 199.281898,-238.799902 C199.181898,-238.599902 198.981898,-238.399902 198.881898,-238.199902 C198.081898,-237.099902 197.181898,-236.399902 196.681898,-235.199902 C195.781898,-233.199902 197.981898,-231.599902 199.281898,-230.299902 C198.881898,-228.799902 198.481898,-227.299902 199.081898,-225.699902 C199.781898,-223.799902 201.981898,-223.299902 203.781898,-223.099902 C206.781898,-222.799902 210.281898,-223.599902 213.181898,-224.299902 C213.481898,-224.399902 213.681898,-224.399902 213.981898,-224.499902 C215.581898,-223.099902 217.381898,-221.799902 218.781898,-220.499902 C220.281898,-219.199902 221.681898,-217.899902 223.081898,-216.599902 C221.281898,-213.199902 219.781898,-209.699902 218.381898,-206.099902 C217.181898,-202.799902 216.081898,-199.499902 215.281898,-196.099902 C214.581898,-193.399902 213.681898,-190.299902 213.581898,-187.399902 C212.381898,-186.499902 211.281898,-185.699902 210.081898,-184.899902 C208.481898,-183.799902 208.481898,-183.299902 208.181898,-181.299902 C207.281898,-175.599902 205.781898,-170.099902 203.881898,-164.799902 C200.681898,-163.299902 197.581898,-161.499902 194.781898,-159.299902 C190.281898,-155.799902 185.981898,-151.799902 185.081898,-146.099902 C184.681898,-143.499902 181.981898,-142.699902 180.681898,-140.699902 C180.181898,-139.899902 179.881898,-139.099902 179.881898,-138.299902 C177.581898,-136.499902 175.381898,-134.599902 173.181898,-132.699902 C170.681898,-130.499902 168.081898,-128.299902 165.581898,-126.199902 C163.281898,-124.199902 160.581898,-122.399902 158.381898,-120.299902 C156.381898,-119.399902 154.481898,-118.299902 152.681898,-117.099902 C147.481898,-113.499902 142.281898,-110.099902 136.581898,-107.299902 C133.681898,-105.899902 130.681898,-104.799902 127.781898,-103.599902 C126.481898,-103.099902 124.581898,-101.799902 125.081898,-100.099902 C126.081898,-96.4999017 131.581898,-97.5999017 134.481898,-99.2999017 C137.881898,-98.5999017 141.681898,-99.1999017 145.281898,-100.299902 C144.981898,-99.8999017 144.781898,-99.4999017 144.581898,-99.0999017 C143.681898,-96.8999017 144.581898,-94.8999017 146.781898,-93.9999017 C147.381898,-93.7999017 148.081898,-93.9999017 148.481898,-94.4999017 C149.781898,-95.8999017 151.281898,-97.0999017 152.681898,-98.3999017 C155.981898,-99.6999017 159.181898,-101.399902 162.381898,-102.999902 C165.681898,-104.699902 168.781898,-107.199902 170.281898,-110.499902 C175.081898,-112.699902 179.681898,-115.399902 184.181898,-118.099902 C187.081898,-119.799902 189.981898,-121.499902 192.881898,-123.199902 C192.981898,-123.099902 192.981898,-123.099902 193.081898,-122.999902 C193.481898,-122.699902 194.081898,-122.799902 194.481898,-122.999902 C200.081898,-126.099902 205.581898,-129.399902 211.081898,-132.699902 C216.881898,-132.899902 222.781898,-133.099902 228.481898,-133.899902 C231.981898,-134.399902 233.181898,-138.199902 234.381898,-140.999902 C236.281898,-145.099902 238.381898,-149.099902 240.581898,-153.099902 C242.781898,-157.199902 245.181898,-161.199902 247.681898,-164.999902 C249.281898,-164.299902 250.881898,-163.499902 252.481898,-162.599902 C257.781898,-159.699902 261.781898,-155.399902 266.081898,-151.199902 C269.981898,-147.299902 273.981898,-144.399902 278.881898,-141.799902 C282.581898,-139.799902 284.481898,-135.899902 286.281898,-131.999902 C285.781898,-130.599902 284.881898,-129.299902 283.481898,-129.199902 C282.481898,-129.099902 281.481898,-128.199902 281.881898,-127.099902 C282.381898,-125.599902 282.781898,-123.899902 283.381898,-122.299902 C276.481898,-117.699902 270.281898,-111.899902 265.181898,-105.399902 C263.681898,-105.199902 262.181898,-104.899902 260.681898,-104.499902 C259.181898,-104.099902 257.781898,-103.599902 257.281898,-101.899902 C256.781898,-99.8999017 256.781898,-97.3999017 256.881898,-95.0999017 C255.081898,-94.4999017 253.381898,-93.7999017 251.581898,-93.1999017 C247.481898,-91.6999017 244.381898,-90.2999017 241.581898,-86.8999017 C236.081898,-80.2999017 229.481898,-74.5999017 224.181898,-67.7999017 C221.981898,-64.9999017 221.181898,-62.3999017 222.181898,-58.8999017 C223.281898,-54.9999017 225.281898,-51.1999017 227.281898,-47.7999017 C228.981898,-44.7999017 230.981898,-41.6999017 233.281898,-38.8999017 C237.381898,-27.3999017 242.181898,-16.0999017 247.481898,-5.09990173 C246.481898,-3.99990173 245.481898,-3.09990173 244.281898,-2.29990173 C243.181898,-1.59990173 242.881898,-0.0999017304 243.881898,0.90009827 C247.281898,4.30009827 251.581898,7.50009827 256.281898,9.70009827 C257.381898,13.6000983 258.781898,17.5000983 259.781898,21.4000983 C260.681898,24.7000983 261.381898,28.0000983 261.981898,31.3000983 C259.481898,37.6000983 253.481898,42.6000983 247.381898,45.9000983 C242.581898,48.5000983 237.481898,50.2000983 232.481898,52.4000983 C230.981898,53.1000983 227.781898,53.7000983 227.581898,55.7000983 C227.381898,58.3000983 227.681898,60.6000983 228.681898,63.0000983 C228.881898,63.5000983 229.281898,63.8000983 229.781898,64.0000983 C229.781898,64.1000983 229.781898,64.2000983 229.781898,64.3000983 C229.681898,65.1000983 229.981898,65.8000983 230.781898,66.0000983 C232.281898,66.5000983 233.681898,66.8000983 235.181898,67.1000983 C234.681898,68.5000983 233.881898,69.8000983 232.981898,71.0000983 C229.481898,70.2000983 225.781898,70.9000983 223.281898,74.2000983 C219.181898,79.4000983 221.581898,86.3000983 226.481898,89.9000983 C231.781898,93.8000983 240.481898,92.9000983 244.581898,87.7000983 C245.281898,86.8000983 245.781898,85.9000983 246.181898,84.8000983 C248.081898,87.7000983 251.181898,89.7000983 254.881898,90.0000983 C260.181898,90.4000983 265.581898,85.7000983 266.181898,80.6000983 C266.281898,79.8000983 266.281898,79.0000983 266.181898,78.2000983 C266.981898,77.8000983 267.881898,77.3000983 268.581898,76.8000983 C268.781898,79.1000983 269.681898,81.5000983 271.281898,83.5000983 C273.181898,85.8000983 275.781898,87.1000983 278.381898,87.4000983 C279.181898,90.9000983 281.581898,94.1000983 284.381898,95.9000983 C290.181898,99.6000983 297.381898,96.6000983 299.581898,90.6000983 C300.681898,90.5000983 301.781898,90.3000983 302.881898,90.2000983 C304.581898,94.3000983 308.781898,97.2000983 313.181898,97.4000983 C318.681898,97.7000983 322.681898,93.4000983 323.481898,88.4000983 C323.481898,88.4000983 323.581898,88.4000983 323.581898,88.4000983 C324.981898,92.7000983 328.781898,95.9000983 333.281898,97.0000983 C338.481898,98.3000983 344.281898,95.8000983 345.581898,90.7000983 C347.481898,94.2000983 351.281898,96.6000983 355.381898,97.1000983 C361.581898,97.9000983 366.781898,92.9000983 366.881898,86.9000983 C366.981898,81.7000983 362.381898,76.4000983 357.381898,74.9000983 C356.581898,73.1000983 355.881898,71.3000983 355.281898,69.5000983 C355.381898,69.5000983 355.481898,69.5000983 355.581898,69.5000983 C356.281898,69.5000983 356.781898,69.2000983 357.081898,68.8000983 C357.681898,68.7000983 358.081898,68.2000983 358.081898,67.5000983 C357.381898,59.5000983 354.281898,51.6000983 349.281898,45.2000983 C347.781898,39.9000983 345.581898,34.7000983 343.481898,29.8000983 C341.781898,25.8000983 339.881898,21.8000983 337.881898,17.8000983 C339.881898,17.5000983 341.881898,17.2000983 343.981898,17.0000983 C345.581898,16.9000983 346.381898,15.2000983 345.281898,13.9000983 C335.381898,2.50009827 330.881898,-12.1999017 323.181898,-24.9999017 C324.181898,-25.0999017 325.181898,-25.0999017 326.181898,-24.9999017 C327.181898,-24.8999017 327.981898,-26.0999017 327.681898,-26.9999017 C326.681898,-30.0999017 325.481898,-33.0999017 324.081898,-35.8999017 C325.081898,-36.7999017 325.981898,-37.7999017 326.781898,-38.7999017 C327.181898,-39.2999017 327.381898,-39.9999017 326.981898,-40.5999017 C326.081898,-41.8999017 325.381898,-43.1999017 324.681898,-44.5999017 C328.081898,-58.7999017 339.181898,-69.9999017 343.881898,-83.5999017 C349.381898,-90.2999017 354.881898,-97.0999017 359.181898,-104.699902 C364.181898,-113.799902 367.281898,-125.399902 363.181898,-135.399902 C363.081898,-135.499902 363.081898,-135.599902 362.981898,-135.699902 C362.981898,-135.999902 362.881898,-136.299902 362.681898,-136.699902 C359.681898,-141.599902 356.881898,-147.099902 353.281898,-151.599902 C351.581898,-153.699902 349.581898,-155.499902 347.181898,-156.799902 C345.081898,-157.899902 342.881898,-158.499902 340.781898,-159.599902 C338.981898,-163.699902 336.481898,-167.699902 333.981898,-171.499902 C333.981898,-171.499902 333.981898,-171.599902 333.981898,-171.599902 C334.181898,-171.499902 334.381898,-171.399902 334.581898,-171.299902 C339.181898,-169.299902 343.781898,-167.299902 348.081898,-164.599902 C350.081898,-163.299902 351.881898,-161.899902 353.581898,-160.299902 C353.581898,-158.099902 354.181898,-156.099902 355.681898,-154.799902 C357.281898,-153.499902 359.081898,-153.099902 360.781898,-153.399902 C362.881898,-152.299902 364.781898,-151.199902 366.281898,-149.599902 C368.681898,-146.999902 369.481898,-143.099902 371.481898,-140.199902 C375.681898,-133.899902 385.081898,-134.999902 390.481898,-130.499902 C390.981898,-130.099902 391.681898,-130.199902 392.081898,-130.499902 C395.381898,-133.199902 394.681898,-136.399902 392.281898,-139.099902 C394.281898,-138.399902 396.381898,-137.599902 398.381898,-136.899902 C401.181898,-135.999902 403.981898,-134.999902 406.781898,-134.099902 C408.381898,-133.599902 409.381898,-133.199902 410.781898,-134.099902 C411.181898,-134.399902 411.381898,-134.999902 411.281898,-135.499902 C410.681898,-138.799902 404.281898,-141.399902 401.681898,-142.799902 C401.281898,-142.999902 400.881898,-143.199902 400.481898,-143.399902 C403.581898,-142.999902 406.581898,-142.699902 409.681898,-142.299902 C410.581898,-142.499902 411.181898,-142.799902 411.481898,-143.199902 Z M268.381898,65.2000983 C264.681898,64.9000983 253.981898,68.2000983 253.981898,68.2000983 L255.481898,63.7000983 L275.581898,59.5000983 C275.581898,59.5000983 274.381898,62.2000983 275.981898,62.5000983 C277.581898,62.8000983 280.281898,63.8000983 280.281898,63.8000983 C280.281898,63.8000983 272.081898,65.5000983 268.381898,65.2000983 Z M314.581898,47.9000983 L304.581898,50.6000983 C304.581898,50.6000983 304.881898,43.0000983 298.781898,35.9000983 C292.681898,28.8000983 294.881898,21.8000983 293.581898,19.6000983 C292.281898,17.4000983 288.981898,15.7000983 288.481898,12.5000983 C288.081898,9.20009827 287.781898,2.50009827 291.181898,2.70009827 C291.181898,2.70009827 297.881898,9.40009827 299.681898,13.1000983 C301.481898,16.8000983 302.981898,32.0000983 302.981898,32.0000983 C302.981898,32.0000983 308.481898,30.5000983 309.981898,31.4000983 C311.481898,32.3000983 313.681898,38.7000983 314.581898,41.2000983 C315.481898,43.7000983 314.581898,47.9000983 314.581898,47.9000983 Z M331.981898,71.9000983 L329.581898,75.9000983 L323.181898,76.3000983 L320.081898,75.1000983 C319.981898,74.4000983 318.581898,72.4000983 318.581898,72.4000983 L331.981898,71.9000983 Z"/>
    <path fill="#fff" d="M120.559115,102.14537 C120.559115,102.14537 120.630005,102.205302 120.756862,102.306844 C120.933777,103.387473 121.340464,104.444192 121.95578,105.327017 C121.411665,104.864644 120.860088,104.367803 120.357326,103.835872 C120.354528,103.264816 120.415158,102.698727 120.559115,102.14537 M140.465321,15.7223365 C142.450562,14.3703075 144.513534,14.2054183 146.704918,15.1295429 C146.883077,15.2046901 147.046933,15.2897741 147.20426,15.3798266 C145.59026,15.7682943 144.035335,16.410772 142.713603,17.0874075 C142.679401,17.104797 142.649864,17.1249811 142.622502,17.1470285 C141.972052,17.2386335 141.32782,17.4168753 140.644412,17.7637325 C139.629871,18.2788947 138.543818,18.1590318 137.449681,18.0385478 C138.428466,17.2125494 139.442074,16.4191562 140.465321,15.7223365 M148.407842,16.4343719 C148.620513,16.7197451 148.794008,17.0299603 148.927083,17.3628438 C147.751484,17.1889494 146.572776,17.0610128 145.375723,17.0597707 C146.369743,16.7473819 147.383351,16.5213191 148.407842,16.4343719 M81.8678912,14.6348754 C82.1716627,13.1421783 82.5223836,11.7578546 83.4710088,10.4598571 C84.6559353,8.83922338 86.4132705,7.30740001 88.3985121,6.87390611 C89.9173696,6.54195411 91.5531341,6.52114889 93.1002856,6.437928 C95.0472837,6.33359135 96.8428624,6.81770095 98.7497515,7.11860037 C99.9657702,7.31019474 101.230293,7.48408914 102.495438,7.54402061 C95.6122302,8.83456549 88.3807895,11.4510552 81.8678912,14.6348754 M50.9270381,78.9584149 C50.3900746,78.458779 49.8807832,77.9324379 49.3205004,77.4545388 C47.3815863,75.7994368 46.7037748,73.8505773 45.8437625,71.5523765 C45.5331507,70.7217202 45.3232779,69.8575271 45.1768333,68.9784288 C45.4694116,67.7813522 45.8111156,66.6215386 46.1699205,65.5356302 C46.453482,64.6773371 46.8340514,63.8553755 47.2802255,63.0622928 C47.4605607,65.3937199 47.9676757,67.3314004 49.0120651,68.5958611 C51.559144,71.6787605 51.4428589,72.3119224 51.4428589,72.3119224 C51.4428589,72.3119224 51.2261458,73.4794991 48.4803872,73.2649258 C48.4803872,73.2649258 47.2528643,72.976758 47.4630481,73.7505881 C47.6732318,74.5244182 48.1408596,74.4179078 48.6451763,74.2862449 C49.1494929,74.1548926 50.5243932,73.9906244 51.3498931,73.8536826 C51.3498931,73.8536826 51.9527722,73.708046 51.7341935,75.0749803 C51.5976985,75.9286155 51.3094731,77.5377597 50.9270381,78.9584149 M50.3449908,80.7054326 C49.3873488,80.1595284 48.5450592,79.4285508 47.6800721,78.7466364 C46.3095248,77.6663174 45.174035,76.4791776 44.2764011,75.0697013 C44.3078043,74.1145242 44.4082323,73.145684 44.5500131,72.1790174 C45.1908248,74.0887506 45.9818122,75.9711575 47.3996198,77.4411862 C48.3187074,78.3941897 49.4100462,79.340051 50.5760064,80.1092232 C50.501074,80.3231754 50.4242761,80.5240856 50.3449908,80.7054326 M48.710781,83.4222221 C47.5581904,82.3505978 46.256357,81.4407575 45.1802534,80.2191493 C45.0263467,80.0446339 44.8693307,79.8747763 44.7107601,79.7064714 C44.6047355,79.2375775 44.5161225,78.7668205 44.4452321,78.2982372 C44.3920643,77.9470326 44.3553754,77.588686 44.3261487,77.2275445 C45.60031,78.567463 47.1589656,79.6232505 48.662277,80.7215799 C48.8699734,80.8731165 49.3487944,81.2103474 49.9003713,81.5342257 C49.611835,82.0108827 49.18556,82.6806867 48.710781,83.4222221 M47.4879219,85.3328869 C47.0439242,84.8627509 46.6487415,84.3519361 46.4164822,83.988621 C46.1080468,83.5066851 45.8437625,82.9958703 45.6111923,82.4701503 C45.6892339,82.5353607 45.7657209,82.6024342 45.845939,82.6648499 C46.5719435,83.2275225 47.3806536,83.7429952 48.1455235,84.3041151 C47.9275666,84.6444513 47.7058787,84.9900665 47.4879219,85.3328869 M46.5909098,86.7575789 C45.9886525,86.0719381 45.5051677,85.5111286 45.4246387,85.4036867 C44.6041136,84.3053573 44.0323267,83.1281542 43.5392033,81.857483 C43.258751,81.1345791 42.9652399,80.4219226 42.6707961,79.7092661 C43.0743738,80.0210339 43.4456156,80.3678911 43.805975,80.7271694 C44.1713092,81.9285934 44.6955249,83.0862333 45.3192359,84.1584786 C45.7616789,84.9192666 46.3670455,85.5086444 47.0112774,86.0843591 C46.8654546,86.3160113 46.7258503,86.5395898 46.5909098,86.7575789 M41.4233742,76.4065145 C39.9486677,71.5765975 40.031684,65.9461452 40.6724958,61.0854861 C41.1059221,57.7973293 42.0287407,54.7367878 43.226726,51.7656777 C43.0805923,53.1714276 42.9857608,54.5864933 42.8125769,55.9313802 C42.7497705,56.4204582 42.7046867,56.9113994 42.6686197,57.4032721 C42.2190254,58.2926178 41.8536912,59.2043213 41.6279613,60.1076406 C40.4253122,64.917684 40.3059179,70.9971565 42.8893748,75.355385 C42.9922902,75.5286583 43.101735,75.6960317 43.2139781,75.8606103 C43.2015412,76.6732561 43.2270369,77.486523 43.310986,78.301653 C42.6686197,77.6793595 42.0271861,77.0632764 41.4233742,76.4065145 M37.3593032,65.1462309 C37.0051622,61.8431689 37.0567754,58.4783122 37.7610154,55.2255553 C38.4338522,52.1181244 39.6750557,49.1789985 41.138258,46.3684302 C42.196328,44.3354183 43.3144062,42.3011643 44.6631889,40.4408047 C44.9840612,40.1228264 45.2480346,39.7607534 45.4809157,39.3750805 C45.5751253,39.2586333 45.6656038,39.139702 45.7619898,39.025118 C46.4677844,38.1888722 47.2565954,37.4488894 48.0942212,36.766975 C46.9382105,38.7611711 45.8260399,40.7777251 44.815852,42.8566948 C41.7492212,49.1687511 39.2475369,55.3196446 38.7021785,62.3915573 C38.4565495,65.5775511 38.6148092,68.7706871 39.0553867,71.9312179 C39.1247225,72.4289906 39.2086716,72.9239686 39.2982173,73.4177045 C38.0305854,70.8980988 37.6546798,67.899973 37.3593032,65.1462309 M47.4683338,45.4387162 C47.5824424,46.9568764 47.8038194,48.6014206 48.0621962,50.4922117 C47.1589656,51.2756681 46.3294238,52.149177 45.5570918,53.0823067 C45.9870979,50.4760644 46.5613722,47.9247851 47.4683338,45.4387162 M43.3517169,73.3524941 L43.3380363,73.3248573 C42.4267218,71.262035 42.5663261,68.4980455 42.7087287,66.2877235 C42.7566108,65.5468091 42.8299886,64.8083789 42.9335258,64.0758488 C43.1813312,65.8933558 43.3921368,67.6711155 43.7804793,69.4376964 C43.697463,70.0345268 43.6275053,70.6242151 43.5665645,71.1924772 C43.4891447,71.9125863 43.4142124,72.6320744 43.3517169,73.3524941 M47.2052931,60.1765773 C46.4441543,61.3578172 45.7728721,62.5735253 45.2234717,63.7942019 C45.0804472,64.1118698 44.9529689,64.4425796 44.8329527,64.7804316 L44.8307763,64.7130475 C44.7633061,62.490615 44.7026761,60.3607191 44.8820785,58.1702707 C45.6450829,56.7887417 46.5473807,55.5013021 47.5889718,54.3511148 C47.3874939,56.3707741 47.2354526,58.3447861 47.2052931,60.1765773 M55.0309072,20.5618798 C55.5852824,18.9837881 57.4343398,18.8993251 59.0368356,19.0204301 C57.2683071,19.9787125 55.7006347,21.4058887 54.4043979,23.1100538 C54.5066915,22.1918293 54.7843455,21.2633574 55.0309072,20.5618798 M151.652631,16.689003 C151.300356,16.8250133 150.962072,16.9759288 150.649905,17.1578969 C150.556939,16.9141342 150.445318,16.6787557 150.323126,16.4486561 C150.76588,16.4955455 151.209255,16.5725559 151.652631,16.689003 M153.88288,18.3083946 C153.027842,18.0487951 152.146066,17.8932218 151.223247,17.7379589 C151.741244,17.4923331 152.315518,17.3187492 152.935498,17.1818073 C153.40095,17.4724594 153.694772,17.8599955 153.88288,18.3083946 M158.400587,20.0932965 C158.350839,20.5028799 158.277151,20.9096686 158.189781,21.3130415 C157.630431,20.5357956 156.904738,19.8442549 156.00244,19.2651244 L155.994356,19.260156 C155.87776,18.4111787 155.633064,17.5671698 155.145537,16.9007816 C157.072325,16.9007816 158.689434,17.7010063 158.400587,20.0932965 M161.18832,26.5919787 C163.114176,28.2591913 163.573719,30.9368546 163.410485,33.3415657 C163.265284,35.4782932 162.550473,37.4628631 161.533444,39.3247753 C161.079186,38.1469512 160.245913,37.1728321 158.939105,36.5989805 C158.019085,36.1949866 156.926502,36.2204497 155.942743,36.2157918 C155.715769,36.2145497 155.488485,36.211755 155.262133,36.2086497 C155.013084,36.0779184 154.760615,35.9655081 154.506591,35.8658293 C154.65117,35.7549716 154.793883,35.6438034 154.932244,35.5285984 C155.070916,35.5074826 155.208654,35.4820195 155.344839,35.4500354 C157.203535,35.0112625 158.251033,33.1686029 159.021189,31.6023112 C159.471094,30.6868814 159.478245,29.7341885 159.19002,28.8227955 C159.293868,28.4234594 159.383725,28.0166707 159.453993,27.5993242 C159.569346,26.9167886 159.612564,26.2491583 159.590799,25.6004701 C160.150771,25.8330539 160.686802,26.1575532 161.18832,26.5919787 M160.092318,41.633534 C159.28765,39.9026637 158.209059,38.4577875 156.988065,37.3982737 C157.069838,37.4097632 157.1513,37.4197 157.233383,37.4315 C159.481354,37.757552 160.181552,39.6275379 160.150149,41.5515552 L160.092318,41.633534 M156.771041,57.0023834 C155.630266,58.1485339 154.023417,58.6677329 152.439577,58.4242807 C150.974198,58.1994601 150.218656,57.3380617 149.690398,56.1844587 C152.877356,56.5673369 156.001818,56.327611 158.246991,55.0497977 C157.865489,55.759349 157.35713,56.4139372 156.771041,57.0023834 M143.883605,61.1531807 C144.895348,64.266201 146.880589,66.9609432 147.865592,70.0783109 C148.030692,70.5996836 148.141381,71.1353405 148.214137,71.6784499 C147.606283,70.5332311 146.938732,69.4168911 146.256256,68.316388 C145.891233,67.7270102 145.518437,67.1472587 145.140044,66.571544 C144.630131,64.4748743 144.152242,62.5871885 143.82795,60.9823916 C143.845983,61.0389072 143.866193,61.0982177 143.883605,61.1531807 M147.390192,78.6783207 C147.085176,75.5907635 146.524583,72.6031955 145.911443,69.8572166 C146.788245,71.3952505 147.58514,72.9814159 148.243363,74.5803128 C148.107801,75.9605996 147.788484,77.3470969 147.390192,78.6783207 M149.114258,77.5036019 C149.582197,80.2042441 149.145661,82.968544 147.550317,85.3418921 C147.603174,84.5779988 147.633022,83.783674 147.628047,82.9449441 C147.626804,82.7887496 147.618409,82.6334868 147.6153,82.4772923 C148.260775,80.8665954 148.776596,79.2133565 149.114258,77.5036019 M137.920418,101.764045 C137.453412,102.000355 136.951583,102.173318 136.436695,102.300012 C137.7491,101.46563 139.14079,100.570073 140.4818,99.490686 C139.824198,100.4381 138.964808,101.23553 137.920418,101.764045 M151.218894,159.22155 C134.896384,137.330418 133.497231,138.727784 126.501781,121.494538 C126.501781,121.494538 122.029158,111.139127 120.671358,106.034705 C121.303464,106.580609 121.955158,107.070929 122.568609,107.494797 C123.083497,107.850349 123.686376,107.39636 123.635384,106.924361 C123.688863,106.956345 123.741098,106.990193 123.796442,107.020314 C124.315683,107.306308 124.751597,106.559804 124.345221,106.183136 C123.554545,105.450296 122.907203,104.535487 122.490256,103.534973 C122.850926,103.764451 123.250462,104.003867 123.683267,104.238935 C124.050777,105.526995 124.69874,106.735251 125.58487,107.696949 C127.053047,109.290567 130.025779,110.861206 132.230221,110.753454 C132.717126,110.729543 132.823462,110.035208 132.399052,109.832745 C132.363296,109.815666 132.326607,109.802003 132.290851,109.786166 C132.414288,109.633698 132.339355,109.428441 132.142852,109.365404 C132.077558,109.337146 132.010399,109.323172 131.939198,109.323483 C131.905929,109.320378 131.880433,109.337456 131.871417,109.370372 C131.834106,109.507935 130.655398,108.930047 130.379298,108.744973 C129.694025,108.286016 129.121616,107.598202 128.615123,106.958208 C128.318192,106.582472 128.041781,106.178168 127.785581,105.755542 C129.584269,106.0729 131.4582,105.875095 133.070645,104.591071 C133.396182,104.331782 133.74286,104.078703 134.104153,103.826867 C135.306491,103.768488 136.48893,103.613846 137.582134,103.329405 C140.16528,102.657738 142.067816,100.416674 143.001828,98.0079256 C143.176878,97.5567318 143.306222,97.0980853 143.403851,96.635402 C145.171758,94.493085 146.601692,91.728164 147.249654,87.9164608 C147.876475,87.2025622 148.481841,86.4728268 148.967813,85.6462073 C150.523671,82.9977334 151.03545,79.792487 150.275243,76.7956033 C150.0719,75.9953785 149.811347,75.2178221 149.511306,74.4567236 C149.555146,73.7471723 149.567272,73.0279947 149.541466,72.2967067 C149.432332,69.1830653 147.654787,66.5883124 146.314088,63.8907754 C145.573781,62.4018046 144.938566,60.8240234 144.491459,59.2229528 C144.291225,58.5043963 143.991806,57.6299559 143.772606,56.731605 C144.265729,57.0908833 144.746727,57.4666194 145.092784,57.9445185 C145.357379,58.3109388 145.690999,58.6298487 146.056955,58.9059061 C146.354197,59.5294417 146.569045,60.2122878 146.502818,60.7783762 C146.430062,61.410296 146.576818,62.0450106 146.967337,62.5430938 C147.313083,62.9840403 147.889223,62.9039247 148.170918,62.4502466 C148.912469,61.2575173 149.111149,59.6573783 148.829453,58.2084653 C149.33408,58.9416165 150.017799,59.5291312 150.986324,59.9234989 C152.877978,60.6936026 154.914832,60.2790508 156.626151,59.2959264 C158.482982,58.2286495 159.774865,56.2114744 160.363131,54.2073414 C160.505223,53.7229213 160.57145,53.2524748 160.586685,52.7919652 C161.159404,51.8259197 161.507949,50.6381588 161.560806,49.1886248 C161.613041,47.7515117 161.490226,46.3808512 161.228429,45.0996221 C161.688906,44.1413397 161.95661,43.0644365 161.963451,41.856181 C161.964072,41.7909706 161.960963,41.7270023 161.959719,41.6621024 C163.88402,38.6515555 165.16782,35.3217883 164.982199,31.6016901 C164.85099,28.9811636 163.570921,26.4705632 161.429596,24.9325293 C160.796868,24.4782302 160.103822,24.1732939 159.381237,23.9826311 C159.316254,23.7019159 159.240389,23.4246164 159.145558,23.1553906 C159.788857,21.3658309 160.212645,19.3129454 159.430363,17.8224219 C158.378512,15.8185994 156.202674,15.7471785 154.210903,16.0524253 C152.718785,15.1515902 151.007467,14.9003749 149.281224,15.0401115 C148.936099,14.6985332 148.539051,14.3873864 148.08044,14.1169185 C145.965855,12.8701577 143.306222,12.904005 141.161788,13.9750082 C139.888559,14.6112754 138.890186,15.5881894 137.815948,16.4967876 C137.314741,16.9203447 136.806071,17.3330334 136.300822,17.7497589 C130.982799,12.7093054 122.309299,6.68728015 111.193812,6.67361702 C111.106753,6.67361702 111.01814,6.6757907 110.930149,6.67641175 C112.164823,5.31537752 113.280725,3.6621386 113.684614,1.93126824 C113.90226,1.59683204 114.108401,1.25059586 114.304594,0.891317606 C114.670239,0.220892579 113.728454,-0.297995897 113.240616,0.195118945 C113.189625,0.246355688 113.140499,0.300387163 113.090751,0.352244958 C112.932802,0.377397542 112.790711,0.48049208 112.711115,0.687923261 C112.695568,0.728912655 112.676602,0.767417845 112.660123,0.808096714 C111.642473,1.91729458 110.691982,3.10226072 109.477207,3.99688532 C108.028618,5.06385169 106.244544,5.80507658 104.458293,5.96996574 C102.57721,6.14323909 100.721623,5.90320271 98.8703895,5.6628558 C97.2881037,5.4575983 95.7089272,5.2523408 94.1198012,5.3054407 C91.0146159,5.40884576 87.6106339,5.58056649 85.1711342,7.66015723 C84.0645603,8.60353436 83.1492038,9.70590066 82.4350143,10.9678772 C81.7572027,12.1646433 80.2930676,13.7461508 80.0962535,15.0873114 C79.430568,15.1776744 78.7829159,15.2789057 78.151121,15.3882108 C75.3410014,15.191027 72.550159,15.758668 69.8037786,16.3961773 C68.9266656,16.5998821 68.0265443,16.7539029 67.1192718,16.8979868 C67.1982462,16.7501766 67.2778424,16.6023664 67.3565058,16.4542456 C67.7610163,15.6922155 68.2239802,14.9739695 68.5958438,14.1914447 C68.9098758,13.5309565 69.0429507,12.6363319 69.5071583,12.0578225 C69.6486281,11.8814438 69.6523592,11.6764969 69.5758722,11.509434 C69.834249,10.8964563 68.941279,10.3365784 68.5059871,10.8775142 C67.017911,12.7263843 65.8298752,14.4560126 63.9018434,15.9210729 C62.8941429,16.6868293 61.8335855,17.3768175 60.7820448,18.0798477 C59.2687839,17.8944639 57.6295993,17.7180853 56.2920098,18.1664844 C54.689514,18.7033834 54.0844584,19.8380443 53.7744685,21.4409781 C53.6432591,22.1176136 53.5195118,22.8454859 53.5335033,23.5429267 C53.4915288,23.5646635 53.4479996,23.5839161 53.406025,23.6053424 C49.2704419,25.7548014 46.6266659,30.6002447 45.2872108,34.8758733 C45.2558077,34.9767942 45.2492783,35.071194 45.2551858,35.161557 C44.8736836,35.704977 44.5039965,36.248397 44.2589894,36.8427432 C42.5448724,38.7981237 41.2974505,41.0382562 40.0245328,43.3243466 C38.2923823,46.4342616 36.8755075,49.6957133 35.9732097,53.1425487 C34.3458402,59.3595842 34.7621657,67.00038 37.2013545,72.9761369 C37.9279809,74.7557598 39.0205633,76.3086989 40.3370102,77.6625911 C40.8167639,78.9022097 41.4749873,80.0551917 41.878565,81.3267946 C42.313235,82.6977656 42.9416098,84.1143839 43.7798575,85.2878606 C44.4533161,86.2303062 45.2256481,86.9501048 45.9954928,87.736977 C45.7069565,88.2257445 45.4927308,88.6176279 45.399454,88.8483485 C44.9302716,90.0094042 42.4438225,93.9667439 46.9798742,95.2442467 C51.5162367,96.521439 52.1514518,95.3265361 52.4231983,96.4630602 C52.6949448,97.6002054 49.6273812,102.282933 51.9462428,103.953872 C54.2651045,105.624811 55.8654238,105.277954 55.9521712,105.67729 C56.0389187,106.076626 53.80867,107.93947 54.975252,109.783371 C56.1418341,111.627273 57.3336009,111.238184 58.2918647,113.171518 C59.2501286,115.105472 59.9630744,114.532241 59.9839062,118.436792 C60.0044271,122.341031 59.9223435,127.15387 69.8482405,127.146728 C79.7741376,127.139275 80.951291,120.192504 84.9192868,122.996551 C88.8872826,125.800288 91.4244121,131.34814 91.810889,133.081185 C91.810889,133.081185 99.1287663,145.951855 96.7163168,151.350655 C94.3041783,156.749765 83.2713964,162.776449 82.6638534,170.399855 C82.0566213,178.023261 84.7031955,183.714577 94.7892178,188.564678 C107.380966,194.619619 128.509409,199.570951 134.883014,199.93054 C156.348808,201.140348 171.562568,186.505582 151.218894,159.22155"/>
  </g>
</svg>
