<svg xmlns="http://www.w3.org/2000/svg" width="200" height="200" viewBox="0 0 200 200">
  <g fill="none" fill-rule="evenodd">
    <path fill="#fff" fill-rule="nonzero" d="M411.481898,-143.199902 C411.781898,-143.599902 411.981898,-143.999902 412.281898,-144.399902 C412.881898,-145.199902 412.581898,-146.599902 411.581898,-146.899902 C407.381898,-148.099902 403.081898,-149.099902 398.781898,-149.699902 C402.481898,-150.199902 406.181898,-150.699902 409.881898,-151.399902 C411.481898,-151.699902 411.681898,-153.899902 410.181898,-154.599902 C408.181898,-155.499902 406.081898,-155.599902 403.981898,-155.199902 C402.281898,-155.099902 400.481898,-154.999902 398.781898,-154.799902 C398.981898,-155.599902 399.281898,-156.399902 399.681898,-157.099902 C402.281898,-157.599902 404.781898,-158.199902 407.381898,-158.699902 C409.481898,-159.099902 410.581898,-160.899902 409.281898,-162.699902 C408.981898,-163.199902 408.381898,-163.299902 407.781898,-163.199902 C402.481898,-162.599902 396.981898,-162.399902 391.681898,-162.499902 C387.281898,-165.399902 381.681898,-166.999902 376.181898,-167.599902 C375.781898,-167.899902 375.281898,-168.099902 374.881898,-168.399902 C369.881898,-171.599902 364.781898,-174.699902 360.181898,-178.499902 C353.781898,-183.799902 349.881898,-191.399902 343.481898,-196.299902 C343.181898,-196.799902 342.881898,-197.299902 342.581898,-197.799902 C342.181898,-198.399902 341.781898,-198.999902 341.281898,-199.599902 C340.881898,-208.099902 335.381898,-215.999902 328.381898,-220.399902 C321.581898,-224.699902 313.381898,-224.999902 306.081898,-222.399902 C304.581898,-223.899902 302.981898,-225.099902 301.181898,-225.999902 C301.081898,-226.299902 300.881898,-226.499902 300.581898,-226.699902 C298.481898,-227.899902 296.081898,-228.699902 293.981898,-229.899902 C291.781898,-231.099902 289.781898,-232.599902 287.781898,-234.099902 C283.681898,-237.099902 279.781898,-240.199902 275.381898,-242.699902 C268.281898,-246.699902 258.081898,-249.099902 250.081898,-245.999902 C249.781898,-246.299902 249.481898,-246.599902 249.181898,-246.899902 C250.181898,-247.099902 251.181898,-247.299902 252.281898,-247.599902 C253.181898,-247.799902 253.581898,-248.699902 253.381898,-249.599902 C253.281898,-250.299902 253.181898,-250.899902 253.081898,-251.499902 C256.181898,-261.499902 256.681898,-272.999902 254.081898,-283.199902 C251.281898,-293.899902 241.381898,-297.299902 231.581898,-299.399902 C222.081898,-301.499902 210.481898,-301.999902 201.381898,-297.999902 C192.681898,-294.199902 187.681898,-285.599902 185.181898,-276.799902 C185.081898,-276.699902 184.981898,-276.599902 184.881898,-276.499902 C184.381898,-275.999902 184.481898,-274.999902 185.081898,-274.699902 C187.181898,-273.399902 189.381898,-272.199902 191.681898,-270.999902 C191.581898,-270.199902 191.481898,-269.499902 191.281898,-268.699902 C190.781898,-266.299902 189.281898,-263.999902 189.281898,-261.599902 C189.281898,-260.299902 190.581898,-259.099902 191.381898,-258.199902 C191.881898,-257.699902 192.281898,-257.199902 192.781898,-256.599902 C191.781898,-254.399902 190.481898,-252.399902 189.181898,-250.399902 C187.981898,-248.599902 187.381898,-246.499902 188.681898,-244.599902 C188.881898,-244.299902 189.281898,-243.999902 189.681898,-244.199902 C190.781898,-244.599902 191.781898,-244.899902 192.881898,-245.099902 C192.981898,-244.099902 192.981898,-243.099902 192.881898,-241.999902 C192.781898,-241.199902 192.681898,-239.899902 193.381898,-239.299902 C194.281898,-238.499902 195.081898,-238.499902 196.181898,-238.599902 C197.381898,-238.799902 198.281898,-238.899902 199.281898,-238.799902 C199.181898,-238.599902 198.981898,-238.399902 198.881898,-238.199902 C198.081898,-237.099902 197.181898,-236.399902 196.681898,-235.199902 C195.781898,-233.199902 197.981898,-231.599902 199.281898,-230.299902 C198.881898,-228.799902 198.481898,-227.299902 199.081898,-225.699902 C199.781898,-223.799902 201.981898,-223.299902 203.781898,-223.099902 C206.781898,-222.799902 210.281898,-223.599902 213.181898,-224.299902 C213.481898,-224.399902 213.681898,-224.399902 213.981898,-224.499902 C215.581898,-223.099902 217.381898,-221.799902 218.781898,-220.499902 C220.281898,-219.199902 221.681898,-217.899902 223.081898,-216.599902 C221.281898,-213.199902 219.781898,-209.699902 218.381898,-206.099902 C217.181898,-202.799902 216.081898,-199.499902 215.281898,-196.099902 C214.581898,-193.399902 213.681898,-190.299902 213.581898,-187.399902 C212.381898,-186.499902 211.281898,-185.699902 210.081898,-184.899902 C208.481898,-183.799902 208.481898,-183.299902 208.181898,-181.299902 C207.281898,-175.599902 205.781898,-170.099902 203.881898,-164.799902 C200.681898,-163.299902 197.581898,-161.499902 194.781898,-159.299902 C190.281898,-155.799902 185.981898,-151.799902 185.081898,-146.099902 C184.681898,-143.499902 181.981898,-142.699902 180.681898,-140.699902 C180.181898,-139.899902 179.881898,-139.099902 179.881898,-138.299902 C177.581898,-136.499902 175.381898,-134.599902 173.181898,-132.699902 C170.681898,-130.499902 168.081898,-128.299902 165.581898,-126.199902 C163.281898,-124.199902 160.581898,-122.399902 158.381898,-120.299902 C156.381898,-119.399902 154.481898,-118.299902 152.681898,-117.099902 C147.481898,-113.499902 142.281898,-110.099902 136.581898,-107.299902 C133.681898,-105.899902 130.681898,-104.799902 127.781898,-103.599902 C126.481898,-103.099902 124.581898,-101.799902 125.081898,-100.099902 C126.081898,-96.4999017 131.581898,-97.5999017 134.481898,-99.2999017 C137.881898,-98.5999017 141.681898,-99.1999017 145.281898,-100.299902 C144.981898,-99.8999017 144.781898,-99.4999017 144.581898,-99.0999017 C143.681898,-96.8999017 144.581898,-94.8999017 146.781898,-93.9999017 C147.381898,-93.7999017 148.081898,-93.9999017 148.481898,-94.4999017 C149.781898,-95.8999017 151.281898,-97.0999017 152.681898,-98.3999017 C155.981898,-99.6999017 159.181898,-101.399902 162.381898,-102.999902 C165.681898,-104.699902 168.781898,-107.199902 170.281898,-110.499902 C175.081898,-112.699902 179.681898,-115.399902 184.181898,-118.099902 C187.081898,-119.799902 189.981898,-121.499902 192.881898,-123.199902 C192.981898,-123.099902 192.981898,-123.099902 193.081898,-122.999902 C193.481898,-122.699902 194.081898,-122.799902 194.481898,-122.999902 C200.081898,-126.099902 205.581898,-129.399902 211.081898,-132.699902 C216.881898,-132.899902 222.781898,-133.099902 228.481898,-133.899902 C231.981898,-134.399902 233.181898,-138.199902 234.381898,-140.999902 C236.281898,-145.099902 238.381898,-149.099902 240.581898,-153.099902 C242.781898,-157.199902 245.181898,-161.199902 247.681898,-164.999902 C249.281898,-164.299902 250.881898,-163.499902 252.481898,-162.599902 C257.781898,-159.699902 261.781898,-155.399902 266.081898,-151.199902 C269.981898,-147.299902 273.981898,-144.399902 278.881898,-141.799902 C282.581898,-139.799902 284.481898,-135.899902 286.281898,-131.999902 C285.781898,-130.599902 284.881898,-129.299902 283.481898,-129.199902 C282.481898,-129.099902 281.481898,-128.199902 281.881898,-127.099902 C282.381898,-125.599902 282.781898,-123.899902 283.381898,-122.299902 C276.481898,-117.699902 270.281898,-111.899902 265.181898,-105.399902 C263.681898,-105.199902 262.181898,-104.899902 260.681898,-104.499902 C259.181898,-104.099902 257.781898,-103.599902 257.281898,-101.899902 C256.781898,-99.8999017 256.781898,-97.3999017 256.881898,-95.0999017 C255.081898,-94.4999017 253.381898,-93.7999017 251.581898,-93.1999017 C247.481898,-91.6999017 244.381898,-90.2999017 241.581898,-86.8999017 C236.081898,-80.2999017 229.481898,-74.5999017 224.181898,-67.7999017 C221.981898,-64.9999017 221.181898,-62.3999017 222.181898,-58.8999017 C223.281898,-54.9999017 225.281898,-51.1999017 227.281898,-47.7999017 C228.981898,-44.7999017 230.981898,-41.6999017 233.281898,-38.8999017 C237.381898,-27.3999017 242.181898,-16.0999017 247.481898,-5.09990173 C246.481898,-3.99990173 245.481898,-3.09990173 244.281898,-2.29990173 C243.181898,-1.59990173 242.881898,-0.0999017304 243.881898,0.90009827 C247.281898,4.30009827 251.581898,7.50009827 256.281898,9.70009827 C257.381898,13.6000983 258.781898,17.5000983 259.781898,21.4000983 C260.681898,24.7000983 261.381898,28.0000983 261.981898,31.3000983 C259.481898,37.6000983 253.481898,42.6000983 247.381898,45.9000983 C242.581898,48.5000983 237.481898,50.2000983 232.481898,52.4000983 C230.981898,53.1000983 227.781898,53.7000983 227.581898,55.7000983 C227.381898,58.3000983 227.681898,60.6000983 228.681898,63.0000983 C228.881898,63.5000983 229.281898,63.8000983 229.781898,64.0000983 C229.781898,64.1000983 229.781898,64.2000983 229.781898,64.3000983 C229.681898,65.1000983 229.981898,65.8000983 230.781898,66.0000983 C232.281898,66.5000983 233.681898,66.8000983 235.181898,67.1000983 C234.681898,68.5000983 233.881898,69.8000983 232.981898,71.0000983 C229.481898,70.2000983 225.781898,70.9000983 223.281898,74.2000983 C219.181898,79.4000983 221.581898,86.3000983 226.481898,89.9000983 C231.781898,93.8000983 240.481898,92.9000983 244.581898,87.7000983 C245.281898,86.8000983 245.781898,85.9000983 246.181898,84.8000983 C248.081898,87.7000983 251.181898,89.7000983 254.881898,90.0000983 C260.181898,90.4000983 265.581898,85.7000983 266.181898,80.6000983 C266.281898,79.8000983 266.281898,79.0000983 266.181898,78.2000983 C266.981898,77.8000983 267.881898,77.3000983 268.581898,76.8000983 C268.781898,79.1000983 269.681898,81.5000983 271.281898,83.5000983 C273.181898,85.8000983 275.781898,87.1000983 278.381898,87.4000983 C279.181898,90.9000983 281.581898,94.1000983 284.381898,95.9000983 C290.181898,99.6000983 297.381898,96.6000983 299.581898,90.6000983 C300.681898,90.5000983 301.781898,90.3000983 302.881898,90.2000983 C304.581898,94.3000983 308.781898,97.2000983 313.181898,97.4000983 C318.681898,97.7000983 322.681898,93.4000983 323.481898,88.4000983 C323.481898,88.4000983 323.581898,88.4000983 323.581898,88.4000983 C324.981898,92.7000983 328.781898,95.9000983 333.281898,97.0000983 C338.481898,98.3000983 344.281898,95.8000983 345.581898,90.7000983 C347.481898,94.2000983 351.281898,96.6000983 355.381898,97.1000983 C361.581898,97.9000983 366.781898,92.9000983 366.881898,86.9000983 C366.981898,81.7000983 362.381898,76.4000983 357.381898,74.9000983 C356.581898,73.1000983 355.881898,71.3000983 355.281898,69.5000983 C355.381898,69.5000983 355.481898,69.5000983 355.581898,69.5000983 C356.281898,69.5000983 356.781898,69.2000983 357.081898,68.8000983 C357.681898,68.7000983 358.081898,68.2000983 358.081898,67.5000983 C357.381898,59.5000983 354.281898,51.6000983 349.281898,45.2000983 C347.781898,39.9000983 345.581898,34.7000983 343.481898,29.8000983 C341.781898,25.8000983 339.881898,21.8000983 337.881898,17.8000983 C339.881898,17.5000983 341.881898,17.2000983 343.981898,17.0000983 C345.581898,16.9000983 346.381898,15.2000983 345.281898,13.9000983 C335.381898,2.50009827 330.881898,-12.1999017 323.181898,-24.9999017 C324.181898,-25.0999017 325.181898,-25.0999017 326.181898,-24.9999017 C327.181898,-24.8999017 327.981898,-26.0999017 327.681898,-26.9999017 C326.681898,-30.0999017 325.481898,-33.0999017 324.081898,-35.8999017 C325.081898,-36.7999017 325.981898,-37.7999017 326.781898,-38.7999017 C327.181898,-39.2999017 327.381898,-39.9999017 326.981898,-40.5999017 C326.081898,-41.8999017 325.381898,-43.1999017 324.681898,-44.5999017 C328.081898,-58.7999017 339.181898,-69.9999017 343.881898,-83.5999017 C349.381898,-90.2999017 354.881898,-97.0999017 359.181898,-104.699902 C364.181898,-113.799902 367.281898,-125.399902 363.181898,-135.399902 C363.081898,-135.499902 363.081898,-135.599902 362.981898,-135.699902 C362.981898,-135.999902 362.881898,-136.299902 362.681898,-136.699902 C359.681898,-141.599902 356.881898,-147.099902 353.281898,-151.599902 C351.581898,-153.699902 349.581898,-155.499902 347.181898,-156.799902 C345.081898,-157.899902 342.881898,-158.499902 340.781898,-159.599902 C338.981898,-163.699902 336.481898,-167.699902 333.981898,-171.499902 C333.981898,-171.499902 333.981898,-171.599902 333.981898,-171.599902 C334.181898,-171.499902 334.381898,-171.399902 334.581898,-171.299902 C339.181898,-169.299902 343.781898,-167.299902 348.081898,-164.599902 C350.081898,-163.299902 351.881898,-161.899902 353.581898,-160.299902 C353.581898,-158.099902 354.181898,-156.099902 355.681898,-154.799902 C357.281898,-153.499902 359.081898,-153.099902 360.781898,-153.399902 C362.881898,-152.299902 364.781898,-151.199902 366.281898,-149.599902 C368.681898,-146.999902 369.481898,-143.099902 371.481898,-140.199902 C375.681898,-133.899902 385.081898,-134.999902 390.481898,-130.499902 C390.981898,-130.099902 391.681898,-130.199902 392.081898,-130.499902 C395.381898,-133.199902 394.681898,-136.399902 392.281898,-139.099902 C394.281898,-138.399902 396.381898,-137.599902 398.381898,-136.899902 C401.181898,-135.999902 403.981898,-134.999902 406.781898,-134.099902 C408.381898,-133.599902 409.381898,-133.199902 410.781898,-134.099902 C411.181898,-134.399902 411.381898,-134.999902 411.281898,-135.499902 C410.681898,-138.799902 404.281898,-141.399902 401.681898,-142.799902 C401.281898,-142.999902 400.881898,-143.199902 400.481898,-143.399902 C403.581898,-142.999902 406.581898,-142.699902 409.681898,-142.299902 C410.581898,-142.499902 411.181898,-142.799902 411.481898,-143.199902 Z M268.381898,65.2000983 C264.681898,64.9000983 253.981898,68.2000983 253.981898,68.2000983 L255.481898,63.7000983 L275.581898,59.5000983 C275.581898,59.5000983 274.381898,62.2000983 275.981898,62.5000983 C277.581898,62.8000983 280.281898,63.8000983 280.281898,63.8000983 C280.281898,63.8000983 272.081898,65.5000983 268.381898,65.2000983 Z M314.581898,47.9000983 L304.581898,50.6000983 C304.581898,50.6000983 304.881898,43.0000983 298.781898,35.9000983 C292.681898,28.8000983 294.881898,21.8000983 293.581898,19.6000983 C292.281898,17.4000983 288.981898,15.7000983 288.481898,12.5000983 C288.081898,9.20009827 287.781898,2.50009827 291.181898,2.70009827 C291.181898,2.70009827 297.881898,9.40009827 299.681898,13.1000983 C301.481898,16.8000983 302.981898,32.0000983 302.981898,32.0000983 C302.981898,32.0000983 308.481898,30.5000983 309.981898,31.4000983 C311.481898,32.3000983 313.681898,38.7000983 314.581898,41.2000983 C315.481898,43.7000983 314.581898,47.9000983 314.581898,47.9000983 Z M331.981898,71.9000983 L329.581898,75.9000983 L323.181898,76.3000983 L320.081898,75.1000983 C319.981898,74.4000983 318.581898,72.4000983 318.581898,72.4000983 L331.981898,71.9000983 Z"/>
    <path fill="#fff" d="M133.685937,59.9048585 C133.685937,59.633949 132.873108,59.0918834 132.873108,59.0918834 C132.873108,59.0918834 131.51831,58.5498179 131.247202,58.0079989 C130.976341,57.4656869 129.079574,56.1108929 129.079574,56.1108929 C129.079574,56.1108929 127.995884,56.1108929 127.724776,55.5688274 C127.453915,55.0267619 126.912193,51.2327963 126.641086,50.1486653 C126.369978,49.0647808 126.912193,47.7097402 127.453915,46.8965187 C127.995884,46.0837902 128.266745,44.4575937 127.995884,42.0184221 C127.724776,39.5794971 123.660629,35.7855315 123.660629,35.7855315 C126.099117,36.3273505 131.51831,39.8504066 135.311596,42.5604876 C139.10513,45.2705687 138.834269,44.9996592 140.459928,46.8965187 C139.917959,47.9806497 139.10513,51.2327963 138.292054,53.9426308 C137.479224,56.6529584 135.040735,60.7178335 134.498767,61.259899 C133.956798,61.8019645 133.685937,60.1760145 133.685937,59.9048585 Z M114.583457,25.8937603 C112.957798,25.6228508 112.415829,24.8096293 112.415829,24.8096293 C112.415829,24.8096293 112.415829,24.5387198 112.68669,24.2678103 C112.957798,23.9966543 113.228659,23.7257448 114.041488,24.2678103 C114.854564,24.8096293 116.480223,25.6228508 116.480223,25.6228508 C116.480223,25.6228508 116.209116,26.1646698 114.583457,25.8937603 Z M169.452163,181.044052 C168.368472,181.044052 168.639334,182.399092 168.368472,181.044052 C168.097365,179.689258 168.910195,178.876036 168.368472,178.605127 C167.826504,178.334217 168.368472,179.147192 167.013674,178.334217 C165.658876,177.520996 165.387769,177.250086 165.116908,176.708021 C164.846047,176.166202 163.220141,175.62389 163.220141,175.62389 C163.220141,175.62389 161.052514,174.811161 160.781653,174.811161 C160.510545,174.811161 159.426854,173.99794 158.613778,173.184965 C157.801195,172.37199 155.633321,171.288105 155.633321,171.288105 C155.633321,171.288105 154.27877,168.577778 153.465694,167.222984 C152.652864,165.867943 147.504779,160.447781 147.504779,158.279765 C147.504779,156.11175 144.795183,129.553251 144.524075,123.86218 C144.253214,118.171108 142.898416,114.105987 142.898416,113.293011 C142.898416,112.47979 142.898416,114.918962 142.627555,111.124996 C142.356694,107.330784 142.356694,106.788718 142.085587,105.704834 C141.814726,104.620703 141.543618,102.181778 141.543618,102.181778 C141.543618,102.181778 139.917959,91.6123631 140.18882,87.2765785 C140.459928,82.9403009 142.085587,75.3521233 135.582704,66.1379956 C137.750332,65.8668396 138.292054,65.3250206 138.834269,64.5120456 C139.375991,63.6990705 142.085587,58.5498179 142.627555,57.7368429 C143.169277,56.9238679 147.233672,50.9616403 147.504779,46.8965187 C147.77564,42.8316436 148.317609,42.8316436 146.149981,41.7475126 C143.982353,40.6636281 131.247202,30.0942134 131.247202,30.0942134 C131.247202,30.0942134 125.286288,25.4872728 123.660629,25.2163633 C122.034723,24.9452073 118.512297,25.4872728 118.512297,25.4872728 C118.512297,25.4872728 118.512297,24.4031418 118.783405,24.1322323 C119.054266,23.8613228 119.054266,23.5901668 119.325127,23.3192573 C119.596234,23.0481013 120.409064,23.0481013 120.138203,22.5062823 C120.138203,22.5062823 121.221893,22.5062823 120.951032,21.9642167 C120.679925,21.4221512 120.679925,20.6091762 120.951032,20.6091762 C121.221893,20.6091762 123.11866,20.8800857 122.847553,20.0671107 C122.576692,19.2541357 122.034723,16.5440546 122.305831,15.7310796 C122.576692,14.9181046 123.93149,14.1051296 123.93149,13.2921546 C123.93149,12.4789331 123.93149,9.4979425 123.93149,9.4979425 C123.93149,9.4979425 126.099117,8.68496749 124.202351,6.24579594 C122.305831,3.80687089 118.241436,-0.258250686 114.447903,0.0129053227 C110.654616,0.283814826 106.86133,1.36794585 105.777392,4.0777804 C104.693702,6.78786145 104.151733,7.32992696 104.151733,8.68496749 C102.254967,8.68496749 99.0034021,11.3950485 99.0034021,13.2921546 C99.0034021,15.1890141 98.732541,19.2541357 104.287041,19.6606232 C104.287041,19.6606232 105.370978,24.2678103 103.474211,26.1646698 C101.577691,28.0617759 96.9713282,33.7528475 96.9713282,33.7528475 C96.9713282,33.7528475 95.7520838,34.430491 94.9390078,36.056441 C94.5964265,36.7419727 95.0745616,43.2381311 95.8876376,44.3222622 C96.7002207,45.4061467 101.577691,53.8072993 105.370978,59.2274615 C109.164264,64.6473771 110.79017,64.6473771 109.706233,69.7966297 C108.622542,74.9456358 107.267498,83.0758789 109.97734,88.7669505 C112.68669,94.4580221 115.125425,96.6260377 114.041488,99.0652092 C112.957798,101.504134 105.641839,124.539577 102.932489,128.333789 C100.222646,132.127754 98.8680948,136.463785 98.8680948,136.463785 L96.9713282,139.986841 L96.4293596,141.070973 C96.4293596,141.070973 89.790923,155.027619 88.7072324,157.195634 C87.6232953,159.363896 84.9136992,166.138852 83.28804,166.951828 C81.6621345,167.765049 77.5979867,168.035959 75.7012201,168.577778 C73.8046999,169.119843 72.7207629,169.390999 71.6368258,169.661909 C70.5531352,169.933065 70.5531352,169.661909 69.1983371,169.661909 C67.843539,169.661909 69.1983371,168.577778 67.3015705,169.661909 C65.4048039,170.74604 61.0695486,170.203974 58.901921,171.016949 C56.7342933,171.829924 53.4827286,170.74604 50.5022714,172.100834 C47.5218142,173.456121 44.8122181,173.184965 44.2702495,173.456121 C43.728281,173.72703 42.9154515,173.456121 42.1026219,174.269096 C41.2897923,175.082071 37.7673666,175.62389 37.2253981,175.895046 C36.6834296,176.166202 35.599739,176.97893 34.2449409,178.063061 C32.8901428,179.147192 31.5353447,179.147192 31.2644837,180.773142 C30.9933762,182.399092 31.8062058,182.128183 31.2644837,182.941158 C30.7225152,183.754133 30.7225152,183.754133 30.7225152,183.754133 C30.7225152,183.754133 29.096856,183.754133 30.7225152,184.838264 C32.3481743,185.922148 33.7029724,185.922148 33.4321113,186.73537 C33.1610038,187.548098 31.8062058,186.73537 33.7029724,187.819254 C35.599739,188.903385 35.8706,188.36132 36.4125685,188.632229 C36.9542906,188.903385 37.7673666,189.71636 37.7673666,189.71636 C37.7673666,189.71636 36.1417075,189.445204 38.5801962,190.800245 C41.0189313,192.155285 41.0189313,192.426441 45.0830791,192.426441 C49.1474734,192.426441 50.5022714,192.968261 51.8570695,194.052392 C53.2118676,195.136523 54.0246972,195.407432 56.4634323,195.136523 C58.901921,194.865367 57.5471229,193.781482 60.7986876,194.323301 C64.0500058,194.865367 63.5082838,194.052392 65.1339429,195.136523 C66.759602,196.220407 66.2176335,195.949498 67.5724316,196.220407 C68.9272296,196.491563 73.8046999,196.491563 74.0755609,195.678342 C74.346422,194.865367 74.346422,194.594457 75.1592515,195.136523 C75.9720811,195.678342 74.8883905,196.491563 76.5140496,196.491563 C78.1397087,196.491563 78.4108162,197.033382 79.4945068,196.491563 C80.5784439,195.949498 81.6621345,195.678342 82.7460715,196.220407 C83.8300086,196.762473 83.5589011,197.846357 86.2684972,197.575448 C88.9780934,197.304538 89.5200619,197.575448 90.6037525,198.117513 C91.6876896,198.659579 91.9585506,198.930488 93.8553172,198.388423 C95.7520838,197.846357 95.7520838,197.575448 96.8357744,196.762473 C97.9197115,195.949498 97.6488504,194.865367 98.4614335,195.678342 C99.2745096,196.491563 98.1905725,196.220407 99.5453706,197.033382 C100.900169,197.846357 99.8164781,198.117513 101.983859,197.846357 C104.151733,197.575448 105.506285,196.491563 106.86133,196.220407 C108.216128,195.949498 108.75785,196.762473 108.75785,196.762473 L109.028957,197.575448 L111.196585,198.117513 C111.196585,198.117513 118.512297,199.472554 120.138203,198.930488 C121.763862,198.388423 123.660629,198.659579 125.828256,198.930488 C127.995884,199.201398 126.912193,200.556438 130.163512,199.743463 C133.415076,198.930488 136.395533,199.201398 136.395533,198.388423 C136.395533,197.575448 138.563161,196.762473 139.10513,197.033382 C139.646852,197.304538 139.646852,197.846357 140.730789,197.304538 C141.814726,196.762473 142.356694,196.491563 142.356694,196.491563 L142.356694,195.949498 C142.356694,195.949498 144.795183,195.949498 146.149981,197.033382 C147.504779,198.117513 150.485236,198.930488 151.298066,198.117513 C152.110895,197.304538 152.382003,196.220407 152.923971,196.220407 C153.465694,196.220407 152.923971,195.407432 154.007662,195.949498 C155.091353,196.491563 156.717258,196.491563 157.530088,196.220407 C158.342917,195.949498 159.697715,195.407432 159.697715,194.865367 C159.697715,194.323301 160.239684,193.510326 161.052514,193.510326 C161.865343,193.510326 163.76211,193.510326 164.304078,192.697351 C164.846047,191.884376 165.658876,192.426441 165.116908,191.071401 C164.574939,189.71636 164.574939,189.174295 164.304078,189.174295 C164.032971,189.174295 165.387769,188.09041 165.387769,187.819254 C165.387769,187.548098 165.387769,188.09041 167.013674,187.819254 C168.639334,187.548098 168.910195,187.277189 168.639334,186.464214 C168.368472,185.651239 167.013674,186.193304 168.097365,185.109173 C169.181302,184.025042 169.181302,185.651239 169.452163,183.754133 C169.723271,181.857273 170.5361,181.044052 169.452163,181.044052 Z"/>
  </g>
</svg>
