<svg xmlns="http://www.w3.org/2000/svg" width="200" height="200" viewBox="0 0 200 200">
  <g fill="none" fill-rule="evenodd">
    <path fill="#fff" fill-rule="nonzero" d="M411.481898,-143.199902 C411.781898,-143.599902 411.981898,-143.999902 412.281898,-144.399902 C412.881898,-145.199902 412.581898,-146.599902 411.581898,-146.899902 C407.381898,-148.099902 403.081898,-149.099902 398.781898,-149.699902 C402.481898,-150.199902 406.181898,-150.699902 409.881898,-151.399902 C411.481898,-151.699902 411.681898,-153.899902 410.181898,-154.599902 C408.181898,-155.499902 406.081898,-155.599902 403.981898,-155.199902 C402.281898,-155.099902 400.481898,-154.999902 398.781898,-154.799902 C398.981898,-155.599902 399.281898,-156.399902 399.681898,-157.099902 C402.281898,-157.599902 404.781898,-158.199902 407.381898,-158.699902 C409.481898,-159.099902 410.581898,-160.899902 409.281898,-162.699902 C408.981898,-163.199902 408.381898,-163.299902 407.781898,-163.199902 C402.481898,-162.599902 396.981898,-162.399902 391.681898,-162.499902 C387.281898,-165.399902 381.681898,-166.999902 376.181898,-167.599902 C375.781898,-167.899902 375.281898,-168.099902 374.881898,-168.399902 C369.881898,-171.599902 364.781898,-174.699902 360.181898,-178.499902 C353.781898,-183.799902 349.881898,-191.399902 343.481898,-196.299902 C343.181898,-196.799902 342.881898,-197.299902 342.581898,-197.799902 C342.181898,-198.399902 341.781898,-198.999902 341.281898,-199.599902 C340.881898,-208.099902 335.381898,-215.999902 328.381898,-220.399902 C321.581898,-224.699902 313.381898,-224.999902 306.081898,-222.399902 C304.581898,-223.899902 302.981898,-225.099902 301.181898,-225.999902 C301.081898,-226.299902 300.881898,-226.499902 300.581898,-226.699902 C298.481898,-227.899902 296.081898,-228.699902 293.981898,-229.899902 C291.781898,-231.099902 289.781898,-232.599902 287.781898,-234.099902 C283.681898,-237.099902 279.781898,-240.199902 275.381898,-242.699902 C268.281898,-246.699902 258.081898,-249.099902 250.081898,-245.999902 C249.781898,-246.299902 249.481898,-246.599902 249.181898,-246.899902 C250.181898,-247.099902 251.181898,-247.299902 252.281898,-247.599902 C253.181898,-247.799902 253.581898,-248.699902 253.381898,-249.599902 C253.281898,-250.299902 253.181898,-250.899902 253.081898,-251.499902 C256.181898,-261.499902 256.681898,-272.999902 254.081898,-283.199902 C251.281898,-293.899902 241.381898,-297.299902 231.581898,-299.399902 C222.081898,-301.499902 210.481898,-301.999902 201.381898,-297.999902 C192.681898,-294.199902 187.681898,-285.599902 185.181898,-276.799902 C185.081898,-276.699902 184.981898,-276.599902 184.881898,-276.499902 C184.381898,-275.999902 184.481898,-274.999902 185.081898,-274.699902 C187.181898,-273.399902 189.381898,-272.199902 191.681898,-270.999902 C191.581898,-270.199902 191.481898,-269.499902 191.281898,-268.699902 C190.781898,-266.299902 189.281898,-263.999902 189.281898,-261.599902 C189.281898,-260.299902 190.581898,-259.099902 191.381898,-258.199902 C191.881898,-257.699902 192.281898,-257.199902 192.781898,-256.599902 C191.781898,-254.399902 190.481898,-252.399902 189.181898,-250.399902 C187.981898,-248.599902 187.381898,-246.499902 188.681898,-244.599902 C188.881898,-244.299902 189.281898,-243.999902 189.681898,-244.199902 C190.781898,-244.599902 191.781898,-244.899902 192.881898,-245.099902 C192.981898,-244.099902 192.981898,-243.099902 192.881898,-241.999902 C192.781898,-241.199902 192.681898,-239.899902 193.381898,-239.299902 C194.281898,-238.499902 195.081898,-238.499902 196.181898,-238.599902 C197.381898,-238.799902 198.281898,-238.899902 199.281898,-238.799902 C199.181898,-238.599902 198.981898,-238.399902 198.881898,-238.199902 C198.081898,-237.099902 197.181898,-236.399902 196.681898,-235.199902 C195.781898,-233.199902 197.981898,-231.599902 199.281898,-230.299902 C198.881898,-228.799902 198.481898,-227.299902 199.081898,-225.699902 C199.781898,-223.799902 201.981898,-223.299902 203.781898,-223.099902 C206.781898,-222.799902 210.281898,-223.599902 213.181898,-224.299902 C213.481898,-224.399902 213.681898,-224.399902 213.981898,-224.499902 C215.581898,-223.099902 217.381898,-221.799902 218.781898,-220.499902 C220.281898,-219.199902 221.681898,-217.899902 223.081898,-216.599902 C221.281898,-213.199902 219.781898,-209.699902 218.381898,-206.099902 C217.181898,-202.799902 216.081898,-199.499902 215.281898,-196.099902 C214.581898,-193.399902 213.681898,-190.299902 213.581898,-187.399902 C212.381898,-186.499902 211.281898,-185.699902 210.081898,-184.899902 C208.481898,-183.799902 208.481898,-183.299902 208.181898,-181.299902 C207.281898,-175.599902 205.781898,-170.099902 203.881898,-164.799902 C200.681898,-163.299902 197.581898,-161.499902 194.781898,-159.299902 C190.281898,-155.799902 185.981898,-151.799902 185.081898,-146.099902 C184.681898,-143.499902 181.981898,-142.699902 180.681898,-140.699902 C180.181898,-139.899902 179.881898,-139.099902 179.881898,-138.299902 C177.581898,-136.499902 175.381898,-134.599902 173.181898,-132.699902 C170.681898,-130.499902 168.081898,-128.299902 165.581898,-126.199902 C163.281898,-124.199902 160.581898,-122.399902 158.381898,-120.299902 C156.381898,-119.399902 154.481898,-118.299902 152.681898,-117.099902 C147.481898,-113.499902 142.281898,-110.099902 136.581898,-107.299902 C133.681898,-105.899902 130.681898,-104.799902 127.781898,-103.599902 C126.481898,-103.099902 124.581898,-101.799902 125.081898,-100.099902 C126.081898,-96.4999017 131.581898,-97.5999017 134.481898,-99.2999017 C137.881898,-98.5999017 141.681898,-99.1999017 145.281898,-100.299902 C144.981898,-99.8999017 144.781898,-99.4999017 144.581898,-99.0999017 C143.681898,-96.8999017 144.581898,-94.8999017 146.781898,-93.9999017 C147.381898,-93.7999017 148.081898,-93.9999017 148.481898,-94.4999017 C149.781898,-95.8999017 151.281898,-97.0999017 152.681898,-98.3999017 C155.981898,-99.6999017 159.181898,-101.399902 162.381898,-102.999902 C165.681898,-104.699902 168.781898,-107.199902 170.281898,-110.499902 C175.081898,-112.699902 179.681898,-115.399902 184.181898,-118.099902 C187.081898,-119.799902 189.981898,-121.499902 192.881898,-123.199902 C192.981898,-123.099902 192.981898,-123.099902 193.081898,-122.999902 C193.481898,-122.699902 194.081898,-122.799902 194.481898,-122.999902 C200.081898,-126.099902 205.581898,-129.399902 211.081898,-132.699902 C216.881898,-132.899902 222.781898,-133.099902 228.481898,-133.899902 C231.981898,-134.399902 233.181898,-138.199902 234.381898,-140.999902 C236.281898,-145.099902 238.381898,-149.099902 240.581898,-153.099902 C242.781898,-157.199902 245.181898,-161.199902 247.681898,-164.999902 C249.281898,-164.299902 250.881898,-163.499902 252.481898,-162.599902 C257.781898,-159.699902 261.781898,-155.399902 266.081898,-151.199902 C269.981898,-147.299902 273.981898,-144.399902 278.881898,-141.799902 C282.581898,-139.799902 284.481898,-135.899902 286.281898,-131.999902 C285.781898,-130.599902 284.881898,-129.299902 283.481898,-129.199902 C282.481898,-129.099902 281.481898,-128.199902 281.881898,-127.099902 C282.381898,-125.599902 282.781898,-123.899902 283.381898,-122.299902 C276.481898,-117.699902 270.281898,-111.899902 265.181898,-105.399902 C263.681898,-105.199902 262.181898,-104.899902 260.681898,-104.499902 C259.181898,-104.099902 257.781898,-103.599902 257.281898,-101.899902 C256.781898,-99.8999017 256.781898,-97.3999017 256.881898,-95.0999017 C255.081898,-94.4999017 253.381898,-93.7999017 251.581898,-93.1999017 C247.481898,-91.6999017 244.381898,-90.2999017 241.581898,-86.8999017 C236.081898,-80.2999017 229.481898,-74.5999017 224.181898,-67.7999017 C221.981898,-64.9999017 221.181898,-62.3999017 222.181898,-58.8999017 C223.281898,-54.9999017 225.281898,-51.1999017 227.281898,-47.7999017 C228.981898,-44.7999017 230.981898,-41.6999017 233.281898,-38.8999017 C237.381898,-27.3999017 242.181898,-16.0999017 247.481898,-5.09990173 C246.481898,-3.99990173 245.481898,-3.09990173 244.281898,-2.29990173 C243.181898,-1.59990173 242.881898,-0.0999017304 243.881898,0.90009827 C247.281898,4.30009827 251.581898,7.50009827 256.281898,9.70009827 C257.381898,13.6000983 258.781898,17.5000983 259.781898,21.4000983 C260.681898,24.7000983 261.381898,28.0000983 261.981898,31.3000983 C259.481898,37.6000983 253.481898,42.6000983 247.381898,45.9000983 C242.581898,48.5000983 237.481898,50.2000983 232.481898,52.4000983 C230.981898,53.1000983 227.781898,53.7000983 227.581898,55.7000983 C227.381898,58.3000983 227.681898,60.6000983 228.681898,63.0000983 C228.881898,63.5000983 229.281898,63.8000983 229.781898,64.0000983 C229.781898,64.1000983 229.781898,64.2000983 229.781898,64.3000983 C229.681898,65.1000983 229.981898,65.8000983 230.781898,66.0000983 C232.281898,66.5000983 233.681898,66.8000983 235.181898,67.1000983 C234.681898,68.5000983 233.881898,69.8000983 232.981898,71.0000983 C229.481898,70.2000983 225.781898,70.9000983 223.281898,74.2000983 C219.181898,79.4000983 221.581898,86.3000983 226.481898,89.9000983 C231.781898,93.8000983 240.481898,92.9000983 244.581898,87.7000983 C245.281898,86.8000983 245.781898,85.9000983 246.181898,84.8000983 C248.081898,87.7000983 251.181898,89.7000983 254.881898,90.0000983 C260.181898,90.4000983 265.581898,85.7000983 266.181898,80.6000983 C266.281898,79.8000983 266.281898,79.0000983 266.181898,78.2000983 C266.981898,77.8000983 267.881898,77.3000983 268.581898,76.8000983 C268.781898,79.1000983 269.681898,81.5000983 271.281898,83.5000983 C273.181898,85.8000983 275.781898,87.1000983 278.381898,87.4000983 C279.181898,90.9000983 281.581898,94.1000983 284.381898,95.9000983 C290.181898,99.6000983 297.381898,96.6000983 299.581898,90.6000983 C300.681898,90.5000983 301.781898,90.3000983 302.881898,90.2000983 C304.581898,94.3000983 308.781898,97.2000983 313.181898,97.4000983 C318.681898,97.7000983 322.681898,93.4000983 323.481898,88.4000983 C323.481898,88.4000983 323.581898,88.4000983 323.581898,88.4000983 C324.981898,92.7000983 328.781898,95.9000983 333.281898,97.0000983 C338.481898,98.3000983 344.281898,95.8000983 345.581898,90.7000983 C347.481898,94.2000983 351.281898,96.6000983 355.381898,97.1000983 C361.581898,97.9000983 366.781898,92.9000983 366.881898,86.9000983 C366.981898,81.7000983 362.381898,76.4000983 357.381898,74.9000983 C356.581898,73.1000983 355.881898,71.3000983 355.281898,69.5000983 C355.381898,69.5000983 355.481898,69.5000983 355.581898,69.5000983 C356.281898,69.5000983 356.781898,69.2000983 357.081898,68.8000983 C357.681898,68.7000983 358.081898,68.2000983 358.081898,67.5000983 C357.381898,59.5000983 354.281898,51.6000983 349.281898,45.2000983 C347.781898,39.9000983 345.581898,34.7000983 343.481898,29.8000983 C341.781898,25.8000983 339.881898,21.8000983 337.881898,17.8000983 C339.881898,17.5000983 341.881898,17.2000983 343.981898,17.0000983 C345.581898,16.9000983 346.381898,15.2000983 345.281898,13.9000983 C335.381898,2.50009827 330.881898,-12.1999017 323.181898,-24.9999017 C324.181898,-25.0999017 325.181898,-25.0999017 326.181898,-24.9999017 C327.181898,-24.8999017 327.981898,-26.0999017 327.681898,-26.9999017 C326.681898,-30.0999017 325.481898,-33.0999017 324.081898,-35.8999017 C325.081898,-36.7999017 325.981898,-37.7999017 326.781898,-38.7999017 C327.181898,-39.2999017 327.381898,-39.9999017 326.981898,-40.5999017 C326.081898,-41.8999017 325.381898,-43.1999017 324.681898,-44.5999017 C328.081898,-58.7999017 339.181898,-69.9999017 343.881898,-83.5999017 C349.381898,-90.2999017 354.881898,-97.0999017 359.181898,-104.699902 C364.181898,-113.799902 367.281898,-125.399902 363.181898,-135.399902 C363.081898,-135.499902 363.081898,-135.599902 362.981898,-135.699902 C362.981898,-135.999902 362.881898,-136.299902 362.681898,-136.699902 C359.681898,-141.599902 356.881898,-147.099902 353.281898,-151.599902 C351.581898,-153.699902 349.581898,-155.499902 347.181898,-156.799902 C345.081898,-157.899902 342.881898,-158.499902 340.781898,-159.599902 C338.981898,-163.699902 336.481898,-167.699902 333.981898,-171.499902 C333.981898,-171.499902 333.981898,-171.599902 333.981898,-171.599902 C334.181898,-171.499902 334.381898,-171.399902 334.581898,-171.299902 C339.181898,-169.299902 343.781898,-167.299902 348.081898,-164.599902 C350.081898,-163.299902 351.881898,-161.899902 353.581898,-160.299902 C353.581898,-158.099902 354.181898,-156.099902 355.681898,-154.799902 C357.281898,-153.499902 359.081898,-153.099902 360.781898,-153.399902 C362.881898,-152.299902 364.781898,-151.199902 366.281898,-149.599902 C368.681898,-146.999902 369.481898,-143.099902 371.481898,-140.199902 C375.681898,-133.899902 385.081898,-134.999902 390.481898,-130.499902 C390.981898,-130.099902 391.681898,-130.199902 392.081898,-130.499902 C395.381898,-133.199902 394.681898,-136.399902 392.281898,-139.099902 C394.281898,-138.399902 396.381898,-137.599902 398.381898,-136.899902 C401.181898,-135.999902 403.981898,-134.999902 406.781898,-134.099902 C408.381898,-133.599902 409.381898,-133.199902 410.781898,-134.099902 C411.181898,-134.399902 411.381898,-134.999902 411.281898,-135.499902 C410.681898,-138.799902 404.281898,-141.399902 401.681898,-142.799902 C401.281898,-142.999902 400.881898,-143.199902 400.481898,-143.399902 C403.581898,-142.999902 406.581898,-142.699902 409.681898,-142.299902 C410.581898,-142.499902 411.181898,-142.799902 411.481898,-143.199902 Z M268.381898,65.2000983 C264.681898,64.9000983 253.981898,68.2000983 253.981898,68.2000983 L255.481898,63.7000983 L275.581898,59.5000983 C275.581898,59.5000983 274.381898,62.2000983 275.981898,62.5000983 C277.581898,62.8000983 280.281898,63.8000983 280.281898,63.8000983 C280.281898,63.8000983 272.081898,65.5000983 268.381898,65.2000983 Z M314.581898,47.9000983 L304.581898,50.6000983 C304.581898,50.6000983 304.881898,43.0000983 298.781898,35.9000983 C292.681898,28.8000983 294.881898,21.8000983 293.581898,19.6000983 C292.281898,17.4000983 288.981898,15.7000983 288.481898,12.5000983 C288.081898,9.20009827 287.781898,2.50009827 291.181898,2.70009827 C291.181898,2.70009827 297.881898,9.40009827 299.681898,13.1000983 C301.481898,16.8000983 302.981898,32.0000983 302.981898,32.0000983 C302.981898,32.0000983 308.481898,30.5000983 309.981898,31.4000983 C311.481898,32.3000983 313.681898,38.7000983 314.581898,41.2000983 C315.481898,43.7000983 314.581898,47.9000983 314.581898,47.9000983 Z M331.981898,71.9000983 L329.581898,75.9000983 L323.181898,76.3000983 L320.081898,75.1000983 C319.981898,74.4000983 318.581898,72.4000983 318.581898,72.4000983 L331.981898,71.9000983 Z"/>
    <path fill="#fff" fill-rule="nonzero" d="M135.068441,118.132106 C132.949607,124.927397 128.647941,135.025102 128.647941,135.025102 C130.828788,138.577998 131.702416,142.753382 131.702416,142.753382 C131.702416,142.753382 132.07697,140.322949 132.637065,137.954517 C133.198152,135.585589 133.57221,133.217653 133.759238,131.03572 C133.946763,128.853786 133.821251,128.293299 135.943062,122.308482 C138.061896,116.324657 139.371098,112.833266 140.803829,109.249617 C142.238544,105.665473 143.016922,103.888777 143.016922,103.888777 C143.112669,100.398874 143.795796,97.6872051 143.795796,97.6872051 C143.484742,98.1856919 137.188763,111.337806 135.068441,118.132106 M151.881696,93.5931658 C151.841512,95.3391094 152.171913,96.711064 151.547822,97.3330564 C150.925715,97.9570328 150.675186,98.5393447 149.471652,100.000084 C148.266134,101.46132 148.016101,102.196402 147.269473,105.311324 C146.519373,108.42823 145.563393,113.997394 144.773605,119.482732 C143.984313,124.968566 143.236197,127.876653 141.239899,133.860974 C139.247074,139.845295 138.873512,148.405875 138.873512,148.405875 C139.704476,148.529876 139.911349,148.987691 139.911349,148.987691 C140.367759,148.946026 140.866834,149.277855 140.866834,149.277855 L139.660819,151.314458 L139.870173,152.104597 C139.870173,152.104597 140.159894,152.145269 140.194125,153.143235 C140.224883,154.140704 140.118222,154.430868 140.118222,154.430868 C140.118222,154.430868 140.452592,154.764185 139.704476,159.62505 C138.955368,164.4879 136.462476,167.645975 133.177812,168.186622 C129.893147,168.726277 128.190539,169.266429 128.190539,169.266429 L127.774313,169.059098 L127.192886,169.390926 C128.148867,172.63233 126.195233,175.458576 123.744013,179.738618 C121.291305,184.01866 120.833903,187.177231 120.54319,188.839349 C120.251484,190.500972 120.335324,194.573683 116.428057,198.106739 C112.52079,201.638802 109.445479,199.145873 109.445479,199.145873 C108.240457,200.141854 105.289666,198.896877 100.177377,195.654481 C95.0635997,192.413574 94.7733824,186.595415 94.3998207,181.484562 C94.2321396,179.182099 94.3670782,177.4927 94.5665096,176.3251 C94.3006011,178.146933 94.7317102,179.448454 94.7317102,179.448454 C94.3998207,176.49771 96.0632371,172.756828 98.2232475,170.679056 C100.384746,168.60178 102.046674,167.438148 99.9283361,165.527034 C97.8080135,163.614928 96.1044132,165.069716 96.1044132,165.069716 C96.1867654,164.031574 97.0182256,163.490431 97.0182256,163.490431 C95.272457,163.656593 94.9405674,165.733869 94.9405674,165.733869 C94.7733824,162.784117 97.2260906,162.160637 97.2260906,162.160637 C95.1062642,162.28563 94.4826691,164.612398 94.4826691,164.612398 C94.6066935,161.329825 97.4756279,161.370994 97.4756279,161.370994 C93.4016717,160.249027 91.5313825,162.035643 91.5313825,162.035643 C94.3581485,158.628573 97.4344517,159.750044 97.4344517,159.750044 C96.0210687,157.797266 94.1091073,158.046757 94.1091073,158.046757 C95.3969775,157.547774 96.8108566,158.046757 96.8108566,158.046757 C96.0210687,157.049288 95.272457,156.799796 95.272457,156.799796 L96.4462247,157.152953 C96.4462247,157.152953 96.1029249,156.654466 95.6033543,155.408001 C95.1062642,154.161041 94.2331318,150.825891 93.2652447,150.265404 C92.2998382,149.70442 92.4566051,148.956442 92.4566051,148.956442 L93.0166997,148.332962 L92.9239294,147.865723 L93.2047208,147.522487 L93.9840906,147.200082 C93.9840906,147.200082 90.7415945,141.465749 90.0768233,138.307178 C89.4130443,135.1496 87.9148285,133.57081 87.9148285,133.57081 C87.9148285,133.57081 84.4227952,132.074358 77.6912423,129.497603 C70.9582012,126.920352 64.6820663,124.844068 61.5640908,124.427423 C58.4471075,124.011769 57.4489584,124.760243 55.5786692,123.9706 C53.70838,123.180958 52.3788376,123.306447 50.3418595,123.555939 C48.3053774,123.80543 49.2613582,121.892828 49.2613582,121.892828 L50.2173389,120.937519 C50.2173389,120.937519 50.1751705,120.355208 49.4692232,119.981715 C48.7627797,119.607229 48.9299647,118.859747 49.4692232,118.319596 C50.0099699,117.778949 50.4668761,117.778949 50.4668761,117.778949 C50.4668761,117.778949 50.1751705,117.488289 50.8419262,116.739815 C51.5057052,115.992333 51.7135702,115.015199 52.897756,114.891198 C54.0824379,114.765708 56.0147393,115.203186 56.0147393,115.203186 C56.0147393,115.203186 58.758657,113.582236 68.0485868,107.286423 C77.3380206,100.99061 87.9356646,95.9412615 87.9356646,95.9412615 C89.7444377,87.9634897 91.5522186,81.4176892 92.050797,74.1249026 C92.5493754,66.8321161 91.3637014,62.5302499 90.9906357,53.2425244 C90.6160818,43.9552948 93.7965656,35.9135381 95.5428303,30.802189 C97.2876068,25.691336 97.9737102,24.507864 97.5366479,22.9489149 C97.10157,21.3904618 97.5366479,19.6455102 97.5366479,19.6455102 C95.6663587,14.9076542 96.6019994,8.86182846 96.6019994,8.86182846 C95.1687725,4.56095433 96.6019994,1.19455682 96.6019994,1.19455682 C100.405086,-0.426889097 104.582727,0.0725896544 104.582727,0.0725896544 C105.952949,1.83886953 106.120134,3.66715024 106.202983,5.45475841 C106.286823,7.24137456 105.745084,8.52851196 105.745084,8.52851196 L105.787253,12.227234 C105.828925,15.926948 105.040129,18.2110588 104.33319,21.1622987 C103.62625,24.1135386 102.961975,27.3539504 102.961975,27.3539504 C102.961975,27.3539504 102.587421,44.1417934 102.254043,49.8781109 C101.92265,55.6129404 102.295715,60.9732849 102.295715,60.9732849 C102.337884,58.8111916 103.377209,57.1079046 104.91412,55.4447941 C106.451528,53.7836677 107.118779,53.0346976 108.988076,50.5001033 C110.858366,47.9665011 116.593754,34.4180779 118.215002,30.3865354 C119.837242,26.357473 120.043619,24.5286962 119.920091,23.03274 C119.794082,21.5352958 120.085787,18.4183896 120.043619,13.639861 C120.003931,8.86083645 119.336679,8.98583014 119.336679,8.98583014 C118.298346,8.19569146 117.634071,6.45073987 117.634071,6.45073987 C116.760443,4.37346379 117.674751,0.84239206 117.674751,0.84239206 C119.336679,0.177247069 122.663512,0.260080189 125.406438,0.96589773 C128.148867,1.67270728 128.107691,2.75251388 128.190539,4.04064329 C128.273387,5.3287727 129.31172,6.49240443 129.31172,6.49240443 L129.31172,5.62042465 L130.476062,5.74492233 C130.476062,7.78053385 130.559903,13.0178686 131.433035,15.8009623 C132.305671,18.5865359 131.848269,20.663316 131.142322,21.327965 C130.434886,21.992614 130.433894,22.6994235 130.102501,23.5302347 C129.770115,24.361046 128.731782,24.361046 128.731782,24.361046 C128.357228,24.8600287 127.858154,25.2340178 126.777652,26.6471409 C125.697151,28.059768 125.905016,31.3433324 124.283272,40.2362366 C122.663512,49.1291408 118.71358,55.5697878 116.510906,57.9387159 C114.308231,60.3066519 115.139691,64.5876857 115.887807,69.9896948 C116.63493,75.3917038 120.377493,86.1138807 120.377493,86.1138807 C120.377493,86.1138807 127.360567,87.1108542 135.173118,86.9863565 C142.987652,86.8613628 146.227668,89.4802782 146.227668,89.4802782 C148.098949,88.8558058 149.595677,89.979261 151.008564,90.5184202 C152.42145,91.0590676 151.922376,91.8477182 151.881696,93.5931658" transform="matrix(1 0 0 -1 0 200)"/>
  </g>
</svg>
