<svg xmlns="http://www.w3.org/2000/svg" width="200" height="200" viewBox="0 0 200 200">
  <g fill="none" fill-rule="evenodd">
    <path fill="#fff" fill-rule="nonzero" d="M411.481898,-143.199902 C411.781898,-143.599902 411.981898,-143.999902 412.281898,-144.399902 C412.881898,-145.199902 412.581898,-146.599902 411.581898,-146.899902 C407.381898,-148.099902 403.081898,-149.099902 398.781898,-149.699902 C402.481898,-150.199902 406.181898,-150.699902 409.881898,-151.399902 C411.481898,-151.699902 411.681898,-153.899902 410.181898,-154.599902 C408.181898,-155.499902 406.081898,-155.599902 403.981898,-155.199902 C402.281898,-155.099902 400.481898,-154.999902 398.781898,-154.799902 C398.981898,-155.599902 399.281898,-156.399902 399.681898,-157.099902 C402.281898,-157.599902 404.781898,-158.199902 407.381898,-158.699902 C409.481898,-159.099902 410.581898,-160.899902 409.281898,-162.699902 C408.981898,-163.199902 408.381898,-163.299902 407.781898,-163.199902 C402.481898,-162.599902 396.981898,-162.399902 391.681898,-162.499902 C387.281898,-165.399902 381.681898,-166.999902 376.181898,-167.599902 C375.781898,-167.899902 375.281898,-168.099902 374.881898,-168.399902 C369.881898,-171.599902 364.781898,-174.699902 360.181898,-178.499902 C353.781898,-183.799902 349.881898,-191.399902 343.481898,-196.299902 C343.181898,-196.799902 342.881898,-197.299902 342.581898,-197.799902 C342.181898,-198.399902 341.781898,-198.999902 341.281898,-199.599902 C340.881898,-208.099902 335.381898,-215.999902 328.381898,-220.399902 C321.581898,-224.699902 313.381898,-224.999902 306.081898,-222.399902 C304.581898,-223.899902 302.981898,-225.099902 301.181898,-225.999902 C301.081898,-226.299902 300.881898,-226.499902 300.581898,-226.699902 C298.481898,-227.899902 296.081898,-228.699902 293.981898,-229.899902 C291.781898,-231.099902 289.781898,-232.599902 287.781898,-234.099902 C283.681898,-237.099902 279.781898,-240.199902 275.381898,-242.699902 C268.281898,-246.699902 258.081898,-249.099902 250.081898,-245.999902 C249.781898,-246.299902 249.481898,-246.599902 249.181898,-246.899902 C250.181898,-247.099902 251.181898,-247.299902 252.281898,-247.599902 C253.181898,-247.799902 253.581898,-248.699902 253.381898,-249.599902 C253.281898,-250.299902 253.181898,-250.899902 253.081898,-251.499902 C256.181898,-261.499902 256.681898,-272.999902 254.081898,-283.199902 C251.281898,-293.899902 241.381898,-297.299902 231.581898,-299.399902 C222.081898,-301.499902 210.481898,-301.999902 201.381898,-297.999902 C192.681898,-294.199902 187.681898,-285.599902 185.181898,-276.799902 C185.081898,-276.699902 184.981898,-276.599902 184.881898,-276.499902 C184.381898,-275.999902 184.481898,-274.999902 185.081898,-274.699902 C187.181898,-273.399902 189.381898,-272.199902 191.681898,-270.999902 C191.581898,-270.199902 191.481898,-269.499902 191.281898,-268.699902 C190.781898,-266.299902 189.281898,-263.999902 189.281898,-261.599902 C189.281898,-260.299902 190.581898,-259.099902 191.381898,-258.199902 C191.881898,-257.699902 192.281898,-257.199902 192.781898,-256.599902 C191.781898,-254.399902 190.481898,-252.399902 189.181898,-250.399902 C187.981898,-248.599902 187.381898,-246.499902 188.681898,-244.599902 C188.881898,-244.299902 189.281898,-243.999902 189.681898,-244.199902 C190.781898,-244.599902 191.781898,-244.899902 192.881898,-245.099902 C192.981898,-244.099902 192.981898,-243.099902 192.881898,-241.999902 C192.781898,-241.199902 192.681898,-239.899902 193.381898,-239.299902 C194.281898,-238.499902 195.081898,-238.499902 196.181898,-238.599902 C197.381898,-238.799902 198.281898,-238.899902 199.281898,-238.799902 C199.181898,-238.599902 198.981898,-238.399902 198.881898,-238.199902 C198.081898,-237.099902 197.181898,-236.399902 196.681898,-235.199902 C195.781898,-233.199902 197.981898,-231.599902 199.281898,-230.299902 C198.881898,-228.799902 198.481898,-227.299902 199.081898,-225.699902 C199.781898,-223.799902 201.981898,-223.299902 203.781898,-223.099902 C206.781898,-222.799902 210.281898,-223.599902 213.181898,-224.299902 C213.481898,-224.399902 213.681898,-224.399902 213.981898,-224.499902 C215.581898,-223.099902 217.381898,-221.799902 218.781898,-220.499902 C220.281898,-219.199902 221.681898,-217.899902 223.081898,-216.599902 C221.281898,-213.199902 219.781898,-209.699902 218.381898,-206.099902 C217.181898,-202.799902 216.081898,-199.499902 215.281898,-196.099902 C214.581898,-193.399902 213.681898,-190.299902 213.581898,-187.399902 C212.381898,-186.499902 211.281898,-185.699902 210.081898,-184.899902 C208.481898,-183.799902 208.481898,-183.299902 208.181898,-181.299902 C207.281898,-175.599902 205.781898,-170.099902 203.881898,-164.799902 C200.681898,-163.299902 197.581898,-161.499902 194.781898,-159.299902 C190.281898,-155.799902 185.981898,-151.799902 185.081898,-146.099902 C184.681898,-143.499902 181.981898,-142.699902 180.681898,-140.699902 C180.181898,-139.899902 179.881898,-139.099902 179.881898,-138.299902 C177.581898,-136.499902 175.381898,-134.599902 173.181898,-132.699902 C170.681898,-130.499902 168.081898,-128.299902 165.581898,-126.199902 C163.281898,-124.199902 160.581898,-122.399902 158.381898,-120.299902 C156.381898,-119.399902 154.481898,-118.299902 152.681898,-117.099902 C147.481898,-113.499902 142.281898,-110.099902 136.581898,-107.299902 C133.681898,-105.899902 130.681898,-104.799902 127.781898,-103.599902 C126.481898,-103.099902 124.581898,-101.799902 125.081898,-100.099902 C126.081898,-96.4999017 131.581898,-97.5999017 134.481898,-99.2999017 C137.881898,-98.5999017 141.681898,-99.1999017 145.281898,-100.299902 C144.981898,-99.8999017 144.781898,-99.4999017 144.581898,-99.0999017 C143.681898,-96.8999017 144.581898,-94.8999017 146.781898,-93.9999017 C147.381898,-93.7999017 148.081898,-93.9999017 148.481898,-94.4999017 C149.781898,-95.8999017 151.281898,-97.0999017 152.681898,-98.3999017 C155.981898,-99.6999017 159.181898,-101.399902 162.381898,-102.999902 C165.681898,-104.699902 168.781898,-107.199902 170.281898,-110.499902 C175.081898,-112.699902 179.681898,-115.399902 184.181898,-118.099902 C187.081898,-119.799902 189.981898,-121.499902 192.881898,-123.199902 C192.981898,-123.099902 192.981898,-123.099902 193.081898,-122.999902 C193.481898,-122.699902 194.081898,-122.799902 194.481898,-122.999902 C200.081898,-126.099902 205.581898,-129.399902 211.081898,-132.699902 C216.881898,-132.899902 222.781898,-133.099902 228.481898,-133.899902 C231.981898,-134.399902 233.181898,-138.199902 234.381898,-140.999902 C236.281898,-145.099902 238.381898,-149.099902 240.581898,-153.099902 C242.781898,-157.199902 245.181898,-161.199902 247.681898,-164.999902 C249.281898,-164.299902 250.881898,-163.499902 252.481898,-162.599902 C257.781898,-159.699902 261.781898,-155.399902 266.081898,-151.199902 C269.981898,-147.299902 273.981898,-144.399902 278.881898,-141.799902 C282.581898,-139.799902 284.481898,-135.899902 286.281898,-131.999902 C285.781898,-130.599902 284.881898,-129.299902 283.481898,-129.199902 C282.481898,-129.099902 281.481898,-128.199902 281.881898,-127.099902 C282.381898,-125.599902 282.781898,-123.899902 283.381898,-122.299902 C276.481898,-117.699902 270.281898,-111.899902 265.181898,-105.399902 C263.681898,-105.199902 262.181898,-104.899902 260.681898,-104.499902 C259.181898,-104.099902 257.781898,-103.599902 257.281898,-101.899902 C256.781898,-99.8999017 256.781898,-97.3999017 256.881898,-95.0999017 C255.081898,-94.4999017 253.381898,-93.7999017 251.581898,-93.1999017 C247.481898,-91.6999017 244.381898,-90.2999017 241.581898,-86.8999017 C236.081898,-80.2999017 229.481898,-74.5999017 224.181898,-67.7999017 C221.981898,-64.9999017 221.181898,-62.3999017 222.181898,-58.8999017 C223.281898,-54.9999017 225.281898,-51.1999017 227.281898,-47.7999017 C228.981898,-44.7999017 230.981898,-41.6999017 233.281898,-38.8999017 C237.381898,-27.3999017 242.181898,-16.0999017 247.481898,-5.09990173 C246.481898,-3.99990173 245.481898,-3.09990173 244.281898,-2.29990173 C243.181898,-1.59990173 242.881898,-0.0999017304 243.881898,0.90009827 C247.281898,4.30009827 251.581898,7.50009827 256.281898,9.70009827 C257.381898,13.6000983 258.781898,17.5000983 259.781898,21.4000983 C260.681898,24.7000983 261.381898,28.0000983 261.981898,31.3000983 C259.481898,37.6000983 253.481898,42.6000983 247.381898,45.9000983 C242.581898,48.5000983 237.481898,50.2000983 232.481898,52.4000983 C230.981898,53.1000983 227.781898,53.7000983 227.581898,55.7000983 C227.381898,58.3000983 227.681898,60.6000983 228.681898,63.0000983 C228.881898,63.5000983 229.281898,63.8000983 229.781898,64.0000983 C229.781898,64.1000983 229.781898,64.2000983 229.781898,64.3000983 C229.681898,65.1000983 229.981898,65.8000983 230.781898,66.0000983 C232.281898,66.5000983 233.681898,66.8000983 235.181898,67.1000983 C234.681898,68.5000983 233.881898,69.8000983 232.981898,71.0000983 C229.481898,70.2000983 225.781898,70.9000983 223.281898,74.2000983 C219.181898,79.4000983 221.581898,86.3000983 226.481898,89.9000983 C231.781898,93.8000983 240.481898,92.9000983 244.581898,87.7000983 C245.281898,86.8000983 245.781898,85.9000983 246.181898,84.8000983 C248.081898,87.7000983 251.181898,89.7000983 254.881898,90.0000983 C260.181898,90.4000983 265.581898,85.7000983 266.181898,80.6000983 C266.281898,79.8000983 266.281898,79.0000983 266.181898,78.2000983 C266.981898,77.8000983 267.881898,77.3000983 268.581898,76.8000983 C268.781898,79.1000983 269.681898,81.5000983 271.281898,83.5000983 C273.181898,85.8000983 275.781898,87.1000983 278.381898,87.4000983 C279.181898,90.9000983 281.581898,94.1000983 284.381898,95.9000983 C290.181898,99.6000983 297.381898,96.6000983 299.581898,90.6000983 C300.681898,90.5000983 301.781898,90.3000983 302.881898,90.2000983 C304.581898,94.3000983 308.781898,97.2000983 313.181898,97.4000983 C318.681898,97.7000983 322.681898,93.4000983 323.481898,88.4000983 C323.481898,88.4000983 323.581898,88.4000983 323.581898,88.4000983 C324.981898,92.7000983 328.781898,95.9000983 333.281898,97.0000983 C338.481898,98.3000983 344.281898,95.8000983 345.581898,90.7000983 C347.481898,94.2000983 351.281898,96.6000983 355.381898,97.1000983 C361.581898,97.9000983 366.781898,92.9000983 366.881898,86.9000983 C366.981898,81.7000983 362.381898,76.4000983 357.381898,74.9000983 C356.581898,73.1000983 355.881898,71.3000983 355.281898,69.5000983 C355.381898,69.5000983 355.481898,69.5000983 355.581898,69.5000983 C356.281898,69.5000983 356.781898,69.2000983 357.081898,68.8000983 C357.681898,68.7000983 358.081898,68.2000983 358.081898,67.5000983 C357.381898,59.5000983 354.281898,51.6000983 349.281898,45.2000983 C347.781898,39.9000983 345.581898,34.7000983 343.481898,29.8000983 C341.781898,25.8000983 339.881898,21.8000983 337.881898,17.8000983 C339.881898,17.5000983 341.881898,17.2000983 343.981898,17.0000983 C345.581898,16.9000983 346.381898,15.2000983 345.281898,13.9000983 C335.381898,2.50009827 330.881898,-12.1999017 323.181898,-24.9999017 C324.181898,-25.0999017 325.181898,-25.0999017 326.181898,-24.9999017 C327.181898,-24.8999017 327.981898,-26.0999017 327.681898,-26.9999017 C326.681898,-30.0999017 325.481898,-33.0999017 324.081898,-35.8999017 C325.081898,-36.7999017 325.981898,-37.7999017 326.781898,-38.7999017 C327.181898,-39.2999017 327.381898,-39.9999017 326.981898,-40.5999017 C326.081898,-41.8999017 325.381898,-43.1999017 324.681898,-44.5999017 C328.081898,-58.7999017 339.181898,-69.9999017 343.881898,-83.5999017 C349.381898,-90.2999017 354.881898,-97.0999017 359.181898,-104.699902 C364.181898,-113.799902 367.281898,-125.399902 363.181898,-135.399902 C363.081898,-135.499902 363.081898,-135.599902 362.981898,-135.699902 C362.981898,-135.999902 362.881898,-136.299902 362.681898,-136.699902 C359.681898,-141.599902 356.881898,-147.099902 353.281898,-151.599902 C351.581898,-153.699902 349.581898,-155.499902 347.181898,-156.799902 C345.081898,-157.899902 342.881898,-158.499902 340.781898,-159.599902 C338.981898,-163.699902 336.481898,-167.699902 333.981898,-171.499902 C333.981898,-171.499902 333.981898,-171.599902 333.981898,-171.599902 C334.181898,-171.499902 334.381898,-171.399902 334.581898,-171.299902 C339.181898,-169.299902 343.781898,-167.299902 348.081898,-164.599902 C350.081898,-163.299902 351.881898,-161.899902 353.581898,-160.299902 C353.581898,-158.099902 354.181898,-156.099902 355.681898,-154.799902 C357.281898,-153.499902 359.081898,-153.099902 360.781898,-153.399902 C362.881898,-152.299902 364.781898,-151.199902 366.281898,-149.599902 C368.681898,-146.999902 369.481898,-143.099902 371.481898,-140.199902 C375.681898,-133.899902 385.081898,-134.999902 390.481898,-130.499902 C390.981898,-130.099902 391.681898,-130.199902 392.081898,-130.499902 C395.381898,-133.199902 394.681898,-136.399902 392.281898,-139.099902 C394.281898,-138.399902 396.381898,-137.599902 398.381898,-136.899902 C401.181898,-135.999902 403.981898,-134.999902 406.781898,-134.099902 C408.381898,-133.599902 409.381898,-133.199902 410.781898,-134.099902 C411.181898,-134.399902 411.381898,-134.999902 411.281898,-135.499902 C410.681898,-138.799902 404.281898,-141.399902 401.681898,-142.799902 C401.281898,-142.999902 400.881898,-143.199902 400.481898,-143.399902 C403.581898,-142.999902 406.581898,-142.699902 409.681898,-142.299902 C410.581898,-142.499902 411.181898,-142.799902 411.481898,-143.199902 Z M268.381898,65.2000983 C264.681898,64.9000983 253.981898,68.2000983 253.981898,68.2000983 L255.481898,63.7000983 L275.581898,59.5000983 C275.581898,59.5000983 274.381898,62.2000983 275.981898,62.5000983 C277.581898,62.8000983 280.281898,63.8000983 280.281898,63.8000983 C280.281898,63.8000983 272.081898,65.5000983 268.381898,65.2000983 Z M314.581898,47.9000983 L304.581898,50.6000983 C304.581898,50.6000983 304.881898,43.0000983 298.781898,35.9000983 C292.681898,28.8000983 294.881898,21.8000983 293.581898,19.6000983 C292.281898,17.4000983 288.981898,15.7000983 288.481898,12.5000983 C288.081898,9.20009827 287.781898,2.50009827 291.181898,2.70009827 C291.181898,2.70009827 297.881898,9.40009827 299.681898,13.1000983 C301.481898,16.8000983 302.981898,32.0000983 302.981898,32.0000983 C302.981898,32.0000983 308.481898,30.5000983 309.981898,31.4000983 C311.481898,32.3000983 313.681898,38.7000983 314.581898,41.2000983 C315.481898,43.7000983 314.581898,47.9000983 314.581898,47.9000983 Z M331.981898,71.9000983 L329.581898,75.9000983 L323.181898,76.3000983 L320.081898,75.1000983 C319.981898,74.4000983 318.581898,72.4000983 318.581898,72.4000983 L331.981898,71.9000983 Z"/>
    <path fill="#fff" d="M83.2835093,85.2885587 C83.0155494,85.0411411 82.7488243,84.7937234 82.4820992,84.5499986 C82.7488243,84.7937234 83.0155494,85.0411411 83.2835093,85.2885587 Z M168.618254,156.3122 C168.079864,155.485012 167.584694,154.62459 167.141387,153.74201 C164.276562,148.023092 161.420381,142.301713 158.593835,136.564331 C157.928258,135.213997 157.205877,133.843968 156.821842,132.402544 C155.317809,126.731633 152.478916,121.635568 150.07345,116.349939 C149.332547,114.720182 148.665734,113.05596 148.060664,111.635463 C149.906747,108.984032 151.473757,106.692033 153.083986,104.432039 C153.577922,103.737792 153.558164,103.197412 152.969146,102.5881 C150.984761,100.539827 149.064587,98.4250827 147.040687,96.4211227 C145.332906,94.7285889 144.184506,92.8071015 143.696745,90.4326305 C142.991652,87.0044803 141.70742,83.7745104 140.2145,80.5999325 C138.832716,77.659232 137.464515,74.6582157 136.600128,71.5451845 C135.147958,66.3026381 133.028975,61.3444373 130.787744,56.4256265 C130.048075,54.800794 128.998463,53.3113643 128.031584,51.796085 C127.18572,50.4728313 126.254652,49.2062006 125.374212,47.9051037 C124.648127,46.8317296 124.467841,45.6524951 124.797542,44.4080212 C125.004995,43.6239165 125.205039,42.8262715 125.522393,42.0840185 C126.043494,40.8703179 126.068191,39.7526301 125.311235,38.6103237 C124.730861,37.7338989 124.597499,36.7737707 125.207509,35.8173352 C126.574475,33.6755107 127.311674,31.2714973 127.890813,28.845327 C128.809533,24.9949666 128.474891,21.3267843 125.668104,18.2211387 C124.030708,16.4067425 122.397017,14.5898844 120.707758,12.8222637 C119.079006,11.1174206 117.808357,9.20701154 116.929152,7.01718057 C116.29815,5.4563567 115.607875,3.91153496 114.865737,2.39994844 C113.750678,0.135030515 113.038176,-0.219478377 110.579613,0.101795306 C110.175821,0.15349452 109.778203,0.24458361 109.375645,0.317208696 C106.002067,0.922828053 102.803835,2.28424067 99.3438179,2.55258421 C98.0324195,2.6547517 96.9445269,3.9238443 96.7123772,5.21755557 C96.2653657,7.72619835 97.9719124,11.7070378 101.366483,12.2166443 C103.207627,12.4936044 105.043832,12.8099543 106.888681,13.0438317 C107.964225,13.1804654 108.644621,13.6679151 109.208942,14.6231196 C111.038973,17.7250724 111.704551,21.239388 112.89123,24.5653707 C112.977669,24.8078647 112.986313,25.2140728 112.841837,25.3777869 C112.028078,26.303449 112.135509,27.4014419 112.060184,28.5043584 C112.007086,29.2983106 111.755179,30.1033412 111.466227,30.8529798 C110.977231,32.1122249 110.416614,32.4962762 109.058292,32.3817994 C107.671568,32.2648607 106.303367,31.9411252 104.920348,31.7860275 C103.082909,31.5804616 102.30743,30.5206277 102.229635,28.7665473 C102.138257,26.7552017 101.459096,24.9112631 100.613232,23.1005597 C100.305757,22.4395483 100.261303,21.6554436 100.104478,20.9267308 C99.8538062,19.7425727 99.7352617,18.5141009 99.3388786,17.3816419 C98.6436645,15.3912222 96.9148907,14.152903 95.5689169,12.6388546 C94.4538578,11.3857641 93.3066929,10.1511376 92.3101782,8.80572716 C91.5075333,7.71635088 90.6184496,7.02333524 89.2304912,6.7734557 C87.9363805,6.53957831 86.5323692,6.20476436 85.4827566,5.47605163 C82.8587249,3.6567317 79.8136133,3.16558917 76.8450617,2.19561345 C76.6462528,2.76184293 76.4820192,3.22836678 76.2745664,3.81675307 C74.4457707,3.45855138 72.6873608,3.11265902 70.812876,2.74460986 C70.6683999,4.40513936 69.2359873,3.84998828 68.0221412,4.2057281 C68.1394508,4.9553667 68.253056,5.67546289 68.382714,6.49649563 C66.7107428,6.87316133 65.0264231,7.25105796 63.2075061,7.658497 C63.3359293,8.47460601 63.4482996,9.18977846 63.5878364,10.071127 C63.0420378,10.2730001 62.459194,10.4982609 61.8689413,10.701365 C61.3194382,10.8909288 60.7427686,11.0140221 60.2080836,11.2380521 C59.1708193,11.6750335 59.005351,12.3249665 59.6363534,13.2457049 C59.815405,13.5066628 59.9586462,13.7934703 60.1302888,14.0913563 C58.5892104,14.9185437 57.1642069,15.6804916 55.8058846,16.4079734 C55.3144189,18.2851472 57.5593552,18.5067153 57.7260583,20.0810794 C57.3679552,20.4565142 56.9073605,20.8910338 56.5010986,21.3710979 C55.8947929,22.0911941 56.0553219,22.8876082 56.880194,23.3602867 C57.1802598,23.5338483 57.4976132,23.7369524 57.8310196,23.7911135 C58.9473135,23.9757535 59.2794851,24.7672438 59.5375663,25.7199865 C59.9808733,27.342357 60.3970139,28.9868844 61.0107286,30.5489392 C63.0766133,35.7964094 66.2933674,40.2080756 70.7585431,43.7137746 C72.3576589,44.9693269 73.8789798,46.3332014 75.3533769,47.7340039 C76.377058,48.7076725 76.6956463,51.1203024 75.9905536,52.1050493 C74.5062778,54.1804035 73.1146148,56.3493086 71.3981894,58.2190968 C70.0596246,59.680215 69.6027344,61.3001237 69.468137,63.1083653 C69.3866376,64.2014343 69.4434402,65.3141984 69.5274092,66.4084984 C69.7607937,69.5104512 69.482955,72.4499207 67.2540717,74.8994787 C66.6687582,75.5420261 66.2069287,76.3015121 65.5870398,76.9083624 C64.9449238,77.5361386 64.6646155,78.2242305 64.7918038,79.0920387 C65.104218,81.1932425 64.1015292,82.7848397 62.803714,84.2718075 C61.4639143,85.8067818 60.1068268,87.3257539 58.8164207,88.9025799 C54.7575068,93.8521642 50.3775348,98.512479 46.0210249,103.199874 C44.6096045,104.718846 43.4118113,106.501238 42.4214708,108.327944 C41.1273602,110.707339 39.501078,112.796233 37.6759868,114.75711 C36.7807289,115.720931 35.6730788,116.327782 34.3764985,116.609666 C33.5812625,116.785689 32.7773827,116.969098 32.0179571,117.26206 C31.2721147,117.55133 30.5003406,117.876296 29.8792169,118.363746 C27.1922085,120.471104 26.6056602,123.335487 27.2255491,126.506372 C27.3576768,127.179693 27.8256806,127.930562 28.3677747,128.355234 C29.992822,129.635405 31.8450797,130.387506 33.9714715,130.559837 C35.6063975,130.694008 37.1956346,130.739553 38.8355,130.535218 C40.6692351,130.306264 42.0312619,129.440918 42.9981404,127.984723 C43.7328693,126.87319 44.4663633,125.690263 44.8491632,124.435942 C45.6863836,121.689729 47.0545846,119.349724 49.1599842,117.388847 C50.5639954,116.084057 51.8297048,114.631555 53.2077845,113.299685 C54.3388965,112.207847 55.5576821,111.210791 56.7134908,110.146033 C58.9374348,108.097759 61.1490305,106.032253 63.3606261,103.969208 C64.8078567,102.622566 66.2970719,101.315315 67.6763864,99.8985103 C69.4199783,98.103809 71.0647831,96.2143258 72.7676253,94.3826966 C73.5739747,93.5136574 74.5285049,92.872341 75.7151846,92.612614 C76.7956682,92.3787366 77.8600989,92.0537701 78.9479916,91.8765157 C80.7310983,91.5823225 81.8214606,90.4707894 82.6858475,89.0109021 C83.0982836,88.3129627 83.6095067,87.6741082 84.0466395,86.9934019 C84.7233309,85.9347989 85.6346417,85.8129365 86.7818066,86.1219008 C88.6352991,86.6228908 90.5196625,87.0069421 92.3817989,87.4673113 C94.4662061,87.9855344 96.5950676,88.3892806 98.6029149,89.1143005 C100.635459,89.8503989 102.172833,91.2647416 102.875456,93.4299539 C103.834925,96.3928112 104.921583,99.2879672 105.593335,102.36407 C106.638009,107.161019 106.424381,111.940734 106.305837,116.759839 C106.219398,120.234765 106.095914,123.74785 106.493532,127.183386 C106.870158,130.447822 107.688856,133.674099 109.285502,136.666498 C110.86733,139.639203 112.129335,142.774391 114.38662,145.361814 C114.866972,145.91081 115.22631,146.648139 115.41277,147.357157 C116.06847,149.825179 116.631556,152.316589 117.204521,154.804306 C117.262558,155.055416 117.1329,155.349609 117.063749,155.790284 C115.420179,155.549021 113.940843,155.235133 112.650437,154.222074 C110.674695,152.672329 108.514963,151.605109 105.884757,151.980544 C103.177991,152.367057 100.469991,152.666174 97.7323538,152.294432 C97.2161913,152.223038 96.6815063,152.251349 96.1604045,152.293201 C94.1031636,152.456915 93.2511251,153.157317 92.6966827,155.118194 C92.5855472,155.507169 92.5324492,155.912146 92.4608285,156.3122 C92.121248,158.188142 91.9891202,158.291541 90.0603026,158.111825 C87.5190051,157.873023 85.2222057,156.931359 82.9797391,155.757048 C81.2830711,154.870776 79.5370095,154.028818 77.7279712,153.413351 C74.3074688,152.250119 70.8474515,152.506153 67.404722,153.482283 C66.4835325,153.74201 66.0525739,154.325473 65.8883404,155.183433 C65.5228282,157.0643 65.0251883,158.934088 64.843667,160.833419 C64.4250568,165.222928 64.0558401,169.623516 63.8619705,174.026566 C63.6051241,179.864884 62.3912779,185.538257 61.3157337,191.244866 C61.0057892,192.886931 60.8415557,194.586851 60.8637828,196.257228 C60.8897144,198.136863 62.4801863,199.883558 64.179324,199.983264 C65.8241288,200.079277 67.4010174,199.78016 68.7371126,198.616927 C70.4473638,197.128729 71.3080462,195.182622 71.9168216,193.106037 C73.0207671,189.352921 74.3716804,185.705664 76.5721625,182.446152 C78.0366808,180.278478 79.5444186,178.100956 81.8041729,176.649685 C86.3545525,173.727449 91.2914365,174.494321 96.2048586,175.290735 C96.9704585,175.415059 97.3162132,176.08838 97.4421668,176.825709 C97.791626,178.88383 98.1534337,180.938258 98.4744917,183.001303 C98.9276774,185.914923 98.9190335,188.899937 100.187213,191.674462 C101.247939,193.99231 102.834706,195.148156 105.32908,195.077993 C108.055603,195.000444 109.3386,194.037854 110.212866,191.43566 C111.005632,189.072268 111.299524,186.695335 110.562325,184.251932 C110.064685,182.604942 110.491939,181.073661 111.321751,179.354047 C113.792662,180.106147 116.288271,180.68961 118.643108,181.628812 C121.34123,182.704648 123.918338,184.088217 126.542369,185.347463 C130.425936,187.217251 134.468797,188.198305 138.833951,188.077673 C142.387816,187.977968 145.22177,186.744572 147.588955,184.125145 C148.731181,182.862208 149.651136,181.488486 150.530341,180.054448 C151.382379,178.664724 151.551552,178.656107 153.051881,179.378665 C153.316136,179.50299 153.564339,179.658087 153.828594,179.781181 C156.293331,180.932104 158.692623,182.276283 161.617955,181.479869 C163.072594,181.082277 164.685293,181.175828 166.075722,180.65022 C171.648547,178.540399 175.732158,172.771013 173.264951,166.245834 C171.972075,162.8263 170.640919,159.403074 168.618254,156.3122 Z"/>
  </g>
</svg>
