<svg xmlns="http://www.w3.org/2000/svg" width="200" height="200" viewBox="0 0 200 200">
  <g fill="none" fill-rule="evenodd">
    <path fill="#fff" fill-rule="nonzero" d="M411.481898,-143.199902 C411.781898,-143.599902 411.981898,-143.999902 412.281898,-144.399902 C412.881898,-145.199902 412.581898,-146.599902 411.581898,-146.899902 C407.381898,-148.099902 403.081898,-149.099902 398.781898,-149.699902 C402.481898,-150.199902 406.181898,-150.699902 409.881898,-151.399902 C411.481898,-151.699902 411.681898,-153.899902 410.181898,-154.599902 C408.181898,-155.499902 406.081898,-155.599902 403.981898,-155.199902 C402.281898,-155.099902 400.481898,-154.999902 398.781898,-154.799902 C398.981898,-155.599902 399.281898,-156.399902 399.681898,-157.099902 C402.281898,-157.599902 404.781898,-158.199902 407.381898,-158.699902 C409.481898,-159.099902 410.581898,-160.899902 409.281898,-162.699902 C408.981898,-163.199902 408.381898,-163.299902 407.781898,-163.199902 C402.481898,-162.599902 396.981898,-162.399902 391.681898,-162.499902 C387.281898,-165.399902 381.681898,-166.999902 376.181898,-167.599902 C375.781898,-167.899902 375.281898,-168.099902 374.881898,-168.399902 C369.881898,-171.599902 364.781898,-174.699902 360.181898,-178.499902 C353.781898,-183.799902 349.881898,-191.399902 343.481898,-196.299902 C343.181898,-196.799902 342.881898,-197.299902 342.581898,-197.799902 C342.181898,-198.399902 341.781898,-198.999902 341.281898,-199.599902 C340.881898,-208.099902 335.381898,-215.999902 328.381898,-220.399902 C321.581898,-224.699902 313.381898,-224.999902 306.081898,-222.399902 C304.581898,-223.899902 302.981898,-225.099902 301.181898,-225.999902 C301.081898,-226.299902 300.881898,-226.499902 300.581898,-226.699902 C298.481898,-227.899902 296.081898,-228.699902 293.981898,-229.899902 C291.781898,-231.099902 289.781898,-232.599902 287.781898,-234.099902 C283.681898,-237.099902 279.781898,-240.199902 275.381898,-242.699902 C268.281898,-246.699902 258.081898,-249.099902 250.081898,-245.999902 C249.781898,-246.299902 249.481898,-246.599902 249.181898,-246.899902 C250.181898,-247.099902 251.181898,-247.299902 252.281898,-247.599902 C253.181898,-247.799902 253.581898,-248.699902 253.381898,-249.599902 C253.281898,-250.299902 253.181898,-250.899902 253.081898,-251.499902 C256.181898,-261.499902 256.681898,-272.999902 254.081898,-283.199902 C251.281898,-293.899902 241.381898,-297.299902 231.581898,-299.399902 C222.081898,-301.499902 210.481898,-301.999902 201.381898,-297.999902 C192.681898,-294.199902 187.681898,-285.599902 185.181898,-276.799902 C185.081898,-276.699902 184.981898,-276.599902 184.881898,-276.499902 C184.381898,-275.999902 184.481898,-274.999902 185.081898,-274.699902 C187.181898,-273.399902 189.381898,-272.199902 191.681898,-270.999902 C191.581898,-270.199902 191.481898,-269.499902 191.281898,-268.699902 C190.781898,-266.299902 189.281898,-263.999902 189.281898,-261.599902 C189.281898,-260.299902 190.581898,-259.099902 191.381898,-258.199902 C191.881898,-257.699902 192.281898,-257.199902 192.781898,-256.599902 C191.781898,-254.399902 190.481898,-252.399902 189.181898,-250.399902 C187.981898,-248.599902 187.381898,-246.499902 188.681898,-244.599902 C188.881898,-244.299902 189.281898,-243.999902 189.681898,-244.199902 C190.781898,-244.599902 191.781898,-244.899902 192.881898,-245.099902 C192.981898,-244.099902 192.981898,-243.099902 192.881898,-241.999902 C192.781898,-241.199902 192.681898,-239.899902 193.381898,-239.299902 C194.281898,-238.499902 195.081898,-238.499902 196.181898,-238.599902 C197.381898,-238.799902 198.281898,-238.899902 199.281898,-238.799902 C199.181898,-238.599902 198.981898,-238.399902 198.881898,-238.199902 C198.081898,-237.099902 197.181898,-236.399902 196.681898,-235.199902 C195.781898,-233.199902 197.981898,-231.599902 199.281898,-230.299902 C198.881898,-228.799902 198.481898,-227.299902 199.081898,-225.699902 C199.781898,-223.799902 201.981898,-223.299902 203.781898,-223.099902 C206.781898,-222.799902 210.281898,-223.599902 213.181898,-224.299902 C213.481898,-224.399902 213.681898,-224.399902 213.981898,-224.499902 C215.581898,-223.099902 217.381898,-221.799902 218.781898,-220.499902 C220.281898,-219.199902 221.681898,-217.899902 223.081898,-216.599902 C221.281898,-213.199902 219.781898,-209.699902 218.381898,-206.099902 C217.181898,-202.799902 216.081898,-199.499902 215.281898,-196.099902 C214.581898,-193.399902 213.681898,-190.299902 213.581898,-187.399902 C212.381898,-186.499902 211.281898,-185.699902 210.081898,-184.899902 C208.481898,-183.799902 208.481898,-183.299902 208.181898,-181.299902 C207.281898,-175.599902 205.781898,-170.099902 203.881898,-164.799902 C200.681898,-163.299902 197.581898,-161.499902 194.781898,-159.299902 C190.281898,-155.799902 185.981898,-151.799902 185.081898,-146.099902 C184.681898,-143.499902 181.981898,-142.699902 180.681898,-140.699902 C180.181898,-139.899902 179.881898,-139.099902 179.881898,-138.299902 C177.581898,-136.499902 175.381898,-134.599902 173.181898,-132.699902 C170.681898,-130.499902 168.081898,-128.299902 165.581898,-126.199902 C163.281898,-124.199902 160.581898,-122.399902 158.381898,-120.299902 C156.381898,-119.399902 154.481898,-118.299902 152.681898,-117.099902 C147.481898,-113.499902 142.281898,-110.099902 136.581898,-107.299902 C133.681898,-105.899902 130.681898,-104.799902 127.781898,-103.599902 C126.481898,-103.099902 124.581898,-101.799902 125.081898,-100.099902 C126.081898,-96.4999017 131.581898,-97.5999017 134.481898,-99.2999017 C137.881898,-98.5999017 141.681898,-99.1999017 145.281898,-100.299902 C144.981898,-99.8999017 144.781898,-99.4999017 144.581898,-99.0999017 C143.681898,-96.8999017 144.581898,-94.8999017 146.781898,-93.9999017 C147.381898,-93.7999017 148.081898,-93.9999017 148.481898,-94.4999017 C149.781898,-95.8999017 151.281898,-97.0999017 152.681898,-98.3999017 C155.981898,-99.6999017 159.181898,-101.399902 162.381898,-102.999902 C165.681898,-104.699902 168.781898,-107.199902 170.281898,-110.499902 C175.081898,-112.699902 179.681898,-115.399902 184.181898,-118.099902 C187.081898,-119.799902 189.981898,-121.499902 192.881898,-123.199902 C192.981898,-123.099902 192.981898,-123.099902 193.081898,-122.999902 C193.481898,-122.699902 194.081898,-122.799902 194.481898,-122.999902 C200.081898,-126.099902 205.581898,-129.399902 211.081898,-132.699902 C216.881898,-132.899902 222.781898,-133.099902 228.481898,-133.899902 C231.981898,-134.399902 233.181898,-138.199902 234.381898,-140.999902 C236.281898,-145.099902 238.381898,-149.099902 240.581898,-153.099902 C242.781898,-157.199902 245.181898,-161.199902 247.681898,-164.999902 C249.281898,-164.299902 250.881898,-163.499902 252.481898,-162.599902 C257.781898,-159.699902 261.781898,-155.399902 266.081898,-151.199902 C269.981898,-147.299902 273.981898,-144.399902 278.881898,-141.799902 C282.581898,-139.799902 284.481898,-135.899902 286.281898,-131.999902 C285.781898,-130.599902 284.881898,-129.299902 283.481898,-129.199902 C282.481898,-129.099902 281.481898,-128.199902 281.881898,-127.099902 C282.381898,-125.599902 282.781898,-123.899902 283.381898,-122.299902 C276.481898,-117.699902 270.281898,-111.899902 265.181898,-105.399902 C263.681898,-105.199902 262.181898,-104.899902 260.681898,-104.499902 C259.181898,-104.099902 257.781898,-103.599902 257.281898,-101.899902 C256.781898,-99.8999017 256.781898,-97.3999017 256.881898,-95.0999017 C255.081898,-94.4999017 253.381898,-93.7999017 251.581898,-93.1999017 C247.481898,-91.6999017 244.381898,-90.2999017 241.581898,-86.8999017 C236.081898,-80.2999017 229.481898,-74.5999017 224.181898,-67.7999017 C221.981898,-64.9999017 221.181898,-62.3999017 222.181898,-58.8999017 C223.281898,-54.9999017 225.281898,-51.1999017 227.281898,-47.7999017 C228.981898,-44.7999017 230.981898,-41.6999017 233.281898,-38.8999017 C237.381898,-27.3999017 242.181898,-16.0999017 247.481898,-5.09990173 C246.481898,-3.99990173 245.481898,-3.09990173 244.281898,-2.29990173 C243.181898,-1.59990173 242.881898,-0.0999017304 243.881898,0.90009827 C247.281898,4.30009827 251.581898,7.50009827 256.281898,9.70009827 C257.381898,13.6000983 258.781898,17.5000983 259.781898,21.4000983 C260.681898,24.7000983 261.381898,28.0000983 261.981898,31.3000983 C259.481898,37.6000983 253.481898,42.6000983 247.381898,45.9000983 C242.581898,48.5000983 237.481898,50.2000983 232.481898,52.4000983 C230.981898,53.1000983 227.781898,53.7000983 227.581898,55.7000983 C227.381898,58.3000983 227.681898,60.6000983 228.681898,63.0000983 C228.881898,63.5000983 229.281898,63.8000983 229.781898,64.0000983 C229.781898,64.1000983 229.781898,64.2000983 229.781898,64.3000983 C229.681898,65.1000983 229.981898,65.8000983 230.781898,66.0000983 C232.281898,66.5000983 233.681898,66.8000983 235.181898,67.1000983 C234.681898,68.5000983 233.881898,69.8000983 232.981898,71.0000983 C229.481898,70.2000983 225.781898,70.9000983 223.281898,74.2000983 C219.181898,79.4000983 221.581898,86.3000983 226.481898,89.9000983 C231.781898,93.8000983 240.481898,92.9000983 244.581898,87.7000983 C245.281898,86.8000983 245.781898,85.9000983 246.181898,84.8000983 C248.081898,87.7000983 251.181898,89.7000983 254.881898,90.0000983 C260.181898,90.4000983 265.581898,85.7000983 266.181898,80.6000983 C266.281898,79.8000983 266.281898,79.0000983 266.181898,78.2000983 C266.981898,77.8000983 267.881898,77.3000983 268.581898,76.8000983 C268.781898,79.1000983 269.681898,81.5000983 271.281898,83.5000983 C273.181898,85.8000983 275.781898,87.1000983 278.381898,87.4000983 C279.181898,90.9000983 281.581898,94.1000983 284.381898,95.9000983 C290.181898,99.6000983 297.381898,96.6000983 299.581898,90.6000983 C300.681898,90.5000983 301.781898,90.3000983 302.881898,90.2000983 C304.581898,94.3000983 308.781898,97.2000983 313.181898,97.4000983 C318.681898,97.7000983 322.681898,93.4000983 323.481898,88.4000983 C323.481898,88.4000983 323.581898,88.4000983 323.581898,88.4000983 C324.981898,92.7000983 328.781898,95.9000983 333.281898,97.0000983 C338.481898,98.3000983 344.281898,95.8000983 345.581898,90.7000983 C347.481898,94.2000983 351.281898,96.6000983 355.381898,97.1000983 C361.581898,97.9000983 366.781898,92.9000983 366.881898,86.9000983 C366.981898,81.7000983 362.381898,76.4000983 357.381898,74.9000983 C356.581898,73.1000983 355.881898,71.3000983 355.281898,69.5000983 C355.381898,69.5000983 355.481898,69.5000983 355.581898,69.5000983 C356.281898,69.5000983 356.781898,69.2000983 357.081898,68.8000983 C357.681898,68.7000983 358.081898,68.2000983 358.081898,67.5000983 C357.381898,59.5000983 354.281898,51.6000983 349.281898,45.2000983 C347.781898,39.9000983 345.581898,34.7000983 343.481898,29.8000983 C341.781898,25.8000983 339.881898,21.8000983 337.881898,17.8000983 C339.881898,17.5000983 341.881898,17.2000983 343.981898,17.0000983 C345.581898,16.9000983 346.381898,15.2000983 345.281898,13.9000983 C335.381898,2.50009827 330.881898,-12.1999017 323.181898,-24.9999017 C324.181898,-25.0999017 325.181898,-25.0999017 326.181898,-24.9999017 C327.181898,-24.8999017 327.981898,-26.0999017 327.681898,-26.9999017 C326.681898,-30.0999017 325.481898,-33.0999017 324.081898,-35.8999017 C325.081898,-36.7999017 325.981898,-37.7999017 326.781898,-38.7999017 C327.181898,-39.2999017 327.381898,-39.9999017 326.981898,-40.5999017 C326.081898,-41.8999017 325.381898,-43.1999017 324.681898,-44.5999017 C328.081898,-58.7999017 339.181898,-69.9999017 343.881898,-83.5999017 C349.381898,-90.2999017 354.881898,-97.0999017 359.181898,-104.699902 C364.181898,-113.799902 367.281898,-125.399902 363.181898,-135.399902 C363.081898,-135.499902 363.081898,-135.599902 362.981898,-135.699902 C362.981898,-135.999902 362.881898,-136.299902 362.681898,-136.699902 C359.681898,-141.599902 356.881898,-147.099902 353.281898,-151.599902 C351.581898,-153.699902 349.581898,-155.499902 347.181898,-156.799902 C345.081898,-157.899902 342.881898,-158.499902 340.781898,-159.599902 C338.981898,-163.699902 336.481898,-167.699902 333.981898,-171.499902 C333.981898,-171.499902 333.981898,-171.599902 333.981898,-171.599902 C334.181898,-171.499902 334.381898,-171.399902 334.581898,-171.299902 C339.181898,-169.299902 343.781898,-167.299902 348.081898,-164.599902 C350.081898,-163.299902 351.881898,-161.899902 353.581898,-160.299902 C353.581898,-158.099902 354.181898,-156.099902 355.681898,-154.799902 C357.281898,-153.499902 359.081898,-153.099902 360.781898,-153.399902 C362.881898,-152.299902 364.781898,-151.199902 366.281898,-149.599902 C368.681898,-146.999902 369.481898,-143.099902 371.481898,-140.199902 C375.681898,-133.899902 385.081898,-134.999902 390.481898,-130.499902 C390.981898,-130.099902 391.681898,-130.199902 392.081898,-130.499902 C395.381898,-133.199902 394.681898,-136.399902 392.281898,-139.099902 C394.281898,-138.399902 396.381898,-137.599902 398.381898,-136.899902 C401.181898,-135.999902 403.981898,-134.999902 406.781898,-134.099902 C408.381898,-133.599902 409.381898,-133.199902 410.781898,-134.099902 C411.181898,-134.399902 411.381898,-134.999902 411.281898,-135.499902 C410.681898,-138.799902 404.281898,-141.399902 401.681898,-142.799902 C401.281898,-142.999902 400.881898,-143.199902 400.481898,-143.399902 C403.581898,-142.999902 406.581898,-142.699902 409.681898,-142.299902 C410.581898,-142.499902 411.181898,-142.799902 411.481898,-143.199902 Z M268.381898,65.2000983 C264.681898,64.9000983 253.981898,68.2000983 253.981898,68.2000983 L255.481898,63.7000983 L275.581898,59.5000983 C275.581898,59.5000983 274.381898,62.2000983 275.981898,62.5000983 C277.581898,62.8000983 280.281898,63.8000983 280.281898,63.8000983 C280.281898,63.8000983 272.081898,65.5000983 268.381898,65.2000983 Z M314.581898,47.9000983 L304.581898,50.6000983 C304.581898,50.6000983 304.881898,43.0000983 298.781898,35.9000983 C292.681898,28.8000983 294.881898,21.8000983 293.581898,19.6000983 C292.281898,17.4000983 288.981898,15.7000983 288.481898,12.5000983 C288.081898,9.20009827 287.781898,2.50009827 291.181898,2.70009827 C291.181898,2.70009827 297.881898,9.40009827 299.681898,13.1000983 C301.481898,16.8000983 302.981898,32.0000983 302.981898,32.0000983 C302.981898,32.0000983 308.481898,30.5000983 309.981898,31.4000983 C311.481898,32.3000983 313.681898,38.7000983 314.581898,41.2000983 C315.481898,43.7000983 314.581898,47.9000983 314.581898,47.9000983 Z M331.981898,71.9000983 L329.581898,75.9000983 L323.181898,76.3000983 L320.081898,75.1000983 C319.981898,74.4000983 318.581898,72.4000983 318.581898,72.4000983 L331.981898,71.9000983 Z"/>
    <path fill="#fff" d="M56.2265021,86.2507039 C43.369288,98.7296185 49.1645621,97.6693385 50.6178945,84.3815333 C50.82845,82.455696 48.5606736,85.6993138 48.8506734,83.8620878 C49.1403955,82.0251396 51.9878937,75.1079031 52.3817823,72.7442871 C52.775671,70.3809489 50.71595,72.5712312 49.208451,74.2665124 C47.7009519,75.9615159 46.7459525,77.1617962 47.9790073,74.4717906 C49.2117843,71.7820629 52.6326155,65.2020493 54.6617809,61.0506518 C56.6912241,56.8992544 57.3287237,55.1767508 55.6634469,56.2803642 C53.9978924,57.3839776 50.029006,61.3137079 49.6940062,60.9295405 C49.3590064,60.5456508 52.6570599,55.8478633 55.2342805,50.6997971 C57.8112233,45.5517309 59.6667777,39.9531082 59.1592781,39.0753287 C58.6517784,38.1975491 55.7815024,42.0406126 53.9265036,44.4164508 C52.0709492,46.792289 51.2306719,47.7006242 51.671505,46.4006216 C52.112338,45.1006189 53.8342814,41.5920005 55.3934471,37.446992 C56.952335,33.3017056 58.3484452,28.5200291 57.969001,27.500027 C57.5895568,26.4803026 55.4342804,29.2216972 53.9653924,31.0786455 C52.4965045,32.9361493 51.7137272,33.9089291 51.953727,32.9617049 C52.1937269,32.0144807 53.4559483,29.1475304 54.2292812,25.72919 C55.0023362,22.3108496 55.2859472,18.3411192 54.551781,18.4488972 C53.817337,18.556953 52.0653936,22.7425171 51.3406719,22.5514056 C50.6156723,22.3600164 50.9184499,17.7919514 50.7637278,14.2930553 C50.6092834,10.7938814 49.9970616,8.36359857 49.382062,9.84026828 C48.7667846,11.3166602 48.1481739,16.7000047 47.6715075,17.1505612 C47.1948411,17.6011176 46.8595636,13.1191639 45.5709533,8.65748806 C44.2820652,4.19581218 42.0403999,-0.245030321 41.344567,0.0105257622 C40.6487341,0.266081846 41.4990114,5.21859207 41.7954001,9.14860019 C42.0920666,13.0788861 41.8345667,15.9863921 40.5073453,14.4522223 C39.1804017,12.9180524 36.7834588,6.94192896 35.9773482,6.20776078 C35.1712376,5.47387038 35.9562371,9.98165746 36.4715145,13.9516657 C36.986792,17.9216739 37.2331807,21.3541809 36.3767924,20.8497355 C35.5206818,20.34529 33.5620719,15.9041697 33.1756833,17.8011181 C32.7890168,19.6980664 33.9748494,27.9325279 34.0779049,30.7858671 C34.1809604,33.6386508 33.2012388,31.1103122 32.1704061,28.9783634 C31.1395734,26.8461367 30.0576297,25.1105776 30.2104073,27.1622485 C30.3629073,29.2139194 31.7504064,35.0528203 32.6073503,38.6994945 C33.4642942,42.3461687 33.7906829,43.8006162 32.7362391,42.6039471 C31.6815175,41.4070001 29.2462413,37.5589366 29.1109636,39.2956069 C28.9754081,41.0319994 31.140129,48.3531256 31.9426285,51.683688 C32.745128,55.0139727 32.1854061,54.3542491 30.5876293,52.4700785 C28.9898526,50.585908 26.3540209,47.477846 26.1829099,49.0522937 C26.0117989,50.6267414 28.3051308,56.8845321 29.761241,60.9820406 C31.2170734,65.079549 31.8354063,67.0176086 30.3923517,65.510661 C28.949297,64.0037135 25.4442992,59.0517588 25.132355,60.2353724 C24.8198552,61.4192637 27.6998534,68.7384455 29.4848522,73.2398437 C31.2695733,77.7409641 31.9590174,79.4240231 30.4029072,78.0187424 C28.8470749,76.613184 25.0456884,72.119008 25.0004106,73.6940113 C24.9551329,75.2692923 28.6662417,82.913197 30.2304073,86.5165377 C31.794573,90.1198785 31.2117956,89.6826554 29.5623522,88.4443195 C27.9131866,87.2062614 25.1973549,85.1673683 26.0815211,87.3982062 C26.9651316,89.6290442 31.4492955,96.1290576 33.3242943,99.2532307 C35.1992931,102.377126 34.4651269,102.125181 32.9965167,101.620458 C31.5276287,101.115457 29.3237412,100.358511 30.5454071,101.918514 C31.767073,103.478239 36.4145701,107.355747 39.2492906,110.639088 C41.4904003,113.23576 41.595678,121.086331 42.4978996,125.278562 C43.4712324,129.800516 43.6653989,133.353579 42.5559552,137.22942 C41.4462336,141.105262 39.0329018,145.303881 36.7084588,149.0725 C34.3842936,152.840564 32.1487395,156.178348 31.3656844,160.969191 C30.5826293,165.760312 31.2515178,172.00477 31.9359618,177.926449 C32.6201281,183.84785 33.3195721,189.446195 35.5984595,192.137867 C37.877347,194.829539 41.7356779,194.614261 44.8292871,193.860371 C47.9226184,193.106758 50.2509503,191.815089 51.0373387,190.253974 C51.8234493,188.692582 51.0676165,186.862578 49.508173,185.678131 C47.9490073,184.493685 45.5859532,183.955628 44.2712319,181.586734 C42.9565105,179.218396 42.6895662,175.019498 42.6309551,172.058937 C42.572344,169.097819 42.7217884,167.375316 44.091232,164.737533 C45.4603978,162.099749 48.0495628,158.546964 51.4695607,155.270846 C54.8898363,151.995006 59.140667,148.996389 61.5720543,147.704442 C64.0034417,146.412495 64.6153857,146.827496 64.6356635,148.918611 C64.6553857,151.010282 64.0834416,154.778623 63.13372,157.631685 C62.1837206,160.485024 60.8559437,162.422528 61.6845542,164.898922 C62.5131648,167.375316 65.4984407,170.389766 68.1553835,173.996441 C70.8123263,177.60367 73.1406582,181.80229 75.2287124,184.170628 C77.3164889,186.539522 79.1639877,187.077579 82.1645414,187.023968 C85.1650951,186.970079 89.318148,186.323966 90.9625914,184.601463 C92.6067571,182.878959 91.7417576,180.079787 90.3742585,178.464505 C89.0070371,176.84978 87.1375938,176.418946 85.855928,176.634224 C84.5745399,176.84978 83.8814848,177.710893 82.3917635,176.688113 C80.9020422,175.665333 78.6162103,172.758382 77.3345444,170.228377 C76.0531563,167.698372 75.7762121,165.544756 76.4684339,162.691973 C77.1606556,159.838634 78.8217657,156.285571 79.5959319,152.786675 C80.3700981,149.287778 80.2567648,145.842771 81.5725973,141.96693 C82.8884298,138.090811 85.6331503,133.784135 88.5789818,133.245801 C91.5250911,132.707744 94.6720335,135.937473 96.4578657,138.521367 C98.2434202,141.105262 98.6678644,143.043321 98.3992534,145.842494 C98.1303647,148.641944 97.1684209,152.302507 97.8698093,156.393626 C98.5711978,160.485024 100.935918,165.0067 103.377584,169.905321 C105.819249,174.803942 108.337581,180.079787 109.902857,184.97813 C111.468412,189.877029 112.081189,194.398983 113.815355,196.982877 C115.54952,199.566771 118.40563,200.212884 121.759517,199.943439 C125.113681,199.674549 128.965901,198.490102 130.598955,196.82121 C132.232288,195.152318 131.646177,192.99898 130.672844,191.222865 C129.699789,189.446195 128.339235,188.04647 127.14368,187.347024 C125.948125,186.647022 124.917292,186.647022 123.201182,184.224795 C121.485628,181.80229 119.08424,176.95728 117.293408,172.650882 C115.502576,168.344484 114.322299,164.575866 114.160632,161.615304 C113.998966,158.654742 114.855632,156.501127 116.265631,153.917232 C117.675075,151.333338 119.637573,148.318888 120.879795,147.29583 C122.121739,146.273328 122.643405,147.242219 125.60757,152.356118 C128.571179,157.470295 133.978398,166.729203 137.819506,173.835051 C141.660893,180.940899 143.937003,185.893132 145.387279,188.854249 C146.837279,191.815089 147.461723,192.783979 150.288665,193.322036 C153.115052,193.860648 158.143938,193.968149 161.17477,193.268425 C164.205601,192.568701 165.237823,191.061198 165.328934,189.123416 C165.420045,187.185635 164.568934,184.816741 163.318935,183.632572 C162.068936,182.448125 160.41977,182.448125 159.160604,182.555903 C157.90116,182.663403 157.031994,182.878959 155.092829,179.541174 C153.153663,176.203667 150.143943,169.313375 148.037556,164.037809 C145.931446,158.761965 144.728669,155.101679 144.25478,151.656117 C143.002281,142.551931 146.708668,135.983029 148.927555,127.380233 C150.87672,119.81994 150.87672,116.643822 150.387276,113.763816 C149.897554,110.88381 148.918388,108.299638 148.892833,106.577135 C148.866999,104.854631 149.794777,103.99324 150.773943,104.370186 C151.753387,104.746853 152.783664,106.361856 154.227274,107.519359 C155.670329,108.676861 157.525883,109.376585 159.200604,108.946028 C160.875881,108.515194 162.370324,106.954358 162.679491,105.958522 C162.989213,104.962409 162.112547,104.531575 161.597269,103.37435 C161.08227,102.216848 160.92727,100.332955 161.339492,98.9598968 C161.751991,97.5871162 162.731157,96.7260033 164.045323,96.6451698 C165.359767,96.5643363 167.008933,97.2643377 168.55532,97.2373932 C170.101431,97.2104487 171.544763,96.456836 172.755596,95.1379444 C173.966984,93.8193306 174.946428,91.9348823 174.997816,90.9929359 C175.049483,90.0507117 174.173095,90.0507117 173.554762,89.1626543 C172.936151,88.2743191 172.575318,86.4979266 172.420874,84.721534 C172.266151,82.9451415 172.317818,81.1687489 171.725041,79.8229128 C171.132263,78.4770767 169.89532,77.561797 168.01421,76.0815162 C166.132822,74.6009576 163.607268,72.5553978 161.777547,70.617616 C159.948104,68.6795565 158.813938,66.8492749 158.118383,63.8887132 C157.42255,60.927596 157.164772,56.8364764 156.108106,55.5445293 C155.051718,54.25286 153.196441,55.7598076 151.856164,57.2134217 C150.516165,58.666758 149.691443,60.0664831 149.021722,61.600653 C148.351444,63.1351006 147.836167,64.8037151 146.753667,64.8037151 C145.671446,64.8037151 144.022003,63.1351006 142.759503,61.2239855 C141.496726,59.3128704 140.620338,57.1595327 139.924783,55.7870298 C139.22895,54.4142492 138.713395,53.8220258 137.631173,54.5486939 C136.548674,55.2756399 134.899508,57.3209219 133.868676,59.6089822 C132.837843,61.8967647 132.425343,64.4270477 132.270899,66.6339967 C132.116177,68.8409457 132.219232,70.7251162 131.600899,72.9592875 C130.982289,75.193181 129.642289,77.777353 128.482568,80.3073582 C127.322846,82.8373635 126.343958,85.3137575 125.80257,87.3323728 C125.261181,89.350988 125.158125,90.9121024 123.337571,89.0787653 C123.012849,88.7476535 121.614239,85.4670911 121.366739,84.8459787 C120.586184,82.8851413 119.620073,80.0993023 118.331463,77.2192963 C117.043131,74.3392904 115.432298,71.3651176 114.963687,71.7456739 C114.495077,72.1262302 115.16841,75.8617935 114.531188,76.366239 C113.89341,76.8709623 111.943967,74.1448455 109.648691,71.6848404 C107.353414,69.2251131 104.711749,67.0317753 104.453972,67.6642766 C104.196194,68.2967779 106.322582,71.7553961 105.729804,72.3206751 C105.137027,72.885954 101.82564,70.5576159 98.649531,68.9628904 C95.4731441,67.3681649 92.4323127,66.5067742 92.1931462,67.0842754 C91.9537019,67.6620544 94.5159225,69.6787252 93.5884231,70.1092816 C92.6606459,70.5398381 88.2428709,69.3848357 85.028984,68.8606679 C81.8150972,68.3370558 79.8048206,68.444556 79.9337095,68.9492792 C80.0625983,69.4542803 82.3303746,70.3559488 81.1706531,70.7056718 C80.0112094,71.0556725 75.4239901,70.8537276 72.5117697,70.9142833 C69.6001048,70.974839 68.3631612,71.2976174 69.1617718,71.721785 C69.9606602,72.1456747 72.7953806,72.6706758 72.3059365,73.2626215 C71.8162146,73.8548449 68.0020503,74.5142907 65.4251075,75.3284591 C62.8481646,76.1426274 61.5081655,77.1115183 61.9462208,77.441519 C62.384276,77.7712419 64.6006635,77.461519 64.3170526,77.9998535 C64.0337194,78.5381879 61.2503879,79.9245797 59.2403891,81.0481931 C57.2301126,82.1718065 55.9934467,83.0331972 55.9676134,83.3562534 C55.9417801,83.6793097 57.1273349,83.4637537 57.3723347,83.8562545 C57.6398346,84.285422 56.5553908,85.933481 56.2265021,86.2507039"/>
  </g>
</svg>
