<svg xmlns="http://www.w3.org/2000/svg" width="200" height="200" viewBox="0 0 200 200">
  <path fill="#fff" d="M179.825264,75 C182.132602,75 184,76.8636719 184,79.1667969 C184,81.4699219 182.132602,83.3335938 179.824873,83.3335938 C171.434304,83.3335938 158.95002,89.990625 158.95002,108.333594 C158.95002,117.228125 162.325896,123.526953 166.239955,130.826953 C170.651492,139.054297 175.650137,148.388672 175.650137,162.5 C175.650137,186.686328 162.309848,200 138.075166,200 L37.8752446,200 C35.5675152,200 33.7001174,198.136328 33.699726,195.833203 L33.699726,187.5 C33.699726,180.607031 39.3179669,175 46.2247162,175 L50.3998434,175 L50.3998434,138.500781 C48.4510332,134.635156 42.0499804,121.280469 42.0499804,112.499609 C42.0499804,99.340625 45.5644144,93.4976563 48.1332116,89.225 C49.6663487,86.678125 50.4002348,85.3675781 50.4002348,83.3332031 L50.4002348,81.1929688 C50.4084544,74.1292969 50.4084544,68.0257813 49.6009839,66.8539063 C49.5927644,66.8539063 49.5927644,66.8539063 49.5927644,66.8539063 C49.4949129,66.8539063 48.7285401,66.6667969 46.2251076,66.6667969 C34.923261,66.6667969 17,61.0109375 17,45.8335937 C17,40.3730469 22.1289835,36.74375 26.6548104,33.5453125 C28.2122147,32.446875 29.7206932,31.4132813 30.7481338,30.3878906 C31.6205776,29.5167969 32.6319706,28.003125 33.7001174,26.4082031 C36.5949558,22.0625 40.1990217,16.6667969 46.2251076,16.6667969 C47.5300551,16.6667969 50.4002348,10.6203125 50.4002348,4.16679688 C50.4002348,1.86367187 52.2676326,0 54.5753621,0 C67.3038834,0 72.9385633,12.6546875 74.6916706,17.7570313 C78.9157235,19.7671875 87.9752055,25.4882812 87.9752055,37.5 L87.9752055,79.1667969 C87.9752055,84.3914063 100.549121,95.5890625 108.067247,102.278906 C111.108471,104.988672 113.897238,107.478906 115.976778,109.554297 C117.395625,110.970313 119.043052,112.410547 120.79616,113.948828 C129.847422,121.883203 142.250294,132.755469 142.250294,154.166797 L142.250294,170.833594 C142.250294,178.998047 138.849759,186.366797 133.413522,191.666797 L138.075166,191.666797 C157.743315,191.666797 167.300274,182.128906 167.300274,162.5 C167.300274,150.471875 163.206951,142.838672 158.876827,134.757422 C154.80777,127.164453 150.600157,119.319531 150.600157,108.333203 C150.600157,86.6863281 165.661066,75 179.825264,75 Z M47.4493025,42.1796165 C50.2986413,42.1796165 52.6084867,39.875532 52.6084867,37.0332997 C52.6084867,34.1910674 50.2986413,31.8869828 47.4493025,31.8869828 C44.5999638,31.8869828 42.2901184,34.1910674 42.2901184,37.0332997 C42.2901184,39.875532 44.5999638,42.1796165 47.4493025,42.1796165 Z"/>
</svg>
